<svg xmlns="http://www.w3.org/2000/svg" width="67.619" height="60.685" viewBox="0 0 67.619 60.685">
  <g id="orgullo_3_" data-name="orgullo (3)" transform="translate(0.01 -26.341)">
    <g id="Grupo_1088348" data-name="Grupo 1088348" transform="translate(0.99 27.341)">
      <path id="Trazado_862566" data-name="Trazado 862566" d="M245.145,38.321a4.474,4.474,0,0,1-4.474,4.474h-32.81c-.261-.207-2.293-1.865-2.158-4.143.148-2.5,2.849-4.894,6.467-4.8h28.5A4.474,4.474,0,0,1,245.145,38.321Z" transform="translate(-179.525 -33.845)" fill="#5b778f" stroke="#000" stroke-width="2"/>
      <path id="Trazado_862567" data-name="Trazado 862567" d="M40.146,33.863a4.31,4.31,0,0,0-4.309,4.309v4.639H11.975a4.474,4.474,0,0,1,0-8.948Z" transform="translate(-7.501 -33.861)" fill="#5b778f" stroke="#000" stroke-width="2"/>
      <path id="Trazado_862568" data-name="Trazado 862568" d="M96.949,71.5a232.194,232.194,0,0,1,0,51.516L88,124.937A74.782,74.782,0,0,1,88,71.5Z" transform="translate(-73.086 -66.53)" fill="#2ecefb" stroke="#000" stroke-width="2"/>
      <path id="Trazado_862569" data-name="Trazado 862569" d="M238.71,71.5h8.948a64.727,64.727,0,0,1,0,51.516c-7.839-1.679-7.839-1.738-8.948-1.738a119.262,119.262,0,0,1,0-49.778Z" transform="translate(-205.901 -66.53)" fill="#ffcf6b" stroke="#000" stroke-width="2"/>
      <path id="Trazado_862570" data-name="Trazado 862570" d="M382.144,75.464v41.8a7.923,7.923,0,0,1-9.583,7.747l-.359-.077a123.026,123.026,0,0,1,0-53.434h5.98A3.962,3.962,0,0,1,382.144,75.464Z" transform="translate(-321.496 -66.53)" fill="#ff6e80" stroke="#000" stroke-width="2"/>
      <path id="Trazado_862573" data-name="Trazado 862573" d="M55.093,71.5v53.434a7.929,7.929,0,0,1-9.942-7.671v-41.8A3.962,3.962,0,0,1,49.112,71.5Z" transform="translate(-40.179 -66.53)" fill="#996acc" stroke="#000" stroke-width="2"/>
      <path id="Trazado_862574" data-name="Trazado 862574" d="M332.68,71.5v53.434l-8.949-1.919V71.5Z" transform="translate(-281.974 -66.53)" fill="#ff9a5c" stroke="#000" stroke-width="2"/>
      <path id="Trazado_916508" data-name="Trazado 916508" d="M323.731,71.5v51.516l8.949-1.85V71.5Z" transform="translate(-299.974 -66.531)" fill="#8ce09f" stroke="#000" stroke-width="2"/>
      <rect id="Rectángulo_404468" data-name="Rectángulo 404468" width="19" height="3" transform="translate(21.668 1.01)" fill="#5b778f"/>
    </g>
  </g>
</svg>
