<svg xmlns="http://www.w3.org/2000/svg" xmlns:xlink="http://www.w3.org/1999/xlink" width="1600" height="1862" viewBox="0 0 1600 1862">
  <defs>
    <clipPath id="clip-path">
      <rect id="Rectángulo_417381" data-name="Rectángulo 417381" width="1600" height="1862" transform="translate(0 499)" fill="none" stroke="#707070" stroke-width="1"/>
    </clipPath>
    <clipPath id="clip-path-2">
      <rect id="Rectángulo_414758" data-name="Rectángulo 414758" width="1600" height="1069" transform="translate(0 1398)" fill="#fff" stroke="#707070" stroke-width="1"/>
    </clipPath>
    <clipPath id="clip-path-3">
      <path id="Trazado_870280" data-name="Trazado 870280" d="M0-174H1600V1078.578s-185.948,49.957-313.807,44.794c-126.358-5.163-369.308-63.854-490.741-89.793-119.928-25.941-318.815-59.658-402.274-60.1-83.459,1.4-285.322,12.161-393.177,84.587C.389,1039.034,0-174,0-174Z" transform="translate(0 17260.002)" fill="#f2f6ff" clip-rule="evenodd"/>
    </clipPath>
    <linearGradient id="linear-gradient" x1="0.049" y1="0.524" x2="1" y2="0.485" gradientUnits="objectBoundingBox">
      <stop offset="0" stop-color="#a57af0"/>
      <stop offset="1" stop-color="aqua"/>
    </linearGradient>
    <linearGradient id="linear-gradient-2" x1="0.5" x2="0.5" y2="1" gradientUnits="objectBoundingBox">
      <stop offset="0" stop-color="#fff"/>
      <stop offset="1" stop-color="#fff" stop-opacity="0"/>
    </linearGradient>
    <clipPath id="clip-path-4">
      <rect id="Rectángulo_417380" data-name="Rectángulo 417380" width="1600" height="919" transform="translate(0 499)" fill="none"/>
    </clipPath>
  </defs>
  <g id="Enmascarar_grupo_1079219" data-name="Enmascarar grupo 1079219" transform="translate(0 -499)" clip-path="url(#clip-path)">
    <g id="Grupo_1104426" data-name="Grupo 1104426" transform="translate(8249.277 13700.779)" opacity="0.56">
      <path id="Trazado_906849" data-name="Trazado 906849" d="M460.225,194.379a58.741,58.741,0,0,1,8.631-4.432c.643-.286,1.251-.5,1.894-.751.643-.268,1.269-.5,1.841-.7,1.412-.536,2.895-1.09,4.557-1.715l4.664.375c7.541-3.27,2.895-2.68,8.077-5.5a124.875,124.875,0,0,0,13.474-3.949,102.834,102.834,0,0,1,10.221-2.966c2.252.411-2.341,1.644-3.252,2.484,2.019-.7,3.413-1.144,4.61-1.68,1.179-.447,2.109-.893,3.127-1.34a21.4,21.4,0,0,1,9.078-1.59l.143.5a21.008,21.008,0,0,1,2.144-.107l1.09-.036h.5l.25-.036,1.054-.054h.715a2.567,2.567,0,0,1,2.52,1.59,3.78,3.78,0,0,1,.143,1.68,5.168,5.168,0,0,1-.143.893c-.036.179-.143.447-.2.679a8.367,8.367,0,0,1-.268.8,99.937,99.937,0,0,1-4.682,10.025c-3.627,7.076-7.952,14.367-11.061,23.248-.393,1.09-.75,2.269-1.054,3.467-.339,1.144-.572,2.466-.822,3.717a36.222,36.222,0,0,0-.447,4.039,26.752,26.752,0,0,0,.214,4.432c.125.768.214,1.59.411,2.359.214.751.465,1.519.715,2.252a11.8,11.8,0,0,0,.947,2.216,18.621,18.621,0,0,0,1.019,1.823,23.176,23.176,0,0,0,5.915,6.594c-2.43-2.2-1.465-2.019-2.055-3.127a20.083,20.083,0,0,0,6.236,4.61,22.042,22.042,0,0,0,7.309,2,37.226,37.226,0,0,0,12.938-1.269c7.827-2.055,14.635-5.254,21.229-8.309q4.825-2.305,9.578-4.575c3.61-1.644,4.914-2.341,7.148-3.234a21.623,21.623,0,0,1,6.88-1.715,8.1,8.1,0,0,1,3.574.643,7.839,7.839,0,0,1,2.7,2.234,6.429,6.429,0,0,1,1.573,4.575,14.222,14.222,0,0,1-1.179,4.5,20.466,20.466,0,0,0,2.395-4.718,8.018,8.018,0,0,0-.357-5.843,7.782,7.782,0,0,0-3.842-4.253,11.869,11.869,0,0,0-5.986-.768,47.814,47.814,0,0,0-12.473,3.431,181.988,181.988,0,0,0-22.873,11.311c-3.413.572-7.487,2.073-11.347,2.913-3.824.876-7.505.876-8.881-.232a16.781,16.781,0,0,1-8.845-3.628,19.249,19.249,0,0,1-5-6.808,18.861,18.861,0,0,1-1.251-7.684,35.543,35.543,0,0,1,1.054-7.13c2.323-9.113,6.5-17.3,12.223-28,1.876-2.913,1.912-1.019,3.163-1.519,0,0-1.984,4.414-4.217,8.81-1.09,2.2-2.18,4.414-3,6.076-.8,1.662-1.34,2.788-1.34,2.788s1.555-2.573,3.181-5.111l3.234-5.057c-.876,2.466-3.038,6.379-4.753,9.953-1.751,3.574-2.948,6.862-2.484,7.845a87.776,87.776,0,0,1,5.736-13.134c2.377-4.646,5.093-9.471,7.255-14.51a34.927,34.927,0,0,0,2.52-7.845,11.593,11.593,0,0,0-.84-7.612,9.448,9.448,0,0,0-5.575-4.164c-.536-.143-1.054-.286-1.573-.429-.518-.125-1.054-.143-1.555-.214-.5-.054-.983-.107-1.465-.161-.482,0-.947,0-1.412.018a20.472,20.472,0,0,1,2.466.572,16.2,16.2,0,0,1,2.5.786,10.434,10.434,0,0,1,4.557,3.02,8,8,0,0,1,1.751,5.379,18.893,18.893,0,0,1-1.126,5.718c-1.537,3.038-4.539,7.9-5.164,7.13a71.422,71.422,0,0,0,2.448-7.595,13.279,13.279,0,0,0,.286-5.9,6.214,6.214,0,0,0-3.52-4.2,5.71,5.71,0,0,0-1.287-.518,6.951,6.951,0,0,0-1.322-.375l-1.34-.286-1.5-.179c-.876-.143-2.323-.2-3.538-.3-1.269-.125-2.52-.036-3.806-.072-1.269,0-2.573.143-3.86.214-1.3.107-2.609.3-3.931.465a94.929,94.929,0,0,0-16.351,4.128c-5.647,1.912-13.474,4.557-14.724,4.056,3.681-1.608.59-1.3,3.556-2.788-7.934,3.556.3,3.288-11.758,7.112l.536-3.413a9.608,9.608,0,0,1-4.021,2.734c-.858.34-1.769.643-2.752.929-.929.268-1.894.536-2.877.822-4,1.144-8.577,2.663-12.312,5.307-3.449.179,1.733-2.913,7.952-5.611-7.362,2.484-7.237,4.5-13.063,6.9l4.414-4.735c-5.075,4.95-11.222,4.217-14.975,4.539-.107.375.822.75.786,1.358,0,.3-.286.643-1.054,1.072a15.819,15.819,0,0,1-4.128,1.394c-3.645.482-1.948-.59-2.859-.768a4.589,4.589,0,0,1-2.412,1.573,13.182,13.182,0,0,1-2.752.786c-.554.089-1.144.179-1.787.25-.643.054-1.34.036-2.073.036-.518-.447.465-.751,1.59-1.054,1.108-.34,2.359-.786,2.5-1.233a35.758,35.758,0,0,1-5.129.089h.018a9.868,9.868,0,0,1,1.7-5.272c1.072-3.467.679-3.074.071-2.609-.59.536-1.34,1.215-.965-.375,2.859-4.36,4.271-5.254,5.111-5.307.84-.089,1.608.7,3.735-1.8a66.982,66.982,0,0,1-2.537,7.38c-.625,1.5-1.287,3.109-1.894,4.7-.2.751-.375,1.483-.572,2.216.036.393.054.768.054,1.144-1.519-1.626-3.02-3.27-4.36-4.7a26.563,26.563,0,0,0,7.9-1.34,35.266,35.266,0,0,1-7.863.893l4.771,5.146V189.7l.643-2.162c.679-1.555,1.376-3.109,2.109-4.628.322.554,2.806-3.252,4.217-5.575.715-1.144,1.287-2.055,1.537-2.055.143-.018.2.2.125.733a13.025,13.025,0,0,1-.679,2.788,40.021,40.021,0,0,0,3.735-12.223,30.435,30.435,0,0,0,.268-6.576l-.071-.965c-.036-.3-.2-.268-.286-.429-.232-.214-.447-.429-.679-.679-.465-.447-.929-1.054-1.412-1.608-7.237,2.126-14.617,4.271-21.837,6.683-3.556,1.161-7.094,2.305-10.275,3.252-1.215.375-2.412.733-3.61,1.09-1.036.3-2.055.59-3.056.876,2.126-.107,4.861-.554,4.575.179-7.469,2.395-6.88.822-8.542.429a11,11,0,0,0-4.682,2.448,10.513,10.513,0,0,1-3.163,2.484c-.733-.036-1.412-.071-2.073-.125-.625-.036-1.054-.107-1.537-.161-.929-.107-1.715-.25-2.43-.375a15.983,15.983,0,0,1-3.574-1.09,5.662,5.662,0,0,1-2.466-2.216,5.252,5.252,0,0,1-.107-4.324s-.5.232-1.019.465c-.5.25-1,.518-1,.518.286-1.43.679-2.395.876-3.217.232-.822.34-1.519.482-2.252a10.457,10.457,0,0,1,.786-2.412,15.718,15.718,0,0,1,2.538-3.52c.268-.071.089.572-.268,1.483-.179.447-.393.983-.625,1.537-.2.5-.268.822-.393,1.233a12.006,12.006,0,0,1,1.769-2.806,16.89,16.89,0,0,1,1.823-1.787,18.334,18.334,0,0,0,4.164-4.878l-.858,2.7-.768,2.663c2.984-4.164,7.648-10.758,7.166-7.523a67.682,67.682,0,0,1,4.467-7.237c1.8-2.68,3.9-5.522,5.951-8.953a30.927,30.927,0,0,0,2.948-6.236,14.02,14.02,0,0,0,.7-5.289,9.172,9.172,0,0,0-.3-1.841,8.148,8.148,0,0,0-.733-1.948,9.879,9.879,0,0,0-2.573-3.27,11.856,11.856,0,0,0-5.236-2.43,19.51,19.51,0,0,0-3.717-.357,29.185,29.185,0,0,0-5.682.572l.768-1.608c-3.574,1.215-9.489,2.323-15.1,3.77-.7.179-1.394.375-2.091.554l-1.019.286c-.357.089-1,.3-1.34.411-1.5.536-2.716,1.036-3.86,1.555a19.851,19.851,0,0,0-5.093,3.056l-1.072-.25-10.7,6.362c-5.254,1.787-4.289-1.036-4.485-.286-11.168,4.61-20.21,7.648-27.609,8.685-.232,1.09-2.412,2.377-5.861,3.306a22.025,22.025,0,0,1-5.736.786,8.171,8.171,0,0,1-3-.518,3.816,3.816,0,0,1-2.144-1.894,6.071,6.071,0,0,1,.125-3.431,16.161,16.161,0,0,1,1.34-3.2,28.355,28.355,0,0,1,1.769-2.931l2.019-2.716,1-1.358c.357-.482.59-.84,1.126-1.465l2.877-3.467c1.841-2.341,3.967-4.592,6.058-6.88a287.92,287.92,0,0,1,27.323-25.411c19.21-15.922,39.456-30.271,57.594-44.46a64.98,64.98,0,0,0,6.326-5.45c2.162-2.126,4.378-4.45,6.63-6.755l1.019,3.074c-1.894.357-3.842,1.858-7.148,2.234a22.7,22.7,0,0,0,2.716-.232c.7-.143,1.34-.286,1.966-.411.5-.089,1.072-.268,1.43-.286.375-.036.715-.089,1.036-.143-.608-1.8-1.2-3.61-1.715-5.164-3.663,2.823-5.432,4.861-11.383,9.042-6.63,4.039-10.2,3.9-16.44,6.612l3.77-.5c-7.863,7.094-6.469,3.324-12.33,9.471l-1.3-2.5c-1.608,2.823-8.309,6.058-11.222,7.184l-1.126,3.163c-6.058,2.948-9.828,5.146-12.509,4.932l1.573,1.054a20.766,20.766,0,0,0-4.289,2.52c-1.966,1.412-4.324,3.091-6.415,4.575-4.2,2.966-7.452,5.093-5.254,1.394-1.287,1.555-2.144,3.342-5.593,5.9l-1.626-.947c-2.234,2.2-4.664,4.45-6.719,6.29-2.037,1.876-3.788,3.234-4.789,3.467,2.252-2.609,2.591-3.949,2.913-5.289-2.52,2.216-4.414,4.021-5.826,5.486a23.9,23.9,0,0,0-2.895,3.645c-1.179,1.912-1.09,2.859-.929,3.753a4.278,4.278,0,0,1-.429,3.359c-.786,1.715-2.609,4.2-6.5,8.667l-.7-.965-2.966,5.54s-.322.25-.822.643c-.25.2-.536.429-.84.661a7.1,7.1,0,0,0-1.019.911l-3.091,3.377a26.078,26.078,0,0,1-1.948,4.878,33.433,33.433,0,0,0-2.5,5.843,27.312,27.312,0,0,0-1.5,6.7,10.694,10.694,0,0,0,1.662,7.273,12.6,12.6,0,0,0,6.362,4.253,25.78,25.78,0,0,0,8.023,1.126,42.476,42.476,0,0,0,8.631-1c1.394-.286,2.77-.661,4.056-1.019q.965-.295,1.876-.59a12.385,12.385,0,0,0,1.376-.536c5.325-1.7,12.991-1.608,22.748-5.379L340.1,138c4.253-.536,13.777-3.359,23.159-5.968,2.341-.643,4.682-1.269,6.826-1.769.518-.107,1.036-.214,1.537-.322a5.046,5.046,0,0,1,1.161-.143,1.861,1.861,0,0,0,.59-.036l.768-.071c.518-.036,1.019-.089,1.5-.125,3.931-.268,7.112-.054,8.9.661,6.111-2.323-.661-.3-.876-1.626a23.446,23.446,0,0,1,6.915-1.43,3.234,3.234,0,0,1,.733.089.5.5,0,0,1,.2.071c.036-.071-.089.447.179-.786a13.816,13.816,0,0,1,2.162-5.629c.608-.751.768-.482-.107-.322a10.987,10.987,0,0,1-4.592-.393,33.033,33.033,0,0,1-3.913-1.144c-.071-.054-.2,0-.322.054a5.026,5.026,0,0,0-1,.911c-.59,1.412-.893,2.073-.7,2.019a6.121,6.121,0,0,0,1.215-1.287c1.072-1.358,1.5-1.858,1.787-.8-.715.965-1.3,1.787-1.841,2.5-.608.858-1.179,1.68-1.662,2.448-.983,1.537-1.662,2.859-2.43,4.271-1.537,2.895-3.431,5.951-9.578,12.866-1.912.84,2.394-4.217,3.056-6.022-1.644,2.77-3.878,5.968-6.451,9.81-.643.983-1.3,2-1.966,3.038-.375.608-.751,1.2-1.126,1.823-.518.858-.983,1.715-1.483,2.573a32.517,32.517,0,0,0-3.913,11.133A21.8,21.8,0,0,0,360.6,175.83l.661,1.322c.268.411.554.822.84,1.215a17.683,17.683,0,0,0,1.912,2.252,28.764,28.764,0,0,0,2.216,1.948c.822.554,1.68,1.054,2.52,1.555a28.481,28.481,0,0,0,11.848,3.02,30.666,30.666,0,0,0,3.145.089c.983,0,2.252,0,2.859-.054,1.412-.089,2.77-.214,4.056-.375,3.217-.179,6.5-.554,9.864-1.072,1.662-.268,3.377-.554,5.075-.894.858-.161,1.715-.34,2.573-.518l1.161-.232.322-.036a21.626,21.626,0,0,1,3.038-.089.76.76,0,0,1,.3.071s.054,0,.054.036l-.054.179a2.987,2.987,0,0,1-.143.357,4.242,4.242,0,0,1-.858,1.108c-.3.3-.572.554-.786.733l-.3.25s-.143.322-.2.465a4.588,4.588,0,0,0-.089.679l-.107.965-.161,1.93-.983,12.133,13.277,1.144a57.24,57.24,0,0,0,6.648.286l.572-.679c7,.286,13.4-1.59,19.281-3.788,5.808-2.252,11.294-4.95,16.708-6.88L460.17,194.4Z" transform="translate(-7055.491 -12543.562)" fill="#ffb6c8"/>
    </g>
    <g id="Enmascarar_grupo_1079188" data-name="Enmascarar grupo 1079188" clip-path="url(#clip-path-2)">
      <g id="Enmascarar_grupo_1078901" data-name="Enmascarar grupo 1078901" transform="translate(0 -15688.33)" clip-path="url(#clip-path-3)">
        <path id="Placeholder" d="M0-230H1600V1601H0Z" transform="translate(0 17316)" opacity="0.13" fill="url(#linear-gradient)"/>
        <g id="Grupo_1101188" data-name="Grupo 1101188" transform="translate(1476.221 17625.824)">
          <g id="Grupo_1073147" data-name="Grupo 1073147" transform="translate(0 35.156)">
            <path id="Trazado_773575" data-name="Trazado 773575" d="M495.353,63.2c-.32.038-.678.056-1,.094a6.082,6.082,0,0,0,2.412.865,43.339,43.339,0,0,1-7.689-.846,21.086,21.086,0,0,1-6.219-2.144A50.362,50.362,0,0,1,471.343,53.4c-2.563-.865-4.485-2.558-4.3-3.781s2.412-1.5,4.976-.64a10.726,10.726,0,0,0,1.753.207,54.194,54.194,0,0,1,14.172,1.091c-1.036-.038-2.13-.056-3.166-.094.754.132,1.489.263,2.243.433q.566.113,1.131.282c.339.094.867.282,1,.3a1.443,1.443,0,0,1-.6.489c1.244-.414,4.353.226,7.256,1.317a29.986,29.986,0,0,1,4.391,2.069c.735.414,1.282.79,2.017,1.279a17.872,17.872,0,0,1,1.866,1.448c.264.245.509.489.716.715l.773.771a4.876,4.876,0,0,1,.961,1.392,1.315,1.315,0,0,1-.6,1.843,4.585,4.585,0,0,1-1.432.451c-.584.094-1.338.113-1.885.226a17.54,17.54,0,0,1-2.092.113c-.735-.019-1.527-.038-2.356-.056,0,0-2.884-.113-2.827-.075Z" transform="translate(-219.126 39.381)" fill="#a7f7dd"/>
            <path id="Trazado_773576" data-name="Trazado 773576" d="M477.508,52.011c1.131-.056,2.808.019,4.335.038,1.659.038,3.3.075,4.938.132l.735-.207-.735,1.712v-.132a23.038,23.038,0,0,0-4.9-3.235c-1.64-.846-3.392-1.73-5.07-2.577l-1.338-.809a2.1,2.1,0,0,1-.942-1.43c-.038-.959,1.489-1.279,3.392-.7l1.093.339a6.3,6.3,0,0,0,.81.169,21.234,21.234,0,0,1,4.014.621c.829.188,1.677.414,2.525.658.886.263,1.772.564,2.62.884a31.231,31.231,0,0,1,5.126,2.464,18.228,18.228,0,0,1,4.316,3.536c.132.15.151.263.264.414a1.194,1.194,0,0,1,.207.414.521.521,0,0,1-.32.545,3.24,3.24,0,0,0-1.225.865c-.075.621-1.036.846-2.507.734-.358-.019-.773-.075-1.169-.132a7.6,7.6,0,0,1-1.074-.132,18.425,18.425,0,0,1-2.412-.564c-3.166-.9-5.3-2.483-5.164-3.743-.49-.056-1.018-.113-1.508-.169l.98.752c-.49-1.26-2.978-2.238-4.486-3.273-.188-.056-1.866-.884-1.941-.922.056.019,1.979-2.389,1.979-2.389l.415.339c.245.169.6.376.584.376-.132.094-.4.207-.377.207a60.073,60.073,0,0,0,7.878,4.5l4.165,2.426c1.131.959.716,1.674-.848,1.674,0,0-.565-.038-1.15-.056h-1.055c.339-.019.641-.056.98-.075-2.205-.376-4.467-.771-6.709-1.166-2.092-.339-4.2-.677-5.937-.846a1.348,1.348,0,0,1-1.187-.658c-.113-.32.188-.583.7-.564Z" transform="translate(-212.494 54.521)" fill="#a7f7dd"/>
            <g id="Grupo_1073146" data-name="Grupo 1073146">
              <path id="Trazado_773577" data-name="Trazado 773577" d="M483.459,43.88c.415.019.829.056,1.282.113a6.153,6.153,0,0,1,1.621.489c.283.245.433.376.509.451a16.134,16.134,0,0,0-1.941-.207c-1.206-.038-1.658-.489-1.47-.846Z" transform="translate(-204.631 67.26)" fill="#a7f7dd"/>
              <path id="Trazado_773578" data-name="Trazado 773578" d="M485.25,43.81c.509.075.867.113.867.113a6.135,6.135,0,0,0-.622.038.616.616,0,0,0-.151-.075l-.094-.075Z" transform="translate(-203.01 68.365)" fill="#a7f7dd"/>
              <path id="Trazado_773579" data-name="Trazado 773579" d="M414.853,93.587q-9.159-2.793-18.3-5.718l-18.111-5.887c-.4-.132-.7-.376-.66-.545.038-.15.4-.188.773-.056l18.093,5.869q9.131,2.906,18.281,5.7c.415.132.7.376.7.564-.038.169-.377.226-.754.113Z" transform="translate(-298.085 -51.872)" fill="#a7f7dd"/>
              <path id="Trazado_773580" data-name="Trazado 773580" d="M347.646,90.2c.226.245.151.414-.189.414a1.631,1.631,0,0,1-.961-.414c-.189-.207-.094-.414.188-.395a1.457,1.457,0,0,1,.942.414Z" transform="translate(-325.846 -64.79)" fill="#a7f7dd"/>
              <path id="Trazado_773581" data-name="Trazado 773581" d="M354.56,64.039a31.368,31.368,0,0,1,4.3,2.8,1.963,1.963,0,0,0,.792.3c-.207.226.019.6.584.94,5.5,3.4,11.383,6.734,17.433,9.687,6.05,2.972,12.25,5.85,18.375,8.784a1.491,1.491,0,0,0,.3.828,7.57,7.57,0,0,0,4.127,2.5l1.432.32c5.692,1.618,11.364,3.216,17.037,4.834a18.478,18.478,0,0,0,3.656,1.956c4.448,2.539,8.933,5.022,13.569,7.373-.377.075-.641.226-.716.47-.113.621.848,1.448,2.186,1.9l1.979.752-5.861-1.58a3.328,3.328,0,0,0-.792-.169q-3.138-1.072-6.332-2.314c-9.235-3.593-18.206-7.561-26.856-11.7-8.669-4.157-17.113-8.69-25.443-13.167a1.715,1.715,0,0,0-1.018-.32c-.226.075-.264.263.038.47,9.989,6.941,18.319,14.483,30.173,20.8q10.6,5.727,21.165,11.1c7.049,3.593,14.229,7.072,21.353,10.571,7.784,2.878,15.209,5.944,22.333,9.367,7.162,3.386,14.418,6.79,21.711,10.646,5.013,2.558,9.819,4.947,14.889,7.392q7.915,3.781,15.812,7.373c10.592,4.759,20.882,9.593,32.209,13.806,8.2,3.687,16.773,4.213,19.092,1.223,1.376-1.825.226-4.5-2.676-7.129l2.035.734,3.336.809a17.421,17.421,0,0,0,8.066.339l2.733-.583a24.064,24.064,0,0,1,3.223-1.035c1.3-.3,2.808-.508,3.92-.884a22.878,22.878,0,0,0,6.182-2.577l-.226-1.26.66-.15c2.073-.263,3.656-.94,4.391-1.919l.226-1.373a8.877,8.877,0,0,0-1.546-5.116,2.354,2.354,0,0,0-.038-1.787c1.7-.978,2.752-2.22,2.167-4.082.9-.15.942-.771.113-1.392a4.255,4.255,0,0,0-1.055-.527h0a9.029,9.029,0,0,1,1.395-.489c.829.113,1.3.169,1.3.169l4.146.771a13.81,13.81,0,0,0,3.129-.169c2.978-1.524,3.129-1.43,3.129-2.577a5.708,5.708,0,0,0-.339-.47c1.018.226,1.583.339,1.941.414.584.226.886.32,1.338.489,1,.3,1.715.47,1.715.47.434-.414.434-.414,1.112-.245a.52.52,0,0,0,.377-.282c-1.508-1.636-1.583-1.618-1.527-1.825a11.037,11.037,0,0,0-.98-.865c-1.508-.865-2.111-1.2-2.356-1.354-.848.075-1.47.132-1.941.169-.4.094-.66.15-.829.188-.339.075-.358.075-.358.075l-.32-.658-.754.47.509-.489L613,136.813l1.489-.075c-1.357-.339-2.035-.508-2.507-.621a11.871,11.871,0,0,1-1.187-.357,10.01,10.01,0,0,1-1.96-.7,1.53,1.53,0,0,0,.188-.3c-2.62-.527-2.582-.508-5.051-.959a4.423,4.423,0,0,0-.66.245,1.688,1.688,0,0,0-1.018-.527l-1.206-.245-.17-.15v-.038c-.283-.207-.49-.357-.7-.527-.132-.113-.151-.113-.151-.113h0c-.6-.433-1.451-1.072-3.75-2.746a19.769,19.769,0,0,0-2.054-.47c.226,0,.452-.038.66-.038.434-.056.283-.7.49-.658q2.007.31,4.014.734l1.018.226.773.075c.528.056.961.113,1.7.245,2.582.414,5.6,1,8.707,1.618,1.112.414,2.262.433,2.563.056.283-.4-.4-1.035-1.545-1.448a87.749,87.749,0,0,0-8.575-4.232c-1.168-.527-2.356-1.072-3.543-1.6-1.451-.64-2.921-1.26-4.41-1.825A98.056,98.056,0,0,0,578,117.439q-4.467-1.3-8.99-2.633l.528-.094-2.412-.47-.245-.075,2.092-.282,1.3.188c6.9,2.2,13.569,3.1,20.392,4.665,3.675.846,6.992,1.091,10.5,1.693.867.282,1.564.169,1.6-.263.038-.414-.66-.978-1.508-1.241-10.7-4.89-23.351-9.066-33.453-9.273a22.6,22.6,0,0,0-5.9-1.43h-.094c.528-.113,1.036-.188,1.564-.263-1.583-.451-2.657-.15-4.127-.47l.942-.828c-7.689-2.52-15.586-6.264-23.125-7.712-.283-.094-.565-.169-.829-.245a46.01,46.01,0,0,0-8.82-5.605c1.263.395,2.469.79,3.732,1.2a45.737,45.737,0,0,0-7.765-4.176c-7.859-3.216-17.245-5.455-22.484-4.289l-22.5-9.386Q467.178,72,456.03,67.33c-.754-.32-1.527-.339-1.79-.075-.188.282.207.771.961,1.091,5.2,2.52,10.5,4.966,15.812,7.336l8.029,3.5,8.085,3.63c-9.386-3.16-18.79-5.869-28.232-9.254l-3.562-1.467a22.037,22.037,0,0,0-3.6-1.091c-11.968-4.251-23.37-8.126-35.149-13.242-10.139-4.345-18.677-8.445-28.477-13.148-6.785-3.4-13.155-6.753-19.619-9.875-3.26-1.524-6.389-3.179-9.593-4.721-3.2-1.561-6.464-3.066-9.838-4.514-1.753-.865-3.656-1-4.222-.3s.415,1.975,2.167,2.84c26.932,14.859,54.919,28.271,86.336,38.992,3.392,1.166,6.747,2.295,10.064,3.442a1.074,1.074,0,0,0-.207.3,1.641,1.641,0,0,0,.415,1.5c-3.788-1.241-7.652-2.408-11.534-3.536a280.181,280.181,0,0,0-31.643-12.96c-7.708-2.5-15.039-3.95-22.3-5.869-8.594-3.988-17.188-7.938-25.65-12.207a1.09,1.09,0,0,0-.9-.188c-.189.094-.075.339.264.545,2.789,1.787,5.635,3.517,8.537,5.229,2.959,1.636,5.974,3.216,8.99,4.8-1.206.113-2.054.527-2.262,1.26-.226.771.3,1.73,1.3,2.671l-4.353-1.655c-.9-.32-1.715-.32-1.847.056-.151.414.452.959,1.3,1.3q8.877,3.386,17.716,6.771,10.46,4.571,21.014,8.953a4.787,4.787,0,0,0-2.714,1.016h0c-1.112-.414-2.205-.846-3.3-1.26q-7.293-3.583-14.738-7c-4.919-2.351-9.876-4.684-14.87-6.941-2.507-1.11-5.013-2.22-7.539-3.31-2.507-1.129-4.994-2.276-7.5-3.4q-7.52-3.386-15.209-6.508c-.4-.169-.792-.188-.867,0-.075.169.17.433.528.583q9.273,3.781,18.338,7.919h-.038c-.283,0-.415.169-.188.395a1.648,1.648,0,0,0,.961.414c.339,0,.377-.188.188-.4,5.635,2.558,11.346,4.947,16.905,7.58q8.368,3.922,16.679,7.844l-7.934-3.047-7.878-3.141c-5.258-2.069-10.535-4.082-15.869-5.981-1.037-.7-2.092-1.392-3.147-2.088a1.282,1.282,0,0,0-.942-.15c-.151.094,0,.376.32.545l.886.564c-2-.771-3.807-.715-4.146.15-.264.94,1.131,2.351,3.2,3.2,5.428,2.5,10.969,4.665,16.491,6.922l1.734.865,1.64,1.129c-8.745-3.085-17.6-5.85-26.215-9.16-.716-.32-1.451-.339-1.6-.038s.32.809,1.055,1.147c7.181,3.931,14.606,7.355,22.088,10.815,7.463,3.517,15.077,6.677,22.71,9.819,4.58,3.254,9.2,6.508,13.909,9.706-.66-.226-1.338-.451-2-.658-8.443-3.01-15.906-6.941-23.219-10.834-7.331-3.894-14.474-8.182-22.427-11.737-.4-.207-.792-.188-.9-.056s.113.414.509.564c7.708,3.593,14.418,7.881,21.975,11.737,6.257,3.2,12.231,6.207,17.961,9.5-6.163-2.483-12.1-5.248-17.98-8.069-5.88-2.765-11.685-5.869-17.678-8.615a3,3,0,0,0-1.489-.395.519.519,0,0,0-.207-.339,43.576,43.576,0,0,0-4.523-2.934,1.144,1.144,0,0,0-.98-.188c-.226.075-.094.3.245.546Zm221.2,64.855c.151-.019.264-.056.377-.075-.358-.019-.754-.056-1.187-.094l-1.979.715S574.367,129.157,575.761,128.894Zm16.905,11.888h0c.641-.226,1.112-.395,1.112-.395-.452.169-.81.3-1.093.395ZM477.59,80.854a184.894,184.894,0,0,0,20.053,6.564l-4.674-2.088C487.88,83.77,482.754,82.246,477.59,80.854ZM589.99,128.8a22.49,22.49,0,0,0-5.051.734,20.826,20.826,0,0,0-3.355-1.486c-3.166-1.11-6.276-2.107-9.367-3.028.565-.3-.17-.527-.528-.715s-.716-.357-1.093-.545q4.975,1.326,10.064,2.652c3.072.79,6.332,1.825,9.31,2.389Zm21.994,9.348a2.426,2.426,0,0,0,.358-.075l-.471-.9s.038.414.094.978Zm.754,1.524c-.188-.038-.377-.056-.584-.094C612.267,139.9,612.474,139.86,612.738,139.672Zm-5.032-.621a2.918,2.918,0,0,1,.754-.188Zm-9.2,19.411-.7-3.969.886,3.875Z" transform="translate(-335.493 -24.751)" fill="#a7f7dd"/>
            </g>
          </g>
          <g id="Grupo_1073149" data-name="Grupo 1073149" transform="translate(64.072 0)">
            <path id="Trazado_773582" data-name="Trazado 773582" d="M374.24,101.975a4.906,4.906,0,0,0,.49-.056,1.932,1.932,0,0,0-1-.545c4.825,0,9.687,3.517,12.326,6.865,1.263.489,2.13,1.524,1.922,2.314s-1.413,1.016-2.676.527a5.691,5.691,0,0,0-.9-.094,22.528,22.528,0,0,1-7.444-.376h1.7a9.81,9.81,0,0,1-2.318-.6l.452-.282c-2.808-.094-5.918-1.919-6.954-4.063s.377-3.818,3.185-3.705h1.263Z" transform="translate(-369.49 -72.129)" fill="#a7f7dd"/>
            <path id="Trazado_773583" data-name="Trazado 773583" d="M379.8,107.808c-1.64-.169-3.242-.263-4.844-.357l-.377.132.584-1.091v.094c.867,1.524,2.827,2.878,4.674,4.025l.622.47a1.178,1.178,0,0,1,.358.884c-.075.621-.9.846-1.866.527l-1.093-.376c-2.846-.508-6.879-2.295-7.482-4.853-.132-.583.4-1.016.7-1.5.226-.79,1.47-1.016,2.77-.489s2.167,1.58,1.922,2.389c.245.038.49.094.716.132l-.4-.508c.075.809,1.187,1.486,1.9,2.22l1.225.771-1.508,1.411-.584-.545a1.406,1.406,0,0,0,.226-.132A32.441,32.441,0,0,0,374,107.977l-1.489-1.448c-.339-.545-.075-1.016.584-1.091h.961a3.666,3.666,0,0,0-.452.038c2,.433,4.014,1.053,5.993,1.448a.921.921,0,0,1,.716.508c.056.226-.151.376-.49.32Z" transform="translate(-368.721 -80.219)" fill="#a7f7dd"/>
            <g id="Grupo_1073148" data-name="Grupo 1073148" transform="translate(2.658)">
              <path id="Trazado_773584" data-name="Trazado 773584" d="M372.595,109.684a2.237,2.237,0,0,1-1.112-.207,2.265,2.265,0,0,1-.113-.226c.189,0,.452-.019.7-.038.509-.038.641.226.509.47Z" transform="translate(-370.484 -85.217)" fill="#a7f7dd"/>
              <path id="Trazado_773585" data-name="Trazado 773585" d="M371.512,109.515h-.3a1.483,1.483,0,0,0,.226-.075l.038.038.019.038Z" transform="translate(-370.626 -85.481)" fill="#a7f7dd"/>
              <path id="Trazado_773586" data-name="Trazado 773586" d="M412.909,84.7q8.707,3.358,17.282,7.016c.189.075.32.226.283.339-.038.094-.226.132-.4.038-5.748-2.408-11.477-4.759-17.282-7-.189-.075-.32-.226-.283-.339s.207-.15.4-.075Z" transform="translate(-334.093 -21.466)" fill="#a7f7dd"/>
              <path id="Trazado_773587" data-name="Trazado 773587" d="M437.721,84.073c-.094-.15-.038-.245.132-.263a.626.626,0,0,1,.471.226.167.167,0,0,1-.132.263.562.562,0,0,1-.452-.226Z" transform="translate(-311.827 -12.056)" fill="#a7f7dd"/>
              <path id="Trazado_773588" data-name="Trazado 773588" d="M499.471,138.565a13.9,13.9,0,0,1-1.922-1.636.759.759,0,0,0-.377-.169c.132-.15.057-.376-.207-.583-4.938-4.025-10.7-7.392-16.283-10.891a1.325,1.325,0,0,0-.057-.527,2.9,2.9,0,0,0-1.828-1.542l-.7-.188c-2.714-.959-5.409-1.919-8.123-2.878a6.488,6.488,0,0,0-1.64-1.2c-2-1.58-4.014-3.122-6.125-4.571a.535.535,0,0,0,.415-.32c.132-.4-.283-.922-.9-1.185l-.923-.451,2.827.959a1.015,1.015,0,0,0,.4.094c1,.433,1.979.9,2.978,1.411a178.035,178.035,0,0,1,23.841,15.1.587.587,0,0,0,.49.169.169.169,0,0,0,.038-.3c-4.335-4.27-7.689-8.822-13-12.753-6.314-4.7-12.646-9.123-19.393-13.374-7.463-3.48-14.078-7.524-21.523-11.7-10.026-5.624-19.845-10.251-30.041-14.954-3.694-2.031-7.9-2.05-9.367-.056-.886,1.223-.565,2.878.622,4.458l-.942-.4-1.6-.4a7.083,7.083,0,0,0-4.033.056l-1.451.47c-2.149,1.147-5.013,1.618-6.954,2.972l-.057.809-.358.075a3.641,3.641,0,0,0-2.488,1.129l-.283.884a6.7,6.7,0,0,0,.132,3.329,1.964,1.964,0,0,0-.207,1.147,2.842,2.842,0,0,0-1.621,2.6c-.471.094-.565.489-.226.884a1.727,1.727,0,0,0,.452.357h0a7.843,7.843,0,0,1-.754.3c-.4-.075-.622-.132-.622-.132q-1.018-.263-1.9-.508a4.592,4.592,0,0,0-1.451.188,4.461,4.461,0,0,0-1.6,1.862,2.233,2.233,0,0,0,.075.263c-.716-.056-.773-.056-.98-.075a2.249,2.249,0,0,0-.415.113,1.012,1.012,0,0,1-.339.414.752.752,0,0,0-.132.245,1.636,1.636,0,0,1,.151.658,1.26,1.26,0,0,0,.113.282c.358.3.509.414.565.47,1.263-.508,1.282-.508,1.282-.508l.057.395.377-.32-.283.339.547-.038-.66.113a11.335,11.335,0,0,1,1.527.545,3.447,3.447,0,0,1,.829.433.628.628,0,0,0-.132.188q1.187.357,2.356.7a3.706,3.706,0,0,0,.358-.132.759.759,0,0,0,.471.376l.6.188.094.113v.038c.17.169.283.263.415.395l.075.094h0c.283.263.678.677,1.772,1.73a7.482,7.482,0,0,0,1.036.245l-.358.038c-.226.038-.207.451-.32.433a60.046,60.046,0,0,1-8.2-2.05c-.452-.245-.961-.245-1.15,0s.038.658.49.9c4.448,4.157,10.95,6.809,16.962,7.806l4.467,1.448-.283.075,1.225.245.132.038-1.112.226-.66-.075c-3.411-1.241-6.841-1.636-10.29-2.483-1.866-.451-3.581-.527-5.39-.828-.434-.15-.81-.075-.886.207-.057.263.264.6.678.771,5.22,2.859,11.553,5.267,16.811,5.135a7.271,7.271,0,0,0,2.978.677h.057l-.829.245a20.622,20.622,0,0,0,2.13.094l-.565.583c3.845,1.2,7.689,3.179,11.515,3.705.151.056.283.075.415.113a17.456,17.456,0,0,0,4.184,3.122c-.622-.188-1.225-.376-1.828-.564a16.3,16.3,0,0,0,3.619,2.2c3.656,1.58,8.2,2.332,10.95,1.392,6.917,3.367,13.89,6.79,20.712,10.5.358.188.735.207.9.019.132-.188,0-.489-.358-.7-4.712-3.028-9.649-5.812-14.606-8.445,4.448,1.561,8.9,3.254,13.325,5.191l1.64.865a8.979,8.979,0,0,0,1.715.658c5.616,2.577,10.969,4.928,16.453,8.069,4.674,2.709,8.726,5.135,13.306,8.032,6.408,4.063,12.213,7.844,18.96,10.966.867.47,1.866.489,2.224,0,.339-.47-.075-1.26-.942-1.73-13.324-8.126-26.234-16.458-41.048-23-1.6-.7-3.166-1.392-4.749-2.069a.95.95,0,0,0,.094-1.147c1.79.752,3.619,1.448,5.484,2.125a92.277,92.277,0,0,0,14.795,7.919,104.143,104.143,0,0,0,10.912,3.329c4.108,2.295,8.16,4.665,12.326,6.922a.452.452,0,0,0,.471.075c.113-.075.057-.226-.094-.339-2.657-2.013-5.447-3.894-8.311-5.756a1.5,1.5,0,0,0,1.282-.884,1.829,1.829,0,0,0-.415-1.674l2.092.922c.434.188.867.15.961-.094.113-.263-.151-.6-.547-.79-2.846-1.279-5.673-2.539-8.519-3.8q-4.891-2.737-9.838-5.38a2.686,2.686,0,0,0,1.508-.7h0l1.545.752a194.56,194.56,0,0,0,28.439,15.349c.188.094.4.075.452-.038s-.057-.263-.226-.339c-3.016-1.3-5.993-2.69-8.914-4.138h0a.156.156,0,0,0,.132-.263.63.63,0,0,0-.471-.226c-.17,0-.207.132-.132.263-5.447-2.727-10.724-5.737-15.831-8.916,4.975,2.445,9.989,4.834,15.115,6.941l1.47,1.166a.541.541,0,0,0,.471.056c.075-.075.019-.245-.113-.339l-.415-.32c.98.4,1.922.282,2.167-.3.226-.6-.4-1.448-1.395-1.881q-3.9-2-7.821-3.856l-.81-.489-.735-.677c4.2,1.674,8.424,3.292,12.627,4.872.339.169.716.132.829-.056.094-.207-.094-.508-.452-.677-6.785-4.138-13.8-8.032-20.92-11.775-2-1.975-4-3.988-6.012-5.981l.942.395c7.916,3.668,13.494,9.273,20.92,13.336a.359.359,0,0,0,.452,0c.075-.094,0-.263-.207-.339-3.581-2.069-6.615-4.514-10.045-6.828-2.846-1.919-5.56-3.743-8.1-5.718,5.729,2.934,10.837,6.621,16.415,9.781a1.084,1.084,0,0,0,.716.207.258.258,0,0,0,.075.207,16.487,16.487,0,0,0,2.017,1.73.476.476,0,0,0,.49.094c.113-.056.075-.188-.075-.339ZM392.1,104.049s-.132.038-.207.056c.189,0,.377,0,.6.019l1.093-.508S392.856,103.824,392.1,104.049Zm-7.614-7.129h0c-.358.169-.622.282-.622.282Q384.234,97.033,384.488,96.921Zm54,33.124a59,59,0,0,0-9.5-3.423l2.167,1.147C433.565,128.577,436.015,129.292,438.484,130.044ZM384.7,104.482a11.013,11.013,0,0,0,2.714-.6,9.342,9.342,0,0,0,1.6.865c1.545.621,3.072,1.185,4.58,1.674-.32.207.038.339.207.451l.509.32c-1.64-.47-3.3-.94-4.994-1.43-1.527-.414-3.129-1-4.636-1.279Zm-10.328-6.019-.189.056.094.564s.038-.263.075-.621Zm-.132-.959.245.038C374.481,97.334,374.368,97.372,374.236,97.5Zm2.28.357a2.693,2.693,0,0,1-.4.113Zm7.105-12.32-.17,2.558.056-2.5Z" transform="translate(-370.9 -75.539)" fill="#a7f7dd"/>
            </g>
          </g>
        </g>
        <g id="Grupo_1101187" data-name="Grupo 1101187" transform="translate(-165.968 17865.801)">
          <path id="Trazado_773712" data-name="Trazado 773712" d="M481.962,157.194c-1.912-.5-1.573-.8-.2-1.017a42.921,42.921,0,0,1,6.147-.178l3.538,2.871s-2.359-.446-4.718-.91c-2.359-.446-4.771-.785-4.771-.785Z" transform="translate(-480.63 75.045)" fill="#ffb6c8"/>
          <path id="Trazado_773713" data-name="Trazado 773713" d="M468.958,158.18s2.591.856,5.289,1.48a43.715,43.715,0,0,0,5.522.927s-2.037-.054-4.021-.321c-1.984-.25-3.913-.678-3.913-.678-4.378.25-4.2.8-2.43,1.516a30.591,30.591,0,0,0,6.915,1.427,25.076,25.076,0,0,1-7.094-.981c-1.179-.41-1.412-.82-1.269-1.177.286-.731,2.055-1.445,1-2.194Z" transform="translate(-446.237 76.77)" fill="#ffb6c8"/>
          <path id="Trazado_773714" data-name="Trazado 773714" d="M460.844,158.708c2.5-2.515,3.181-3.745,3.61-3.549.393.143.2,1.694-.733,3.139a3.193,3.193,0,0,0-1.09.517c-.429.2-.893.464-1.412.678-.965.392-1.43.392-.375-.767Z" transform="translate(-417.394 74.387)" fill="#ffb6c8"/>
          <path id="Trazado_773715" data-name="Trazado 773715" d="M337.012,100.25l.465.5c.161.178.214.214.322.321.214.2.411.392.59.571.357.339.661.553.8.392.125.66.089,1.052-.2.874a3.057,3.057,0,0,1-.625-.713c-.143-.2-.3-.428-.518-.713-.25-.339-.518-.749-.84-1.213Z" transform="translate(-71.8 31.386)" fill="#ffb6c8"/>
          <path id="Trazado_773716" data-name="Trazado 773716" d="M337.186,101.634c-.054-.25-.107-.535-.2-.874a6.248,6.248,0,0,1,.3.767c0,.089-.072.071-.107.107Z" transform="translate(-69.795 31.785)" fill="#ffb6c8"/>
          <path id="Trazado_773717" data-name="Trazado 773717" d="M431.286,194.048a58.785,58.785,0,0,0-8.631-4.423c-.643-.285-1.251-.5-1.894-.749-.643-.268-1.269-.5-1.841-.7-1.412-.535-2.895-1.088-4.557-1.712l-4.664.375c-7.541-3.264-2.895-2.675-8.077-5.493a125.065,125.065,0,0,1-13.474-3.941,102.994,102.994,0,0,0-10.221-2.961c-2.252.41,2.341,1.641,3.252,2.479-2.019-.7-3.413-1.141-4.61-1.676-1.179-.446-2.109-.892-3.127-1.338a21.44,21.44,0,0,0-9.078-1.587l-.143.5a21.053,21.053,0,0,0-2.144-.107l-1.09-.036h-.5l-.25-.036-1.054-.053h-.715a2.567,2.567,0,0,0-2.52,1.587,3.765,3.765,0,0,0-.143,1.676,5.148,5.148,0,0,0,.143.892c.036.178.143.446.2.678a8.339,8.339,0,0,0,.268.8,99.65,99.65,0,0,0,4.682,10.005c3.627,7.062,7.952,14.339,11.061,23.2.393,1.088.75,2.265,1.054,3.46.339,1.141.572,2.461.822,3.71a36.083,36.083,0,0,1,.447,4.031,26.647,26.647,0,0,1-.214,4.423c-.125.767-.214,1.587-.411,2.354-.214.749-.465,1.516-.715,2.247a11.769,11.769,0,0,1-.947,2.211,18.574,18.574,0,0,1-1.019,1.819,23.145,23.145,0,0,1-5.915,6.581c2.43-2.194,1.465-2.015,2.055-3.121a20.081,20.081,0,0,1-6.236,4.6,22.077,22.077,0,0,1-7.309,2,37.3,37.3,0,0,1-12.938-1.266C333,242.432,326.2,239.24,319.6,236.19q-4.825-2.3-9.578-4.566c-3.61-1.641-4.914-2.336-7.148-3.228a21.657,21.657,0,0,0-6.88-1.712,8.112,8.112,0,0,0-3.574.642,7.836,7.836,0,0,0-2.7,2.229,6.409,6.409,0,0,0-1.573,4.566,14.172,14.172,0,0,0,1.179,4.494,20.41,20.41,0,0,1-2.395-4.708,7.988,7.988,0,0,1,.357-5.832,7.772,7.772,0,0,1,3.842-4.245,11.891,11.891,0,0,1,5.986-.767,47.888,47.888,0,0,1,12.473,3.424,182.133,182.133,0,0,1,22.873,11.289c3.413.571,7.487,2.069,11.347,2.907,3.824.874,7.505.874,8.881-.232a16.8,16.8,0,0,0,8.845-3.62,19.213,19.213,0,0,0,5-6.795,18.79,18.79,0,0,0,1.251-7.669,35.409,35.409,0,0,0-1.054-7.116c-2.323-9.1-6.5-17.264-12.223-27.946-1.876-2.907-1.912-1.017-3.163-1.516,0,0,1.984,4.405,4.217,8.792,1.09,2.194,2.18,4.405,3,6.064.8,1.659,1.34,2.782,1.34,2.782s-1.555-2.568-3.181-5.1l-3.234-5.047c.876,2.461,3.038,6.367,4.753,9.934,1.751,3.567,2.948,6.848,2.484,7.829A87.514,87.514,0,0,0,355,197.935c-2.377-4.637-5.093-9.452-7.255-14.482a34.809,34.809,0,0,1-2.52-7.829,11.549,11.549,0,0,1,.84-7.6,9.446,9.446,0,0,1,5.575-4.155c.536-.143,1.054-.285,1.573-.428.518-.125,1.054-.143,1.555-.214.5-.054.983-.107,1.465-.161.482,0,.947,0,1.412.018a20.5,20.5,0,0,0-2.466.571,16.221,16.221,0,0,0-2.5.785,10.435,10.435,0,0,0-4.557,3.014,7.971,7.971,0,0,0-1.751,5.368,18.823,18.823,0,0,0,1.126,5.707c1.537,3.032,4.539,7.883,5.164,7.116a71.181,71.181,0,0,1-2.448-7.58,13.227,13.227,0,0,1-.286-5.885,6.2,6.2,0,0,1,3.52-4.191,5.714,5.714,0,0,1,1.287-.517,6.962,6.962,0,0,1,1.322-.375l1.34-.285,1.5-.178c.876-.143,2.323-.2,3.538-.3,1.269-.125,2.52-.036,3.806-.071,1.269,0,2.573.143,3.86.214,1.3.107,2.609.3,3.931.464a95.088,95.088,0,0,1,16.351,4.12c5.647,1.908,13.474,4.548,14.724,4.048-3.681-1.605-.59-1.3-3.556-2.782,7.934,3.549-.3,3.282,11.758,7.1l-.536-3.406a9.609,9.609,0,0,0,4.021,2.729c.858.339,1.769.642,2.752.927.929.268,1.894.535,2.877.82,4,1.141,8.577,2.657,12.312,5.3,3.449.178-1.733-2.907-7.952-5.6,7.362,2.479,7.237,4.494,13.063,6.884l-4.414-4.726c5.075,4.94,11.222,4.209,14.975,4.53.107.375-.822.749-.786,1.355,0,.3.286.642,1.054,1.07a15.84,15.84,0,0,0,4.128,1.391c3.645.482,1.948-.589,2.859-.767a4.589,4.589,0,0,0,2.412,1.569,13.2,13.2,0,0,0,2.752.785c.554.089,1.144.178,1.787.25.643.053,1.34.036,2.073.036.518-.446-.465-.749-1.59-1.052-1.108-.339-2.359-.785-2.5-1.231a35.83,35.83,0,0,0,5.129.089H467.7a9.835,9.835,0,0,0-1.7-5.261c-1.072-3.46-.679-3.068-.071-2.6.59.535,1.34,1.213.965-.375-2.859-4.352-4.271-5.243-5.111-5.3-.84-.089-1.608.7-3.735-1.8a66.762,66.762,0,0,0,2.537,7.366c.625,1.5,1.287,3.1,1.894,4.69.2.749.375,1.48.572,2.211-.036.392-.054.767-.054,1.141,1.519-1.623,3.02-3.264,4.36-4.69a26.61,26.61,0,0,1-7.9-1.338,35.333,35.333,0,0,0,7.863.892l-4.771,5.136v-1.07l-.643-2.158c-.679-1.552-1.376-3.1-2.109-4.619-.322.553-2.806-3.246-4.217-5.564-.715-1.141-1.287-2.051-1.537-2.051-.143-.018-.2.2-.125.731a12.977,12.977,0,0,0,.679,2.782,39.884,39.884,0,0,1-3.735-12.2,30.315,30.315,0,0,1-.268-6.563l.071-.963c.036-.3.2-.268.286-.428.232-.214.447-.428.679-.678.465-.446.929-1.052,1.412-1.605,7.237,2.122,14.617,4.262,21.837,6.67,3.556,1.159,7.094,2.3,10.275,3.246,1.215.375,2.412.731,3.61,1.088,1.036.3,2.055.589,3.056.874-2.126-.107-4.861-.553-4.575.178,7.469,2.39,6.88.82,8.542.428a11.006,11.006,0,0,1,4.682,2.443,10.509,10.509,0,0,0,3.163,2.479c.733-.036,1.412-.071,2.073-.125.625-.036,1.054-.107,1.537-.161.929-.107,1.715-.25,2.43-.375a16,16,0,0,0,3.574-1.088,5.658,5.658,0,0,0,2.466-2.211,5.232,5.232,0,0,0,.107-4.316s.5.232,1.019.464c.5.25,1,.517,1,.517-.286-1.427-.679-2.39-.876-3.21-.232-.82-.339-1.516-.482-2.247a10.425,10.425,0,0,0-.786-2.408,15.686,15.686,0,0,0-2.538-3.513c-.268-.071-.089.571.268,1.48.179.446.393.981.625,1.534.2.5.268.82.393,1.231a11.979,11.979,0,0,0-1.769-2.8,16.875,16.875,0,0,0-1.823-1.783,18.31,18.31,0,0,1-4.164-4.869l.858,2.693.768,2.657c-2.984-4.155-7.648-10.736-7.166-7.508a67.522,67.522,0,0,0-4.467-7.223c-1.8-2.675-3.9-5.511-5.951-8.935a30.84,30.84,0,0,1-2.948-6.224,13.967,13.967,0,0,1-.7-5.279,9.137,9.137,0,0,1,.3-1.837,8.122,8.122,0,0,1,.733-1.944,9.863,9.863,0,0,1,2.573-3.264,11.868,11.868,0,0,1,5.236-2.425,19.547,19.547,0,0,1,3.717-.357,29.24,29.24,0,0,1,5.682.571l-.768-1.605c3.574,1.213,9.489,2.318,15.1,3.763.7.178,1.394.375,2.091.553l1.019.285c.357.089,1,.3,1.34.41,1.5.535,2.716,1.034,3.86,1.552a19.859,19.859,0,0,1,5.093,3.05l1.072-.25,10.7,6.349c5.254,1.783,4.289-1.034,4.485-.285,11.168,4.6,20.21,7.633,27.609,8.668.232,1.088,2.412,2.372,5.861,3.3a22.066,22.066,0,0,0,5.736.785,8.186,8.186,0,0,0,3-.517,3.814,3.814,0,0,0,2.144-1.89,6.047,6.047,0,0,0-.125-3.424,16.112,16.112,0,0,0-1.34-3.192,28.279,28.279,0,0,0-1.769-2.925l-2.019-2.711-1-1.355c-.357-.482-.59-.838-1.126-1.462l-2.877-3.46c-1.84-2.336-3.967-4.583-6.058-6.866a287.7,287.7,0,0,0-27.323-25.36c-19.21-15.89-39.456-30.211-57.594-44.372a64.944,64.944,0,0,1-6.326-5.439c-2.162-2.122-4.378-4.441-6.63-6.741l-1.019,3.068c1.894.357,3.842,1.855,7.148,2.229a22.741,22.741,0,0,1-2.716-.232c-.7-.143-1.34-.285-1.966-.41-.5-.089-1.072-.268-1.43-.285-.375-.036-.715-.089-1.036-.143.608-1.8,1.2-3.6,1.715-5.154,3.663,2.818,5.432,4.851,11.383,9.024,6.63,4.031,10.2,3.888,16.44,6.6l-3.77-.5c7.863,7.08,6.469,3.317,12.33,9.452l1.3-2.5c1.608,2.818,8.309,6.046,11.222,7.169l1.126,3.157c6.058,2.943,9.828,5.136,12.509,4.922l-1.573,1.052a20.775,20.775,0,0,1,4.289,2.515c1.966,1.409,4.324,3.085,6.415,4.566,4.2,2.961,7.452,5.083,5.254,1.391,1.287,1.552,2.144,3.335,5.593,5.885l1.626-.945c2.234,2.194,4.664,4.441,6.719,6.278,2.037,1.873,3.788,3.228,4.789,3.46-2.252-2.6-2.591-3.941-2.913-5.279,2.52,2.211,4.414,4.013,5.826,5.475a23.859,23.859,0,0,1,2.895,3.638c1.179,1.908,1.09,2.854.929,3.745a4.262,4.262,0,0,0,.429,3.353c.786,1.712,2.609,4.191,6.5,8.65l.7-.963,2.966,5.529s.322.25.822.642c.25.2.536.428.84.66a7.09,7.09,0,0,1,1.019.91l3.091,3.371a26,26,0,0,0,1.948,4.869,33.332,33.332,0,0,1,2.5,5.832,27.212,27.212,0,0,1,1.5,6.688,10.656,10.656,0,0,1-1.662,7.259,12.605,12.605,0,0,1-6.362,4.245,25.828,25.828,0,0,1-8.023,1.124,42.555,42.555,0,0,1-8.631-1c-1.394-.285-2.77-.66-4.056-1.017q-.965-.294-1.876-.589a12.405,12.405,0,0,1-1.376-.535c-5.325-1.694-12.991-1.605-22.748-5.368l1.233-1.427c-4.253-.535-13.777-3.353-23.159-5.957-2.341-.642-4.682-1.266-6.826-1.766-.518-.107-1.036-.214-1.537-.321a5.056,5.056,0,0,0-1.161-.143,1.865,1.865,0,0,1-.59-.036l-.768-.071c-.518-.036-1.019-.089-1.5-.125-3.931-.268-7.112-.054-8.9.66-6.111-2.318.661-.3.876-1.623a23.487,23.487,0,0,0-6.916-1.427,3.24,3.24,0,0,0-.733.089.5.5,0,0,0-.2.071c-.036-.071.089.446-.179-.785a13.774,13.774,0,0,0-2.162-5.618c-.608-.749-.768-.482.107-.321a11.008,11.008,0,0,0,4.592-.392,33.083,33.083,0,0,0,3.913-1.141c.071-.053.2,0,.322.053a5.023,5.023,0,0,1,1,.91c.59,1.409.893,2.069.7,2.015a6.115,6.115,0,0,1-1.215-1.284c-1.072-1.355-1.5-1.855-1.787-.8.715.963,1.3,1.783,1.841,2.5.608.856,1.179,1.676,1.662,2.443.983,1.534,1.662,2.853,2.43,4.262,1.537,2.889,3.431,5.939,9.578,12.841,1.912.838-2.395-4.209-3.056-6.01,1.644,2.764,3.878,5.957,6.451,9.791.643.981,1.3,2,1.966,3.032.375.606.751,1.195,1.126,1.819.518.856.983,1.712,1.483,2.568a32.408,32.408,0,0,1,3.913,11.111,21.72,21.72,0,0,1-1.769,11.414l-.661,1.32c-.268.41-.554.82-.84,1.213a17.656,17.656,0,0,1-1.912,2.247,28.746,28.746,0,0,1-2.216,1.944c-.822.553-1.68,1.052-2.52,1.552a28.526,28.526,0,0,1-11.848,3.014,30.722,30.722,0,0,1-3.145.089c-.983,0-2.252,0-2.859-.054-1.412-.089-2.77-.214-4.056-.375-3.217-.178-6.5-.553-9.864-1.07-1.662-.268-3.377-.553-5.075-.892-.858-.161-1.715-.339-2.573-.517l-1.161-.232-.322-.036a21.668,21.668,0,0,0-3.038-.089.762.762,0,0,0-.3.071s-.054,0-.054.036l.054.178a2.978,2.978,0,0,0,.143.357,4.235,4.235,0,0,0,.858,1.106c.3.3.572.553.786.731l.3.25s.143.321.2.464a4.571,4.571,0,0,1,.089.678l.107.963.161,1.926.983,12.11-13.277,1.141a57.356,57.356,0,0,1-6.648.285l-.572-.678c-7,.285-13.4-1.587-19.281-3.781-5.808-2.247-11.294-4.94-16.708-6.866l5.682,1.445Z" transform="translate(-273.024 -26.44)" fill="#ffb6c8"/>
          <path id="Trazado_773718" data-name="Trazado 773718" d="M428.777,138.035l-2.019-1.177s-.161-.624-.465-1.569c-.268-.945-.715-2.194-1.162-3.478-.929-2.532-2-5.1-2-5.1,3.109,3.406,3.359,5.939,5.665,11.307Z" transform="translate(-315.224 52.115)" fill="#ffb6c8"/>
          <path id="Trazado_773719" data-name="Trazado 773719" d="M422.513,132.309s.34,1.462.7,2.925c.125.731.25,1.48.357,2.033a7.2,7.2,0,0,1,.125.927,13.415,13.415,0,0,0-.375-1.445c-.232-.874-.59-2.015-1-3.139-.8-2.265-1.787-4.441-1.787-4.441s.536.767,1.019,1.552c.5.8.983,1.587.983,1.587Z" transform="translate(-305.476 54.043)" fill="#ffb6c8"/>
          <path id="Trazado_773720" data-name="Trazado 773720" d="M402.578,116.707l-1.447-.375s-1.215-.606-3.02-1.516c-1.823-.91-4.271-2.1-6.808-3.21L381.26,107.54s1.34.517,3.324,1.3c2,.785,4.7,1.73,7.469,2.907,2.7,1.159,5.325,2.425,7.273,3.371S402.578,116.707,402.578,116.707Z" transform="translate(-214.188 37.097)" fill="#ffb6c8"/>
          <path id="Trazado_773721" data-name="Trazado 773721" d="M339.326,101.465a4.564,4.564,0,0,0,.357,1.8,2.553,2.553,0,0,1,.214,1.587,9.111,9.111,0,0,0-.375-1.819c-.143-.464-.34-.963-.465-1.3-.393-.731-.643-1.213-.643-1.213l.911.945Z" transform="translate(-75.008 31.597)" fill="#ffb6c8"/>
          <path id="Trazado_773722" data-name="Trazado 773722" d="M316.239,76.79c2.537,3.852,6.969,2.55,1.465,3.139C312.343,77.432,317.508,78.235,316.239,76.79Z" transform="translate(-13.93 13.006)" fill="#ffb6c8"/>
          <path id="Trazado_773723" data-name="Trazado 773723" d="M313.111,84.173a23.537,23.537,0,0,1-6.451-2.853C311.217,81.57,310.913,82.925,313.111,84.173Z" transform="translate(8.587 16.555)" fill="#ffb6c8"/>
        </g>
      </g>
      <rect id="Rectángulo_414755" data-name="Rectángulo 414755" width="1600" height="68" transform="translate(0 1398)" fill="url(#linear-gradient-2)"/>
    </g>
    <g id="Enmascarar_grupo_1079218" data-name="Enmascarar grupo 1079218" clip-path="url(#clip-path-4)">
      <path id="Trazado_906846" data-name="Trazado 906846" d="M431.286,78.385a58.742,58.742,0,0,1-8.631,4.432c-.643.286-1.251.5-1.894.751-.643.268-1.269.5-1.841.7-1.412.536-2.895,1.09-4.557,1.715L409.7,85.6c-7.541,3.27-2.895,2.68-8.077,5.5a124.873,124.873,0,0,0-13.474,3.949,102.836,102.836,0,0,1-10.221,2.966c-2.252-.411,2.341-1.644,3.252-2.484-2.019.7-3.413,1.144-4.61,1.68-1.179.447-2.109.893-3.127,1.34a21.4,21.4,0,0,1-9.078,1.59l-.143-.5a21.008,21.008,0,0,1-2.144.107l-1.09.036h-.5l-.25.036-1.054.054h-.715a2.567,2.567,0,0,1-2.52-1.59,3.78,3.78,0,0,1-.143-1.68,5.168,5.168,0,0,1,.143-.893c.036-.179.143-.447.2-.679a8.367,8.367,0,0,1,.268-.8,99.937,99.937,0,0,1,4.682-10.025c3.627-7.076,7.952-14.367,11.061-23.248.393-1.09.75-2.269,1.054-3.467.339-1.144.572-2.466.822-3.717a36.222,36.222,0,0,0,.447-4.039,26.752,26.752,0,0,0-.214-4.432c-.125-.768-.214-1.59-.411-2.359-.214-.751-.465-1.519-.715-2.252a11.8,11.8,0,0,0-.947-2.216,18.621,18.621,0,0,0-1.019-1.823,23.176,23.176,0,0,0-5.915-6.594c2.43,2.2,1.465,2.019,2.055,3.127a20.083,20.083,0,0,0-6.236-4.61,22.042,22.042,0,0,0-7.309-2,37.226,37.226,0,0,0-12.938,1.269C333,29.9,326.2,33.1,319.6,36.159q-4.825,2.305-9.578,4.575c-3.61,1.644-4.914,2.341-7.148,3.234A21.623,21.623,0,0,1,296,45.684a8.1,8.1,0,0,1-3.574-.643,7.839,7.839,0,0,1-2.7-2.234,6.429,6.429,0,0,1-1.573-4.575,14.222,14.222,0,0,1,1.179-4.5,20.466,20.466,0,0,0-2.395,4.718,8.018,8.018,0,0,0,.357,5.843,7.782,7.782,0,0,0,3.842,4.253,11.869,11.869,0,0,0,5.986.768,47.813,47.813,0,0,0,12.473-3.431,181.988,181.988,0,0,0,22.873-11.311c3.413-.572,7.487-2.073,11.347-2.913,3.824-.876,7.505-.876,8.881.232a16.781,16.781,0,0,1,8.845,3.628,19.249,19.249,0,0,1,5,6.808,18.861,18.861,0,0,1,1.251,7.684,35.543,35.543,0,0,1-1.054,7.13c-2.323,9.113-6.5,17.3-12.223,28-1.876,2.913-1.912,1.019-3.163,1.519,0,0,1.984-4.414,4.217-8.81,1.09-2.2,2.18-4.414,3-6.076.8-1.662,1.34-2.788,1.34-2.788s-1.555,2.573-3.181,5.111L353.5,79.153c.876-2.466,3.038-6.379,4.753-9.953,1.751-3.574,2.948-6.862,2.484-7.845A87.776,87.776,0,0,1,355,74.489c-2.377,4.646-5.093,9.471-7.255,14.51a34.927,34.927,0,0,0-2.52,7.845,11.593,11.593,0,0,0,.84,7.612,9.448,9.448,0,0,0,5.575,4.164c.536.143,1.054.286,1.573.429.518.125,1.054.143,1.555.214.5.054.983.107,1.465.161.482,0,.947,0,1.412-.018a20.472,20.472,0,0,1-2.466-.572,16.2,16.2,0,0,1-2.5-.786,10.434,10.434,0,0,1-4.557-3.02,8,8,0,0,1-1.751-5.379,18.893,18.893,0,0,1,1.126-5.718c1.537-3.038,4.539-7.9,5.164-7.13a71.422,71.422,0,0,0-2.448,7.595,13.279,13.279,0,0,0-.286,5.9,6.214,6.214,0,0,0,3.52,4.2,5.71,5.71,0,0,0,1.287.518,6.951,6.951,0,0,0,1.322.375l1.34.286,1.5.179c.876.143,2.323.2,3.538.3,1.269.125,2.52.036,3.806.072,1.269,0,2.573-.143,3.86-.214,1.3-.107,2.609-.3,3.931-.465a94.928,94.928,0,0,0,16.351-4.128c5.647-1.912,13.474-4.557,14.724-4.056-3.681,1.608-.59,1.3-3.556,2.788,7.934-3.556-.3-3.288,11.758-7.112l-.536,3.413a9.608,9.608,0,0,1,4.021-2.734c.858-.34,1.769-.643,2.752-.929.929-.268,1.894-.536,2.877-.822,4-1.144,8.577-2.663,12.312-5.307,3.449-.179-1.733,2.913-7.952,5.611,7.362-2.484,7.237-4.5,13.063-6.9l-4.414,4.735c5.075-4.95,11.222-4.217,14.975-4.539.107-.375-.822-.75-.786-1.358,0-.3.286-.643,1.054-1.072a15.819,15.819,0,0,1,4.128-1.394c3.645-.482,1.948.59,2.859.768a4.589,4.589,0,0,1,2.412-1.573,13.182,13.182,0,0,1,2.752-.786c.554-.089,1.144-.179,1.787-.25.643-.054,1.34-.036,2.073-.036.518.447-.465.751-1.59,1.054-1.108.34-2.359.786-2.5,1.233a35.758,35.758,0,0,1,5.129-.089H467.7a9.868,9.868,0,0,1-1.7,5.272c-1.072,3.467-.679,3.074-.071,2.609.59-.536,1.34-1.215.965.375-2.859,4.36-4.271,5.254-5.111,5.307-.84.089-1.608-.7-3.735,1.8a66.981,66.981,0,0,1,2.537-7.38c.625-1.5,1.287-3.109,1.894-4.7.2-.751.375-1.483.572-2.216-.036-.393-.054-.768-.054-1.144,1.519,1.626,3.02,3.27,4.36,4.7a26.563,26.563,0,0,0-7.9,1.34,35.266,35.266,0,0,1,7.863-.893l-4.771-5.146v1.072l-.643,2.162c-.679,1.555-1.376,3.109-2.109,4.628-.322-.554-2.805,3.252-4.217,5.575-.715,1.144-1.287,2.055-1.537,2.055-.143.018-.2-.2-.125-.733a13.025,13.025,0,0,1,.679-2.788,40.021,40.021,0,0,0-3.735,12.223,30.435,30.435,0,0,0-.268,6.576l.071.965c.036.3.2.268.286.429.232.214.447.429.679.679.465.447.929,1.054,1.412,1.608,7.237-2.126,14.617-4.271,21.837-6.683,3.556-1.161,7.094-2.305,10.275-3.252,1.215-.375,2.412-.733,3.61-1.09,1.036-.3,2.055-.59,3.056-.876-2.126.107-4.861.554-4.575-.179,7.469-2.395,6.88-.822,8.542-.429a11,11,0,0,0,4.682-2.448,10.513,10.513,0,0,1,3.163-2.484c.733.036,1.412.071,2.073.125.625.036,1.054.107,1.537.161.929.107,1.715.25,2.43.375a15.984,15.984,0,0,1,3.574,1.09,5.661,5.661,0,0,1,2.466,2.216,5.252,5.252,0,0,1,.107,4.324s.5-.232,1.019-.465c.5-.25,1-.518,1-.518-.286,1.43-.679,2.395-.875,3.217-.232.822-.34,1.519-.483,2.252a10.454,10.454,0,0,1-.786,2.412,15.72,15.72,0,0,1-2.537,3.52c-.268.071-.089-.572.268-1.483.179-.447.393-.983.625-1.537.2-.5.268-.822.393-1.233a12.006,12.006,0,0,1-1.769,2.806,16.89,16.89,0,0,1-1.823,1.787,18.334,18.334,0,0,0-4.164,4.878l.858-2.7.768-2.663c-2.984,4.164-7.648,10.758-7.166,7.523a67.682,67.682,0,0,1-4.467,7.237c-1.8,2.68-3.9,5.522-5.951,8.953a30.927,30.927,0,0,0-2.948,6.236,14.02,14.02,0,0,0-.7,5.289,9.172,9.172,0,0,0,.3,1.841,8.148,8.148,0,0,0,.733,1.948,9.879,9.879,0,0,0,2.573,3.27,11.856,11.856,0,0,0,5.236,2.43,19.51,19.51,0,0,0,3.717.357,29.185,29.185,0,0,0,5.682-.572l-.768,1.608c3.574-1.215,9.489-2.323,15.1-3.77.7-.179,1.394-.375,2.091-.554l1.019-.286c.357-.089,1-.3,1.34-.411,1.5-.536,2.716-1.036,3.86-1.555a19.851,19.851,0,0,0,5.093-3.056l1.072.25,10.7-6.362c5.254-1.787,4.289,1.036,4.485.286,11.168-4.61,20.21-7.648,27.608-8.685.232-1.09,2.412-2.377,5.861-3.306a22.024,22.024,0,0,1,5.736-.786,8.171,8.171,0,0,1,3,.518,3.816,3.816,0,0,1,2.144,1.894,6.071,6.071,0,0,1-.125,3.431,16.161,16.161,0,0,1-1.34,3.2,28.365,28.365,0,0,1-1.769,2.931l-2.019,2.716-1,1.358c-.357.482-.59.84-1.126,1.465l-2.877,3.467c-1.841,2.341-3.967,4.592-6.058,6.88a287.919,287.919,0,0,1-27.323,25.411c-19.21,15.922-39.456,30.271-57.594,44.46a64.98,64.98,0,0,0-6.326,5.45c-2.162,2.126-4.378,4.45-6.63,6.755l-1.019-3.074c1.894-.357,3.842-1.858,7.148-2.234a22.7,22.7,0,0,0-2.716.232c-.7.143-1.34.286-1.966.411-.5.089-1.072.268-1.43.286-.375.036-.715.089-1.036.143.608,1.8,1.2,3.61,1.715,5.164,3.663-2.823,5.432-4.861,11.383-9.042,6.63-4.039,10.2-3.9,16.44-6.612l-3.77.5c7.863-7.094,6.469-3.324,12.33-9.471l1.3,2.5c1.608-2.823,8.309-6.058,11.222-7.184l1.126-3.163c6.058-2.948,9.828-5.146,12.509-4.932l-1.573-1.054a20.766,20.766,0,0,0,4.289-2.52c1.966-1.412,4.324-3.091,6.415-4.575,4.2-2.966,7.452-5.093,5.254-1.394,1.287-1.555,2.144-3.342,5.593-5.9l1.626.947c2.234-2.2,4.664-4.45,6.719-6.29,2.037-1.876,3.788-3.234,4.789-3.467-2.252,2.609-2.591,3.949-2.913,5.289,2.52-2.216,4.414-4.021,5.826-5.486a23.9,23.9,0,0,0,2.895-3.645c1.179-1.912,1.09-2.859.929-3.753a4.278,4.278,0,0,1,.429-3.359c.786-1.715,2.609-4.2,6.5-8.667l.7.965,2.966-5.54s.322-.25.822-.643c.25-.2.536-.429.84-.661a7.1,7.1,0,0,0,1.019-.911l3.091-3.377a26.078,26.078,0,0,1,1.948-4.878,33.433,33.433,0,0,0,2.5-5.843,27.312,27.312,0,0,0,1.5-6.7,10.694,10.694,0,0,0-1.662-7.273,12.6,12.6,0,0,0-6.362-4.253,25.78,25.78,0,0,0-8.023-1.126,42.475,42.475,0,0,0-8.631,1c-1.394.286-2.77.661-4.056,1.019q-.965.295-1.876.59a12.385,12.385,0,0,0-1.376.536c-5.325,1.7-12.991,1.608-22.748,5.379l1.233,1.43c-4.253.536-13.777,3.359-23.159,5.968-2.341.643-4.682,1.269-6.826,1.769-.518.107-1.036.214-1.537.322a5.046,5.046,0,0,1-1.161.143,1.861,1.861,0,0,0-.59.036l-.768.071c-.518.036-1.019.089-1.5.125-3.931.268-7.112.054-8.9-.661-6.111,2.323.661.3.876,1.626a23.446,23.446,0,0,1-6.915,1.43,3.234,3.234,0,0,1-.733-.089.5.5,0,0,1-.2-.071c-.036.071.089-.447-.179.786a13.816,13.816,0,0,1-2.162,5.629c-.608.751-.768.482.107.322a10.987,10.987,0,0,1,4.592.393,33.033,33.033,0,0,1,3.913,1.144c.071.054.2,0,.322-.054a5.026,5.026,0,0,0,1-.911c.59-1.412.893-2.073.7-2.019a6.121,6.121,0,0,0-1.215,1.287c-1.072,1.358-1.5,1.858-1.787.8.715-.965,1.3-1.787,1.841-2.5.608-.858,1.179-1.68,1.662-2.448.983-1.537,1.662-2.859,2.43-4.271,1.537-2.895,3.431-5.951,9.578-12.866,1.912-.84-2.394,4.217-3.056,6.022,1.644-2.77,3.878-5.968,6.451-9.81.643-.983,1.3-2,1.966-3.038.375-.608.751-1.2,1.126-1.823.518-.858.983-1.715,1.483-2.573a32.518,32.518,0,0,0,3.913-11.133,21.8,21.8,0,0,0-1.769-11.437l-.661-1.322c-.268-.411-.554-.822-.84-1.215a17.683,17.683,0,0,0-1.912-2.252A28.764,28.764,0,0,0,525.28,90.2c-.822-.554-1.68-1.054-2.52-1.555a28.481,28.481,0,0,0-11.848-3.02,30.666,30.666,0,0,0-3.145-.089c-.983,0-2.252,0-2.859.054-1.412.089-2.77.214-4.056.375-3.217.179-6.5.554-9.864,1.072-1.662.268-3.377.554-5.075.894-.858.161-1.715.34-2.573.518l-1.161.232-.322.036a21.626,21.626,0,0,1-3.038.089.76.76,0,0,1-.3-.071s-.054,0-.054-.036l.054-.179a2.987,2.987,0,0,1,.143-.357,4.242,4.242,0,0,1,.858-1.108c.3-.3.572-.554.786-.733l.3-.25s.143-.322.2-.465a4.588,4.588,0,0,0,.089-.679L481,83.96l.161-1.93.983-12.133-13.277-1.144a57.24,57.24,0,0,0-6.648-.286l-.572.679c-7-.286-13.4,1.59-19.281,3.788-5.808,2.252-11.294,4.95-16.708,6.88l5.682-1.447Z" transform="translate(-445.478 774.972)" fill="#bad1ff"/>
      <path id="Trazado_906847" data-name="Trazado 906847" d="M0,22.252a5.387,5.387,0,0,0,5.383,5.38H16.86V39.1a5.383,5.383,0,0,0,10.766,0V27.631H39.1a5.38,5.38,0,1,0,0-10.759H27.627V5.4a5.383,5.383,0,0,0-10.766,0V16.872H5.382A5.387,5.387,0,0,0,0,22.252Zm17.759-3.586a.9.9,0,0,0,.9-.9V5.4a3.589,3.589,0,0,1,7.177,0V17.768a.9.9,0,0,0,.9.9H39.1a3.586,3.586,0,1,1,0,7.173H26.729a.9.9,0,0,0-.9.9V39.1a3.589,3.589,0,0,1-7.177,0V26.735a.9.9,0,0,0-.9-.9H5.382a3.586,3.586,0,1,1,0-7.173Z" transform="translate(1534.79 614.986) rotate(45)" fill="#5b92fe" fill-rule="evenodd"/>
      <path id="Trazado_906848" data-name="Trazado 906848" d="M0,22.252a5.387,5.387,0,0,0,5.383,5.38H16.86V39.1a5.383,5.383,0,0,0,10.766,0V27.631H39.1a5.38,5.38,0,1,0,0-10.759H27.627V5.4a5.383,5.383,0,0,0-10.766,0V16.872H5.382A5.387,5.387,0,0,0,0,22.252Zm17.759-3.586a.9.9,0,0,0,.9-.9V5.4a3.589,3.589,0,0,1,7.177,0V17.768a.9.9,0,0,0,.9.9H39.1a3.586,3.586,0,1,1,0,7.173H26.729a.9.9,0,0,0-.9.9V39.1a3.589,3.589,0,0,1-7.177,0V26.735a.9.9,0,0,0-.9-.9H5.382a3.586,3.586,0,1,1,0-7.173Z" transform="translate(102.79 693.986) rotate(45)" fill="#5b92fe" fill-rule="evenodd"/>
    </g>
  </g>
</svg>
