<svg xmlns="http://www.w3.org/2000/svg" xmlns:xlink="http://www.w3.org/1999/xlink" width="190" height="144.384" viewBox="0 0 190 144.384">
  <defs>
    <clipPath id="clip-path">
      <path id="Trazado_776969" data-name="Trazado 776969" d="M136.377,247.231a45.461,45.461,0,0,0-3.543-19.376c-4.253-9.686-5.216-10.392-5.216-13.225s2.853-6.147,3.326-12.527a70.734,70.734,0,0,0,.237-9.453s10.159,16.066,17.249,17.012,11.343-5.67,8.743-14.649-13.939-16.3-18.429-22.209S124.1,166.9,118.9,166.9s-7.8-1.89-8.743-5.433-.947-10.633-.947-10.633-6.143,3.78-16.539-.473c0,0,.947,13-.237,14.886s-2.837,3.78-9.923,3.78-13,1.416-16.3,4.727-17.012,16.539-20.555,21.739-1.653,10.87,2.6,13,8.506.237,11.58-2.6,12.759-11.812,12.759-11.812a46.271,46.271,0,0,0,2.6,13.233c2.6,7.8,4.727,6.853,2.837,12.523s-5.67,7.327-6.853,14.649a69.6,69.6,0,0,0-.947,12.759" transform="translate(-43.792 -150.36)" fill="#c6ff00" stroke="#263238" stroke-linecap="round" stroke-linejoin="round" stroke-width="1"/>
    </clipPath>
    <clipPath id="clip-path-2">
      <path id="Trazado_776976" data-name="Trazado 776976" d="M166.251,184.838c11.789,2.276,16.334-9.027,17.92-18.058-3.926-.43-6-2.257-6.814-5.334-.947-3.543-.947-10.633-.947-10.633s-6.143,3.78-16.539-.473c0,0,.947,13-.237,14.886a6.741,6.741,0,0,1-4.837,3.31c-.107,4.036.71,14.227,11.453,16.3Z" transform="translate(-154.79 -150.34)" fill="#f5b78d" stroke="#263238" stroke-linecap="round" stroke-linejoin="round" stroke-width="1"/>
    </clipPath>
    <clipPath id="clip-path-3">
      <path id="Trazado_776981" data-name="Trazado 776981" d="M151.63,87.061s.4,10.57,8.179,15.754,13.56,2.194,16.752-2.194,5.184-8.775,5.184-15.158.8-9.173-1.4-13.162-9.773-5.981-9.773-5.981A119.717,119.717,0,0,1,160.4,77.489,86.617,86.617,0,0,0,151.63,87.061Z" transform="translate(-151.63 -66.32)" fill="#b2b2b2" stroke="#263238" stroke-linecap="round" stroke-linejoin="round" stroke-width="1"/>
    </clipPath>
    <clipPath id="clip-path-4">
      <path id="Trazado_777019" data-name="Trazado 777019" d="M41.963,264.73s-4.253,4.727-4.253,9.686,2.837,9.453,10.633,16.539,15.123,12.286,18.192,13.939,6.143-.473,6.143-.473,5.082,5.082,5.67,3.9-1.771-2.955-2.245-3.661a9.908,9.908,0,0,0-1.416-1.535,8.82,8.82,0,0,1,3.425,1.18c.943.825,2.482,2.245,3.188,2.127s.71-.71-.355-2.127a12.58,12.58,0,0,0-3.073-2.837c-.71-.473-3.073-1.771-3.073-1.771s3.425-.237,4.608.473,4.371,2.837,4.608,1.89.237-1.535-.947-2.6a12.578,12.578,0,0,0-4.963-2.6,14.939,14.939,0,0,1-2.837-.829,19.577,19.577,0,0,1,3.661-.947c.943,0,4.727,1.89,5.788,1.653s.473-1.18-.355-1.771a20.022,20.022,0,0,0-6.025-2.127c-1.535-.118-10.159,2.837-11.225,2.837s-3.78-3.78-6.616-8.861-3.9-13-9.923-15.714" transform="translate(-37.71 -264.73)" fill="#c6ff00" stroke="#263238" stroke-linecap="round" stroke-linejoin="round" stroke-width="1"/>
    </clipPath>
    <clipPath id="clip-path-5">
      <path id="Trazado_777070" data-name="Trazado 777070" d="M280.015,169.478c-.986-2.253-.142-7.185.844-14.227s1.973-14.227,1.973-18.03.631-9.086-.608-10.775-5.748-6.313-6.084-8.451,2.707-5.409,2.707-5.409.9-1.689,1.689-.789.45,2.028,0,3.606-.9,2.817-.9,2.817,3.945,1.239,4.959.564.923-4.533.852-6.419c-.146-3.685-1.622-2.111-2.643-.367-.489.836-3.381.339-1.689-1.8s3.259-4.032,4.837-2.34a16.96,16.96,0,0,1,2.707,4.959s1.128-5.37,2.154-8.526,2.864-4.407,3.523-4.186.588,1.322-.075,2.864-2.13,5.8-2.5,7.2-.442,3.01.292,2.864,3.306-4.628,4.04-6.537a9.5,9.5,0,0,1,3.085-4.478c1.247-.809,2.276.221,1.764,1.543a67.17,67.17,0,0,1-3.452,6.975,30.141,30.141,0,0,0-2.056,4.553,51.783,51.783,0,0,1,3.819-3.673c1.764-1.468,3.673-1.764,4.261-1.247s.075.588-1.4,1.764a19.744,19.744,0,0,0-5.433,5.433,26.694,26.694,0,0,0-3.156,6.754,22.943,22.943,0,0,1-2.13,4.478s1.377,11.185,3.76,17.332,6.609,15.146,5.322,21.573-3.764,9.729-7.252,10.739a6.743,6.743,0,0,1-5.965-1.1" transform="translate(-276.115 -100.077)" fill="#c6ff00" stroke="#263238" stroke-linecap="round" stroke-linejoin="round" stroke-width="1"/>
    </clipPath>
  </defs>
  <g id="_1" data-name="1" transform="translate(-180 -359.142)">
    <rect id="Rectángulo_356776" data-name="Rectángulo 356776" width="190" height="117" rx="11" transform="translate(180 386)" fill="#d5e3ff"/>
    <path id="Trazado_776642" data-name="Trazado 776642" d="M327.983,174.072a86.5,86.5,0,1,0-154.719,53.188H309.7a86.133,86.133,0,0,0,18.284-53.188Z" transform="translate(34.473 275.741)" fill="#eef3ff"/>
    <g id="_5832605" data-name="5832605" transform="translate(205.001 346.797)">
      <g id="Plants" transform="translate(111.841 57.899)">
        <g id="Grupo_1073822" data-name="Grupo 1073822">
          <g id="Grupo_1073821" data-name="Grupo 1073821">
            <path id="Trazado_776734" data-name="Trazado 776734" d="M359.488,216.779c1.365-7.847,14.33-22.86,10.578-32.072S357.1,204.837,353.688,205.18s-.339-13.308,4.435-26.272,8.53-26.615,0-31.733-8.191,35.485-10.234,34.12,1.365-18.425-1.022-29-7.847-2.048-7.847,10.234,3.752,19.107,1.022,20.129-11.106-2.8-10.917,10.578,10.578,29.346,6.826,27.3-10.578-9.9-9.212,2.73c.967,8.924,7.895,17.506,11.876,21.771h18.243a71.818,71.818,0,0,0,11.852-15.967c5.117-9.895-10.578-4.435-9.212-12.282Z" transform="translate(-326.559 -146.729)" fill="#a7f7dd"/>
            <path id="Trazado_776735" data-name="Trazado 776735" d="M343.087,261.585c-3.377-4.841-4.955-10.759-6.534-16.283-.789-3.551-.789-7.5,1.973-9.863,2.762-1.973,4.34,1.578,5.918,3.156,1.184-.789.395-1.973.395-2.762a152.529,152.529,0,0,1-1.184-18.938c0-3.945,1.578-7.1,3.156-10.653.789-1.184,1.578-2.367,2.762-2.762a2.038,2.038,0,0,1,2.762,1.184c.789,2.762.789,5.524,1.184,8.285.789-.789.395-1.973.395-2.762,1.578-11.442.395-22.489,3.945-33.536.395-.789,1.578-1.578,2.367-1.184,2.762.395,2.762,3.945,2.762,6.313,1.578,11.442-1.973,22.489-3.156,33.93,0,.789-.395,1.578.395,2.367.395-2.762,1.973-5.524,2.762-8.285a7.1,7.1,0,0,1,2.367-3.551c.789-.395,1.578,0,2.367.789a10.1,10.1,0,0,1,1.578,7.5c-1.184,6.707-3.551,12.231-6.313,18.149l-1.184,3.551c-.395,2.367-1.973,5.129-.395,7.1,2.762-.395,3.551-3.551,5.918-5.129s3.156.395,3.551,1.973c1.578,7.891-1.184,14.992-5.161,21.4" transform="translate(-332.335 -164.066)" fill="none" stroke="#263238" stroke-linecap="round" stroke-linejoin="round" stroke-width="1"/>
          </g>
          <path id="Trazado_776736" data-name="Trazado 776736" d="M381.54,335.966s-.923-18.433,1.381-35.256" transform="translate(-359.737 -239.959)" fill="none" stroke="#263238" stroke-linecap="round" stroke-linejoin="round" stroke-width="1"/>
          <path id="Trazado_776737" data-name="Trazado 776737" d="M362.55,360.29l7.6,8.293,6.684-5.76" transform="translate(-348.35 -276.032)" fill="none" stroke="#263238" stroke-linecap="round" stroke-linejoin="round" stroke-width="1"/>
          <path id="Trazado_776738" data-name="Trazado 776738" d="M376.56,307.72l2.075,10.6,5.989-10.6" transform="translate(-356.833 -244.203)" fill="none" stroke="#263238" stroke-linecap="round" stroke-linejoin="round" stroke-width="1"/>
          <line id="Línea_263" data-name="Línea 263" y1="9.911" x2="1.381" transform="translate(23.416 48.079)" fill="none" stroke="#263238" stroke-linecap="round" stroke-linejoin="round" stroke-width="1"/>
        </g>
      </g>
      <g id="Plants-2" data-name="Plants" transform="translate(-19.158 57.9)">
        <g id="Grupo_1073822-2" data-name="Grupo 1073822" transform="translate(0 -0.001)">
          <g id="Grupo_1073821-2" data-name="Grupo 1073821">
            <path id="Trazado_776734-2" data-name="Trazado 776734" d="M337.816,216.78c-1.365-7.847-14.33-22.86-10.578-32.072s12.964,20.129,16.377,20.473.339-13.308-4.435-26.272-8.53-26.616,0-31.733,8.191,35.485,10.234,34.12-1.365-18.425,1.022-29,7.847-2.048,7.847,10.234-3.752,19.107-1.022,20.129,11.106-2.8,10.917,10.578-10.578,29.346-6.826,27.3,10.578-9.9,9.212,2.73c-.967,8.924-7.895,17.506-11.876,21.771H340.447A71.818,71.818,0,0,1,328.6,229.065c-5.117-9.9,10.578-4.435,9.212-12.282Z" transform="translate(-326.559 -146.729)" fill="#a7f7dd"/>
            <path id="Trazado_776735-2" data-name="Trazado 776735" d="M364.342,261.585c3.377-4.841,4.955-10.759,6.533-16.283.789-3.551.789-7.5-1.973-9.863-2.762-1.973-4.34,1.578-5.918,3.156-1.184-.789-.395-1.973-.395-2.762a152.53,152.53,0,0,0,1.184-18.938c0-3.945-1.578-7.1-3.156-10.653-.789-1.184-1.578-2.367-2.762-2.762a2.038,2.038,0,0,0-2.762,1.184c-.789,2.762-.789,5.524-1.184,8.285-.789-.789-.395-1.973-.395-2.762-1.578-11.442-.395-22.489-3.945-33.536-.395-.789-1.578-1.578-2.367-1.184-2.762.395-2.762,3.945-2.762,6.313-1.578,11.442,1.973,22.489,3.156,33.93,0,.789.395,1.578-.395,2.367-.395-2.762-1.973-5.524-2.762-8.285a7.1,7.1,0,0,0-2.367-3.551c-.789-.395-1.578,0-2.367.789a10.1,10.1,0,0,0-1.578,7.5c1.184,6.707,3.551,12.231,6.313,18.149l1.184,3.551c.395,2.367,1.973,5.129.395,7.1-2.762-.395-3.551-3.551-5.918-5.129s-3.156.395-3.551,1.973c-1.578,7.891,1.184,14.992,5.161,21.4" transform="translate(-330.909 -164.066)" fill="none" stroke="#263238" stroke-linecap="round" stroke-linejoin="round" stroke-width="1"/>
          </g>
          <path id="Trazado_776736-2" data-name="Trazado 776736" d="M382.738,335.966s.923-18.433-1.381-35.256" transform="translate(-360.356 -239.959)" fill="none" stroke="#263238" stroke-linecap="round" stroke-linejoin="round" stroke-width="1"/>
          <path id="Trazado_776737-2" data-name="Trazado 776737" d="M376.836,360.29l-7.6,8.293-6.683-5.76" transform="translate(-346.851 -276.032)" fill="none" stroke="#263238" stroke-linecap="round" stroke-linejoin="round" stroke-width="1"/>
          <path id="Trazado_776738-2" data-name="Trazado 776738" d="M384.624,307.72l-2.075,10.6-5.989-10.6" transform="translate(-360.167 -244.203)" fill="none" stroke="#263238" stroke-linecap="round" stroke-linejoin="round" stroke-width="1"/>
          <line id="Línea_263-2" data-name="Línea 263" x1="1.381" y1="9.911" transform="translate(19.388 48.079)" fill="none" stroke="#263238" stroke-linecap="round" stroke-linejoin="round" stroke-width="1"/>
        </g>
      </g>
      <g id="Window" transform="translate(18.197 26.896)">
        <g id="Grupo_1073823" data-name="Grupo 1073823">
          <rect id="Rectángulo_356792" data-name="Rectángulo 356792" width="24.848" height="18.062" transform="translate(-0.436 107.528)" fill="none" stroke="#263238" stroke-linecap="round" stroke-linejoin="round" stroke-width="1"/>
          <rect id="Rectángulo_356793" data-name="Rectángulo 356793" width="24.848" height="31.062" transform="translate(31.058 12.528)" fill="none" stroke="#263238" stroke-linecap="round" stroke-linejoin="round" stroke-width="1"/>
          <rect id="Rectángulo_356794" data-name="Rectángulo 356794" width="24.848" height="31.062" transform="translate(0 32.594)" fill="none" stroke="#263238" stroke-linecap="round" stroke-linejoin="round" stroke-width="1"/>
          <rect id="Rectángulo_356795" data-name="Rectángulo 356795" width="24.848" height="31.062" transform="translate(31.058 26.594)" fill="none" stroke="#263238" stroke-linecap="round" stroke-linejoin="round" stroke-width="1"/>
          <rect id="Rectángulo_356796" data-name="Rectángulo 356796" width="24.848" height="31.062" transform="translate(0 69.467)" fill="none" stroke="#263238" stroke-linecap="round" stroke-linejoin="round" stroke-width="1"/>
          <rect id="Rectángulo_356797" data-name="Rectángulo 356797" width="24.848" height="31.062" transform="translate(31.058 40.659)" fill="none" stroke="#263238" stroke-linecap="round" stroke-linejoin="round" stroke-width="1"/>
          <path id="Trazado_776739" data-name="Trazado 776739" d="M75.223,7.34h0A27.671,27.671,0,0,0,47.55,35.013H102.9A27.671,27.671,0,0,0,75.223,7.34Z" transform="translate(-46.986 -7.34)" fill="none" stroke="#263238" stroke-linecap="round" stroke-linejoin="round" stroke-width="1"/>
        </g>
      </g>
      <g id="Character" transform="translate(14.879 12.849)">
        <g id="Grupo_1073844" data-name="Grupo 1073844">
          <g id="Grupo_1073824" data-name="Grupo 1073824" transform="translate(24.487)">
            <path id="Trazado_776740" data-name="Trazado 776740" d="M142.632,37.447s0-5.906-10.159-4.727S118.06,42.88,114.986,44.77s-8.743,3.543-8.98,6.38,2.363,4.016-.237,6.143-6.616,4.016-5.67,6.853,3.543,5.67,2.363,7.559-4.49,3.78-1.416,5.906,4.49,2.6,4.49,5.433-1.18,4.727,1.653,5.67,4.49-.947,6.143,2.6,3.306,4.49,6.143,3.78,6.853-1.89,8.27-.947,5.906,3.543,7.8,2.127,3.543-3.543,6.38-2.363,5.2,2.837,6.38.71,0-2.6,4.49-3.543,6.143-.71,6.143-4.49-.237-4.727,1.89-6.38,4.016-.947,3.306-4.963-2.127-4.963-1.416-8.98-1.18-5.433-2.6-6.616-3.073-3.306-2.6-5.433,4.016-2.363.473-6.143-5.2-2.6-5.906-5.433-3.073-8.98-9.453-5.2Z" transform="translate(-99.775 -32.565)" fill="#263238" stroke="#263238" stroke-linecap="round" stroke-linejoin="round" stroke-width="1"/>
            <path id="Trazado_776741" data-name="Trazado 776741" d="M144.1,62.98c-1.452,2.3-2.58,4.9-4.92,7.1C135.79,73.254,127.118,76,126.7,78.967s1.057,4.652-1.9,7.192-7.615,3.172-7.615,5.709,1.27,3.385.635,5.287" transform="translate(-110.313 -50.98)" fill="none" stroke="#616161" stroke-miterlimit="10" stroke-width="1"/>
            <path id="Trazado_776742" data-name="Trazado 776742" d="M194.171,53.9s-1.057-2.75-4.02,0c-.229.213-.446.434-.651.659" transform="translate(-154.1 -44.745)" fill="none" stroke="#616161" stroke-miterlimit="10" stroke-width="1"/>
            <path id="Trazado_776743" data-name="Trazado 776743" d="M121.96,86.42c-2.6.631-4.656,1.085-4.873,2.927-.422,3.594.213,5.922-2.328,6.979s-5.922,2.75-4.865,4.865,1.27,2.75,1.057,3.594" transform="translate(-105.782 -65.172)" fill="none" stroke="#616161" stroke-miterlimit="10" stroke-width="1"/>
            <path id="Trazado_776744" data-name="Trazado 776744" d="M169.676,44.4s-5.922-3.807-9.094-.422-1.693,7.615-6.557,12.266a12.363,12.363,0,0,1-4.285,2.6" transform="translate(-130.027 -38.626)" fill="none" stroke="#616161" stroke-miterlimit="10" stroke-width="1"/>
            <path id="Trazado_776745" data-name="Trazado 776745" d="M252.42,123.22a3.836,3.836,0,0,0,1.424,1.31" transform="translate(-192.196 -87.453)" fill="none" stroke="#616161" stroke-miterlimit="10" stroke-width="1"/>
            <path id="Trazado_776746" data-name="Trazado 776746" d="M210.99,59.861s5.287-1.693,6.557,1.27,1.9,8.25,4.229,9.094,3.385,2.115,3.385,6.77a14.9,14.9,0,0,0,.663,4.423" transform="translate(-167.111 -48.801)" fill="none" stroke="#616161" stroke-miterlimit="10" stroke-width="1"/>
            <path id="Trazado_776747" data-name="Trazado 776747" d="M124.14,135.91c1.693-2.75,4.02-1.693,4.229-4.652s-1.48-3.807.213-5.709a11.168,11.168,0,0,1,4.442-2.75" transform="translate(-114.527 -87.199)" fill="none" stroke="#616161" stroke-miterlimit="10" stroke-width="1"/>
            <path id="Trazado_776748" data-name="Trazado 776748" d="M126.952,167.577a9.828,9.828,0,0,1-2.012-2.257" transform="translate(-115.011 -112.943)" fill="none" stroke="#616161" stroke-miterlimit="10" stroke-width="1"/>
          </g>
          <g id="Grupo_1073829" data-name="Grupo 1073829" transform="translate(2.4 46.475)">
            <g id="Grupo_1073827" data-name="Grupo 1073827">
              <path id="Trazado_776749" data-name="Trazado 776749" d="M136.377,247.231a45.461,45.461,0,0,0-3.543-19.376c-4.253-9.686-5.216-10.392-5.216-13.225s2.853-6.147,3.326-12.527a70.734,70.734,0,0,0,.237-9.453s10.159,16.066,17.249,17.012,11.343-5.67,8.743-14.649-13.939-16.3-18.429-22.209S124.1,166.9,118.9,166.9s-7.8-1.89-8.743-5.433-.947-10.633-.947-10.633-6.143,3.78-16.539-.473c0,0,.947,13-.237,14.886s-2.837,3.78-9.923,3.78-13,1.416-16.3,4.727-17.012,16.539-20.555,21.739-1.653,10.87,2.6,13,8.506.237,11.58-2.6,12.759-11.812,12.759-11.812a46.271,46.271,0,0,0,2.6,13.233c2.6,7.8,4.727,6.853,2.837,12.523s-5.67,7.327-6.853,14.649a69.6,69.6,0,0,0-.947,12.759" transform="translate(-43.792 -150.36)" fill="#5b92fe"/>
              <g id="Grupo_1073826" data-name="Grupo 1073826" clip-path="url(#clip-path)">
                <g id="Grupo_1073825" data-name="Grupo 1073825" transform="translate(0.406 0.371)" opacity="0.2">
                  <path id="Trazado_776750" data-name="Trazado 776750" d="M238.6,210.98c-.162,0-.754.406,0,1.543C239.35,211.382,238.758,210.98,238.6,210.98Z" transform="translate(-161.918 -187.434)"/>
                  <path id="Trazado_776751" data-name="Trazado 776751" d="M286.6,210.98c-.162,0-.754.406,0,1.543C287.35,211.382,286.758,210.98,286.6,210.98Z" transform="translate(-190.98 -187.434)"/>
                  <path id="Trazado_776752" data-name="Trazado 776752" d="M286.6,234.98c-.162,0-.754.406,0,1.543C287.35,235.382,286.758,234.98,286.6,234.98Z" transform="translate(-190.98 -201.965)"/>
                  <path id="Trazado_776753" data-name="Trazado 776753" d="M238.6,234.98c-.162,0-.754.406,0,1.543C239.35,235.382,238.758,234.98,238.6,234.98Z" transform="translate(-161.918 -201.965)"/>
                  <path id="Trazado_776754" data-name="Trazado 776754" d="M262.6,222.98c-.162,0-.754.406,0,1.543C263.35,223.382,262.758,222.98,262.6,222.98Z" transform="translate(-176.449 -194.7)"/>
                  <path id="Trazado_776755" data-name="Trazado 776755" d="M262.6,198.98c-.162,0-.754.406,0,1.543C263.35,199.382,262.758,198.98,262.6,198.98Z" transform="translate(-176.449 -180.168)"/>
                  <path id="Trazado_776756" data-name="Trazado 776756" d="M240.21,214.072c1.365.079,1.416-.635,1.334-.777S240.814,212.849,240.21,214.072Z" transform="translate(-163.121 -188.751)"/>
                  <path id="Trazado_776757" data-name="Trazado 776757" d="M289.382,213.967l-.525-.537a1.882,1.882,0,0,0-.647.809A1.561,1.561,0,0,0,289.382,213.967Z" transform="translate(-192.183 -188.917)"/>
                  <path id="Trazado_776758" data-name="Trazado 776758" d="M264.21,226.072c1.365.079,1.416-.635,1.334-.777S264.814,224.849,264.21,226.072Z" transform="translate(-177.652 -196.016)"/>
                  <path id="Trazado_776759" data-name="Trazado 776759" d="M264.21,202.072c1.365.079,1.416-.635,1.334-.777S264.814,200.849,264.21,202.072Z" transform="translate(-177.652 -181.485)"/>
                  <path id="Trazado_776760" data-name="Trazado 776760" d="M282.712,213.293c-.083.142-.032.856,1.334.777C283.442,212.844,282.795,213.151,282.712,213.293Z" transform="translate(-188.84 -188.749)"/>
                  <path id="Trazado_776761" data-name="Trazado 776761" d="M282.712,237.3a.482.482,0,0,0,.205.544h0a1.631,1.631,0,0,0,1.128.233c-.043-.087-.087-.162-.126-.233-.564-.947-1.128-.675-1.207-.544Z" transform="translate(-188.839 -203.284)"/>
                  <path id="Trazado_776762" data-name="Trazado 776762" d="M258.712,225.293c-.083.142-.032.856,1.334.777C259.442,224.844,258.795,225.151,258.712,225.293Z" transform="translate(-174.308 -196.015)"/>
                  <path id="Trazado_776763" data-name="Trazado 776763" d="M258.712,201.293c-.083.142-.032.856,1.334.777C259.442,200.844,258.795,201.151,258.712,201.293Z" transform="translate(-174.308 -181.484)"/>
                  <path id="Trazado_776764" data-name="Trazado 776764" d="M238.6,282.98c-.162,0-.754.406,0,1.543C239.35,283.382,238.758,282.98,238.6,282.98Z" transform="translate(-161.918 -231.027)"/>
                  <path id="Trazado_776765" data-name="Trazado 776765" d="M286.6,282.98c-.118,0-.458.213-.351.761.166.178.335.355.5.533.513-.947,0-1.29-.15-1.29Z" transform="translate(-190.984 -231.027)"/>
                  <path id="Trazado_776766" data-name="Trazado 776766" d="M238.6,306.98c-.162,0-.754.406,0,1.543C239.35,307.382,238.758,306.98,238.6,306.98Z" transform="translate(-161.918 -245.558)"/>
                  <path id="Trazado_776767" data-name="Trazado 776767" d="M310.6,294.98c-.162,0-.754.406,0,1.543C311.35,295.382,310.758,294.98,310.6,294.98Z" transform="translate(-205.511 -238.293)"/>
                  <path id="Trazado_776768" data-name="Trazado 776768" d="M238.6,258.98c-.162,0-.754.406,0,1.543C239.35,259.382,238.758,258.98,238.6,258.98Z" transform="translate(-161.918 -216.496)"/>
                  <path id="Trazado_776769" data-name="Trazado 776769" d="M286.6,258.98c-.162,0-.754.406,0,1.543C287.35,259.382,286.758,258.98,286.6,258.98Z" transform="translate(-190.98 -216.496)"/>
                  <path id="Trazado_776770" data-name="Trazado 776770" d="M262.6,270.98c-.162,0-.754.406,0,1.543C263.35,271.382,262.758,270.98,262.6,270.98Z" transform="translate(-176.449 -223.762)"/>
                  <path id="Trazado_776771" data-name="Trazado 776771" d="M310.6,270.98c-.162,0-.754.406,0,1.543C311.35,271.382,310.758,270.98,310.6,270.98Z" transform="translate(-205.511 -223.762)"/>
                  <path id="Trazado_776772" data-name="Trazado 776772" d="M262.6,246.98c-.162,0-.754.406,0,1.543C263.35,247.382,262.758,246.98,262.6,246.98Z" transform="translate(-176.449 -209.231)"/>
                  <path id="Trazado_776773" data-name="Trazado 776773" d="M310.6,246.98c-.162,0-.754.406,0,1.543C311.35,247.382,310.758,246.98,310.6,246.98Z" transform="translate(-205.511 -209.231)"/>
                  <path id="Trazado_776774" data-name="Trazado 776774" d="M240.21,286.072c1.365.079,1.416-.635,1.334-.777S240.814,284.849,240.21,286.072Z" transform="translate(-163.121 -232.344)"/>
                  <path id="Trazado_776775" data-name="Trazado 776775" d="M288.4,285.943c.047.047.095.1.146.146,1.148-.008,1.191-.651,1.113-.781s-.675-.418-1.259.635Z" transform="translate(-192.299 -232.353)"/>
                  <path id="Trazado_776776" data-name="Trazado 776776" d="M241.238,309.158a.7.7,0,0,0-.473.166,1.375,1.375,0,0,0-.221.213,2.247,2.247,0,0,0-.213.3.083.083,0,0,1-.016.024c-.039.063-.075.134-.114.213a1.654,1.654,0,0,0,1.128-.233h0a.71.71,0,0,0,.079-.071.617.617,0,0,0,.1-.142.412.412,0,0,0,.028-.327.394.394,0,0,0-.3-.138Z" transform="translate(-163.115 -246.877)"/>
                  <path id="Trazado_776777" data-name="Trazado 776777" d="M312.21,298.072c1.365.079,1.416-.635,1.334-.777S312.814,296.849,312.21,298.072Z" transform="translate(-206.715 -239.61)"/>
                  <path id="Trazado_776778" data-name="Trazado 776778" d="M240.21,262.072c1.365.079,1.416-.635,1.334-.777S240.814,260.849,240.21,262.072Z" transform="translate(-163.121 -217.813)"/>
                  <path id="Trazado_776779" data-name="Trazado 776779" d="M289.534,261.3c-.083-.142-.73-.446-1.334.777C289.565,262.151,289.616,261.437,289.534,261.3Z" transform="translate(-192.177 -217.813)"/>
                  <path id="Trazado_776780" data-name="Trazado 776780" d="M264.2,274.6a3.3,3.3,0,0,0,.343,0c.012-.2.02-.387.028-.576a2.646,2.646,0,0,0-.375.576Z" transform="translate(-177.646 -225.602)"/>
                  <path id="Trazado_776781" data-name="Trazado 776781" d="M312.21,274.072c1.365.079,1.416-.635,1.334-.777S312.814,272.849,312.21,274.072Z" transform="translate(-206.715 -225.079)"/>
                  <path id="Trazado_776782" data-name="Trazado 776782" d="M264.21,250.072c1.365.079,1.416-.635,1.334-.777S264.814,248.849,264.21,250.072Z" transform="translate(-177.652 -210.548)"/>
                  <path id="Trazado_776783" data-name="Trazado 776783" d="M312.21,250.072c1.365.079,1.416-.635,1.334-.777S312.814,248.849,312.21,250.072Z" transform="translate(-206.715 -210.548)"/>
                  <path id="Trazado_776784" data-name="Trazado 776784" d="M259.425,298.05c.071-.193.142-.387.217-.588-.458-.473-.856-.268-.919-.162s-.043.612.706.75Z" transform="translate(-174.315 -239.615)"/>
                  <path id="Trazado_776785" data-name="Trazado 776785" d="M330.712,285.291a.5.5,0,0,0,.264.584c.079-.229.154-.466.221-.706a.462.462,0,0,0-.485.118Z" transform="translate(-217.902 -232.34)"/>
                  <path id="Trazado_776786" data-name="Trazado 776786" d="M306.712,297.293c-.083.142-.032.856,1.334.777C307.442,296.844,306.795,297.151,306.712,297.293Z" transform="translate(-203.371 -239.608)"/>
                  <path id="Trazado_776787" data-name="Trazado 776787" d="M282.712,261.293c-.083.142-.032.856,1.334.777C283.442,260.844,282.795,261.151,282.712,261.293Z" transform="translate(-188.84 -217.811)"/>
                  <path id="Trazado_776788" data-name="Trazado 776788" d="M258.712,273.293c-.083.142-.032.856,1.334.777C259.442,272.844,258.795,273.151,258.712,273.293Z" transform="translate(-174.308 -225.077)"/>
                  <path id="Trazado_776789" data-name="Trazado 776789" d="M306.712,273.293c-.083.142-.032.856,1.334.777C307.442,272.844,306.795,273.151,306.712,273.293Z" transform="translate(-203.371 -225.077)"/>
                  <path id="Trazado_776790" data-name="Trazado 776790" d="M258.712,249.293c-.083.142-.032.856,1.334.777C259.442,248.844,258.795,249.151,258.712,249.293Z" transform="translate(-174.308 -210.546)"/>
                  <path id="Trazado_776791" data-name="Trazado 776791" d="M306.712,249.293c-.083.142-.032.856,1.334.777C307.442,248.844,306.795,249.151,306.712,249.293Z" transform="translate(-203.371 -210.546)"/>
                  <path id="Trazado_776792" data-name="Trazado 776792" d="M289.344,237.842h0a.494.494,0,0,0,.205-.544c-.075-.13-.639-.4-1.2.544h0a2.569,2.569,0,0,0-.126.233,1.653,1.653,0,0,0,1.128-.233Z" transform="translate(-192.19 -203.284)"/>
                  <path id="Trazado_776793" data-name="Trazado 776793" d="M241.338,237.842h0a.494.494,0,0,0,.205-.544c-.075-.13-.643-.4-1.207.544h0a2.565,2.565,0,0,0-.126.233A1.653,1.653,0,0,0,241.338,237.842Z" transform="translate(-163.121 -203.284)"/>
                  <path id="Trazado_776794" data-name="Trazado 776794" d="M238.6,354.98c-.162,0-.754.406,0,1.543C239.35,355.382,238.758,354.98,238.6,354.98Z" transform="translate(-161.918 -274.621)"/>
                  <path id="Trazado_776795" data-name="Trazado 776795" d="M238.6,378.98c-.162,0-.754.406,0,1.543C239.35,379.382,238.758,378.98,238.6,378.98Z" transform="translate(-161.918 -289.152)"/>
                  <path id="Trazado_776796" data-name="Trazado 776796" d="M262.6,366.98c-.162,0-.754.406,0,1.543C263.35,367.382,262.758,366.98,262.6,366.98Z" transform="translate(-176.449 -281.886)"/>
                  <path id="Trazado_776797" data-name="Trazado 776797" d="M238.6,330.98c-.162,0-.754.406,0,1.543C239.35,331.382,238.758,330.98,238.6,330.98Z" transform="translate(-161.918 -260.089)"/>
                  <path id="Trazado_776798" data-name="Trazado 776798" d="M262.6,342.98c-.162,0-.754.406,0,1.543C263.35,343.382,262.758,342.98,262.6,342.98Z" transform="translate(-176.449 -267.355)"/>
                  <path id="Trazado_776799" data-name="Trazado 776799" d="M240.21,358.072c1.365.079,1.416-.635,1.334-.777S240.814,356.849,240.21,358.072Z" transform="translate(-163.121 -275.938)"/>
                  <path id="Trazado_776800" data-name="Trazado 776800" d="M241.238,381.16h-.083a.723.723,0,0,0-.288.095.835.835,0,0,0-.107.071,1.89,1.89,0,0,0-.434.517h0a2.575,2.575,0,0,0-.126.233,1.653,1.653,0,0,0,1.128-.233h0a.494.494,0,0,0,.205-.544.394.394,0,0,0-.3-.138Z" transform="translate(-163.115 -290.472)"/>
                  <path id="Trazado_776801" data-name="Trazado 776801" d="M264.21,370.072c1.365.079,1.416-.635,1.334-.777S264.814,368.849,264.21,370.072Z" transform="translate(-177.652 -283.203)"/>
                  <path id="Trazado_776802" data-name="Trazado 776802" d="M240.21,334.072c1.365.079,1.416-.635,1.334-.777S240.814,332.849,240.21,334.072Z" transform="translate(-163.121 -261.406)"/>
                  <path id="Trazado_776803" data-name="Trazado 776803" d="M264.21,346.072c1.365.079,1.416-.635,1.334-.777S264.814,344.849,264.21,346.072Z" transform="translate(-177.652 -268.672)"/>
                  <path id="Trazado_776804" data-name="Trazado 776804" d="M258.712,369.293c-.083.142-.032.856,1.334.777C259.442,368.844,258.795,369.151,258.712,369.293Z" transform="translate(-174.308 -283.201)"/>
                  <path id="Trazado_776805" data-name="Trazado 776805" d="M258.712,345.293c-.083.142-.032.856,1.334.777C259.442,344.844,258.795,345.151,258.712,345.293Z" transform="translate(-174.308 -268.67)"/>
                  <path id="Trazado_776806" data-name="Trazado 776806" d="M262.6,390.98c-.162,0-.754.406,0,1.543C263.35,391.382,262.758,390.98,262.6,390.98Z" transform="translate(-176.449 -296.417)"/>
                  <path id="Trazado_776807" data-name="Trazado 776807" d="M264.21,394.072c1.365.079,1.416-.635,1.334-.777S264.814,392.849,264.21,394.072Z" transform="translate(-177.652 -297.734)"/>
                  <path id="Trazado_776808" data-name="Trazado 776808" d="M258.712,393.293c-.083.142-.032.856,1.334.777C259.442,392.844,258.795,393.151,258.712,393.293Z" transform="translate(-174.308 -297.732)"/>
                  <path id="Trazado_776809" data-name="Trazado 776809" d="M190.6,162.98c-.162,0-.754.406,0,1.543C191.35,163.382,190.758,162.98,190.6,162.98Z" transform="translate(-132.856 -158.372)"/>
                  <path id="Trazado_776810" data-name="Trazado 776810" d="M167.74,151.3c.016.213.036.513.055.88A.823.823,0,0,0,167.74,151.3Z" transform="translate(-119.243 -151.3)"/>
                  <path id="Trazado_776811" data-name="Trazado 776811" d="M193.238,165.158a.7.7,0,0,0-.473.166,1.374,1.374,0,0,0-.221.213,2.246,2.246,0,0,0-.213.3.083.083,0,0,1-.016.024c-.039.063-.075.134-.114.213a1.654,1.654,0,0,0,1.128-.233h0a.71.71,0,0,0,.079-.071.616.616,0,0,0,.1-.142.412.412,0,0,0,.028-.327.394.394,0,0,0-.3-.138Z" transform="translate(-134.053 -159.69)"/>
                  <path id="Trazado_776812" data-name="Trazado 776812" d="M168.21,154.072c1.365.079,1.416-.635,1.334-.777S168.814,152.849,168.21,154.072Z" transform="translate(-119.528 -152.423)"/>
                  <path id="Trazado_776813" data-name="Trazado 776813" d="M142.967,211.43a.724.724,0,0,0-.051-.178h0a.573.573,0,0,0-.039-.071h0a.468.468,0,0,0-.091-.1h0a.369.369,0,0,0-.095-.059h0a.168.168,0,0,0-.158,0c-.181.079-.481.41-.146,1.132a3.038,3.038,0,0,0,.225.395,3.252,3.252,0,0,0,.225-.395,1.38,1.38,0,0,0,.15-.6.485.485,0,0,0-.008-.11h0Z" transform="translate(-103.802 -187.446)"/>
                  <path id="Trazado_776814" data-name="Trazado 776814" d="M190.6,210.98c-.162,0-.754.406,0,1.543C191.35,211.382,190.758,210.98,190.6,210.98Z" transform="translate(-132.856 -187.434)"/>
                  <path id="Trazado_776815" data-name="Trazado 776815" d="M190.6,234.98c-.162,0-.754.406,0,1.543C191.35,235.382,190.758,234.98,190.6,234.98Z" transform="translate(-132.856 -201.965)"/>
                  <path id="Trazado_776816" data-name="Trazado 776816" d="M142.967,235.43a.724.724,0,0,0-.051-.178h0a.573.573,0,0,0-.039-.071h0a.468.468,0,0,0-.091-.1h0a.368.368,0,0,0-.095-.059h0a.168.168,0,0,0-.158,0c-.181.079-.481.41-.146,1.132a3.039,3.039,0,0,0,.225.395,3.254,3.254,0,0,0,.225-.395,1.38,1.38,0,0,0,.15-.6.484.484,0,0,0-.008-.11h0Z" transform="translate(-103.802 -201.977)"/>
                  <path id="Trazado_776817" data-name="Trazado 776817" d="M166.6,222.98c-.162,0-.754.406,0,1.543C167.35,223.382,166.758,222.98,166.6,222.98Z" transform="translate(-118.325 -194.7)"/>
                  <path id="Trazado_776818" data-name="Trazado 776818" d="M214.6,222.98c-.162,0-.754.406,0,1.543C215.35,223.382,214.758,222.98,214.6,222.98Z" transform="translate(-147.387 -194.7)"/>
                  <path id="Trazado_776819" data-name="Trazado 776819" d="M190.6,186.98c-.162,0-.754.406,0,1.543C191.35,187.382,190.758,186.98,190.6,186.98Z" transform="translate(-132.856 -172.903)"/>
                  <path id="Trazado_776820" data-name="Trazado 776820" d="M166.6,198.98c-.162,0-.754.406,0,1.543C167.35,199.382,166.758,198.98,166.6,198.98Z" transform="translate(-118.325 -180.168)"/>
                  <path id="Trazado_776821" data-name="Trazado 776821" d="M214.6,198.98c-.162,0-.754.406,0,1.543C215.35,199.382,214.758,198.98,214.6,198.98Z" transform="translate(-147.387 -180.168)"/>
                  <path id="Trazado_776822" data-name="Trazado 776822" d="M144.21,214.072c1.365.079,1.416-.635,1.334-.777S144.814,212.849,144.21,214.072Z" transform="translate(-104.997 -188.751)"/>
                  <path id="Trazado_776823" data-name="Trazado 776823" d="M192.21,214.072c1.365.079,1.416-.635,1.334-.777S192.814,212.849,192.21,214.072Z" transform="translate(-134.059 -188.751)"/>
                  <path id="Trazado_776824" data-name="Trazado 776824" d="M168.21,226.072c1.365.079,1.416-.635,1.334-.777S168.814,224.849,168.21,226.072Z" transform="translate(-119.528 -196.016)"/>
                  <path id="Trazado_776825" data-name="Trazado 776825" d="M216.21,226.072c1.365.079,1.416-.635,1.334-.777S216.814,224.849,216.21,226.072Z" transform="translate(-148.59 -196.016)"/>
                  <path id="Trazado_776826" data-name="Trazado 776826" d="M192.21,190.072c1.365.079,1.416-.635,1.334-.777S192.814,188.849,192.21,190.072Z" transform="translate(-134.059 -174.22)"/>
                  <path id="Trazado_776827" data-name="Trazado 776827" d="M168.21,202.072c1.365.079,1.416-.635,1.334-.777S168.814,200.849,168.21,202.072Z" transform="translate(-119.528 -181.485)"/>
                  <path id="Trazado_776828" data-name="Trazado 776828" d="M216.21,202.072c1.365.079,1.416-.635,1.334-.777S216.814,200.849,216.21,202.072Z" transform="translate(-148.59 -181.485)"/>
                  <path id="Trazado_776829" data-name="Trazado 776829" d="M169.691,177.294c-.079-.134-.655-.41-1.223.572,0,.071-.008.138-.008.205,1.263.036,1.314-.643,1.235-.781Z" transform="translate(-119.679 -166.954)"/>
                  <path id="Trazado_776830" data-name="Trazado 776830" d="M186.712,213.293c-.083.142-.032.856,1.334.777C187.442,212.844,186.795,213.151,186.712,213.293Z" transform="translate(-130.715 -188.749)"/>
                  <path id="Trazado_776831" data-name="Trazado 776831" d="M186.712,237.3a.482.482,0,0,0,.205.544h0a1.631,1.631,0,0,0,1.128.233c-.043-.087-.087-.162-.126-.233C187.355,236.9,186.79,237.167,186.712,237.3Z" transform="translate(-130.715 -203.284)"/>
                  <path id="Trazado_776832" data-name="Trazado 776832" d="M162.712,225.293c-.083.142-.032.856,1.334.777C163.442,224.844,162.795,225.151,162.712,225.293Z" transform="translate(-116.184 -196.015)"/>
                  <path id="Trazado_776833" data-name="Trazado 776833" d="M234.712,213.293c-.083.142-.032.856,1.334.777C235.442,212.844,234.795,213.151,234.712,213.293Z" transform="translate(-159.777 -188.749)"/>
                  <path id="Trazado_776834" data-name="Trazado 776834" d="M235.919,237.842c-.564-.947-1.128-.675-1.207-.544a.482.482,0,0,0,.205.544h0a1.631,1.631,0,0,0,1.128.233c-.043-.087-.087-.162-.126-.233Z" transform="translate(-159.777 -203.284)"/>
                  <path id="Trazado_776835" data-name="Trazado 776835" d="M210.712,225.293c-.083.142-.032.856,1.334.777C211.442,224.844,210.795,225.151,210.712,225.293Z" transform="translate(-145.246 -196.015)"/>
                  <path id="Trazado_776836" data-name="Trazado 776836" d="M186.712,189.293c-.083.142-.032.856,1.334.777C187.442,188.844,186.795,189.151,186.712,189.293Z" transform="translate(-130.715 -174.218)"/>
                  <path id="Trazado_776837" data-name="Trazado 776837" d="M162.712,201.293c-.083.142-.032.856,1.334.777C163.442,200.844,162.795,201.151,162.712,201.293Z" transform="translate(-116.184 -181.484)"/>
                  <path id="Trazado_776838" data-name="Trazado 776838" d="M210.712,201.293c-.083.142-.032.856,1.334.777C211.442,200.844,210.795,201.151,210.712,201.293Z" transform="translate(-145.246 -181.484)"/>
                  <path id="Trazado_776839" data-name="Trazado 776839" d="M211.3,178.025c-.036-.11-.071-.217-.1-.331-.043-.166-.087-.343-.126-.525a.43.43,0,0,0-.363.138c-.063.11-.043.556.588.722Z" transform="translate(-145.248 -166.963)"/>
                  <path id="Trazado_776840" data-name="Trazado 776840" d="M187.919,165.841a2.248,2.248,0,0,0-.213-.3,1.374,1.374,0,0,0-.221-.213.718.718,0,0,0-.473-.166.408.408,0,0,0-.3.138.381.381,0,0,0,.028.327.617.617,0,0,0,.1.142c.024.024.051.047.079.071h0a1.632,1.632,0,0,0,1.128.233c-.039-.075-.075-.146-.114-.213a.083.083,0,0,0-.016-.024Z" transform="translate(-130.715 -159.69)"/>
                  <path id="Trazado_776841" data-name="Trazado 776841" d="M142.967,283.43a.724.724,0,0,0-.051-.178h0a.569.569,0,0,0-.039-.071h0a.467.467,0,0,0-.091-.1h0a.367.367,0,0,0-.095-.059h0a.168.168,0,0,0-.158,0c-.181.079-.481.41-.146,1.132a3.039,3.039,0,0,0,.225.395,3.254,3.254,0,0,0,.225-.395,1.38,1.38,0,0,0,.15-.6.484.484,0,0,0-.008-.11h0Z" transform="translate(-103.802 -231.039)"/>
                  <path id="Trazado_776842" data-name="Trazado 776842" d="M190.6,282.98c-.162,0-.754.406,0,1.543C191.35,283.382,190.758,282.98,190.6,282.98Z" transform="translate(-132.856 -231.027)"/>
                  <path id="Trazado_776843" data-name="Trazado 776843" d="M190.6,306.98c-.162,0-.754.406,0,1.543C191.35,307.382,190.758,306.98,190.6,306.98Z" transform="translate(-132.856 -245.558)"/>
                  <path id="Trazado_776844" data-name="Trazado 776844" d="M142.967,307.43a.724.724,0,0,0-.051-.178h0a.576.576,0,0,0-.039-.071h0a.468.468,0,0,0-.091-.1h0a.368.368,0,0,0-.095-.059h0a.168.168,0,0,0-.158,0c-.181.079-.481.41-.146,1.132a3.037,3.037,0,0,0,.225.395,3.249,3.249,0,0,0,.225-.395,1.38,1.38,0,0,0,.15-.6.5.5,0,0,0-.008-.11h0Z" transform="translate(-103.802 -245.57)"/>
                  <path id="Trazado_776845" data-name="Trazado 776845" d="M166.6,294.98c-.162,0-.754.406,0,1.543C167.35,295.382,166.758,294.98,166.6,294.98Z" transform="translate(-118.325 -238.293)"/>
                  <path id="Trazado_776846" data-name="Trazado 776846" d="M214.6,294.98c-.162,0-.754.406,0,1.543C215.35,295.382,214.758,294.98,214.6,294.98Z" transform="translate(-147.387 -238.293)"/>
                  <path id="Trazado_776847" data-name="Trazado 776847" d="M142.967,259.43a.724.724,0,0,0-.051-.178h0a.574.574,0,0,0-.039-.071h0a.467.467,0,0,0-.091-.1h0a.367.367,0,0,0-.095-.059h0a.168.168,0,0,0-.158,0c-.181.079-.481.41-.146,1.132a3.041,3.041,0,0,0,.225.395,3.254,3.254,0,0,0,.225-.395,1.38,1.38,0,0,0,.15-.6.484.484,0,0,0-.008-.11h0Z" transform="translate(-103.802 -216.508)"/>
                  <path id="Trazado_776848" data-name="Trazado 776848" d="M190.6,258.98c-.162,0-.754.406,0,1.543C191.35,259.382,190.758,258.98,190.6,258.98Z" transform="translate(-132.856 -216.496)"/>
                  <path id="Trazado_776849" data-name="Trazado 776849" d="M166.6,270.98c-.162,0-.754.406,0,1.543C167.35,271.382,166.758,270.98,166.6,270.98Z" transform="translate(-118.325 -223.762)"/>
                  <path id="Trazado_776850" data-name="Trazado 776850" d="M214.6,270.98c-.162,0-.754.406,0,1.543C215.35,271.382,214.758,270.98,214.6,270.98Z" transform="translate(-147.387 -223.762)"/>
                  <path id="Trazado_776851" data-name="Trazado 776851" d="M166.6,246.98c-.162,0-.754.406,0,1.543C167.35,247.382,166.758,246.98,166.6,246.98Z" transform="translate(-118.325 -209.231)"/>
                  <path id="Trazado_776852" data-name="Trazado 776852" d="M214.6,246.98c-.162,0-.754.406,0,1.543C215.35,247.382,214.758,246.98,214.6,246.98Z" transform="translate(-147.387 -209.231)"/>
                  <path id="Trazado_776853" data-name="Trazado 776853" d="M144.21,286.072c1.365.079,1.416-.635,1.334-.777S144.814,284.849,144.21,286.072Z" transform="translate(-104.997 -232.344)"/>
                  <path id="Trazado_776854" data-name="Trazado 776854" d="M192.21,286.072c1.365.079,1.416-.635,1.334-.777S192.814,284.849,192.21,286.072Z" transform="translate(-134.059 -232.344)"/>
                  <path id="Trazado_776855" data-name="Trazado 776855" d="M193.238,309.158a.7.7,0,0,0-.473.166,1.374,1.374,0,0,0-.221.213,2.247,2.247,0,0,0-.213.3.083.083,0,0,1-.016.024c-.039.063-.075.134-.114.213a1.654,1.654,0,0,0,1.128-.233h0a.71.71,0,0,0,.079-.071.617.617,0,0,0,.1-.142.412.412,0,0,0,.028-.327.394.394,0,0,0-.3-.138Z" transform="translate(-134.053 -246.877)"/>
                  <path id="Trazado_776856" data-name="Trazado 776856" d="M145.238,309.158a.7.7,0,0,0-.473.166,1.374,1.374,0,0,0-.221.213,2.247,2.247,0,0,0-.213.3.083.083,0,0,1-.016.024c-.039.063-.075.134-.114.213a1.654,1.654,0,0,0,1.128-.233h0a.712.712,0,0,0,.079-.071.617.617,0,0,0,.1-.142.412.412,0,0,0,.028-.327.394.394,0,0,0-.3-.138Z" transform="translate(-104.991 -246.877)"/>
                  <path id="Trazado_776857" data-name="Trazado 776857" d="M168.21,298.072c1.365.079,1.416-.635,1.334-.777S168.814,296.849,168.21,298.072Z" transform="translate(-119.528 -239.61)"/>
                  <path id="Trazado_776858" data-name="Trazado 776858" d="M216.21,298.072c1.365.079,1.416-.635,1.334-.777S216.814,296.849,216.21,298.072Z" transform="translate(-148.59 -239.61)"/>
                  <path id="Trazado_776859" data-name="Trazado 776859" d="M144.21,262.072c1.365.079,1.416-.635,1.334-.777S144.814,260.849,144.21,262.072Z" transform="translate(-104.997 -217.813)"/>
                  <path id="Trazado_776860" data-name="Trazado 776860" d="M192.21,262.072c1.365.079,1.416-.635,1.334-.777S192.814,260.849,192.21,262.072Z" transform="translate(-134.059 -217.813)"/>
                  <path id="Trazado_776861" data-name="Trazado 776861" d="M168.21,274.072c1.365.079,1.416-.635,1.334-.777S168.814,272.849,168.21,274.072Z" transform="translate(-119.528 -225.079)"/>
                  <path id="Trazado_776862" data-name="Trazado 776862" d="M216.21,274.072c1.365.079,1.416-.635,1.334-.777S216.814,272.849,216.21,274.072Z" transform="translate(-148.59 -225.079)"/>
                  <path id="Trazado_776863" data-name="Trazado 776863" d="M168.21,250.072c1.365.079,1.416-.635,1.334-.777S168.814,248.849,168.21,250.072Z" transform="translate(-119.528 -210.548)"/>
                  <path id="Trazado_776864" data-name="Trazado 776864" d="M216.21,250.072c1.365.079,1.416-.635,1.334-.777S216.814,248.849,216.21,250.072Z" transform="translate(-148.59 -210.548)"/>
                  <path id="Trazado_776865" data-name="Trazado 776865" d="M186.712,285.293c-.083.142-.032.856,1.334.777C187.442,284.844,186.795,285.151,186.712,285.293Z" transform="translate(-130.715 -232.343)"/>
                  <path id="Trazado_776866" data-name="Trazado 776866" d="M162.712,297.293c-.083.142-.032.856,1.334.777C163.442,296.844,162.795,297.151,162.712,297.293Z" transform="translate(-116.184 -239.608)"/>
                  <path id="Trazado_776867" data-name="Trazado 776867" d="M234.712,285.293c-.083.142-.032.856,1.334.777C235.442,284.844,234.795,285.151,234.712,285.293Z" transform="translate(-159.777 -232.343)"/>
                  <path id="Trazado_776868" data-name="Trazado 776868" d="M210.712,297.293c-.083.142-.032.856,1.334.777C211.442,296.844,210.795,297.151,210.712,297.293Z" transform="translate(-145.246 -239.608)"/>
                  <path id="Trazado_776869" data-name="Trazado 776869" d="M148.83,293.352s10.258,2.632,23.148-7.366,17.884-6.048,17.36,1.053-11.572,13.679-16.306,14.468c-7.784,1.3-14.728,3.421-24.2-8.155Z" transform="translate(-107.794 -229.204)"/>
                  <path id="Trazado_776870" data-name="Trazado 776870" d="M186.712,261.293c-.083.142-.032.856,1.334.777C187.442,260.844,186.795,261.151,186.712,261.293Z" transform="translate(-130.715 -217.811)"/>
                  <path id="Trazado_776871" data-name="Trazado 776871" d="M162.712,273.293c-.083.142-.032.856,1.334.777C163.442,272.844,162.795,273.151,162.712,273.293Z" transform="translate(-116.184 -225.077)"/>
                  <path id="Trazado_776872" data-name="Trazado 776872" d="M234.712,261.293c-.083.142-.032.856,1.334.777C235.442,260.844,234.795,261.151,234.712,261.293Z" transform="translate(-159.777 -217.811)"/>
                  <path id="Trazado_776873" data-name="Trazado 776873" d="M210.712,273.293c-.083.142-.032.856,1.334.777C211.442,272.844,210.795,273.151,210.712,273.293Z" transform="translate(-145.246 -225.077)"/>
                  <path id="Trazado_776874" data-name="Trazado 776874" d="M162.712,249.293c-.083.142-.032.856,1.334.777C163.442,248.844,162.795,249.151,162.712,249.293Z" transform="translate(-116.184 -210.546)"/>
                  <path id="Trazado_776875" data-name="Trazado 776875" d="M210.712,249.293c-.083.142-.032.856,1.334.777C211.442,248.844,210.795,249.151,210.712,249.293Z" transform="translate(-145.246 -210.546)"/>
                  <path id="Trazado_776876" data-name="Trazado 776876" d="M193.338,237.842h0a.494.494,0,0,0,.205-.544c-.075-.13-.639-.4-1.207.544h0a2.565,2.565,0,0,0-.126.233A1.653,1.653,0,0,0,193.338,237.842Z" transform="translate(-134.059 -203.284)"/>
                  <path id="Trazado_776877" data-name="Trazado 776877" d="M145.338,237.842h0a.494.494,0,0,0,.205-.544c-.075-.13-.643-.4-1.207.544h0a2.569,2.569,0,0,0-.126.233A1.653,1.653,0,0,0,145.338,237.842Z" transform="translate(-104.997 -203.284)"/>
                  <path id="Trazado_776878" data-name="Trazado 776878" d="M142.967,355.43a.724.724,0,0,0-.051-.178h0a.579.579,0,0,0-.039-.071h0a.468.468,0,0,0-.091-.1h0a.367.367,0,0,0-.095-.059h0a.168.168,0,0,0-.158,0c-.181.079-.481.41-.146,1.132a3.031,3.031,0,0,0,.225.395,3.247,3.247,0,0,0,.225-.395,1.38,1.38,0,0,0,.15-.6.5.5,0,0,0-.008-.11h0Z" transform="translate(-103.802 -274.633)"/>
                  <path id="Trazado_776879" data-name="Trazado 776879" d="M190.6,354.98c-.162,0-.754.406,0,1.543C191.35,355.382,190.758,354.98,190.6,354.98Z" transform="translate(-132.856 -274.621)"/>
                  <path id="Trazado_776880" data-name="Trazado 776880" d="M190.6,378.98c-.162,0-.754.406,0,1.543C191.35,379.382,190.758,378.98,190.6,378.98Z" transform="translate(-132.856 -289.152)"/>
                  <path id="Trazado_776881" data-name="Trazado 776881" d="M142.967,379.43a.724.724,0,0,0-.051-.178h0a.574.574,0,0,0-.039-.071h0a.468.468,0,0,0-.091-.1h0a.367.367,0,0,0-.095-.059h0a.168.168,0,0,0-.158,0c-.181.079-.481.41-.146,1.132a3.041,3.041,0,0,0,.225.395,3.254,3.254,0,0,0,.225-.395,1.38,1.38,0,0,0,.15-.6.5.5,0,0,0-.008-.11h0Z" transform="translate(-103.802 -289.164)"/>
                  <path id="Trazado_776882" data-name="Trazado 776882" d="M166.6,366.98c-.162,0-.754.406,0,1.543C167.35,367.382,166.758,366.98,166.6,366.98Z" transform="translate(-118.325 -281.886)"/>
                  <path id="Trazado_776883" data-name="Trazado 776883" d="M214.6,366.98c-.162,0-.754.406,0,1.543C215.35,367.382,214.758,366.98,214.6,366.98Z" transform="translate(-147.387 -281.886)"/>
                  <path id="Trazado_776884" data-name="Trazado 776884" d="M142.967,331.43a.724.724,0,0,0-.051-.178h0a.574.574,0,0,0-.039-.071h0a.468.468,0,0,0-.091-.1h0a.367.367,0,0,0-.095-.059h0a.168.168,0,0,0-.158,0c-.181.079-.481.41-.146,1.132a3.041,3.041,0,0,0,.225.395,3.254,3.254,0,0,0,.225-.395,1.38,1.38,0,0,0,.15-.6.5.5,0,0,0-.008-.11h0Z" transform="translate(-103.802 -260.102)"/>
                  <path id="Trazado_776885" data-name="Trazado 776885" d="M190.6,330.98c-.162,0-.754.406,0,1.543C191.35,331.382,190.758,330.98,190.6,330.98Z" transform="translate(-132.856 -260.089)"/>
                  <path id="Trazado_776886" data-name="Trazado 776886" d="M166.6,342.98c-.162,0-.754.406,0,1.543C167.35,343.382,166.758,342.98,166.6,342.98Z" transform="translate(-118.325 -267.355)"/>
                  <path id="Trazado_776887" data-name="Trazado 776887" d="M214.6,342.98c-.162,0-.754.406,0,1.543C215.35,343.382,214.758,342.98,214.6,342.98Z" transform="translate(-147.387 -267.355)"/>
                  <path id="Trazado_776888" data-name="Trazado 776888" d="M166.6,318.98c-.162,0-.754.406,0,1.543C167.35,319.382,166.758,318.98,166.6,318.98Z" transform="translate(-118.325 -252.824)"/>
                  <path id="Trazado_776889" data-name="Trazado 776889" d="M214.6,318.98c-.162,0-.754.406,0,1.543C215.35,319.382,214.758,318.98,214.6,318.98Z" transform="translate(-147.387 -252.824)"/>
                  <path id="Trazado_776890" data-name="Trazado 776890" d="M144.21,358.072c1.365.079,1.416-.635,1.334-.777S144.814,356.849,144.21,358.072Z" transform="translate(-104.997 -275.938)"/>
                  <path id="Trazado_776891" data-name="Trazado 776891" d="M192.21,358.072c1.365.079,1.416-.635,1.334-.777S192.814,356.849,192.21,358.072Z" transform="translate(-134.059 -275.938)"/>
                  <path id="Trazado_776892" data-name="Trazado 776892" d="M193.238,381.16h-.083a.723.723,0,0,0-.288.095.835.835,0,0,0-.107.071,1.89,1.89,0,0,0-.434.517h0a2.575,2.575,0,0,0-.126.233,1.653,1.653,0,0,0,1.128-.233h0a.494.494,0,0,0,.205-.544.394.394,0,0,0-.3-.138Z" transform="translate(-134.053 -290.472)"/>
                  <path id="Trazado_776893" data-name="Trazado 776893" d="M145.238,381.16h-.083a.723.723,0,0,0-.288.095.835.835,0,0,0-.107.071,1.89,1.89,0,0,0-.434.517h0a2.571,2.571,0,0,0-.126.233,1.653,1.653,0,0,0,1.128-.233h0a.494.494,0,0,0,.205-.544.394.394,0,0,0-.3-.138Z" transform="translate(-104.991 -290.472)"/>
                  <path id="Trazado_776894" data-name="Trazado 776894" d="M168.21,370.072c1.365.079,1.416-.635,1.334-.777S168.814,368.849,168.21,370.072Z" transform="translate(-119.528 -283.203)"/>
                  <path id="Trazado_776895" data-name="Trazado 776895" d="M216.21,370.072c1.365.079,1.416-.635,1.334-.777S216.814,368.849,216.21,370.072Z" transform="translate(-148.59 -283.203)"/>
                  <path id="Trazado_776896" data-name="Trazado 776896" d="M144.21,334.072c1.365.079,1.416-.635,1.334-.777S144.814,332.849,144.21,334.072Z" transform="translate(-104.997 -261.406)"/>
                  <path id="Trazado_776897" data-name="Trazado 776897" d="M192.21,334.072c1.365.079,1.416-.635,1.334-.777S192.814,332.849,192.21,334.072Z" transform="translate(-134.059 -261.406)"/>
                  <path id="Trazado_776898" data-name="Trazado 776898" d="M168.21,346.072c1.365.079,1.416-.635,1.334-.777S168.814,344.849,168.21,346.072Z" transform="translate(-119.528 -268.672)"/>
                  <path id="Trazado_776899" data-name="Trazado 776899" d="M216.21,346.072c1.365.079,1.416-.635,1.334-.777S216.814,344.849,216.21,346.072Z" transform="translate(-148.59 -268.672)"/>
                  <path id="Trazado_776900" data-name="Trazado 776900" d="M168.21,322.072c1.365.079,1.416-.635,1.334-.777S168.814,320.849,168.21,322.072Z" transform="translate(-119.528 -254.141)"/>
                  <path id="Trazado_776901" data-name="Trazado 776901" d="M216.21,322.072c1.365.079,1.416-.635,1.334-.777S216.814,320.849,216.21,322.072Z" transform="translate(-148.59 -254.141)"/>
                  <path id="Trazado_776902" data-name="Trazado 776902" d="M186.712,357.293c-.083.142-.032.856,1.334.777C187.442,356.844,186.795,357.151,186.712,357.293Z" transform="translate(-130.715 -275.936)"/>
                  <path id="Trazado_776903" data-name="Trazado 776903" d="M187.479,381.326a.829.829,0,0,0-.107-.071.7.7,0,0,0-.288-.095H187a.408.408,0,0,0-.3.138.482.482,0,0,0,.205.544h0a1.631,1.631,0,0,0,1.128.233c-.043-.087-.087-.162-.126-.233a1.768,1.768,0,0,0-.434-.517Z" transform="translate(-130.709 -290.472)"/>
                  <path id="Trazado_776904" data-name="Trazado 776904" d="M162.712,369.293c-.083.142-.032.856,1.334.777C163.442,368.844,162.795,369.151,162.712,369.293Z" transform="translate(-116.184 -283.201)"/>
                  <path id="Trazado_776905" data-name="Trazado 776905" d="M234.712,357.293c-.083.142-.032.856,1.334.777C235.442,356.844,234.795,357.151,234.712,357.293Z" transform="translate(-159.777 -275.936)"/>
                  <path id="Trazado_776906" data-name="Trazado 776906" d="M235.913,381.843a1.71,1.71,0,0,0-.434-.517.834.834,0,0,0-.107-.071.7.7,0,0,0-.288-.095H235a.408.408,0,0,0-.3.138.482.482,0,0,0,.205.544h0a1.631,1.631,0,0,0,1.128.233c-.043-.087-.087-.162-.126-.233h0Z" transform="translate(-159.771 -290.472)"/>
                  <path id="Trazado_776907" data-name="Trazado 776907" d="M210.712,369.293c-.083.142-.032.856,1.334.777C211.442,368.844,210.795,369.151,210.712,369.293Z" transform="translate(-145.246 -283.201)"/>
                  <path id="Trazado_776908" data-name="Trazado 776908" d="M186.712,333.293c-.083.142-.032.856,1.334.777C187.442,332.844,186.795,333.151,186.712,333.293Z" transform="translate(-130.715 -261.405)"/>
                  <path id="Trazado_776909" data-name="Trazado 776909" d="M162.712,345.293c-.083.142-.032.856,1.334.777C163.442,344.844,162.795,345.151,162.712,345.293Z" transform="translate(-116.184 -268.67)"/>
                  <path id="Trazado_776910" data-name="Trazado 776910" d="M234.712,333.293c-.083.142-.032.856,1.334.777C235.442,332.844,234.795,333.151,234.712,333.293Z" transform="translate(-159.777 -261.405)"/>
                  <path id="Trazado_776911" data-name="Trazado 776911" d="M210.712,345.293c-.083.142-.032.856,1.334.777C211.442,344.844,210.795,345.151,210.712,345.293Z" transform="translate(-145.246 -268.67)"/>
                  <path id="Trazado_776912" data-name="Trazado 776912" d="M162.712,321.293c-.083.142-.032.856,1.334.777C163.442,320.844,162.795,321.151,162.712,321.293Z" transform="translate(-116.184 -254.139)"/>
                  <path id="Trazado_776913" data-name="Trazado 776913" d="M210.712,321.293c-.083.142-.032.856,1.334.777C211.442,320.844,210.795,321.151,210.712,321.293Z" transform="translate(-145.246 -254.139)"/>
                  <path id="Trazado_776914" data-name="Trazado 776914" d="M187.919,309.841a2.248,2.248,0,0,0-.213-.3,1.374,1.374,0,0,0-.221-.213.718.718,0,0,0-.473-.166.408.408,0,0,0-.3.138.381.381,0,0,0,.028.327.617.617,0,0,0,.1.142c.024.024.051.047.079.071h0a1.631,1.631,0,0,0,1.128.233c-.039-.075-.075-.146-.114-.213a.083.083,0,0,0-.016-.024Z" transform="translate(-130.715 -246.877)"/>
                  <path id="Trazado_776915" data-name="Trazado 776915" d="M235.919,309.841a2.249,2.249,0,0,0-.213-.3,1.374,1.374,0,0,0-.221-.213.718.718,0,0,0-.473-.166.408.408,0,0,0-.3.138.381.381,0,0,0,.028.327.617.617,0,0,0,.1.142c.024.024.051.047.079.071h0a1.631,1.631,0,0,0,1.128.233c-.039-.075-.075-.146-.114-.213a.083.083,0,0,0-.016-.024Z" transform="translate(-159.777 -246.877)"/>
                  <path id="Trazado_776916" data-name="Trazado 776916" d="M166.6,390.98c-.162,0-.754.406,0,1.543C167.35,391.382,166.758,390.98,166.6,390.98Z" transform="translate(-118.325 -296.417)"/>
                  <path id="Trazado_776917" data-name="Trazado 776917" d="M214.6,390.98c-.162,0-.754.406,0,1.543C215.35,391.382,214.758,390.98,214.6,390.98Z" transform="translate(-147.387 -296.417)"/>
                  <path id="Trazado_776918" data-name="Trazado 776918" d="M168.21,394.072c1.365.079,1.416-.635,1.334-.777S168.814,392.849,168.21,394.072Z" transform="translate(-119.528 -297.734)"/>
                  <path id="Trazado_776919" data-name="Trazado 776919" d="M216.21,394.072c1.365.079,1.416-.635,1.334-.777S216.814,392.849,216.21,394.072Z" transform="translate(-148.59 -297.734)"/>
                  <path id="Trazado_776920" data-name="Trazado 776920" d="M162.712,393.293c-.083.142-.032.856,1.334.777C163.442,392.844,162.795,393.151,162.712,393.293Z" transform="translate(-116.184 -297.732)"/>
                  <path id="Trazado_776921" data-name="Trazado 776921" d="M210.712,393.293c-.083.142-.032.856,1.334.777C211.442,392.844,210.795,393.151,210.712,393.293Z" transform="translate(-145.246 -297.732)"/>
                  <path id="Trazado_776922" data-name="Trazado 776922" d="M94.6,234.98c-.162,0-.754.406,0,1.543C95.35,235.382,94.758,234.98,94.6,234.98Z" transform="translate(-74.731 -201.965)"/>
                  <path id="Trazado_776923" data-name="Trazado 776923" d="M118.6,222.98c-.162,0-.754.406,0,1.543C119.35,223.382,118.758,222.98,118.6,222.98Z" transform="translate(-89.262 -194.7)"/>
                  <path id="Trazado_776924" data-name="Trazado 776924" d="M118.942,199.9c-.245.059-.485.118-.722.181a1.823,1.823,0,0,0,.375,1,1.5,1.5,0,0,0,.347-1.18Z" transform="translate(-89.261 -180.725)"/>
                  <path id="Trazado_776925" data-name="Trazado 776925" d="M96.21,214.072c1.365.079,1.416-.635,1.334-.777S96.814,212.849,96.21,214.072Z" transform="translate(-75.935 -188.751)"/>
                  <path id="Trazado_776926" data-name="Trazado 776926" d="M120.21,226.072c1.365.079,1.416-.635,1.334-.777S120.814,224.849,120.21,226.072Z" transform="translate(-90.466 -196.016)"/>
                  <path id="Trazado_776927" data-name="Trazado 776927" d="M120.21,202.072c1.365.079,1.416-.635,1.334-.777S120.814,200.849,120.21,202.072Z" transform="translate(-90.466 -181.485)"/>
                  <path id="Trazado_776928" data-name="Trazado 776928" d="M90.712,237.3a.482.482,0,0,0,.205.544h0a1.632,1.632,0,0,0,1.128.233c-.043-.087-.087-.162-.126-.233C91.355,236.9,90.79,237.167,90.712,237.3Z" transform="translate(-72.59 -203.284)"/>
                  <path id="Trazado_776929" data-name="Trazado 776929" d="M138.712,213.293c-.083.142-.032.856,1.334.777C139.442,212.844,138.795,213.151,138.712,213.293Z" transform="translate(-101.653 -188.749)"/>
                  <path id="Trazado_776930" data-name="Trazado 776930" d="M139.919,237.842c-.564-.947-1.128-.675-1.207-.544a.482.482,0,0,0,.205.544h0a1.631,1.631,0,0,0,1.128.233c-.043-.087-.087-.162-.126-.233Z" transform="translate(-101.653 -203.284)"/>
                  <path id="Trazado_776931" data-name="Trazado 776931" d="M114.712,225.293c-.083.142-.032.856,1.334.777C115.442,224.844,114.795,225.151,114.712,225.293Z" transform="translate(-87.122 -196.015)"/>
                  <path id="Trazado_776932" data-name="Trazado 776932" d="M115.006,201.157c-.067.024-.138.043-.205.067a.238.238,0,0,0-.079.071c-.083.142-.032.856,1.334.777-.383-.777-.785-.939-1.046-.915Z" transform="translate(-87.128 -181.485)"/>
                  <path id="Trazado_776933" data-name="Trazado 776933" d="M46.6,282.98c-.162,0-.754.406,0,1.543C47.35,283.382,46.758,282.98,46.6,282.98Z" transform="translate(-45.669 -231.027)"/>
                  <path id="Trazado_776934" data-name="Trazado 776934" d="M70.6,294.98c-.162,0-.754.406,0,1.543C71.35,295.382,70.758,294.98,70.6,294.98Z" transform="translate(-60.2 -238.293)"/>
                  <path id="Trazado_776935" data-name="Trazado 776935" d="M94.6,258.98c-.162,0-.754.406,0,1.543C95.35,259.382,94.758,258.98,94.6,258.98Z" transform="translate(-74.731 -216.496)"/>
                  <path id="Trazado_776936" data-name="Trazado 776936" d="M70.6,270.98c-.162,0-.754.406,0,1.543C71.35,271.382,70.758,270.98,70.6,270.98Z" transform="translate(-60.2 -223.762)"/>
                  <path id="Trazado_776937" data-name="Trazado 776937" d="M118.6,270.98c-.162,0-.754.406,0,1.543C119.35,271.382,118.758,270.98,118.6,270.98Z" transform="translate(-89.262 -223.762)"/>
                  <path id="Trazado_776938" data-name="Trazado 776938" d="M70.6,246.98c-.162,0-.754.406,0,1.543C71.35,247.382,70.758,246.98,70.6,246.98Z" transform="translate(-60.2 -209.231)"/>
                  <path id="Trazado_776939" data-name="Trazado 776939" d="M118.6,246.98c-.162,0-.754.406,0,1.543C119.35,247.382,118.758,246.98,118.6,246.98Z" transform="translate(-89.262 -209.231)"/>
                  <path id="Trazado_776940" data-name="Trazado 776940" d="M48.21,286.072c1.365.079,1.416-.635,1.334-.777S48.814,284.849,48.21,286.072Z" transform="translate(-46.873 -232.344)"/>
                  <path id="Trazado_776941" data-name="Trazado 776941" d="M72.8,297.675a10.777,10.777,0,0,0,1.03-.442C73.664,297.119,73.242,297.048,72.8,297.675Z" transform="translate(-61.761 -239.611)"/>
                  <path id="Trazado_776942" data-name="Trazado 776942" d="M50.254,261.328a.333.333,0,0,0-.185-.118c-.245.312-.477.612-.679.888C50.3,262.007,50.325,261.451,50.254,261.328Z" transform="translate(-47.587 -217.846)"/>
                  <path id="Trazado_776943" data-name="Trazado 776943" d="M96.21,262.072c1.365.079,1.416-.635,1.334-.777S96.814,260.849,96.21,262.072Z" transform="translate(-75.935 -217.813)"/>
                  <path id="Trazado_776944" data-name="Trazado 776944" d="M72.21,274.072c1.365.079,1.416-.635,1.334-.777S72.814,272.849,72.21,274.072Z" transform="translate(-61.404 -225.079)"/>
                  <path id="Trazado_776945" data-name="Trazado 776945" d="M120.21,274.072c1.365.079,1.416-.635,1.334-.777S120.814,272.849,120.21,274.072Z" transform="translate(-90.466 -225.079)"/>
                  <path id="Trazado_776946" data-name="Trazado 776946" d="M72.21,250.072c1.365.079,1.416-.635,1.334-.777S72.814,248.849,72.21,250.072Z" transform="translate(-61.404 -210.548)"/>
                  <path id="Trazado_776947" data-name="Trazado 776947" d="M120.21,250.072c1.365.079,1.416-.635,1.334-.777S120.814,248.849,120.21,250.072Z" transform="translate(-90.466 -210.548)"/>
                  <path id="Trazado_776948" data-name="Trazado 776948" d="M66.713,297.3c-.075.13-.036.73,1,.777.1-.02.2-.043.3-.067C67.419,296.862,66.792,297.158,66.713,297.3Z" transform="translate(-58.06 -239.611)"/>
                  <path id="Trazado_776949" data-name="Trazado 776949" d="M138.712,285.293c-.083.142-.032.856,1.334.777C139.442,284.844,138.795,285.151,138.712,285.293Z" transform="translate(-101.653 -232.343)"/>
                  <path id="Trazado_776950" data-name="Trazado 776950" d="M90.712,261.293c-.083.142-.032.856,1.334.777C91.442,260.844,90.795,261.151,90.712,261.293Z" transform="translate(-72.591 -217.811)"/>
                  <path id="Trazado_776951" data-name="Trazado 776951" d="M66.712,273.293c-.083.142-.032.856,1.334.777C67.442,272.844,66.795,273.151,66.712,273.293Z" transform="translate(-58.06 -225.077)"/>
                  <path id="Trazado_776952" data-name="Trazado 776952" d="M138.712,261.293c-.083.142-.032.856,1.334.777C139.442,260.844,138.795,261.151,138.712,261.293Z" transform="translate(-101.653 -217.811)"/>
                  <path id="Trazado_776953" data-name="Trazado 776953" d="M66.712,249.293c-.083.142-.032.856,1.334.777C67.442,248.844,66.795,249.151,66.712,249.293Z" transform="translate(-58.06 -210.546)"/>
                  <path id="Trazado_776954" data-name="Trazado 776954" d="M114.712,249.293c-.083.142-.032.856,1.334.777C115.442,248.844,114.795,249.151,114.712,249.293Z" transform="translate(-87.122 -210.546)"/>
                  <path id="Trazado_776955" data-name="Trazado 776955" d="M97.338,237.842h0a.494.494,0,0,0,.205-.544c-.075-.13-.639-.4-1.207.544h0a2.567,2.567,0,0,0-.126.233A1.653,1.653,0,0,0,97.338,237.842Z" transform="translate(-75.935 -203.284)"/>
                  <path id="Trazado_776956" data-name="Trazado 776956" d="M118.6,366.98c-.162,0-.754.406,0,1.543C119.35,367.382,118.758,366.98,118.6,366.98Z" transform="translate(-89.262 -281.886)"/>
                  <path id="Trazado_776957" data-name="Trazado 776957" d="M119.431,345.37q-.166.272-.331.556a.264.264,0,0,0,.028.043A2.516,2.516,0,0,0,119.431,345.37Z" transform="translate(-89.794 -268.802)"/>
                  <path id="Trazado_776958" data-name="Trazado 776958" d="M120.21,370.072c1.365.079,1.416-.635,1.334-.777S120.814,368.849,120.21,370.072Z" transform="translate(-90.466 -283.203)"/>
                  <path id="Trazado_776959" data-name="Trazado 776959" d="M120.21,346.072c1.365.079,1.416-.635,1.334-.777S120.814,344.849,120.21,346.072Z" transform="translate(-90.466 -268.672)"/>
                  <path id="Trazado_776960" data-name="Trazado 776960" d="M138.712,357.293c-.083.142-.032.856,1.334.777C139.442,356.844,138.795,357.151,138.712,357.293Z" transform="translate(-101.653 -275.936)"/>
                  <path id="Trazado_776961" data-name="Trazado 776961" d="M139.913,381.843a1.71,1.71,0,0,0-.434-.517.833.833,0,0,0-.107-.071.7.7,0,0,0-.288-.095H139a.408.408,0,0,0-.3.138.482.482,0,0,0,.205.544h0a1.631,1.631,0,0,0,1.128.233c-.043-.087-.087-.162-.126-.233h0Z" transform="translate(-101.647 -290.472)"/>
                  <path id="Trazado_776962" data-name="Trazado 776962" d="M114.712,369.293c-.083.142-.032.856,1.334.777C115.442,368.844,114.795,369.151,114.712,369.293Z" transform="translate(-87.122 -283.201)"/>
                  <path id="Trazado_776963" data-name="Trazado 776963" d="M138.712,333.293c-.083.142-.032.856,1.334.777C139.442,332.844,138.795,333.151,138.712,333.293Z" transform="translate(-101.653 -261.405)"/>
                  <path id="Trazado_776964" data-name="Trazado 776964" d="M139.919,309.841a2.246,2.246,0,0,0-.213-.3,1.373,1.373,0,0,0-.221-.213.718.718,0,0,0-.473-.166.408.408,0,0,0-.3.138.381.381,0,0,0,.028.327.617.617,0,0,0,.1.142c.024.024.051.047.079.071h0a1.631,1.631,0,0,0,1.128.233c-.039-.075-.075-.146-.114-.213a.082.082,0,0,0-.016-.024Z" transform="translate(-101.653 -246.877)"/>
                  <path id="Trazado_776965" data-name="Trazado 776965" d="M118.6,390.98c-.162,0-.754.406,0,1.543C119.35,391.382,118.758,390.98,118.6,390.98Z" transform="translate(-89.262 -296.417)"/>
                  <path id="Trazado_776966" data-name="Trazado 776966" d="M120.21,394.072c1.365.079,1.416-.635,1.334-.777S120.814,392.849,120.21,394.072Z" transform="translate(-90.466 -297.734)"/>
                  <path id="Trazado_776967" data-name="Trazado 776967" d="M114.712,393.293c-.083.142-.032.856,1.334.777C115.442,392.844,114.795,393.151,114.712,393.293Z" transform="translate(-87.122 -297.732)"/>
                  <path id="Trazado_776968" data-name="Trazado 776968" d="M44.82,285.67c.079.245.17.485.268.718.079,0,.158,0,.249,0A2.159,2.159,0,0,0,44.82,285.67Z" transform="translate(-44.82 -232.656)"/>
                </g>
              </g>
              <path id="Trazado_776970" data-name="Trazado 776970" d="M136.377,247.231a45.461,45.461,0,0,0-3.543-19.376c-4.253-9.686-5.216-10.392-5.216-13.225s2.853-6.147,3.326-12.527a70.734,70.734,0,0,0,.237-9.453s10.159,16.066,17.249,17.012,11.343-5.67,8.743-14.649-13.939-16.3-18.429-22.209S124.1,166.9,118.9,166.9s-7.8-1.89-8.743-5.433-.947-10.633-.947-10.633-6.143,3.78-16.539-.473c0,0,.947,13-.237,14.886s-2.837,3.78-9.923,3.78-13,1.416-16.3,4.727-17.012,16.539-20.555,21.739-1.653,10.87,2.6,13,8.506.237,11.58-2.6,12.759-11.812,12.759-11.812a46.271,46.271,0,0,0,2.6,13.233c2.6,7.8,4.727,6.853,2.837,12.523s-5.67,7.327-6.853,14.649a69.6,69.6,0,0,0-.947,12.759" transform="translate(-43.792 -150.36)" fill="none" stroke="#263238" stroke-linecap="round" stroke-linejoin="round" stroke-width="1"/>
            </g>
            <g id="Grupo_1073828" data-name="Grupo 1073828" transform="translate(28.793 36.195)">
              <path id="Trazado_776971" data-name="Trazado 776971" d="M116.77,249.612a29.694,29.694,0,0,1,1.558-7.512" transform="translate(-116.77 -242.1)" fill="#fff" stroke="#263238" stroke-linecap="round" stroke-linejoin="round" stroke-width="1"/>
              <path id="Trazado_776972" data-name="Trazado 776972" d="M261.978,248.843a29.177,29.177,0,0,0-2.158-5.673" transform="translate(-203.381 -242.748)" fill="none" stroke="#263238" stroke-linecap="round" stroke-linejoin="round" stroke-width="1"/>
              <line id="Línea_264" data-name="Línea 264" y1="4.774" x2="14.878" transform="translate(23.873 27.511)" fill="none" stroke="#263238" stroke-linecap="round" stroke-linejoin="round" stroke-width="1"/>
              <path id="Trazado_776973" data-name="Trazado 776973" d="M194.36,309.447a48.154,48.154,0,0,1,10.806-2.947" transform="translate(-163.748 -281.092)" fill="none" stroke="#263238" stroke-linecap="round" stroke-linejoin="round" stroke-width="1"/>
            </g>
          </g>
          <g id="Grupo_1073831" data-name="Grupo 1073831" transform="translate(46.192 46.467)">
            <path id="Trazado_776974" data-name="Trazado 776974" d="M166.251,184.838c11.789,2.276,16.334-9.027,17.92-18.058-3.926-.43-6-2.257-6.814-5.334-.947-3.543-.947-10.633-.947-10.633s-6.143,3.78-16.539-.473c0,0,.947,13-.237,14.886a6.741,6.741,0,0,1-4.837,3.31c-.107,4.036.71,14.227,11.453,16.3Z" transform="translate(-154.79 -150.34)" fill="#f5b78d"/>
            <g id="Grupo_1073830" data-name="Grupo 1073830" clip-path="url(#clip-path-2)">
              <path id="Trazado_776975" data-name="Trazado 776975" d="M184.906,160.278a66.046,66.046,0,0,1-.686-9.465s-6.143,3.78-16.539-.473c0,0,.395,5.433.355,9.785,8.956,3.105,14.121,1.787,16.874.154Z" transform="translate(-162.594 -150.34)" fill="#f5b78d" opacity="0.2"/>
            </g>
            <path id="Trazado_776977" data-name="Trazado 776977" d="M166.251,184.838c11.789,2.276,16.334-9.027,17.92-18.058-3.926-.43-6-2.257-6.814-5.334-.947-3.543-.947-10.633-.947-10.633s-6.143,3.78-16.539-.473c0,0,.947,13-.237,14.886a6.741,6.741,0,0,1-4.837,3.31c-.107,4.036.71,14.227,11.453,16.3Z" transform="translate(-154.79 -150.34)" fill="none" stroke="#263238" stroke-linecap="round" stroke-linejoin="round" stroke-width="1"/>
          </g>
          <g id="Grupo_1073835" data-name="Grupo 1073835" transform="translate(41.277 13.318)">
            <circle id="Elipse_5105" data-name="Elipse 5105" cx="2.927" cy="2.927" r="2.927" transform="translate(31.275 23.238)" fill="#5b92fe" stroke="#263238" stroke-linecap="round" stroke-linejoin="round" stroke-width="1"/>
            <circle id="Elipse_5106" data-name="Elipse 5106" cx="2.927" cy="2.927" r="2.927" transform="translate(0 23.238)" fill="#5b92fe" stroke="#263238" stroke-linecap="round" stroke-linejoin="round" stroke-width="1"/>
            <path id="Trazado_776978" data-name="Trazado 776978" d="M227.1,102.323s1.464-4.525,3.192-2.927-.533,7.717-1.728,9.181-2.395,1.464-2.261-.533S227.1,102.323,227.1,102.323Z" transform="translate(-193.167 -86.139)" fill="#f5b78d" stroke="#263238" stroke-linecap="round" stroke-linejoin="round" stroke-width="1"/>
            <g id="Grupo_1073834" data-name="Grupo 1073834" transform="translate(3.669)">
              <g id="Grupo_1073833" data-name="Grupo 1073833">
                <path id="Trazado_776979" data-name="Trazado 776979" d="M151.63,87.061s.4,10.57,8.179,15.754,13.56,2.194,16.752-2.194,5.184-8.775,5.184-15.158.8-9.173-1.4-13.162-9.773-5.981-9.773-5.981A119.717,119.717,0,0,1,160.4,77.489,86.617,86.617,0,0,0,151.63,87.061Z" transform="translate(-151.63 -66.32)" fill="#f5b78d"/>
                <g id="Grupo_1073832" data-name="Grupo 1073832" clip-path="url(#clip-path-3)">
                  <path id="Trazado_776980" data-name="Trazado 776980" d="M170.586,66.31a119.717,119.717,0,0,1-10.171,11.169,86.614,86.614,0,0,0-8.775,9.571,24.238,24.238,0,0,0,1.211,6.048c10.51-8.045,16.255-22.493,17.782-26.777l-.047-.012Z" transform="translate(-151.636 -66.314)" fill="#e19d6f" opacity="0.68"/>
                </g>
                <path id="Trazado_776982" data-name="Trazado 776982" d="M151.63,87.061s.4,10.57,8.179,15.754,13.56,2.194,16.752-2.194,5.184-8.775,5.184-15.158.8-9.173-1.4-13.162-9.773-5.981-9.773-5.981A119.717,119.717,0,0,1,160.4,77.489,86.617,86.617,0,0,0,151.63,87.061Z" transform="translate(-151.63 -66.32)" fill="none" stroke="#263238" stroke-linecap="round" stroke-linejoin="round" stroke-width="1"/>
              </g>
              <line id="Línea_265" data-name="Línea 265" x2="4.482" y2="0.422" transform="translate(7.358 19.494)" fill="none" stroke="#263238" stroke-linecap="round" stroke-linejoin="round" stroke-width="1"/>
              <path id="Trazado_776983" data-name="Trazado 776983" d="M204.69,115s2.939-.56,4.34,0" transform="translate(-183.756 -95.642)" fill="none" stroke="#263238" stroke-linecap="round" stroke-linejoin="round" stroke-width="1"/>
              <path id="Trazado_776984" data-name="Trazado 776984" d="M176.84,107.589c0,1.065-.477,1.929-1.065,1.929s-1.065-.864-1.065-1.929.477-1.929,1.065-1.929S176.84,106.524,176.84,107.589Z" transform="translate(-165.604 -90.139)" fill="#263238"/>
              <path id="Trazado_776985" data-name="Trazado 776985" d="M186.18,126.968a3.883,3.883,0,0,0,4.656-.4" transform="translate(-172.549 -102.799)" fill="none" stroke="#263238" stroke-linecap="round" stroke-linejoin="round" stroke-width="1"/>
              <path id="Trazado_776986" data-name="Trazado 776986" d="M189.22,133.129s4.127,1.728,6.522-3.859" transform="translate(-174.389 -104.434)" fill="none" stroke="#263238" stroke-linecap="round" stroke-linejoin="round" stroke-width="1"/>
              <path id="Trazado_776987" data-name="Trazado 776987" d="M202.71,109.168s2.529-1.728,5.058-.667" transform="translate(-182.557 -91.65)" fill="none" stroke="#263238" stroke-linecap="round" stroke-linejoin="round" stroke-width="2"/>
              <path id="Trazado_776988" data-name="Trazado 776988" d="M200.68,97.417a5.467,5.467,0,0,1,6.652-.533" transform="translate(-181.328 -84.291)" fill="none" stroke="#263238" stroke-linecap="round" stroke-linejoin="round" stroke-width="2"/>
              <path id="Trazado_776989" data-name="Trazado 776989" d="M176.731,93.5a4.422,4.422,0,0,0-5.721-.134" transform="translate(-163.364 -82.11)" fill="none" stroke="#263238" stroke-linecap="round" stroke-linejoin="round" stroke-width="2"/>
            </g>
          </g>
          <g id="Grupo_1073839" data-name="Grupo 1073839" transform="translate(0 91.598)">
            <g id="Grupo_1073838" data-name="Grupo 1073838">
              <path id="Trazado_776990" data-name="Trazado 776990" d="M41.963,264.73s-4.253,4.727-4.253,9.686,2.837,9.453,10.633,16.539,15.123,12.286,18.192,13.939,6.143-.473,6.143-.473,5.082,5.082,5.67,3.9-1.771-2.955-2.245-3.661a9.908,9.908,0,0,0-1.416-1.535,8.82,8.82,0,0,1,3.425,1.18c.943.825,2.482,2.245,3.188,2.127s.71-.71-.355-2.127a12.58,12.58,0,0,0-3.073-2.837c-.71-.473-3.073-1.771-3.073-1.771s3.425-.237,4.608.473,4.371,2.837,4.608,1.89.237-1.535-.947-2.6a12.578,12.578,0,0,0-4.963-2.6,14.939,14.939,0,0,1-2.837-.829,19.577,19.577,0,0,1,3.661-.947c.943,0,4.727,1.89,5.788,1.653s.473-1.18-.355-1.771a20.022,20.022,0,0,0-6.025-2.127c-1.535-.118-10.159,2.837-11.225,2.837s-3.78-3.78-6.616-8.861-3.9-13-9.923-15.714" transform="translate(-37.71 -264.73)" fill="#5b92fe"/>
              <g id="Grupo_1073837" data-name="Grupo 1073837" clip-path="url(#clip-path-4)">
                <g id="Grupo_1073836" data-name="Grupo 1073836" transform="translate(1.964 7.2)" opacity="0.2">
                  <path id="Trazado_776991" data-name="Trazado 776991" d="M47.17,284.523c.754-1.14.162-1.543,0-1.543C47.332,282.98,47.924,283.386,47.17,284.523Z" transform="translate(-45.401 -282.98)"/>
                  <path id="Trazado_776992" data-name="Trazado 776992" d="M47.17,306.98c.162,0,.754.406,0,1.543C47.924,307.382,47.332,306.98,47.17,306.98Z" transform="translate(-45.401 -297.511)"/>
                  <path id="Trazado_776993" data-name="Trazado 776993" d="M70.6,294.98c-.162,0-.754.406,0,1.543C71.35,295.382,70.758,294.98,70.6,294.98Z" transform="translate(-59.359 -290.246)"/>
                  <path id="Trazado_776994" data-name="Trazado 776994" d="M49.534,285.3c-.083-.142-.73-.446-1.334.777C49.565,286.151,49.616,285.437,49.534,285.3Z" transform="translate(-46.025 -284.297)"/>
                  <path id="Trazado_776995" data-name="Trazado 776995" d="M49.611,309.776a.617.617,0,0,0,.1-.142.412.412,0,0,0,.028-.327.394.394,0,0,0-.3-.138.7.7,0,0,0-.473.166,1.375,1.375,0,0,0-.221.213,2.248,2.248,0,0,0-.213.3h1a.707.707,0,0,0,.079-.071Z" transform="translate(-46.225 -298.835)"/>
                  <path id="Trazado_776996" data-name="Trazado 776996" d="M73.534,297.3c-.083-.142-.73-.446-1.334.777C73.565,298.151,73.616,297.437,73.534,297.3Z" transform="translate(-60.556 -291.563)"/>
                  <path id="Trazado_776997" data-name="Trazado 776997" d="M68.045,298.071c-.6-1.227-1.251-.919-1.334-.777S66.68,298.15,68.045,298.071Z" transform="translate(-57.218 -291.561)"/>
                  <path id="Trazado_776998" data-name="Trazado 776998" d="M47.17,282.98v1.543C47.924,283.382,47.332,282.98,47.17,282.98Z" transform="translate(-45.401 -282.98)"/>
                  <path id="Trazado_776999" data-name="Trazado 776999" d="M47.17,306.98v1.543C47.924,307.382,47.332,306.98,47.17,306.98Z" transform="translate(-45.401 -297.511)"/>
                  <path id="Trazado_777000" data-name="Trazado 777000" d="M94.692,354.98a.427.427,0,0,0-.312.264c.225.166.45.327.667.489C95.145,355.193,94.81,354.98,94.692,354.98Z" transform="translate(-73.985 -326.573)"/>
                  <path id="Trazado_777001" data-name="Trazado 777001" d="M118.613,366.98a.478.478,0,0,0-.363.438,6.7,6.7,0,0,0,.71-.095.454.454,0,0,0-.343-.343Z" transform="translate(-88.438 -333.839)"/>
                  <path id="Trazado_777002" data-name="Trazado 777002" d="M94.6,330.98c-.162,0-.754.406,0,1.543C95.35,331.382,94.758,330.98,94.6,330.98Z" transform="translate(-73.89 -312.042)"/>
                  <path id="Trazado_777003" data-name="Trazado 777003" d="M118.6,344.523c.754-1.14.162-1.543,0-1.543S117.843,343.386,118.6,344.523Z" transform="translate(-88.421 -319.308)"/>
                  <path id="Trazado_777004" data-name="Trazado 777004" d="M70.6,320.523c.754-1.14.162-1.543,0-1.543S69.843,319.386,70.6,320.523Z" transform="translate(-59.359 -304.777)"/>
                  <path id="Trazado_777005" data-name="Trazado 777005" d="M98.23,357.295c-.063-.107-.442-.3-.88.118.217.154.43.308.635.454A.5.5,0,0,0,98.23,357.295Z" transform="translate(-75.783 -327.89)"/>
                  <path id="Trazado_777006" data-name="Trazado 777006" d="M96.21,334.072c1.365.079,1.416-.635,1.334-.777S96.814,332.849,96.21,334.072Z" transform="translate(-75.093 -313.359)"/>
                  <path id="Trazado_777007" data-name="Trazado 777007" d="M120.21,346.072c1.365.079,1.416-.635,1.334-.777S120.814,344.849,120.21,346.072Z" transform="translate(-89.624 -320.625)"/>
                  <path id="Trazado_777008" data-name="Trazado 777008" d="M72.21,322.072c1.365.079,1.416-.635,1.334-.777S72.814,320.849,72.21,322.072Z" transform="translate(-60.562 -306.094)"/>
                  <path id="Trazado_777009" data-name="Trazado 777009" d="M139.908,358.237c-.343-.268-.651-.485-.892-.643-.075-.047-.17-.11-.272-.174a.255.255,0,0,0-.032.036C138.634,357.59,138.681,358.26,139.908,358.237Z" transform="translate(-100.812 -328.051)"/>
                  <path id="Trazado_777010" data-name="Trazado 777010" d="M92.045,334.071c-.6-1.227-1.251-.919-1.334-.777S90.68,334.15,92.045,334.071Z" transform="translate(-71.749 -313.357)"/>
                  <path id="Trazado_777011" data-name="Trazado 777011" d="M114.712,345.293c-.083.142-.032.856,1.334.777C115.442,344.844,114.795,345.151,114.712,345.293Z" transform="translate(-86.28 -320.623)"/>
                  <path id="Trazado_777012" data-name="Trazado 777012" d="M66.712,321.293c-.083.142-.032.856,1.334.777C67.442,320.844,66.795,321.151,66.712,321.293Z" transform="translate(-57.218 -306.092)"/>
                  <path id="Trazado_777013" data-name="Trazado 777013" d="M49.332,310.89h-1a.113.113,0,0,1-.016.024c-.039.063-.075.134-.114.213a1.653,1.653,0,0,0,1.128-.233Z" transform="translate(-46.025 -299.878)"/>
                  <path id="Trazado_777014" data-name="Trazado 777014" d="M46.6,282.98c-.162,0-.754.406,0,1.543Z" transform="translate(-44.828 -282.98)"/>
                  <path id="Trazado_777015" data-name="Trazado 777015" d="M46.6,308.523V306.98C46.435,306.98,45.843,307.386,46.6,308.523Z" transform="translate(-44.828 -297.511)"/>
                  <path id="Trazado_777016" data-name="Trazado 777016" d="M44.045,286.071c-.6-1.227-1.251-.919-1.334-.777S42.68,286.15,44.045,286.071Z" transform="translate(-42.687 -284.295)"/>
                  <path id="Trazado_777017" data-name="Trazado 777017" d="M44.889,309.763a1.374,1.374,0,0,0-.221-.213c-.008-.008-.02-.012-.028-.02.122.178.245.355.375.537H45.1A2.244,2.244,0,0,0,44.889,309.763Z" transform="translate(-43.869 -299.055)"/>
                  <path id="Trazado_777018" data-name="Trazado 777018" d="M45.683,310.914a.113.113,0,0,0-.016-.024H45.58c.055.079.114.158.174.237h.039c-.039-.075-.075-.146-.114-.213Z" transform="translate(-44.439 -299.878)"/>
                </g>
              </g>
              <path id="Trazado_777020" data-name="Trazado 777020" d="M41.963,264.73s-4.253,4.727-4.253,9.686,2.837,9.453,10.633,16.539,15.123,12.286,18.192,13.939,6.143-.473,6.143-.473,5.082,5.082,5.67,3.9-1.771-2.955-2.245-3.661a9.908,9.908,0,0,0-1.416-1.535,8.82,8.82,0,0,1,3.425,1.18c.943.825,2.482,2.245,3.188,2.127s.71-.71-.355-2.127a12.58,12.58,0,0,0-3.073-2.837c-.71-.473-3.073-1.771-3.073-1.771s3.425-.237,4.608.473,4.371,2.837,4.608,1.89.237-1.535-.947-2.6a12.578,12.578,0,0,0-4.963-2.6,14.939,14.939,0,0,1-2.837-.829,19.577,19.577,0,0,1,3.661-.947c.943,0,4.727,1.89,5.788,1.653s.473-1.18-.355-1.771a20.022,20.022,0,0,0-6.025-2.127c-1.535-.118-10.159,2.837-11.225,2.837s-3.78-3.78-6.616-8.861-3.9-13-9.923-15.714" transform="translate(-37.71 -264.73)" fill="none" stroke="#263238" stroke-linecap="round" stroke-linejoin="round" stroke-width="1"/>
            </g>
            <path id="Trazado_777021" data-name="Trazado 777021" d="M91.181,313.712a20.023,20.023,0,0,0-6.025-2.127c-1.535-.118-10.159,2.837-11.225,2.837s-3.78-3.78-6.616-8.861c-1.574-2.821-2.6-6.518-4.241-9.713-8.68-1.168-12.4,3.894-14.124,7.544a64.7,64.7,0,0,0,6.194,6.3c7.8,7.09,15.123,12.286,18.192,13.939s6.143-.473,6.143-.473,5.082,5.082,5.67,3.9S83.377,324.1,82.9,323.4a9.907,9.907,0,0,0-1.416-1.535,8.82,8.82,0,0,1,3.425,1.18c.943.825,2.482,2.245,3.188,2.127s.71-.71-.355-2.127a12.58,12.58,0,0,0-3.073-2.837c-.71-.473-3.073-1.771-3.073-1.771s3.425-.237,4.608.473,4.371,2.837,4.608,1.89.237-1.535-.947-2.6a12.578,12.578,0,0,0-4.963-2.6,14.934,14.934,0,0,1-2.837-.829,19.578,19.578,0,0,1,3.661-.947c.943,0,4.727,1.89,5.788,1.653s.473-1.18-.355-1.771Z" transform="translate(-44.515 -283.467)" fill="#f5b78d" stroke="#263238" stroke-linecap="round" stroke-linejoin="round" stroke-width="1"/>
          </g>
          <g id="Grupo_1073843" data-name="Grupo 1073843" transform="translate(94.052 26.632)">
            <g id="Grupo_1073842" data-name="Grupo 1073842" transform="translate(0.008 0.004)">
              <path id="Trazado_777022" data-name="Trazado 777022" d="M280.015,169.478c-.986-2.253-.142-7.185.844-14.227s1.973-14.227,1.973-18.03.631-9.086-.608-10.775-5.748-6.313-6.084-8.451,2.707-5.409,2.707-5.409.9-1.689,1.689-.789.45,2.028,0,3.606-.9,2.817-.9,2.817,3.945,1.239,4.959.564.923-4.533.852-6.419c-.146-3.685-1.622-2.111-2.643-.367-.489.836-3.381.339-1.689-1.8s3.259-4.032,4.837-2.34a16.96,16.96,0,0,1,2.707,4.959s1.128-5.37,2.154-8.526,2.864-4.407,3.523-4.186.588,1.322-.075,2.864-2.13,5.8-2.5,7.2-.442,3.01.292,2.864,3.306-4.628,4.04-6.537a9.5,9.5,0,0,1,3.085-4.478c1.247-.809,2.276.221,1.764,1.543a67.17,67.17,0,0,1-3.452,6.975,30.141,30.141,0,0,0-2.056,4.553,51.783,51.783,0,0,1,3.819-3.673c1.764-1.468,3.673-1.764,4.261-1.247s.075.588-1.4,1.764a19.744,19.744,0,0,0-5.433,5.433,26.694,26.694,0,0,0-3.156,6.754,22.943,22.943,0,0,1-2.13,4.478s1.377,11.185,3.76,17.332,6.609,15.146,5.322,21.573-3.764,9.729-7.252,10.739a6.743,6.743,0,0,1-5.965-1.1" transform="translate(-276.115 -100.077)" fill="#5b92fe"/>
              <g id="Grupo_1073841" data-name="Grupo 1073841" clip-path="url(#clip-path-5)">
                <g id="Grupo_1073840" data-name="Grupo 1073840" transform="translate(2.594 2.175)" opacity="0.2">
                  <path id="Trazado_777023" data-name="Trazado 777023" d="M335.17,114.98a.437.437,0,0,1,.316.272h0A.437.437,0,0,0,335.17,114.98Z" transform="translate(-314.465 -111.275)"/>
                  <path id="Trazado_777024" data-name="Trazado 777024" d="M335.17,114.98v.923c.106-.221.213-.438.316-.651A.437.437,0,0,0,335.17,114.98Z" transform="translate(-314.465 -111.275)"/>
                  <path id="Trazado_777025" data-name="Trazado 777025" d="M335.17,260.523c.754-1.14.162-1.543,0-1.543C335.332,258.98,335.924,259.386,335.17,260.523Z" transform="translate(-314.465 -198.462)"/>
                  <path id="Trazado_777026" data-name="Trazado 777026" d="M337.084,262.007c-.008-.264-.02-.529-.039-.8-.245.067-.548.3-.844.9A2.188,2.188,0,0,0,337.084,262.007Z" transform="translate(-315.088 -199.812)"/>
                  <path id="Trazado_777027" data-name="Trazado 777027" d="M335.17,258.98v1.543C335.924,259.382,335.332,258.98,335.17,258.98Z" transform="translate(-314.465 -198.462)"/>
                  <path id="Trazado_777028" data-name="Trazado 777028" d="M286.6,138.98c-.138,0-.572.288-.264,1.053.1-.32.205-.671.312-1.042a.292.292,0,0,0-.047-.008Z" transform="translate(-284.831 -125.806)"/>
                  <path id="Trazado_777029" data-name="Trazado 777029" d="M310.6,152.523c.754-1.14.162-1.543,0-1.543S309.843,151.386,310.6,152.523Z" transform="translate(-299.36 -133.072)"/>
                  <path id="Trazado_777030" data-name="Trazado 777030" d="M334.433,116.233c.055-.114.111-.225.166-.339v-.923c-.15,0-.651.339-.166,1.259Z" transform="translate(-313.893 -111.269)"/>
                  <path id="Trazado_777031" data-name="Trazado 777031" d="M310.6,126.98c-.162,0-.754.406,0,1.543C311.35,127.382,310.758,126.98,310.6,126.98Z" transform="translate(-299.36 -118.541)"/>
                  <path id="Trazado_777032" data-name="Trazado 777032" d="M290.769,165.624a.412.412,0,0,0,.028-.327.394.394,0,0,0-.3-.138.629.629,0,0,0-.217.028c.162.2.308.375.426.537a.662.662,0,0,0,.063-.095Z" transform="translate(-287.286 -141.656)"/>
                  <path id="Trazado_777033" data-name="Trazado 777033" d="M313.534,153.3c-.083-.142-.73-.446-1.334.777C313.565,154.151,313.616,153.437,313.534,153.3Z" transform="translate(-300.557 -134.389)"/>
                  <path id="Trazado_777034" data-name="Trazado 777034" d="M313.35,129.827a4.583,4.583,0,0,1,.012-.651c-.252-.075-.714,0-1.152.9a1.61,1.61,0,0,0,1.14-.245Z" transform="translate(-300.563 -119.857)"/>
                  <path id="Trazado_777035" data-name="Trazado 777035" d="M315.148,105.59c-.107.178-.205.371-.308.572A.547.547,0,0,0,315.148,105.59Z" transform="translate(-302.156 -105.59)"/>
                  <path id="Trazado_777036" data-name="Trazado 777036" d="M282.714,141.3c-.079.138-.028.821,1.247.781.012-.032.024-.071.036-.1-.588-1.1-1.2-.813-1.278-.675Z" transform="translate(-282.69 -127.13)"/>
                  <path id="Trazado_777037" data-name="Trazado 777037" d="M306.712,153.293c-.083.142-.032.856,1.334.777C307.442,152.844,306.795,153.151,306.712,153.293Z" transform="translate(-297.219 -134.387)"/>
                  <path id="Trazado_777038" data-name="Trazado 777038" d="M330.712,117.294c-.083.142-.032.848,1.318.777a.03.03,0,0,1,.008-.016C331.438,116.848,330.795,117.152,330.712,117.294Z" transform="translate(-311.75 -112.591)"/>
                  <path id="Trazado_777039" data-name="Trazado 777039" d="M308.9,130.245a1.859,1.859,0,0,0-.639-.8c-.067.3-.118.544-.162.734A2.334,2.334,0,0,0,308.9,130.245Z" transform="translate(-298.075 -120.03)"/>
                  <path id="Trazado_777040" data-name="Trazado 777040" d="M306.961,130.066c-.063-.166-.142-.359-.233-.576a.014.014,0,0,0,0,.008.5.5,0,0,0,.241.568Z" transform="translate(-297.228 -120.061)"/>
                  <path id="Trazado_777041" data-name="Trazado 777041" d="M310.6,224.523c.754-1.14.162-1.543,0-1.543S309.843,223.386,310.6,224.523Z" transform="translate(-299.36 -176.665)"/>
                  <path id="Trazado_777042" data-name="Trazado 777042" d="M310.6,198.98c-.162,0-.754.406,0,1.543C311.35,199.382,310.758,198.98,310.6,198.98Z" transform="translate(-299.36 -162.134)"/>
                  <path id="Trazado_777043" data-name="Trazado 777043" d="M310.6,174.98c-.162,0-.754.406,0,1.543C311.35,175.382,310.758,174.98,310.6,174.98Z" transform="translate(-299.36 -147.603)"/>
                  <path id="Trazado_777044" data-name="Trazado 777044" d="M291.572,213.62c-.008.083-.02.17-.032.253A.473.473,0,0,0,291.572,213.62Z" transform="translate(-288.048 -170.998)"/>
                  <path id="Trazado_777045" data-name="Trazado 777045" d="M289.733,237.3c-.075-.13-.639-.4-1.2.544h1a.494.494,0,0,0,.205-.544Z" transform="translate(-286.226 -185.25)"/>
                  <path id="Trazado_777046" data-name="Trazado 777046" d="M312.21,226.072c1.365.079,1.416-.635,1.334-.777S312.814,224.849,312.21,226.072Z" transform="translate(-300.563 -177.982)"/>
                  <path id="Trazado_777047" data-name="Trazado 777047" d="M313.534,201.3c-.083-.142-.73-.446-1.334.777C313.565,202.151,313.616,201.437,313.534,201.3Z" transform="translate(-300.557 -163.451)"/>
                  <path id="Trazado_777048" data-name="Trazado 777048" d="M312.2,178.069c1,.059,1.294-.312,1.345-.572-.012-.079-.024-.158-.035-.233-.138-.146-.746-.351-1.314.8Z" transform="translate(-300.557 -148.917)"/>
                  <path id="Trazado_777049" data-name="Trazado 777049" d="M331.461,237.309c-.383-.276-.694-.107-.75-.012a.482.482,0,0,0,.205.544h.734c-.063-.178-.122-.355-.185-.533Z" transform="translate(-311.75 -185.249)"/>
                  <path id="Trazado_777050" data-name="Trazado 777050" d="M306.712,225.293c-.083.142-.032.856,1.334.777C307.442,224.844,306.795,225.151,306.712,225.293Z" transform="translate(-297.219 -177.98)"/>
                  <path id="Trazado_777051" data-name="Trazado 777051" d="M306.712,201.293c-.083.142-.032.856,1.334.777C307.442,200.844,306.795,201.151,306.712,201.293Z" transform="translate(-297.219 -163.449)"/>
                  <path id="Trazado_777052" data-name="Trazado 777052" d="M306.712,177.293c-.083.142-.032.856,1.334.777C307.442,176.844,306.795,177.151,306.712,177.293Z" transform="translate(-297.219 -148.918)"/>
                  <path id="Trazado_777053" data-name="Trazado 777053" d="M310.6,294.98c-.154,0-.69.363-.111,1.365.063.016.13.028.2.039C311.3,295.355,310.754,294.98,310.6,294.98Z" transform="translate(-299.36 -220.259)"/>
                  <path id="Trazado_777054" data-name="Trazado 777054" d="M286.6,260.523c.754-1.14.162-1.543,0-1.543S285.843,259.386,286.6,260.523Z" transform="translate(-284.829 -198.462)"/>
                  <path id="Trazado_777055" data-name="Trazado 777055" d="M334.6,258.98c-.162,0-.754.406,0,1.543Z" transform="translate(-313.891 -198.462)"/>
                  <path id="Trazado_777056" data-name="Trazado 777056" d="M310.6,272.523c.754-1.14.162-1.543,0-1.543S309.843,271.386,310.6,272.523Z" transform="translate(-299.36 -205.727)"/>
                  <path id="Trazado_777057" data-name="Trazado 777057" d="M310.6,246.98c-.162,0-.754.406,0,1.543C311.35,247.382,310.758,246.98,310.6,246.98Z" transform="translate(-299.36 -191.196)"/>
                  <path id="Trazado_777058" data-name="Trazado 777058" d="M313.788,297.3c-.075-.126-.615-.387-1.168.481a6.561,6.561,0,0,0,.978.047.472.472,0,0,0,.185-.529Z" transform="translate(-300.812 -221.58)"/>
                  <path id="Trazado_777059" data-name="Trazado 777059" d="M288.21,262.072c1.365.079,1.416-.635,1.334-.777S288.814,260.849,288.21,262.072Z" transform="translate(-286.032 -199.779)"/>
                  <path id="Trazado_777060" data-name="Trazado 777060" d="M312.21,274.072c1.365.079,1.416-.635,1.334-.777S312.814,272.849,312.21,274.072Z" transform="translate(-300.563 -207.044)"/>
                  <path id="Trazado_777061" data-name="Trazado 777061" d="M313.534,249.3c-.083-.142-.73-.446-1.334.777C313.565,250.151,313.616,249.437,313.534,249.3Z" transform="translate(-300.557 -192.513)"/>
                  <path id="Trazado_777062" data-name="Trazado 777062" d="M330.713,285.3c-.063.107-.043.552.584.722.107-.189.213-.379.316-.58-.45-.446-.836-.245-.9-.138Z" transform="translate(-311.752 -214.318)"/>
                  <path id="Trazado_777063" data-name="Trazado 777063" d="M307.32,297.174a7.339,7.339,0,0,0,.69.284A.759.759,0,0,0,307.32,297.174Z" transform="translate(-297.603 -221.58)"/>
                  <path id="Trazado_777064" data-name="Trazado 777064" d="M285.518,262.632a2.745,2.745,0,0,0-.351-.552c-.016.189-.032.367-.047.548a2.671,2.671,0,0,0,.4,0Z" transform="translate(-284.161 -200.339)"/>
                  <path id="Trazado_777065" data-name="Trazado 777065" d="M332.045,262.071c-.6-1.227-1.251-.919-1.334-.777S330.68,262.15,332.045,262.071Z" transform="translate(-311.75 -199.777)"/>
                  <path id="Trazado_777066" data-name="Trazado 777066" d="M306.712,273.293c-.083.142-.032.856,1.334.777C307.442,272.844,306.795,273.151,306.712,273.293Z" transform="translate(-297.219 -207.043)"/>
                  <path id="Trazado_777067" data-name="Trazado 777067" d="M306.712,249.293c-.083.142-.032.856,1.334.777C307.442,248.844,306.795,249.151,306.712,249.293Z" transform="translate(-297.219 -192.512)"/>
                  <path id="Trazado_777068" data-name="Trazado 777068" d="M288.336,238.89c-.043.071-.083.146-.126.233h0a1.654,1.654,0,0,0,1.128-.233Z" transform="translate(-286.032 -186.298)"/>
                  <path id="Trazado_777069" data-name="Trazado 777069" d="M332,238.89h-.734a1.4,1.4,0,0,0,.817.237Z" transform="translate(-312.103 -186.298)"/>
                </g>
              </g>
              <path id="Trazado_777071" data-name="Trazado 777071" d="M280.015,169.478c-.986-2.253-.142-7.185.844-14.227s1.973-14.227,1.973-18.03.631-9.086-.608-10.775-5.748-6.313-6.084-8.451,2.707-5.409,2.707-5.409.9-1.689,1.689-.789.45,2.028,0,3.606-.9,2.817-.9,2.817,3.945,1.239,4.959.564.923-4.533.852-6.419c-.146-3.685-1.622-2.111-2.643-.367-.489.836-3.381.339-1.689-1.8s3.259-4.032,4.837-2.34a16.96,16.96,0,0,1,2.707,4.959s1.128-5.37,2.154-8.526,2.864-4.407,3.523-4.186.588,1.322-.075,2.864-2.13,5.8-2.5,7.2-.442,3.01.292,2.864,3.306-4.628,4.04-6.537a9.5,9.5,0,0,1,3.085-4.478c1.247-.809,2.276.221,1.764,1.543a67.17,67.17,0,0,1-3.452,6.975,30.141,30.141,0,0,0-2.056,4.553,51.783,51.783,0,0,1,3.819-3.673c1.764-1.468,3.673-1.764,4.261-1.247s.075.588-1.4,1.764a19.744,19.744,0,0,0-5.433,5.433,26.694,26.694,0,0,0-3.156,6.754,22.943,22.943,0,0,1-2.13,4.478s1.377,11.185,3.76,17.332,6.609,15.146,5.322,21.573-3.764,9.729-7.252,10.739a6.743,6.743,0,0,1-5.965-1.1" transform="translate(-276.115 -100.077)" fill="none" stroke="#263238" stroke-linecap="round" stroke-linejoin="round" stroke-width="1"/>
            </g>
            <path id="Trazado_777072" data-name="Trazado 777072" d="M296.664,117.349a19.741,19.741,0,0,1,5.433-5.433c1.468-1.176,1.985-1.247,1.4-1.764s-2.5-.221-4.261,1.247a50.91,50.91,0,0,0-3.819,3.673,30.141,30.141,0,0,1,2.056-4.553,67.185,67.185,0,0,0,3.452-6.975c.513-1.322-.513-2.351-1.764-1.543a9.547,9.547,0,0,0-3.085,4.478c-.734,1.91-3.306,6.388-4.04,6.537s-.663-1.468-.292-2.864,1.835-5.654,2.5-7.2.734-2.643.075-2.864-2.5,1.03-3.523,4.186-2.154,8.526-2.154,8.526a17.009,17.009,0,0,0-2.707-4.959c-1.578-1.689-3.144.2-4.837,2.34s1.2,2.639,1.689,1.8c1.022-1.744,2.5-3.318,2.643.367.075,1.886.162,5.744-.852,6.419s-4.959-.564-4.959-.564.45-1.239.9-2.817.789-2.707,0-3.606-1.689.789-1.689.789-3.042,3.267-2.707,5.409,4.845,6.762,6.084,8.451.608,6.971.608,10.775-.986,10.988-1.973,18.03c-.012.091-.024.178-.039.272a12.87,12.87,0,0,0,10.1,3.8,10.7,10.7,0,0,0,7.871-3.926c-1.144-3.4-2.58-6.727-3.646-9.477-2.387-6.151-3.76-17.332-3.76-17.332a23.2,23.2,0,0,0,2.13-4.478,26.847,26.847,0,0,1,3.156-6.754Z" transform="translate(-276.095 -100.067)" fill="#f5b78d" stroke="#263238" stroke-linecap="round" stroke-linejoin="round" stroke-width="1"/>
            <path id="Trazado_777073" data-name="Trazado 777073" d="M300.526,160.749s-.663-2.789.292-4.553a4.949,4.949,0,0,1,2.351-2.276" transform="translate(-290.751 -132.673)" fill="none" stroke="#263238" stroke-linecap="round" stroke-linejoin="round" stroke-width="1"/>
          </g>
        </g>
      </g>
    </g>
  </g>
</svg>
