<svg xmlns="http://www.w3.org/2000/svg" width="57.186" height="57.321" viewBox="0 0 57.186 57.321">
  <g id="teamwork_3386862" transform="translate(-0.113)">
    <g id="filled_color" data-name="filled color" transform="translate(0.994 0.894)">
      <path id="Trazado_933170" data-name="Trazado 933170" d="M24.606,286.554l-4.586-1.326h-5.2l-4.586,1.326A3.094,3.094,0,0,0,8,289.526v7.312H26.841v-7.312a3.094,3.094,0,0,0-2.234-2.972Z" transform="translate(-8 -254.257)" fill="#f9b534"/>
      <path id="Trazado_933171" data-name="Trazado 933171" d="M71.362,245.949a3.709,3.709,0,0,1-2.022-1,4.506,4.506,0,0,1-.575-.605v4.574a2.809,2.809,0,0,0,2.723,2.18,2.456,2.456,0,0,0,2.489-2.18v-4.591A4.213,4.213,0,0,1,71.362,245.949Z" transform="translate(-61.977 -217.926)" fill="#fcd3c4"/>
      <g id="Grupo_1132665" data-name="Grupo 1132665" transform="translate(2.893 22.697)">
        <path id="Trazado_933172" data-name="Trazado 933172" d="M71.371,247.951a4.784,4.784,0,0,0,2.606-1.653v-1.969a4.211,4.211,0,0,1-2.615,1.621,3.709,3.709,0,0,1-2.022-1,4.507,4.507,0,0,1-.575-.605v4.574a3.188,3.188,0,0,0,.8,1.424A2.347,2.347,0,0,1,71.371,247.951Z" transform="translate(-64.869 -240.624)" fill="#ffc7b5"/>
        <path id="Trazado_933173" data-name="Trazado 933173" d="M36.443,211.315h-.259c-1.067-.2-2.127-.351-2.267.724a2.541,2.541,0,0,0,1.291,2.7,5.155,5.155,0,0,0,1.452.141h.275a3.158,3.158,0,0,1-.492-1.632Z" transform="translate(-33.893 -211.171)" fill="#ffc7b5"/>
        <path id="Trazado_933174" data-name="Trazado 933174" d="M126.139,212.038c-.14-1.076-1.2-.927-2.267-.724h-.3v1.931a3.148,3.148,0,0,1-.494,1.632h.32a5.154,5.154,0,0,0,1.452-.141A2.542,2.542,0,0,0,126.139,212.038Z" transform="translate(-113.113 -211.17)" fill="#ffc7b5"/>
      </g>
      <path id="Trazado_933175" data-name="Trazado 933175" d="M60.167,178.212a2.9,2.9,0,0,1-1.918.766,5.237,5.237,0,0,1-.71-.055,5.459,5.459,0,0,1-2.067-.708l-1.144-.771-.473,1.3a5.589,5.589,0,0,1-.583,1.018v3.53c0,2.39,2.807,4.328,4.328,4.328s4.346-1.938,4.346-4.328V178.34a1.359,1.359,0,0,0-.963-.4A1.409,1.409,0,0,0,60.167,178.212Z" transform="translate(-48.215 -158.514)" fill="#fcd3c4"/>
      <path id="Trazado_933176" data-name="Trazado 933176" d="M45.965,138.764a2.272,2.272,0,0,1-1.884.816c-1.285-.256-2.25-.99-4.784-.99-1.881,0-4.679.444-5.3,3.326a4.9,4.9,0,0,0,2.059,4.9,2.571,2.571,0,0,0,.624-.592,6.883,6.883,0,0,0,.972-1.624,6.487,6.487,0,0,0,2.522.883,3.963,3.963,0,0,0,3.4-.9c.757-.537,1.155,2.234,1.155,2.234a8.879,8.879,0,0,0,1.852-2.169A5.353,5.353,0,0,0,45.965,138.764Z" transform="translate(-30.998 -124.001)" fill="#56585e"/>
      <path id="Trazado_933177" data-name="Trazado 933177" d="M351.959,286.556l-4.586-1.326h-5.2l-4.586,1.326a3.094,3.094,0,0,0-2.234,2.972v7.312h18.841v-7.312a3.094,3.094,0,0,0-2.234-2.972Z" transform="translate(-298.782 -254.259)" fill="#64a053"/>
      <path id="Trazado_933178" data-name="Trazado 933178" d="M398.714,245.949a3.709,3.709,0,0,1-2.022-1,4.5,4.5,0,0,1-.575-.605v4.574a2.809,2.809,0,0,0,2.723,2.18,2.456,2.456,0,0,0,2.49-2.18v-4.591A4.213,4.213,0,0,1,398.714,245.949Z" transform="translate(-352.758 -217.926)" fill="#fcd3c4"/>
      <path id="Trazado_933179" data-name="Trazado 933179" d="M398.723,247.951a4.783,4.783,0,0,0,2.606-1.653v-1.969a4.21,4.21,0,0,1-2.615,1.621,3.71,3.71,0,0,1-2.022-1,4.507,4.507,0,0,1-.575-.605v4.574a3.187,3.187,0,0,0,.8,1.424A2.346,2.346,0,0,1,398.723,247.951Z" transform="translate(-352.758 -217.926)" fill="#ffc7b5"/>
      <path id="Trazado_933180" data-name="Trazado 933180" d="M363.794,211.315h-.259c-1.067-.2-2.127-.351-2.267.724a2.541,2.541,0,0,0,1.292,2.7,5.155,5.155,0,0,0,1.452.141h.274a3.158,3.158,0,0,1-.492-1.632Z" transform="translate(-321.781 -188.474)" fill="#ffc7b5"/>
      <path id="Trazado_933181" data-name="Trazado 933181" d="M453.491,212.038c-.14-1.076-1.2-.927-2.267-.724h-.3v1.931a3.148,3.148,0,0,1-.494,1.632h.32a5.155,5.155,0,0,0,1.452-.141A2.542,2.542,0,0,0,453.491,212.038Z" transform="translate(-401.002 -188.473)" fill="#ffc7b5"/>
      <path id="Trazado_933182" data-name="Trazado 933182" d="M387.519,178.212a2.9,2.9,0,0,1-1.918.766,5.237,5.237,0,0,1-.71-.055,5.46,5.46,0,0,1-2.067-.708l-1.144-.771-.473,1.3a5.59,5.59,0,0,1-.583,1.018v3.53c0,2.39,2.807,4.328,4.328,4.328s4.346-1.938,4.346-4.328V178.34a1.359,1.359,0,0,0-.963-.4A1.409,1.409,0,0,0,387.519,178.212Z" transform="translate(-338.997 -158.514)" fill="#fcd3c4"/>
      <path id="Trazado_933183" data-name="Trazado 933183" d="M373.317,138.764a2.272,2.272,0,0,1-1.884.816c-1.285-.256-2.25-.99-4.784-.99-1.881,0-4.678.444-5.3,3.326a4.9,4.9,0,0,0,2.059,4.9,2.571,2.571,0,0,0,.624-.592A6.866,6.866,0,0,0,365,144.6a6.487,6.487,0,0,0,2.522.883,3.963,3.963,0,0,0,3.4-.9c.757-.537,1.155,2.234,1.155,2.234a8.879,8.879,0,0,0,1.852-2.169A5.353,5.353,0,0,0,373.317,138.764Z" transform="translate(-321.78 -124.001)" fill="#56585e"/>
      <path id="Trazado_933184" data-name="Trazado 933184" d="M187.894,156.812l-4.612-1.334h-5.23l-4.612,1.334a3.112,3.112,0,0,0-2.247,2.989v7.354h18.949V159.8a3.112,3.112,0,0,0-2.247-2.989Z" transform="translate(-152.962 -139.002)" fill="#f7685f"/>
      <path id="Trazado_933185" data-name="Trazado 933185" d="M234.916,115.973a3.73,3.73,0,0,1-2.034-1.005,4.544,4.544,0,0,1-.578-.609v4.6a2.825,2.825,0,0,0,2.739,2.193,2.471,2.471,0,0,0,2.5-2.193v-4.617A4.235,4.235,0,0,1,234.916,115.973Z" transform="translate(-207.246 -102.463)" fill="#fcd3c4"/>
      <path id="Trazado_933186" data-name="Trazado 933186" d="M234.925,117.987a4.809,4.809,0,0,0,2.621-1.663v-1.981a4.235,4.235,0,0,1-2.63,1.63,3.73,3.73,0,0,1-2.034-1.005,4.536,4.536,0,0,1-.578-.609v4.6a3.206,3.206,0,0,0,.807,1.432A2.36,2.36,0,0,1,234.925,117.987Z" transform="translate(-207.246 -102.463)" fill="#ffc7b5"/>
      <path id="Trazado_933187" data-name="Trazado 933187" d="M199.8,81.142h-.261c-1.074-.2-2.139-.353-2.28.729a2.556,2.556,0,0,0,1.3,2.712,5.18,5.18,0,0,0,1.46.141h.276a3.177,3.177,0,0,1-.494-1.641Z" transform="translate(-176.093 -72.842)" fill="#ffc7b5"/>
      <path id="Trazado_933188" data-name="Trazado 933188" d="M290,81.87c-.141-1.082-1.207-.932-2.28-.729h-.3v1.942a3.165,3.165,0,0,1-.5,1.642h.322a5.18,5.18,0,0,0,1.46-.141A2.556,2.556,0,0,0,290,81.87Z" transform="translate(-255.764 -72.842)" fill="#ffc7b5"/>
      <path id="Trazado_933189" data-name="Trazado 933189" d="M223.657,47.846a2.917,2.917,0,0,1-1.929.77,5.266,5.266,0,0,1-.714-.055,5.491,5.491,0,0,1-2.079-.712l-1.151-.776-.476,1.3a5.622,5.622,0,0,1-.586,1.024v3.55c0,2.4,2.823,4.353,4.353,4.353s4.371-1.949,4.371-4.353V47.974a1.367,1.367,0,0,0-.969-.4A1.416,1.416,0,0,0,223.657,47.846Z" transform="translate(-193.405 -42.708)" fill="#fcd3c4"/>
      <path id="Trazado_933190" data-name="Trazado 933190" d="M209.376,8.175a2.285,2.285,0,0,1-1.9.82c-1.292-.258-2.263-1-4.812-1-1.891,0-4.705.447-5.33,3.345a4.929,4.929,0,0,0,2.071,4.925,2.587,2.587,0,0,0,.628-.6,6.927,6.927,0,0,0,.978-1.633,6.526,6.526,0,0,0,2.537.887,3.986,3.986,0,0,0,3.419-.9c.761-.54,1.162,2.246,1.162,2.246A8.922,8.922,0,0,0,210,14.089,5.384,5.384,0,0,0,209.376,8.175Z" transform="translate(-176.093 -8)" fill="#56585e"/>
      <path id="Trazado_933191" data-name="Trazado 933191" d="M173.322,378.735l-5.6-1.619h-6.349l-5.6,1.619a3.777,3.777,0,0,0-2.728,3.629v8.927h23v-8.927a3.777,3.777,0,0,0-2.728-3.629Z" transform="translate(-136.843 -335.88)" fill="#65d1df"/>
      <path id="Trazado_933192" data-name="Trazado 933192" d="M230.405,329.159a4.531,4.531,0,0,1-2.469-1.22,5.526,5.526,0,0,1-.7-.739v5.585a3.43,3.43,0,0,0,3.325,2.662,3,3,0,0,0,3.039-2.662V327.18A5.142,5.142,0,0,1,230.405,329.159Z" transform="translate(-202.742 -291.523)" fill="#fcd3c4"/>
      <path id="Trazado_933193" data-name="Trazado 933193" d="M230.417,331.6c1.8-.654,2.9-1.411,3.182-2.019v-2.4a5.142,5.142,0,0,1-3.193,1.979,4.531,4.531,0,0,1-2.469-1.22,5.52,5.52,0,0,1-.7-.739v5.585a3.892,3.892,0,0,0,.98,1.739A2.865,2.865,0,0,1,230.417,331.6Z" transform="translate(-202.743 -291.523)" fill="#ffc7b5"/>
      <path id="Trazado_933194" data-name="Trazado 933194" d="M187.775,286.874h-.316c-1.3-.247-2.6-.429-2.768.884a3.1,3.1,0,0,0,1.577,3.293,6.3,6.3,0,0,0,1.772.172h.335a3.855,3.855,0,0,1-.6-1.993Z" transform="translate(-164.926 -255.564)" fill="#ffc7b5"/>
      <path id="Trazado_933195" data-name="Trazado 933195" d="M297.282,287.759c-.171-1.313-1.464-1.131-2.768-.884h-.369v2.357a3.843,3.843,0,0,1-.6,1.993h.391a6.291,6.291,0,0,0,1.772-.172A3.1,3.1,0,0,0,297.282,287.759Z" transform="translate(-261.642 -255.564)" fill="#ffc7b5"/>
      <path id="Trazado_933196" data-name="Trazado 933196" d="M216.739,246.452a3.545,3.545,0,0,1-2.341.935,6.391,6.391,0,0,1-.866-.067,6.664,6.664,0,0,1-2.524-.864l-1.4-.942-.578,1.582a6.827,6.827,0,0,1-.711,1.243v4.31c0,2.918,3.427,5.284,5.284,5.284s5.306-2.366,5.306-5.284v-6.042a1.659,1.659,0,0,0-1.176-.483A1.721,1.721,0,0,0,216.739,246.452Z" transform="translate(-185.943 -218.98)" fill="#fcd3c4"/>
      <path id="Trazado_933197" data-name="Trazado 933197" d="M199.4,198.3a2.775,2.775,0,0,1-2.3,1c-1.569-.313-2.747-1.209-5.841-1.209-2.3,0-5.712.542-6.47,4.06-.818,3.8,2.514,5.979,2.514,5.979a3.135,3.135,0,0,0,.762-.723,8.4,8.4,0,0,0,1.187-1.983,7.922,7.922,0,0,0,3.079,1.077,4.838,4.838,0,0,0,4.151-1.1c.924-.655,1.411,2.727,1.411,2.727a10.839,10.839,0,0,0,2.261-2.649A6.534,6.534,0,0,0,199.4,198.3Z" transform="translate(-164.919 -176.849)" fill="#56585e"/>
    </g>
    <g id="outline" transform="translate(0.113 0)">
      <path id="Trazado_933198" data-name="Trazado 933198" d="M164.2,24.048a.894.894,0,0,0,.894-.894v-1.5a2.226,2.226,0,0,1,1.606-2.124l3.839-1.1a3.585,3.585,0,0,0,3.286,2.018,3.223,3.223,0,0,0,3.1-1.967l3.718,1.086a2.227,2.227,0,0,1,1.595,2.133v.015l.006.422a.894.894,0,0,0,.894.881h.013a.894.894,0,0,0,.881-.906l-.006-.415a4.022,4.022,0,0,0-2.881-3.846l-3.928-1.147V14.7a6.284,6.284,0,0,0,.864-1,4.451,4.451,0,0,0,1.207-.187,3.4,3.4,0,0,0,1.9-3.681,1.811,1.811,0,0,0-.712-1.281,1.773,1.773,0,0,0-.393-.216,4.951,4.951,0,0,0,.637-.988,6.241,6.241,0,0,0-.786-6.9.889.889,0,0,0-1.325.035c-.178.2-.666.6-1.041.525A8.317,8.317,0,0,1,176.5.694,10.777,10.777,0,0,0,172.586,0c-3.436,0-5.638,1.438-6.2,4.049a5.31,5.31,0,0,0,.92,4.333,1.748,1.748,0,0,0-.295.173,1.813,1.813,0,0,0-.709,1.279,3.4,3.4,0,0,0,1.9,3.681,4.1,4.1,0,0,0,1.084.182,6.3,6.3,0,0,0,.912,1.049v1.929l-3.986,1.141a4.023,4.023,0,0,0-2.9,3.84v1.5a.894.894,0,0,0,.894.894Zm12.953-12.917c0,1.821-2.36,3.457-3.474,3.457s-3.457-1.635-3.457-3.457V9.591a3.742,3.742,0,0,0,.443-.483,9.8,9.8,0,0,0,.659-.97,7.874,7.874,0,0,0,2.022.566,4.659,4.659,0,0,0,3.523-.7,8.165,8.165,0,0,1,.285,1.223Zm-3.329,7.534a1.884,1.884,0,0,1-1.843-1.412v-1.3a4.194,4.194,0,0,0,1.7.423,4.261,4.261,0,0,0,1.755-.449v1.385A1.532,1.532,0,0,1,173.825,18.666Zm5.072-6.954a4,4,0,0,0,.045-.58V9.98a1.274,1.274,0,0,1,.462.009.526.526,0,0,1,.015.076,1.987,1.987,0,0,1-.521,1.647ZM168.132,4.425c.568-2.637,3.492-2.637,4.453-2.637a8.98,8.98,0,0,1,3.332.6,9.779,9.779,0,0,0,1.3.381,2.6,2.6,0,0,0,1.885-.388,4.664,4.664,0,0,1-.009,4.231,3.723,3.723,0,0,1-.543.78,2.127,2.127,0,0,0-1.011-1.341,1.183,1.183,0,0,0-1.172.138,3.14,3.14,0,0,1-2.778.748,5.746,5.746,0,0,1-2.158-.742.89.89,0,0,0-1.337.429,6.2,6.2,0,0,1-.807,1.346A3.786,3.786,0,0,1,168.132,4.425Zm-.059,5.641a.529.529,0,0,1,.015-.076,1.042,1.042,0,0,1,.346-.018v1.161a4.011,4.011,0,0,0,.026.442A2.1,2.1,0,0,1,168.073,10.066Z" transform="translate(-145.076 0)"/>
      <path id="Trazado_933199" data-name="Trazado 933199" d="M188.785,458.267a.894.894,0,0,0-.894.894v4.215a.894.894,0,1,0,1.787,0v-4.215A.894.894,0,0,0,188.785,458.267Z" transform="translate(-166.913 -407.071)"/>
      <path id="Trazado_933200" data-name="Trazado 933200" d="M310.668,458.267a.894.894,0,0,0-.894.894v4.215a.894.894,0,1,0,1.787,0v-4.215A.894.894,0,0,0,310.668,458.267Z" transform="translate(-275.18 -407.071)"/>
      <path id="Trazado_933201" data-name="Trazado 933201" d="M54.431,148.342l-3.9-1.14v-1.99a6.24,6.24,0,0,0,.857-.99,4.42,4.42,0,0,0,1.2-.187,3.39,3.39,0,0,0,1.891-3.666,1.8,1.8,0,0,0-.71-1.277,1.767,1.767,0,0,0-.385-.212,4.92,4.92,0,0,0,.63-.978,6.209,6.209,0,0,0-.783-6.863.894.894,0,0,0-1.329.039c-.086.1-.609.6-1.026.516a8.26,8.26,0,0,1-1.065-.316,10.715,10.715,0,0,0-3.892-.691c-3.419,0-5.61,1.431-6.17,4.03a5.281,5.281,0,0,0,.912,4.307,1.736,1.736,0,0,0-.288.17,1.807,1.807,0,0,0-.707,1.275,3.39,3.39,0,0,0,1.891,3.666,4.082,4.082,0,0,0,1.076.181,6.256,6.256,0,0,0,.9,1.04v1.912l-3.96,1.133a3.978,3.978,0,0,0-2.018,1.354,4.423,4.423,0,0,0-.035-.684,2.007,2.007,0,0,0-.786-1.423,2.029,2.029,0,0,0-.683-.319,6.333,6.333,0,0,0,.918-1.367,7.359,7.359,0,0,0-.917-8.139.894.894,0,0,0-1.329.039c-.15.177-.832.813-1.435.693a10.194,10.194,0,0,1-1.321-.391,12.871,12.871,0,0,0-4.674-.83c-5.2,0-6.853,2.584-7.32,4.751a6.281,6.281,0,0,0,1.224,5.289,1.968,1.968,0,0,0-.539.277,2.01,2.01,0,0,0-.783,1.421,4.427,4.427,0,0,0-.035.693,3.977,3.977,0,0,0-1.977-1.322l-3.9-1.14v-1.99a6.241,6.241,0,0,0,.857-.99,4.421,4.421,0,0,0,1.2-.187,3.39,3.39,0,0,0,1.891-3.666,1.8,1.8,0,0,0-.71-1.277,1.768,1.768,0,0,0-.385-.212,4.92,4.92,0,0,0,.63-.978,6.21,6.21,0,0,0-.783-6.863.894.894,0,0,0-1.329.039c-.086.1-.609.6-1.026.516a8.265,8.265,0,0,1-1.065-.316,10.715,10.715,0,0,0-3.892-.691c-3.419,0-5.61,1.431-6.17,4.03a5.281,5.281,0,0,0,.912,4.307,1.736,1.736,0,0,0-.288.17,1.807,1.807,0,0,0-.707,1.275,3.39,3.39,0,0,0,1.891,3.666,4.081,4.081,0,0,0,1.076.181,6.256,6.256,0,0,0,.9,1.04v1.912L3,148.3a4.005,4.005,0,0,0-2.889,3.823v7a.894.894,0,0,0,1.787,0v-7a2.209,2.209,0,0,1,1.593-2.107l3.813-1.091a3.57,3.57,0,0,0,3.27,2.006,3.209,3.209,0,0,0,3.09-1.955l3.692,1.079a2.209,2.209,0,0,1,1.582,2.117l-.006,4.425a.894.894,0,0,0,.892.895h0a.894.894,0,0,0,.894-.893l.006-4.367a2.891,2.891,0,0,0,1.316.989,4.956,4.956,0,0,0,1.353.214,7.416,7.416,0,0,0,1.189,1.37v2.581l-4.918,1.422a4.68,4.68,0,0,0-3.364,4.473l-.007,9.14a.894.894,0,0,0,.893.894h0a.894.894,0,0,0,.894-.893l.007-9.141a2.884,2.884,0,0,1,2.073-2.758l4.759-1.376a4.172,4.172,0,0,0,3.869,2.459,3.735,3.735,0,0,0,3.658-2.442l4.7,1.359a2.884,2.884,0,0,1,2.073,2.756l-.007,9.14a.894.894,0,0,0,.893.894h0a.894.894,0,0,0,.894-.893l.007-9.141a4.68,4.68,0,0,0-3.364-4.474l-4.933-1.426v-2.629a7.4,7.4,0,0,0,1.132-1.311,5.387,5.387,0,0,0,1.5-.22,2.9,2.9,0,0,0,1.336-1.014v4.365a.894.894,0,0,0,1.787,0v-4.448a2.209,2.209,0,0,1,1.593-2.107l3.813-1.091a3.57,3.57,0,0,0,3.27,2.006,3.209,3.209,0,0,0,3.09-1.955l3.692,1.079a2.209,2.209,0,0,1,1.582,2.117l-.006,6.952a.894.894,0,0,0,.893.895h0a.894.894,0,0,0,.894-.893l.006-6.951a4,4,0,0,0-2.868-3.836ZM7,141.661v-1.53a3.738,3.738,0,0,0,.439-.48,9.768,9.768,0,0,0,.653-.961,7.83,7.83,0,0,0,2.007.561,4.636,4.636,0,0,0,3.5-.691,8.131,8.131,0,0,1,.281,1.209v1.892c0,1.808-2.343,3.432-3.45,3.432S7,143.469,7,141.661Zm8.627.565a3.988,3.988,0,0,0,.042-.565V140.52a1.276,1.276,0,0,1,.45.009.5.5,0,0,1,.014.072,1.978,1.978,0,0,1-.506,1.624ZM4.921,134.993c.139-.648.564-2.618,4.423-2.618a8.921,8.921,0,0,1,3.311.594,9.72,9.72,0,0,0,1.3.379,2.593,2.593,0,0,0,1.873-.384,4.632,4.632,0,0,1-.012,4.2,3.674,3.674,0,0,1-.534.768,2.113,2.113,0,0,0-1.005-1.328,1.181,1.181,0,0,0-1.171.138,3.117,3.117,0,0,1-2.759.743,5.706,5.706,0,0,1-2.144-.737.89.89,0,0,0-1.337.429,6.158,6.158,0,0,1-.8,1.332,3.759,3.759,0,0,1-1.144-3.511ZM4.863,140.6a.525.525,0,0,1,.014-.072,1.034,1.034,0,0,1,.335-.018v1.149a3.977,3.977,0,0,0,.024.423,2.091,2.091,0,0,1-.373-1.483Zm5.714,8.546a1.869,1.869,0,0,1-1.828-1.4v-1.285a4.167,4.167,0,0,0,1.682.418,4.236,4.236,0,0,0,1.74-.443v1.368a1.517,1.517,0,0,1-1.595,1.34Zm13.668,1.37v-1.949a4.335,4.335,0,0,0,.574-.614,11.507,11.507,0,0,0,.868-1.3,9.33,9.33,0,0,0,2.551.738,5.45,5.45,0,0,0,4.335-.946,9.181,9.181,0,0,1,.436,1.751v2.32c0,2.348-2.947,4.371-4.393,4.371s-4.371-2.024-4.371-4.371Zm-2.525-8.156c.477-2.216,2.352-3.34,5.573-3.34a11.027,11.027,0,0,1,4.093.733,11.678,11.678,0,0,0,1.553.454,3.02,3.02,0,0,0,2.284-.536l.026-.018a5.8,5.8,0,0,1,.095,5.466,5.479,5.479,0,0,1-.906,1.239,2.771,2.771,0,0,0-1.22-1.823,1.248,1.248,0,0,0-1.236.148,3.95,3.95,0,0,1-3.5.938,7.13,7.13,0,0,1-2.691-.929.9.9,0,0,0-1.338.43,7.769,7.769,0,0,1-1.054,1.743q-.039.05-.077.1a4.839,4.839,0,0,1-1.6-4.6Zm-.074,6.841a.388.388,0,0,1,.069-.211c.063-.046.241-.1.743-.051v1.578a4.741,4.741,0,0,0,.108.99,2.356,2.356,0,0,1-.92-2.3Zm7.147,10.62A2.453,2.453,0,0,1,26.387,158a.894.894,0,0,0-.013-.1v-1.841a5.12,5.12,0,0,0,2.242.622,5.2,5.2,0,0,0,2.312-.657V158a2.662,2.662,0,0,1-.378.962,1.939,1.939,0,0,1-1.757.862Zm5.972-8.288c-.026.009-.057.018-.089.026a4.726,4.726,0,0,0,.12-1.043v-1.562c.575-.071.8-.025.883.035a.387.387,0,0,1,.069.211,2.289,2.289,0,0,1-.982,2.332Zm8.8-9.874v-1.53a3.731,3.731,0,0,0,.439-.48,9.747,9.747,0,0,0,.653-.961,7.83,7.83,0,0,0,2.008.561,4.637,4.637,0,0,0,3.5-.691,8.131,8.131,0,0,1,.281,1.209v1.892c0,1.808-2.343,3.432-3.45,3.432s-3.432-1.624-3.432-3.432Zm8.627.564a3.989,3.989,0,0,0,.042-.564V140.52a1.277,1.277,0,0,1,.45.009.5.5,0,0,1,.014.072,1.979,1.979,0,0,1-.506,1.624Zm-10.706-7.232c.139-.648.564-2.618,4.423-2.618a8.921,8.921,0,0,1,3.311.594,9.72,9.72,0,0,0,1.3.379,2.593,2.593,0,0,0,1.873-.384,4.632,4.632,0,0,1-.012,4.2,3.674,3.674,0,0,1-.534.768,2.113,2.113,0,0,0-1.005-1.328,1.181,1.181,0,0,0-1.171.138,3.117,3.117,0,0,1-2.759.743,5.708,5.708,0,0,1-2.144-.737.89.89,0,0,0-1.337.429,6.161,6.161,0,0,1-.8,1.332,3.76,3.76,0,0,1-1.143-3.511Zm-.059,5.608a.505.505,0,0,1,.014-.072,1.034,1.034,0,0,1,.335-.018v1.149a3.978,3.978,0,0,0,.024.423,2.091,2.091,0,0,1-.373-1.483Zm5.714,8.546a1.869,1.869,0,0,1-1.828-1.4v-1.285a4.167,4.167,0,0,0,1.682.418,4.236,4.236,0,0,0,1.74-.443v1.368a1.517,1.517,0,0,1-1.594,1.34Z" transform="translate(-0.113 -115.998)"/>
      <path id="Trazado_933202" data-name="Trazado 933202" d="M34.394,352.048a.894.894,0,0,0-.894.894v2.906a.894.894,0,1,0,1.787,0v-2.906A.894.894,0,0,0,34.394,352.048Z" transform="translate(-29.77 -312.719)"/>
      <path id="Trazado_933203" data-name="Trazado 933203" d="M137.044,355.848v-2.906a.894.894,0,1,0-1.787,0v2.906a.894.894,0,1,0,1.787,0Z" transform="translate(-120.159 -312.719)"/>
      <path id="Trazado_933204" data-name="Trazado 933204" d="M363.147,352.048a.894.894,0,0,0-.894.894v2.906a.894.894,0,1,0,1.787,0v-2.906A.894.894,0,0,0,363.147,352.048Z" transform="translate(-321.796 -312.719)"/>
      <path id="Trazado_933205" data-name="Trazado 933205" d="M464.9,352.048a.894.894,0,0,0-.894.894v2.906a.894.894,0,1,0,1.787,0v-2.906A.894.894,0,0,0,464.9,352.048Z" transform="translate(-412.182 -312.719)"/>
    </g>
  </g>
</svg>
