<svg xmlns="http://www.w3.org/2000/svg" width="84.945" height="84.945" viewBox="0 0 84.945 84.945">
  <g id="Grupo_1097842" data-name="Grupo 1097842" transform="translate(-180 -12568)">
    <path id="Trazado_861607" data-name="Trazado 861607" d="M42.473,0A42.473,42.473,0,1,1,0,42.473,42.473,42.473,0,0,1,42.473,0Z" transform="translate(180 12568)" fill="#ffb6c8"/>
    <g id="judge_10295597" transform="translate(198.538 12585.538)">
      <g id="Grupo_1134730" data-name="Grupo 1134730" transform="translate(0.701 0.701)">
        <g id="Grupo_1134679" data-name="Grupo 1134679" transform="translate(12.676)">
          <path id="Trazado_938813" data-name="Trazado 938813" d="M144.32,21.068h1.337V19.611a3.183,3.183,0,0,1,3.179-3.179h.143a3.249,3.249,0,0,1,1.831.58,6.354,6.354,0,0,0,7.144,0,3.249,3.249,0,0,1,1.831-.58h.143a3.183,3.183,0,0,1,3.179,3.179v1.457h1.337a2.941,2.941,0,0,1,1.244.275V17.317A9.817,9.817,0,0,0,155.871,7.5h-2.978a9.817,9.817,0,0,0-9.817,9.817v4.026a2.94,2.94,0,0,1,1.244-.275Z" transform="translate(-143.076 -7.5)" fill="#d8aa5e"/>
        </g>
        <g id="Grupo_1134681" data-name="Grupo 1134681" transform="translate(24.885 0)">
          <g id="Grupo_1134680" data-name="Grupo 1134680">
            <path id="Trazado_938814" data-name="Trazado 938814" d="M274.248,7.5h-.585a9.817,9.817,0,0,1,5.533,8.835v.225a3.184,3.184,0,0,1,2.288,3.051v1.457h1.337a2.941,2.941,0,0,1,1.244.275V17.317A9.817,9.817,0,0,0,274.248,7.5Z" transform="translate(-273.663 -7.5)" fill="#c99c56"/>
          </g>
        </g>
        <g id="Grupo_1134729" data-name="Grupo 1134729" transform="translate(0 8.839)">
          <g id="Grupo_1134703" data-name="Grupo 1134703" transform="translate(2.82)">
            <g id="Grupo_1134684" data-name="Grupo 1134684" transform="translate(0 21.947)">
              <g id="Grupo_1134682" data-name="Grupo 1134682" transform="translate(38.027 0)">
                <path id="Trazado_938815" data-name="Trazado 938815" d="M444.394,348.582h4.794l-1.122-7.358a5.609,5.609,0,0,0-3.579-4.408l-.093-.035Z" transform="translate(-444.394 -336.781)" fill="#0067c5"/>
              </g>
              <g id="Grupo_1134683" data-name="Grupo 1134683" transform="translate(38.027 0)">
                <path id="Trazado_938816" data-name="Trazado 938816" d="M448.065,341.224a5.609,5.609,0,0,0-3.579-4.408l-.094-.035v1.168a5.608,5.608,0,0,1,1.74,3.275l1.122,7.358h1.933Z" transform="translate(-444.393 -336.781)" fill="#0055a3"/>
              </g>
              <path id="Trazado_938817" data-name="Trazado 938817" d="M40.276,345.309v-2.837a2.309,2.309,0,0,1,1.684-2.22V336.78l-.093.035a5.61,5.61,0,0,0-3.579,4.408l-.623,4.086Z" transform="translate(-37.665 -336.78)" fill="#0067c5"/>
            </g>
            <path id="Trazado_938818" data-name="Trazado 938818" d="M105.9,294.63H105.8l-5.985,11.42a.28.28,0,0,1-.5,0l-5.985-11.42h-.106l-10.62,3.976v3.465a2.3,2.3,0,0,1,.715-.114h2.3a1.369,1.369,0,0,1,1.376,1.3,1.336,1.336,0,0,1-.7,1.219l-.151.082.151.082a1.339,1.339,0,0,1,.106,2.29l-.254.171h3.846a.842.842,0,0,1,.841.841v2.431h25.689V298.606Z" transform="translate(-78.404 -276.624)" fill="#004281"/>
            <g id="Grupo_1134685" data-name="Grupo 1134685" transform="translate(4.202 18.006)">
              <path id="Trazado_938819" data-name="Trazado 938819" d="M93.755,295.437l-.528-.807-10.62,3.976v3.562H97.282Z" transform="translate(-82.606 -294.63)" fill="#0055a3"/>
            </g>
            <g id="Grupo_1134687" data-name="Grupo 1134687" transform="translate(34.23 20.525)">
              <g id="Grupo_1134686" data-name="Grupo 1134686">
                <path id="Trazado_938820" data-name="Trazado 938820" d="M403.787,321.578V334.8h3.89V323.034Z" transform="translate(-403.787 -321.578)" fill="#00366d"/>
              </g>
            </g>
            <g id="Grupo_1134688" data-name="Grupo 1134688" transform="translate(23.444 18.006)">
              <path id="Trazado_938821" data-name="Trazado 938821" d="M292.475,294.63l-.528.807-3.528,6.731H303.1v-3.562Z" transform="translate(-288.419 -294.63)" fill="#0055a3"/>
            </g>
            <g id="Grupo_1134689" data-name="Grupo 1134689" transform="translate(34.23 20.525)">
              <path id="Trazado_938822" data-name="Trazado 938822" d="M403.787,326.6h3.89v-3.562l-3.89-1.456Z" transform="translate(-403.787 -321.578)" fill="#004281"/>
            </g>
            <g id="Grupo_1134690" data-name="Grupo 1134690" transform="translate(14.822 15.998)">
              <path id="Trazado_938823" data-name="Trazado 938823" d="M204.918,274.541h-4.761a6.311,6.311,0,0,1-3.958-1.392v2.008l6.091,11.621a.28.28,0,0,0,.5,0l6.091-11.621v-2.008A6.311,6.311,0,0,1,204.918,274.541Z" transform="translate(-196.198 -273.149)" fill="#fff"/>
            </g>
            <g id="Grupo_1134691" data-name="Grupo 1134691" transform="translate(18.963 22.126)">
              <path id="Trazado_938824" data-name="Trazado 938824" d="M243.526,338.7h-1.7l-.079.093-1.263,3.688,1.95,3.72a.28.28,0,0,0,.5,0l1.95-3.72-1.263-3.688Z" transform="translate(-240.489 -338.698)" fill="#d8aa5e"/>
            </g>
            <g id="Grupo_1134693" data-name="Grupo 1134693" transform="translate(20.202 22.126)">
              <g id="Grupo_1134692" data-name="Grupo 1134692">
                <path id="Trazado_938825" data-name="Trazado 938825" d="M255.639,338.792l-.1-.093h-1.7l-.079.093-.024.07,2.076,5.681,1.081-2.064Z" transform="translate(-253.745 -338.698)" fill="#c99c56"/>
              </g>
            </g>
            <g id="Grupo_1134694" data-name="Grupo 1134694" transform="translate(18.3 18.111)">
              <path id="Trazado_938826" data-name="Trazado 938826" d="M236.585,295.858a.561.561,0,0,0-.648,0l-2.537,1.794,1.926,2.212h1.87l1.926-2.212Z" transform="translate(-233.4 -295.755)" fill="#e9b665"/>
            </g>
            <g id="Grupo_1134695" data-name="Grupo 1134695" transform="translate(20.198 18.111)">
              <path id="Trazado_938827" data-name="Trazado 938827" d="M254.987,295.858a.561.561,0,0,0-.413-.1.6.6,0,0,0-.25.107l-.624.441,1.053.745a.935.935,0,0,1,.165,1.377l-1.219,1.4.028.032h1.87l1.926-2.212Z" transform="translate(-253.7 -295.755)" fill="#d8aa5e"/>
            </g>
            <g id="Grupo_1134696" data-name="Grupo 1134696" transform="translate(14.822 15.998)">
              <path id="Trazado_938828" data-name="Trazado 938828" d="M204.918,274.541h-4.761a6.311,6.311,0,0,1-3.958-1.392v2.008l1.75,3.339,4.319-3.054a.468.468,0,0,1,.54,0l4.319,3.054,1.75-3.339v-2.008A6.311,6.311,0,0,1,204.918,274.541Z" transform="translate(-196.198 -273.149)" fill="#f9f3f1"/>
            </g>
            <g id="Grupo_1134698" data-name="Grupo 1134698" transform="translate(8.087 4.636)">
              <path id="Trazado_938829" data-name="Trazado 938829" d="M124.221,154.182a.843.843,0,0,1,.841.841v.374h1.054a2.109,2.109,0,0,0,1.618-.722,1.4,1.4,0,0,1,.79-.465v-2.588h-1.346a3.053,3.053,0,0,0-3.012,2.56Z" transform="translate(-124.166 -151.622)" fill="#ffb09e"/>
              <g id="Grupo_1134697" data-name="Grupo 1134697" transform="translate(21.789)">
                <path id="Trazado_938830" data-name="Trazado 938830" d="M358.562,151.622h-1.346v6.1h1.346a3.052,3.052,0,0,0,0-6.1Z" transform="translate(-357.216 -151.622)" fill="#f89580"/>
              </g>
            </g>
            <path id="Trazado_938831" data-name="Trazado 938831" d="M184.048,102.041H183.9a3.35,3.35,0,0,0-1.883.6,6.261,6.261,0,0,1-7.039,0,3.349,3.349,0,0,0-1.883-.6h-.143a3.272,3.272,0,0,0-3.272,3.272v3.977a1.4,1.4,0,0,1,1.782,1.348v4.768a1.4,1.4,0,0,1-.719,1.223,6.43,6.43,0,0,0,5.373,2.894h4.761a6.437,6.437,0,0,0,6.437-6.437v-7.773A3.272,3.272,0,0,0,184.048,102.041Z" transform="translate(-157.341 -102.041)" fill="#ffcebf"/>
            <g id="Grupo_1134700" data-name="Grupo 1134700" transform="translate(20.614 0)">
              <g id="Grupo_1134699" data-name="Grupo 1134699">
                <path id="Trazado_938832" data-name="Trazado 938832" d="M264.241,102.041H264.1a3.274,3.274,0,0,0-1.385.314,3.272,3.272,0,0,1,1.872,2.958v7.773a6.437,6.437,0,0,1-6.437,6.437h2.928a6.437,6.437,0,0,0,6.437-6.437v-7.773A3.272,3.272,0,0,0,264.241,102.041Z" transform="translate(-258.149 -102.041)" fill="#ffb09e"/>
              </g>
            </g>
            <g id="Grupo_1134701" data-name="Grupo 1134701" transform="translate(13.407 7.116)">
              <path id="Trazado_938833" data-name="Trazado 938833" d="M194.508,183.67a.467.467,0,0,1-.687-.251,2.84,2.84,0,0,0-2.7-1.961h-4.606a2.84,2.84,0,0,0-2.7,1.961.467.467,0,0,1-.687.251,6.468,6.468,0,0,1-1.345-1.077V184.4a1.4,1.4,0,0,1-.719,1.223,6.43,6.43,0,0,0,5.373,2.894H191.2a6.437,6.437,0,0,0,6.437-6.437v-3.93A6.432,6.432,0,0,1,194.508,183.67Z" transform="translate(-181.063 -178.149)" fill="#d8aa5e"/>
            </g>
            <g id="Grupo_1134702" data-name="Grupo 1134702" transform="translate(20.614 7.116)">
              <path id="Trazado_938834" data-name="Trazado 938834" d="M264.388,183.669a6.439,6.439,0,0,1-6.239,4.847h2.928a6.437,6.437,0,0,0,6.437-6.437v-3.93A6.432,6.432,0,0,1,264.388,183.669Z" transform="translate(-258.149 -178.149)" fill="#c99c56"/>
            </g>
          </g>
          <g id="Grupo_1134724" data-name="Grupo 1134724" transform="translate(0 7.102)">
            <g id="Grupo_1134721" data-name="Grupo 1134721">
              <g id="Grupo_1134716" data-name="Grupo 1134716">
                <g id="Grupo_1134705" data-name="Grupo 1134705" transform="translate(7.164 10.562)">
                  <g id="Grupo_1134704" data-name="Grupo 1134704">
                    <path id="Trazado_938835" data-name="Trazado 938835" d="M86.784,290.975H84.177l-.052,0v7.741a2.3,2.3,0,0,1,.573-.072h2.139v-7.669Z" transform="translate(-84.125 -290.972)" fill="#a44f3e"/>
                  </g>
                </g>
                <g id="Grupo_1134707" data-name="Grupo 1134707" transform="translate(8.461 10.562)">
                  <g id="Grupo_1134706" data-name="Grupo 1134706">
                    <path id="Trazado_938836" data-name="Trazado 938836" d="M99.362,290.975H98v7.667h1.414v-7.669Z" transform="translate(-98 -290.972)" fill="#883f2e"/>
                  </g>
                </g>
                <g id="Grupo_1134708" data-name="Grupo 1134708" transform="translate(6.419 7.667)">
                  <path id="Trazado_938837" data-name="Trazado 938837" d="M76.156,260v2.195a.8.8,0,0,0,.8.8H79.56a.8.8,0,0,0,.8-.8V260Z" transform="translate(-76.156 -260)" fill="#c96e59"/>
                </g>
                <g id="Grupo_1134709" data-name="Grupo 1134709" transform="translate(7.939 7.667)">
                  <path id="Trazado_938838" data-name="Trazado 938838" d="M93.209,260v2.195a.8.8,0,0,1-.8.8H94.3a.8.8,0,0,0,.8-.8V260Z" transform="translate(-92.412 -260)" fill="#bb5d4c"/>
                </g>
                <g id="Grupo_1134712" data-name="Grupo 1134712">
                  <g id="Grupo_1134710" data-name="Grupo 1134710" transform="translate(11.804)">
                    <path id="Trazado_938839" data-name="Trazado 938839" d="M137.49,178a1.491,1.491,0,0,0-1.139.527,2.023,2.023,0,0,1-1.547.689H133.75v5.329H134.8a2.023,2.023,0,0,1,1.546.689,1.5,1.5,0,0,0,2.635-.969V179.5A1.5,1.5,0,0,0,137.49,178Z" transform="translate(-133.75 -178)" fill="#a44f3e"/>
                  </g>
                  <g id="Grupo_1134711" data-name="Grupo 1134711">
                    <path id="Trazado_938840" data-name="Trazado 938840" d="M12.736,179.215H11.681a2.023,2.023,0,0,1-1.546-.689A1.5,1.5,0,0,0,7.5,179.5v4.768a1.5,1.5,0,0,0,2.635.969,2.023,2.023,0,0,1,1.547-.689h1.054Z" transform="translate(-7.5 -178)" fill="#a44f3e"/>
                  </g>
                </g>
                <g id="Grupo_1134715" data-name="Grupo 1134715" transform="translate(2.635 0.527)">
                  <g id="Grupo_1134713" data-name="Grupo 1134713" transform="translate(9.169 0)">
                    <path id="Trazado_938841" data-name="Trazado 938841" d="M134.8,184.324H133.75v5.329H134.8a2.023,2.023,0,0,1,1.546.689v-6.706A2.023,2.023,0,0,1,134.8,184.324Z" transform="translate(-133.75 -183.635)" fill="#c96e59"/>
                  </g>
                  <g id="Grupo_1134714" data-name="Grupo 1134714">
                    <path id="Trazado_938842" data-name="Trazado 938842" d="M38.282,184.323H37.227a2.023,2.023,0,0,1-1.546-.689v6.706a2.023,2.023,0,0,1,1.546-.689h1.054Z" transform="translate(-35.681 -183.634)" fill="#c96e59"/>
                  </g>
                </g>
              </g>
              <g id="Grupo_1134718" data-name="Grupo 1134718" transform="translate(5.338 18.138)">
                <g id="Grupo_1134717" data-name="Grupo 1134717">
                  <path id="Trazado_938843" data-name="Trazado 938843" d="M70.05,377.237l-.04-.024a3.912,3.912,0,0,1,.748-3.823A1.458,1.458,0,0,0,69.288,372h-2.3a2.4,2.4,0,0,0-2.4,2.4v2.837Z" transform="translate(-64.591 -372.001)" fill="#ffcebf"/>
                </g>
              </g>
              <g id="Grupo_1134720" data-name="Grupo 1134720" transform="translate(8.614 18.138)">
                <g id="Grupo_1134719" data-name="Grupo 1134719" transform="translate(0)">
                  <path id="Trazado_938844" data-name="Trazado 938844" d="M102.521,375.952a1.471,1.471,0,0,1,0-2.563A1.458,1.458,0,0,0,101.05,372H99.629a2.387,2.387,0,0,1,.5,1.464v3.772h1.684l-.04-.024A1.433,1.433,0,0,0,102.521,375.952Z" transform="translate(-99.629 -372)" fill="#ffb09e"/>
                </g>
              </g>
            </g>
            <g id="Grupo_1134722" data-name="Grupo 1134722" transform="translate(1.695 23.28)">
              <path id="Trazado_938845" data-name="Trazado 938845" d="M39.275,430.366v-2.431A.935.935,0,0,0,38.34,427H26.56a.935.935,0,0,0-.935.935v2.431Z" transform="translate(-25.625 -427)" fill="#d8aa5e"/>
            </g>
            <g id="Grupo_1134723" data-name="Grupo 1134723" transform="translate(11.079 23.28)">
              <path id="Trazado_938846" data-name="Trazado 938846" d="M129.331,427H126a.935.935,0,0,1,.935.935v2.431h3.331v-2.431A.935.935,0,0,0,129.331,427Z" transform="translate(-126 -427)" fill="#c99c56"/>
            </g>
          </g>
          <g id="Grupo_1134725" data-name="Grupo 1134725" transform="translate(0 33.654)">
            <path id="Trazado_938847" data-name="Trazado 938847" d="M53.5,465.973H7.967a.467.467,0,0,1-.467-.467v-3.039A.467.467,0,0,1,7.967,462H53.5a.467.467,0,0,1,.467.467v3.039A.467.467,0,0,1,53.5,465.973Z" transform="translate(-7.5 -462)" fill="#c96e59"/>
          </g>
          <g id="Grupo_1134726" data-name="Grupo 1134726" transform="translate(0 33.654)">
            <path id="Trazado_938848" data-name="Trazado 938848" d="M53.5,462H49.245v1.543a.468.468,0,0,1-.467.467H7.5v1.5a.467.467,0,0,0,.467.467H53.5a.467.467,0,0,0,.467-.467v-3.039A.467.467,0,0,0,53.5,462Z" transform="translate(-7.5 -462)" fill="#bb5d4c"/>
          </g>
          <g id="Grupo_1134727" data-name="Grupo 1134727" transform="translate(5.142 7.102)">
            <path id="Trazado_938849" data-name="Trazado 938849" d="M62.5,184.825v-5.89a.935.935,0,0,1,.935-.935H68.32a.935.935,0,0,1,.935.935v5.89a.935.935,0,0,1-.935.935H63.435A.935.935,0,0,1,62.5,184.825Z" transform="translate(-62.5 -178)" fill="#d8aa5e"/>
          </g>
          <g id="Grupo_1134728" data-name="Grupo 1134728" transform="translate(8.017 7.102)">
            <path id="Trazado_938850" data-name="Trazado 938850" d="M96.2,178H93.25a.935.935,0,0,1,.935.935v5.89a.935.935,0,0,1-.935.935H96.2a.935.935,0,0,0,.935-.935v-5.89A.935.935,0,0,0,96.2,178Z" transform="translate(-93.25 -178)" fill="#c99c56"/>
          </g>
        </g>
      </g>
      <g id="Grupo_1134731" data-name="Grupo 1134731" transform="translate(0 0)">
        <path id="Trazado_938851" data-name="Trazado 938851" d="M215.825,151.867a.7.7,0,0,0-.7.7v1.378a.7.7,0,1,0,1.4,0v-1.378A.7.7,0,0,0,215.825,151.867Z" transform="translate(-195.011 -137.668)"/>
        <path id="Trazado_938852" data-name="Trazado 938852" d="M298.577,151.867a.7.7,0,0,0-.7.7v1.378a.7.7,0,1,0,1.4,0v-1.378A.7.7,0,0,0,298.577,151.867Z" transform="translate(-270.026 -137.668)"/>
        <path id="Trazado_938853" data-name="Trazado 938853" d="M238.908,238.5H234.7a.7.7,0,1,0,0,1.4h4.207a.7.7,0,1,0,0-1.4Z" transform="translate(-212.122 -216.202)"/>
        <path id="Trazado_938854" data-name="Trazado 938854" d="M195.653,126.88l3.74.935a.7.7,0,0,0,.34-1.361l-3.74-.935a.7.7,0,1,0-.34,1.361Z" transform="translate(-176.879 -113.765)"/>
        <path id="Trazado_938855" data-name="Trazado 938855" d="M278.575,127.836a.7.7,0,0,0,.171-.021l3.74-.935a.7.7,0,0,0-.34-1.361l-3.74.935a.7.7,0,0,0,.17,1.382Z" transform="translate(-251.895 -113.764)"/>
        <path id="Trazado_938856" data-name="Trazado 938856" d="M46.934,42.517l-1.02-6.692a6.317,6.317,0,0,0-4.026-4.959h0l-.069-.026-10.1-3.78V25.987a7.125,7.125,0,0,0,2.467-5.005h.554a3.753,3.753,0,0,0,1.945-6.963v-3.5A10.53,10.53,0,0,0,26.171,0H23.194a10.43,10.43,0,0,0-6.3,2.1.7.7,0,1,0,.841,1.122A9.038,9.038,0,0,1,23.194,1.4h2.978a9.126,9.126,0,0,1,9.116,9.116v3a3.768,3.768,0,0,0-.543-.04H34.2v-.662a3.978,3.978,0,0,0-3.974-3.974h-.143a4.04,4.04,0,0,0-2.278.718,5.559,5.559,0,0,1-6.25,0,4.04,4.04,0,0,0-2.278-.718h-.143a3.978,3.978,0,0,0-3.974,3.974v.662h-.542a3.739,3.739,0,0,0-.543.04v-3a9.068,9.068,0,0,1,1.558-5.1.7.7,0,1,0-1.162-.785,10.466,10.466,0,0,0-1.8,5.883v3.5a3.759,3.759,0,0,0-1.58,1.92H6.778A1.638,1.638,0,0,0,5.2,17.156H4.882a1.316,1.316,0,0,1-1.012-.442A2.2,2.2,0,0,0,0,18.138v4.768A2.2,2.2,0,0,0,3.87,24.33a1.316,1.316,0,0,1,1.012-.442H5.2a1.641,1.641,0,0,0,1.22,1.174V26.5A1.5,1.5,0,0,0,7.164,27.8v3.2a6.317,6.317,0,0,0-3.713,4.831l-.526,3.449a1.638,1.638,0,0,0-1.231,1.583v1.636H1.169A1.17,1.17,0,0,0,0,43.662V46.7a1.17,1.17,0,0,0,1.169,1.169H46.7A1.17,1.17,0,0,0,47.869,46.7V43.662a1.171,1.171,0,0,0-.935-1.145ZM34.2,14.877h.542a2.351,2.351,0,1,1,0,4.7H34.2ZM2.635,23.568A.793.793,0,0,1,1.4,22.906V18.138a.793.793,0,0,1,1.232-.662Zm39.708,9.088a4.913,4.913,0,0,1,2.184,3.38l.985,6.457H42.343Zm-1.4-.648v2.374H28.23l3.125-5.963ZM25.3,31.059H24.067l-1.145-1.315L24.682,28.5l1.761,1.245Zm.821,4.33-1.437,2.742-1.437-2.742,1-2.928h.868ZM12.5,37.474a2.129,2.129,0,0,0,.409-1.326,2.061,2.061,0,0,0-.044-.363H14.3v3.436H12.85a2.129,2.129,0,0,0-.353-1.747Zm-.657-3.091a2.183,2.183,0,0,0-.563-.235V30.94l6.732-2.52,3.125,5.963Zm7.2-7.009v-.437a7.129,7.129,0,0,0,3.257.787h1.047L20.342,29.85ZM21,31.1l.772-.546,1.182,1.358-.6,1.763Zm5.017-3.379h1.047a7.092,7.092,0,0,0,3.257-.79v.439l-1.3,2.476Zm1.578,2.833.772.546-1.35,2.576-.6-1.763Zm-.531-4.236H22.3a5.735,5.735,0,0,1-4.365-2.016,2.187,2.187,0,0,0,.5-1.4v-.247c.063.04.125.08.189.119a1.169,1.169,0,0,0,1.017.094,1.156,1.156,0,0,0,.7-.729,2.132,2.132,0,0,1,2.033-1.476h4.606a2.132,2.132,0,0,1,2.033,1.476,1.156,1.156,0,0,0,.7.729,1.169,1.169,0,0,0,1.017-.094,7.119,7.119,0,0,0,2.056-1.872,5.743,5.743,0,0,1-5.727,5.416Zm-10.5-13.509a2.574,2.574,0,0,1,2.571-2.571h.143a2.643,2.643,0,0,1,1.488.474,6.962,6.962,0,0,0,7.829,0,2.643,2.643,0,0,1,1.488-.474h.143A2.574,2.574,0,0,1,32.8,12.813v3.843a5.69,5.69,0,0,1-2.552,4.771,3.53,3.53,0,0,0-3.262-2.163h-2.3a.824.824,0,0,1-.176-1.628,1.106,1.106,0,0,0,.878-1.085v-.768a.7.7,0,1,0-1.4,0v.545a2.241,2.241,0,0,0-1.525,2.113,2.213,2.213,0,0,0,.159.823H22.38a3.53,3.53,0,0,0-3.262,2.163,5.767,5.767,0,0,1-.676-.53V18.138a2.2,2.2,0,0,0-1.876-2.173V12.813Zm-.759,4.663a.793.793,0,0,1,1.232.662v4.768a.793.793,0,0,1-1.232.662Zm-1.186-2.6h.542v1.349a2.195,2.195,0,0,0-.592.488,1.317,1.317,0,0,1-1.012.442h-.317a1.644,1.644,0,0,0-.727-.973A2.355,2.355,0,0,1,14.621,14.877ZM14.4,18.431v4.182a2.848,2.848,0,0,0-.845-.128H13.3V18.559h.26a2.848,2.848,0,0,0,.845-.128ZM12.023,26.5V25.062a1.641,1.641,0,0,0,1.22-1.174h.317a1.316,1.316,0,0,1,1.012.442,2.193,2.193,0,0,0,2.16.719,7.149,7.149,0,0,0,.911.944V27.06l-6.364,2.383V27.8a1.5,1.5,0,0,0,.745-1.293ZM6.778,23.7a.234.234,0,0,1-.234-.234v-1.4a.7.7,0,0,0-1.4,0v.421h-.26a2.848,2.848,0,0,0-.845.128V18.431a2.848,2.848,0,0,0,.845.128h.26v.234a.7.7,0,0,0,1.4,0V17.577a.234.234,0,0,1,.234-.234h4.885a.234.234,0,0,1,.234.234v5.89a.234.234,0,0,1-.234.234Zm1.139,2.9H7.912a.1.1,0,0,1-.09-.095V25.1h2.8v1.4a.1.1,0,0,1-.09.095ZM9.875,28v6.077H8.566V28Zm-1.437,7.48h2.3a.757.757,0,0,1,.769.709.73.73,0,0,1-.383.667.7.7,0,0,0,0,1.232.731.731,0,0,1,.2,1.132H6.74V37.179A1.7,1.7,0,0,1,8.438,35.481Zm-3.6.555A4.914,4.914,0,0,1,7.115,32.6v1.779a3.1,3.1,0,0,0-1.778,2.8v2.042H4.352ZM3.1,40.857a.234.234,0,0,1,.234-.234h11.78a.234.234,0,0,1,.234.234v1.636H3.1Zm43.37,5.61H1.4V43.9H33.471a.7.7,0,1,0,0-1.4H16.747V40.857a1.637,1.637,0,0,0-1.04-1.522v-3.55h2.337V40.2a.7.7,0,0,0,1.4,0V35.785H21.87l1.943,3.708a.982.982,0,0,0,1.739,0L27.5,35.785h2.423V40.2a.7.7,0,0,0,1.4,0V35.785h2.337V40.2a.7.7,0,0,0,1.4,0V35.785H37.4V40.2a.7.7,0,0,0,1.4,0V35.785h2.14v6.708h-4.2a.7.7,0,1,0,0,1.4h9.723Z" transform="translate(0 0)"/>
      </g>
    </g>
  </g>
</svg>
