<svg xmlns="http://www.w3.org/2000/svg" width="84.945" height="84.945" viewBox="0 0 84.945 84.945">
  <g id="Grupo_1097880" data-name="Grupo 1097880" transform="translate(-185.986 -2772.87)">
    <path id="Trazado_861606" data-name="Trazado 861606" d="M42.473,0A42.473,42.473,0,1,1,0,42.473,42.473,42.473,0,0,1,42.473,0Z" transform="translate(185.986 2772.87)" fill="#ffb6c8"/>
    <g id="agreement_10295630" transform="translate(203.046 2762.226)">
      <g id="Grupo_1134743" data-name="Grupo 1134743" transform="translate(9.116 33.36)">
        <g id="Grupo_1134732" data-name="Grupo 1134732" transform="translate(0 0)">
          <path id="Trazado_938857" data-name="Trazado 938857" d="M117.155,83.656H87.438A1.476,1.476,0,0,1,86,82.144V41.653a1.476,1.476,0,0,1,1.438-1.512h29.717a1.476,1.476,0,0,1,1.438,1.512V82.144A1.476,1.476,0,0,1,117.155,83.656Z" transform="translate(-86 -40.141)" fill="#528fd8"/>
        </g>
        <g id="Grupo_1134733" data-name="Grupo 1134733" transform="translate(24.445)">
          <path id="Trazado_938858" data-name="Trazado 938858" d="M347.71,40.141H341a1.476,1.476,0,0,1,1.438,1.512V82.144A1.476,1.476,0,0,1,341,83.656h6.71a1.476,1.476,0,0,0,1.438-1.512V41.653A1.476,1.476,0,0,0,347.71,40.141Z" transform="translate(-341 -40.141)" fill="#0573ce"/>
        </g>
        <g id="Grupo_1134734" data-name="Grupo 1134734" transform="translate(2.876 2.876)">
          <path id="Trazado_938859" data-name="Trazado 938859" d="M142.362,107.9H116.479A.494.494,0,0,1,116,107.4V70.649a.494.494,0,0,1,.479-.508h25.883a.494.494,0,0,1,.479.508V107.4A.494.494,0,0,1,142.362,107.9Z" transform="translate(-116 -70.141)" fill="#fff"/>
        </g>
        <g id="Grupo_1134735" data-name="Grupo 1134735" transform="translate(25.883 2.876)">
          <path id="Trazado_938860" data-name="Trazado 938860" d="M359.355,70.141H356V107.9h3.355a.494.494,0,0,0,.479-.508V70.649A.494.494,0,0,0,359.355,70.141Z" transform="translate(-356 -70.141)" fill="#f9f3f1"/>
        </g>
        <g id="Grupo_1134736" data-name="Grupo 1134736" transform="translate(6.662 27.087)">
          <path id="Trazado_938861" data-name="Trazado 938861" d="M157.849,310.588h-1.869a.479.479,0,0,1-.479-.479v-1.63a.479.479,0,0,1,.479-.479h1.869a.479.479,0,0,1,.479.479v1.63A.479.479,0,0,1,157.849,310.588Z" transform="translate(-155.5 -308)" fill="#e9b665"/>
        </g>
        <g id="Grupo_1134738" data-name="Grupo 1134738" transform="translate(23.103 27.087)">
          <g id="Grupo_1134737" data-name="Grupo 1134737">
            <path id="Trazado_938862" data-name="Trazado 938862" d="M329.349,310.588h-1.869a.479.479,0,0,1-.479-.479v-1.63a.479.479,0,0,1,.479-.479h1.869a.479.479,0,0,1,.479.479v1.63A.479.479,0,0,1,329.349,310.588Z" transform="translate(-327 -308)" fill="#e9b665"/>
          </g>
        </g>
        <g id="Grupo_1134742" data-name="Grupo 1134742" transform="translate(11.695 24.296)">
          <g id="Grupo_1134739" data-name="Grupo 1134739">
            <circle id="Elipse_9783" data-name="Elipse 9783" cx="4.601" cy="4.601" r="4.601" fill="#e9b665"/>
          </g>
          <g id="Grupo_1134740" data-name="Grupo 1134740" transform="translate(2.684 2.684)">
            <circle id="Elipse_9784" data-name="Elipse 9784" cx="1.917" cy="1.917" r="1.917" fill="#d8aa5e"/>
          </g>
          <g id="Grupo_1134741" data-name="Grupo 1134741" transform="translate(3.691 2.684)">
            <path id="Trazado_938863" data-name="Trazado 938863" d="M247.411,305.859a1.908,1.908,0,0,0-.911.23,1.918,1.918,0,0,1,0,3.375,1.917,1.917,0,1,0,.911-3.6Z" transform="translate(-246.5 -305.859)" fill="#c99c56"/>
          </g>
        </g>
      </g>
      <g id="Grupo_1134764" data-name="Grupo 1134764" transform="translate(0 32.641)">
        <g id="Grupo_1134752" data-name="Grupo 1134752" transform="translate(45.026 7.616)">
          <g id="Grupo_1134744" data-name="Grupo 1134744" transform="translate(0 9.579)">
            <path id="Trazado_938864" data-name="Trazado 938864" d="M0,0H2.876V15.824H0Z" transform="translate(2.876 15.824) rotate(180)" fill="#528fd8"/>
          </g>
          <g id="Grupo_1134745" data-name="Grupo 1134745" transform="translate(1.294 9.579)">
            <path id="Trazado_938865" data-name="Trazado 938865" d="M465,200.907h1.582v15.824H465Z" transform="translate(-465 -200.907)" fill="#0573ce"/>
          </g>
          <g id="Grupo_1134746" data-name="Grupo 1134746" transform="translate(0 25.403)">
            <path id="Trazado_938866" data-name="Trazado 938866" d="M451.5,365.98l1.254,4.181a.192.192,0,0,0,.367,0l1.254-4.181Z" transform="translate(-451.5 -365.98)" fill="#cdbfba"/>
          </g>
          <g id="Grupo_1134747" data-name="Grupo 1134747" transform="translate(0.647 25.403)">
            <path id="Trazado_938867" data-name="Trazado 938867" d="M458.9,365.98l-.647,2.157.607,2.024a.192.192,0,0,0,.367,0l1.254-4.181Z" transform="translate(-458.25 -365.98)" fill="#b9acac"/>
          </g>
          <g id="Grupo_1134748" data-name="Grupo 1134748" transform="translate(0 2.824)">
            <path id="Trazado_938868" data-name="Trazado 938868" d="M0,0H2.876V6.755H0Z" transform="translate(2.876 6.755) rotate(180)" fill="#cdbfba"/>
          </g>
          <g id="Grupo_1134749" data-name="Grupo 1134749" transform="translate(1.294 2.824)">
            <path id="Trazado_938869" data-name="Trazado 938869" d="M465,130.444h1.582V137.2H465Z" transform="translate(-465 -130.444)" fill="#b9acac"/>
          </g>
          <g id="Grupo_1134750" data-name="Grupo 1134750" transform="translate(0)">
            <path id="Trazado_938870" data-name="Trazado 938870" d="M451.979,100.98H453.9a.479.479,0,0,1,.479.479V103.8H451.5v-2.345A.479.479,0,0,1,451.979,100.98Z" transform="translate(-451.5 -100.98)" fill="#528fd8"/>
          </g>
          <g id="Grupo_1134751" data-name="Grupo 1134751" transform="translate(0.815)">
            <path id="Trazado_938871" data-name="Trazado 938871" d="M461.582,100.98H460a.479.479,0,0,1,.479.479V103.8h1.582v-2.345A.479.479,0,0,0,461.582,100.98Z" transform="translate(-460 -100.98)" fill="#0573ce"/>
          </g>
        </g>
        <g id="Grupo_1134763" data-name="Grupo 1134763">
          <g id="Grupo_1134753" data-name="Grupo 1134753" transform="translate(2.924 17.403)">
            <path id="Trazado_938872" data-name="Trazado 938872" d="M30.5,200.907h2.876v15.824H30.5Z" transform="translate(-30.5 -200.907)" fill="#fd9468"/>
          </g>
          <g id="Grupo_1134754" data-name="Grupo 1134754" transform="translate(4.218 17.403)">
            <path id="Trazado_938873" data-name="Trazado 938873" d="M44,200.907h1.582v15.824H44Z" transform="translate(-44 -200.907)" fill="#fe7d43"/>
          </g>
          <g id="Grupo_1134755" data-name="Grupo 1134755" transform="translate(2.924 33.722)">
            <path id="Trazado_938874" data-name="Trazado 938874" d="M33.376,365.98l-1.254,4.181a.192.192,0,0,1-.367,0L30.5,365.98Z" transform="translate(-30.5 -365.98)" fill="#cdbfba"/>
          </g>
          <g id="Grupo_1134757" data-name="Grupo 1134757" transform="translate(3.571 33.722)">
            <g id="Grupo_1134756" data-name="Grupo 1134756">
              <path id="Trazado_938875" data-name="Trazado 938875" d="M37.9,365.98l-.647,2.157.607,2.024a.192.192,0,0,0,.367,0l1.254-4.181Z" transform="translate(-37.25 -365.98)" fill="#b9acac"/>
            </g>
          </g>
          <g id="Grupo_1134758" data-name="Grupo 1134758" transform="translate(2.924 9.929)">
            <path id="Trazado_938876" data-name="Trazado 938876" d="M30.5,130.444h2.876V137.2H30.5Z" transform="translate(-30.5 -130.444)" fill="#cdbfba"/>
          </g>
          <g id="Grupo_1134759" data-name="Grupo 1134759" transform="translate(4.218 9.929)">
            <path id="Trazado_938877" data-name="Trazado 938877" d="M44,130.444h1.582V137.2H44Z" transform="translate(-44 -130.444)" fill="#b9acac"/>
          </g>
          <g id="Grupo_1134760" data-name="Grupo 1134760" transform="translate(2.924 6.9)">
            <path id="Trazado_938878" data-name="Trazado 938878" d="M32.9,100.98H30.979a.479.479,0,0,0-.479.479V103.8h2.876v-2.345A.479.479,0,0,0,32.9,100.98Z" transform="translate(-30.5 -100.98)" fill="#fd9468"/>
          </g>
          <g id="Grupo_1134761" data-name="Grupo 1134761" transform="translate(3.739 6.9)">
            <path id="Trazado_938879" data-name="Trazado 938879" d="M40.582,100.98H39a.479.479,0,0,1,.479.479V103.8h1.582v-2.345A.479.479,0,0,0,40.582,100.98Z" transform="translate(-39 -100.98)" fill="#fe7d43"/>
          </g>
          <g id="Grupo_1134762" data-name="Grupo 1134762">
            <path id="Trazado_938880" data-name="Trazado 938880" d="M112.008,32.641H80.767A2.268,2.268,0,0,0,78.5,34.905V75.33a2.268,2.268,0,0,0,2.267,2.264h31.24a2.268,2.268,0,0,0,2.267-2.264V34.905A2.268,2.268,0,0,0,112.008,32.641Zm-10.43,1.509V35.66H91.2V34.15ZM91.2,37.169h10.38V37.8a.756.756,0,0,1-.756.755H91.954A.756.756,0,0,1,91.2,37.8ZM112.764,75.33a.756.756,0,0,1-.756.755H80.767a.756.756,0,0,1-.756-.755V34.905a.756.756,0,0,1,.756-.755h8.919V35.66h-6.9a1.26,1.26,0,0,0-1.26,1.258v36.4a1.26,1.26,0,0,0,1.26,1.258h17.736a.755.755,0,1,0,0-1.509H83.035v-35.9h6.651V37.8a2.268,2.268,0,0,0,2.267,2.264h8.868a2.268,2.268,0,0,0,2.267-2.264v-.626h6.651v35.9h-5.694a.755.755,0,1,0,0,1.509h5.946a1.26,1.26,0,0,0,1.26-1.258v-36.4a1.26,1.26,0,0,0-1.26-1.258h-6.9V34.15h8.919a.756.756,0,0,1,.756.755Z" transform="translate(-70.975 -32.641)"/>
            <path id="Trazado_938881" data-name="Trazado 938881" d="M149.2,304.526h1.869a1.2,1.2,0,0,0,1.2-1.2V301.7a1.2,1.2,0,0,0-1.2-1.2H149.2a1.2,1.2,0,0,0-1.2,1.2v1.63A1.2,1.2,0,0,0,149.2,304.526Zm.24-2.588h1.39v1.15h-1.39Z" transform="translate(-133.26 -273.413)"/>
            <path id="Trazado_938882" data-name="Trazado 938882" d="M322.568,300.5H320.7a1.2,1.2,0,0,0-1.2,1.2v1.63a1.2,1.2,0,0,0,1.2,1.2h1.869a1.2,1.2,0,0,0,1.2-1.2V301.7A1.2,1.2,0,0,0,322.568,300.5Zm-.24,2.588h-1.39v-1.15h1.39Z" transform="translate(-287.68 -273.413)"/>
            <path id="Trazado_938883" data-name="Trazado 938883" d="M149.73,361.359a.719.719,0,1,0,0,1.438h3.114a.719.719,0,1,0,0-1.438Z" transform="translate(-134.167 -328.226)"/>
            <path id="Trazado_938884" data-name="Trazado 938884" d="M155.72,391.939h-5.99a.719.719,0,0,0,0,1.438h5.99a.719.719,0,1,0,0-1.438Z" transform="translate(-134.128 -355.366)"/>
            <path id="Trazado_938885" data-name="Trazado 938885" d="M316.219,362.8h3.114a.719.719,0,1,0,0-1.438h-3.114a.719.719,0,0,0,0,1.438Z" transform="translate(-284.071 -328.226)"/>
            <path id="Trazado_938886" data-name="Trazado 938886" d="M292.928,392.658a.719.719,0,0,0-.719-.719h-5.99a.719.719,0,0,0,0,1.438h5.99A.719.719,0,0,0,292.928,392.658Z" transform="translate(-256.985 -355.366)"/>
            <path id="Trazado_938887" data-name="Trazado 938887" d="M190.219,132.8h11.312a.719.719,0,1,0,0-1.438H190.219a.719.719,0,1,0,0,1.438Z" transform="translate(-170.462 -121.409)"/>
            <path id="Trazado_938888" data-name="Trazado 938888" d="M149.73,169.184H168.8a.719.719,0,0,0,0-1.438H149.73a.719.719,0,1,0,0,1.438Z" transform="translate(-133.854 -154.128)"/>
            <path id="Trazado_938889" data-name="Trazado 938889" d="M149.73,205.571h2.156a.719.719,0,0,0,0-1.438H149.73a.719.719,0,0,0,0,1.438Z" transform="translate(-134.179 -186.847)"/>
            <path id="Trazado_938890" data-name="Trazado 938890" d="M212.645,204.133H198.219a.719.719,0,0,0,0,1.438h14.426a.719.719,0,1,0,0-1.438Z" transform="translate(-177.573 -186.847)"/>
            <path id="Trazado_938891" data-name="Trazado 938891" d="M324.758,240.521h-2.539a.719.719,0,1,0,0,1.438h2.539a.719.719,0,1,0,0-1.438Z" transform="translate(-289.489 -219.568)"/>
            <path id="Trazado_938892" data-name="Trazado 938892" d="M149.73,241.959h14.043a.719.719,0,1,0,0-1.438H149.73a.719.719,0,1,0,0,1.438Z" transform="translate(-133.985 -219.568)"/>
            <path id="Trazado_938893" data-name="Trazado 938893" d="M211.141,275.679a5.32,5.32,0,1,0-5.32,5.32A5.326,5.326,0,0,0,211.141,275.679Zm-5.32,3.882a3.882,3.882,0,1,1,3.882-3.882A3.887,3.887,0,0,1,205.82,279.562Z" transform="translate(-180.408 -246.063)"/>
            <path id="Trazado_938894" data-name="Trazado 938894" d="M231.136,298.359A2.636,2.636,0,1,0,233.772,301,2.639,2.639,0,0,0,231.136,298.359Zm0,3.834a1.2,1.2,0,1,1,1.2-1.2A1.2,1.2,0,0,1,231.136,302.193Z" transform="translate(-205.723 -271.442)"/>
            <path id="Trazado_938895" data-name="Trazado 938895" d="M449.32,96.5h-1.007V94.76a1.243,1.243,0,0,0-1.2-1.28H445.2a1.243,1.243,0,0,0-1.2,1.28v4.508a.721.721,0,1,0,1.438,0V98.034h1.438v5.68h-1.438v-.861a.721.721,0,1,0-1.438,0v18.535a.816.816,0,0,0,.029.221l1.254,4.467a.9.9,0,0,0,1.745,0l1.254-4.467a.815.815,0,0,0,.029-.221V98.034h.767v6.448a.721.721,0,1,0,1.438,0v-6.7A1.243,1.243,0,0,0,449.32,96.5Zm-3.882,0V95.016h1.438V96.5Zm.719,27.338-.472-1.679h.943Zm.719-3.216h-1.438V105.25h1.438Z" transform="translate(-399.693 -87.648)"/>
            <path id="Trazado_938896" data-name="Trazado 938896" d="M5.32,93.48H3.4a1.243,1.243,0,0,0-1.2,1.28V96.5H1.2A1.243,1.243,0,0,0,0,97.778v6.7a.745.745,0,0,0,.719.768.745.745,0,0,0,.719-.768V98.034H2.2v12.705a.745.745,0,0,0,.719.768.745.745,0,0,0,.719-.768V105.25H5.081v15.37H3.643v-6.3a.745.745,0,0,0-.719-.768.745.745,0,0,0-.719.768v7.065a.816.816,0,0,0,.029.221l1.254,4.467a.9.9,0,0,0,1.745,0l1.254-4.467a.816.816,0,0,0,.029-.221V94.76a1.243,1.243,0,0,0-1.2-1.28Zm-.959,30.356-.472-1.679h.943ZM3.643,95.016H5.081V96.5H3.643Zm0,8.7v-5.68H5.081v5.68Z" transform="translate(0 -87.648)"/>
          </g>
        </g>
      </g>
    </g>
  </g>
</svg>
