<svg xmlns="http://www.w3.org/2000/svg" width="84.945" height="84.945" viewBox="0 0 84.945 84.945">
  <g id="Grupo_1097879" data-name="Grupo 1097879" transform="translate(-185.986 -2874)">
    <path id="Trazado_861606" data-name="Trazado 861606" d="M42.473,0A42.473,42.473,0,1,1,0,42.473,42.473,42.473,0,0,1,42.473,0Z" transform="translate(185.986 2874)" fill="#ffb6c8"/>
    <g id="digital_2171148" transform="translate(201.556 2892.569)">
      <path id="Trazado_938897" data-name="Trazado 938897" d="M53.014,40v3.342H48V40Z" transform="translate(-7.727 -6.412)" fill="#aab2bd"/>
      <path id="Trazado_938898" data-name="Trazado 938898" d="M58.383,36v1.671a1.676,1.676,0,0,1-1.671,1.671H41.671A1.676,1.676,0,0,1,40,37.671V36Z" transform="translate(-6.412 -5.754)" fill="#ccd1d9"/>
      <circle id="Elipse_9785" data-name="Elipse 9785" cx="7.612" cy="7.612" r="7.612" transform="translate(37.055 1.529)" fill="#69d6f4"/>
      <path id="Trazado_938899" data-name="Trazado 938899" d="M58.383,25.671v8.356H40V25.671A1.676,1.676,0,0,1,41.671,24H56.712A1.676,1.676,0,0,1,58.383,25.671Z" transform="translate(-6.412 -3.781)" fill="#69d6f4"/>
      <path id="Trazado_938900" data-name="Trazado 938900" d="M13.7,3.671V5.342H2V3.671A1.676,1.676,0,0,1,3.671,2h8.356A1.676,1.676,0,0,1,13.7,3.671Z" transform="translate(-0.164 -0.164)" fill="#aab2bd"/>
      <path id="Trazado_938901" data-name="Trazado 938901" d="M13.7,20v1.671a1.676,1.676,0,0,1-1.671,1.671H3.671A1.676,1.676,0,0,1,2,21.671V20Z" transform="translate(-0.164 -3.124)" fill="#aab2bd"/>
      <path id="Trazado_938902" data-name="Trazado 938902" d="M13.7,11.849V17.7H2V6H13.7Z" transform="translate(-0.164 -0.822)" fill="#b4dd7f"/>
      <path id="Trazado_938903" data-name="Trazado 938903" d="M10.356,28A8.356,8.356,0,1,1,2,36.356,8.359,8.359,0,0,1,10.356,28Z" transform="translate(-0.164 -4.439)" fill="#ffeaa7"/>
      <ellipse id="Elipse_9786" data-name="Elipse 9786" cx="2.003" cy="1.602" rx="2.003" ry="1.602" transform="translate(8.211 33.578)" fill="#ff826e"/>
      <path id="Trazado_938904" data-name="Trazado 938904" d="M32.027,42.2a8.356,8.356,0,1,1-3.342,0v3.468a5.014,5.014,0,1,0,3.342,0Z" transform="translate(-3.453 -6.774)" fill="#ff826e"/>
      <path id="Trazado_938905" data-name="Trazado 938905" d="M33.342,44.977v3.05a1.671,1.671,0,1,1-3.342,0V39.671A1.676,1.676,0,0,1,31.671,38a1.683,1.683,0,0,1,1.671,1.671v5.306Z" transform="translate(-4.768 -6.083)" fill="#fc6e51"/>
      <path id="Trazado_938906" data-name="Trazado 938906" d="M50.3,23H35.259a2.51,2.51,0,0,0-2.507,2.507V35.534a2.51,2.51,0,0,0,2.507,2.507h4.178v1.671H37.766v1.671h4.178v4.178a.837.837,0,0,1-.836.836H36.056a9.221,9.221,0,0,0-6.645-8V37.205a2.507,2.507,0,1,0-5.014,0v1.187a9.222,9.222,0,0,0-6.645,8H11.863a.837.837,0,0,1-.836-.836v-.878a9.192,9.192,0,1,0-1.671,0v.878a2.51,2.51,0,0,0,2.507,2.507h5.892a9.187,9.187,0,0,0,18.3,0h5.056a2.51,2.51,0,0,0,2.507-2.507V41.383h4.178V39.712H46.122V38.041H50.3a2.51,2.51,0,0,0,2.507-2.507V25.507A2.51,2.51,0,0,0,50.3,23ZM2.671,35.534a7.52,7.52,0,1,1,7.52,7.52A7.53,7.53,0,0,1,2.671,35.534ZM26.9,48.068a2.51,2.51,0,0,0,2.507-2.507V43.9a4.178,4.178,0,1,1-5.014,0v1.663A2.51,2.51,0,0,0,26.9,48.068Zm-.836-10.863a.836.836,0,0,1,1.671,0v8.356a.836.836,0,1,1-1.671,0ZM26.9,54.753a7.517,7.517,0,0,1-2.507-14.6V41.97a5.849,5.849,0,1,0,5.014,0V40.148a7.517,7.517,0,0,1-2.507,14.6Zm8.356-30.081H50.3a.837.837,0,0,1,.836.836v7.52H34.424v-7.52A.837.837,0,0,1,35.259,24.671Zm9.192,15.041H41.108V38.041h3.342ZM50.3,36.369H35.259a.837.837,0,0,1-.836-.836V34.7H51.136v.836A.837.837,0,0,1,50.3,36.369Z" transform="translate(0 -3.617)"/>
      <path id="Trazado_938907" data-name="Trazado 938907" d="M3.507,21.054h8.356a2.51,2.51,0,0,0,2.507-2.507V11.863h8.356a.837.837,0,0,1,.836.836V23.561h1.671V12.7a2.51,2.51,0,0,0-2.507-2.507H14.369V3.507A2.51,2.51,0,0,0,11.863,1H3.507A2.51,2.51,0,0,0,1,3.507V18.547A2.51,2.51,0,0,0,3.507,21.054Zm8.356-1.671H3.507a.837.837,0,0,1-.836-.836v-.836H12.7v.836A.837.837,0,0,1,11.863,19.383ZM2.671,16.041V6.014H12.7V16.041ZM3.507,2.671h8.356a.837.837,0,0,1,.836.836v.836H2.671V3.507A.837.837,0,0,1,3.507,2.671Z"/>
      <path id="Trazado_938908" data-name="Trazado 938908" d="M14.014,41.507a2.507,2.507,0,1,0-2.507,2.507A2.51,2.51,0,0,0,14.014,41.507Zm-3.342,0a.836.836,0,1,1,.836.836A.837.837,0,0,1,10.671,41.507Z" transform="translate(-1.315 -6.247)"/>
      <path id="Trazado_938909" data-name="Trazado 938909" d="M14.141,37.9l1.182-1.182a5.856,5.856,0,0,0-8.272,0L8.233,37.9A4.183,4.183,0,0,1,14.141,37.9Z" transform="translate(-0.995 -5.59)"/>
      <path id="Trazado_938910" data-name="Trazado 938910" d="M16.039,34.875l1.182-1.182a9.2,9.2,0,0,0-13,0L5.4,34.875A7.53,7.53,0,0,1,16.039,34.875Z" transform="translate(-0.53 -4.933)"/>
      <path id="Trazado_938911" data-name="Trazado 938911" d="M28,34h1.671v1.671H28Z" transform="translate(-4.439 -5.425)"/>
      <path id="Trazado_938912" data-name="Trazado 938912" d="M28,30h1.671v1.671H28Z" transform="translate(-4.439 -4.768)"/>
      <path id="Trazado_938913" data-name="Trazado 938913" d="M34,34h1.671v1.671H34Z" transform="translate(-5.425 -5.425)"/>
      <path id="Trazado_938914" data-name="Trazado 938914" d="M34,30h1.671v1.671H34Z" transform="translate(-5.425 -4.768)"/>
      <path id="Trazado_938915" data-name="Trazado 938915" d="M35.671,11.027a.837.837,0,0,1,.836-.836h5.056a8.356,8.356,0,1,0,0-1.671H36.507A2.51,2.51,0,0,0,34,11.027V23.561h1.671ZM49.876,2.671c.262,0,.821.855,1.222,2.507H48.655c.4-1.652.96-2.507,1.222-2.507ZM51.4,6.849c.064.513.112,1.067.135,1.671H48.22c.023-.6.071-1.158.135-1.671Zm-1.52,9.192c-.262,0-.821-.855-1.222-2.507H51.1C50.7,15.186,50.138,16.041,49.876,16.041Zm-1.52-4.178c-.064-.513-.112-1.067-.135-1.671h3.311c-.023.6-.071,1.158-.135,1.671ZM53.2,10.192h3.3a6.621,6.621,0,0,1-.435,1.671H53.078C53.14,11.314,53.183,10.754,53.2,10.192ZM56.5,8.52H53.2c-.02-.562-.063-1.122-.125-1.671h2.991A6.656,6.656,0,0,1,56.5,8.52Zm-9.954,0h-3.3a6.621,6.621,0,0,1,.435-1.671h2.991C46.612,7.4,46.57,7.958,46.55,8.52Zm0,1.671c.02.562.063,1.122.125,1.671H43.684a6.656,6.656,0,0,1-.435-1.671Zm-1.883,3.342h2.272a11.14,11.14,0,0,0,.628,2.087,6.708,6.708,0,0,1-2.9-2.087Zm7.519,2.087a11.14,11.14,0,0,0,.628-2.087h2.272A6.708,6.708,0,0,1,52.186,15.621Zm2.9-10.443H52.814a11.14,11.14,0,0,0-.628-2.087A6.708,6.708,0,0,1,55.086,5.178ZM47.567,3.091a11.2,11.2,0,0,0-.628,2.087H44.666A6.708,6.708,0,0,1,47.567,3.091Z" transform="translate(-5.425)"/>
    </g>
  </g>
</svg>
