<svg xmlns="http://www.w3.org/2000/svg" width="84.945" height="84.945" viewBox="0 0 84.945 84.945">
  <g id="Grupo_1097877" data-name="Grupo 1097877" transform="translate(-185.986 -2974)">
    <path id="Trazado_861606" data-name="Trazado 861606" d="M42.473,0A42.473,42.473,0,1,1,0,42.473,42.473,42.473,0,0,1,42.473,0Z" transform="translate(185.986 2974)" fill="#ffb6c8"/>
    <g id="petition_12691634" transform="translate(204.374 2989.388)">
      <g id="Grupo_1134766" data-name="Grupo 1134766" transform="translate(0.793 0.793)">
        <path id="Trazado_938916" data-name="Trazado 938916" d="M43.36,72.258H8.5a1,1,0,0,1-1-1v-46a1,1,0,0,1,1-1h4.945l16.187,2.4,8.377-1.464,5.067.109a1,1,0,0,1,1,1l.282,44.952A1,1,0,0,1,43.36,72.258Z" transform="translate(-7.5 -22.481)" fill="#b3dafe"/>
        <path id="Trazado_938917" data-name="Trazado 938917" d="M300.471,25.252v46a1,1,0,0,1-1,1H293.44a1,1,0,0,0,1-1v-46a1,1,0,0,0-.478-.855l.562-.147h4.946A1,1,0,0,1,300.471,25.252Z" transform="translate(-263.187 -22.478)" fill="#8ac9fe"/>
        <path id="Trazado_938918" data-name="Trazado 938918" d="M89.1,24.25v3.24a3.755,3.755,0,0,1-3.752,3.751H67.462A3.755,3.755,0,0,1,63.71,27.49V24.25Z" transform="translate(-57.763 -22.478)" fill="#8ac9fe"/>
        <path id="Trazado_938919" data-name="Trazado 938919" d="M37.994,95.73V55.225a.529.529,0,0,1,.529-.529h2.192l14.872,1.653,9.778-1.036,2.309-.021a.529.529,0,0,1,.529.529l.623,39.909a.529.529,0,0,1-.529.529H38.523A.529.529,0,0,1,37.994,95.73Z" transform="translate(-34.768 -49.703)" fill="#f2fbff"/>
        <path id="Trazado_938920" data-name="Trazado 938920" d="M91.292,54.7H63.71v.018a3.751,3.751,0,0,0,3.751,3.751H85.348q.1,0,.207-.006A3.258,3.258,0,0,1,89.016,61.7V96.263h2.276a.529.529,0,0,0,.529-.529v-40.5A.529.529,0,0,0,91.292,54.7Z" transform="translate(-57.763 -49.706)" fill="#dff6fd"/>
        <path id="Trazado_938921" data-name="Trazado 938921" d="M103.236,14.147H85.349a1.635,1.635,0,0,1-1.635-1.635V9.135A1.635,1.635,0,0,1,85.349,7.5h17.887a1.635,1.635,0,0,1,1.635,1.635v3.376A1.635,1.635,0,0,1,103.236,14.147Z" transform="translate(-75.651 -7.5)" fill="#b3dafe"/>
        <path id="Trazado_938922" data-name="Trazado 938922" d="M99.717,101.179H77.9a.317.317,0,0,0-.317.317v2.96a.317.317,0,0,0,.317.317H99.717a.317.317,0,0,0,.317-.317V101.5A.317.317,0,0,0,99.717,101.179Z" transform="translate(-70.165 -91.268)" fill="#c8effe"/>
        <path id="Trazado_938923" data-name="Trazado 938923" d="M261.813,274.5a16.153,16.153,0,0,0-4.163.14,13.552,13.552,0,1,1,11.234-1.179C266.413,273.592,264.329,274.5,261.813,274.5Z" transform="translate(-222.95 -222.773)" fill="#ffe177"/>
        <path id="Trazado_938924" data-name="Trazado 938924" d="M307.377,342.783a2.462,2.462,0,0,0-.334,1.241l.033,2.645a14.342,14.342,0,0,0-1.847,1.568,13.545,13.545,0,0,1-9.067.14v-3.642a2.366,2.366,0,0,0-1.182-2.049q-.175-.1-.384-.21a5.46,5.46,0,0,1-3.083-4.807l0-3.008.47-.719c0-.266-.42-.53-.328-.763a2.05,2.05,0,0,1,1.907-1.3h.758l.2-.861c0-1.013,13.894.67,13.894,1.176l.349,5.078.022.639A9.652,9.652,0,0,1,307.377,342.783Z" transform="translate(-261.462 -296.507)" fill="#ce7165"/>
        <g id="Grupo_1134765" data-name="Grupo 1134765" transform="translate(33.107 30.267)">
          <path id="Trazado_938925" data-name="Trazado 938925" d="M334.958,346.3v3.593a9.791,9.791,0,0,1-1.378,4.893,2.462,2.462,0,0,0-.334,1.241V359.2a13.377,13.377,0,0,1-2.167,1.039v-4.213a2.462,2.462,0,0,1,.334-1.241,11.114,11.114,0,0,0,.876-1.726,7.72,7.72,0,0,0,.5-2.791.569.569,0,0,0-.446-.553,3.458,3.458,0,0,1-.8-.279.388.388,0,0,0-.369.01,3.532,3.532,0,0,1-3.664-.089.388.388,0,0,0-.37-.029,3.5,3.5,0,0,1-1.42.3,3.448,3.448,0,0,1-.494-.035,11.636,11.636,0,0,0-2.84.088c-.238.048-.75-.59-.75-.59l-1.221-4.966,13.837.075Z" transform="translate(-320.42 -338.772)" fill="#c46255"/>
          <path id="Trazado_938926" data-name="Trazado 938926" d="M426.6,312.52c0-1.013.361-2.021,1.381-2.021a1.838,1.838,0,0,1,1.844,1.834v3.9a1.839,1.839,0,0,1-1.846,1.834c-.694,0-1.469-1.023-1.469-2.036Z" transform="translate(-415.286 -308.708)" fill="#c46255"/>
          <path id="Trazado_938927" data-name="Trazado 938927" d="M355.339,295.492v5.351a1.762,1.762,0,0,0,.408,1.033c.288.4.435.791.945.862a1.754,1.754,0,0,0,.258.018,1.848,1.848,0,0,0,1.848-1.848l.6-2.224-.6-2.59v-.675a1.847,1.847,0,0,0-1.848-1.848A1.725,1.725,0,0,0,355.339,295.492Z" transform="translate(-351.645 -293.572)" fill="#c46255"/>
        </g>
        <path id="Trazado_938928" data-name="Trazado 938928" d="M415.9,312.335l-.834,2.135.834,1.763a1.821,1.821,0,0,0,.541,1.3,1.847,1.847,0,0,0,1.3.538V310.5A1.842,1.842,0,0,0,415.9,312.335Z" transform="translate(-371.95 -278.442)" fill="#ce7165"/>
        <path id="Trazado_938929" data-name="Trazado 938929" d="M390.021,307.293l.1.222c0,1.013.514,1.879,1.534,1.879a1.842,1.842,0,0,0,1.848-1.835v-5.054a1.841,1.841,0,0,0-1.848-1.834c-1.02,0-1.471,1.162-1.471,2.175Z" transform="translate(-349.55 -269.653)" fill="#c46255"/>
        <path id="Trazado_938930" data-name="Trazado 938930" d="M347.023,295.325v1.293l-.722,1.038.722,3.349a1.845,1.845,0,0,0,.808,1.434.67.67,0,0,0,1.037-.563v-8.3A1.848,1.848,0,0,0,347.023,295.325Z" transform="translate(-310.456 -263.305)" fill="#ce7165"/>
        <path id="Trazado_938931" data-name="Trazado 938931" d="M318.027,307.435v-.8a1.853,1.853,0,0,1,1.847-1.621l.757,3.1Z" transform="translate(-285.173 -273.541)" fill="#ce7165"/>
        <path id="Trazado_938932" data-name="Trazado 938932" d="M324,308.91a3.115,3.115,0,0,0-.443-.558,5.2,5.2,0,0,0-1.818-.79v-.709a1.818,1.818,0,0,0-.548-1.3,1.873,1.873,0,0,0-1.319-.538h0v2.231a.185.185,0,0,1-.185.185h-1.661v2.9l1.845.234a18.53,18.53,0,0,1,1.868,2.306c.288.4,1.025.168,1.536.239a3.45,3.45,0,0,0,1.2-2.55A3.1,3.1,0,0,0,324,308.91Z" transform="translate(-285.171 -273.541)" fill="#c46255"/>
        <path id="Trazado_938933" data-name="Trazado 938933" d="M388.044,302.443v5.179a1.841,1.841,0,0,0,1.845,1.772v-8.723a1.846,1.846,0,0,0-1.306.537A1.821,1.821,0,0,0,388.044,302.443Z" transform="translate(-347.782 -269.653)" fill="#ce7165"/>
        <path id="Trazado_938934" data-name="Trazado 938934" d="M296.081,347.844l-.4-2.145a.261.261,0,0,1,.256-.31l1.546-.006a1.764,1.764,0,1,0,.02-3.527h-3.274l-.55,0a2.154,2.154,0,0,0-2.171,2.046v.729l0,3.009a5.567,5.567,0,0,0,3.235,4.885Z" transform="translate(-261.455 -306.48)" fill="#ce7165"/>
      </g>
      <g id="Grupo_1134768" data-name="Grupo 1134768" transform="translate(0.793 0.793)">
        <path id="Trazado_938935" data-name="Trazado 938935" d="M43.36,72.258H8.5a1,1,0,0,1-1-1v-46a1,1,0,0,1,1-1h4.945l16.187,2.4,8.377-1.464,5.067.109a1,1,0,0,1,1,1l.282,44.952A1,1,0,0,1,43.36,72.258Z" transform="translate(-7.5 -22.481)" fill="#b3dafe"/>
        <path id="Trazado_938936" data-name="Trazado 938936" d="M300.471,25.252v46a1,1,0,0,1-1,1H293.44a1,1,0,0,0,1-1v-46a1,1,0,0,0-.478-.855l.562-.147h4.946A1,1,0,0,1,300.471,25.252Z" transform="translate(-263.187 -22.478)" fill="#8ac9fe"/>
        <path id="Trazado_938937" data-name="Trazado 938937" d="M89.1,24.25v3.24a3.755,3.755,0,0,1-3.752,3.751H67.462A3.755,3.755,0,0,1,63.71,27.49V24.25Z" transform="translate(-57.763 -22.478)" fill="#8ac9fe"/>
        <path id="Trazado_938938" data-name="Trazado 938938" d="M37.994,95.73V55.225a.529.529,0,0,1,.529-.529h2.192l14.872,1.653,9.778-1.036,2.309-.021a.529.529,0,0,1,.529.529l.623,39.909a.529.529,0,0,1-.529.529H38.523A.529.529,0,0,1,37.994,95.73Z" transform="translate(-34.768 -49.703)" fill="#f2fbff"/>
        <path id="Trazado_938939" data-name="Trazado 938939" d="M91.292,54.7H63.71v.018a3.751,3.751,0,0,0,3.751,3.751H85.348q.1,0,.207-.006A3.258,3.258,0,0,1,89.016,61.7V96.263h2.276a.529.529,0,0,0,.529-.529v-40.5A.529.529,0,0,0,91.292,54.7Z" transform="translate(-57.763 -49.706)" fill="#dff6fd"/>
        <path id="Trazado_938940" data-name="Trazado 938940" d="M103.236,14.147H85.349a1.635,1.635,0,0,1-1.635-1.635V9.135A1.635,1.635,0,0,1,85.349,7.5h17.887a1.635,1.635,0,0,1,1.635,1.635v3.376A1.635,1.635,0,0,1,103.236,14.147Z" transform="translate(-75.651 -7.5)" fill="#b3dafe"/>
        <path id="Trazado_938941" data-name="Trazado 938941" d="M99.717,101.179H77.9a.317.317,0,0,0-.317.317v2.96a.317.317,0,0,0,.317.317H99.717a.317.317,0,0,0,.317-.317V101.5A.317.317,0,0,0,99.717,101.179Z" transform="translate(-70.165 -91.268)" fill="#c8effe"/>
        <path id="Trazado_938942" data-name="Trazado 938942" d="M261.813,274.5a16.153,16.153,0,0,0-4.163.14,13.552,13.552,0,1,1,11.234-1.179C266.413,273.592,264.329,274.5,261.813,274.5Z" transform="translate(-222.95 -222.773)" fill="#ffe177"/>
        <path id="Trazado_938943" data-name="Trazado 938943" d="M307.377,342.783a2.462,2.462,0,0,0-.334,1.241l.033,2.645a14.342,14.342,0,0,0-1.847,1.568,13.545,13.545,0,0,1-9.067.14v-3.642a2.366,2.366,0,0,0-1.182-2.049q-.175-.1-.384-.21a5.46,5.46,0,0,1-3.083-4.807l0-3.008.47-.719c0-.266-.42-.53-.328-.763a2.05,2.05,0,0,1,1.907-1.3h.758l.2-.861c0-1.013,13.894.67,13.894,1.176l.349,5.078.022.639A9.652,9.652,0,0,1,307.377,342.783Z" transform="translate(-261.462 -296.507)" fill="#ce7165"/>
        <g id="Grupo_1134767" data-name="Grupo 1134767" transform="translate(33.107 30.267)">
          <path id="Trazado_938944" data-name="Trazado 938944" d="M334.958,346.3v3.593a9.791,9.791,0,0,1-1.378,4.893,2.462,2.462,0,0,0-.334,1.241V359.2a13.377,13.377,0,0,1-2.167,1.039v-4.213a2.462,2.462,0,0,1,.334-1.241,11.114,11.114,0,0,0,.876-1.726,7.72,7.72,0,0,0,.5-2.791.569.569,0,0,0-.446-.553,3.458,3.458,0,0,1-.8-.279.388.388,0,0,0-.369.01,3.532,3.532,0,0,1-3.664-.089.388.388,0,0,0-.37-.029,3.5,3.5,0,0,1-1.42.3,3.448,3.448,0,0,1-.494-.035,11.636,11.636,0,0,0-2.84.088c-.238.048-.75-.59-.75-.59l-1.221-4.966,13.837.075Z" transform="translate(-320.42 -338.772)" fill="#c46255"/>
          <path id="Trazado_938945" data-name="Trazado 938945" d="M426.6,312.52c0-1.013.361-2.021,1.381-2.021a1.838,1.838,0,0,1,1.844,1.834v3.9a1.839,1.839,0,0,1-1.846,1.834c-.694,0-1.469-1.023-1.469-2.036Z" transform="translate(-415.286 -308.708)" fill="#c46255"/>
          <path id="Trazado_938946" data-name="Trazado 938946" d="M355.339,295.492v5.351a1.762,1.762,0,0,0,.408,1.033c.288.4.435.791.945.862a1.754,1.754,0,0,0,.258.018,1.848,1.848,0,0,0,1.848-1.848l.6-2.224-.6-2.59v-.675a1.847,1.847,0,0,0-1.848-1.848A1.725,1.725,0,0,0,355.339,295.492Z" transform="translate(-351.645 -293.572)" fill="#c46255"/>
        </g>
        <path id="Trazado_938947" data-name="Trazado 938947" d="M415.9,312.335l-.834,2.135.834,1.763a1.821,1.821,0,0,0,.541,1.3,1.847,1.847,0,0,0,1.3.538V310.5A1.842,1.842,0,0,0,415.9,312.335Z" transform="translate(-371.95 -278.442)" fill="#ce7165"/>
        <path id="Trazado_938948" data-name="Trazado 938948" d="M390.021,307.293l.1.222c0,1.013.514,1.879,1.534,1.879a1.842,1.842,0,0,0,1.848-1.835v-5.054a1.841,1.841,0,0,0-1.848-1.834c-1.02,0-1.471,1.162-1.471,2.175Z" transform="translate(-349.55 -269.653)" fill="#c46255"/>
        <path id="Trazado_938949" data-name="Trazado 938949" d="M347.023,295.325v1.293l-.722,1.038.722,3.349a1.845,1.845,0,0,0,.808,1.434.67.67,0,0,0,1.037-.563v-8.3A1.848,1.848,0,0,0,347.023,295.325Z" transform="translate(-310.456 -263.305)" fill="#ce7165"/>
        <path id="Trazado_938950" data-name="Trazado 938950" d="M318.027,307.435v-.8a1.853,1.853,0,0,1,1.847-1.621l.757,3.1Z" transform="translate(-285.173 -273.541)" fill="#ce7165"/>
        <path id="Trazado_938951" data-name="Trazado 938951" d="M324,308.91a3.115,3.115,0,0,0-.443-.558,5.2,5.2,0,0,0-1.818-.79v-.709a1.818,1.818,0,0,0-.548-1.3,1.873,1.873,0,0,0-1.319-.538h0v2.231a.185.185,0,0,1-.185.185h-1.661v2.9l1.845.234a18.53,18.53,0,0,1,1.868,2.306c.288.4,1.025.168,1.536.239a3.45,3.45,0,0,0,1.2-2.55A3.1,3.1,0,0,0,324,308.91Z" transform="translate(-285.171 -273.541)" fill="#c46255"/>
        <path id="Trazado_938952" data-name="Trazado 938952" d="M388.044,302.443v5.179a1.841,1.841,0,0,0,1.845,1.772v-8.723a1.846,1.846,0,0,0-1.306.537A1.821,1.821,0,0,0,388.044,302.443Z" transform="translate(-347.782 -269.653)" fill="#ce7165"/>
        <path id="Trazado_938953" data-name="Trazado 938953" d="M296.081,347.844l-.4-2.145a.261.261,0,0,1,.256-.31l1.546-.006a1.764,1.764,0,1,0,.02-3.527h-3.274l-.55,0a2.154,2.154,0,0,0-2.171,2.046v.729l0,3.009a5.567,5.567,0,0,0,3.235,4.885Z" transform="translate(-261.455 -306.48)" fill="#ce7165"/>
      </g>
      <g id="Grupo_1134769" data-name="Grupo 1134769" transform="translate(0 0)">
        <path id="Trazado_938954" data-name="Trazado 938954" d="M119.741,154.46a7.432,7.432,0,0,0-5.292,2.194h0a7.509,7.509,0,0,0,0,10.6,7.48,7.48,0,0,0,10.586,0h0a7.509,7.509,0,0,0,0-10.6A7.432,7.432,0,0,0,119.741,154.46Zm-4.171,11.672a5.921,5.921,0,0,1-.523-7.754l8.266,8.276a5.892,5.892,0,0,1-7.744-.523Zm8.864-.6-8.266-8.276a5.892,5.892,0,0,1,7.743.523A5.921,5.921,0,0,1,124.434,165.531Z" transform="translate(-100.381 -138.118)"/>
        <path id="Trazado_938955" data-name="Trazado 938955" d="M72.035,411.413h5.722a.794.794,0,1,0,0-1.587H72.035a.794.794,0,1,0,0,1.587Z" transform="translate(-63.704 -366.466)"/>
        <path id="Trazado_938956" data-name="Trazado 938956" d="M88.954,354.643a.794.794,0,0,0,1.178-.123l2.73-3.79a.793.793,0,0,0-1.288-.927l-2.21,3.069-.37-.336a.793.793,0,1,0-1.067,1.174Z" transform="translate(-78.391 -312.497)"/>
        <path id="Trazado_938957" data-name="Trazado 938957" d="M70.874,98.861H93.329a.793.793,0,0,0,.794-.794v-3.6a.793.793,0,0,0-.794-.794H70.874a.793.793,0,0,0-.794.794v3.6A.793.793,0,0,0,70.874,98.861Zm.794-3.6H92.536v2.008H71.667Z" transform="translate(-62.666 -83.768)"/>
        <path id="Trazado_938958" data-name="Trazado 938958" d="M52.265,32.679a14.469,14.469,0,0,0-5.01-5.131.794.794,0,1,0-.825,1.356,12.879,12.879,0,0,1,4.459,4.567,12.754,12.754,0,0,1-3.478,16.605V48.5a1.691,1.691,0,0,1,.23-.854,10.75,10.75,0,0,0,1.471-4.6V39.076a2.64,2.64,0,0,0,.032-.408V34.726a2.661,2.661,0,0,0-4.033-2.268,2.668,2.668,0,0,0-3.865-.97,2.66,2.66,0,0,0-4.666.351,2.681,2.681,0,0,0-4,2.3v1.307A2.871,2.871,0,0,0,30,38.3l0,3.78a6.322,6.322,0,0,0,3.55,5.565c.128.066.252.134.369.2a1.594,1.594,0,0,1,.785,1.377v2.285a12.762,12.762,0,0,1,8.531-23.986.794.794,0,0,0,.425-1.529,14.317,14.317,0,0,0-3.837-.522c-.322,0-.642.012-.959.033V18.591a.794.794,0,1,0-1.587,0V25.7a14.207,14.207,0,0,0-1.639.4V5.787a.793.793,0,0,0-.794-.794H30.808V3.359h6.268a.208.208,0,0,1,.208.208V14.879a.794.794,0,1,0,1.587,0V3.568a1.8,1.8,0,0,0-1.8-1.8H30.717A2.433,2.433,0,0,0,28.379,0H10.492A2.433,2.433,0,0,0,8.154,1.772H1.8A1.8,1.8,0,0,0,0,3.568v46a1.8,1.8,0,0,0,1.8,1.8H31.261c.02,0,.04,0,.059,0A14.339,14.339,0,0,0,52.265,32.679Zm-5.779.985a1.068,1.068,0,0,1,1.071,1.061v3.942a1.074,1.074,0,0,1-2.147,0V34.726a1.07,1.07,0,0,1,1.076-1.061Zm-3.739-1.051a1.07,1.07,0,0,1,1.076,1.061v5.11a1.076,1.076,0,0,1-2.151,0c0-.054,0-5.11,0-5.11A1.07,1.07,0,0,1,42.747,32.613Zm-4.814.316a1.076,1.076,0,0,1,2.151,0v5.549a1.076,1.076,0,0,1-1.54.971,2.577,2.577,0,0,0-.611-3.511V32.929Zm-2.677.149a1.077,1.077,0,0,1,1.09,1.061v1.292H34.165V34.14A1.077,1.077,0,0,1,35.255,33.078ZM1.587,49.569v-46A.208.208,0,0,1,1.8,3.359H8.064V4.993H4.02a.793.793,0,0,0-.794.794V36.859a.794.794,0,0,0,1.587,0V6.58H8.191a2.433,2.433,0,0,0,2.3,1.653h2.089a.794.794,0,0,0,0-1.587H10.492a.843.843,0,0,1-.842-.842V2.429a.843.843,0,0,1,.842-.842H28.379a.843.843,0,0,1,.842.842V5.805a.843.843,0,0,1-.842.842H16.438a.794.794,0,0,0,0,1.587H28.379a2.433,2.433,0,0,0,2.3-1.653h3.378V26.687A14.435,14.435,0,0,0,27.2,33.027h-19a.794.794,0,1,0,0,1.587H26.469a14.244,14.244,0,0,0-.891,3.639H17.751a.794.794,0,0,0,0,1.587h7.741a14.331,14.331,0,0,0,.442,3.52H17.751a.794.794,0,0,0,0,1.587h8.687a14.3,14.3,0,0,0,.735,1.61H4.813V40.571a.794.794,0,1,0-1.587,0v6.78a.793.793,0,0,0,.794.794H28.157a14.469,14.469,0,0,0,1.359,1.634H1.8a.208.208,0,0,1-.208-.208ZM36.3,52.084V49.222a3.186,3.186,0,0,0-1.574-2.749c-.14-.082-.289-.163-.441-.241a4.743,4.743,0,0,1-2.688-4.154l0-3.78a1.281,1.281,0,0,1,1.281-1.279H36.4a.994.994,0,0,1,0,1.988H34.709a.794.794,0,0,0-.78.941l.468,2.481a.794.794,0,0,0,.737.645,3.85,3.85,0,0,1,3.754,2.795.793.793,0,1,0,1.506-.5,5.376,5.376,0,0,0-4.548-3.818l-.18-.956H36.4a2.57,2.57,0,0,0,.826-.136,2.659,2.659,0,0,0,3.5.051,2.666,2.666,0,0,0,3.947.1,2.667,2.667,0,0,0,2.85.5V43.02a9.258,9.258,0,0,1-1.254,3.828,3.28,3.28,0,0,0-.447,1.656v2.578a12.738,12.738,0,0,1-9.526,1Z" transform="translate(0 0)"/>
      </g>
    </g>
  </g>
</svg>
