<svg xmlns="http://www.w3.org/2000/svg" xmlns:xlink="http://www.w3.org/1999/xlink" width="1600" height="2972" viewBox="0 0 1600 2972">
  <defs>
    <clipPath id="clip-path">
      <rect id="Rect치ngulo_417381" data-name="Rect치ngulo 417381" width="1600" height="2972" transform="translate(0 3259)" fill="none"/>
    </clipPath>
    <clipPath id="clip-path-2">
      <rect id="Rect치ngulo_405841" data-name="Rect치ngulo 405841" width="1600" height="1450" transform="translate(0 230)" fill="#12263f" opacity="0.33"/>
    </clipPath>
  </defs>
  <g id="Enmascarar_grupo_1079219" data-name="Enmascarar grupo 1079219" transform="translate(0 -3259)" clip-path="url(#clip-path)">
    <g id="Grupo_1106713" data-name="Grupo 1106713" transform="translate(0 -8475.973)">
      <path id="Trazado_910553" data-name="Trazado 910553" d="M0,22.231a5.387,5.387,0,0,0,5.383,5.38H16.861V39.081a5.383,5.383,0,0,0,10.766,0V27.61H39.1a5.38,5.38,0,1,0,0-10.759H27.628V5.38a5.383,5.383,0,0,0-10.766,0V16.851H5.383A5.387,5.387,0,0,0,0,22.231Zm17.759-3.586a.9.9,0,0,0,.9-.9V5.38a3.589,3.589,0,0,1,7.177,0V17.747a.9.9,0,0,0,.9.9H39.1a3.586,3.586,0,1,1,0,7.173H26.73a.9.9,0,0,0-.9.9V39.081a3.589,3.589,0,0,1-7.177,0V26.714a.9.9,0,0,0-.9-.9H5.383a3.586,3.586,0,1,1,0-7.173Z" transform="translate(99.582 12312.726) rotate(45)" fill="#7ea7f9" fill-rule="evenodd"/>
      <path id="Trazado_910554" data-name="Trazado 910554" d="M0,22.252a5.387,5.387,0,0,0,5.383,5.38H16.86V39.1a5.383,5.383,0,0,0,10.766,0V27.631H39.1a5.38,5.38,0,1,0,0-10.759H27.627V5.4a5.383,5.383,0,0,0-10.766,0V16.872H5.382A5.387,5.387,0,0,0,0,22.252Zm17.759-3.586a.9.9,0,0,0,.9-.9V5.4a3.589,3.589,0,0,1,7.177,0V17.768a.9.9,0,0,0,.9.9H39.1a3.586,3.586,0,1,1,0,7.173H26.729a.9.9,0,0,0-.9.9V39.1a3.589,3.589,0,0,1-7.177,0V26.735a.9.9,0,0,0-.9-.9H5.382a3.586,3.586,0,1,1,0-7.173Z" transform="translate(1539.598 11993.184) rotate(45)" fill="#bad1ff" fill-rule="evenodd"/>
    </g>
    <g id="Enmascarar_grupo_1079067" data-name="Enmascarar grupo 1079067" transform="translate(0 3004)" clip-path="url(#clip-path-2)">
      <path id="Trazado_911331" data-name="Trazado 911331" d="M460.225,194.379a58.741,58.741,0,0,1,8.631-4.432c.643-.286,1.251-.5,1.894-.751.643-.268,1.269-.5,1.841-.7,1.412-.536,2.895-1.09,4.557-1.715l4.664.375c7.541-3.27,2.895-2.68,8.077-5.5a124.875,124.875,0,0,0,13.474-3.949,102.834,102.834,0,0,1,10.221-2.966c2.252.411-2.341,1.644-3.252,2.484,2.019-.7,3.413-1.144,4.61-1.68,1.179-.447,2.109-.893,3.127-1.34a21.4,21.4,0,0,1,9.078-1.59l.143.5a21.008,21.008,0,0,1,2.144-.107l1.09-.036h.5l.25-.036,1.054-.054h.715a2.567,2.567,0,0,1,2.52,1.59,3.78,3.78,0,0,1,.143,1.68,5.168,5.168,0,0,1-.143.893c-.036.179-.143.447-.2.679a8.367,8.367,0,0,1-.268.8,99.937,99.937,0,0,1-4.682,10.025c-3.627,7.076-7.952,14.367-11.061,23.248-.393,1.09-.75,2.269-1.054,3.467-.339,1.144-.572,2.466-.822,3.717a36.222,36.222,0,0,0-.447,4.039,26.752,26.752,0,0,0,.214,4.432c.125.768.214,1.59.411,2.359.214.751.465,1.519.715,2.252a11.8,11.8,0,0,0,.947,2.216,18.621,18.621,0,0,0,1.019,1.823,23.176,23.176,0,0,0,5.915,6.594c-2.43-2.2-1.465-2.019-2.055-3.127a20.083,20.083,0,0,0,6.236,4.61,22.042,22.042,0,0,0,7.309,2,37.226,37.226,0,0,0,12.938-1.269c7.827-2.055,14.635-5.254,21.229-8.309q4.825-2.305,9.578-4.575c3.61-1.644,4.914-2.341,7.148-3.234a21.623,21.623,0,0,1,6.88-1.715,8.1,8.1,0,0,1,3.574.643,7.839,7.839,0,0,1,2.7,2.234,6.429,6.429,0,0,1,1.573,4.575,14.222,14.222,0,0,1-1.179,4.5,20.466,20.466,0,0,0,2.395-4.718,8.018,8.018,0,0,0-.357-5.843,7.782,7.782,0,0,0-3.842-4.253,11.869,11.869,0,0,0-5.986-.768,47.814,47.814,0,0,0-12.473,3.431,181.988,181.988,0,0,0-22.873,11.311c-3.413.572-7.487,2.073-11.347,2.913-3.824.876-7.505.876-8.881-.232a16.781,16.781,0,0,1-8.845-3.628,19.249,19.249,0,0,1-5-6.808,18.861,18.861,0,0,1-1.251-7.684,35.543,35.543,0,0,1,1.054-7.13c2.323-9.113,6.5-17.3,12.223-28,1.876-2.913,1.912-1.019,3.163-1.519,0,0-1.984,4.414-4.217,8.81-1.09,2.2-2.18,4.414-3,6.076-.8,1.662-1.34,2.788-1.34,2.788s1.555-2.573,3.181-5.111l3.234-5.057c-.876,2.466-3.038,6.379-4.753,9.953-1.751,3.574-2.948,6.862-2.484,7.845a87.776,87.776,0,0,1,5.736-13.134c2.377-4.646,5.093-9.471,7.255-14.51a34.927,34.927,0,0,0,2.52-7.845,11.593,11.593,0,0,0-.84-7.612,9.448,9.448,0,0,0-5.575-4.164c-.536-.143-1.054-.286-1.573-.429-.518-.125-1.054-.143-1.555-.214-.5-.054-.983-.107-1.465-.161-.482,0-.947,0-1.412.018a20.472,20.472,0,0,1,2.466.572,16.2,16.2,0,0,1,2.5.786,10.434,10.434,0,0,1,4.557,3.02,8,8,0,0,1,1.751,5.379,18.893,18.893,0,0,1-1.126,5.718c-1.537,3.038-4.539,7.9-5.164,7.13a71.422,71.422,0,0,0,2.448-7.595,13.279,13.279,0,0,0,.286-5.9,6.214,6.214,0,0,0-3.52-4.2,5.71,5.71,0,0,0-1.287-.518,6.951,6.951,0,0,0-1.322-.375l-1.34-.286-1.5-.179c-.876-.143-2.323-.2-3.538-.3-1.269-.125-2.52-.036-3.806-.072-1.269,0-2.573.143-3.86.214-1.3.107-2.609.3-3.931.465a94.929,94.929,0,0,0-16.351,4.128c-5.647,1.912-13.474,4.557-14.724,4.056,3.681-1.608.59-1.3,3.556-2.788-7.934,3.556.3,3.288-11.758,7.112l.536-3.413a9.608,9.608,0,0,1-4.021,2.734c-.858.34-1.769.643-2.752.929-.929.268-1.894.536-2.877.822-4,1.144-8.577,2.663-12.312,5.307-3.449.179,1.733-2.913,7.952-5.611-7.362,2.484-7.237,4.5-13.063,6.9l4.414-4.735c-5.075,4.95-11.222,4.217-14.975,4.539-.107.375.822.75.786,1.358,0,.3-.286.643-1.054,1.072a15.819,15.819,0,0,1-4.128,1.394c-3.645.482-1.948-.59-2.859-.768a4.589,4.589,0,0,1-2.412,1.573,13.182,13.182,0,0,1-2.752.786c-.554.089-1.144.179-1.787.25-.643.054-1.34.036-2.073.036-.518-.447.465-.751,1.59-1.054,1.108-.34,2.359-.786,2.5-1.233a35.758,35.758,0,0,1-5.129.089h.018a9.868,9.868,0,0,1,1.7-5.272c1.072-3.467.679-3.074.071-2.609-.59.536-1.34,1.215-.965-.375,2.859-4.36,4.271-5.254,5.111-5.307.84-.089,1.608.7,3.735-1.8a66.982,66.982,0,0,1-2.537,7.38c-.625,1.5-1.287,3.109-1.894,4.7-.2.751-.375,1.483-.572,2.216.036.393.054.768.054,1.144-1.519-1.626-3.02-3.27-4.36-4.7a26.563,26.563,0,0,0,7.9-1.34,35.266,35.266,0,0,1-7.863.893l4.771,5.146V189.7l.643-2.162c.679-1.555,1.376-3.109,2.109-4.628.322.554,2.806-3.252,4.217-5.575.715-1.144,1.287-2.055,1.537-2.055.143-.018.2.2.125.733a13.025,13.025,0,0,1-.679,2.788,40.021,40.021,0,0,0,3.735-12.223,30.435,30.435,0,0,0,.268-6.576l-.071-.965c-.036-.3-.2-.268-.286-.429-.232-.214-.447-.429-.679-.679-.465-.447-.929-1.054-1.412-1.608-7.237,2.126-14.617,4.271-21.837,6.683-3.556,1.161-7.094,2.305-10.275,3.252-1.215.375-2.412.733-3.61,1.09-1.036.3-2.055.59-3.056.876,2.126-.107,4.861-.554,4.575.179-7.469,2.395-6.88.822-8.542.429a11,11,0,0,0-4.682,2.448,10.513,10.513,0,0,1-3.163,2.484c-.733-.036-1.412-.071-2.073-.125-.625-.036-1.054-.107-1.537-.161-.929-.107-1.715-.25-2.43-.375a15.983,15.983,0,0,1-3.574-1.09,5.662,5.662,0,0,1-2.466-2.216,5.252,5.252,0,0,1-.107-4.324s-.5.232-1.019.465c-.5.25-1,.518-1,.518.286-1.43.679-2.395.876-3.217.232-.822.34-1.519.482-2.252a10.457,10.457,0,0,1,.786-2.412,15.718,15.718,0,0,1,2.538-3.52c.268-.071.089.572-.268,1.483-.179.447-.393.983-.625,1.537-.2.5-.268.822-.393,1.233a12.006,12.006,0,0,1,1.769-2.806,16.89,16.89,0,0,1,1.823-1.787,18.334,18.334,0,0,0,4.164-4.878l-.858,2.7-.768,2.663c2.984-4.164,7.648-10.758,7.166-7.523a67.682,67.682,0,0,1,4.467-7.237c1.8-2.68,3.9-5.522,5.951-8.953a30.927,30.927,0,0,0,2.948-6.236,14.02,14.02,0,0,0,.7-5.289,9.172,9.172,0,0,0-.3-1.841,8.148,8.148,0,0,0-.733-1.948,9.879,9.879,0,0,0-2.573-3.27,11.856,11.856,0,0,0-5.236-2.43,19.51,19.51,0,0,0-3.717-.357,29.185,29.185,0,0,0-5.682.572l.768-1.608c-3.574,1.215-9.489,2.323-15.1,3.77-.7.179-1.394.375-2.091.554l-1.019.286c-.357.089-1,.3-1.34.411-1.5.536-2.716,1.036-3.86,1.555a19.851,19.851,0,0,0-5.093,3.056l-1.072-.25-10.7,6.362c-5.254,1.787-4.289-1.036-4.485-.286-11.168,4.61-20.21,7.648-27.609,8.685-.232,1.09-2.412,2.377-5.861,3.306a22.025,22.025,0,0,1-5.736.786,8.171,8.171,0,0,1-3-.518,3.816,3.816,0,0,1-2.144-1.894,6.071,6.071,0,0,1,.125-3.431,16.161,16.161,0,0,1,1.34-3.2,28.355,28.355,0,0,1,1.769-2.931l2.019-2.716,1-1.358c.357-.482.59-.84,1.126-1.465l2.877-3.467c1.841-2.341,3.967-4.592,6.058-6.88a287.92,287.92,0,0,1,27.323-25.411c19.21-15.922,39.456-30.271,57.594-44.46a64.98,64.98,0,0,0,6.326-5.45c2.162-2.126,4.378-4.45,6.63-6.755l1.019,3.074c-1.894.357-3.842,1.858-7.148,2.234a22.7,22.7,0,0,0,2.716-.232c.7-.143,1.34-.286,1.966-.411.5-.089,1.072-.268,1.43-.286.375-.036.715-.089,1.036-.143-.608-1.8-1.2-3.61-1.715-5.164-3.663,2.823-5.432,4.861-11.383,9.042-6.63,4.039-10.2,3.9-16.44,6.612l3.77-.5c-7.863,7.094-6.469,3.324-12.33,9.471l-1.3-2.5c-1.608,2.823-8.309,6.058-11.222,7.184l-1.126,3.163c-6.058,2.948-9.828,5.146-12.509,4.932l1.573,1.054a20.766,20.766,0,0,0-4.289,2.52c-1.966,1.412-4.324,3.091-6.415,4.575-4.2,2.966-7.452,5.093-5.254,1.394-1.287,1.555-2.144,3.342-5.593,5.9l-1.626-.947c-2.234,2.2-4.664,4.45-6.719,6.29-2.037,1.876-3.788,3.234-4.789,3.467,2.252-2.609,2.591-3.949,2.913-5.289-2.52,2.216-4.414,4.021-5.826,5.486a23.9,23.9,0,0,0-2.895,3.645c-1.179,1.912-1.09,2.859-.929,3.753a4.278,4.278,0,0,1-.429,3.359c-.786,1.715-2.609,4.2-6.5,8.667l-.7-.965-2.966,5.54s-.322.25-.822.643c-.25.2-.536.429-.84.661a7.1,7.1,0,0,0-1.019.911l-3.091,3.377a26.078,26.078,0,0,1-1.948,4.878,33.433,33.433,0,0,0-2.5,5.843,27.312,27.312,0,0,0-1.5,6.7,10.694,10.694,0,0,0,1.662,7.273,12.6,12.6,0,0,0,6.362,4.253,25.78,25.78,0,0,0,8.023,1.126,42.476,42.476,0,0,0,8.631-1c1.394-.286,2.77-.661,4.056-1.019q.965-.295,1.876-.59a12.385,12.385,0,0,0,1.376-.536c5.325-1.7,12.991-1.608,22.748-5.379L340.1,138c4.253-.536,13.777-3.359,23.159-5.968,2.341-.643,4.682-1.269,6.826-1.769.518-.107,1.036-.214,1.537-.322a5.046,5.046,0,0,1,1.161-.143,1.861,1.861,0,0,0,.59-.036l.768-.071c.518-.036,1.019-.089,1.5-.125,3.931-.268,7.112-.054,8.9.661,6.111-2.323-.661-.3-.876-1.626a23.446,23.446,0,0,1,6.915-1.43,3.234,3.234,0,0,1,.733.089.5.5,0,0,1,.2.071c.036-.071-.089.447.179-.786a13.816,13.816,0,0,1,2.162-5.629c.608-.751.768-.482-.107-.322a10.987,10.987,0,0,1-4.592-.393,33.033,33.033,0,0,1-3.913-1.144c-.071-.054-.2,0-.322.054a5.026,5.026,0,0,0-1,.911c-.59,1.412-.893,2.073-.7,2.019a6.121,6.121,0,0,0,1.215-1.287c1.072-1.358,1.5-1.858,1.787-.8-.715.965-1.3,1.787-1.841,2.5-.608.858-1.179,1.68-1.662,2.448-.983,1.537-1.662,2.859-2.43,4.271-1.537,2.895-3.431,5.951-9.578,12.866-1.912.84,2.394-4.217,3.056-6.022-1.644,2.77-3.878,5.968-6.451,9.81-.643.983-1.3,2-1.966,3.038-.375.608-.751,1.2-1.126,1.823-.518.858-.983,1.715-1.483,2.573a32.517,32.517,0,0,0-3.913,11.133A21.8,21.8,0,0,0,360.6,175.83l.661,1.322c.268.411.554.822.84,1.215a17.683,17.683,0,0,0,1.912,2.252,28.764,28.764,0,0,0,2.216,1.948c.822.554,1.68,1.054,2.52,1.555a28.481,28.481,0,0,0,11.848,3.02,30.666,30.666,0,0,0,3.145.089c.983,0,2.252,0,2.859-.054,1.412-.089,2.77-.214,4.056-.375,3.217-.179,6.5-.554,9.864-1.072,1.662-.268,3.377-.554,5.075-.894.858-.161,1.715-.34,2.573-.518l1.161-.232.322-.036a21.626,21.626,0,0,1,3.038-.089.76.76,0,0,1,.3.071s.054,0,.054.036l-.054.179a2.987,2.987,0,0,1-.143.357,4.242,4.242,0,0,1-.858,1.108c-.3.3-.572.554-.786.733l-.3.25s-.143.322-.2.465a4.588,4.588,0,0,0-.089.679l-.107.965-.161,1.93-.983,12.133,13.277,1.144a57.24,57.24,0,0,0,6.648.286l.572-.679c7,.286,13.4-1.59,19.281-3.788,5.808-2.252,11.294-4.95,16.708-6.88L460.17,194.4Z" transform="translate(1193.891 1215.585)" fill="#bad1ff"/>
      <path id="Trazado_911332" data-name="Trazado 911332" d="M40.268,705.827S223.062,293.32,439.927,98.889C542.249,7.154,652.291-35.939,754.19,36.376c317.443,225.271,362.605,329.693,362.605,329.693l-50.524,365.765L0,769.584Z" transform="translate(390 384.792) rotate(120)" fill="#287dfd" fill-rule="evenodd" opacity="0.051"/>
      <g id="Grupo_1107669" data-name="Grupo 1107669" transform="translate(-190.629 789)">
        <g id="Grupo_1107666" data-name="Grupo 1107666" transform="translate(0.724 0)">
          <path id="Trazado_911333" data-name="Trazado 911333" d="M39.737,308.787c-.234.106-.468.234-.7.34a10.234,10.234,0,0,1,1.636-1.275c-1.785,1.02-3.676,2.083-5.589,3.23-1.891,1.148-3.8,2.423-5.631,3.719a113.073,113.073,0,0,0-9.775,7.2c-2.1,1.148-3.8,2.486-3.783,3s1.764-.021,3.91-1.19c.489-.213,1.063-.489,1.424-.616a88.336,88.336,0,0,0,11.582-5.185c-.85.425-1.743.786-2.593,1.148a29.751,29.751,0,0,0,3.761-2.125c-.191.021-.383.064-.6.085a54.224,54.224,0,0,0,6.822-4.1,33.5,33.5,0,0,0,5.164-4.739c2.21-2.72.51-2.911-3.74-.531l-1.891,1.041Z" transform="translate(176.772 -298.723)" fill="#a7f7dd"/>
          <path id="Trazado_911334" data-name="Trazado 911334" d="M19.308,318.927c2.508-1.318,4.973-2.465,7.374-3.783l.531-.191-.553-.468v.064c-1.743,2-5.164,4.4-8.288,6.694l-1.105.829a2.328,2.328,0,0,0-.85.956c-.106.425,1.105.149,2.635-.808l1.785-1.084A60.666,60.666,0,0,0,28.3,316.4a23.823,23.823,0,0,0,5.228-5.058c.361-.6-.319-.531-.616-.7-.128-.489-1.913.34-3.974,1.828s-3.613,3.081-3.528,3.528c-.383.213-.765.425-1.126.637l.744-.7c-.361.723-2.231,2.061-3.549,3.188l-2.083,1.509,1.806.106,1.041-.85a1.052,1.052,0,0,0-.3.064c1.955-1.7,3.846-3.1,5.993-4.994l2.635-2.423c.659-.744.383-.914-.553-.446l-1.4.744c.213-.106.425-.213.659-.319-1.53.956-3.06,2.04-4.633,2.954s-3.145,1.806-4.7,2.7a4.859,4.859,0,0,0-1.233.914c-.149.234.106.191.616-.085Z" transform="translate(188.382 -306.122)" fill="#a7f7dd"/>
          <g id="Grupo_1107665" data-name="Grupo 1107665" transform="translate(0)">
            <path id="Trazado_911335" data-name="Trazado 911335" d="M17.42,317.289a11.079,11.079,0,0,0,1.679-1.063c.128-.149.191-.234.234-.276-.276.149-.659.34-1.02.531-.744.382-1.02.7-.893.808Z" transform="translate(200.598 -311.773)" fill="#a7f7dd"/>
            <path id="Trazado_911336" data-name="Trazado 911336" d="M17.19,316.793l.425-.212c-.106.042-.213.064-.319.106l-.064.064-.043.042Z" transform="translate(202.74 -312.616)" fill="#a7f7dd"/>
            <path id="Trazado_911337" data-name="Trazado 911337" d="M106.459,271.716C97.151,277.049,87.8,282.4,78.493,287.739c-.319.17-.553.383-.531.446,0,.064.276-.021.574-.191,9.329-5.334,18.616-10.668,27.945-16a1.449,1.449,0,0,0,.553-.467c0-.064-.255,0-.553.17Z" transform="translate(-15.819 -188.23)" fill="#a7f7dd"/>
            <path id="Trazado_911338" data-name="Trazado 911338" d="M113.419,263.018c.191-.17.149-.234-.106-.149a2.491,2.491,0,0,0-.765.425c-.17.149-.128.213.106.128a3.263,3.263,0,0,0,.765-.425Z" transform="translate(-95.606 -145.064)" fill="#a7f7dd"/>
            <path id="Trazado_911339" data-name="Trazado 911339" d="M33.894,368.24c1.275-.808,2.465-1.594,3.485-2.359a4.443,4.443,0,0,1,.616-.34c-.128-.042.064-.276.531-.574,4.42-2.954,9.138-5.823,13.856-8.819,4.718-3.039,9.478-6.12,14.217-9.18,0-.106.106-.255.276-.468a12.961,12.961,0,0,1,3.23-2.316l1.084-.553c4.335-2.38,8.649-4.739,12.984-7.119a32.8,32.8,0,0,1,2.848-1.934c3.485-2.465,6.992-4.951,10.6-7.417-.276.085-.468.085-.51,0-.042-.234.723-.914,1.743-1.509l1.53-.935L95.9,327.2c-.213.128-.425.234-.6.319-1.594.977-3.23,1.955-4.866,2.954-14.323,8.734-27.456,17.447-40.462,26.245a3.065,3.065,0,0,1-.786.4c-.17.021-.17-.064.064-.212C57.228,350.984,63.773,345.289,73,339c10.965-7.438,21.825-14.9,33.215-22.441,12.2-7.4,23.27-14.578,35.616-22.313,8.352-5.249,16.406-10.158,24.736-15.258,8.373-4.951,16.852-9.563,25.1-14.132,6.12-3.613,12.156-5.929,13.6-5.249.871.446-.042,1.955-2.338,3.846l1.509-.829,2.423-1.233a27.118,27.118,0,0,1,5.759-2.338l1.934-.489c2.678-.446,6.588-1.934,8.989-2.125l-.149.616.489-.17c1.551-.637,2.614-1,3.188-.85l.17.51a4.775,4.775,0,0,1-1.063,2.848c.17.149.149.425,0,.786,1.254-.17,2-.064,1.615.978.638-.276.7,0,.085.553a7.993,7.993,0,0,1-.765.595h0c.4-.106.51-.128,1.02-.276.6-.361.935-.574.935-.574q1.53-1.02,2.869-1.891a18.116,18.116,0,0,1,2.061-.978c1.785-.17,1.806-.17,1.849.3l-.17.276c1.063-.616,1.148-.659,1.445-.829a5.971,5.971,0,0,1,.574-.234.444.444,0,0,0,.4.064.221.221,0,0,1,.149.106,2.338,2.338,0,0,0-.383.659,2.406,2.406,0,0,1-.234.319c-.616.531-.85.765-.956.85l-1.743.6-.191.383-.489.042.319.042-.786.4.935-.425q-1.721,1.169-2.4,1.658a12.26,12.26,0,0,0-1.339,1.041c.106,0,.128.064.128.064-1.849,1.233-1.87,1.169-3.719,2.274-.191.064-.361.106-.51.149a3.292,3.292,0,0,1-.829.638l-.956.574-.191.17h0c-.3.255-.51.425-.744.616l-.149.128h0c-.51.4-1.233,1.084-3.209,2.614-.574.3-1.126.6-1.658.871l.51-.191c.34-.106.17.234.34.149,2.125-.977,4.271-2.253,6.439-3.506,2.168-1.3,4.4-2.529,6.524-4.016a4.1,4.1,0,0,1,1.7-.935c.191.064-.234.574-1,1.169-7.863,7.013-18.85,13.388-28.306,17.6-2.423,1.233-4.845,2.444-7.289,3.676l.383-.106-1.934.871-.213.106,1.594-.446,1.02-.446c5.61-2.89,10.965-5.228,16.533-8.012,3-1.573,5.653-2.741,8.543-4.165.7-.446,1.275-.638,1.275-.468s-.6.7-1.3,1.126c-9.01,5.886-19.615,11.433-27.477,14.281a34.78,34.78,0,0,1-4.7,2.189l-.085.042c.383-.085.765-.191,1.169-.276-1.275.6-2.04.744-3.209,1.254l.616.149c-6.184,3.081-12.5,6.8-18.233,9.563-.234.128-.425.234-.638.34a81.024,81.024,0,0,1-7.268,5.015c.978-.531,1.934-1.041,2.911-1.551-1.955,1.36-3.931,2.678-6.142,3.953-5.971,3.464-12.963,6.822-16.682,7.714-11.475,6.864-22.887,13.919-34.193,21.017a3.131,3.131,0,0,1-1.339.574c-.128-.064.191-.4.786-.786,7.99-5.313,16.172-10.54,24.439-15.7-7.1,3.974-14.2,8.033-21.378,12.283-.893.553-1.806,1.126-2.72,1.7-.893.553-1.806,1.063-2.741,1.573-4.569,2.741-9.01,5.419-13.494,8.1-4.505,2.678-9.01,5.4-13.622,8.288C72.082,359,65.2,363.373,57.4,368.41c-11.178,6.779-21.357,13.005-32.705,19.232-1.488.871-3,1.424-3.315,1.233-.34-.191.616-1.063,2.125-1.913,11.56-6.928,23.036-13.792,34.6-20.7,11.39-7.162,22.972-14.281,35.085-21.315,2.593-1.53,5.143-3.039,7.693-4.548a.143.143,0,0,1-.128-.085c-.085-.149.064-.446.4-.808-2.89,1.679-5.823,3.379-8.8,5.015-7.948,5.1-15.917,10.222-24.715,15.152-6.035,3.379-11.582,6.29-17.426,8.989q-10.519,6.12-21.123,12.3a2.114,2.114,0,0,1-.723.319c-.128,0,0-.149.276-.319,4.76-3.06,9.669-6.12,14.663-9.159-.914.255-1.509.3-1.594,0s.4-.871,1.275-1.551L39.5,372.15c-.723.383-1.339.6-1.381.446-.064-.149.446-.553,1.126-.935q7.108-3.857,14.174-7.693c5.5-3.379,10.965-6.737,16.469-10.115a4.572,4.572,0,0,1-1.976.319h0l-2.571,1.53c-3.825,2.486-7.672,4.994-11.582,7.438l-11.985,7.013c-8.054,4.654-16.257,9.223-24.545,13.686-.319.17-.616.276-.659.212s.191-.255.489-.4q7.523-4.048,14.9-8.182h-.021c-.212.085-.3.042-.106-.128a2.705,2.705,0,0,1,.765-.425c.255-.085.276,0,.106.128q6.885-3.857,13.643-7.82c4.526-2.614,8.989-5.27,13.282-8.1-2.061,1.211-4.1,2.465-6.184,3.655l-6.29,3.464-12.623,6.822c-.871.574-1.743,1.148-2.635,1.743a2.239,2.239,0,0,1-.723.3c-.106,0,.064-.17.3-.34l.744-.489c-1.594.85-2.954,1.275-3.1.935-.085-.361,1.148-1.36,2.805-2.253q6.6-3.7,13.154-7.353l1.4-.829,1.36-.935c-6.907,3.591-13.813,7.2-20.677,10.774-.574.319-1.126.51-1.19.4s.34-.446.935-.786q8.83-5.2,17.7-10.434c2.954-1.743,5.971-3.421,8.925-5.206l8.84-5.419c3.655-2.784,7.31-5.568,11.029-8.373-.51.3-1.02.6-1.53.871-6.482,3.8-12.283,7.672-18.021,11.539-5.759,3.8-11.56,7.417-17.851,11.072-.319.191-.6.3-.68.255-.064-.042.128-.213.446-.383,6.12-3.634,11.582-7.14,17.511-10.944,4.888-3.23,9.52-6.29,14-9.393-4.739,2.869-9.329,5.8-13.9,8.755-4.569,2.911-9.223,5.631-13.962,8.437a5.023,5.023,0,0,1-1.148.552c0,.042-.085.128-.191.213-1.126.808-2.38,1.636-3.655,2.465a2.047,2.047,0,0,1-.744.34c-.17.021-.043-.106.234-.3Zm170.878-90.72c.106-.021.191-.042.276-.064-.276.106-.574.234-.914.361l-1.445.234S203.732,277.8,204.773,277.52Zm13.856-10.307h0c.489-.085.829-.149.829-.149C219.117,267.128,218.862,267.171,218.628,267.213ZM126.8,325.589c5.015-3.018,10.073-5.823,15.216-8.5l-3.591,2.21q-5.77,3.124-11.6,6.269Zm88.956-52.171a28.911,28.911,0,0,1-3.868,1.211c-.85.553-1.785,1.105-2.72,1.615-2.55,1.381-5.036,2.763-7.523,4,.4,0-.191.3-.468.467l-.893.531c2.656-1.318,5.313-2.656,8.033-4.016,2.444-1.254,5.036-2.593,7.438-3.846Zm17.277-12.134s.17-.064.255-.106l-.3.553a3.01,3.01,0,0,1,.043-.446Zm.446-.893c-.128.064-.234.149-.383.234A.356.356,0,0,1,233.483,260.392Zm-3.421,2.083a3.426,3.426,0,0,0,.531-.213Zm-6.822-5.015-.489,1.934.638-1.976h-.149Z" transform="translate(-16.57 -256.002)" fill="#a7f7dd"/>
          </g>
        </g>
        <g id="Grupo_1107668" data-name="Grupo 1107668" transform="translate(0 37.081)">
          <path id="Trazado_911340" data-name="Trazado 911340" d="M45.411,270.992c-.319.085-.659.17-.978.255a7.8,7.8,0,0,1,2.21-1.381C36.655,273.075,25.6,281,19.187,287.313c-2.741,1.509-4.866,3.464-4.7,4.4.191.935,2.656.489,5.419-1.041.659-.255,1.4-.6,1.913-.722a92.809,92.809,0,0,0,15.513-5.419c-1.148.361-2.338.744-3.485,1.105A44.913,44.913,0,0,0,38.8,283.3c-.276-.021-.553-.064-.829-.085,5.844-2,12.814-6.524,15.577-10.115,2.784-3.613.319-4.93-5.525-2.933l-2.614.85Z" transform="translate(249.439 -248.482)" fill="#a7f7dd"/>
          <path id="Trazado_911341" data-name="Trazado 911341" d="M18.693,284.475c3.443-1.3,6.779-2.486,10.115-3.676l.744-.085-.893-1.084v.106c-2.274,2.656-6.694,5.759-10.817,8.543l-1.424,1.063a2.561,2.561,0,0,0-1,1.445c-.021.786,1.636.553,3.676-.51l2.359-1.233c6.014-2.55,14.876-7.65,16.831-11.5.425-.893-.531-1.126-1-1.594-.234-.914-2.763-.4-5.589,1.169-2.848,1.573-4.909,3.57-4.654,4.484-.51.213-1.041.446-1.53.659l.956-.935c-.4,1.148-2.869,2.805-4.548,4.271l-2.741,1.849,2.678.935L23.2,287.28a1.859,1.859,0,0,1-.425-.021c2.529-2.146,4.909-4.208,7.82-6.312l3.506-2.933c.85-.956.446-1.445-.893-1.084l-1.955.6c.319-.064.616-.149.914-.213-4.229,1.891-8.585,4.059-12.793,5.908a3.829,3.829,0,0,0-1.615,1.169c-.17.34.213.4.914.106Z" transform="translate(263.747 -260.86)" fill="#a7f7dd"/>
          <g id="Grupo_1107667" data-name="Grupo 1107667" transform="translate(0)">
            <path id="Trazado_911342" data-name="Trazado 911342" d="M16.958,284.021a9.5,9.5,0,0,0,2.338-1c.17-.213.255-.319.3-.383l-1.445.4C17.107,283.341,16.746,283.788,16.958,284.021Z" transform="translate(279.401 -268.8)" fill="#a7f7dd"/>
            <path id="Trazado_911343" data-name="Trazado 911343" d="M16.61,283.47c.361-.106.6-.17.6-.17a3.131,3.131,0,0,0-.446.021c-.085.064-.085.085-.085.085l-.064.064Z" transform="translate(282.405 -269.652)" fill="#a7f7dd"/>
            <path id="Trazado_911344" data-name="Trazado 911344" d="M138.127,226.745c-12.963,6.184-25.65,12.538-38.422,18.977-.425.213-.744.489-.7.616.042.106.425.043.808-.149,12.793-6.418,25.395-12.729,38.358-18.913.425-.213.744-.489.744-.638-.042-.127-.4-.085-.808.106Z" transform="translate(-14.389 -112.007)" fill="#a7f7dd"/>
            <path id="Trazado_911345" data-name="Trazado 911345" d="M147.824,217.664c.255-.255.17-.361-.191-.276a2.867,2.867,0,0,0-1.02.574c-.213.213-.106.361.191.276A2.51,2.51,0,0,0,147.824,217.664Z" transform="translate(-124.39 -64.312)" fill="#a7f7dd"/>
            <path id="Trazado_911346" data-name="Trazado 911346" d="M36.8,349.157a52.328,52.328,0,0,0,4.526-3.421,2.646,2.646,0,0,1,.829-.446c-.213-.128.043-.489.616-.914,5.8-4.293,11.986-8.458,18.3-12.623,6.375-4.016,12.942-7.863,19.4-11.815a1.316,1.316,0,0,1,.34-.744,12.135,12.135,0,0,1,4.378-3.1l1.509-.638q9.021-4.24,18.021-8.437a30.1,30.1,0,0,1,3.889-2.55c4.76-3.251,9.52-6.46,14.472-9.563-.4.043-.68,0-.765-.191-.106-.468.935-1.4,2.338-2.1l2.1-1.126-6.227,2.826a5.446,5.446,0,0,1-.85.34c-2.231,1.148-4.463,2.3-6.737,3.528-19.763,10.88-37.784,22.122-55.337,33.9a2.509,2.509,0,0,1-1.063.531c-.234,0-.276-.149.043-.383,5.228-4.356,10.115-8.267,15.173-12.368,5.079-4.08,10.413-8.16,16.7-12.325,7.48-4.951,14.961-9.818,22.526-14.642,7.523-4.76,15.109-9.457,22.908-14.174,8.437-4.378,16.406-8.819,24.4-13.388,2-1.148,3.974-2.3,5.993-3.443,1.955-1.19,3.931-2.38,5.929-3.591q5.961-3.6,12.134-7.332c11.157-6.715,22.1-13.048,33.045-19.211,10.859-6.312,21.676-12.538,32.726-18.828,8.1-4.951,16.7-7.693,19.147-5.971,1.466,1.063.361,3.528-2.55,6.439.68-.383,1.36-.765,2.061-1.148l3.379-1.573a25.932,25.932,0,0,1,8.267-2.55l2.826-.319c4.08.149,9.86-1.063,13.452-.51l-.128,1.063.7-.128c2.231-.552,3.931-.595,4.8-.085l.34,1a7.371,7.371,0,0,1-1.233,4.59,1.483,1.483,0,0,1,.106,1.424c1.849.17,3.018.786,2.593,2.444.935-.191,1.041.276.234,1.041a7.377,7.377,0,0,1-1.041.786h0a9.7,9.7,0,0,0,1.466-.106l1.318-.574q2.189-1.041,4.08-1.934a15.75,15.75,0,0,1,2.954-.7q2.635.616,2.784,1.466a3.44,3.44,0,0,1-.213.383c1.509-.553,1.615-.6,2.019-.744a4.034,4.034,0,0,1,.808-.106.776.776,0,0,0,.6.34.68.68,0,0,1,.213.255q-.531.871-.489,1a4.5,4.5,0,0,1-.319.446c-.829.637-1.148.914-1.3,1.02l-2.486.149-.234.574-.7-.191.489.255-1.126.319,1.318-.276q-2.4,1.19-3.315,1.743a13.515,13.515,0,0,0-1.849,1.148.736.736,0,0,1,.213.17q-2.571,1.254-5.058,2.486c-.276.042-.51.042-.723.064a3.181,3.181,0,0,1-1.084.829l-1.3.659s-.17.149-.234.213v.021c-.383.319-.659.553-.956.808l-.191.17h0c-.659.553-1.615,1.36-4.144,3.506-.786.382-1.509.722-2.21,1.02.255-.064.489-.106.723-.17.468-.106.319.468.553.383,5.716-2.3,11.624-5.291,17.532-8.16,1-.637,2.061-.977,2.38-.765.3.213-.276.914-1.3,1.551-10.413,8.543-24.524,16.491-37.359,21.7q-4.877,2.423-9.775,4.845l.553-.085L262.1,254.23l-.276.128,2.231-.4,1.4-.531c7.5-3.889,14.833-6.63,22.186-10.052,3.974-1.828,7.565-3.081,11.39-4.675.935-.489,1.7-.637,1.743-.3.043.319-.7,1-1.615,1.488-5.823,3.655-12.134,7.353-18.446,10.519a117.925,117.925,0,0,1-18.063,7.416,32.233,32.233,0,0,1-6.418,2.826l-.106.042c.553-.064,1.105-.149,1.658-.213-1.721.786-2.848.829-4.463,1.488l.978.425c-8.394,4.123-17.043,9.329-25.267,12.3-.319.149-.616.276-.914.4a79.389,79.389,0,0,1-9.839,6.779l4.038-1.891a76.725,76.725,0,0,1-8.33,5.185c-8.2,4.356-17.957,8.16-23.312,8.522-7.8,4.484-15.726,8.607-23.61,12.9-7.884,4.271-15.726,8.543-23.525,12.9a2.766,2.766,0,0,1-1.891.531c-.191-.17.234-.68,1.02-1.126,10.965-6.694,22.271-13.091,33.661-19.445-9.86,4.611-19.763,9.287-29.709,14.344-1.254.68-2.486,1.381-3.74,2.061a41.661,41.661,0,0,1-3.8,1.828c-12.687,6.545-24.609,12.665-37.125,19.933-10.647,6.248-20.018,11.667-30.389,18.233-14.408,9.372-27.456,17.978-42.183,26.266-1.913,1.169-3.974,1.785-4.548,1.339-.574-.425.553-1.743,2.486-2.911,14.9-9.5,29.624-19.062,44.691-28.455,15.343-9.053,31.111-17.872,47.666-26.372,3.591-1.828,7.1-3.613,10.6-5.419-.085-.064-.17-.106-.213-.191-.17-.319,0-.786.446-1.318-4.016,1.934-8.075,3.91-12.156,5.865C107.585,331.137,96.811,337.64,84.8,343.5c-4.123,2.019-8.118,3.8-12.07,5.525-3.889,1.764-7.714,3.528-11.582,5.27-9.138,5.61-18.276,11.22-27.5,16.873a1.855,1.855,0,0,1-.978.383c-.191-.043-.064-.255.3-.51,6.1-4.335,12.453-8.607,18.913-12.857-1.254.234-2.146.128-2.338-.425-.213-.574.361-1.509,1.424-2.529l-4.611,2.529c-.956.51-1.806.723-1.934.446-.128-.3.51-.914,1.4-1.4q9.372-5.2,18.743-10.37c3.634-2.274,7.353-4.4,11.093-6.5s7.48-4.208,11.22-6.333a5.139,5.139,0,0,1-2.869-.106h0c-1.169.616-2.338,1.254-3.506,1.87q-15.588,9.595-31.388,19.317c-10.583,6.4-21.378,12.623-32.365,18.594-.425.234-.829.34-.914.234s.191-.4.574-.6q9.945-5.419,19.7-11.072H36.1c-.3.085-.425,0-.191-.276a2.7,2.7,0,0,1,1.02-.574c.361-.085.4.064.191.276q9.053-5.291,17.936-10.753c2.954-1.828,5.887-3.676,8.819-5.5l4.378-2.763,4.42-2.656c-5.674,2.954-11.114,6.269-16.7,9.35q-8.32,4.686-16.746,9.2c-1.126.829-2.253,1.658-3.4,2.486a2.123,2.123,0,0,1-1,.361c-.149-.043.021-.3.361-.531l.956-.68c-2.125,1.126-4.038,1.551-4.356.914-.255-.7,1.275-2.21,3.485-3.4q8.7-5.1,17.426-10.052l1.828-1.169,1.743-1.36Q42.4,351.92,28.6,359.1c-.765.446-1.53.638-1.679.425s.383-.744,1.148-1.19q11.539-7.363,23.355-14.6l11.858-7.2c4-2.359,8.054-4.569,12.092-6.822q7.332-5.674,14.769-11.454c-.7.361-1.4.723-2.1,1.063-8.925,4.7-16.831,9.69-24.587,14.748-7.672,5.291-15.216,10.6-23.567,15.662a1.3,1.3,0,0,1-.935.3c-.106-.085.128-.361.552-.6,8.118-5.036,15.194-10.243,23.1-15.534,6.609-4.229,12.963-8.16,19.02-12.283-6.524,3.591-12.793,7.332-19,11.114-6.141,3.974-12.262,7.948-18.552,11.837a4.746,4.746,0,0,1-1.551.723c0,.085-.085.191-.234.34-1.445,1.211-3.081,2.423-4.76,3.613a1.948,1.948,0,0,1-1.02.425c-.234,0-.085-.213.255-.51ZM271.642,239.631c.149,0,.276-.042.4-.042-.383.128-.808.255-1.275.425h-2.1s1.466-.191,2.954-.361Zm17.808-14.642ZM166.323,303.213c6.949-3.634,13.983-6.822,21.06-10.03l-4.909,2.869c-5.334,2.444-10.732,4.824-16.151,7.183ZM286.794,235.4a32.477,32.477,0,0,1-5.419.956,34.533,34.533,0,0,1-3.549,2.21c-3.379,1.849-6.737,3.57-10.052,5.228.6.085-.191.468-.574.744l-1.169.765c3.57-1.7,7.162-3.4,10.817-5.121,3.273-1.573,6.737-3.4,9.924-4.76Zm23.057-14.939a2.148,2.148,0,0,0,.361-.064l-.361.829v-.786Zm.553-1.381c-.17.064-.34.149-.531.213C309.936,219.017,310.149,219,310.4,219.081Zm-4.8,2a3.912,3.912,0,0,0,.786-.106Zm-11.114-12.028-.383,3.358.6-3.358Z" transform="translate(-15.83 -206.431)" fill="#a7f7dd"/>
          </g>
        </g>
      </g>
    </g>
    <g id="Grupo_1106735" data-name="Grupo 1106735" transform="matrix(-0.899, -0.438, 0.438, -0.899, 78.92, 5141.682)">
      <path id="Trazado_910795" data-name="Trazado 910795" d="M1.332,1.216C-.58.717-.241.414,1.135.2A42.921,42.921,0,0,1,7.282.021l3.538,2.871S8.462,2.447,6.1,1.983C3.744,1.537,1.332,1.2,1.332,1.2Z" transform="translate(7.077 264.024)" fill="#ffb6c8"/>
      <path id="Trazado_910796" data-name="Trazado 910796" d="M1.038,0S3.629.856,6.328,1.48a43.715,43.715,0,0,0,5.522.927s-2.037-.054-4.021-.321c-1.984-.25-3.913-.678-3.913-.678-4.378.25-4.2.8-2.43,1.516A30.591,30.591,0,0,0,8.4,4.352a25.076,25.076,0,0,1-7.094-.981C.127,2.961-.105,2.55.038,2.194.323,1.462,2.093.749,1.038,0Z" transform="translate(28.761 267.951)" fill="#ffb6c8"/>
      <path id="Trazado_910797" data-name="Trazado 910797" d="M.6,3.569C3.1,1.055,3.782-.176,4.211.02c.393.143.2,1.694-.733,3.139a3.193,3.193,0,0,0-1.09.517c-.429.2-.893.464-1.412.678-.965.392-1.43.392-.375-.767Z" transform="translate(49.927 262.527)" fill="#ffb6c8"/>
      <path id="Trazado_910798" data-name="Trazado 910798" d="M0,0,.465.5C.625.678.679.713.786.82c.214.2.411.392.59.571.357.339.661.553.8.392.125.66.089,1.052-.2.874a3.057,3.057,0,0,1-.625-.713c-.143-.2-.3-.428-.518-.713C.59.892.322.482,0,.018Z" transform="translate(272.289 164.637)" fill="#ffb6c8"/>
      <path id="Trazado_910799" data-name="Trazado 910799" d="M.2.874C.143.624.089.339,0,0A6.248,6.248,0,0,1,.3.767C.3.856.232.838.2.874Z" transform="translate(274.273 165.546)" fill="#ffb6c8"/>
      <path id="Trazado_910800" data-name="Trazado 910800" d="M144.737,167.607a58.783,58.783,0,0,0-8.631-4.423c-.643-.285-1.251-.5-1.894-.749-.643-.268-1.269-.5-1.841-.7-1.412-.535-2.895-1.088-4.557-1.712l-4.664.375c-7.541-3.264-2.895-2.675-8.077-5.493a125.067,125.067,0,0,1-13.474-3.941,102.994,102.994,0,0,0-10.221-2.961c-2.252.41,2.341,1.641,3.252,2.479-2.019-.7-3.413-1.141-4.61-1.676-1.179-.446-2.109-.892-3.127-1.338a21.44,21.44,0,0,0-9.078-1.587l-.143.5a21.057,21.057,0,0,0-2.144-.107l-1.09-.036h-.5l-.25-.036-1.054-.053h-.715a2.567,2.567,0,0,0-2.52,1.587,3.765,3.765,0,0,0-.143,1.676,5.148,5.148,0,0,0,.143.892c.036.178.143.446.2.678a8.339,8.339,0,0,0,.268.8,99.643,99.643,0,0,0,4.682,10.005c3.627,7.062,7.952,14.339,11.061,23.2.393,1.088.75,2.265,1.054,3.46.339,1.141.572,2.461.822,3.71a36.083,36.083,0,0,1,.447,4.031,26.647,26.647,0,0,1-.214,4.423c-.125.767-.214,1.587-.411,2.354-.214.749-.465,1.516-.715,2.247a11.769,11.769,0,0,1-.947,2.211,18.574,18.574,0,0,1-1.019,1.819,23.145,23.145,0,0,1-5.915,6.581c2.43-2.194,1.465-2.015,2.055-3.121a20.081,20.081,0,0,1-6.236,4.6,22.077,22.077,0,0,1-7.309,2,37.3,37.3,0,0,1-12.938-1.266c-7.827-2.051-14.635-5.243-21.229-8.293q-4.825-2.3-9.578-4.566c-3.61-1.641-4.914-2.336-7.148-3.228a21.657,21.657,0,0,0-6.88-1.712,8.112,8.112,0,0,0-3.574.642,7.836,7.836,0,0,0-2.7,2.229A6.409,6.409,0,0,0,1.6,207.681a14.172,14.172,0,0,0,1.179,4.494,20.41,20.41,0,0,1-2.395-4.708,7.988,7.988,0,0,1,.357-5.832,7.772,7.772,0,0,1,3.842-4.245,11.891,11.891,0,0,1,5.986-.767,47.888,47.888,0,0,1,12.473,3.424,182.133,182.133,0,0,1,22.873,11.289c3.413.571,7.487,2.069,11.347,2.907,3.824.874,7.505.874,8.881-.232a16.8,16.8,0,0,0,8.845-3.62,19.213,19.213,0,0,0,5-6.795,18.79,18.79,0,0,0,1.251-7.669,35.409,35.409,0,0,0-1.054-7.116c-2.323-9.1-6.5-17.264-12.223-27.946-1.876-2.907-1.912-1.017-3.163-1.516,0,0,1.984,4.405,4.217,8.792,1.09,2.194,2.18,4.405,3,6.064.8,1.659,1.34,2.782,1.34,2.782s-1.555-2.568-3.181-5.1l-3.234-5.047c.876,2.461,3.038,6.367,4.753,9.934,1.751,3.567,2.948,6.848,2.484,7.829A87.514,87.514,0,0,0,68.452,171.5c-2.377-4.637-5.093-9.452-7.255-14.482a34.81,34.81,0,0,1-2.52-7.829,11.549,11.549,0,0,1,.84-7.6,9.446,9.446,0,0,1,5.575-4.155c.536-.143,1.054-.285,1.573-.428.518-.125,1.054-.143,1.555-.214.5-.054.983-.107,1.465-.161.482,0,.947,0,1.412.018a20.5,20.5,0,0,0-2.466.571,16.221,16.221,0,0,0-2.5.785,10.435,10.435,0,0,0-4.557,3.014,7.971,7.971,0,0,0-1.751,5.368,18.823,18.823,0,0,0,1.126,5.707c1.537,3.032,4.539,7.883,5.164,7.116a71.181,71.181,0,0,1-2.448-7.58,13.227,13.227,0,0,1-.286-5.885,6.2,6.2,0,0,1,3.52-4.191,5.714,5.714,0,0,1,1.287-.517,6.962,6.962,0,0,1,1.322-.375l1.34-.285,1.5-.178c.876-.143,2.323-.2,3.538-.3,1.269-.125,2.52-.036,3.806-.071,1.269,0,2.573.143,3.86.214,1.3.107,2.609.3,3.931.464a95.09,95.09,0,0,1,16.351,4.12c5.647,1.908,13.474,4.548,14.724,4.048-3.681-1.605-.59-1.3-3.556-2.782,7.934,3.549-.3,3.282,11.758,7.1l-.536-3.406a9.609,9.609,0,0,0,4.021,2.729c.858.339,1.769.642,2.752.927.929.268,1.894.535,2.877.82,4,1.141,8.577,2.657,12.312,5.3,3.449.178-1.733-2.907-7.952-5.6,7.362,2.479,7.237,4.494,13.063,6.884l-4.414-4.726c5.075,4.94,11.222,4.209,14.975,4.53.107.375-.822.749-.786,1.355,0,.3.286.642,1.054,1.07a15.839,15.839,0,0,0,4.128,1.391c3.645.482,1.948-.589,2.859-.767a4.589,4.589,0,0,0,2.412,1.569,13.2,13.2,0,0,0,2.752.785c.554.089,1.144.178,1.787.25.643.053,1.34.036,2.073.036.518-.446-.465-.749-1.59-1.052-1.108-.339-2.359-.785-2.5-1.231a35.832,35.832,0,0,0,5.129.089h-.018a9.835,9.835,0,0,0-1.7-5.261c-1.072-3.46-.679-3.068-.071-2.6.59.535,1.34,1.213.965-.375-2.859-4.352-4.271-5.243-5.111-5.3-.84-.089-1.608.7-3.735-1.8a66.767,66.767,0,0,0,2.537,7.366c.625,1.5,1.287,3.1,1.894,4.69.2.749.375,1.48.572,2.211-.036.392-.054.767-.054,1.141,1.519-1.623,3.02-3.264,4.36-4.69a26.61,26.61,0,0,1-7.9-1.338,35.333,35.333,0,0,0,7.863.892L176.009,164v-1.07l-.643-2.158c-.679-1.552-1.376-3.1-2.109-4.619-.322.553-2.805-3.246-4.217-5.564-.715-1.141-1.287-2.051-1.537-2.051-.143-.018-.2.2-.125.731a12.977,12.977,0,0,0,.679,2.782,39.884,39.884,0,0,1-3.735-12.2,30.315,30.315,0,0,1-.268-6.563l.071-.963c.036-.3.2-.268.286-.428.232-.214.447-.428.679-.678.465-.446.929-1.052,1.412-1.605,7.237,2.122,14.617,4.262,21.837,6.67,3.556,1.159,7.094,2.3,10.275,3.246,1.215.375,2.412.731,3.61,1.088,1.036.3,2.055.589,3.056.874-2.126-.107-4.861-.553-4.575.178,7.469,2.39,6.88.82,8.542.428a11.006,11.006,0,0,1,4.682,2.443,10.509,10.509,0,0,0,3.163,2.479c.733-.036,1.412-.071,2.073-.125.625-.036,1.054-.107,1.537-.161.929-.107,1.715-.25,2.43-.375a16,16,0,0,0,3.574-1.088,5.658,5.658,0,0,0,2.466-2.211,5.232,5.232,0,0,0,.107-4.316s.5.232,1.019.464c.5.25,1,.517,1,.517-.286-1.427-.679-2.39-.876-3.21-.232-.82-.339-1.516-.482-2.247a10.425,10.425,0,0,0-.786-2.408,15.686,15.686,0,0,0-2.538-3.513c-.268-.071-.089.571.268,1.48.179.446.393.981.625,1.534.2.5.268.82.393,1.231a11.979,11.979,0,0,0-1.769-2.8,16.874,16.874,0,0,0-1.823-1.783,18.309,18.309,0,0,1-4.164-4.869l.858,2.693.768,2.657c-2.984-4.155-7.648-10.736-7.166-7.508a67.522,67.522,0,0,0-4.467-7.223c-1.8-2.675-3.9-5.511-5.951-8.935a30.84,30.84,0,0,1-2.948-6.224,13.967,13.967,0,0,1-.7-5.279,9.137,9.137,0,0,1,.3-1.837,8.122,8.122,0,0,1,.733-1.944,9.863,9.863,0,0,1,2.573-3.264,11.867,11.867,0,0,1,5.236-2.425,19.546,19.546,0,0,1,3.717-.357,29.241,29.241,0,0,1,5.682.571l-.768-1.605c3.574,1.213,9.489,2.318,15.1,3.763.7.178,1.394.375,2.091.553l1.019.285c.357.089,1,.3,1.34.41,1.5.535,2.716,1.034,3.86,1.552a19.858,19.858,0,0,1,5.093,3.05l1.072-.25,10.7,6.349c5.254,1.783,4.289-1.034,4.485-.285,11.168,4.6,20.21,7.633,27.609,8.667.232,1.088,2.412,2.372,5.861,3.3a22.066,22.066,0,0,0,5.736.785,8.186,8.186,0,0,0,3-.517,3.814,3.814,0,0,0,2.144-1.89,6.047,6.047,0,0,0-.125-3.424,16.112,16.112,0,0,0-1.34-3.192A28.28,28.28,0,0,0,303.9,98.7l-2.019-2.711-1-1.355c-.357-.482-.59-.838-1.126-1.462l-2.877-3.46c-1.84-2.336-3.967-4.583-6.058-6.866A287.709,287.709,0,0,0,263.5,57.48c-19.21-15.89-39.456-30.211-57.594-44.372a64.945,64.945,0,0,1-6.326-5.439c-2.162-2.122-4.378-4.441-6.63-6.741l-1.019,3.068c1.894.357,3.842,1.855,7.148,2.229a22.739,22.739,0,0,1-2.716-.232c-.7-.143-1.34-.285-1.966-.41-.5-.089-1.072-.268-1.43-.285-.375-.036-.715-.089-1.036-.143.608-1.8,1.2-3.6,1.715-5.154,3.663,2.818,5.432,4.851,11.383,9.024,6.63,4.031,10.2,3.888,16.44,6.6l-3.77-.5c7.863,7.08,6.469,3.317,12.33,9.452l1.3-2.5c1.608,2.818,8.309,6.046,11.222,7.169l1.126,3.157c6.058,2.943,9.828,5.136,12.509,4.922l-1.573,1.052a20.775,20.775,0,0,1,4.289,2.515c1.966,1.409,4.324,3.085,6.415,4.566,4.2,2.961,7.452,5.083,5.254,1.391,1.287,1.552,2.144,3.335,5.593,5.885l1.626-.945c2.234,2.194,4.664,4.441,6.719,6.278,2.037,1.873,3.788,3.228,4.789,3.46-2.252-2.6-2.591-3.941-2.913-5.279,2.52,2.211,4.414,4.013,5.826,5.475a23.859,23.859,0,0,1,2.895,3.638c1.179,1.908,1.09,2.854.929,3.745a4.262,4.262,0,0,0,.429,3.353c.786,1.712,2.609,4.191,6.5,8.65l.7-.963,2.966,5.529s.322.25.822.642c.25.2.536.428.84.66a7.091,7.091,0,0,1,1.019.91l3.091,3.371a26,26,0,0,0,1.948,4.869,33.332,33.332,0,0,1,2.5,5.832,27.212,27.212,0,0,1,1.5,6.688,10.656,10.656,0,0,1-1.662,7.259,12.605,12.605,0,0,1-6.362,4.245,25.828,25.828,0,0,1-8.023,1.124,42.556,42.556,0,0,1-8.631-1c-1.394-.285-2.77-.66-4.056-1.017q-.965-.294-1.876-.589a12.405,12.405,0,0,1-1.376-.535c-5.325-1.694-12.991-1.605-22.748-5.368l1.233-1.427c-4.253-.535-13.777-3.353-23.159-5.957-2.341-.642-4.682-1.266-6.826-1.766-.518-.107-1.036-.214-1.537-.321a5.056,5.056,0,0,0-1.161-.143,1.865,1.865,0,0,1-.59-.036l-.768-.071c-.518-.036-1.019-.089-1.5-.125-3.931-.268-7.112-.054-8.9.66-6.111-2.318.661-.3.876-1.623a23.487,23.487,0,0,0-6.916-1.427,3.24,3.24,0,0,0-.733.089.5.5,0,0,0-.2.071c-.036-.071.089.446-.179-.785a13.774,13.774,0,0,0-2.162-5.618c-.608-.749-.768-.482.107-.321a11.008,11.008,0,0,0,4.592-.392,33.084,33.084,0,0,0,3.913-1.141c.071-.053.2,0,.322.053a5.023,5.023,0,0,1,1,.91c.59,1.409.893,2.069.7,2.015a6.114,6.114,0,0,1-1.215-1.284c-1.072-1.355-1.5-1.855-1.787-.8.715.963,1.3,1.783,1.841,2.5.608.856,1.179,1.676,1.662,2.443.983,1.534,1.662,2.853,2.43,4.262,1.537,2.889,3.431,5.939,9.578,12.841,1.912.838-2.395-4.209-3.056-6.01,1.644,2.764,3.878,5.957,6.451,9.791.643.981,1.3,2,1.966,3.032.375.606.751,1.195,1.126,1.819.518.856.983,1.712,1.483,2.568a32.408,32.408,0,0,1,3.913,11.111A21.72,21.72,0,0,1,244.36,149.1l-.661,1.32c-.268.41-.554.82-.84,1.213a17.655,17.655,0,0,1-1.912,2.247,28.742,28.742,0,0,1-2.216,1.944c-.822.553-1.68,1.052-2.52,1.552a28.526,28.526,0,0,1-11.848,3.014,30.718,30.718,0,0,1-3.145.089c-.983,0-2.252,0-2.859-.054-1.412-.089-2.77-.214-4.056-.375-3.217-.178-6.5-.553-9.864-1.07-1.662-.268-3.377-.553-5.075-.892-.858-.161-1.715-.339-2.573-.517l-1.161-.232-.322-.036a21.668,21.668,0,0,0-3.038-.089.762.762,0,0,0-.3.071s-.054,0-.054.036l.054.178a2.978,2.978,0,0,0,.143.357,4.235,4.235,0,0,0,.858,1.106c.3.3.572.553.786.731l.3.25s.143.321.2.464a4.571,4.571,0,0,1,.089.678l.107.963.161,1.926.983,12.11-13.277,1.141a57.356,57.356,0,0,1-6.648.285l-.572-.678c-7,.285-13.4-1.587-19.281-3.781-5.808-2.247-11.294-4.94-16.708-6.866l5.682,1.445Z" transform="translate(359.617 213.826) rotate(167)" fill="#ffb6c8"/>
      <path id="Trazado_910801" data-name="Trazado 910801" d="M5.647,11.325,3.627,10.148s-.161-.624-.465-1.569C2.895,7.633,2.448,6.385,2,5.1,1.072,2.568,0,0,0,0,3.109,3.406,3.359,5.939,5.665,11.307Z" transform="translate(114.983 211.826)" fill="#ffb6c8"/>
      <path id="Trazado_910802" data-name="Trazado 910802" d="M1.983,3.139s.34,1.462.7,2.925c.125.731.25,1.48.357,2.033a7.2,7.2,0,0,1,.125.927A13.415,13.415,0,0,0,2.788,7.58c-.232-.874-.59-2.015-1-3.139C.983,2.176,0,0,0,0S.536.767,1.019,1.552c.5.8.983,1.587.983,1.587Z" transform="translate(122.131 216.214)" fill="#ffb6c8"/>
      <path id="Trazado_910803" data-name="Trazado 910803" d="M21.318,9.167l-1.447-.375s-1.215-.606-3.02-1.516c-1.823-.91-4.271-2.1-6.808-3.21L0,0S1.34.517,3.324,1.3c2,.785,4.7,1.73,7.469,2.907,2.7,1.159,5.325,2.425,7.273,3.371S21.318,9.167,21.318,9.167Z" transform="translate(174.149 177.638)" fill="#ffb6c8"/>
      <path id="Trazado_910804" data-name="Trazado 910804" d="M.911.945a4.564,4.564,0,0,0,.357,1.8,2.553,2.553,0,0,1,.214,1.587,9.111,9.111,0,0,0-.375-1.819c-.143-.464-.34-.963-.465-1.3C.25.482,0,0,0,0L.911.945Z" transform="translate(270.484 165.118)" fill="#ffb6c8"/>
      <path id="Trazado_910805" data-name="Trazado 910805" d="M1.023,0C3.561,3.852,7.993,2.55,2.489,3.139-2.872.642,2.292,1.445,1.023,0Z" transform="translate(308.363 122.797)" fill="#ffb6c8"/>
      <path id="Trazado_910806" data-name="Trazado 910806" d="M6.451,2.853A23.537,23.537,0,0,1,0,0C4.557.25,4.253,1.605,6.451,2.853Z" transform="translate(322.324 130.876)" fill="#ffb6c8"/>
    </g>
    <g id="Grupo_1106740" data-name="Grupo 1106740" transform="translate(1456.221 5224.957)">
      <g id="Grupo_1106737" data-name="Grupo 1106737" transform="translate(-44 -285)">
        <path id="Trazado_910807" data-name="Trazado 910807" d="M495.353,49.439c-.32-.038-.678-.056-1-.094a6.082,6.082,0,0,1,2.412-.865,43.339,43.339,0,0,0-7.689.846,21.086,21.086,0,0,0-6.219,2.144,50.362,50.362,0,0,0-11.515,7.768c-2.563.865-4.485,2.558-4.3,3.781s2.412,1.5,4.976.64a10.726,10.726,0,0,1,1.753-.207,54.194,54.194,0,0,0,14.172-1.091c-1.036.038-2.13.056-3.166.094.754-.132,1.489-.263,2.243-.433q.566-.113,1.131-.282c.339-.094.867-.282,1-.3a1.443,1.443,0,0,0-.6-.489c1.244.414,4.353-.226,7.256-1.317a29.986,29.986,0,0,0,4.391-2.069c.735-.414,1.282-.79,2.017-1.279a17.872,17.872,0,0,0,1.866-1.448c.264-.245.509-.489.716-.715l.773-.771a4.876,4.876,0,0,0,.961-1.392,1.315,1.315,0,0,0-.6-1.843,4.585,4.585,0,0,0-1.432-.451c-.584-.094-1.338-.113-1.885-.226a17.54,17.54,0,0,0-2.092-.113c-.735.019-1.527.038-2.356.056,0,0-2.884.113-2.827.075Z" transform="translate(-219.126 -3.847)" fill="#bad1ff"/>
        <path id="Trazado_910808" data-name="Trazado 910808" d="M477.508,48.982c1.131.056,2.808-.019,4.335-.038,1.659-.038,3.3-.075,4.938-.132l.735.207-.735-1.712v.132a23.038,23.038,0,0,1-4.9,3.235c-1.64.846-3.392,1.73-5.07,2.577l-1.338.809a2.1,2.1,0,0,0-.942,1.43c-.038.959,1.489,1.279,3.392.7l1.093-.339a6.3,6.3,0,0,1,.81-.169,21.234,21.234,0,0,0,4.014-.621c.829-.188,1.677-.414,2.525-.658.886-.263,1.772-.564,2.62-.884a31.231,31.231,0,0,0,5.126-2.464,18.228,18.228,0,0,0,4.316-3.536c.132-.15.151-.263.264-.414a1.194,1.194,0,0,0,.207-.414.521.521,0,0,0-.32-.545,3.24,3.24,0,0,1-1.225-.865c-.075-.621-1.036-.846-2.507-.734-.358.019-.773.075-1.169.132a7.6,7.6,0,0,0-1.074.132,18.425,18.425,0,0,0-2.412.564c-3.166.9-5.3,2.483-5.164,3.743-.49.056-1.018.113-1.508.169l.98-.752c-.49,1.26-2.978,2.238-4.486,3.273-.188.056-1.866.884-1.941.922.056-.019,1.979,2.389,1.979,2.389l.415-.339c.245-.169.6-.376.584-.376-.132-.094-.4-.207-.377-.207a60.073,60.073,0,0,1,7.878-4.5l4.165-2.426c1.131-.959.716-1.674-.848-1.674,0,0-.565.038-1.15.056h-1.055c.339.019.641.056.98.075-2.205.376-4.467.771-6.709,1.166-2.092.339-4.2.677-5.937.846a1.348,1.348,0,0,0-1.187.658c-.113.32.188.583.7.564Z" transform="translate(-212.494 -7.34)" fill="#bad1ff"/>
        <g id="Grupo_1106736" data-name="Grupo 1106736">
          <path id="Trazado_910809" data-name="Trazado 910809" d="M483.459,44.933c.415-.019.829-.056,1.282-.113a6.153,6.153,0,0,0,1.621-.489c.283-.245.433-.376.509-.451a16.134,16.134,0,0,1-1.941.207c-1.206.038-1.658.489-1.47.846Z" transform="translate(-204.631 -7.899)" fill="#bad1ff"/>
          <path id="Trazado_910810" data-name="Trazado 910810" d="M485.25,43.96c.509-.075.867-.113.867-.113a6.135,6.135,0,0,1-.622-.038.616.616,0,0,1-.151.075l-.094.075Z" transform="translate(-203.01 -7.961)" fill="#bad1ff"/>
          <path id="Trazado_910811" data-name="Trazado 910811" d="M414.853,81.4q-9.159,2.793-18.3,5.718L378.441,93c-.4.132-.7.376-.66.545.038.15.4.188.773.056l18.093-5.869q9.131-2.906,18.281-5.7c.415-.132.7-.376.7-.564-.038-.169-.377-.226-.754-.113Z" transform="translate(-298.085 25.065)" fill="#bad1ff"/>
          <path id="Trazado_910812" data-name="Trazado 910812" d="M347.646,90.214c.226-.245.151-.414-.189-.414a1.631,1.631,0,0,0-.961.414c-.189.207-.094.414.188.395a1.457,1.457,0,0,0,.942-.414Z" transform="translate(-325.846 32.554)" fill="#bad1ff"/>
          <path id="Trazado_910813" data-name="Trazado 910813" d="M354.56,133.637a31.368,31.368,0,0,0,4.3-2.8,1.963,1.963,0,0,1,.792-.3c-.207-.226.019-.6.584-.94,5.5-3.4,11.383-6.734,17.433-9.687,6.05-2.972,12.25-5.85,18.375-8.784a1.491,1.491,0,0,1,.3-.828,7.57,7.57,0,0,1,4.127-2.5l1.432-.32c5.692-1.618,11.364-3.216,17.037-4.834a18.478,18.478,0,0,1,3.656-1.956c4.448-2.539,8.933-5.022,13.569-7.373-.377-.075-.641-.226-.716-.47-.113-.621.848-1.448,2.186-1.9l1.979-.752-5.861,1.58a3.328,3.328,0,0,1-.792.169q-3.138,1.072-6.332,2.314c-9.235,3.593-18.206,7.561-26.856,11.7-8.669,4.157-17.113,8.69-25.443,13.167a1.715,1.715,0,0,1-1.018.32c-.226-.075-.264-.263.038-.47,9.989-6.941,18.319-14.483,30.173-20.8q10.6-5.727,21.165-11.1c7.049-3.593,14.229-7.072,21.353-10.571,7.784-2.878,15.209-5.944,22.333-9.367,7.162-3.386,14.418-6.79,21.711-10.646,5.013-2.558,9.819-4.947,14.889-7.392q7.915-3.781,15.812-7.373c10.592-4.759,20.882-9.593,32.209-13.806,8.2-3.687,16.773-4.213,19.092-1.223,1.376,1.825.226,4.5-2.676,7.129l2.035-.734,3.336-.809a17.421,17.421,0,0,1,8.066-.339l2.733.583a24.064,24.064,0,0,0,3.223,1.035c1.3.3,2.808.508,3.92.884a22.878,22.878,0,0,1,6.182,2.577l-.226,1.26.66.15c2.073.263,3.656.94,4.391,1.919l.226,1.373a8.877,8.877,0,0,1-1.546,5.116,2.354,2.354,0,0,1-.038,1.787c1.7.978,2.752,2.22,2.167,4.082.9.15.942.771.113,1.392a4.255,4.255,0,0,1-1.055.527h0a9.029,9.029,0,0,0,1.395.489c.829-.113,1.3-.169,1.3-.169l4.146-.771a13.81,13.81,0,0,1,3.129.169c2.978,1.524,3.129,1.43,3.129,2.577a5.708,5.708,0,0,1-.339.47c1.018-.226,1.583-.339,1.941-.414.584-.226.886-.32,1.338-.489,1-.3,1.715-.47,1.715-.47.434.414.434.414,1.112.245a.52.52,0,0,1,.377.282c-1.508,1.636-1.583,1.618-1.527,1.825a11.037,11.037,0,0,1-.98.865c-1.508.865-2.111,1.2-2.356,1.354-.848-.075-1.47-.132-1.941-.169-.4-.094-.66-.15-.829-.188-.339-.075-.358-.075-.358-.075l-.32.658-.754-.47.509.489L613,60.863l1.489.075c-1.357.339-2.035.508-2.507.621a11.871,11.871,0,0,0-1.187.357,10.01,10.01,0,0,0-1.96.7,1.53,1.53,0,0,1,.188.3c-2.62.527-2.582.508-5.051.959a4.423,4.423,0,0,1-.66-.245,1.688,1.688,0,0,1-1.018.527l-1.206.245-.17.15v.038c-.283.207-.49.357-.7.527-.132.113-.151.113-.151.113h0c-.6.433-1.451,1.072-3.75,2.746a19.769,19.769,0,0,1-2.054.47c.226,0,.452.038.66.038.434.056.283.7.49.658q2.007-.31,4.014-.734l1.018-.226.773-.075c.528-.056.961-.113,1.7-.245,2.582-.414,5.6-1,8.707-1.618,1.112-.414,2.262-.433,2.563-.056.283.4-.4,1.035-1.545,1.448a87.749,87.749,0,0,1-8.575,4.232c-1.168.527-2.356,1.072-3.543,1.6-1.451.64-2.921,1.26-4.41,1.825A98.056,98.056,0,0,1,578,80.237q-4.467,1.3-8.99,2.633l.528.094-2.412.47-.245.075,2.092.282,1.3-.188c6.9-2.2,13.569-3.1,20.392-4.665,3.675-.846,6.992-1.091,10.5-1.693.867-.282,1.564-.169,1.6.263.038.414-.66.978-1.508,1.241-10.7,4.89-23.351,9.066-33.453,9.273a22.6,22.6,0,0,1-5.9,1.43h-.094c.528.113,1.036.188,1.564.263-1.583.451-2.657.15-4.127.47l.942.828c-7.689,2.52-15.586,6.264-23.125,7.712-.283.094-.565.169-.829.245a46.01,46.01,0,0,1-8.82,5.605c1.263-.395,2.469-.79,3.732-1.2a45.737,45.737,0,0,1-7.765,4.176c-7.859,3.216-17.245,5.455-22.484,4.289l-22.5,9.386q-11.223,4.458-22.371,9.123c-.754.32-1.527.339-1.79.075-.188-.282.207-.771.961-1.091,5.2-2.52,10.5-4.966,15.812-7.336l8.029-3.5,8.085-3.63c-9.386,3.16-18.79,5.869-28.232,9.254l-3.562,1.467a22.037,22.037,0,0,1-3.6,1.091c-11.968,4.251-23.37,8.126-35.149,13.242-10.139,4.345-18.677,8.445-28.477,13.148-6.785,3.4-13.155,6.753-19.619,9.875-3.26,1.524-6.389,3.179-9.593,4.721-3.2,1.561-6.464,3.066-9.838,4.514-1.753.865-3.656,1-4.222.3s.415-1.975,2.167-2.84c26.932-14.859,54.919-28.271,86.336-38.992,3.392-1.166,6.747-2.295,10.064-3.442a1.074,1.074,0,0,1-.207-.3,1.641,1.641,0,0,1,.415-1.5c-3.788,1.241-7.652,2.408-11.534,3.536a280.181,280.181,0,0,1-31.643,12.96c-7.708,2.5-15.039,3.95-22.3,5.869-8.594,3.988-17.188,7.938-25.65,12.207a1.09,1.09,0,0,1-.9.188c-.189-.094-.075-.339.264-.545,2.789-1.787,5.635-3.517,8.537-5.229,2.959-1.636,5.974-3.216,8.99-4.8-1.206-.113-2.054-.527-2.262-1.26-.226-.771.3-1.73,1.3-2.671l-4.353,1.655c-.9.32-1.715.32-1.847-.056-.151-.414.452-.959,1.3-1.3q8.877-3.386,17.716-6.771,10.46-4.571,21.014-8.953a4.787,4.787,0,0,1-2.714-1.016h0c-1.112.414-2.205.846-3.3,1.26q-7.293,3.583-14.738,7c-4.919,2.351-9.876,4.684-14.87,6.941-2.507,1.11-5.013,2.22-7.539,3.31-2.507,1.129-4.994,2.276-7.5,3.4q-7.52,3.386-15.209,6.508c-.4.169-.792.188-.867,0-.075-.169.17-.433.528-.583q9.273-3.781,18.338-7.919h-.038c-.283,0-.415-.169-.188-.395a1.648,1.648,0,0,1,.961-.414c.339,0,.377.188.188.4,5.635-2.558,11.346-4.947,16.905-7.58q8.368-3.922,16.679-7.844l-7.934,3.047-7.878,3.141c-5.258,2.069-10.535,4.082-15.869,5.981-1.037.7-2.092,1.392-3.147,2.088a1.282,1.282,0,0,1-.942.15c-.151-.094,0-.376.32-.545l.886-.564c-2,.771-3.807.715-4.146-.15-.264-.94,1.131-2.351,3.2-3.2,5.428-2.5,10.969-4.665,16.491-6.922l1.734-.865,1.64-1.129c-8.745,3.085-17.6,5.85-26.215,9.16-.716.32-1.451.339-1.6.038s.32-.809,1.055-1.147c7.181-3.931,14.606-7.355,22.088-10.815,7.463-3.517,15.077-6.677,22.71-9.819,4.58-3.254,9.2-6.508,13.909-9.706-.66.226-1.338.451-2,.658-8.443,3.01-15.906,6.941-23.219,10.834-7.331,3.894-14.474,8.182-22.427,11.737-.4.207-.792.188-.9.056s.113-.414.509-.564c7.708-3.593,14.418-7.881,21.975-11.737,6.257-3.2,12.231-6.207,17.961-9.5-6.163,2.483-12.1,5.248-17.98,8.069-5.88,2.765-11.685,5.869-17.678,8.615a3,3,0,0,1-1.489.395.519.519,0,0,1-.207.339,43.576,43.576,0,0,1-4.523,2.934,1.144,1.144,0,0,1-.98.188c-.226-.075-.094-.3.245-.546Zm221.2-64.855c.151.019.264.056.377.075-.358.019-.754.056-1.187.094l-1.979-.715S574.367,68.519,575.761,68.782Zm16.905-11.888h0c.641.226,1.112.395,1.112.395-.452-.169-.81-.3-1.093-.395ZM477.59,116.822a184.894,184.894,0,0,1,20.053-6.564l-4.674,2.088C487.88,113.906,482.754,115.43,477.59,116.822Zm112.4-47.945a22.49,22.49,0,0,1-5.051-.734,20.826,20.826,0,0,1-3.355,1.486c-3.166,1.11-6.276,2.107-9.367,3.028.565.3-.17.527-.528.715s-.716.357-1.093.545q4.975-1.326,10.064-2.652c3.072-.79,6.332-1.825,9.31-2.389Zm21.994-9.348a2.426,2.426,0,0,1,.358.075l-.471.9s.038-.414.094-.978ZM612.738,58c-.188.038-.377.056-.584.094C612.267,57.779,612.474,57.816,612.738,58Zm-5.032.621a2.918,2.918,0,0,0,.754.188Zm-9.2-19.411-.7,3.969.886-3.875Z" transform="translate(-335.493 -24.751)" fill="#bad1ff"/>
        </g>
      </g>
      <g id="Grupo_1106739" data-name="Grupo 1106739" transform="translate(20.072 -189.47)">
        <path id="Trazado_910814" data-name="Trazado 910814" d="M374.24,110.734a4.906,4.906,0,0,1,.49.056,1.932,1.932,0,0,1-1,.545c4.825,0,9.687-3.517,12.326-6.865,1.263-.489,2.13-1.524,1.922-2.314s-1.413-1.016-2.676-.527a5.691,5.691,0,0,1-.9.094,22.528,22.528,0,0,0-7.444.376h1.7a9.81,9.81,0,0,0-2.318.6l.452.282c-2.808.094-5.918,1.919-6.954,4.063s.377,3.818,3.185,3.705h1.263Z" transform="translate(-369.49 -52.78)" fill="#bad1ff"/>
        <path id="Trazado_910815" data-name="Trazado 910815" d="M379.8,109.811c-1.64.169-3.242.263-4.844.357l-.377-.132.584,1.091v-.094c.867-1.524,2.827-2.878,4.674-4.025l.622-.47a1.178,1.178,0,0,0,.358-.884c-.075-.621-.9-.846-1.866-.527l-1.093.376c-2.846.508-6.879,2.295-7.482,4.853-.132.583.4,1.016.7,1.5.226.79,1.47,1.016,2.77.489s2.167-1.58,1.922-2.389c.245-.038.49-.094.716-.132l-.4.508c.075-.809,1.187-1.486,1.9-2.22l1.225-.771-1.508-1.411-.584.545a1.406,1.406,0,0,1,.226.132A32.441,32.441,0,0,1,374,109.642l-1.489,1.448c-.339.545-.075,1.016.584,1.091h.961a3.666,3.666,0,0,1-.452-.038c2-.433,4.014-1.053,5.993-1.448a.921.921,0,0,0,.716-.508c.056-.226-.151-.376-.49-.32Z" transform="translate(-368.721 -49.6)" fill="#bad1ff"/>
        <g id="Grupo_1106738" data-name="Grupo 1106738" transform="translate(2.658)">
          <path id="Trazado_910816" data-name="Trazado 910816" d="M372.595,109.21a2.237,2.237,0,0,0-1.112.207,2.265,2.265,0,0,0-.113.226c.189,0,.452.019.7.038.509.038.641-.226.509-.47Z" transform="translate(-370.484 -45.876)" fill="#bad1ff"/>
          <path id="Trazado_910817" data-name="Trazado 910817" d="M371.512,109.44h-.3a1.483,1.483,0,0,1,.226.075l.038-.038.019-.038Z" transform="translate(-370.626 -45.673)" fill="#bad1ff"/>
          <path id="Trazado_910818" data-name="Trazado 910818" d="M412.909,92.088q8.707-3.358,17.282-7.016c.189-.075.32-.226.283-.339-.038-.094-.226-.132-.4-.038-5.748,2.408-11.477,4.759-17.282,7-.189.075-.32.226-.283.339s.207.15.4.075Z" transform="translate(-334.093 -67.52)" fill="#bad1ff"/>
          <path id="Trazado_910819" data-name="Trazado 910819" d="M437.721,84.036c-.094.15-.038.245.132.263a.626.626,0,0,0,.471-.226.167.167,0,0,0-.132-.263.562.562,0,0,0-.452.226Z" transform="translate(-311.827 -68.252)" fill="#bad1ff"/>
          <path id="Trazado_910820" data-name="Trazado 910820" d="M499.471,100.313a13.9,13.9,0,0,0-1.922,1.636.759.759,0,0,1-.377.169c.132.15.057.376-.207.583-4.938,4.025-10.7,7.392-16.283,10.891a1.325,1.325,0,0,1-.057.527,2.9,2.9,0,0,1-1.828,1.542l-.7.188c-2.714.959-5.409,1.919-8.123,2.878a6.488,6.488,0,0,1-1.64,1.2c-2,1.58-4.014,3.122-6.125,4.571a.535.535,0,0,1,.415.32c.132.4-.283.922-.9,1.185l-.923.451,2.827-.959a1.015,1.015,0,0,1,.4-.094c1-.433,1.979-.9,2.978-1.411a178.035,178.035,0,0,0,23.841-15.1.587.587,0,0,1,.49-.169.169.169,0,0,1,.038.3c-4.335,4.27-7.689,8.822-13,12.753-6.314,4.7-12.646,9.123-19.393,13.374-7.463,3.48-14.078,7.524-21.523,11.7C427.421,152.472,417.6,157.1,407.406,161.8c-3.694,2.031-7.9,2.05-9.367.056-.886-1.223-.565-2.878.622-4.458l-.942.4-1.6.4a7.083,7.083,0,0,1-4.033-.056l-1.451-.47c-2.149-1.147-5.013-1.618-6.954-2.972l-.057-.809-.358-.075a3.641,3.641,0,0,1-2.488-1.129l-.283-.884a6.7,6.7,0,0,1,.132-3.329,1.964,1.964,0,0,1-.207-1.147,2.842,2.842,0,0,1-1.621-2.6c-.471-.094-.565-.489-.226-.884a1.727,1.727,0,0,1,.452-.357h0a7.843,7.843,0,0,0-.754-.3c-.4.075-.622.132-.622.132q-1.018.263-1.9.508a4.592,4.592,0,0,1-1.451-.188,4.461,4.461,0,0,1-1.6-1.862,2.233,2.233,0,0,1,.075-.263c-.716.056-.773.056-.98.075a2.249,2.249,0,0,1-.415-.113,1.012,1.012,0,0,0-.339-.414.752.752,0,0,1-.132-.245,1.636,1.636,0,0,0,.151-.658,1.26,1.26,0,0,1,.113-.282c.358-.3.509-.414.565-.47,1.263.508,1.282.508,1.282.508l.057-.395.377.32-.283-.339.547.038-.66-.113a11.335,11.335,0,0,0,1.527-.545,3.447,3.447,0,0,0,.829-.433.628.628,0,0,1-.132-.188q1.187-.357,2.356-.7a3.706,3.706,0,0,1,.358.132.759.759,0,0,1,.471-.376l.6-.188.094-.113v-.038c.17-.169.283-.263.415-.395l.075-.094h0c.283-.263.678-.677,1.772-1.73a7.482,7.482,0,0,1,1.036-.245l-.358-.038c-.226-.038-.207-.451-.32-.433a60.046,60.046,0,0,0-8.2,2.05c-.452.245-.961.245-1.15,0s.038-.658.49-.9c4.448-4.157,10.95-6.809,16.962-7.806l4.467-1.448-.283-.075,1.225-.245.132-.038-1.112-.226-.66.075c-3.411,1.241-6.841,1.636-10.29,2.483-1.866.451-3.581.527-5.39.828-.434.15-.81.075-.886-.207-.057-.263.264-.6.678-.771,5.22-2.859,11.553-5.267,16.811-5.135a7.271,7.271,0,0,1,2.978-.677h.057l-.829-.245a20.622,20.622,0,0,1,2.13-.094l-.565-.583c3.845-1.2,7.689-3.179,11.515-3.705.151-.056.283-.075.415-.113a17.456,17.456,0,0,1,4.184-3.122c-.622.188-1.225.376-1.828.564a16.3,16.3,0,0,1,3.619-2.2c3.656-1.58,8.2-2.332,10.95-1.392,6.917-3.367,13.89-6.79,20.712-10.5.358-.188.735-.207.9-.019.132.188,0,.489-.358.7-4.712,3.028-9.649,5.812-14.606,8.445,4.448-1.561,8.9-3.254,13.325-5.191l1.64-.865a8.979,8.979,0,0,1,1.715-.658c5.616-2.577,10.969-4.928,16.453-8.069,4.674-2.709,8.726-5.135,13.306-8.032,6.408-4.063,12.213-7.844,18.96-10.966.867-.47,1.866-.489,2.224,0,.339.47-.075,1.26-.942,1.73-13.324,8.126-26.234,16.458-41.048,23-1.6.7-3.166,1.392-4.749,2.069a.95.95,0,0,1,.094,1.147c1.79-.752,3.619-1.448,5.484-2.125A92.277,92.277,0,0,1,475.1,93.805a104.143,104.143,0,0,1,10.912-3.329c4.108-2.295,8.16-4.665,12.326-6.922a.452.452,0,0,1,.471-.075c.113.075.057.226-.094.339-2.657,2.013-5.447,3.894-8.311,5.756a1.5,1.5,0,0,1,1.282.884,1.829,1.829,0,0,1-.415,1.674l2.092-.922c.434-.188.867-.15.961.094.113.263-.151.6-.547.79-2.846,1.279-5.673,2.539-8.519,3.8q-4.891,2.737-9.838,5.38a2.686,2.686,0,0,1,1.508.7h0l1.545-.752a194.56,194.56,0,0,1,28.439-15.349c.188-.094.4-.075.452.038s-.057.263-.226.339c-3.016,1.3-5.993,2.69-8.914,4.138h0a.156.156,0,0,1,.132.263.63.63,0,0,1-.471.226c-.17,0-.207-.132-.132-.263-5.447,2.727-10.724,5.737-15.831,8.916,4.975-2.445,9.989-4.834,15.115-6.941l1.47-1.166a.541.541,0,0,1,.471-.056c.075.075.019.245-.113.339l-.415.32c.98-.4,1.922-.282,2.167.3.226.6-.4,1.448-1.395,1.881q-3.9,2-7.821,3.856l-.81.489-.735.677c4.2-1.674,8.424-3.292,12.627-4.872.339-.169.716-.132.829.056.094.207-.094.508-.452.677-6.785,4.138-13.8,8.032-20.92,11.775-2,1.975-4,3.988-6.012,5.981l.942-.395c7.916-3.668,13.494-9.273,20.92-13.336a.359.359,0,0,1,.452,0c.075.094,0,.263-.207.339-3.581,2.069-6.615,4.514-10.045,6.828-2.846,1.919-5.56,3.743-8.1,5.718,5.729-2.934,10.837-6.621,16.415-9.781a1.084,1.084,0,0,1,.716-.207.258.258,0,0,1,.075-.207,16.487,16.487,0,0,1,2.017-1.73.476.476,0,0,1,.49-.094c.113.056.075.188-.075.339ZM392.1,134.829s-.132-.038-.207-.056c.189,0,.377,0,.6-.019l1.093.508S392.856,135.054,392.1,134.829Zm-7.614,7.129h0c-.358-.169-.622-.282-.622-.282Q384.234,141.845,384.488,141.957Zm54-33.124a59,59,0,0,1-9.5,3.423l2.167-1.147C433.565,110.3,436.015,109.586,438.484,108.834ZM384.7,134.4a11.013,11.013,0,0,1,2.714.6,9.342,9.342,0,0,1,1.6-.865c1.545-.621,3.072-1.185,4.58-1.674-.32-.207.038-.339.207-.451l.509-.32c-1.64.47-3.3.94-4.994,1.43-1.527.414-3.129,1-4.636,1.279Zm-10.328,6.019-.189-.056.094-.564s.038.263.075.621Zm-.132.959.245-.038C374.481,141.544,374.368,141.506,374.236,141.374Zm2.28-.357a2.693,2.693,0,0,0-.4-.113Zm7.105,12.32-.17-2.558.056,2.5Z" transform="translate(-370.9 -75.539)" fill="#bad1ff"/>
        </g>
      </g>
    </g>
  </g>
</svg>
