<svg xmlns="http://www.w3.org/2000/svg" width="84.945" height="84.945" viewBox="0 0 84.945 84.945">
  <g id="Grupo_1142383" data-name="Grupo 1142383" transform="translate(-185.986 -2974)">
    <path id="Trazado_861606" data-name="Trazado 861606" d="M42.473,0A42.473,42.473,0,1,1,0,42.473,42.473,42.473,0,0,1,42.473,0Z" transform="translate(185.986 2974)" fill="#ffb6c8"/>
    <g id="contract_2861234" transform="translate(200.507 2990.521)">
      <g id="Grupo_1134784" data-name="Grupo 1134784" transform="translate(1.805 1.805)">
        <g id="Grupo_1134770" data-name="Grupo 1134770" transform="translate(0 8.049)">
          <path id="Trazado_938959" data-name="Trazado 938959" d="M19.708,12V23.269H2V12Z" transform="translate(-2 -12)" fill="#b4dd7f"/>
        </g>
        <g id="Grupo_1134771" data-name="Grupo 1134771" transform="translate(12.879 39.44)">
          <path id="Trazado_938960" data-name="Trazado 938960" d="M53.416,51v8.049a.807.807,0,0,1-.8.8H18.8a.807.807,0,0,1-.8-.8V56.634H43.322a1.694,1.694,0,0,0,.451-.064,1.441,1.441,0,0,0,.362-.153Z" transform="translate(-18 -51)" fill="#ffeaa7"/>
        </g>
        <g id="Grupo_1134772" data-name="Grupo 1134772" transform="translate(12.879)">
          <path id="Trazado_938961" data-name="Trazado 938961" d="M34.9,10.049a2.411,2.411,0,0,0,2.415-2.415.807.807,0,0,0-.8-.8l.145-.145a2.248,2.248,0,0,0,.66-1.594,2.2,2.2,0,0,0-.378-1.24l-.757-1.135A1.594,1.594,0,0,0,34.847,2H53.416V41.44H50.39a7.625,7.625,0,0,1-3.413-.8l-3.2,6.375a1.694,1.694,0,0,1-.451.064H18V21.318h4.829l.338.169a13.628,13.628,0,0,0,6.1,1.441h-1.61a3.219,3.219,0,0,0-3.22,3.22v.8a.807.807,0,0,0,.8.8H39.733a.807.807,0,0,0,.8-.8v-.8a3.219,3.219,0,0,0-3.22-3.22h3.22a1.615,1.615,0,0,0,1.61-1.61,1.622,1.622,0,0,0-1.61-1.61h1.61a1.622,1.622,0,0,0,1.61-1.61,1.615,1.615,0,0,0-1.61-1.61,1.622,1.622,0,0,0,1.61-1.61,1.615,1.615,0,0,0-1.61-1.61,1.622,1.622,0,0,0,1.61-1.61,1.615,1.615,0,0,0-1.61-1.61H37.318a1.574,1.574,0,0,0-1.135.475,1.817,1.817,0,0,0-.2.233Z" transform="translate(-18 -2)" fill="#e6e9ed"/>
        </g>
        <g id="Grupo_1134773" data-name="Grupo 1134773" transform="translate(38.652 38.636)">
          <path id="Trazado_938962" data-name="Trazado 938962" d="M59.663,50.8l-9.281,5.417a1.441,1.441,0,0,1-.362.153L53.224,50a7.625,7.625,0,0,0,3.413.8Z" transform="translate(-50.02 -50)" fill="#b4dd7f"/>
        </g>
        <g id="Grupo_1134774" data-name="Grupo 1134774" transform="translate(16.098 28.977)">
          <path id="Trazado_938963" data-name="Trazado 938963" d="M42.284,38.056a3.295,3.295,0,0,1,.934,5.763l-1.046.789a2.116,2.116,0,0,0-.853,1.7,2.968,2.968,0,0,1-2.962,2.962h-.982a2.125,2.125,0,0,0-1.505.62,3.368,3.368,0,0,1-4.25.427l-.9-.6a2.672,2.672,0,0,0-2.946,0l-.966.652A3.088,3.088,0,0,1,22,47.788v-.048a2.879,2.879,0,0,1,.491-1.618L23.232,45a2.2,2.2,0,0,0,.378-1.24,2.248,2.248,0,0,0-.66-1.594l-.282-.282A2.284,2.284,0,0,1,22,40.27v-.032A2.233,2.233,0,0,1,24.238,38h3.212a5.081,5.081,0,0,0-.62,2.415c0,3.115,2.882,5.634,6.439,5.634s6.439-2.519,6.439-5.634A5.081,5.081,0,0,0,39.088,38h3.035Z" transform="translate(-22 -38)" fill="#ffc729"/>
        </g>
        <g id="Grupo_1134775" data-name="Grupo 1134775" transform="translate(20.928 28.172)">
          <path id="Trazado_938964" data-name="Trazado 938964" d="M29.151,37H39.728a5.352,5.352,0,0,1,.531.8,5.081,5.081,0,0,1,.62,2.415c0,3.115-2.882,5.634-6.439,5.634S28,43.335,28,40.22a5.081,5.081,0,0,1,.62-2.415A5.353,5.353,0,0,1,29.151,37Z" transform="translate(-28 -37)" fill="#fcd770"/>
        </g>
        <g id="Grupo_1134776" data-name="Grupo 1134776" transform="translate(22.537)">
          <path id="Trazado_938965" data-name="Trazado 938965" d="M39.281,3.851a2.2,2.2,0,0,1,.378,1.24A2.248,2.248,0,0,1,39,6.685l-.145.145H32.946a10.611,10.611,0,0,0-1.964.177l-.322-.322A2.248,2.248,0,0,1,30,5.091a2.2,2.2,0,0,1,.378-1.24l.757-1.135A1.594,1.594,0,0,1,32.471,2h4.717a1.594,1.594,0,0,1,1.336.716Z" transform="translate(-30 -2)" fill="#b27946"/>
        </g>
        <g id="Grupo_1134777" data-name="Grupo 1134777" transform="translate(24.147 8.049)">
          <path id="Trazado_938966" data-name="Trazado 938966" d="M38.439,13.61a1.615,1.615,0,0,0,1.61,1.61,1.622,1.622,0,0,0-1.61,1.61,1.615,1.615,0,0,0,1.61,1.61,1.622,1.622,0,0,0-1.61,1.61,1.615,1.615,0,0,0,1.61,1.61,1.622,1.622,0,0,0-1.61,1.61,1.615,1.615,0,0,0,1.61,1.61H32v-10.5a3.934,3.934,0,0,0,1.079-1.32A1.923,1.923,0,0,1,34.793,12h2.841l1.079.708A1.589,1.589,0,0,0,38.439,13.61Z" transform="translate(-32 -12)" fill="#cf9e76"/>
        </g>
        <g id="Grupo_1134778" data-name="Grupo 1134778" transform="translate(19.318 20.928)">
          <path id="Trazado_938967" data-name="Trazado 938967" d="M42.1,31.22v.8a.807.807,0,0,1-.8.8H26.8a.807.807,0,0,1-.8-.8v-.8A3.219,3.219,0,0,1,29.22,28h9.659A3.219,3.219,0,0,1,42.1,31.22Z" transform="translate(-26 -28)" fill="#aab2bd"/>
        </g>
        <g id="Grupo_1134779" data-name="Grupo 1134779" transform="translate(30.587 11.269)">
          <path id="Trazado_938968" data-name="Trazado 938968" d="M46.439,16a1.615,1.615,0,0,1,1.61,1.61,1.622,1.622,0,0,1-1.61,1.61H41.61A1.615,1.615,0,0,1,40,17.61,1.622,1.622,0,0,1,41.61,16Z" transform="translate(-40 -16)" fill="#f0d0b4"/>
        </g>
        <g id="Grupo_1134780" data-name="Grupo 1134780" transform="translate(30.587 17.708)">
          <path id="Trazado_938969" data-name="Trazado 938969" d="M45.964,24.475a1.574,1.574,0,0,1,.475,1.135,1.615,1.615,0,0,1-1.61,1.61H41.61A1.615,1.615,0,0,1,40,25.61,1.622,1.622,0,0,1,41.61,24h3.22A1.574,1.574,0,0,1,45.964,24.475Z" transform="translate(-40 -24)" fill="#f0d0b4"/>
        </g>
        <g id="Grupo_1134781" data-name="Grupo 1134781" transform="translate(30.587 14.488)">
          <path id="Trazado_938970" data-name="Trazado 938970" d="M46.439,20a1.615,1.615,0,0,1,1.61,1.61,1.622,1.622,0,0,1-1.61,1.61H41.61A1.615,1.615,0,0,1,40,21.61,1.622,1.622,0,0,1,41.61,20Z" transform="translate(-40 -20)" fill="#f0d0b4"/>
        </g>
        <g id="Grupo_1134782" data-name="Grupo 1134782" transform="translate(30.587 8.049)">
          <path id="Trazado_938971" data-name="Trazado 938971" d="M41.61,12h4.829a1.615,1.615,0,0,1,1.61,1.61,1.622,1.622,0,0,1-1.61,1.61H41.61A1.615,1.615,0,0,1,40,13.61a1.589,1.589,0,0,1,.274-.9,1.817,1.817,0,0,1,.2-.233A1.574,1.574,0,0,1,41.61,12Z" transform="translate(-40 -12)" fill="#f0d0b4"/>
        </g>
        <g id="Grupo_1134783" data-name="Grupo 1134783" transform="translate(17.708 4.829)">
          <path id="Trazado_938972" data-name="Trazado 938972" d="M30.439,13.6V24.1a13.628,13.628,0,0,1-6.1-1.441L24,22.488V11.22a10.965,10.965,0,0,1,5.811-3.043A10.611,10.611,0,0,1,31.775,8h5.908a.807.807,0,0,1,.8.8,2.411,2.411,0,0,1-2.415,2.415H33.232a1.923,1.923,0,0,0-1.714,1.062A3.934,3.934,0,0,1,30.439,13.6Z" transform="translate(-24 -8)" fill="#f0d0b4"/>
        </g>
      </g>
      <g id="Grupo_1134785" data-name="Grupo 1134785" transform="translate(1 1)">
        <path id="Trazado_938973" data-name="Trazado 938973" d="M49.294,1V40.44H47.07a6.849,6.849,0,0,1-3.05-.72l-.719-.359-3.37,6.714H15.488V21.928h3.835l.17.085a14.339,14.339,0,0,0,2.25.893,4,4,0,0,0-1.425,3.047v.8a1.611,1.611,0,0,0,1.61,1.61H36.416a1.611,1.611,0,0,0,1.61-1.61v-.8a4.008,4.008,0,0,0-.807-2.415h0a2.407,2.407,0,0,0,2.238-3.313,2.393,2.393,0,0,0,1.159-3.931,2.378,2.378,0,0,0,0-3.22,2.4,2.4,0,0,0-1.787-4.025H34.359a3.186,3.186,0,0,0,.448-1.61,1.6,1.6,0,0,0-.4-1.053,3,3,0,0,0-.11-3.179l-.755-1.133A2.411,2.411,0,0,0,31.53,1H26.813A2.411,2.411,0,0,0,24.8,2.075l-.755,1.133A3,3,0,0,0,23.9,6.322a11.706,11.706,0,0,0-4.718,2.727H1V21.928H13.879V49.294a1.611,1.611,0,0,0,1.61,1.61H49.294a1.611,1.611,0,0,0,1.61-1.61V1ZM27.286,7.439H33.2a1.611,1.611,0,0,1-1.61,1.61h-2.84a2.705,2.705,0,0,0-2.435,1.505,3.084,3.084,0,0,1-2.775,1.714v1.61a4.719,4.719,0,0,0,1.61-.291v8.294a12.875,12.875,0,0,1-4.829-1.263V10.209a10.11,10.11,0,0,1,6.968-2.77Zm12.35,7.244a.806.806,0,0,1-.8.8H34a.8.8,0,1,1,0-1.61h4.829A.806.806,0,0,1,39.636,14.683Zm-7.421-1.61a2.378,2.378,0,0,0,0,3.22,2.378,2.378,0,0,0,0,3.22,2.34,2.34,0,0,0-.48,2.415H26.757V12.6a4.7,4.7,0,0,0,.995-1.323,1.105,1.105,0,0,1,.995-.615h2.84c.052,0,.1-.013.153-.015a2.345,2.345,0,0,0,.475,2.43Zm4.2,13.683H21.928v-.8a2.418,2.418,0,0,1,2.415-2.415H34a2.418,2.418,0,0,1,2.415,2.415Zm.8-4.829H34a.8.8,0,1,1,0-1.61h3.22a.8.8,0,1,1,0,1.61Zm1.61-3.22H34a.8.8,0,1,1,0-1.61h4.829a.8.8,0,1,1,0,1.61Zm.8-7.244a.806.806,0,0,1-.8.8H34a.8.8,0,1,1,0-1.61h4.829A.806.806,0,0,1,39.636,11.464ZM25.569,5.918a1.441,1.441,0,0,1-.18-1.817l.755-1.133a.8.8,0,0,1,.67-.358h4.716a.8.8,0,0,1,.67.358L32.955,4.1a1.439,1.439,0,0,1,.241.8,1.42,1.42,0,0,1-.349.93H27.285a11.921,11.921,0,0,0-1.675.13ZM2.61,10.659h16.1v9.659H2.61ZM44.036,41.485a8.487,8.487,0,0,0,3.034.565h.052l-4.765,2.78ZM15.488,49.294v-1.61H40.005a2.418,2.418,0,0,0,1.217-.329l8.072-4.709v6.648Z" transform="translate(-1 -1)"/>
        <path id="Trazado_938974" data-name="Trazado 938974" d="M28.33,36.376A5.931,5.931,0,0,0,27,40.1c0,3.55,3.25,6.439,7.244,6.439s7.244-2.889,7.244-6.439a5.931,5.931,0,0,0-1.33-3.722l-1.259,1a4.337,4.337,0,0,1,.979,2.719c0,2.663-2.527,4.829-5.634,4.829S28.61,42.761,28.61,40.1a4.333,4.333,0,0,1,.979-2.718Z" transform="translate(-6.072 -7.902)"/>
        <path id="Trazado_938975" data-name="Trazado 938975" d="M21.625,45.476A3.756,3.756,0,0,0,21,47.594a3.894,3.894,0,0,0,3.893,3.894h0a3.88,3.88,0,0,0,2.16-.654l.967-.645a1.883,1.883,0,0,1,2.057,0l.9.6a4.172,4.172,0,0,0,5.266-.522,1.332,1.332,0,0,1,.935-.387h.988a3.77,3.77,0,0,0,3.765-3.765,1.33,1.33,0,0,1,.53-1.059l1.05-.787a4.1,4.1,0,0,0-1.164-7.172l-.16-.053-.51,1.527.16.053a2.492,2.492,0,0,1,.708,4.358l-1.05.787a2.948,2.948,0,0,0-1.174,2.346,2.158,2.158,0,0,1-2.156,2.156h-.988a2.956,2.956,0,0,0-2.074.859,2.629,2.629,0,0,1-3.234.32l-.9-.6a3.519,3.519,0,0,0-3.842,0l-.967.645a2.276,2.276,0,0,1-1.267.384h0a2.268,2.268,0,0,1-1.615-.669,2.3,2.3,0,0,1-.669-1.669,2.1,2.1,0,0,1,.355-1.171l.743-1.114a3.05,3.05,0,0,0-.382-3.848l-.285-.285a1.494,1.494,0,0,1-.431-1.084,1.429,1.429,0,0,1,1.43-1.429h.985V37h-.985A3.04,3.04,0,0,0,21,40.075a3.068,3.068,0,0,0,.9,2.186l.285.285a1.44,1.44,0,0,1,.18,1.817Z" transform="translate(-4.902 -8.023)"/>
        <path id="Trazado_938976" data-name="Trazado 938976" d="M31,39h6.439v1.61H31Z" transform="translate(-6.853 -8.413)"/>
        <path id="Trazado_938977" data-name="Trazado 938977" d="M35,43h3.22v1.61H35Z" transform="translate(-7.633 -9.194)"/>
        <path id="Trazado_938978" data-name="Trazado 938978" d="M51,27h6.439v1.61H51Z" transform="translate(-10.755 -6.072)"/>
        <path id="Trazado_938979" data-name="Trazado 938979" d="M53,23h4.829v1.61H53Z" transform="translate(-11.145 -5.292)"/>
        <path id="Trazado_938980" data-name="Trazado 938980" d="M53,19h4.829v1.61H53Z" transform="translate(-11.145 -4.512)"/>
        <path id="Trazado_938981" data-name="Trazado 938981" d="M53,15h4.829v1.61H53Z" transform="translate(-11.145 -3.731)"/>
        <path id="Trazado_938982" data-name="Trazado 938982" d="M53,11h4.829v1.61H53Z" transform="translate(-11.145 -2.951)"/>
        <path id="Trazado_938983" data-name="Trazado 938983" d="M51,7h6.439V8.61H51Z" transform="translate(-10.755 -2.171)"/>
      </g>
    </g>
  </g>
</svg>
