<svg xmlns="http://www.w3.org/2000/svg" width="84.945" height="84.945" viewBox="0 0 84.945 84.945">
  <g id="Grupo_1097878" data-name="Grupo 1097878" transform="translate(-186 -3073.398)">
    <path id="Trazado_861608" data-name="Trazado 861608" d="M42.473,0A42.473,42.473,0,1,1,0,42.473,42.473,42.473,0,0,1,42.473,0Z" transform="translate(186 3073.398)" fill="#ffb6c8"/>
    <g id="feedback_2452020" transform="translate(203.526 3088.925)">
      <g id="Grupo_1134795" data-name="Grupo 1134795" transform="translate(1.837 1.837)">
        <g id="Grupo_1134786" data-name="Grupo 1134786" transform="translate(15.066 23.436)">
          <path id="Trazado_938984" data-name="Trazado 938984" d="M51.806,30H23.348A3.347,3.347,0,0,0,20,33.348V46.74a3.347,3.347,0,0,0,3.348,3.348h2.511v5.457A1.236,1.236,0,0,0,27.1,56.784a1.254,1.254,0,0,0,.778-.268L35.9,50.088h15.9a3.347,3.347,0,0,0,3.348-3.348V33.348A3.347,3.347,0,0,0,51.806,30Z" transform="translate(-20 -30)" fill="#e6e9ed"/>
        </g>
        <g id="Grupo_1134787" data-name="Grupo 1134787" transform="translate(5.022 0)">
          <path id="Trazado_938985" data-name="Trazado 938985" d="M43.154,5.348V18.74a3.347,3.347,0,0,1-3.348,3.348H36.458v5.457a1.236,1.236,0,0,1-1.239,1.239,1.254,1.254,0,0,1-.778-.268L30.6,25.436H30.59l-4.177-3.348H13.022v-6.7A5.026,5.026,0,0,0,8,10.37V5.348A3.347,3.347,0,0,1,11.348,2H39.806A3.347,3.347,0,0,1,43.154,5.348Z" transform="translate(-8 -2)" fill="#f0d0b4"/>
        </g>
        <g id="Grupo_1134788" data-name="Grupo 1134788" transform="translate(0 8.37)">
          <path id="Trazado_938986" data-name="Trazado 938986" d="M12.044,17.022v5.022H2V17.022A5.03,5.03,0,0,1,7.022,12,5.026,5.026,0,0,1,12.044,17.022Z" transform="translate(-2 -12)" fill="#aab2bd"/>
        </g>
        <g id="Grupo_1134789" data-name="Grupo 1134789" transform="translate(0 41.85)">
          <path id="Trazado_938987" data-name="Trazado 938987" d="M12.044,52,8.236,59.625a1.361,1.361,0,0,1-2.427,0L2,52H12.044Z" transform="translate(-2 -52)" fill="#aab2bd"/>
        </g>
        <g id="Grupo_1134790" data-name="Grupo 1134790" transform="translate(0 18.414)">
          <path id="Trazado_938988" data-name="Trazado 938988" d="M12.044,25.674v1.674H2V24H12.044Z" transform="translate(-2 -24)" fill="#ffeaa7"/>
        </g>
        <g id="Grupo_1134791" data-name="Grupo 1134791" transform="translate(0 21.762)">
          <path id="Trazado_938989" data-name="Trazado 938989" d="M2,28H7.022V48.088H2Z" transform="translate(-2 -28)" fill="#69d6f4"/>
        </g>
        <g id="Grupo_1134792" data-name="Grupo 1134792" transform="translate(5.022 21.762)">
          <path id="Trazado_938990" data-name="Trazado 938990" d="M8,28h5.022V48.088H8Z" transform="translate(-8 -28)" fill="#b4dd7f"/>
        </g>
        <g id="Grupo_1134793" data-name="Grupo 1134793" transform="translate(36.828 26.784)">
          <path id="Trazado_938991" data-name="Trazado 938991" d="M46,34H56.044V47.392H46Z" transform="translate(-46 -34)" fill="#fcd770"/>
        </g>
        <g id="Grupo_1134794" data-name="Grupo 1134794" transform="translate(13.392 6.696)">
          <path id="Trazado_938992" data-name="Trazado 938992" d="M27.307,12.411a4.946,4.946,0,0,1,.737,2.611,5.032,5.032,0,1,1-.737-2.611Z" transform="translate(-18 -10)" fill="#ff826e"/>
        </g>
      </g>
      <g id="Grupo_1134796" data-name="Grupo 1134796" transform="translate(1 1)">
        <path id="Trazado_938993" data-name="Trazado 938993" d="M31.821,8.477,30.637,7.293l-3.4,3.4a5.87,5.87,0,1,0,.938,1.429Zm-4.777,6.1a4.236,4.236,0,1,1-1.005-2.689l-3.18,3.18-1.082-1.082-1.184,1.184,2.266,2.266,4.005-4.005a4.132,4.132,0,0,1,.18,1.148Z" transform="translate(-3.608 -2.026)"/>
        <path id="Trazado_938994" data-name="Trazado 938994" d="M37,5h8.37V6.674H37Z" transform="translate(-6.868 -1.652)"/>
        <path id="Trazado_938995" data-name="Trazado 938995" d="M37,9h8.37v1.674H37Z" transform="translate(-6.868 -2.304)"/>
        <path id="Trazado_938996" data-name="Trazado 938996" d="M33,13H44.718v1.674H33Z" transform="translate(-6.216 -2.956)"/>
        <path id="Trazado_938997" data-name="Trazado 938997" d="M33,17H44.718v1.674H33Z" transform="translate(-6.216 -3.608)"/>
        <path id="Trazado_938998" data-name="Trazado 938998" d="M33,21H44.718v1.674H33Z" transform="translate(-6.216 -4.26)"/>
        <path id="Trazado_938999" data-name="Trazado 938999" d="M11,5h1.674V6.674H11Z" transform="translate(-2.63 -1.652)"/>
        <path id="Trazado_939000" data-name="Trazado 939000" d="M19,5h1.674V6.674H19Z" transform="translate(-3.934 -1.652)"/>
        <path id="Trazado_939001" data-name="Trazado 939001" d="M15,5h1.674V6.674H15Z" transform="translate(-3.282 -1.652)"/>
        <path id="Trazado_939002" data-name="Trazado 939002" d="M48.709,24.436H36.154V22.762h2.511a4.19,4.19,0,0,0,4.185-4.185V5.185A4.19,4.19,0,0,0,38.665,1H10.207A4.19,4.19,0,0,0,6.022,5.185V9.437A5.863,5.863,0,0,0,1,15.229V43.884l3.9,7.8a2.192,2.192,0,0,0,3.92,0l3.9-7.8V22.762H24.979l2.092,1.674H20.251a4.19,4.19,0,0,0-4.185,4.185V42.013A4.19,4.19,0,0,0,20.251,46.2h1.674v4.62A2.077,2.077,0,0,0,25.3,52.439L33.1,46.2H48.709a4.19,4.19,0,0,0,4.185-4.185V28.621A4.19,4.19,0,0,0,48.709,24.436ZM6.859,11.044a4.19,4.19,0,0,1,4.185,4.185v4.185H2.674V15.229A4.19,4.19,0,0,1,6.859,11.044ZM7.7,42.85V24.436h3.348V42.85Zm-5.022,0V24.436H6.022V42.85Zm0-20.088V21.088h8.37v1.674ZM7.322,50.933a.536.536,0,0,1-.925,0l-3.206-6.41h7.335Zm5.4-29.845V15.229A5.863,5.863,0,0,0,7.7,9.437V5.185a2.514,2.514,0,0,1,2.511-2.511H38.665a2.514,2.514,0,0,1,2.511,2.511V18.577a2.514,2.514,0,0,1-2.511,2.511H34.48v6.294a.417.417,0,0,1-.654.314l-8.259-6.608Zm38.5,20.925a2.514,2.514,0,0,1-2.511,2.511h-16.2l-8.259,6.608a.417.417,0,0,1-.654-.314V44.524H20.251a2.514,2.514,0,0,1-2.511-2.511V28.621a2.514,2.514,0,0,1,2.511-2.511h8.913L32.781,29a2.077,2.077,0,0,0,3.373-1.621V26.11H48.709a2.514,2.514,0,0,1,2.511,2.511Z" transform="translate(-1 -1)"/>
        <path id="Trazado_939003" data-name="Trazado 939003" d="M45,48.066H56.718V33H45Zm1.674-13.392h8.37V46.392h-8.37Z" transform="translate(-8.172 -6.216)"/>
        <path id="Trazado_939004" data-name="Trazado 939004" d="M23,49h1.674v1.674H23Z" transform="translate(-4.586 -8.824)"/>
        <path id="Trazado_939005" data-name="Trazado 939005" d="M27,49H40.392v1.674H27Z" transform="translate(-5.238 -8.824)"/>
        <path id="Trazado_939006" data-name="Trazado 939006" d="M23,45H39.74v1.674H23Z" transform="translate(-4.586 -8.172)"/>
        <path id="Trazado_939007" data-name="Trazado 939007" d="M23,41H39.74v1.674H23Z" transform="translate(-4.586 -7.52)"/>
        <path id="Trazado_939008" data-name="Trazado 939008" d="M39,37h3.348v1.674H39Z" transform="translate(-7.194 -6.868)"/>
        <path id="Trazado_939009" data-name="Trazado 939009" d="M23,37H34.718v1.674H23Z" transform="translate(-4.586 -6.868)"/>
        <path id="Trazado_939010" data-name="Trazado 939010" d="M23,33h1.674v1.674H23Z" transform="translate(-4.586 -6.216)"/>
        <path id="Trazado_939011" data-name="Trazado 939011" d="M27,33h1.674v1.674H27Z" transform="translate(-5.238 -6.216)"/>
        <path id="Trazado_939012" data-name="Trazado 939012" d="M31,33h1.674v1.674H31Z" transform="translate(-5.89 -6.216)"/>
      </g>
    </g>
  </g>
</svg>
