<svg xmlns="http://www.w3.org/2000/svg" xmlns:xlink="http://www.w3.org/1999/xlink" width="1600" height="1209" viewBox="0 0 1600 1209">
  <defs>
    <clipPath id="clip-path">
      <rect id="Rectángulo_417379" data-name="Rectángulo 417379" width="1600" height="1209" transform="translate(0 3940)" fill="none"/>
    </clipPath>
  </defs>
  <g id="Enmascarar_grupo_1079217" data-name="Enmascarar grupo 1079217" transform="translate(0 -3940)" clip-path="url(#clip-path)">
    <g id="Grupo_1115673" data-name="Grupo 1115673" transform="translate(76.784 3930.756)" opacity="0.56">
      <path id="Trazado_906846" data-name="Trazado 906846" d="M460.224,78.385a58.742,58.742,0,0,0,8.631,4.432c.643.286,1.251.5,1.894.751.643.268,1.269.5,1.841.7,1.412.536,2.895,1.09,4.557,1.715l4.664-.375c7.541,3.27,2.895,2.68,8.077,5.5a124.873,124.873,0,0,1,13.474,3.949,102.836,102.836,0,0,0,10.221,2.966c2.252-.411-2.341-1.644-3.252-2.484,2.019.7,3.413,1.144,4.61,1.68,1.179.447,2.109.893,3.127,1.34a21.4,21.4,0,0,0,9.078,1.59l.143-.5a21.008,21.008,0,0,0,2.144.107l1.09.036h.5l.25.036,1.054.054h.715a2.567,2.567,0,0,0,2.52-1.59,3.78,3.78,0,0,0,.143-1.68,5.168,5.168,0,0,0-.143-.893c-.036-.179-.143-.447-.2-.679a8.367,8.367,0,0,0-.268-.8,99.937,99.937,0,0,0-4.682-10.025c-3.627-7.076-7.952-14.367-11.061-23.248-.393-1.09-.75-2.269-1.054-3.467-.339-1.144-.572-2.466-.822-3.717a36.222,36.222,0,0,1-.447-4.039,26.752,26.752,0,0,1,.214-4.432c.125-.768.214-1.59.411-2.359.214-.751.465-1.519.715-2.252a11.8,11.8,0,0,1,.947-2.216,18.621,18.621,0,0,1,1.019-1.823,23.176,23.176,0,0,1,5.915-6.594c-2.43,2.2-1.465,2.019-2.055,3.127a20.083,20.083,0,0,1,6.236-4.61,22.042,22.042,0,0,1,7.309-2A37.226,37.226,0,0,1,550.68,27.85c7.827,2.055,14.635,5.254,21.229,8.309q4.825,2.305,9.578,4.575c3.61,1.644,4.914,2.341,7.148,3.234a21.623,21.623,0,0,0,6.88,1.715,8.1,8.1,0,0,0,3.574-.643,7.839,7.839,0,0,0,2.7-2.234,6.429,6.429,0,0,0,1.573-4.575,14.222,14.222,0,0,0-1.179-4.5,20.466,20.466,0,0,1,2.395,4.718,8.018,8.018,0,0,1-.357,5.843,7.782,7.782,0,0,1-3.842,4.253,11.869,11.869,0,0,1-5.986.768,47.813,47.813,0,0,1-12.473-3.431,181.988,181.988,0,0,1-22.873-11.311C555.63,34,551.556,32.5,547.7,31.656c-3.824-.876-7.505-.876-8.881.232a16.781,16.781,0,0,0-8.845,3.628,19.249,19.249,0,0,0-5,6.808,18.861,18.861,0,0,0-1.251,7.684,35.543,35.543,0,0,0,1.054,7.13c2.323,9.113,6.5,17.3,12.223,28,1.876,2.913,1.912,1.019,3.163,1.519,0,0-1.984-4.414-4.217-8.81-1.09-2.2-2.18-4.414-3-6.076-.8-1.662-1.34-2.788-1.34-2.788s1.555,2.573,3.181,5.111l3.234,5.057c-.876-2.466-3.038-6.379-4.753-9.953-1.751-3.574-2.948-6.862-2.484-7.845a87.776,87.776,0,0,0,5.736,13.134c2.377,4.646,5.093,9.471,7.255,14.51a34.927,34.927,0,0,1,2.52,7.845,11.593,11.593,0,0,1-.84,7.612,9.448,9.448,0,0,1-5.575,4.164c-.536.143-1.054.286-1.573.429-.518.125-1.054.143-1.555.214-.5.054-.983.107-1.465.161-.482,0-.947,0-1.412-.018a20.472,20.472,0,0,0,2.466-.572,16.2,16.2,0,0,0,2.5-.786,10.434,10.434,0,0,0,4.557-3.02,8,8,0,0,0,1.751-5.379,18.893,18.893,0,0,0-1.126-5.718c-1.537-3.038-4.539-7.9-5.164-7.13A71.422,71.422,0,0,1,541.3,94.4a13.279,13.279,0,0,1,.286,5.9,6.214,6.214,0,0,1-3.52,4.2,5.71,5.71,0,0,1-1.287.518,6.951,6.951,0,0,1-1.322.375l-1.34.286-1.5.179c-.876.143-2.323.2-3.538.3-1.269.125-2.52.036-3.806.072-1.269,0-2.573-.143-3.86-.214-1.3-.107-2.609-.3-3.931-.465a94.928,94.928,0,0,1-16.351-4.128c-5.647-1.912-13.474-4.557-14.724-4.056,3.681,1.608.59,1.3,3.556,2.788-7.934-3.556.3-3.288-11.758-7.112l.536,3.413a9.608,9.608,0,0,0-4.021-2.734c-.858-.34-1.769-.643-2.752-.929-.929-.268-1.894-.536-2.877-.822-4-1.144-8.577-2.663-12.312-5.307-3.449-.179,1.733,2.913,7.952,5.611-7.362-2.484-7.237-4.5-13.063-6.9l4.414,4.735C451,85.158,444.856,85.89,441.1,85.569c-.107-.375.822-.75.786-1.358,0-.3-.286-.643-1.054-1.072a15.819,15.819,0,0,0-4.128-1.394c-3.645-.482-1.948.59-2.859.768a4.589,4.589,0,0,0-2.412-1.573,13.182,13.182,0,0,0-2.752-.786c-.554-.089-1.144-.179-1.787-.25-.643-.054-1.34-.036-2.073-.036-.518.447.465.751,1.59,1.054,1.108.34,2.359.786,2.5,1.233a35.758,35.758,0,0,0-5.129-.089h.018a9.868,9.868,0,0,0,1.7,5.272c1.072,3.467.679,3.074.071,2.609-.59-.536-1.34-1.215-.965.375,2.859,4.36,4.271,5.254,5.111,5.307.84.089,1.608-.7,3.735,1.8a66.981,66.981,0,0,0-2.537-7.38c-.625-1.5-1.287-3.109-1.894-4.7-.2-.751-.375-1.483-.572-2.216.036-.393.054-.768.054-1.144-1.519,1.626-3.02,3.27-4.36,4.7a26.563,26.563,0,0,1,7.9,1.34,35.266,35.266,0,0,0-7.863-.893l4.771-5.146v1.072l.643,2.162c.679,1.555,1.376,3.109,2.109,4.628.322-.554,2.805,3.252,4.217,5.575.715,1.144,1.287,2.055,1.537,2.055.143.018.2-.2.125-.733a13.025,13.025,0,0,0-.679-2.788,40.021,40.021,0,0,1,3.735,12.223,30.435,30.435,0,0,1,.268,6.576l-.071.965c-.036.3-.2.268-.286.429-.232.214-.447.429-.679.679-.465.447-.929,1.054-1.412,1.608-7.237-2.126-14.617-4.271-21.837-6.683-3.556-1.161-7.094-2.305-10.275-3.252-1.215-.375-2.412-.733-3.61-1.09-1.036-.3-2.055-.59-3.056-.876,2.126.107,4.861.554,4.575-.179-7.469-2.395-6.88-.822-8.542-.429a11,11,0,0,1-4.682-2.448,10.513,10.513,0,0,0-3.163-2.484c-.733.036-1.412.071-2.073.125-.625.036-1.054.107-1.537.161-.929.107-1.715.25-2.43.375a15.984,15.984,0,0,0-3.574,1.09,5.661,5.661,0,0,0-2.466,2.216,5.252,5.252,0,0,0-.107,4.324s-.5-.232-1.019-.465c-.5-.25-1-.518-1-.518.286,1.43.679,2.395.875,3.217.232.822.34,1.519.483,2.252a10.454,10.454,0,0,0,.786,2.412,15.72,15.72,0,0,0,2.537,3.52c.268.071.089-.572-.268-1.483-.179-.447-.393-.983-.625-1.537-.2-.5-.268-.822-.393-1.233a12.006,12.006,0,0,0,1.769,2.806,16.89,16.89,0,0,0,1.823,1.787,18.334,18.334,0,0,1,4.164,4.878l-.858-2.7-.768-2.663c2.984,4.164,7.648,10.758,7.166,7.523a67.682,67.682,0,0,0,4.467,7.237c1.8,2.68,3.9,5.522,5.951,8.953a30.927,30.927,0,0,1,2.948,6.236,14.02,14.02,0,0,1,.7,5.289,9.172,9.172,0,0,1-.3,1.841,8.148,8.148,0,0,1-.733,1.948,9.879,9.879,0,0,1-2.573,3.27,11.856,11.856,0,0,1-5.236,2.43,19.51,19.51,0,0,1-3.717.357,29.185,29.185,0,0,1-5.682-.572l.768,1.608c-3.574-1.215-9.489-2.323-15.1-3.77-.7-.179-1.394-.375-2.091-.554l-1.019-.286c-.357-.089-1-.3-1.34-.411-1.5-.536-2.716-1.036-3.86-1.555a19.851,19.851,0,0,1-5.093-3.056l-1.072.25-10.7-6.362c-5.254-1.787-4.289,1.036-4.485.286-11.168-4.61-20.21-7.648-27.608-8.685-.232-1.09-2.412-2.377-5.861-3.306a22.024,22.024,0,0,0-5.736-.786,8.171,8.171,0,0,0-3,.518,3.816,3.816,0,0,0-2.144,1.894,6.071,6.071,0,0,0,.125,3.431,16.161,16.161,0,0,0,1.34,3.2,28.365,28.365,0,0,0,1.769,2.931l2.019,2.716,1,1.358c.357.482.59.84,1.126,1.465l2.877,3.467c1.841,2.341,3.967,4.592,6.058,6.88a287.919,287.919,0,0,0,27.323,25.411c19.21,15.922,39.456,30.271,57.594,44.46a64.98,64.98,0,0,1,6.326,5.45c2.162,2.126,4.378,4.45,6.63,6.755l1.019-3.074c-1.894-.357-3.842-1.858-7.148-2.234a22.7,22.7,0,0,1,2.716.232c.7.143,1.34.286,1.966.411.5.089,1.072.268,1.43.286.375.036.715.089,1.036.143-.608,1.8-1.2,3.61-1.715,5.164-3.663-2.823-5.432-4.861-11.383-9.042-6.63-4.039-10.2-3.9-16.44-6.612l3.77.5c-7.863-7.094-6.469-3.324-12.33-9.471l-1.3,2.5c-1.608-2.823-8.309-6.058-11.222-7.184l-1.126-3.163c-6.058-2.948-9.828-5.146-12.509-4.932l1.573-1.054a20.766,20.766,0,0,1-4.289-2.52c-1.966-1.412-4.324-3.091-6.415-4.575-4.2-2.966-7.452-5.093-5.254-1.394-1.287-1.555-2.144-3.342-5.593-5.9l-1.626.947c-2.234-2.2-4.664-4.45-6.719-6.29-2.037-1.876-3.788-3.234-4.789-3.467,2.252,2.609,2.591,3.949,2.913,5.289-2.52-2.216-4.414-4.021-5.826-5.486a23.9,23.9,0,0,1-2.895-3.645c-1.179-1.912-1.09-2.859-.929-3.753a4.278,4.278,0,0,0-.429-3.359c-.786-1.715-2.609-4.2-6.5-8.667l-.7.965-2.966-5.54s-.322-.25-.822-.643c-.25-.2-.536-.429-.84-.661a7.1,7.1,0,0,1-1.019-.911l-3.091-3.377a26.078,26.078,0,0,0-1.948-4.878,33.433,33.433,0,0,1-2.5-5.843,27.312,27.312,0,0,1-1.5-6.7,10.694,10.694,0,0,1,1.662-7.273,12.6,12.6,0,0,1,6.362-4.253,25.78,25.78,0,0,1,8.023-1.126,42.475,42.475,0,0,1,8.631,1c1.394.286,2.77.661,4.056,1.019q.965.295,1.876.59a12.385,12.385,0,0,1,1.376.536c5.325,1.7,12.991,1.608,22.748,5.379l-1.233,1.43c4.253.536,13.777,3.359,23.159,5.968,2.341.643,4.682,1.269,6.826,1.769.518.107,1.036.214,1.537.322a5.046,5.046,0,0,0,1.161.143,1.861,1.861,0,0,1,.59.036l.768.071c.518.036,1.019.089,1.5.125,3.931.268,7.112.054,8.9-.661,6.111,2.323-.661.3-.876,1.626a23.446,23.446,0,0,0,6.915,1.43,3.234,3.234,0,0,0,.733-.089.5.5,0,0,0,.2-.071c.036.071-.089-.447.179.786a13.816,13.816,0,0,0,2.162,5.629c.608.751.768.482-.107.322a10.987,10.987,0,0,0-4.592.393,33.033,33.033,0,0,0-3.913,1.144c-.071.054-.2,0-.322-.054a5.026,5.026,0,0,1-1-.911c-.59-1.412-.893-2.073-.7-2.019a6.121,6.121,0,0,1,1.215,1.287c1.072,1.358,1.5,1.858,1.787.8-.715-.965-1.3-1.787-1.841-2.5-.608-.858-1.179-1.68-1.662-2.448-.983-1.537-1.662-2.859-2.43-4.271-1.537-2.895-3.431-5.951-9.578-12.866-1.912-.84,2.394,4.217,3.056,6.022-1.644-2.77-3.878-5.968-6.451-9.81-.643-.983-1.3-2-1.966-3.038-.375-.608-.751-1.2-1.126-1.823-.518-.858-.983-1.715-1.483-2.573a32.518,32.518,0,0,1-3.913-11.133A21.8,21.8,0,0,1,360.6,96.934l.661-1.322c.268-.411.554-.822.84-1.215a17.683,17.683,0,0,1,1.912-2.252A28.764,28.764,0,0,1,366.23,90.2c.822-.554,1.68-1.054,2.52-1.555a28.481,28.481,0,0,1,11.848-3.02,30.666,30.666,0,0,1,3.145-.089c.983,0,2.252,0,2.859.054,1.412.089,2.77.214,4.056.375,3.217.179,6.5.554,9.864,1.072,1.662.268,3.377.554,5.075.894.858.161,1.715.34,2.573.518l1.161.232.322.036a21.626,21.626,0,0,0,3.038.089.76.76,0,0,0,.3-.071s.054,0,.054-.036l-.054-.179a2.987,2.987,0,0,0-.143-.357,4.242,4.242,0,0,0-.858-1.108c-.3-.3-.572-.554-.786-.733l-.3-.25s-.143-.322-.2-.465a4.588,4.588,0,0,1-.089-.679l-.107-.965-.161-1.93L409.367,69.9l13.277-1.144a57.24,57.24,0,0,1,6.648-.286l.572.679c7-.286,13.4,1.59,19.281,3.788,5.808,2.252,11.294,4.95,16.708,6.88l-5.682-1.447Z" transform="translate(1165.898 184.972)" fill="#bad1ff"/>
      <path id="Trazado_906847" data-name="Trazado 906847" d="M0,22.231a5.387,5.387,0,0,1,5.383-5.38H16.861V5.38a5.383,5.383,0,0,1,10.766,0V16.851H39.1a5.38,5.38,0,1,1,0,10.759H27.628V39.081a5.383,5.383,0,0,1-10.766,0V27.61H5.383A5.387,5.387,0,0,1,0,22.231Zm17.759,3.586a.9.9,0,0,1,.9.9V39.081a3.589,3.589,0,0,0,7.177,0V26.714a.9.9,0,0,1,.9-.9H39.1a3.586,3.586,0,1,0,0-7.173H26.73a.9.9,0,0,1-.9-.9V5.38a3.589,3.589,0,0,0-7.177,0V17.747a.9.9,0,0,1-.9.9H5.383a3.586,3.586,0,1,0,0,7.173Z" transform="translate(62.895 31.439) rotate(135)" fill="#5b92fe" fill-rule="evenodd"/>
      <path id="Trazado_906848" data-name="Trazado 906848" d="M0,22.231a5.387,5.387,0,0,1,5.383-5.38H16.861V5.38a5.383,5.383,0,0,1,10.766,0V16.851H39.1a5.38,5.38,0,1,1,0,10.759H27.628V39.081a5.383,5.383,0,0,1-10.766,0V27.61H5.383A5.387,5.387,0,0,1,0,22.231Zm17.759,3.586a.9.9,0,0,1,.9.9V39.081a3.589,3.589,0,0,0,7.177,0V26.714a.9.9,0,0,1,.9-.9H39.1a3.586,3.586,0,1,0,0-7.173H26.73a.9.9,0,0,1-.9-.9V5.38a3.589,3.589,0,0,0-7.177,0V17.747a.9.9,0,0,1-.9.9H5.383a3.586,3.586,0,1,0,0,7.173Z" transform="translate(1483.895 121.439) rotate(135)" fill="#5b92fe" fill-rule="evenodd"/>
      <path id="Trazado_912797" data-name="Trazado 912797" d="M0,22.231a5.387,5.387,0,0,1,5.383-5.38H16.861V5.38a5.383,5.383,0,0,1,10.766,0V16.851H39.1a5.38,5.38,0,1,1,0,10.759H27.628V39.081a5.383,5.383,0,0,1-10.766,0V27.61H5.383A5.387,5.387,0,0,1,0,22.231Zm17.759,3.586a.9.9,0,0,1,.9.9V39.081a3.589,3.589,0,0,0,7.177,0V26.714a.9.9,0,0,1,.9-.9H39.1a3.586,3.586,0,1,0,0-7.173H26.73a.9.9,0,0,1-.9-.9V5.38a3.589,3.589,0,0,0-7.177,0V17.747a.9.9,0,0,1-.9.9H5.383a3.586,3.586,0,1,0,0,7.173Z" transform="translate(62.895 31.439) rotate(135)" fill="#5b92fe" fill-rule="evenodd"/>
    </g>
  </g>
</svg>
