<svg xmlns="http://www.w3.org/2000/svg" xmlns:xlink="http://www.w3.org/1999/xlink" width="133.574" height="120.655" viewBox="0 0 133.574 120.655">
  <defs>
    <clipPath id="clip-path">
      <path id="doctor-hombre-adulto-pie-derecho-oficina-hospital" d="M30.285-19.778c15.464,0,28.664,17.27,41.052,32.866,8.688,10.937,16.6,20.265,16.6,31.371,0,10.761-3.038,16.809-5.937,22.53-4.008,7.915-9.549,13.59-20.169,20.7-17.849,11.958-34.644-3.459-48.324-9.815C2.752,72.881-10.068,70.5-18.8,65.206c-3.232-1.96-13.721-8.3-11.041-20.567C-27.378,33.394-11.253,20.8-5.387,13.6,6.355-.8,16.309-19.778,30.285-19.778Z" transform="translate(30.274 19.778)" fill="#3c1c74"/>
    </clipPath>
  </defs>
  <g id="Grupo_1140416" data-name="Grupo 1140416" transform="translate(0 0)">
    <g id="Grupo_1072178" data-name="Grupo 1072178" transform="translate(0 0)">
      <path id="doctor-hombre-adulto-pie-derecho-oficina-hospital-2" data-name="doctor-hombre-adulto-pie-derecho-oficina-hospital" d="M30.285-19.778c15.464,0,28.664,17.27,41.052,32.866,8.688,10.937,16.6,20.265,16.6,31.371,0,10.761-3.038,16.809-5.937,22.53-4.008,7.915-9.549,13.59-20.169,20.7-17.849,11.958-34.644-3.459-48.324-9.815C2.752,72.881-10.068,70.5-18.8,65.206c-3.232-1.96-13.721-8.3-11.041-20.567C-27.378,33.394-11.253,20.8-5.387,13.6,6.355-.8,16.309-19.778,30.285-19.778Z" transform="translate(36.131 19.778)" fill="#bad1ff"/>
      <g id="Elipse_4857" data-name="Elipse 4857" transform="translate(0 21.962)" fill="none" stroke="#bad1ff" stroke-width="1">
        <ellipse cx="10.737" cy="10.737" rx="10.737" ry="10.737" stroke="none"/>
        <ellipse cx="10.737" cy="10.737" rx="10.237" ry="10.237" fill="none"/>
      </g>
      <ellipse id="Elipse_4858" data-name="Elipse 4858" cx="5.24" cy="4.716" rx="5.24" ry="4.716" transform="translate(117.391 23.267)" fill="#bad1ff"/>
      <path id="Trazado_115346" data-name="Trazado 115346" d="M7.746,0c4.278,0,7.746,3.1,7.746,6.931,0,2.048-.493,3.842-2.286,4.917-1.157.7-3.471.822-5.46.822C3.468,12.67,0,10.759,0,6.931S3.468,0,7.746,0Z" transform="translate(43.359 107.985)" fill="#bad1ff"/>
      <g id="Layer_39" transform="translate(21.475 25.729)">
        <g id="Grupo_1140559" data-name="Grupo 1140559" transform="translate(0)">
          <g id="Grupo_1140419" data-name="Grupo 1140419" transform="translate(28.731 25.027)">
            <g id="Grupo_1140418" data-name="Grupo 1140418">
              <path id="Trazado_943141" data-name="Trazado 943141" d="M85.149,87.307a12.437,12.437,0,0,0,.895-7.163,4.352,4.352,0,0,1-3.355.818A10.677,10.677,0,0,1,77.137,89.6v3.226a2.958,2.958,0,0,0,1.65,2.653l2.63,1.3a9.3,9.3,0,0,0,1.841.677l5.364,1.354C89.1,93.835,83.723,90.872,85.149,87.307Z" transform="translate(-77.137 -80.144)" fill="#fcdd86"/>
            </g>
          </g>
          <g id="Grupo_1140421" data-name="Grupo 1140421" transform="translate(7.096 25.027)">
            <g id="Grupo_1140420" data-name="Grupo 1140420">
              <path id="Trazado_943142" data-name="Trazado 943142" d="M25.013,80.962a4.352,4.352,0,0,1-3.354-.818,12.431,12.431,0,0,0,.895,7.163c1.426,3.565-3.947,6.528-3.473,11.5l5.364-1.354a9.309,9.309,0,0,0,1.841-.677l2.63-1.3a2.958,2.958,0,0,0,1.65-2.653V89.6a10.677,10.677,0,0,1-5.552-8.637Z" transform="translate(-19.05 -80.144)" fill="#fcdd86"/>
            </g>
          </g>
          <g id="Grupo_1140423" data-name="Grupo 1140423" transform="translate(26.38 74.693)">
            <g id="Grupo_1140422" data-name="Grupo 1140422">
              <path id="Trazado_943143" data-name="Trazado 943143" d="M73.728,213.992l-1.891-.507-1.014,3.782,1.891.507a1.958,1.958,0,1,0,1.014-3.782Z" transform="translate(-70.823 -213.485)" fill="#c7d7e5"/>
            </g>
          </g>
          <g id="Grupo_1140433" data-name="Grupo 1140433" transform="translate(0.931 42.426)">
            <g id="Grupo_1140432" data-name="Grupo 1140432">
              <path id="Trazado_943147" data-name="Trazado 943147" d="M47.319,132.673a4.363,4.363,0,0,0-3.291-3.988l-7.241-1.828c-4.263,9.9-8.88,6.235-10.741,4.085a.835.835,0,0,1-.2-.537H24.636a.835.835,0,0,1-.2.537c-1.86,2.15-6.478,5.82-10.741-4.085l-7.241,1.828a4.362,4.362,0,0,0-3.291,3.988L2.5,150.781a1.721,1.721,0,0,0,1.72,1.784h2.76c.977-1.677,2.418-3.012,4.105-10.77l-1.33-5.254c.244.78-5.936,15.664-4.283,16.023,1.787.388,7.618.264,15.376,0,4.329-.148,9.829-.892,14.6,0a1.705,1.705,0,0,0,1.691-1.57,25.752,25.752,0,0,1,1.067-5.389l1.189-3.81v9.048a1.721,1.721,0,0,0,1.722,1.722h5.143a1.722,1.722,0,0,0,1.72-1.784Z" transform="translate(-2.5 -126.857)" fill="#fc657e"/>
            </g>
          </g>
          <g id="Grupo_1140435" data-name="Grupo 1140435" transform="translate(24.267 40.666)">
            <g id="Grupo_1140434" data-name="Grupo 1140434">
              <path id="Trazado_943148" data-name="Trazado 943148" d="M75.737,123.8a9.309,9.309,0,0,1-1.841-.677l-2.01-.991a14.146,14.146,0,0,1-6.1,4.444.871.871,0,0,0-.424,1.4c1.86,2.15,6.478,5.82,10.741-4.085Z" transform="translate(-65.152 -122.132)" fill="#edf4fc"/>
            </g>
          </g>
          <g id="Grupo_1140437" data-name="Grupo 1140437" transform="translate(12.123 40.666)">
            <g id="Grupo_1140436" data-name="Grupo 1140436">
              <path id="Trazado_943149" data-name="Trazado 943149" d="M42.864,126.575a14.149,14.149,0,0,1-6.1-4.444l-2.01.991a9.31,9.31,0,0,1-1.841.677l-.366.092c4.263,9.9,8.88,6.235,10.741,4.085A.871.871,0,0,0,42.864,126.575Z" transform="translate(-32.548 -122.131)" fill="#edf4fc"/>
            </g>
          </g>
          <g id="Grupo_1140439" data-name="Grupo 1140439" transform="translate(16.341 34.481)">
            <g id="Grupo_1140438" data-name="Grupo 1140438">
              <path id="Trazado_943150" data-name="Trazado 943150" d="M57.911,111.406a2.958,2.958,0,0,1-1.65-2.653v-3.226a10.577,10.577,0,0,1-10.121,0v3.226a2.958,2.958,0,0,1-1.65,2.653l-.62.306a14.146,14.146,0,0,0,6.1,4.444.884.884,0,0,1,.628.864H51.8a.884.884,0,0,1,.628-.864,14.149,14.149,0,0,0,6.1-4.444Z" transform="translate(-43.871 -105.526)" fill="#f9d0b4"/>
            </g>
          </g>
          <g id="Grupo_1140448" data-name="Grupo 1140448" transform="translate(0 41.495)">
            <g id="Grupo_1140441" data-name="Grupo 1140441" transform="translate(8.586 14.938)">
              <g id="Grupo_1140440" data-name="Grupo 1140440">
                <path id="Trazado_943151" data-name="Trazado 943151" d="M26.659,171.213c-.176-.816-.371-1.564-.6-2.288l-1.189-3.81a.931.931,0,0,0-1.82.277v6.684a.931.931,0,0,0,1.862,0v-.252a.931.931,0,0,0,1.744-.611Z" transform="translate(-23.052 -164.462)"/>
              </g>
            </g>
            <g id="Grupo_1140443" data-name="Grupo 1140443">
              <g id="Grupo_1140442" data-name="Grupo 1140442">
                <path id="Trazado_943152" data-name="Trazado 943152" d="M13.027,125.061a.931.931,0,0,0-1.131-.675l-7.241,1.828A5.275,5.275,0,0,0,.661,131.07L0,149.178a2.653,2.653,0,0,0,2.651,2.749H5.122a.931.931,0,0,0,0-1.862H2.653a.791.791,0,0,1-.79-.819l.659-18.089a3.417,3.417,0,0,1,2.589-3.137l7.241-1.828a.931.931,0,0,0,.675-1.13Z" transform="translate(0 -124.357)"/>
              </g>
            </g>
            <g id="Grupo_1140445" data-name="Grupo 1140445" transform="translate(22.215 3.549)">
              <g id="Grupo_1140444" data-name="Grupo 1140444">
                <path id="Trazado_943153" data-name="Trazado 943153" d="M61.607,133.884H60.573a.931.931,0,0,0,0,1.862h1.034a.931.931,0,0,0,0-1.862Z" transform="translate(-59.642 -133.884)"/>
              </g>
            </g>
            <g id="Grupo_1140447" data-name="Grupo 1140447" transform="translate(22.093 0)">
              <g id="Grupo_1140446" data-name="Grupo 1140446">
                <path id="Trazado_943154" data-name="Trazado 943154" d="M83.9,131.053a5.27,5.27,0,0,0-3.993-4.839l-7.241-1.828a.931.931,0,0,0-.456,1.806l7.242,1.828a3.411,3.411,0,0,1,2.588,3.119l.659,18.107a.79.79,0,0,1-.79.819H76.766a.791.791,0,0,1-.79-.79v-9.048a.931.931,0,0,0-1.82-.277l-1.189,3.81a26.746,26.746,0,0,0-1.105,5.584.774.774,0,0,1-.763.722H60.244a.931.931,0,1,0,0,1.862H71.1a2.627,2.627,0,0,0,2.618-2.419,25.021,25.021,0,0,1,.4-2.735v2.5a2.656,2.656,0,0,0,2.653,2.653h5.143a2.652,2.652,0,0,0,2.651-2.749Z" transform="translate(-59.313 -124.358)"/>
              </g>
            </g>
          </g>
          <g id="Grupo_1140450" data-name="Grupo 1140450" transform="translate(34.283 17.022)">
            <g id="Grupo_1140449" data-name="Grupo 1140449">
              <path id="Trazado_943155" data-name="Trazado 943155" d="M92.752,58.654a4.484,4.484,0,0,0-.683.054v8.054c0,.24-.011.478-.027.714a4.44,4.44,0,1,0,.71-8.822Z" transform="translate(-92.042 -58.654)" fill="#f9d0b4"/>
            </g>
          </g>
          <g id="Grupo_1140452" data-name="Grupo 1140452" transform="translate(13.031 13.303)">
            <g id="Grupo_1140451" data-name="Grupo 1140451">
              <path id="Trazado_943156" data-name="Trazado 943156" d="M55.61,51.09a8.818,8.818,0,0,1-3.882-2.234.706.706,0,0,0-1.014.057c-1.62,1.891-7.366,7.629-15.728,5.247V60.5a10.639,10.639,0,1,0,21.279,0V51.9a.835.835,0,0,0-.654-.811Z" transform="translate(-34.986 -48.668)" fill="#f9d0b4"/>
            </g>
          </g>
          <g id="Grupo_1140454" data-name="Grupo 1140454" transform="translate(7.907 17.863)">
            <g id="Grupo_1140453" data-name="Grupo 1140453">
              <path id="Trazado_943157" data-name="Trazado 943157" d="M26.352,68.178V61.842a17.319,17.319,0,0,1-2.25-.817,1.354,1.354,0,0,0-1.471.253,4.428,4.428,0,0,0,3.749,7.614C26.364,68.656,26.352,68.418,26.352,68.178Z" transform="translate(-21.228 -60.91)" fill="#f9d0b4"/>
            </g>
          </g>
          <g id="Grupo_1140456" data-name="Grupo 1140456" transform="translate(9.203 1.259)">
            <g id="Grupo_1140455" data-name="Grupo 1140455">
              <path id="Trazado_943158" data-name="Trazado 943158" d="M39.176,16.333A14.51,14.51,0,0,0,24.708,30.8v2.614c.036-.036.069-.075.107-.111a1.353,1.353,0,0,1,1.471-.253,17.339,17.339,0,0,0,2.25.817c8.362,2.382,14.108-3.356,15.728-5.247a.706.706,0,0,1,1.014-.057A8.816,8.816,0,0,0,49.161,30.8a.835.835,0,0,1,.654.811v.541A4.426,4.426,0,0,1,53.643,33.4V30.8A14.51,14.51,0,0,0,39.176,16.333Z" transform="translate(-24.708 -16.333)" fill="#fcdd86"/>
            </g>
          </g>
          <g id="Grupo_1140458" data-name="Grupo 1140458" transform="translate(33.647 16.091)">
            <g id="Grupo_1140457" data-name="Grupo 1140457">
              <path id="Trazado_943159" data-name="Trazado 943159" d="M91.679,56.154c-.142,0-.281.006-.419.017a.931.931,0,0,0,.148,1.856c.089-.007.18-.011.271-.011a3.511,3.511,0,1,1,0,7.022,3.1,3.1,0,0,1-.318-.018.931.931,0,0,0-.193,1.853,4.983,4.983,0,0,0,.511.028,5.373,5.373,0,1,0,0-10.746Z" transform="translate(-90.333 -56.154)"/>
            </g>
          </g>
          <g id="Grupo_1140460" data-name="Grupo 1140460" transform="translate(19.805 27.724)">
            <g id="Grupo_1140459" data-name="Grupo 1140459">
              <path id="Trazado_943160" data-name="Trazado 943160" d="M61.072,87.824a.931.931,0,0,0-1.282-.3,6.412,6.412,0,0,1-5.195,0,.931.931,0,0,0-.983,1.582,8.134,8.134,0,0,0,7.16,0,.931.931,0,0,0,.3-1.282Z" transform="translate(-53.173 -87.384)"/>
            </g>
          </g>
          <g id="Grupo_1140463" data-name="Grupo 1140463" transform="translate(12.1 12.372)">
            <g id="Grupo_1140462" data-name="Grupo 1140462">
              <g id="Grupo_1140461" data-name="Grupo 1140461">
                <path id="Trazado_943161" data-name="Trazado 943161" d="M54.252,48.614A8.041,8.041,0,0,1,50.785,46.6a1.659,1.659,0,0,0-1.211-.426,1.619,1.619,0,0,0-1.136.567c-1.481,1.728-6.922,7.192-14.766,4.958a.931.931,0,0,0-1.186.9v6.336a11.57,11.57,0,1,0,23.141,0v-8.6A1.76,1.76,0,0,0,54.252,48.614Zm-.487,10.313a9.708,9.708,0,1,1-19.416,0V53.778c8.019,1.652,13.577-3.643,15.352-5.653a9.735,9.735,0,0,0,4.065,2.287v8.514Z" transform="translate(-32.486 -46.168)"/>
              </g>
            </g>
          </g>
          <g id="Grupo_1140465" data-name="Grupo 1140465" transform="translate(6.976 16.931)">
            <g id="Grupo_1140464" data-name="Grupo 1140464">
              <path id="Trazado_943162" data-name="Trazado 943162" d="M22.158,60.307a18.278,18.278,0,0,0,2.335.85.931.931,0,1,0,.514-1.79,16.441,16.441,0,0,1-2.1-.764,2.282,2.282,0,0,0-2.484.425A5.369,5.369,0,0,0,24.1,68.315a4.945,4.945,0,0,0,.54-.031.931.931,0,0,0-.2-1.852,3.061,3.061,0,0,1-.337.02,3.515,3.515,0,0,1-3.511-3.511A3.468,3.468,0,0,1,21.7,60.388a.42.42,0,0,1,.458-.08Z" transform="translate(-18.728 -58.409)"/>
            </g>
          </g>
          <g id="Grupo_1140467" data-name="Grupo 1140467" transform="translate(8.272 0.328)">
            <g id="Grupo_1140466" data-name="Grupo 1140466">
              <path id="Trazado_943163" data-name="Trazado 943163" d="M37.607,13.833a15.416,15.416,0,0,0-15.4,15.4v2.344a.931.931,0,1,0,1.862,0V29.231a13.536,13.536,0,0,1,27.073,0v2.387a.931.931,0,1,0,1.862,0V29.231A15.416,15.416,0,0,0,37.607,13.833Z" transform="translate(-22.209 -13.833)"/>
            </g>
          </g>
          <g id="Grupo_1140469" data-name="Grupo 1140469" transform="translate(35.569 24.412)">
            <g id="Grupo_1140468" data-name="Grupo 1140468">
              <path id="Trazado_943164" data-name="Trazado 943164" d="M98.863,91.043c-1.162-1.9-1.849-3.13-1.33-4.425a13.652,13.652,0,0,0,1.007-7.347.931.931,0,0,0-1.837.308,11.831,11.831,0,0,1-.9,6.347c-.891,2.227.31,4.19,1.471,6.088,1.009,1.649,2.052,3.355,1.959,5.389a.931.931,0,0,0,.888.973h.043a.931.931,0,0,0,.929-.889c.12-2.6-1.129-4.645-2.231-6.446Z" transform="translate(-95.494 -78.494)"/>
            </g>
          </g>
          <g id="Grupo_1140471" data-name="Grupo 1140471" transform="translate(6.164 24.42)">
            <g id="Grupo_1140470" data-name="Grupo 1140470">
              <path id="Trazado_943165" data-name="Trazado 943165" d="M21.848,85.939a11.839,11.839,0,0,1-.9-6.338.931.931,0,0,0-1.837-.307,13.659,13.659,0,0,0,1.009,7.337c.518,1.294-.168,2.525-1.33,4.425-1.1,1.805-2.356,3.851-2.23,6.463a.931.931,0,0,0,.929.886h.045a.931.931,0,0,0,.885-.975c-.1-2.04.947-3.749,1.958-5.4,1.161-1.9,2.362-3.861,1.471-6.089Z" transform="translate(-16.549 -78.515)"/>
            </g>
          </g>
          <g id="Grupo_1140474" data-name="Grupo 1140474" transform="translate(23.337 39.735)">
            <g id="Grupo_1140473" data-name="Grupo 1140473">
              <g id="Grupo_1140472" data-name="Grupo 1140472">
                <path id="Trazado_943166" data-name="Trazado 943166" d="M75.371,121.91a.93.93,0,0,0-.607-.491l-.366-.092h0a8.37,8.37,0,0,1-1.656-.609l-2.01-.991a.931.931,0,0,0-1.12.231,13.272,13.272,0,0,1-5.667,4.159,1.824,1.824,0,0,0-1.22,1.242,1.78,1.78,0,0,0,.367,1.658c3.717,4.3,8.6,4.261,12.3-4.326a.931.931,0,0,0-.02-.78Zm-6.784,6.013c-1.677.258-3.215-1.137-4.021-2.049a14.549,14.549,0,0,0,5.98-4.162l1.372.676a10.234,10.234,0,0,0,1.321.54C71.789,125.955,70.191,127.675,68.586,127.923Z" transform="translate(-62.655 -119.631)"/>
              </g>
            </g>
          </g>
          <g id="Grupo_1140477" data-name="Grupo 1140477" transform="translate(11.193 39.735)">
            <g id="Grupo_1140476" data-name="Grupo 1140476">
              <g id="Grupo_1140475" data-name="Grupo 1140475">
                <path id="Trazado_943167" data-name="Trazado 943167" d="M42.793,125.36a1.825,1.825,0,0,0-1.22-1.242,13.275,13.275,0,0,1-5.667-4.159.932.932,0,0,0-1.12-.231l-2.01.991a8.371,8.371,0,0,1-1.656.609l-.366.092a.931.931,0,0,0-.628,1.271c3.7,8.6,8.594,8.61,12.3,4.326A1.781,1.781,0,0,0,42.793,125.36Zm-5.863,2.564c-1.6-.248-3.2-1.969-4.652-4.995a10.233,10.233,0,0,0,1.321-.54l1.372-.676a14.291,14.291,0,0,0,5.995,4.145C40.164,126.771,38.618,128.186,36.93,127.924Z" transform="translate(-30.05 -119.632)"/>
              </g>
            </g>
          </g>
          <g id="Grupo_1140479" data-name="Grupo 1140479" transform="translate(15.409 33.882)">
            <g id="Grupo_1140478" data-name="Grupo 1140478">
              <path id="Trazado_943168" data-name="Trazado 943168" d="M44.571,103.917a.931.931,0,0,0-.931.931v2.895a2.014,2.014,0,0,1-1.131,1.818l-.62.306a.931.931,0,1,0,.824,1.67l.619-.305a3.864,3.864,0,0,0,2.169-3.488v-2.895A.931.931,0,0,0,44.571,103.917Z" transform="translate(-41.37 -103.917)"/>
            </g>
          </g>
          <g id="Grupo_1140481" data-name="Grupo 1140481" transform="translate(27.8 33.867)">
            <g id="Grupo_1140480" data-name="Grupo 1140480">
              <path id="Trazado_943169" data-name="Trazado 943169" d="M78.25,109.841l-.62-.306a2.014,2.014,0,0,1-1.13-1.818v-2.91a.931.931,0,1,0-1.862,0v2.91a3.864,3.864,0,0,0,2.169,3.488l.62.306a.931.931,0,1,0,.824-1.67Z" transform="translate(-74.637 -103.876)"/>
            </g>
          </g>
          <g id="Grupo_1140483" data-name="Grupo 1140483" transform="translate(59.377 11.451)">
            <g id="Grupo_1140482" data-name="Grupo 1140482">
              <path id="Trazado_943170" data-name="Trazado 943170" d="M182,47.394a.605.605,0,0,0-.583-.594c-4.692-.137-7.163-2-8.113-2.928a.608.608,0,0,0-.9.057c-4.125,5.187-10.21,4.455-12.256,4.027a.6.6,0,0,0-.729.582V57.63a11.293,11.293,0,1,0,22.586,0V47.57c0-.059,0-.118,0-.177Z" transform="translate(-159.412 -43.697)" fill="#f9c1a8"/>
            </g>
          </g>
          <g id="Grupo_1140485" data-name="Grupo 1140485" transform="translate(55.711 0.931)">
            <g id="Grupo_1140484" data-name="Grupo 1140484">
              <path id="Trazado_943171" data-name="Trazado 943171" d="M173.366,17.691a6.39,6.39,0,0,0-3.3.92,6.458,6.458,0,0,0-5.532-3.157h-3.312A11.691,11.691,0,0,0,149.569,27.11v5.223a4.692,4.692,0,0,1,2.942-1.034,4.746,4.746,0,0,1,.725.057v-.543a.6.6,0,0,1,.729-.582c2.046.428,8.131,1.16,12.256-4.027a.608.608,0,0,1,.9-.057c.95.931,3.422,2.791,8.113,2.928a.605.605,0,0,1,.583.594c0,.059,0,.118,0,.177v1.51a4.688,4.688,0,0,1,4,1.266V24.142a6.471,6.471,0,0,0-6.452-6.451Z" transform="translate(-149.569 -15.453)" fill="#414344"/>
            </g>
          </g>
          <g id="Grupo_1140487" data-name="Grupo 1140487" transform="translate(81.935 16.777)">
            <g id="Grupo_1140486" data-name="Grupo 1140486">
              <path id="Trazado_943172" data-name="Trazado 943172" d="M220.727,58a4.746,4.746,0,0,0-.725.057V66.6c0,.255-.012.507-.028.757A4.712,4.712,0,1,0,220.727,58Z" transform="translate(-219.974 -57.996)" fill="#f9c1a8"/>
            </g>
          </g>
          <g id="Grupo_1140489" data-name="Grupo 1140489" transform="translate(53.937 16.778)">
            <g id="Grupo_1140488" data-name="Grupo 1140488">
              <path id="Trazado_943173" data-name="Trazado 943173" d="M150.248,66.6V58.054a4.717,4.717,0,1,0,.028,9.307C150.259,67.11,150.248,66.858,150.248,66.6Z" transform="translate(-144.808 -57.997)" fill="#f9c1a8"/>
            </g>
          </g>
          <g id="Grupo_1140491" data-name="Grupo 1140491" transform="translate(47.246 35.312)">
            <g id="Grupo_1140490" data-name="Grupo 1140490">
              <path id="Trazado_943174" data-name="Trazado 943174" d="M173.043,120.987a4.457,4.457,0,0,0-3.362-4.074l-8.77-2.207-3.1-1.528a3.9,3.9,0,0,1-2.176-3.5v-1.922a11.215,11.215,0,0,1-10.405.169v1.754a3.9,3.9,0,0,1-2.176,3.5l-3.1,1.528-8.77,2.207a4.457,4.457,0,0,0-3.362,4.074l-.974,17.775a1.722,1.722,0,0,0,1.719,1.816c9.508-.89,16.64-.162,23.072,0,9.759.246,16.111.389,17.9,0,4.272-.929-2.136-3.668,0,0h2.76a1.722,1.722,0,0,0,1.719-1.816Z" transform="translate(-126.845 -107.756)" fill="#70d6f9"/>
            </g>
          </g>
          <g id="Grupo_1140493" data-name="Grupo 1140493" transform="translate(62.969 35.312)">
            <g id="Grupo_1140492" data-name="Grupo 1140492">
              <path id="Trazado_943175" data-name="Trazado 943175" d="M184.3,113.177a3.9,3.9,0,0,1-2.176-3.5v-1.922a11.215,11.215,0,0,1-10.405.169v1.754a3.9,3.9,0,0,1-2.176,3.5l-.487.24a8.828,8.828,0,0,0,15.731,0Z" transform="translate(-169.055 -107.756)" fill="#f9c1a8"/>
            </g>
          </g>
          <g id="Grupo_1140496" data-name="Grupo 1140496" transform="translate(58.446 10.521)">
            <g id="Grupo_1140495" data-name="Grupo 1140495">
              <g id="Grupo_1140494" data-name="Grupo 1140494">
                <path id="Trazado_943176" data-name="Trazado 943176" d="M181.359,45.807a1.534,1.534,0,0,0-1.487-1.506c-4.441-.13-6.716-1.905-7.489-2.662a1.539,1.539,0,0,0-2.284.142h0c-3.733,4.7-9.171,4.149-11.336,3.695a1.534,1.534,0,0,0-1.85,1.5v9.084a12.224,12.224,0,1,0,24.448,0V46ZM179.5,56.062a10.362,10.362,0,1,1-20.724,0V47.375c2.3.409,8.333.877,12.562-4.165a12.741,12.741,0,0,0,8.162,2.941v9.911Z" transform="translate(-156.913 -41.199)"/>
              </g>
            </g>
          </g>
          <g id="Grupo_1140498" data-name="Grupo 1140498" transform="translate(54.779)">
            <g id="Grupo_1140497" data-name="Grupo 1140497">
              <path id="Trazado_943177" data-name="Trazado 943177" d="M171.8,15.191a7.316,7.316,0,0,0-2.994.645,7.42,7.42,0,0,0-5.833-2.883h-3.313a12.6,12.6,0,0,0-12.588,12.588v5.036a.931.931,0,1,0,1.862,0V25.542a10.738,10.738,0,0,1,10.726-10.726h3.313a5.557,5.557,0,0,1,4.733,2.7.931.931,0,0,0,1.278.32,5.5,5.5,0,0,1,8.336,4.732v8.153a.931.931,0,1,0,1.862,0V22.573a7.391,7.391,0,0,0-7.382-7.382Z" transform="translate(-147.068 -12.953)"/>
            </g>
          </g>
          <g id="Grupo_1140500" data-name="Grupo 1140500" transform="translate(85.545 52.97)">
            <g id="Grupo_1140499" data-name="Grupo 1140499">
              <path id="Trazado_943178" data-name="Trazado 943178" d="M230.6,155.163a.931.931,0,0,0-.931.931v10.573a.931.931,0,0,0,1.862,0V156.094A.931.931,0,0,0,230.6,155.163Z" transform="translate(-229.666 -155.163)"/>
            </g>
          </g>
          <g id="Grupo_1140502" data-name="Grupo 1140502" transform="translate(54.262 52.97)">
            <g id="Grupo_1140501" data-name="Grupo 1140501">
              <path id="Trazado_943179" data-name="Trazado 943179" d="M146.61,155.163a.931.931,0,0,0-.931.931v13.942a.931.931,0,1,0,1.862,0V156.094A.931.931,0,0,0,146.61,155.163Z" transform="translate(-145.679 -155.163)"/>
            </g>
          </g>
          <g id="Grupo_1140504" data-name="Grupo 1140504" transform="translate(81.324 15.847)">
            <g id="Grupo_1140503" data-name="Grupo 1140503">
              <path id="Trazado_943180" data-name="Trazado 943180" d="M219.7,55.5q-.22,0-.435.018a.931.931,0,1,0,.147,1.856c.1-.007.191-.012.288-.012a3.784,3.784,0,0,1,0,7.568,3.229,3.229,0,0,1-.336-.018.931.931,0,0,0-.192,1.853,5.145,5.145,0,0,0,.528.028,5.646,5.646,0,0,0,0-11.292Z" transform="translate(-218.335 -55.497)"/>
            </g>
          </g>
          <g id="Grupo_1140506" data-name="Grupo 1140506" transform="translate(53.006 15.847)">
            <g id="Grupo_1140505" data-name="Grupo 1140505">
              <path id="Trazado_943181" data-name="Trazado 943181" d="M148.235,64.914c-.093.008-.187.013-.282.013a3.784,3.784,0,1,1,0-7.568q.147,0,.291.012a.931.931,0,0,0,.15-1.856c-.146-.012-.293-.018-.442-.018a5.646,5.646,0,1,0,0,11.292c.149,0,.3-.007.443-.02a.931.931,0,0,0-.161-1.856Z" transform="translate(-142.307 -55.497)"/>
            </g>
          </g>
          <g id="Grupo_1140511" data-name="Grupo 1140511" transform="translate(46.315 34.828)">
            <g id="Grupo_1140508" data-name="Grupo 1140508">
              <g id="Grupo_1140507" data-name="Grupo 1140507">
                <path id="Trazado_943182" data-name="Trazado 943182" d="M150.336,138.832H127a.791.791,0,0,1-.789-.834l.974-17.774A3.51,3.51,0,0,1,129.843,117l8.771-2.207a.927.927,0,0,0,.184-.068l3.1-1.529a4.8,4.8,0,0,0,2.7-4.334v-1.475a.931.931,0,1,0-1.862,0v1.475a2.952,2.952,0,0,1-1.656,2.664l-3.011,1.485-8.675,2.183a5.364,5.364,0,0,0-4.064,4.926l-.974,17.775a2.652,2.652,0,0,0,2.649,2.8h23.338a.931.931,0,1,0,0-1.862Z" transform="translate(-124.345 -106.457)"/>
              </g>
            </g>
            <g id="Grupo_1140510" data-name="Grupo 1140510" transform="translate(28.79 0)">
              <g id="Grupo_1140509" data-name="Grupo 1140509">
                <path id="Trazado_943183" data-name="Trazado 943183" d="M221.884,137.9l-.974-17.776a5.364,5.364,0,0,0-4.064-4.925l-8.675-2.183-3.011-1.485a2.951,2.951,0,0,1-1.657-2.664v-1.475a.931.931,0,1,0-1.862,0v1.475a4.8,4.8,0,0,0,2.7,4.334l3.1,1.529a.927.927,0,0,0,.184.068L216.39,117a3.511,3.511,0,0,1,2.66,3.222L220.024,138a.79.79,0,0,1-.789.834h-2.527a.931.931,0,0,0,0,1.862h2.527a2.653,2.653,0,0,0,2.649-2.8Z" transform="translate(-201.64 -106.458)"/>
              </g>
            </g>
          </g>
          <g id="Grupo_1140513" data-name="Grupo 1140513" transform="translate(62.156 40.25)">
            <g id="Grupo_1140512" data-name="Grupo 1140512">
              <path id="Trazado_943184" data-name="Trazado 943184" d="M183.754,121.13a.931.931,0,0,0-1.265.368,7.9,7.9,0,0,1-13.871.012.931.931,0,1,0-1.63.9,9.757,9.757,0,0,0,17.133-.015A.932.932,0,0,0,183.754,121.13Z" transform="translate(-166.873 -121.014)"/>
            </g>
          </g>
          <g id="Grupo_1140515" data-name="Grupo 1140515" transform="translate(66.864 27.731)">
            <g id="Grupo_1140514" data-name="Grupo 1140514">
              <path id="Trazado_943185" data-name="Trazado 943185" d="M187.47,87.848a.931.931,0,0,0-1.281-.306,6.558,6.558,0,0,1-5.259,0,.931.931,0,1,0-.975,1.586,8.278,8.278,0,0,0,7.208,0,.931.931,0,0,0,.306-1.281Z" transform="translate(-179.512 -87.405)"/>
            </g>
          </g>
          <g id="Grupo_1140517" data-name="Grupo 1140517" transform="translate(74.076 20.434)">
            <g id="Grupo_1140516" data-name="Grupo 1140516">
              <path id="Trazado_943186" data-name="Trazado 943186" d="M200.363,67.814a1.486,1.486,0,1,0,1.486,1.486A1.486,1.486,0,0,0,200.363,67.814Z" transform="translate(-198.877 -67.814)"/>
            </g>
          </g>
          <g id="Grupo_1140519" data-name="Grupo 1140519" transform="translate(64.808 20.434)">
            <g id="Grupo_1140518" data-name="Grupo 1140518">
              <path id="Trazado_943187" data-name="Trazado 943187" d="M175.48,67.814a1.486,1.486,0,1,0,1.486,1.486A1.486,1.486,0,0,0,175.48,67.814Z" transform="translate(-173.994 -67.814)"/>
            </g>
          </g>
          <g id="Grupo_1140521" data-name="Grupo 1140521" transform="translate(26.916 21.183)">
            <g id="Grupo_1140520" data-name="Grupo 1140520">
              <path id="Trazado_943188" data-name="Trazado 943188" d="M73.748,69.824a1.486,1.486,0,1,0,1.486,1.486A1.486,1.486,0,0,0,73.748,69.824Z" transform="translate(-72.262 -69.824)"/>
            </g>
          </g>
          <g id="Grupo_1140523" data-name="Grupo 1140523" transform="translate(17.647 21.183)">
            <g id="Grupo_1140522" data-name="Grupo 1140522">
              <path id="Trazado_943189" data-name="Trazado 943189" d="M48.865,69.824a1.486,1.486,0,1,0,1.486,1.486A1.486,1.486,0,0,0,48.865,69.824Z" transform="translate(-47.379 -69.824)"/>
            </g>
          </g>
        </g>
      </g>
    </g>
  </g>
</svg>
