<svg xmlns="http://www.w3.org/2000/svg" width="63.846" height="64" viewBox="0 0 63.846 64">
  <g id="bell_536126" transform="translate(0)">
    <path id="Trazado_876634" data-name="Trazado 876634" d="M391.135,35.26a5.6,5.6,0,0,1,9.346,2.378,17.252,17.252,0,0,0-3.336,2.367,2.188,2.188,0,1,0-1.277,1.28,17.314,17.314,0,0,0-2.361,3.344,5.571,5.571,0,0,1-2.378-1.416A5.634,5.634,0,0,1,391.135,35.26Z" transform="translate(-385.245 -29.409)" fill="#a67c52"/>
    <path id="Trazado_876635" data-name="Trazado 876635" d="M114.7,331.2a5.81,5.81,0,0,1-8.112,8.132Z" transform="translate(-65.235 -289.796)" fill="#f8b816"/>
    <path id="Trazado_876636" data-name="Trazado 876636" d="M106.741,332.88l1.68-1.684a5.792,5.792,0,0,1-.575,7.555,5.872,5.872,0,0,1-1.261.961A5.785,5.785,0,0,0,106.741,332.88Z" transform="translate(-58.959 -289.796)" opacity="0.1"/>
    <path id="Trazado_876637" data-name="Trazado 876637" d="M150.26,54.253a16.965,16.965,0,0,1,24.032-.164L184.788,64.61l-24.2,24.256L150.1,78.345A17.067,17.067,0,0,1,150.26,54.253Z" transform="translate(-139.015 -43.034)" fill="#fecf05"/>
    <path id="Trazado_876638" data-name="Trazado 876638" d="M179.521,66.65,169.188,56.29a16.963,16.963,0,0,0-23.987.12,17.519,17.519,0,0,1,1.829-2.158,16.965,16.965,0,0,1,24.032-.164l10.495,10.521Z" transform="translate(-135.784 -43.033)" opacity="0.1"/>
    <path id="Trazado_876639" data-name="Trazado 876639" d="M111.688,192.825l24.69-24.751a1.25,1.25,0,0,1,1.766,0l2.222,2.228a9.487,9.487,0,0,0-.793.712l-24.7,24.761a9.378,9.378,0,0,0-.93,1.081l-2.255-2.26A1.258,1.258,0,0,1,111.688,192.825Z" transform="translate(-90.358 -146.745)" fill="#a67c52"/>
    <path id="Trazado_876640" data-name="Trazado 876640" d="M152.231,225.35l-2.176-2.18a1.258,1.258,0,0,1,0-1.77l15.17-15.229a1.25,1.25,0,0,1,1.765,0l2.188,2.191Z" transform="translate(-123.966 -180.08)" fill="#f8b816"/>
    <path id="Trazado_876641" data-name="Trazado 876641" d="M48.4,182.252A.889.889,0,0,0,48.409,181l-.961-.963c-3.907-3.917-8.544-5.642-12.505-1.671l-24.7,24.761c-3.961,3.971-2.492,8.872,1.415,12.789l.961.963a.883.883,0,0,0,1.251-.008Z" transform="translate(14.271 -154.094)" fill="#fecf05"/>
    <path id="Trazado_876642" data-name="Trazado 876642" d="M20.052,183.127l-1-1c-3.468-3.477-7.491-5.287-11.153-3.152l.614-.615c3.961-3.971,8.6-2.246,12.505,1.671l.961.963a.889.889,0,0,1-.008,1.255L20.3,183.927A.91.91,0,0,0,20.052,183.127Z" transform="translate(40.698 -154.093)" opacity="0.1"/>
    <path id="Trazado_876643" data-name="Trazado 876643" d="M12.252,63.562a.938.938,0,0,1,1.327-1.324l5.3,5.317L30.291,56.119l7.61-7.64c.037-.037.076-.071.116-.1l3.739-3.749-9.834-9.859a15.709,15.709,0,0,0-11.2-4.633A16.264,16.264,0,0,0,9.053,57.7l1.908,1.913a.937.937,0,1,1-1.327,1.324L7.725,59.023A17.934,17.934,0,0,1,4.273,38.765a6.564,6.564,0,1,1,8.76-8.792,17.977,17.977,0,0,1,7.686-1.713h0a17.573,17.573,0,0,1,12.53,5.183l9.889,9.914a2.185,2.185,0,0,1,2.618.359l1.657,1.661a7.266,7.266,0,0,1,4.059-1.252c2.635,0,5.477,1.453,8.219,4.2l.961.963a1.829,1.829,0,0,1-.009,2.579l-4.431,4.442a.937.937,0,0,1-1.328-1.324l4.4-4.411-.922-.924C55.98,47.263,53.6,46,51.471,46a6,6,0,0,0-4.286,1.98l-24.7,24.761c-1.507,1.51-4.384,5.65,1.415,11.464l.919.921,27.2-27.265a.937.937,0,1,1,1.328,1.324l-5.375,5.388a6.774,6.774,0,0,1-5.894,10.085,6.577,6.577,0,0,1-3.294-.875l-12.67,12.7a1.82,1.82,0,0,1-1.3.54h0a1.8,1.8,0,0,1-1.282-.531l-.961-.963a13.055,13.055,0,0,1-3.919-6.885,7.769,7.769,0,0,1,1.035-5.364l-1.715-1.719a2.194,2.194,0,0,1-.355-2.622ZM8.046,31.984a1.248,1.248,0,0,0-1.768,0,1.261,1.261,0,0,0,0,1.779,1.237,1.237,0,0,0,.882.366,1.259,1.259,0,0,0,.255-.026c.156-.168.313-.335.476-.5s.329-.321.5-.478A1.255,1.255,0,0,0,8.046,31.984Zm2.421-2.427a4.663,4.663,0,0,0-6.606.006,4.689,4.689,0,0,0,1.293,7.549q.4-.675.873-1.32a3.1,3.1,0,0,1-1.078-.7,3.139,3.139,0,0,1,0-4.427,3.116,3.116,0,0,1,5.12,1.073q.639-.468,1.312-.876A4.653,4.653,0,0,0,10.467,29.557ZM42.076,72.784a4.9,4.9,0,0,0,4.5-6.812l-6.4,6.417A4.734,4.734,0,0,0,42.076,72.784ZM39.667,49.8a.308.308,0,0,0-.219-.09.316.316,0,0,0-.171.053l-7.683,7.7-7.535,7.565a.32.32,0,0,0,0,.446l1.512,1.514,15.622-15.66Zm6.284-3.236L44.428,45.04a.312.312,0,0,0-.438,0l-3.229,3.238a2.194,2.194,0,0,1,.233.2L42.518,50l3.34-3.348C45.888,46.625,45.92,46.6,45.951,46.566ZM19.3,70.238l1.525,1.529c.107-.118.217-.234.332-.349l3.09-3.1-1.74-1.743L19.3,69.792A.32.32,0,0,0,19.3,70.238Z" transform="translate(2.668 -23.024)"/>
    <path id="Trazado_876644" data-name="Trazado 876644" d="M393.638,376.651a18.944,18.944,0,0,0,7.661,4.777.938.938,0,0,1-.279,1.833.947.947,0,0,1-.279-.043,20.827,20.827,0,0,1-8.43-5.242.938.938,0,0,1,1.327-1.325Z" transform="translate(-387.039 -329.329)"/>
    <path id="Trazado_876645" data-name="Trazado 876645" d="M477.681,311.894a.938.938,0,0,1,1.173.617,17.752,17.752,0,0,0,2.3,4.707.937.937,0,1,1-1.55,1.055,19.616,19.616,0,0,1-2.54-5.205A.937.937,0,0,1,477.681,311.894Z" transform="translate(-477.021 -272.87)"/>
    <path id="Trazado_876646" data-name="Trazado 876646" d="M378.646,297.809a.938.938,0,0,1,1.173.617,15.848,15.848,0,0,0,9.724,9.749.938.938,0,1,1-.558,1.79,17.714,17.714,0,0,1-10.957-10.983A.938.938,0,0,1,378.646,297.809Z" transform="translate(-373.528 -260.546)"/>
    <path id="Trazado_876647" data-name="Trazado 876647" d="M95.215,14.909a.936.936,0,0,1-1.174-.617A19.009,19.009,0,0,0,89.276,6.61a18.944,18.944,0,0,0-7.661-4.777.937.937,0,1,1,.559-1.79A20.821,20.821,0,0,1,90.6,5.286a20.891,20.891,0,0,1,5.229,8.45A.937.937,0,0,1,95.215,14.909Z" transform="translate(-42.071 0)"/>
    <path id="Trazado_876648" data-name="Trazado 876648" d="M128.8,46.781a.937.937,0,1,1-1.791.556,15.845,15.845,0,0,0-9.725-9.749.938.938,0,0,1,.559-1.79A17.711,17.711,0,0,1,128.8,46.781Z" transform="translate(-79.492 -31.285)"/>
  </g>
</svg>
