<svg xmlns="http://www.w3.org/2000/svg" width="105" height="89.875" viewBox="0 0 105 89.875">
  <g id="Grupo_1115753" data-name="Grupo 1115753" transform="translate(-2401 9307.875)">
    <rect id="Rect치ngulo_400772" data-name="Rect치ngulo 400772" width="105" height="36" rx="8" transform="translate(2401 -9269)" fill="#52d5ab"/>
    <rect id="Rect치ngulo_400771" data-name="Rect치ngulo 400771" width="87" height="89.875" rx="8" transform="translate(2410 -9307.875)" fill="#a7f7dd"/>
    <g id="pdf-file_3449657" transform="translate(2424.751 -9294.686)">
      <g id="Grupo_1095455" data-name="Grupo 1095455" transform="translate(0.93 0.93)">
        <g id="Grupo_1095453" data-name="Grupo 1095453">
          <path id="Trazado_870040" data-name="Trazado 870040" d="M75.52,58.984H41.315a3.72,3.72,0,0,1-3.721-3.721V11.221A3.72,3.72,0,0,1,41.315,7.5H75.52a3.72,3.72,0,0,1,3.721,3.721V55.264A3.72,3.72,0,0,1,75.52,58.984Z" transform="translate(-33.862 -7.5)" fill="#f7f6f7"/>
          <path id="Trazado_870041" data-name="Trazado 870041" d="M317.127,7.5h-3.721a3.721,3.721,0,0,1,3.721,3.721V55.264a3.721,3.721,0,0,1-3.721,3.721h3.721a3.721,3.721,0,0,0,3.721-3.721V11.221A3.721,3.721,0,0,0,317.127,7.5Z" transform="translate(-275.468 -7.5)" fill="#e2d8ec"/>
          <path id="Trazado_870042" data-name="Trazado 870042" d="M52.891,239.954H11.221A3.72,3.72,0,0,1,7.5,236.233V206.221a3.72,3.72,0,0,1,3.721-3.721H29.37a3.225,3.225,0,0,1,3.128,2.442l.639,2.556a3.225,3.225,0,0,0,3.128,2.442H52.891a3.72,3.72,0,0,1,3.721,3.721v22.571A3.72,3.72,0,0,1,52.891,239.954Z" transform="translate(-7.5 -178.316)" fill="#f7e07f"/>
          <g id="Grupo_1095452" data-name="Grupo 1095452" transform="translate(18.149 24.184)">
            <path id="Trazado_870043" data-name="Trazado 870043" d="M156.97,204.942l.639,2.556a3.225,3.225,0,0,0,3.128,2.442h3.721a3.225,3.225,0,0,1-3.128-2.442l-.639-2.556a3.225,3.225,0,0,0-3.128-2.442h-3.721A3.225,3.225,0,0,1,156.97,204.942Z" transform="translate(-153.842 -202.5)" fill="#f0d16f"/>
            <path id="Trazado_870044" data-name="Trazado 870044" d="M347.221,262.5H343.5a3.721,3.721,0,0,1,3.721,3.721v22.571a3.721,3.721,0,0,1-3.721,3.721h3.721a3.72,3.72,0,0,0,3.721-3.721V266.221A3.72,3.72,0,0,0,347.221,262.5Z" transform="translate(-319.979 -255.059)" fill="#f0d16f"/>
          </g>
          <path id="Trazado_870045" data-name="Trazado 870045" d="M116.937,58.081H89.169a.62.62,0,0,1-.62-.62V53.12a.62.62,0,0,1,.62-.62h27.768a.62.62,0,0,1,.62.62v4.341A.62.62,0,0,1,116.937,58.081Z" transform="translate(-78.497 -46.919)" fill="#e2dfe3"/>
        </g>
        <g id="Grupo_1095454" data-name="Grupo 1095454" transform="translate(38.388 38.388)">
          <circle id="Elipse_5543" data-name="Elipse 5543" cx="11.625" cy="11.625" r="11.625" transform="translate(0 0)" fill="#bfe69f"/>
          <path id="Trazado_870046" data-name="Trazado 870046" d="M397.627,317.033a11.717,11.717,0,0,0-1.86.149,11.626,11.626,0,0,1,0,22.952,11.625,11.625,0,1,0,1.86-23.1Z" transform="translate(-386.003 -317.033)" fill="#a4d9a6"/>
          <path id="Trazado_870047" data-name="Trazado 870047" d="M372.786,366.087v-7.616a.7.7,0,0,1,.7-.7h2.921a.7.7,0,0,1,.7.7v7.616a.7.7,0,0,0,.7.7h1.6a.6.6,0,0,1,.425,1.027l-4.4,4.4a.7.7,0,0,1-.992,0l-4.4-4.4a.6.6,0,0,1,.425-1.027h1.6A.7.7,0,0,0,372.786,366.087Z" transform="translate(-363.324 -352.718)" fill="#fff"/>
        </g>
      </g>
      <path id="Trazado_870048" data-name="Trazado 870048" d="M39.99,16.743H10.982a.93.93,0,0,0,0,1.86H39.99a.93.93,0,0,0,0-1.86ZM39.37,5.581H33.216a.93.93,0,1,0,0,1.86H39.06v3.721H11.912V7.441H28.875a.93.93,0,0,0,0-1.86H11.6a1.552,1.552,0,0,0-1.55,1.55v4.341a1.552,1.552,0,0,0,1.55,1.55H39.37a1.552,1.552,0,0,0,1.55-1.55V7.131A1.552,1.552,0,0,0,39.37,5.581Zm.62,14.882H10.982a.93.93,0,0,0,0,1.86H39.99a.93.93,0,0,0,0-1.86Zm0,7.441H29.585a.93.93,0,1,0,0,1.86H39.99a.93.93,0,0,0,0-1.86Zm0-3.721H29.585a.93.93,0,1,0,0,1.86H39.99a.93.93,0,0,0,0-1.86Zm10.982,14.2V36.275a4.658,4.658,0,0,0-3.732-4.559V4.651A4.656,4.656,0,0,0,42.589,0H8.382A4.656,4.656,0,0,0,3.732,4.651V24.275A4.658,4.658,0,0,0,0,28.834v13.2a.93.93,0,1,0,1.86,0v-13.2a2.794,2.794,0,0,1,2.79-2.79H22.8a2.293,2.293,0,0,1,2.227,1.737l.639,2.557a4.147,4.147,0,0,0,4.03,3.147H46.321a2.794,2.794,0,0,1,2.79,2.79v2.246a12.552,12.552,0,0,0-4.738,23.115H4.651a2.793,2.793,0,0,1-2.79-2.79V46.373a.93.93,0,0,0-1.86,0V58.847A4.656,4.656,0,0,0,4.651,63.5h41.67a4.591,4.591,0,0,0,1.733-.336,12.555,12.555,0,1,0,2.918-24.773ZM45.38,31.625H29.695a2.29,2.29,0,0,1-2.225-1.737l-.639-2.558A4.15,4.15,0,0,0,22.8,24.184H5.592V4.651a2.794,2.794,0,0,1,2.79-2.79H42.589a2.794,2.794,0,0,1,2.79,2.79Zm5.563,30.012A10.694,10.694,0,1,1,61.637,50.943,10.707,10.707,0,0,1,50.943,61.637Zm4.468-9.178H54.035V45.071A1.633,1.633,0,0,0,52.4,43.44H49.482a1.633,1.633,0,0,0-1.632,1.632v7.388H46.474a1.531,1.531,0,0,0-1.083,2.614l4.4,4.4a1.634,1.634,0,0,0,2.307,0l4.4-4.4a1.531,1.531,0,0,0-1.083-2.614Zm-4.468,5.535-3.674-3.674h.811a1.633,1.633,0,0,0,1.632-1.632V45.3h2.464v7.388a1.633,1.633,0,0,0,1.632,1.632h.811ZM35.662,44.4a.93.93,0,0,0,0-1.86H32.317a.93.93,0,0,0-.93.93v8.252a.93.93,0,1,0,1.86,0V48.444H35.4a.93.93,0,1,0,0-1.86H33.248V44.4ZM23.479,52.648h0c.069,0,1.7-.007,2.348-.018,2.379-.042,4.1-2.122,4.1-4.946,0-2.969-1.683-4.964-4.188-4.964H23.462a.93.93,0,0,0-.93.932v7.935a1.033,1.033,0,0,0,.947,1.061Zm2.269-8.068c1.716,0,2.328,1.6,2.328,3.1,0,2.1-1.144,3.066-2.277,3.086-.318.006-.894.01-1.392.013,0-.954-.01-5.21-.012-6.2h1.353Zm-9.508,7.137V49.032c.493,0,1.065-.005,1.385-.005a3.277,3.277,0,1,0,0-6.552H15.309a.94.94,0,0,0-.93.93v8.313a.93.93,0,0,0,1.86,0Zm1.385-7.383a1.417,1.417,0,1,1,0,2.832c-.318,0-.883,0-1.374.005,0-.506-.007-2.307-.008-2.837Z" transform="translate(0)"/>
    </g>
  </g>
</svg>
