<svg xmlns="http://www.w3.org/2000/svg" width="51.996" height="51.994" viewBox="0 0 51.996 51.994">
  <g id="research" transform="translate(-3.25 -3.252)">
    <path id="Trazado_944673" data-name="Trazado 944673" d="M23.7,4.75a2.942,2.942,0,0,0-2.86,2.261h5.72A2.942,2.942,0,0,0,23.7,4.75Z" transform="translate(-1.683 -0.143)" fill="none"/>
    <path id="Trazado_944674" data-name="Trazado 944674" d="M4.678,22.923V54.8H39.493V46.443a13.246,13.246,0,1,1,0-23.821V12.75H30v2.939a.678.678,0,0,1-.678.678H14.851a.678.678,0,0,1-.678-.678V12.75H4.678v2.939A.678.678,0,0,1,4,16.367v5.878a.678.678,0,0,1,.678.678Zm2.939-4.3H36.554a.678.678,0,0,1,0,1.356H7.617a.678.678,0,0,1,0-1.356Zm0,3.617H22.99a.678.678,0,1,1,0,1.356H7.617a.678.678,0,0,1,0-1.356Zm0,3.617h12.66a.678.678,0,1,1,0,1.356H7.617a.678.678,0,1,1,0-1.356Zm0,3.617H18.468a.678.678,0,1,1,0,1.356H7.617a.678.678,0,1,1,0-1.356Zm0,3.617H18.468a.678.678,0,0,1,0,1.356H7.617a.678.678,0,1,1,0-1.356Zm0,3.617H18.468a.678.678,0,0,1,0,1.356H7.617a.678.678,0,0,1,0-1.356Zm0,3.617H18.468a.678.678,0,0,1,0,1.356H7.617a.678.678,0,1,1,0-1.356Zm0,3.617h12.66a.678.678,0,1,1,0,1.356H7.617a.678.678,0,1,1,0-1.356Zm0,3.617H22.99a.678.678,0,1,1,0,1.356H7.617a.678.678,0,1,1,0-1.356Zm0,3.617H36.554a.678.678,0,0,1,0,1.356H7.617a.678.678,0,1,1,0-1.356Z" transform="translate(-0.072 -0.909)" fill="#d8f5ff"/>
    <path id="Trazado_944675" data-name="Trazado 944675" d="M16.75,8.75H29.862v5.878H16.75Z" transform="translate(-1.292 -0.526)" fill="#ffe600"/>
    <path id="Trazado_944676" data-name="Trazado 944676" d="M46.224,30.287a11.908,11.908,0,1,0,1.027,3.06.671.671,0,0,1,.452-.759l-.662-1.971a.671.671,0,0,1-.817-.33Zm-3.5,12.434a10.108,10.108,0,0,1-11.292,2.07.678.678,0,0,1-.34-.9.641.641,0,0,1,.071-.1l-1.7-1.176a.638.638,0,0,1-.068.1.677.677,0,0,1-.959,0,10.1,10.1,0,1,1,14.288,0Z" transform="translate(-1.952 -1.954)" fill="#0a4b75"/>
    <path id="Trazado_944677" data-name="Trazado 944677" d="M32.321,43.888A8.75,8.75,0,1,0,29.729,42.1a.668.668,0,0,1,.068.857l1.7,1.176a.669.669,0,0,1,.823-.241Z" transform="translate(-2.29 -2.289)" fill="#00c6ff"/>
    <path id="Trazado_944678" data-name="Trazado 944678" d="M0,0H2.234V5.824H0Z" transform="translate(42.19 43.786) rotate(-45)" fill="#d8f5ff"/>
    <path id="Trazado_944679" data-name="Trazado 944679" d="M0,0H4.029V5.824H0Z" transform="translate(46.632 49.491) rotate(-45)" fill="#0a4b75"/>
    <path id="Trazado_944680" data-name="Trazado 944680" d="M28.626,28.626a10.107,10.107,0,0,0,0,14.288.677.677,0,0,0,.959,0,.638.638,0,0,0,.068-.1.668.668,0,0,0-.067-.858,8.743,8.743,0,1,1,2.593,1.791.669.669,0,0,0-.825.241.641.641,0,0,0-.071.1.678.678,0,0,0,.34.9,10.1,10.1,0,1,0-2.995-16.357Z" transform="translate(-2.146 -2.146)"/>
    <path id="Trazado_944681" data-name="Trazado 944681" d="M55.047,50.281,49.969,45.2a.677.677,0,0,0-.959,0l-.156.155-4.282-4.282a13.256,13.256,0,0,0,2.058-9.936.678.678,0,0,0-.793-.543.634.634,0,0,0-.086.034.671.671,0,0,0-.452.759,11.82,11.82,0,1,1-1.027-3.06.671.671,0,0,0,.82.331.643.643,0,0,0,.09-.024.68.68,0,0,0,.306-.91,13.312,13.312,0,0,0-4.712-5.252V11.163a.678.678,0,0,0-.678-.678H29.926V7.545a.678.678,0,0,0-.678-.678H26.256a4.3,4.3,0,0,0-8.484,0H14.78a.678.678,0,0,0-.678.678v2.939H3.928a.678.678,0,0,0-.678.678V14.78a.678.678,0,0,0,1.356,0V11.841H14.1V14.78a.678.678,0,0,0,.678.678H29.248a.678.678,0,0,0,.678-.678V11.841h9.495v9.872a13.246,13.246,0,1,0,0,23.821V53.89H4.606V22.014a.678.678,0,0,0-1.356,0V54.568a.678.678,0,0,0,.678.678H40.1a.678.678,0,0,0,.678-.678v-9.8q.151-.1.3-.2l4.282,4.282-.155.156a.677.677,0,0,0,0,.959l5.078,5.078a.677.677,0,0,0,.959,0l3.808-3.808a.677.677,0,0,0,0-.959ZM50.76,53.608,46.642,49.49l2.848-2.848,4.118,4.118ZM43.778,42.2,47.9,46.317l-1.58,1.58L42.2,43.778ZM15.458,14.1V8.224H28.57V14.1Zm6.556-9.495a2.942,2.942,0,0,1,2.86,2.261h-5.72a2.942,2.942,0,0,1,2.86-2.261Z"/>
    <path id="Trazado_944682" data-name="Trazado 944682" d="M7.928,20.606H36.865a.678.678,0,0,0,0-1.356H7.928a.678.678,0,1,0,0,1.356Z" transform="translate(-0.383 -1.531)"/>
    <path id="Trazado_944683" data-name="Trazado 944683" d="M7.928,56.606H36.865a.678.678,0,1,0,0-1.356H7.928a.678.678,0,0,0,0,1.356Z" transform="translate(-0.383 -4.977)"/>
    <path id="Trazado_944684" data-name="Trazado 944684" d="M7.928,28.606h12.66a.678.678,0,1,0,0-1.356H7.928a.678.678,0,1,0,0,1.356Z" transform="translate(-0.383 -2.297)"/>
    <path id="Trazado_944685" data-name="Trazado 944685" d="M7.928,48.606h12.66a.678.678,0,1,0,0-1.356H7.928a.678.678,0,1,0,0,1.356Z" transform="translate(-0.383 -4.212)"/>
    <path id="Trazado_944686" data-name="Trazado 944686" d="M7.928,24.606H23.3a.678.678,0,1,0,0-1.356H7.928a.678.678,0,1,0,0,1.356Z" transform="translate(-0.383 -1.914)"/>
    <path id="Trazado_944687" data-name="Trazado 944687" d="M7.928,52.606H23.3a.678.678,0,1,0,0-1.356H7.928a.678.678,0,1,0,0,1.356Z" transform="translate(-0.383 -4.595)"/>
    <path id="Trazado_944688" data-name="Trazado 944688" d="M7.928,32.606H18.78a.678.678,0,1,0,0-1.356H7.928a.678.678,0,1,0,0,1.356Z" transform="translate(-0.383 -2.68)"/>
    <path id="Trazado_944689" data-name="Trazado 944689" d="M7.928,36.606H18.78a.678.678,0,1,0,0-1.356H7.928a.678.678,0,1,0,0,1.356Z" transform="translate(-0.383 -3.063)"/>
    <path id="Trazado_944690" data-name="Trazado 944690" d="M7.928,40.606H18.78a.678.678,0,0,0,0-1.356H7.928a.678.678,0,0,0,0,1.356Z" transform="translate(-0.383 -3.446)"/>
    <path id="Trazado_944691" data-name="Trazado 944691" d="M7.928,44.606H18.78a.678.678,0,1,0,0-1.356H7.928a.678.678,0,1,0,0,1.356Z" transform="translate(-0.383 -3.829)"/>
  </g>
</svg>
