<svg xmlns="http://www.w3.org/2000/svg" width="46.602" height="49.518" viewBox="0 0 46.602 49.518">
  <g id="nutrition_4721156" transform="translate(-15.078)">
    <path id="Trazado_944692" data-name="Trazado 944692" d="M138.278,137.793a15.561,15.561,0,0,0-4.509.664v11.888a.484.484,0,0,1-.484.484H122.92a15.573,15.573,0,0,0,19.7,17.476V158.187a.484.484,0,0,1,.484-.484h10.117a15.574,15.574,0,0,0-14.948-19.91Z" transform="translate(-97.227 -124.466)" fill="#fd4755"/>
    <g id="Grupo_1142398" data-name="Grupo 1142398" transform="translate(41.052 28.89)">
      <g id="Grupo_1142397" data-name="Grupo 1142397" transform="translate(0)">
        <path id="Trazado_944693" data-name="Trazado 944693" d="M283.636,298.715v15.564a15.623,15.623,0,0,0,3.238-.338V298.715Z" transform="translate(-283.636 -298.715)" fill="#fb2b3a"/>
      </g>
    </g>
    <g id="Grupo_1142399" data-name="Grupo 1142399" transform="translate(41.052 13.327)">
      <path id="Trazado_944694" data-name="Trazado 944694" d="M283.636,153.357H299.2a15.564,15.564,0,0,0-15.564-15.564Z" transform="translate(-283.636 -137.793)" fill="#8bc727"/>
    </g>
    <g id="Grupo_1142400" data-name="Grupo 1142400" transform="translate(41.052 13.327)">
      <path id="Trazado_944695" data-name="Trazado 944695" d="M283.636,137.793v15.564h3.238V138.131A15.624,15.624,0,0,0,283.636,137.793Z" transform="translate(-283.636 -137.793)" fill="#81b823"/>
    </g>
    <path id="Trazado_944696" data-name="Trazado 944696" d="M133.769,138.457v11.888a.484.484,0,0,1-.484.484H122.92a15.571,15.571,0,0,0,15.358,18.092V137.793a15.563,15.563,0,0,0-4.509.664Z" transform="translate(-97.227 -124.466)" fill="#fac600"/>
    <g id="Grupo_1142401" data-name="Grupo 1142401" transform="translate(25.488 26.362)">
      <path id="Trazado_944697" data-name="Trazado 944697" d="M125.945,275.1a15.667,15.667,0,0,1,.205-2.528h-3.23a15.571,15.571,0,0,0,15.358,18.092v-.337A15.569,15.569,0,0,1,125.945,275.1Z" transform="translate(-122.715 -272.577)" fill="#e8b800"/>
    </g>
    <g id="Grupo_1142402" data-name="Grupo 1142402" transform="translate(45.398 33.237)">
      <path id="Trazado_944698" data-name="Trazado 944698" d="M329.076,359.213a15.564,15.564,0,0,0,15.057-15.057.484.484,0,0,0-.484-.5H329.062a.484.484,0,0,0-.484.484v14.588A.484.484,0,0,0,329.076,359.213Z" transform="translate(-328.578 -343.657)" fill="#01d0fb"/>
    </g>
    <g id="Grupo_1142403" data-name="Grupo 1142403" transform="translate(45.398 33.237)">
      <path id="Trazado_944699" data-name="Trazado 944699" d="M331.622,358.729V344.141a.484.484,0,0,1,.484-.484h-3.043a.484.484,0,0,0-.484.484v14.588a.484.484,0,0,0,.5.484,15.6,15.6,0,0,0,2.582-.3A.48.48,0,0,1,331.622,358.729Z" transform="translate(-328.579 -343.657)" fill="#01c0fa"/>
    </g>
    <g id="Grupo_1142410" data-name="Grupo 1142410" transform="translate(15.803 0.725)">
      <g id="Grupo_1142404" data-name="Grupo 1142404">
        <path id="Trazado_944700" data-name="Trazado 944700" d="M42.834,33.137H23.062a.484.484,0,0,1-.484-.484V7.984a.484.484,0,0,1,.484-.484H42.834a.484.484,0,0,1,.484.484v24.67A.484.484,0,0,1,42.834,33.137Z" transform="translate(-22.578 -7.5)" fill="#dff6fd"/>
      </g>
      <g id="Grupo_1142405" data-name="Grupo 1142405">
        <path id="Trazado_944701" data-name="Trazado 944701" d="M25.814,32.653V7.984A.484.484,0,0,1,26.3,7.5H23.062a.484.484,0,0,0-.484.484v24.67a.484.484,0,0,0,.484.484H26.3A.484.484,0,0,1,25.814,32.653Z" transform="translate(-22.578 -7.5)" fill="#c8effe"/>
      </g>
      <g id="Grupo_1142409" data-name="Grupo 1142409" transform="translate(3.652 5.451)">
        <g id="Grupo_1142406" data-name="Grupo 1142406" transform="translate(0)">
          <path id="Trazado_944702" data-name="Trazado 944702" d="M71.254,63.926a4.592,4.592,0,0,0-4.2,1.805,4.592,4.592,0,0,0-4.2-1.805c-2.151.454-3.11,3.128-2.142,5.973s3.5,4.783,5.647,4.329a2.851,2.851,0,0,0,.693-.243,2.851,2.851,0,0,0,.693.243c2.151.454,4.679-1.484,5.647-4.329S73.4,64.379,71.254,63.926Z" transform="translate(-60.338 -63.86)" fill="#fd4755"/>
        </g>
        <g id="Grupo_1142408" data-name="Grupo 1142408" transform="translate(0 0)">
          <g id="Grupo_1142407" data-name="Grupo 1142407">
            <path id="Trazado_944703" data-name="Trazado 944703" d="M63.982,69.9c-.819-2.406-.259-4.689,1.234-5.611a3.649,3.649,0,0,0-2.359-.362c-2.151.454-3.11,3.128-2.142,5.973s3.5,4.783,5.647,4.329a2.851,2.851,0,0,0,.693-.243,2.851,2.851,0,0,0,.693.243,3.169,3.169,0,0,0,.94.051c-1.9-.171-3.877-1.942-4.707-4.38Z" transform="translate(-60.337 -63.861)" fill="#fb2b3a"/>
          </g>
        </g>
      </g>
    </g>
    <g id="Grupo_1142411" data-name="Grupo 1142411" transform="translate(15.078 0)">
      <path id="Trazado_944704" data-name="Trazado 944704" d="M61.339,32.879a1.217,1.217,0,0,0-.869-.368H56.932a16.277,16.277,0,0,0-3.36-14.04.725.725,0,0,0-1.115.928,14.855,14.855,0,0,1,3.414,8.765H41.777V14.07a14.674,14.674,0,0,1,8.358,3.087.725.725,0,0,0,.889-1.147,16.28,16.28,0,0,0-13.756-2.963V10.369A18.9,18.9,0,0,1,59.956,28.89a.725.725,0,1,0,1.451,0,20.353,20.353,0,0,0-24.139-20v-2.6a.725.725,0,1,0-1.451,0v19.35H16.529V1.451H35.817V2.9a.725.725,0,1,0,1.451,0V1.209A1.21,1.21,0,0,0,36.059,0H16.287a1.21,1.21,0,0,0-1.209,1.209v24.67a1.21,1.21,0,0,0,1.209,1.209h4.491c-.053.594-.081,1.2-.081,1.8A20.378,20.378,0,0,0,41.052,49.245a.725.725,0,1,0,0-1.451,18.926,18.926,0,0,1-18.9-18.9c0-.608.031-1.209.088-1.8h2.628A16.284,16.284,0,0,0,44.673,44.77v3.538a1.21,1.21,0,0,0,1.209,1.21h.037a16.321,16.321,0,0,0,10.065-3.9.725.725,0,0,0-.943-1.1,14.868,14.868,0,0,1-8.918,3.544v-14.1h14.1a14.725,14.725,0,0,1-2.965,8.2.725.725,0,1,0,1.158.873,16.172,16.172,0,0,0,3.267-9.276,1.214,1.214,0,0,0-.34-.878ZM40.326,28.89v14.82a14.839,14.839,0,0,1-14-16.623h9.736a1.21,1.21,0,0,0,1.209-1.209V14.544a14.748,14.748,0,0,1,3.058-.474V28.89Zm5.555,3.621a1.21,1.21,0,0,0-1.209,1.209v9.558a14.758,14.758,0,0,1-2.9.432V29.616H55.872a14.75,14.75,0,0,1-.432,2.9Z" transform="translate(-15.078 0)"/>
      <path id="Trazado_944705" data-name="Trazado 944705" d="M67.045,39.8a3.671,3.671,0,0,0-2.44-1.826A4.735,4.735,0,0,0,60.8,39a2.187,2.187,0,0,1,.811-1.774.725.725,0,0,0-.87-1.161,3.557,3.557,0,0,0-1.379,2.686,4.591,4.591,0,0,0-3.452-.773,3.671,3.671,0,0,0-2.44,1.826,6.273,6.273,0,0,0-.238,5.09,7.97,7.97,0,0,0,2.625,3.744,5.086,5.086,0,0,0,3.064,1.144,3.845,3.845,0,0,0,.795-.082,3.573,3.573,0,0,0,.544-.161,3.564,3.564,0,0,0,.544.161,4.757,4.757,0,0,0,3.858-1.062,7.972,7.972,0,0,0,2.625-3.744A6.274,6.274,0,0,0,67.045,39.8ZM65.91,44.425c-.838,2.462-3.041,4.226-4.811,3.853a2.137,2.137,0,0,1-.518-.182.726.726,0,0,0-.651,0,2.138,2.138,0,0,1-.518.182c-1.769.374-3.973-1.391-4.81-3.853a4.908,4.908,0,0,1,.126-3.9A2.211,2.211,0,0,1,56.207,39.4a2.345,2.345,0,0,1,.485-.05,4.255,4.255,0,0,1,3.018,1.623.725.725,0,0,0,1.091,0A3.9,3.9,0,0,1,64.3,39.4a2.211,2.211,0,0,1,1.479,1.125A4.909,4.909,0,0,1,65.91,44.425Z" transform="translate(-49.161 -32.444)"/>
      <path id="Trazado_944706" data-name="Trazado 944706" d="M125.227,199.174h-6.963a.725.725,0,0,0,0,1.451h6.963a.725.725,0,1,0,0-1.451Z" transform="translate(-107.629 -179.911)"/>
      <path id="Trazado_944707" data-name="Trazado 944707" d="M55.877,200.625H59.59a.725.725,0,1,0,0-1.451H55.877a.725.725,0,1,0,0,1.451Z" transform="translate(-51.276 -179.911)"/>
      <path id="Trazado_944708" data-name="Trazado 944708" d="M55.877,230.611h13a.725.725,0,1,0,0-1.451h-13a.725.725,0,1,0,0,1.451Z" transform="translate(-51.276 -206.997)"/>
      <path id="Trazado_944709" data-name="Trazado 944709" d="M173.841,306.579h-6.577a.725.725,0,0,0,0,1.451h6.577a.725.725,0,0,0,0-1.451Z" transform="translate(-151.89 -276.928)"/>
      <path id="Trazado_944710" data-name="Trazado 944710" d="M173.841,333.579h-6.577a.725.725,0,1,0,0,1.451h6.577a.725.725,0,1,0,0-1.451Z" transform="translate(-151.89 -301.317)"/>
      <path id="Trazado_944711" data-name="Trazado 944711" d="M202.746,360.579h-3.482a.725.725,0,0,0,0,1.451h3.482a.725.725,0,0,0,0-1.451Z" transform="translate(-180.796 -325.705)"/>
    </g>
  </g>
</svg>
