<svg id="anesthesia_4728356" xmlns="http://www.w3.org/2000/svg" width="49.467" height="49.467" viewBox="0 0 49.467 49.467">
  <g id="Grupo_1142426" data-name="Grupo 1142426" transform="translate(0.798 0.798)">
    <g id="Grupo_1142412" data-name="Grupo 1142412" transform="translate(0 0.798)">
      <path id="Trazado_944712" data-name="Trazado 944712" d="M5.787,20.351v1.6h-1.6a3.081,3.081,0,0,0-1.021.168c-.064-.191-.144-.407-.215-.614A6.142,6.142,0,0,1,2.6,19.457a6.268,6.268,0,0,1,.662-2.84l.128-.255L2.253,15.22A4.269,4.269,0,0,1,1,12.2C1,6.787,5.787,2,17.755,2c7.979,0,11.553,3.231,12.622,5.29A9.6,9.6,0,0,0,34.262,18.93l-.439,3.016-.032.128a2.92,2.92,0,0,0-.878-.128h-1.6V20.877a3.2,3.2,0,0,0-.933-2.258l-1.46-1.46a8.011,8.011,0,0,1-6.383,3.191l1.6-3.191-2.816,1.4a16.893,16.893,0,0,1-7.556,1.787l1.6-3.191-.806.535a15.8,15.8,0,0,1-8.768,2.657Z" transform="translate(-1 -2)" fill="#656d78"/>
    </g>
    <g id="Grupo_1142413" data-name="Grupo 1142413" transform="translate(7.979 41.488)">
      <path id="Trazado_944713" data-name="Trazado 944713" d="M30.037,58.6l.112.782H11l.112-.782A6.626,6.626,0,0,1,16.585,53l1.436,1.915a3.191,3.191,0,0,0,5.106,0L24.563,53A6.638,6.638,0,0,1,30.037,58.6Z" transform="translate(-11 -53)" fill="#5cd6b3"/>
    </g>
    <g id="Grupo_1142414" data-name="Grupo 1142414" transform="translate(9.538 28.33)">
      <ellipse id="Elipse_9798" data-name="Elipse 9798" cx="7.987" cy="4.698" rx="7.987" ry="4.698" transform="translate(0 0)" fill="#ecc19c"/>
    </g>
    <g id="Grupo_1142415" data-name="Grupo 1142415" transform="translate(13.563 39.741)">
      <path id="Trazado_944714" data-name="Trazado 944714" d="M25.979,52.557l-1.436,1.915a3.191,3.191,0,0,1-5.106,0L18,52.557l.582-1.739a11.322,11.322,0,0,0,1.811.144h3.191A10.47,10.47,0,0,0,25.4,50.81v.008Z" transform="translate(-18 -50.81)" fill="#f0d0b4"/>
    </g>
    <g id="Grupo_1142416" data-name="Grupo 1142416" transform="translate(30.318 20.744)">
      <path id="Trazado_944715" data-name="Trazado 944715" d="M41.473,27.128a3.174,3.174,0,0,1,2.314,3.064A3.187,3.187,0,0,1,40.6,33.383H39V27h1.6A2.92,2.92,0,0,1,41.473,27.128Z" transform="translate(-39 -27)" fill="#f0d0b4"/>
    </g>
    <g id="Grupo_1142417" data-name="Grupo 1142417" transform="translate(4.787 15.957)">
      <path id="Trazado_944716" data-name="Trazado 944716" d="M30.936,39.526a11.182,11.182,0,0,1-7.763,5.258,10.47,10.47,0,0,1-1.811.152H18.17a11.322,11.322,0,0,1-1.811-.144A11.18,11.18,0,0,1,7,33.766V24.191a15.8,15.8,0,0,0,8.768-2.657L16.574,21l-1.6,3.191A16.893,16.893,0,0,0,22.534,22.4L25.351,21l-1.6,3.191A8.011,8.011,0,0,0,30.138,21l1.46,1.46a3.2,3.2,0,0,1,.933,2.258v9.048c0,.271-.008.535-.032.8h-.766a.8.8,0,0,0-.8.8v.8H28.542a.8.8,0,0,0-.8.8v.8c0-2.641-3.574-4.787-7.979-4.787s-7.979,2.146-7.979,4.787c0,1.444,1.077,2.745,2.769,3.622a11.44,11.44,0,0,0,5.21,1.165,11.44,11.44,0,0,0,5.21-1.165c1.691-.878,2.769-2.178,2.769-3.622v.8a.8.8,0,0,0,.8.8h2.394Z" transform="translate(-7 -21)" fill="#f0d0b4"/>
    </g>
    <g id="Grupo_1142418" data-name="Grupo 1142418" transform="translate(0 20.744)">
      <path id="Trazado_944717" data-name="Trazado 944717" d="M5.787,27v6.383h-1.6A3.192,3.192,0,0,1,3.17,27.168,3.081,3.081,0,0,1,4.191,27Z" transform="translate(-1 -27)" fill="#f0d0b4"/>
    </g>
    <g id="Grupo_1142419" data-name="Grupo 1142419" transform="translate(44.68 27.925)">
      <path id="Trazado_944718" data-name="Trazado 944718" d="M60.191,36.8v7.979a.8.8,0,0,1-.8.8H57.8a.8.8,0,0,1-.8-.8V36.8a.8.8,0,0,1,.8-.8h1.6A.8.8,0,0,1,60.191,36.8Z" transform="translate(-57 -36)" fill="#fcd770"/>
    </g>
    <g id="Grupo_1142420" data-name="Grupo 1142420" transform="translate(41.488 31.116)">
      <path id="Trazado_944719" data-name="Trazado 944719" d="M53,40h3.191v3.191H53Z" transform="translate(-53 -40)" fill="#fcd770"/>
    </g>
    <g id="Grupo_1142421" data-name="Grupo 1142421" transform="translate(25.531 31.116)">
      <path id="Trazado_944720" data-name="Trazado 944720" d="M36.191,40v3.191H33.8a.8.8,0,0,1-.8-.8V40.8a.8.8,0,0,1,.8-.8Z" transform="translate(-33 -40)" fill="#fcd770"/>
    </g>
    <g id="Grupo_1142422" data-name="Grupo 1142422" transform="translate(28.723 29.521)">
      <path id="Trazado_944721" data-name="Trazado 944721" d="M46.574,38h2.394a.8.8,0,0,1,.8.8v4.787a.8.8,0,0,1-.8.8H37.8a.8.8,0,0,1-.8-.8V38.8a.8.8,0,0,1,.8-.8h8.776Z" transform="translate(-37 -38)" fill="#ffeaa7"/>
    </g>
    <g id="Grupo_1142423" data-name="Grupo 1142423" transform="translate(12.343 34.308)">
      <path id="Trazado_944722" data-name="Trazado 944722" d="M24.472,44.527a7.626,7.626,0,0,1,2.417,1.5,11.44,11.44,0,0,1-5.21,1.165,11.44,11.44,0,0,1-5.21-1.165,7.7,7.7,0,0,1,8-1.5Z" transform="translate(-16.47 -44)" fill="#dfb28b"/>
    </g>
    <g id="Grupo_1142424" data-name="Grupo 1142424" transform="translate(28.723)">
      <path id="Trazado_944723" data-name="Trazado 944723" d="M41.54,18.728a9.587,9.587,0,1,1,5.034,1.42A9.589,9.589,0,0,1,41.54,18.728Z" transform="translate(-37 -1)" fill="#ffeaa7"/>
    </g>
    <g id="Grupo_1142425" data-name="Grupo 1142425" transform="translate(32.712 3.989)">
      <path id="Trazado_944724" data-name="Trazado 944724" d="M49.915,6a3.1,3.1,0,0,1,2.577,1.38l.184.263a3.01,3.01,0,0,1,.495,1.644,2.914,2.914,0,0,1-.311,1.324l-.1.2a11.288,11.288,0,0,0-1.181,5.018,1.344,1.344,0,0,1-2.649.319l-.351-1.4a1.019,1.019,0,0,0-1.979,0l-.351,1.4A1.344,1.344,0,0,1,43.6,15.83a11.288,11.288,0,0,0-1.181-5.018l-.1-.2A2.914,2.914,0,0,1,42,9.287a3.01,3.01,0,0,1,.495-1.644l.184-.263a3.1,3.1,0,0,1,3.965-1.053,2.1,2.1,0,0,0,1.883,0A3.09,3.09,0,0,1,49.915,6Z" transform="translate(-42 -6)" fill="#e6e9ed"/>
    </g>
  </g>
  <g id="Grupo_1142427" data-name="Grupo 1142427">
    <path id="Trazado_944725" data-name="Trazado 944725" d="M41.4,10.769l.1.2a10.459,10.459,0,0,1,1.1,4.654,2.142,2.142,0,0,0,4.22.52l.349-1.4a.232.232,0,0,1,.435,0l.349,1.4a2.142,2.142,0,0,0,4.221-.52,10.459,10.459,0,0,1,1.1-4.654l.1-.2A3.759,3.759,0,0,0,53.135,7l-.177-.266a3.9,3.9,0,0,0-4.991-1.326,1.311,1.311,0,0,1-1.167,0,3.9,3.9,0,0,0-4.991,1.326L41.632,7a3.756,3.756,0,0,0-.235,3.767ZM42.96,7.887l.176-.266a2.356,2.356,0,0,1,2.95-.783,2.915,2.915,0,0,0,2.595,0,2.357,2.357,0,0,1,2.949.783l.177.266a2.16,2.16,0,0,1,.135,2.168l-.1.2a12.073,12.073,0,0,0-1.267,5.368.546.546,0,0,1-1.076.132l-.349-1.4a1.82,1.82,0,0,0-3.531,0l-.349,1.4a.546.546,0,0,1-1.076-.133,12.068,12.068,0,0,0-1.267-5.368l-.1-.2a2.163,2.163,0,0,1,.136-2.168Z" transform="translate(-8.288 -1.011)"/>
    <path id="Trazado_944726" data-name="Trazado 944726" d="M48.718,10.453a3.5,3.5,0,0,0,2.49-1.032L50.08,8.293a1.941,1.941,0,0,1-1.362.564h-.935a1.941,1.941,0,0,1-1.362-.564L45.293,9.421a3.5,3.5,0,0,0,2.49,1.032Z" transform="translate(-9.156 -1.676)"/>
    <path id="Trazado_944727" data-name="Trazado 944727" d="M15.191,31.191A3.2,3.2,0,0,0,18.383,28h-1.6A1.6,1.6,0,1,1,13.6,28H12A3.2,3.2,0,0,0,15.191,31.191Z" transform="translate(-2.426 -5.66)"/>
    <path id="Trazado_944728" data-name="Trazado 944728" d="M29.191,31.191A3.2,3.2,0,0,0,32.383,28h-1.6A1.6,1.6,0,1,1,27.6,28H26A3.2,3.2,0,0,0,29.191,31.191Z" transform="translate(-5.256 -5.66)"/>
    <path id="Trazado_944729" data-name="Trazado 944729" d="M47.871,27.925h-1.6a1.6,1.6,0,0,0-1.6,1.6v1.6h-1.6a1.6,1.6,0,0,0-1.6-1.6H31.914v-.8h.8a3.978,3.978,0,0,0,1.77-7.546l.2-1.431A10.367,10.367,0,1,0,30.059,5.3C28.116,2.948,24.07.8,17.553.8,1.265.8,0,9.216,0,11.8a5.031,5.031,0,0,0,1.483,3.582l.741.742A7.117,7.117,0,0,0,1.6,19.055a7.027,7.027,0,0,0,.382,2.25,3.976,3.976,0,0,0,2,7.418h.8v.8a11.978,11.978,0,0,0,9.119,11.61l-.155.464A7.4,7.4,0,0,0,8.1,47.775l-.242,1.691H28.845L28.6,47.775A7.4,7.4,0,0,0,22.95,41.6l-.15-.45a11.826,11.826,0,0,0,6.435-4.077,1.586,1.586,0,0,0,1.083.431h11.17a1.6,1.6,0,0,0,1.6-1.6h1.6v1.6a1.6,1.6,0,0,0,1.6,1.6h1.6a1.6,1.6,0,0,0,1.6-1.6V29.521a1.6,1.6,0,0,0-1.6-1.6Zm-15.159-.8h-.8V22.34h.8a2.394,2.394,0,1,1,0,4.787ZM39.095,1.6a8.776,8.776,0,1,1-8.776,8.776A8.787,8.787,0,0,1,39.095,1.6ZM3.2,19.046a5.517,5.517,0,0,1,.577-2.476l.386-.772-1.551-1.55A3.446,3.446,0,0,1,1.6,11.8c0-5.888,5.966-9.4,15.957-9.4,8.181,0,11.008,3.382,11.753,4.58A10.312,10.312,0,0,0,33.2,18.893l-.267,1.873c-.073,0-.143-.022-.217-.022h-.8V20.47a3.963,3.963,0,0,0-1.168-2.82l-2.11-2.11-.552.736A7.219,7.219,0,0,1,23.7,19.018l2.023-4.047-4.955,2.478a16.206,16.206,0,0,1-5.883,1.645l2.335-4.669-3.3,2.2a14.951,14.951,0,0,1-7.464,2.5,5.068,5.068,0,0,1,3.137-3.908L9.87,15.1l-.593-1.481-.285.114a6.655,6.655,0,0,0-4.205,6.21v.8h-.8a3.989,3.989,0,0,0-.491.049,5.468,5.468,0,0,1-.3-1.747Zm.79,8.081a2.394,2.394,0,0,1,0-4.787h.8v4.787ZM27,47.871H9.7a5.793,5.793,0,0,1,4.341-4.685l1.12,1.494a3.989,3.989,0,0,0,6.383,0l1.12-1.494A5.793,5.793,0,0,1,27,47.871Zm-5.552-5.729-1.186,1.581a2.394,2.394,0,0,1-3.83,0l-1.185-1.58.241-.722a12.221,12.221,0,0,0,1.263.068h3.191a12.255,12.255,0,0,0,1.263-.071Zm-1.5-2.249H16.755A10.384,10.384,0,0,1,6.383,29.521v-8.8A16.518,16.518,0,0,0,13.195,18.9l-.922,1.845h1.291a17.8,17.8,0,0,0,7.914-1.868l.673-.337-1.1,2.2H22.34a8.827,8.827,0,0,0,6.435-2.809l.843.843a2.409,2.409,0,0,1,.7,1.692v9.05a1.6,1.6,0,0,0-1.6,1.6h-1.6a1.571,1.571,0,0,0-.7.17c-1.327-1.995-4.4-3.361-8.075-3.361-4.921,0-8.776,2.453-8.776,5.585s3.855,5.585,8.776,5.585c3.673,0,6.748-1.367,8.075-3.361a1.571,1.571,0,0,0,.7.17h.991a10.282,10.282,0,0,1-8.172,3.989Zm7.181-7.181h1.6v1.6h-1.6Zm-3.482,3.454a8.472,8.472,0,0,0-10.589,0A3.34,3.34,0,0,1,11.17,33.51c0-2.162,3.289-3.989,7.181-3.989,3.4,0,6.342,1.4,7.029,3.191H21.542v1.6H25.38a4.006,4.006,0,0,1-1.735,1.858Zm-1.672.764a11.817,11.817,0,0,1-7.244,0,6.9,6.9,0,0,1,7.244,0ZM30.318,35.9V31.116h1.6v3.191h1.6V31.116h1.6v1.6h1.6v-1.6h1.6v3.191h1.6V31.116h1.6V35.9Zm12.766-1.6v-1.6h1.6v1.6ZM46.275,37.5V29.521h1.6V37.5Z"/>
  </g>
</svg>
