<svg xmlns="http://www.w3.org/2000/svg" width="47.614" height="49.51" viewBox="0 0 47.614 49.51">
  <g id="otolaryngologist_3468244" transform="translate(-9.804)">
    <g id="Grupo_1142434" data-name="Grupo 1142434" transform="translate(10.53 0.725)">
      <path id="Trazado_944748" data-name="Trazado 944748" d="M57.556,39.885A6.488,6.488,0,0,0,64.045,33.4V21.257a13.757,13.757,0,1,0-27.514,0V33.4a6.488,6.488,0,0,0,6.488,6.488Z" transform="translate(-34.672 -7.5)" fill="#656d78"/>
      <path id="Trazado_944749" data-name="Trazado 944749" d="M222.13,170.511a2.084,2.084,0,1,0,0-4.169h-5.5v4.169Z" transform="translate(-197.351 -150.978)" fill="#ffcebf"/>
      <path id="Trazado_944750" data-name="Trazado 944750" d="M64.7,170.511a2.084,2.084,0,1,1,0-4.169h4.262v4.169Z" transform="translate(-58.229 -150.978)" fill="#ffb09e"/>
      <path id="Trazado_944751" data-name="Trazado 944751" d="M80.56,274.277l-4.59-2.014.11-8.554H68.04v8.554l-4.672,2.05-2.8,4.9,11.6,5.529,9.866-7.91Z" transform="translate(-56.382 -238.928)" fill="#ffcebf"/>
      <g id="Grupo_1142433" data-name="Grupo 1142433" transform="translate(0 11.84)">
        <path id="Trazado_944752" data-name="Trazado 944752" d="M76.464,296.62v.9H74.32v4.469l-4.672,2.05-2.13,3.721,7.8-3.509a3.079,3.079,0,0,0,1.816-2.808.7.7,0,0,1,.729-.7q.165.007.33.007a7.922,7.922,0,0,0,2.656-.457l.412-.146a10.481,10.481,0,0,0,1.016-.423l.04-3.105H76.464Z" transform="translate(-62.662 -280.496)" fill="#ffb09e"/>
        <path id="Trazado_944753" data-name="Trazado 944753" d="M113.376,148.968h-2.527a.465.465,0,0,1-.138-.023l-2.879.725-8.191.286-1.877,1.5-.449,6.618,3.927,6.056,3.916,1.213h2.665a9.083,9.083,0,0,0,5.923-8.514v-7.49A.371.371,0,0,0,113.376,148.968Z" transform="translate(-89.576 -147.104)" fill="#ffdfcf"/>
        <path id="Trazado_944754" data-name="Trazado 944754" d="M103.579,131.632l-1.6-1.641a.261.261,0,0,0-.374,0l-1.589,1.635a.488.488,0,0,1-.35.148h-9.7a.336.336,0,0,0-.336.336v7.577a9.049,9.049,0,0,0,5.988,8.516l.374.134a6.459,6.459,0,0,0,4.344.009l.555-.2a7.352,7.352,0,0,1-1.44-.346l-.374-.132a9.852,9.852,0,0,1-6.642-9.259v-2.37a2.842,2.842,0,0,1,2.84-2.842l6.866,0a.523.523,0,0,0,.375-.159l1.254-1.286A.475.475,0,0,1,103.579,131.632Z" transform="translate(-82.641 -129.912)" fill="#ffcebf"/>
        <path id="Trazado_944755" data-name="Trazado 944755" d="M42.229,373.3l-.745-.327-.015.036-7.954,8.51a.868.868,0,0,1-1.269,0L24.293,373l-.664.291a10.568,10.568,0,0,0-6.323,9.679v1.5a1.152,1.152,0,0,0,1.152,1.152h3.3l.411-.21h4.743l.344.21H47.4a1.152,1.152,0,0,0,1.152-1.152v-1.5A10.568,10.568,0,0,0,42.229,373.3Z" transform="translate(-17.307 -349.46)" fill="#c1e9af"/>
        <g id="Grupo_1142432" data-name="Grupo 1142432" transform="translate(0 23.545)">
          <path id="Trazado_944756" data-name="Trazado 944756" d="M20.32,384.718a10.567,10.567,0,0,1,5.8-9.428l-1.823-1.95-.664.291a10.568,10.568,0,0,0-6.323,9.679v1.5a1.152,1.152,0,0,0,1.152,1.152H20.32v-1.246Z" transform="translate(-17.307 -373.339)" fill="#ade194"/>
        </g>
        <path id="Trazado_944757" data-name="Trazado 944757" d="M64.138,473.4h-5.5a.505.505,0,0,1-.505-.505v-2.251a.505.505,0,0,1,.505-.505h5.5a.505.505,0,0,1,.505.505v2.251A.505.505,0,0,1,64.138,473.4Z" transform="translate(-54.185 -437.23)" fill="#fee97d"/>
        <circle id="Elipse_9800" data-name="Elipse 9800" cx="11.639" cy="11.639" r="11.639" transform="translate(22.884 12.941)" fill="#c8effe"/>
        <path id="Trazado_944758" data-name="Trazado 944758" d="M258.255,275.348a11.645,11.645,0,0,1,9.465-11.436,11.639,11.639,0,1,0,0,22.872A11.645,11.645,0,0,1,258.255,275.348Z" transform="translate(-231.02 -250.768)" fill="#99e6fc"/>
        <path id="Trazado_944759" data-name="Trazado 944759" d="M340.176,296.62a4.921,4.921,0,0,1,4.921,4.921V303.9a4.921,4.921,0,0,1-1.5,3.533l-3,2.909a1.1,1.1,0,0,0-.333.786v.257a2.507,2.507,0,1,1-5.014,0v-9.842A4.921,4.921,0,0,1,340.176,296.62Z" transform="translate(-304.502 -280.496)" fill="#ffcebf"/>
      </g>
    </g>
    <g id="Grupo_1142435" data-name="Grupo 1142435" transform="translate(9.804 0)">
      <path id="Trazado_944760" data-name="Trazado 944760" d="M12.207,416.014a.725.725,0,0,0-.986.283A11.321,11.321,0,0,0,9.8,421.774v2.654a.725.725,0,0,0,1.451,0v-2.654A9.866,9.866,0,0,1,12.49,417,.725.725,0,0,0,12.207,416.014Z" transform="translate(-9.804 -375.694)"/>
      <path id="Trazado_944761" data-name="Trazado 944761" d="M57.363,462.638h-5.5a1.232,1.232,0,0,0-1.231,1.231V466.1a1.232,1.232,0,0,0,1.231,1.231h5.5a1.232,1.232,0,0,0,1.231-1.231v-2.228A1.232,1.232,0,0,0,57.363,462.638Zm-.22,3.239H52.085v-1.788h5.058Z" transform="translate(-46.685 -417.89)"/>
      <path id="Trazado_944762" data-name="Trazado 944762" d="M70.668,27.935a.725.725,0,1,0-.968,1.081,10.913,10.913,0,1,1-7.279-2.783A10.8,10.8,0,0,1,67.3,27.383a.725.725,0,0,0,.65-1.3A12.371,12.371,0,0,0,58,25.6V14.482a14.326,14.326,0,0,0-3.169-9.041.725.725,0,0,0-1.133.906,12.89,12.89,0,0,1,2.851,8.134V26.269a12.442,12.442,0,0,0-5.532,6.11c-.077,0-.154.006-.23.006H48.21v-1.8a9.83,9.83,0,0,0,4.574-8.293V20.98a2.809,2.809,0,0,0,0-5.614V14.8a1.1,1.1,0,0,0-1.1-1.1H49.27l-1.706-1.755a.726.726,0,0,0-1.04,0L44.817,13.7H35.254a1.1,1.1,0,0,0-1.1,1.1v.572a2.809,2.809,0,0,0,0,5.6v1.343a9.838,9.838,0,0,0,4.671,8.353v1.714H36.245a5.769,5.769,0,0,1-5.763-5.763V14.482A13.046,13.046,0,0,1,43.513,1.451,12.892,12.892,0,0,1,51.62,4.279a.725.725,0,1,0,.9-1.135A14.329,14.329,0,0,0,43.513,0,14.5,14.5,0,0,0,29.031,14.482v12.14a7.222,7.222,0,0,0,7.214,7.214h2.017l-4.333,1.9a11.251,11.251,0,0,0-3.323,2.233.725.725,0,0,0,1.01,1.042,9.806,9.806,0,0,1,2.9-1.946l.193-.085,7.6,8.135a1.594,1.594,0,0,0,2.33,0l5.582-5.973a12.364,12.364,0,1,0,20.45-11.208ZM50.337,34.52l-1.56-.684h1.729q-.094.338-.169.684Zm3.7-16.347a1.36,1.36,0,0,1-1.25,1.353V16.82A1.36,1.36,0,0,1,54.035,18.173ZM33,18.173a1.36,1.36,0,0,1,1.154-1.342v2.683A1.36,1.36,0,0,1,33,18.173Zm2.6,4.145V15.155h9.515a.725.725,0,0,0,.52-.22l1.4-1.44,1.4,1.44a.726.726,0,0,0,.52.22h2.37V22.29a8.374,8.374,0,0,1-5.564,7.877l-.411.146a5.782,5.782,0,0,1-3.879-.008l-.339-.122a8.379,8.379,0,0,1-5.532-7.866Zm7.967,21.807a.144.144,0,0,1-.21,0l-7.254-7.762,3.733-1.638a.726.726,0,0,0,.434-.664V31.408q.183.074.37.142l.339.122a7.238,7.238,0,0,0,4.855.01l.411-.146c.171-.061.338-.127.5-.2v2.722a.725.725,0,0,0,.434.664L50.109,36c-.035.376-.053.756-.053,1.141,0,.015,0,.03,0,.045Z" transform="translate(-27.171 0)"/>
      <path id="Trazado_944763" data-name="Trazado 944763" d="M333.4,289.12a5.653,5.653,0,0,0-5.646,5.646v9.842a3.232,3.232,0,1,0,6.465,0v-.257a.371.371,0,0,1,.112-.265l3-2.909a5.677,5.677,0,0,0,1.716-4.054v-2.357A5.653,5.653,0,0,0,333.4,289.12Zm4.2,8a4.218,4.218,0,0,1-1.275,3.012l-3,2.909a1.83,1.83,0,0,0-.553,1.307v.257a1.781,1.781,0,1,1-3.563,0v-9.842a4.2,4.2,0,1,1,8.391,0v2.357Z" transform="translate(-297.002 -261.155)"/>
      <path id="Trazado_944764" data-name="Trazado 944764" d="M362.206,321.011a2.565,2.565,0,0,0-2.562,2.562.725.725,0,0,0,1.451,0,1.111,1.111,0,0,1,2.222,0v2.357a1.117,1.117,0,0,1-.338.8l-3,2.908q-.069.067-.136.137a.726.726,0,0,0-.2.5v1.277a.725.725,0,0,0,1.451,0v-.974l2.894-2.807a2.576,2.576,0,0,0,.778-1.839v-2.357A2.565,2.565,0,0,0,362.206,321.011Z" transform="translate(-325.807 -289.962)"/>
      <path id="Trazado_944765" data-name="Trazado 944765" d="M360.37,368.492a.725.725,0,0,0,.725-.725v-.243l.049-.049a.725.725,0,0,0-1.026-1.026l-.262.262a.725.725,0,0,0-.212.513v.543A.725.725,0,0,0,360.37,368.492Z" transform="translate(-325.807 -330.813)"/>
    </g>
  </g>
</svg>
