<svg xmlns="http://www.w3.org/2000/svg" width="56.1" height="39.395" viewBox="0 0 56.1 39.395">
  <g id="hyperopia_5332722" transform="translate(0 -76.227)">
    <g id="Grupo_1142438" data-name="Grupo 1142438" transform="translate(0.822 77.049)">
      <g id="Grupo_1142436" data-name="Grupo 1142436" transform="translate(0 0)">
        <path id="Trazado_944766" data-name="Trazado 944766" d="M254.678,258.134a9.861,9.861,0,1,0,9.861-9.861A9.861,9.861,0,0,0,254.678,258.134Zm7.807-2.054v-3.287h4.109v3.287h3.287v4.109h-3.287v3.287h-4.109v-3.287H259.2V256.08Z" transform="translate(-227.595 -230.244)" fill="#fff" fill-rule="evenodd"/>
        <path id="Trazado_944767" data-name="Trazado 944767" d="M295.929,292.811v4.109h3.287v3.287h4.109V296.92h3.287v-4.109h-3.287v-3.287h-4.109v3.287Z" transform="translate(-264.326 -266.975)" fill="#f05575" fill-rule="evenodd"/>
        <path id="Trazado_944768" data-name="Trazado 944768" d="M135.792,83.727a14.792,14.792,0,0,0-1.246,29.532q.62.038,1.246.052a9.923,9.923,0,0,1-.145-1.693,9.816,9.816,0,0,1,1.341-4.967,8.223,8.223,0,0,1-8.821-11.2,3.288,3.288,0,0,0,4.556-4.556,8.223,8.223,0,0,1,10.507,11.127,9.9,9.9,0,0,1,6.722.79,14.8,14.8,0,0,0-14.159-19.084Z" transform="translate(-108.564 -83.727)" fill="#6e91ef" fill-rule="evenodd"/>
        <path id="Trazado_944769" data-name="Trazado 944769" d="M186.693,146.134a3.288,3.288,0,0,1-5.1,2.742,8.223,8.223,0,0,0,8.821,11.2,9.878,9.878,0,0,1,6.241-4.629,8.223,8.223,0,0,0-10.507-11.127A3.272,3.272,0,0,1,186.693,146.134Z" transform="translate(-161.99 -137.154)" fill="#9a999d" fill-rule="evenodd"/>
        <path id="Trazado_944770" data-name="Trazado 944770" d="M49.52,98.519a14.791,14.791,0,0,1-.633,4.293,9.9,9.9,0,0,1,4.487,4.617,28.158,28.158,0,0,0,8.582-8.091V97.7C58.13,91.6,47.184,83.727,34.728,83.727S11.326,91.6,7.5,97.7v1.637c3.7,5.9,14.05,13.194,25.983,13.922A14.792,14.792,0,1,1,49.52,98.519Z" transform="translate(-7.5 -83.727)" fill="#fff" fill-rule="evenodd"/>
        <path id="Trazado_944771" data-name="Trazado 944771" d="M123.465,98.521a14.793,14.793,0,0,1,13.559-14.74,14.792,14.792,0,1,0-1.233,29.532C135.762,113.313,123.465,110.813,123.465,98.521Z" transform="translate(-108.564 -83.729)" fill="#3d6dea" fill-rule="evenodd"/>
        <path id="Trazado_944772" data-name="Trazado 944772" d="M190.45,201.907a8.225,8.225,0,0,1-6.579-10.683,3.287,3.287,0,0,1-2.279-.512,8.223,8.223,0,0,0,8.858,11.2Z" transform="translate(-161.99 -178.99)" fill="#78777c" fill-rule="evenodd"/>
        <path id="Trazado_944773" data-name="Trazado 944773" d="M254.678,258.129a9.864,9.864,0,0,0,11.093,9.785,9.862,9.862,0,0,1,0-19.57A9.865,9.865,0,0,0,254.678,258.129Z" transform="translate(-227.595 -230.238)" fill="#b6e6fa" fill-rule="evenodd"/>
        <path id="Trazado_944774" data-name="Trazado 944774" d="M23.091,103.806c-7.268,2.778-13.028,7.66-15.591,11.748v1.636c2.563,4.088,8.323,8.97,15.591,11.748A37.386,37.386,0,0,1,9.965,117.19v-1.636A37.387,37.387,0,0,1,23.091,103.806Z" transform="translate(-7.5 -101.606)" fill="#b6e6fa" fill-rule="evenodd"/>
      </g>
      <g id="Grupo_1142437" data-name="Grupo 1142437" transform="translate(28.872 9.861)">
        <path id="Trazado_944775" data-name="Trazado 944775" d="M274.287,178.659h-1.644v-1.644h1.644Zm-1.644-3.287H271v-1.644h1.644Z" transform="translate(-271 -173.728)" fill="#fff"/>
      </g>
    </g>
    <g id="Grupo_1142439" data-name="Grupo 1142439" transform="translate(0 76.227)">
      <path id="Trazado_944776" data-name="Trazado 944776" d="M297.468,282.024h-5.752v3.287h-3.287v5.752h3.287v3.287h5.752v-3.287h3.287v-5.752h-3.287Zm1.644,4.931v2.465h-3.287v3.287h-2.465V289.42h-3.287v-2.465h3.287v-3.287h2.465v3.287Z" transform="translate(-256.825 -259.475)"/>
      <path id="Trazado_944777" data-name="Trazado 944777" d="M0,0H1.644V1.644H0Z" transform="translate(8.845 25.216) rotate(-57.375)"/>
      <path id="Trazado_944778" data-name="Trazado 944778" d="M55.974,90.586c-2.112-3.367-6.1-6.938-10.666-9.551a35.215,35.215,0,0,0-17.225-4.807h-.066a35.215,35.215,0,0,0-17.225,4.807C6.224,83.648,2.237,87.219.126,90.586l-.126.2V92.9l.126.2a28.173,28.173,0,0,0,7.355,7.424l.959-1.335a26.89,26.89,0,0,1-6.8-6.765V91.262c2.682-4.127,9.026-9.4,17.061-11.922a15.6,15.6,0,0,0-.016,24.988,35.86,35.86,0,0,1-6.213-2.627l-.778,1.448a35.013,35.013,0,0,0,15.684,4.3,10.683,10.683,0,1,0,20.365-6.319A29.2,29.2,0,0,0,55.974,93.1l.126-.2V90.786ZM14.08,91.841a13.986,13.986,0,0,1,13.952-13.97h.037A13.977,13.977,0,0,1,41.662,94.992a10.627,10.627,0,0,0-3.9-.735c-.343,0-.682.017-1.016.049a9.065,9.065,0,0,0-1.7-8.187l-1.272,1.041a7.406,7.406,0,0,1,1.117,7.49A10.726,10.726,0,0,0,28.758,99.2a7.4,7.4,0,0,1-7.852-9.285,4.111,4.111,0,0,0,5.22-5.22,7.393,7.393,0,0,1,1.924-.252,7.319,7.319,0,0,1,4.594,1.6l1.022-1.287a9.053,9.053,0,0,0-8.992-1.3l-.934.376.556.84a2.466,2.466,0,0,1-3.417,3.417l-.84-.557-.376.935a9.038,9.038,0,0,0,8.225,12.412,10.624,10.624,0,0,0-.8,4.063q0,.424.033.84A13.988,13.988,0,0,1,14.08,91.841Zm23.687,22.138a9.04,9.04,0,1,1,9.04-9.04A9.05,9.05,0,0,1,37.766,113.979Zm16.69-21.56a27.682,27.682,0,0,1-7.425,7.206,10.764,10.764,0,0,0-3.858-3.9A15.614,15.614,0,0,0,37.4,79.34c8.035,2.521,14.379,7.8,17.061,11.922Z" transform="translate(0 -76.227)"/>
    </g>
  </g>
</svg>
