<svg xmlns="http://www.w3.org/2000/svg" width="48.703" height="50.315" viewBox="0 0 48.703 50.315">
  <g id="mental-health_15192734" transform="translate(-8.686 -0.5)">
    <g id="Grupo_1142446" data-name="Grupo 1142446" transform="translate(9.209 1.018)">
      <g id="Grupo_1142440" data-name="Grupo 1142440" transform="translate(0 0.294)">
        <path id="Trazado_944779" data-name="Trazado 944779" d="M29.125,50.933a13.119,13.119,0,0,1,2.973,6.8h21.89c-3.007-6.494-4.631-12.931-2.1-19.043,6.993-16.839-.825-28.513-13.262-29.823-7.212-.757-18.025,2.042-21,9.481A12.207,12.207,0,0,0,18.67,29.211c-3.363,5.144-7.832,8.079-1.4,11.22-1.882,1.938-1.79,2.878.081,4.157-.954,1.669-.976,2.755,1.461,3.175-3.405,9.245,8.051,4.684,10.314,3.17Z" transform="translate(-13.999 -8.744)" fill="#f7c5b8" fill-rule="evenodd"/>
      </g>
      <g id="Grupo_1142441" data-name="Grupo 1142441" transform="translate(6.25 3.67)">
        <path id="Trazado_944780" data-name="Trazado 944780" d="M108.744,56.926a4.9,4.9,0,0,1-1.618,3.649,5.376,5.376,0,0,1-3.336,4.561,10.511,10.511,0,0,1,2.339,6.9h-2.8c-1.788-5.1-6.078-2.911-7.275-6.689a6.619,6.619,0,0,1-.264-1.361h0c-.087.006-.173.008-.26.008a5.069,5.069,0,0,1-1.657-.277,5.072,5.072,0,0,1-7.914-1.748,0,0,0,0,0,0,0,5.814,5.814,0,0,1-1.318.417,6.021,6.021,0,0,1-5.67-9.881l-.006-.012h0A2.65,2.65,0,0,1,80.676,48.8h.006A3.919,3.919,0,0,1,84.6,45.019a3.994,3.994,0,0,1,1.131.165,5.1,5.1,0,0,1,7.672-.757,2.64,2.64,0,0,1,4.841.43,5.717,5.717,0,0,1,1.105-.107,5.784,5.784,0,0,1,5.784,5.761,2.877,2.877,0,0,1,.382-.028,2.642,2.642,0,0,1,2.639,2.639,2.674,2.674,0,0,1-.23,1.083,4.921,4.921,0,0,1,.818,2.721Z" transform="translate(-77.476 -43.03)" fill="#df646e" fill-rule="evenodd"/>
      </g>
      <g id="Grupo_1142442" data-name="Grupo 1142442" transform="translate(23.993 3.67)">
        <path id="Trazado_944781" data-name="Trazado 944781" d="M269.521,61.027l-9.2-9.2a9.1,9.1,0,0,1-2.345-8.785c.067-.006.137-.008.2-.008a2.64,2.64,0,0,1,2.513,1.826,5.725,5.725,0,0,1,1.105-.107,5.784,5.784,0,0,1,5.784,5.762,2.873,2.873,0,0,1,.381-.028,2.642,2.642,0,0,1,2.64,2.64,2.675,2.675,0,0,1-.23,1.083,4.926,4.926,0,0,1-.8,6.37c-.011.151-.028.3-.053.449Z" transform="translate(-257.667 -43.033)" fill="#d82f3c" fill-rule="evenodd"/>
      </g>
      <g id="Grupo_1142443" data-name="Grupo 1142443" transform="translate(27.037 0)">
        <path id="Trazado_944782" data-name="Trazado 944782" d="M290.35,7.52a6.061,6.061,0,0,1,8.547,0,6.044,6.044,0,1,1,8.547,8.547L298.9,24.614l-8.547-8.547a6.061,6.061,0,0,1,0-8.547Z" transform="translate(-288.587 -5.757)" fill="#55d1f5" fill-rule="evenodd"/>
      </g>
      <g id="Grupo_1142444" data-name="Grupo 1142444" transform="translate(14.343 9.289)">
        <path id="Trazado_944783" data-name="Trazado 944783" d="M169.085,109.761h-.005a.693.693,0,0,1-.641-.443l-2.588-6.709-1.337,3.067a.693.693,0,0,1-.635.416h-3.52a.693.693,0,0,1,0-1.386h3.066l1.83-4.2a.693.693,0,0,1,1.282.028l2.563,6.645.824-2.041a.693.693,0,0,1,.642-.434h3.489a.693.693,0,0,1,0,1.386h-3.022l-1.306,3.235A.693.693,0,0,1,169.085,109.761Z" transform="translate(-159.666 -100.092)" fill="#fff"/>
      </g>
      <g id="Grupo_1142445" data-name="Grupo 1142445" transform="translate(36.11 0.013)">
        <path id="Trazado_944784" data-name="Trazado 944784" d="M386.633,5.885a6.036,6.036,0,0,1,3.882,10.3l-8.547,8.547-1.237-1.237,7.658-7.655a6.061,6.061,0,0,0,0-8.547,10.848,10.848,0,0,0-1.756-1.405Z" transform="translate(-380.731 -5.885)" fill="#3fc3e8" fill-rule="evenodd"/>
      </g>
    </g>
    <path id="Trazado_944785" data-name="Trazado 944785" d="M360.707,55.143h-2.415V52.728a.688.688,0,1,0-1.376,0v2.415H354.5a.688.688,0,1,0,0,1.376h2.415v2.415a.688.688,0,0,0,1.376,0V56.519h2.415a.688.688,0,1,0,0-1.376Z" transform="translate(-311.144 -46.465)"/>
    <path id="Trazado_944786" data-name="Trazado 944786" d="M55.433,2.456a6.7,6.7,0,0,0-8.974-.441,6.716,6.716,0,0,0-8.253-.183,20.741,20.741,0,0,0-4.3-.913,27.847,27.847,0,0,0-12.324,1.7c-3.228,1.245-7.451,3.669-9.243,8.143a12.7,12.7,0,0,0,.868,11.021c-.59.872-1.2,1.674-1.8,2.453-1.656,2.17-3.086,4.043-2.641,5.923.265,1.119,1.144,2.082,2.746,2.99a3.206,3.206,0,0,0-.931,2.266,2.836,2.836,0,0,0,1.231,1.871,2.62,2.62,0,0,0-.229,2.239,2.507,2.507,0,0,0,1.67,1.212c-.731,2.377-.492,4.061.715,5.011a4.326,4.326,0,0,0,2.715.772,18.342,18.342,0,0,0,7.566-2.252,13.038,13.038,0,0,1,2.418,6,.688.688,0,0,0,.675.554h21.74a.688.688,0,0,0,.624-.977c-3.534-7.632-4.173-13.294-2.07-18.357A30.037,30.037,0,0,0,50.2,17.151l5.234-5.234a6.7,6.7,0,0,0,0-9.46Zm-9.066,28.5A17.844,17.844,0,0,0,45.3,40.63a34.365,34.365,0,0,0,2.72,8.81H27.905A12.988,12.988,0,0,0,24.9,42.913a.688.688,0,0,0-.889-.106A18.322,18.322,0,0,1,19.477,44.7c-2.208.6-3.861.588-4.655-.037-1.006-.792-.568-2.718-.024-4.195a.688.688,0,0,0-.529-.916c-1.128-.195-1.382-.5-1.439-.617-.082-.174-.068-.579.468-1.516a.688.688,0,0,0-.209-.909c-.731-.5-1.1-.9-1.136-1.236-.04-.4.34-1,1.161-1.845a.688.688,0,0,0-.192-1.1c-1.693-.827-2.614-1.643-2.815-2.493-.295-1.246.893-2.8,2.4-4.772.655-.859,1.4-1.832,2.085-2.883a.688.688,0,0,0,.018-.724,11.428,11.428,0,0,1-.991-10.19C15.223,7.257,19.1,5.047,22.076,3.9A26.4,26.4,0,0,1,33.761,2.287a19.634,19.634,0,0,1,3.3.632A6.607,6.607,0,0,0,35.9,4.979a3.315,3.315,0,0,0-4.639.246,5.756,5.756,0,0,0-7.759.978,4.583,4.583,0,0,0-5.387,3.856,3.321,3.321,0,0,0-1.845,4.061A6.67,6.67,0,0,0,23.68,24.506a5.721,5.721,0,0,0,8.325,1.636,5.63,5.63,0,0,0,1.159.191c.484,2.788,2.189,3.44,3.705,4.02A5.2,5.2,0,0,1,40.6,33.868a.688.688,0,0,0,.649.46h2.78a.688.688,0,0,0,.688-.694,11.277,11.277,0,0,0-1.959-6.6,5.975,5.975,0,0,0,2.919-4.453,5.557,5.557,0,0,0,1.39-2.3l1.837-1.837a29.646,29.646,0,0,1-2.541,12.512ZM38.388,23.1a5.577,5.577,0,0,0,5.542.671,4.683,4.683,0,0,1-2.481,2.384.688.688,0,0,0-.27,1.077,9.507,9.507,0,0,1,2.143,5.724H41.727a6.549,6.549,0,0,0-4.366-3.885c-1.374-.526-2.41-.923-2.8-2.731a7.862,7.862,0,0,0,1.654-.212.688.688,0,1,0-.329-1.336,7.592,7.592,0,0,1-2.1.17c-.023,0-.046,0-.069,0-.071,0-.143.007-.215.007a4.266,4.266,0,0,1-1.418-.24.688.688,0,0,0-.677.128,4.34,4.34,0,0,1-7.172-3.3s0,0,0,0a4.274,4.274,0,0,1,.5-2.025.688.688,0,0,0-1.215-.646,5.676,5.676,0,0,0-.587,1.759,2.085,2.085,0,0,1-1.182-1.866.688.688,0,0,0-1.369.137,3.453,3.453,0,0,0,2.5,3.181,5.681,5.681,0,0,0,.227,1.146,5.291,5.291,0,0,1-6.105-7.761,4.128,4.128,0,0,0,1.269,1.067.688.688,0,1,0,.659-1.208,2.819,2.819,0,0,1-1.25-1.377l-.006-.011,0-.007a1.94,1.94,0,0,1,1.255-2.714h0a.69.69,0,0,0,.074-.024,2.111,2.111,0,0,1,1.857.18.688.688,0,1,0,.846-1.085,3.272,3.272,0,0,0-2.107-.6,3.193,3.193,0,0,1,3.046-2.2,3.253,3.253,0,0,1,.927.136.688.688,0,0,0,.757-.262,4.378,4.378,0,0,1,6.583-.65A.688.688,0,0,0,32,6.547a1.934,1.934,0,0,1,3.539.3q-.009.171-.009.343a6.642,6.642,0,0,0,1.952,4.73l8.189,8.189A4.192,4.192,0,0,1,44.56,21.75h0A4.2,4.2,0,0,1,39.217,22a.688.688,0,0,0-.829,1.1Zm8.071-4.152-8-8a5.313,5.313,0,0,1,7.514-7.514.688.688,0,0,0,.973,0,5.313,5.313,0,1,1,7.514,7.514Z" transform="translate(0 0)"/>
  </g>
</svg>
