<svg xmlns="http://www.w3.org/2000/svg" width="41.469" height="50.666" viewBox="0 0 41.469 50.666">
  <g id="have-safe-sex_8825281" transform="translate(-46.47)">
    <g id="Grupo_1142447" data-name="Grupo 1142447" transform="translate(47.212 0.742)">
      <path id="Trazado_944787" data-name="Trazado 944787" d="M72.086,7.985l-6.648,3.693a4,4,0,0,1-3.091.335l-3.233-.97a4,4,0,0,0-5.147,3.83V29.567a29.315,29.315,0,0,0,16.205,26.22,8.469,8.469,0,0,0,7.575,0,29.315,29.315,0,0,0,16.205-26.22V14.873a4,4,0,0,0-5.147-3.83l-3.233.97a4,4,0,0,1-3.091-.335L75.833,7.985a3.858,3.858,0,0,0-3.747,0Z" transform="translate(-53.967 -7.5)" fill="#528fd8"/>
      <path id="Trazado_944788" data-name="Trazado 944788" d="M135.332,41.749l-1.85.555V53.075A29.315,29.315,0,0,1,117.277,79.3a8.469,8.469,0,0,1-7.575,0,29.326,29.326,0,0,1-4.1-2.487,29.285,29.285,0,0,0,11.1,9.685,8.469,8.469,0,0,0,7.575,0,29.315,29.315,0,0,0,16.205-26.22V45.579A4,4,0,0,0,135.332,41.749Z" transform="translate(-100.494 -38.205)" fill="#0573ce"/>
      <path id="Trazado_944789" data-name="Trazado 944789" d="M103.086,82.608a5.3,5.3,0,0,1-2.357-.556A26.116,26.116,0,0,1,86.292,58.693v-14.1A1.238,1.238,0,0,1,87.886,43.4l2.668.8a7.2,7.2,0,0,0,5.563-.6l6.648-3.693a.659.659,0,0,1,.64,0l6.648,3.693a7.2,7.2,0,0,0,5.563.6l2.668-.8a1.238,1.238,0,0,1,1.594,1.186v14.1a26.116,26.116,0,0,1-14.437,23.359A5.3,5.3,0,0,1,103.086,82.608Z" transform="translate(-83.093 -36.625)" fill="#dff6fd"/>
      <path id="Trazado_944790" data-name="Trazado 944790" d="M199.718,104.52a26.1,26.1,0,0,0,3.9-13.73v-14.1a1.238,1.238,0,0,0-1.594-1.186l-2.2.661v7.432a29.315,29.315,0,0,1-16.205,26.22,8.469,8.469,0,0,1-3.788.894c-.2,0-.4-.008-.6-.022a26.118,26.118,0,0,0,5.24,3.464,5.27,5.27,0,0,0,4.714,0A26.1,26.1,0,0,0,199.718,104.52Z" transform="translate(-166.832 -68.722)" fill="#c8effe"/>
    </g>
    <path id="Trazado_944791" data-name="Trazado 944791" d="M209.16,329.925a3.318,3.318,0,0,0-4.692-4.692,3.318,3.318,0,1,0-4.667,4.717l3.813,3.813a1.206,1.206,0,0,0,1.706,0l3.838-3.838Z" transform="translate(-137.269 -292.173)" fill="#fe646f"/>
    <path id="Trazado_944792" data-name="Trazado 944792" d="M237.907,327.579a3.308,3.308,0,0,0-1.063-.714,3.583,3.583,0,0,1-1.011,3.069h0l-4.15,4.15a1.3,1.3,0,0,1-.962.38l1.644,1.644a1.207,1.207,0,0,0,1.706,0l3.838-3.838h0A3.318,3.318,0,0,0,237.907,327.579Z" transform="translate(-166.015 -294.519)" fill="#fd4755"/>
    <g id="Grupo_1142448" data-name="Grupo 1142448" transform="translate(46.47 0)">
      <path id="Trazado_944793" data-name="Trazado 944793" d="M87.2,15.518a.742.742,0,0,0,.742-.742V8.115a4.74,4.74,0,0,0-6.1-4.54l-3.233.97a3.277,3.277,0,0,1-2.518-.272L69.438.579A4.595,4.595,0,0,0,66.051.147a4.562,4.562,0,0,0-1.081.432L58.323,4.272a3.278,3.278,0,0,1-2.518.272l-3.233-.97a4.74,4.74,0,0,0-6.1,4.541V22.81A30.054,30.054,0,0,0,63.085,49.693a9.205,9.205,0,0,0,8.239,0A30.054,30.054,0,0,0,87.939,22.81V18.24a.742.742,0,0,0-1.484,0v4.57a28.57,28.57,0,0,1-15.8,25.556,7.659,7.659,0,0,1-1.68.609,7.757,7.757,0,0,1-3.55,0,7.658,7.658,0,0,1-1.68-.609A28.57,28.57,0,0,1,47.954,22.81V8.115A3.256,3.256,0,0,1,52.146,5l3.233.97a4.771,4.771,0,0,0,3.665-.4l6.649-3.694A3.115,3.115,0,0,1,67.2,1.484a3.12,3.12,0,0,1,1.513.392L75.365,5.57a4.77,4.77,0,0,0,3.665.4L82.263,5a3.256,3.256,0,0,1,4.191,3.119v6.661a.742.742,0,0,0,.742.742Z" transform="translate(-46.47 0)"/>
      <path id="Trazado_944794" data-name="Trazado 944794" d="M79.532,46.653a.742.742,0,0,0-.742.742v4.57A26.859,26.859,0,0,0,93.637,75.988a6.016,6.016,0,0,0,5.378,0,26.859,26.859,0,0,0,14.847-24.023v-14.1a1.981,1.981,0,0,0-2.55-1.9l-2.669.8a6.454,6.454,0,0,1-4.989-.54L97,32.529a1.426,1.426,0,0,0-1.358,0L89,36.224a6.456,6.456,0,0,1-4.991.54l-2.668-.8a1.981,1.981,0,0,0-2.55,1.9v6.071a.742.742,0,1,0,1.484,0V37.861a.5.5,0,0,1,.639-.476l2.668.8a7.94,7.94,0,0,0,6.138-.664l6.607-3.671,6.608,3.672a7.938,7.938,0,0,0,6.137.663l2.669-.8a.5.5,0,0,1,.639.476v14.1a25.375,25.375,0,0,1-14.027,22.7,4.531,4.531,0,0,1-4.051,0A25.375,25.375,0,0,1,80.274,51.965V47.4a.742.742,0,0,0-.742-.742Z" transform="translate(-75.592 -29.156)"/>
      <path id="Trazado_944795" data-name="Trazado 944795" d="M201.885,322.642l-3.837,3.838a.465.465,0,0,1-.656,0l-.631-.631a.742.742,0,0,0-1.05,1.05l.631.631a1.951,1.951,0,0,0,2.756,0l3.815-3.815.024-.023a4.06,4.06,0,0,0-5.217-6.185,4.063,4.063,0,0,0-5.228.453,4.086,4.086,0,0,0,.037,5.757l.733.733a.742.742,0,0,0,1.05-1.05l-.733-.733a2.6,2.6,0,0,1-.033-3.661,2.576,2.576,0,0,1,3.649-.006.742.742,0,0,0,1.049,0,2.576,2.576,0,0,1,3.662,3.623Z" transform="translate(-176.989 -285.413)"/>
      <path id="Trazado_944796" data-name="Trazado 944796" d="M131.461,123.085a.742.742,0,0,0,1.05,0l.889-.889.606.606a.742.742,0,1,0,1.05-1.05l-.606-.606,2.09-2.09a6.67,6.67,0,0,0,3.221,1.407,6.74,6.74,0,1,0,11.929-5.2l2.532-2.532-.049.442a.742.742,0,0,0,.656.82.757.757,0,0,0,.083,0,.742.742,0,0,0,.737-.66l.283-2.545a.742.742,0,0,0-.82-.82l-2.545.283a.742.742,0,0,0,.164,1.475l.442-.049-2.532,2.532a6.67,6.67,0,0,0-3.221-1.407,6.74,6.74,0,1,0-11.929,5.2l-2.09,2.09-.606-.606a.742.742,0,0,0-1.05,1.05l.606.606-.889.889A.742.742,0,0,0,131.461,123.085Zm20.222-3.613a5.257,5.257,0,0,1-10.409,1.041,6.733,6.733,0,0,0,6.194-6.194,5.26,5.26,0,0,1,4.215,5.153Zm-10.492-.441a5.251,5.251,0,0,1,4.8-4.8,5.251,5.251,0,0,1-4.8,4.8Zm-4.157-8.952a5.258,5.258,0,0,1,8.869,2.675,6.733,6.733,0,0,0-6.194,6.194,5.257,5.257,0,0,1-2.675-8.869Z" transform="translate(-122.855 -96.461)"/>
    </g>
  </g>
</svg>
