<svg id="schizophrenia_3997819" xmlns="http://www.w3.org/2000/svg" width="51.669" height="51.669" viewBox="0 0 51.669 51.669">
  <g id="Grupo_1142450" data-name="Grupo 1142450" transform="translate(0.757 0.757)">
    <g id="Grupo_1142449" data-name="Grupo 1142449" transform="translate(19.029 13.961)">
      <path id="Trazado_944797" data-name="Trazado 944797" d="M294.487,413.558l-3.954-2.331h-8.676l-1.5.459-1.232,5.025,3.417,3.937,7.354-.017Z" transform="translate(-270.739 -384.446)" fill="#faf8f8"/>
      <path id="Trazado_944798" data-name="Trazado 944798" d="M307.344,369.379l-1.2,2.192-.228,2.01a2.872,2.872,0,0,0,.606,2.134,5.3,5.3,0,0,0,7.5-.017,2.8,2.8,0,0,0,.523-1.046c.092-.353-.375-.848-.418-1.216v-4.221Z" transform="translate(-294.811 -346.674)" fill="#f2d1a5"/>
      <path id="Trazado_944799" data-name="Trazado 944799" d="M308.338,371.572l.248-2.189,7.734-.166.48,4.24.34.684-.4.512-.686-.2c-.418-.092-.377-.671-.425-.992l-.078-.685a.437.437,0,0,0-.6-.354,6.653,6.653,0,0,1-2.489.512A7.518,7.518,0,0,1,308.338,371.572Z" transform="translate(-297.008 -346.675)" fill="#f2bb88"/>
      <path id="Trazado_944800" data-name="Trazado 944800" d="M384.724,420.129a20.77,20.77,0,0,0,1.842-6.717.655.655,0,0,0-.463-.706l-.924-.276a2.941,2.941,0,0,0,.074-1.092l-.012-.1,1.5.447,4.477,1.335c1.849.551,1.033,6.155,1.033,6.155l-6.557,1.463-1.233,0Z" transform="translate(-365.447 -384.452)" fill="#f0e9e6"/>
      <path id="Trazado_944801" data-name="Trazado 944801" d="M406.348,424.127a.728.728,0,0,0,.715-.857l-.843-2.638a5.259,5.259,0,0,0-4.007-4.425l-2.2-.562c-.536-.16-.667-.407-.706.15-.01.142-.548.259-.562.423a23.185,23.185,0,0,1-2.074,8.207l9.254-.021Z" transform="translate(-376.431 -388.243)" fill="#f5de46"/>
      <path id="Trazado_944802" data-name="Trazado 944802" d="M417.224,411.73l2.382.71a6.156,6.156,0,0,1,4.326,4.857l.473,2.619.722,0a.728.728,0,0,0,.715-.857l-.529-2.928a6.156,6.156,0,0,0-4.326-4.857l-2.606-.777a.873.873,0,0,0-1.121.775C417.25,411.413,417.238,411.566,417.224,411.73Z" transform="translate(-394.906 -383.755)" fill="#f3d332"/>
      <path id="Trazado_944803" data-name="Trazado 944803" d="M211.957,421.156l.833,2.825,8.269.759,1.233,0-.267-.507A23.086,23.086,0,0,1,220,416a1.793,1.793,0,0,0-.031-.226l-4.477,1.368A5.1,5.1,0,0,0,211.957,421.156Z" transform="translate(-210.353 -388.536)" fill="#f0e9e6"/>
      <path id="Trazado_944804" data-name="Trazado 944804" d="M196.8,420.3a.728.728,0,0,1-.719-.854l.515-2.93a6.156,6.156,0,0,1,4.3-4.877l2.6-.789a.873.873,0,0,1,1.125.77,23.82,23.82,0,0,0,2.15,8.657Z" transform="translate(-196.066 -384.074)" fill="#f5de46"/>
      <path id="Trazado_944805" data-name="Trazado 944805" d="M257.069,276.22h.487a2.115,2.115,0,0,1,2.117,2.114,2.918,2.918,0,0,1-2.906,2.929l-16.82.039a2.918,2.918,0,0,1-2.919-2.916,2.115,2.115,0,0,1,2.107-2.124h.488Z" transform="translate(-232.894 -263.063)" fill="#f2bb88"/>
      <path id="Trazado_944806" data-name="Trazado 944806" d="M272.161,200.822c.009,3.707-.06,4.925-1.563,7.024-2.073,2.895-4.66,4.864-7.133,4.87s-5.068-1.951-7.155-4.837c-1.264-1.747-1.524-2.885-1.58-5.373-.011-.49.331-1.249.329-1.859l-1.245-8.289,19.156,2.521Z" transform="translate(-247.985 -187.664)" fill="#f2d1a5"/>
      <path id="Trazado_944807" data-name="Trazado 944807" d="M273.481,195.477l-.8,5.89a4.914,4.914,0,0,0-1.847-2.273c-2.749-1.787-5.629.658-10.057-3.257h0l-.2-.176a.364.364,0,0,0-.591.148c-.077.222-.158.437-.245.646a5.068,5.068,0,0,1-2.056,2.583c-1.2.713-2.212,3.4-2.445,4.067-.011-.491-.014-1.034-.015-1.644l-.843-7.96.448-.477Z" transform="translate(-248.497 -188.262)" fill="#f2bb88"/>
      <path id="Trazado_944808" data-name="Trazado 944808" d="M244.015,151.075c-.13.414-.15,1.353-.306,1.728a5.068,5.068,0,0,1-2.056,2.583c-1.374.815-2.167,3.66-2.167,3.66-1.8,0-2.605-2.681-2.61-4.524-.01-4.3,2.606-6.509,5.327-6.494a3.677,3.677,0,0,1,1.02.145c.189.055.412.293.6.387.16-.17.294-.5.466-.648a8.577,8.577,0,0,1,5.807-2.063,10.55,10.55,0,0,1,2.6.5c6.626,1.677,7.832,11,4.194,12.319a5.983,5.983,0,0,0-.158-.686,4.9,4.9,0,0,0-1.941-2.534c-2.749-1.787-5.629.658-10.057-3.257C244.543,152.01,244.221,151.278,244.015,151.075Z" transform="translate(-232.758 -145.848)" fill="#7a6d79"/>
      <path id="Trazado_944809" data-name="Trazado 944809" d="M367.824,159.006s-.006-.087-.017-.2a3.878,3.878,0,0,0-.177-.83c1.952-2.915.339-10.333-5.345-11.771a11.581,11.581,0,0,0-2.072-.332,11.1,11.1,0,0,1,3.528.328C370.368,147.881,371.462,157.684,367.824,159.006Z" transform="translate(-343.649 -145.848)" fill="#685e68"/>
    </g>
    <path id="Trazado_944810" data-name="Trazado 944810" d="M39.079,7.5H16.64a9.14,9.14,0,0,0-5.555,16.4,9.5,9.5,0,0,0,5.773,1.5l21.909-.026c5.048,0,9.159-3.686,9.159-8.734a8.881,8.881,0,0,0-3.472-7.393A9.1,9.1,0,0,0,39.079,7.5Z" transform="translate(-7.5 -7.5)" fill="#faf8f8"/>
    <path id="Trazado_944811" data-name="Trazado 944811" d="M75.94,25.74a9.206,9.206,0,0,0-1.088-.93A9.1,9.1,0,0,1,76.6,30.176a9.258,9.258,0,0,1-9.248,9.148h-14.4a.41.41,0,0,1-.241-.08,4.43,4.43,0,0,0-5.2,0,.411.411,0,0,1-.241.08H41.31a9.1,9.1,0,0,0,4.644,1.953h0a8,8,0,0,0,1.084.065H69.361a9.215,9.215,0,0,0,9.256-9.037A9.111,9.111,0,0,0,75.94,25.74Z" transform="translate(-37.898 -23.063)" fill="#f0e9e6"/>
    <path id="Trazado_944812" data-name="Trazado 944812" d="M109.128,182.024a2.315,2.315,0,1,0-4.491.7,2.3,2.3,0,0,0,2.354,1.343A1.9,1.9,0,0,0,109.128,182.024Z" transform="translate(-94.711 -162.143)" fill="#faf8f8"/>
    <path id="Trazado_944813" data-name="Trazado 944813" d="M110.576,183.738a2.422,2.422,0,0,1-4.706.805,2.421,2.421,0,0,0,3.256-3.023A2.422,2.422,0,0,1,110.576,183.738Z" transform="translate(-95.943 -163.959)" fill="#f0e9e6"/>
    <path id="Trazado_944814" data-name="Trazado 944814" d="M177.383,220.065a1.461,1.461,0,0,0-.973-1.514,1.515,1.515,0,0,0-1.909,1.461q0,.076.007.149a1.546,1.546,0,0,0,1.626,1.256c.836,0,1.25-.517,1.25-1.353Z" transform="translate(-157.647 -197.206)" fill="#faf8f8"/>
    <path id="Trazado_944815" data-name="Trazado 944815" d="M177.6,220.481a1.513,1.513,0,0,1-3.019.149,1.514,1.514,0,0,0,1.909-1.461,1.212,1.212,0,0,0-.008-.149A1.515,1.515,0,0,1,177.6,220.481Z" transform="translate(-157.719 -197.674)" fill="#f0e9e6"/>
  </g>
  <g id="Grupo_1142451" data-name="Grupo 1142451" transform="translate(0 0)">
    <path id="Trazado_944816" data-name="Trazado 944816" d="M85.489,50.779l-.677-3.8A6.938,6.938,0,0,0,79.948,41.5l-2.617-.786a1.636,1.636,0,0,0-1.785.592L74.1,40.864l-.268-2.3a16.352,16.352,0,0,0,3.009-3.225,9.921,9.921,0,0,0,1.009-1.684,3.688,3.688,0,0,0,3.334-3.666A2.881,2.881,0,0,0,79.6,27.42c1.19-1.532,1.445-4.086.563-6.86a.757.757,0,0,0-1.443.459c.724,2.278.56,4.382-.339,5.5A5.512,5.512,0,0,0,76.1,23.665a7,7,0,0,0-3.871-.923A8.426,8.426,0,0,1,65.7,20.092l-.031-.3h.5a9.886,9.886,0,0,0,7.851-3.879,6.78,6.78,0,0,1,3.188,2.248.757.757,0,0,0,1.179-.949,8.424,8.424,0,0,0-3.519-2.6A9.894,9.894,0,0,0,66.168,0H62.28a.757.757,0,1,0,0,1.514h3.889a8.383,8.383,0,0,1,0,16.766H49.036a3.173,3.173,0,0,0-4.473,0h-.834a8.322,8.322,0,0,1-4.9-1.58.757.757,0,1,0-.886,1.228,9.826,9.826,0,0,0,5.766,1.866,3.179,3.179,0,1,0,6.181,0H57.6a8.928,8.928,0,0,0-.681,3.542,7.2,7.2,0,0,0,1.3,4.251,2.877,2.877,0,0,0-1.3,2.405,3.688,3.688,0,0,0,3.34,3.666,9.662,9.662,0,0,0,1,1.684,16.352,16.352,0,0,0,3.01,3.226L64,40.885l-1.43.43a1.637,1.637,0,0,0-1.8-.606l-2.617.787a7.322,7.322,0,0,0-3.217,2.051,6.968,6.968,0,0,0-1.646,3.43l-.678,3.8a.757.757,0,1,0,1.49.266l.678-3.805a5.458,5.458,0,0,1,1.284-2.684,5.8,5.8,0,0,1,2.524-1.61l2.617-.786a.119.119,0,0,1,.1.016.114.114,0,0,1,.051.089,35.3,35.3,0,0,0,2.192,8.927.757.757,0,0,0,1.407-.559,35.75,35.75,0,0,1-2.031-7.846l1.016-.305a3.606,3.606,0,0,0,.747,1.713,4.583,4.583,0,0,0,.76.746.757.757,0,1,0,.927-1.2,3.076,3.076,0,0,1-.509-.5,2.137,2.137,0,0,1-.442-1.583l.249-2.131a6.265,6.265,0,0,0,6.744,0l.249,2.132a2.137,2.137,0,0,1-.442,1.582,3.772,3.772,0,0,1-2.99,1.277.757.757,0,0,0,.021,1.513h.022a5.219,5.219,0,0,0,4.126-1.84,3.608,3.608,0,0,0,.75-1.731l1.02.309a29.42,29.42,0,0,1-.531,3.494L73.972,48.7a13.9,13.9,0,0,1-.8,1.863.757.757,0,1,0,1.34.7,15.416,15.416,0,0,0,.894-2.092c.005-.015.01-.03.014-.046l.688-2.476c0-.014.007-.027.01-.041a31.358,31.358,0,0,0,.617-4.344.114.114,0,0,1,.051-.089.118.118,0,0,1,.1-.016l2.617.786a5.433,5.433,0,0,1,3.809,4.3l.678,3.8a.757.757,0,1,0,1.49-.265Zm-7.11-18.8a19.285,19.285,0,0,0,.216-3.317,1.367,1.367,0,0,1,1.079,1.334A2.171,2.171,0,0,1,78.379,31.975ZM46.8,22.2a1.665,1.665,0,1,1,1.665-1.665A1.667,1.667,0,0,1,46.8,22.2Zm17.345-2.408.058.568a5.268,5.268,0,0,1-2.116,3.2,5.017,5.017,0,0,0-2.457,3.307c-.779-.623-1.2-2.3-1.2-3.531a6.959,6.959,0,0,1,.86-3.542h4.855Zm-5.715,10.2a1.367,1.367,0,0,1,1.1-1.338,19.769,19.769,0,0,0,.211,3.329,2.171,2.171,0,0,1-1.311-1.991Zm4.056,4.463c-1.387-1.919-1.444-2.949-1.444-6.585a3.462,3.462,0,0,1,1.813-3.006A5.944,5.944,0,0,0,65.3,21.774a9.779,9.779,0,0,0,6.872,2.482,5.574,5.574,0,0,1,3.095.678,3.733,3.733,0,0,1,1.814,2.937c0,3.751-.126,4.731-1.465,6.585C73.531,37.344,71.138,39,69.052,39S64.572,37.344,62.486,34.455Z" transform="translate(-33.832 0)"/>
    <path id="Trazado_944817" data-name="Trazado 944817" d="M1.514,9.9A8.393,8.393,0,0,1,9.9,1.514H24.866a.757.757,0,0,0,0-1.514H9.9A9.9,9.9,0,0,0,1.491,15.123a.757.757,0,1,0,1.285-.8A8.362,8.362,0,0,1,1.514,9.9Z" transform="translate(0 0)"/>
    <path id="Trazado_944821" data-name="Trazado 944821" d="M171.541,213.271a2.271,2.271,0,1,0-2.271,2.271A2.273,2.273,0,0,0,171.541,213.271Zm-3.027,0a.757.757,0,1,1,.757.757A.758.758,0,0,1,168.514,213.271Z" transform="translate(-150.147 -189.707)"/>
    <path id="Trazado_944823" data-name="Trazado 944823" d="M75.982,30.248a5.181,5.181,0,0,0-.439-.665,6.926,6.926,0,0,0-5.57-2.26A4.872,4.872,0,0,0,66.507,28.8a6.234,6.234,0,0,0-5.1.519,5.418,5.418,0,0,0-2.344,2.593,1.976,1.976,0,0,1-.132-1.693.757.757,0,1,0-1.413-.543,3.462,3.462,0,0,0,.056,2.661,2.934,2.934,0,0,0,1.139,1.3,4.664,4.664,0,0,0,.147,1.195A5.012,5.012,0,0,0,61.7,38.145a6.613,6.613,0,0,0,1.44.472,4.324,4.324,0,0,0,4.04,2.363A4.629,4.629,0,0,0,70.9,39.116a2.936,2.936,0,0,0,.547-1.6A10.224,10.224,0,0,0,74.6,39.366a6.485,6.485,0,0,0,3.747.121,6.2,6.2,0,0,0,4.886.183,6.054,6.054,0,0,0,3.563-3.48,5.146,5.146,0,0,0-1.139-5.275A5.723,5.723,0,0,0,82.836,29.3a10.351,10.351,0,0,0-1.458-2.047.757.757,0,1,0-1.123,1.015,9.865,9.865,0,0,1,.66.811,12.216,12.216,0,0,0-3.658.64A8.154,8.154,0,0,0,75.982,30.248Zm-13.815.382a4.747,4.747,0,0,1,3.391-.525,5.91,5.91,0,0,1-5.151,2.517A3.966,3.966,0,0,1,62.166,30.63ZM62.94,35.5a4.213,4.213,0,0,0-.179,1.447,3.625,3.625,0,0,1-2.5-2.817A6.173,6.173,0,0,0,63.5,33.6a8.64,8.64,0,0,0,3.49-2.88,4.707,4.707,0,0,1,.681.551,7.639,7.639,0,0,1,1.45,2.4,4.5,4.5,0,0,0-4.688,0A2.992,2.992,0,0,0,62.94,35.5Zm1.373,1.755a2.861,2.861,0,0,1,.072-1.3,1.494,1.494,0,0,1,.736-.933c1.88-.961,3-.379,4.354.769a6.921,6.921,0,0,1-2.614,1.241A9,9,0,0,1,64.313,37.257Zm5.391.927a3.116,3.116,0,0,1-2.831,1.268,3.4,3.4,0,0,1-1.779-.674,11.147,11.147,0,0,0,2.1-.269A8.132,8.132,0,0,0,69.954,37.3a1.563,1.563,0,0,1-.251.883Zm1.309-3.717L71,34.441a10.858,10.858,0,0,0-2.279-4.253,6.353,6.353,0,0,0-.79-.655,3.781,3.781,0,0,1,2.111-.7,5.42,5.42,0,0,1,4.3,1.675,3.638,3.638,0,0,1,.349.542,23.338,23.338,0,0,0-2.725,2.467C71.649,33.841,71.332,34.16,71.012,34.467Zm4.081,3.468a9.906,9.906,0,0,1-3.307-2.116c.43-.4.845-.82,1.257-1.233a27.37,27.37,0,0,1,2.069-1.945c.029.391.023.8.018,1.22a5.332,5.332,0,0,0,1.332,4.322A4.619,4.619,0,0,1,75.094,37.935Zm8.472-6.745a3.921,3.921,0,0,1,.985.76,3.649,3.649,0,0,1,.835,3.686A4.558,4.558,0,0,1,82.7,38.252a4.867,4.867,0,0,1-2.215.292,7.429,7.429,0,0,0,2.154-2.132A6.49,6.49,0,0,0,83.566,31.19ZM81.8,30.644a5.082,5.082,0,0,1-.429,4.932,5.916,5.916,0,0,1-2.883,2.267c-1.887-1.128-1.871-2.334-1.849-3.963a10.062,10.062,0,0,0-.137-2.2,6.777,6.777,0,0,1,1.21-.525A9.684,9.684,0,0,1,81.8,30.644Z" transform="translate(-51.5 -24.277)"/>
  </g>
</svg>
