<svg xmlns="http://www.w3.org/2000/svg" width="52.054" height="55.296" viewBox="0 0 52.054 55.296">
  <g id="vaccination_4745682" transform="translate(-15.01)">
    <g id="Grupo_1142460" data-name="Grupo 1142460" transform="translate(15.818 0.81)">
      <g id="Grupo_1142456" data-name="Grupo 1142456" transform="translate(0 16.128)">
        <path id="Trazado_944824" data-name="Trazado 944824" d="M61.219,224.3,56.3,203.965c-.163-.732.01-1.366-.476-1.909-.436-.487-1.765-.5-2.389-.752l-6.266-3.213h-.606a2.428,2.428,0,0,1-1.539-2.065l.5-5.609H37.965l.37,5.571a2.174,2.174,0,0,1-1.394,1.986l-.626.117-6.71,2.7a4.32,4.32,0,0,0-2.688,3.613l-.63,6.841.166,4.15L25.39,220.99l6.876.1-.2,3.6a.432.432,0,0,0,.431.456H51.174v-16.89l4.651,16.506,5.133.092c.274,0,.3.069.245-.2Z" transform="translate(-25.077 -186.791)" fill="#bee49d"/>
        <g id="Grupo_1142452" data-name="Grupo 1142452" transform="translate(17.204 3.627)">
          <path id="Trazado_944825" data-name="Trazado 944825" d="M200.713,224.659l.015-.355-4.918-20.337c-.163-.732.01-1.366-.476-1.909a4.318,4.318,0,0,0-1.606-1.126l-7.049-2.838h-.606a2.212,2.212,0,0,1-1.317-2.065l-.206-5.494-2.76-.115v7.171a2.16,2.16,0,0,0,1.353,2l7.345,2.957a4.32,4.32,0,0,1,2.6,3.067l4.294,19.257,3.082-.017C200.741,224.858,200.768,224.927,200.713,224.659Z" transform="translate(-181.79 -190.419)" fill="#a3d8a4"/>
        </g>
        <path id="Trazado_944826" data-name="Trazado 944826" d="M27.172,383.287l-.023.221-.77,8.361,7-2.231.316-6.351Z" transform="translate(-25.959 -358.83)" fill="#ffcdbe"/>
        <path id="Trazado_944827" data-name="Trazado 944827" d="M126.556,198.093a8.6,8.6,0,0,0,10.854,0H136.8a2.428,2.428,0,0,1-1.539-2.065l.016-5.494-7.076-.115v5.551a2.16,2.16,0,0,1-1.353,2l-.3.119Z" transform="translate(-115.317 -186.792)" fill="#ffdecf"/>
        <path id="Trazado_944828" data-name="Trazado 944828" d="M183.142,199.595l.34.137a8.554,8.554,0,0,0,3.2-1.638h0a2.6,2.6,0,0,1-1.186-.786,2.159,2.159,0,0,1-.463-1.337V190.42h-3.24v7.171A2.16,2.16,0,0,0,183.142,199.595Z" transform="translate(-164.585 -186.793)" fill="#ffcdbe"/>
        <path id="Trazado_944829" data-name="Trazado 944829" d="M274.162,320.79l-.472-.507L269.26,300.1c-.163-.733.008-1.365-.478-1.908a6.956,6.956,0,0,0-3.009,1.977,6.59,6.59,0,0,0-1.381,6.237q1.855,6.6,3.709,13.189l.247.879.219.81h2.33l2.72-.287C273.891,320.994,274.218,321.058,274.162,320.79Z" transform="translate(-238.036 -282.923)" fill="#ffdecf"/>
        <path id="Trazado_944830" data-name="Trazado 944830" d="M288.169,320.76l-.068-.326-4.528-20.305a4.316,4.316,0,0,0-1-1.94,6.963,6.963,0,0,0-2.979,1.945,4.3,4.3,0,0,1,.738,1.616l4.356,19.532h3.058A.432.432,0,0,0,288.169,320.76Z" transform="translate(-251.827 -282.922)" fill="#ffcdbe"/>
        <path id="Trazado_944831" data-name="Trazado 944831" d="M35.116,340.055l3.246-4.806a.871.871,0,0,1,1.3-.165,1.84,1.84,0,0,1,.545,1.9l-.473,1.593a.279.279,0,0,0,.267.358h2.528a1.317,1.317,0,0,1,1.241,1.756L42.528,344.2a2.275,2.275,0,0,1-2.072,1.514l-5.081.16a.722.722,0,0,0-.453.179l-7.264,6.363a3.115,3.115,0,1,1-3.769-4.942Z" transform="translate(-22.49 -315.637)" fill="#ffdecf"/>
        <g id="Grupo_1142453" data-name="Grupo 1142453" transform="translate(1.671 19.227)">
          <path id="Trazado_944832" data-name="Trazado 944832" d="M158.087,338.935H155.56a.279.279,0,0,1-.267-.358l.473-1.593a1.84,1.84,0,0,0-.545-1.9.871.871,0,0,0-1.3.165l-1.456,2.157-.412,1.389a.279.279,0,0,0,.267.358h2.528a1.317,1.317,0,0,1,1.241,1.756l-1.241,3.505a2.274,2.274,0,0,1-1.369,1.378l2.536-.08a2.274,2.274,0,0,0,2.072-1.514l1.241-3.505A1.317,1.317,0,0,0,158.087,338.935Z" transform="translate(-139.72 -334.864)" fill="#ffcdbe"/>
          <path id="Trazado_944833" data-name="Trazado 944833" d="M45.934,438.039a.722.722,0,0,0-.453.179l-7.264,6.363a3.146,3.146,0,0,1-.256.2,3.115,3.115,0,0,0,3.5-.418L48.721,438a.74.74,0,0,1,.072-.053Z" transform="translate(-37.96 -426.816)" fill="#ffcdbe"/>
        </g>
        <g id="Grupo_1142455" data-name="Grupo 1142455" transform="translate(33.288)">
          <g id="Grupo_1142454" data-name="Grupo 1142454">
            <path id="Trazado_944834" data-name="Trazado 944834" d="M0,0H4.86V3.564H0Z" transform="translate(10.039 3.44) rotate(-45)" fill="#bdd8fc"/>
            <path id="Trazado_944835" data-name="Trazado 944835" d="M434.6,156.835l-1.62,1.62a1.273,1.273,0,0,1,0,1.8l-.916.916,1.62,1.62,3.437-3.437Z" transform="translate(-421.117 -156.835)" fill="#9dc7fb"/>
            <path id="Trazado_944836" data-name="Trazado 944836" d="M331.707,192.242a3.4,3.4,0,0,0,4.811,0l7.6-7.6a.432.432,0,0,0,0-.611l-4.2-4.2a.432.432,0,0,0-.611,0l-7.6,7.6A3.4,3.4,0,0,0,331.707,192.242Z" transform="translate(-330.711 -177.236)" fill="#edf6ff"/>
            <path id="Trazado_944837" data-name="Trazado 944837" d="M358.833,184.032l-4.2-4.2a.432.432,0,0,0-.611,0l-1.315,1.314,1.622,1.622a2.225,2.225,0,0,1,0,3.137l-6.335,6.335a3.4,3.4,0,0,1-.786.586,3.4,3.4,0,0,0,4.026-.586l7.6-7.6A.432.432,0,0,0,358.833,184.032Z" transform="translate(-345.427 -177.236)" fill="#ddebfd"/>
          </g>
        </g>
      </g>
      <g id="Grupo_1142459" data-name="Grupo 1142459" transform="translate(4.713)">
        <path id="Trazado_944838" data-name="Trazado 944838" d="M68.4,113.654h1.988v-4.56H68.4a2.28,2.28,0,1,0,0,4.56Z" transform="translate(-66.125 -98.122)" fill="#ffcdbe"/>
        <path id="Trazado_944839" data-name="Trazado 944839" d="M249.963,113.654h-1.988v-4.56h1.988a2.28,2.28,0,0,1,0,4.56Z" transform="translate(-228.335 -98.122)" fill="#ffcdbe"/>
        <g id="Grupo_1142458" data-name="Grupo 1142458" transform="translate(2.648)">
          <path id="Trazado_944840" data-name="Trazado 944840" d="M109.252,65.513v8.4a9.308,9.308,0,0,1-5.528,8.507A13.846,13.846,0,0,1,99.946,83a9.173,9.173,0,0,1-3.778-.577,9.308,9.308,0,0,1-5.528-8.507v-8.4Z" transform="translate(-90.64 -59.248)" fill="#ffdecf"/>
          <path id="Trazado_944841" data-name="Trazado 944841" d="M151.669,65.512v8.4a8.571,8.571,0,0,1-2.205,6.014,8.953,8.953,0,0,1-7.639,2.493,9.543,9.543,0,0,0,2.958.762c.285.026.559.037.82.037a9.306,9.306,0,0,0,9.306-9.306v-8.4Z" transform="translate(-136.297 -59.247)" fill="#ffcdbe"/>
          <path id="Trazado_944842" data-name="Trazado 944842" d="M109.253,18.471a7.994,7.994,0,0,1-4.34-1.637A7.83,7.83,0,0,1,103,14.66a.375.375,0,0,0-.58-.082,14.838,14.838,0,0,1-4.247,2.777,15.033,15.033,0,0,1-7.53,1.116V12.08a4.58,4.58,0,0,1,4.58-4.58h9.453a4.58,4.58,0,0,1,4.58,4.58Z" transform="translate(-90.641 -7.5)" fill="#cf9875"/>
          <g id="Grupo_1142457" data-name="Grupo 1142457" transform="translate(10.792)">
            <path id="Trazado_944843" data-name="Trazado 944843" d="M193.81,7.5h-3.24a4.58,4.58,0,0,1,4.58,4.58v5.468a8.1,8.1,0,0,0,3.24.924V12.08A4.58,4.58,0,0,0,193.81,7.5Z" transform="translate(-190.57 -7.5)" fill="#c7865b"/>
          </g>
        </g>
      </g>
    </g>
    <g id="Grupo_1142461" data-name="Grupo 1142461" transform="translate(15.01 0)">
      <path id="Trazado_944844" data-name="Trazado 944844" d="M66.827,20.031,62.016,15.22a.81.81,0,0,0-1.146,1.146l.573.573-2.291,2.291-.267-.267a1.244,1.244,0,0,0-1.757,0l-1.9,1.9L50.64,25.45,49.53,26.56a4.235,4.235,0,0,0-.518,5.329L47.991,32.91a5.178,5.178,0,0,0-2.728-2.584l-7.345-2.957a1.344,1.344,0,0,1-.846-1.252v-1.63a10.145,10.145,0,0,0,5.391-7.35,3.132,3.132,0,0,0,2.785-3.075A3.094,3.094,0,0,0,42.6,11V5.39A5.4,5.4,0,0,0,37.211,0h-3.1a.81.81,0,1,0,0,1.62h3.1a3.774,3.774,0,0,1,3.77,3.77v5.473A7.032,7.032,0,0,1,37.948,9.5,6.991,6.991,0,0,1,36.23,7.555,1.186,1.186,0,0,0,34.4,7.3a13.986,13.986,0,0,1-4.015,2.626,14.164,14.164,0,0,1-6.4,1.114V5.39a3.774,3.774,0,0,1,3.77-3.77h2.568a.81.81,0,1,0,0-1.62H27.758a5.4,5.4,0,0,0-5.39,5.39V11a3.09,3.09,0,0,0,.137,6.133,10.145,10.145,0,0,0,5.391,7.35v1.63a1.344,1.344,0,0,1-.846,1.252L20.045,30.19a5.108,5.108,0,0,0-3.194,4.29L15.466,49.528a3.926,3.926,0,0,0,6.053,4.8l.533-.467-.03.548a.81.81,0,0,0,.764.853h.045a.81.81,0,0,0,.808-.765l.117-2.131,5-4.382,5.05-.159a3.065,3.065,0,0,0,2.81-2.053l1.241-3.505a2.127,2.127,0,0,0-2-2.837H34.04l.27-.911a2.66,2.66,0,0,0-.784-2.738,1.7,1.7,0,0,0-2.508.318l-3.155,4.673-3.6,2.376.183-3.325a.81.81,0,1,0-1.617-.089l-.047.854H17.916l.549-5.957a3.5,3.5,0,0,1,2.185-2.935l6.281-2.529a9.4,9.4,0,0,0,11.107,0l6.62,2.665a3.523,3.523,0,0,1,.361.171,7.614,7.614,0,0,0-2.071,1.646,7.518,7.518,0,0,0-.667.88,7.375,7.375,0,0,0-1.171,3.8.812.812,0,0,0,0,.085v8.331a.81.81,0,0,0,1.62,0V45.369L45.35,54.7a.81.81,0,0,0,1.56-.437L42.954,40.2a5.781,5.781,0,0,1,1.209-5.482,6.076,6.076,0,0,1,2.13-1.54,3.508,3.508,0,0,1,.441.991l-1.882,1.882A.81.81,0,0,0,46,37.195l1.158-1.158L51.3,54.626a.81.81,0,1,0,1.581-.353l-4.37-19.594,1.644-1.644a4.258,4.258,0,0,0,5.329-.518l7.6-7.6a1.244,1.244,0,0,0,0-1.757l-.267-.267L65.108,20.6l.573.573a.81.81,0,0,0,1.146-1.146ZM42.6,12.66a1.472,1.472,0,0,1,1.028,1.4,1.489,1.489,0,0,1-1.028,1.4Zm-20.232,2.8a1.47,1.47,0,0,1,0-2.8ZM28.89,42.031a.808.808,0,0,0,.225-.223L32.361,37a.07.07,0,0,1,.092-.012,1.034,1.034,0,0,1,.3,1.065l-.473,1.593a1.089,1.089,0,0,0,1.044,1.4h2.527a.481.481,0,0,1,.478.676l-1.241,3.505a1.455,1.455,0,0,1-1.334.975l-5.081.16a1.535,1.535,0,0,0-.961.379L20.451,53.1a2.3,2.3,0,1,1-2.789-3.656Zm-6.2.174-.113,2.052-5.328,3.52.513-5.572Zm1.293-26.73V12.657c.261.013.535.021.821.021a15.711,15.711,0,0,0,6.22-1.269,15.577,15.577,0,0,0,4.093-2.581,8.578,8.578,0,0,0,1.832,1.955,8.667,8.667,0,0,0,4.027,1.722v2.969a8.5,8.5,0,1,1-16.992,0Zm8.5,13.884A7.8,7.8,0,0,1,28.563,28.3a2.956,2.956,0,0,0,.954-2.181v-.972a10.084,10.084,0,0,0,5.936,0v.972a2.956,2.956,0,0,0,.953,2.181,7.805,7.805,0,0,1-3.921,1.061Zm18.191-1.653.54-.54.85.85A.81.81,0,0,0,53.21,26.87l-.85-.85,1.145-1.146.85.85A.81.81,0,0,0,55.5,24.579l-.85-.849L55.8,22.584l.85.85a.81.81,0,0,0,1.146-1.146l-.85-.85,1.064-1.064,3.666,3.666L54.34,31.372a2.556,2.556,0,0,1-3.681-.05A2.586,2.586,0,0,1,50.675,27.706Zm11-5.957L60.3,20.375l2.291-2.291,1.375,1.375ZM41.915,49.707a.81.81,0,0,0-.81.81V54.45a.81.81,0,1,0,1.62,0V50.517a.81.81,0,0,0-.81-.81Z" transform="translate(-15.01 0)"/>
    </g>
  </g>
</svg>
