<svg xmlns="http://www.w3.org/2000/svg" width="45.414" height="50.404" viewBox="0 0 45.414 50.404">
  <g id="supporting_12370055" transform="translate(-11.56 -5.8)">
    <g id="Grupo_1142467" data-name="Grupo 1142467" transform="translate(12.21 6.451)">
      <g id="Grupo_1142465" data-name="Grupo 1142465" transform="translate(8.931 13.803)">
        <g id="Grupo_1142462" data-name="Grupo 1142462" transform="translate(9.504 3.461)">
          <circle id="Elipse_9801" data-name="Elipse 9801" cx="2.504" cy="2.504" r="2.504" transform="translate(1.118)" fill="#ffd0c8"/>
          <path id="Trazado_944845" data-name="Trazado 944845" d="M59.046,58.725h.423a3.411,3.411,0,0,1,3.411,3.41v2.531H55.635V62.135A3.411,3.411,0,0,1,59.046,58.725Z" transform="translate(-55.635 -53.722)" fill="#9a78b3"/>
        </g>
        <g id="Grupo_1142463" data-name="Grupo 1142463">
          <circle id="Elipse_9802" data-name="Elipse 9802" cx="3.285" cy="3.285" r="3.285" transform="translate(1.467)" fill="#ffd0c8"/>
          <path id="Trazado_944846" data-name="Trazado 944846" d="M38.438,54.337a4.752,4.752,0,0,0-4.752,4.752v3.09h9.5V59.089A4.752,4.752,0,0,0,38.438,54.337Z" transform="translate(-33.686 -47.774)" fill="#725985"/>
        </g>
        <g id="Grupo_1142464" data-name="Grupo 1142464" transform="translate(16.748 0.046)">
          <circle id="Elipse_9803" data-name="Elipse 9803" cx="3.285" cy="3.285" r="3.285" transform="translate(1.467)" fill="#ffd0c8"/>
          <path id="Trazado_944847" data-name="Trazado 944847" d="M77.117,54.444A4.752,4.752,0,0,0,72.365,59.2v3.043h9.5V59.2A4.752,4.752,0,0,0,77.117,54.444Z" transform="translate(-72.365 -47.881)" fill="#725985"/>
        </g>
      </g>
      <path id="Trazado_944848" data-name="Trazado 944848" d="M57.376,19.386h0c-3.507,2.756-3.592,2.752-7.117.018C40.714,12,48.895,3.235,53.726,9.383,58,3.227,66.789,11.987,57.376,19.386Z" transform="translate(-31.647 -7.303)" fill="#ff6893"/>
      <g id="Grupo_1142466" data-name="Grupo 1142466" transform="translate(0 20.295)">
        <path id="Trazado_944849" data-name="Trazado 944849" d="M32.528,76.086V82.98H21.551v-3.2a3.984,3.984,0,0,0-1.316-2.962l-5.088-4.577a6.315,6.315,0,0,1-2.087-4.694V56.367a2.195,2.195,0,0,1,4.378-.229l.641,6.123.143,1.373v.017a2.168,2.168,0,0,1,1.745.043,1.818,1.818,0,0,1,.4.242,1.286,1.286,0,0,1,.147.121l6.183,5.62L29.016,70.7a5.878,5.878,0,0,1,3.512,5.382Z" transform="translate(-13.06 -54.173)" fill="#ffd0c8"/>
        <path id="Trazado_944850" data-name="Trazado 944850" d="M89.448,56.367V67.552a6.315,6.315,0,0,1-2.087,4.694l-5.088,4.577a3.984,3.984,0,0,0-1.316,2.962v3.2H69.98V76.086A5.878,5.878,0,0,1,73.492,70.7l2.321-1.026L82,64.057a1.285,1.285,0,0,1,.147-.121,1.819,1.819,0,0,1,.4-.242,2.168,2.168,0,0,1,1.745-.043v-.017l.143-1.373.641-6.123a2.195,2.195,0,0,1,4.378.229Z" transform="translate(-45.333 -54.173)" fill="#ffd0c8"/>
      </g>
    </g>
    <g id="Grupo_1142468" data-name="Grupo 1142468" transform="translate(11.56 5.8)">
      <path id="Trazado_944851" data-name="Trazado 944851" d="M32.833,53.374H52.359a.65.65,0,0,0,0-1.3H50.231V49.682a4.127,4.127,0,0,1,4-4.1h.015c.032,0,.062,0,.094,0s.063,0,.095,0h.014a4.124,4.124,0,0,1,3.991,4.1v2.395H56.308a.65.65,0,1,0,0,1.3h2.776a.65.65,0,0,0,.65-.65V49.682a5.366,5.366,0,0,0-3.061-4.874,3.934,3.934,0,1,0-4.663.01,5.487,5.487,0,0,0-2.676,2.836,4.083,4.083,0,0,0-1.256-1.041,3.153,3.153,0,1,0-4.239,0A4.088,4.088,0,0,0,42.6,47.635a5.423,5.423,0,0,0-2.685-2.867,3.934,3.934,0,1,0-4.657,0,5.4,5.4,0,0,0-3.074,4.867v3.089a.65.65,0,0,0,.651.65Zm21.5-14.358a2.633,2.633,0,1,1,.1,5.266,1.978,1.978,0,0,0-.208,0,2.633,2.633,0,1,1,.1-5.266ZM45.959,42.43a1.852,1.852,0,1,1,.046,3.7h-.092a1.852,1.852,0,1,1,.046-3.7Zm-.211,5h.12c.031,0,.061,0,.092,0s.061,0,.092,0h.119a2.763,2.763,0,0,1,2.76,2.719v1.923H42.987V50.193a2.764,2.764,0,0,1,2.761-2.76ZM34.95,41.6a2.635,2.635,0,1,1,2.7,2.632c-.021,0-.043,0-.063,0l-.062,0A2.637,2.637,0,0,1,34.95,41.6Zm-1.467,8.031a4.106,4.106,0,0,1,4.04-4.1c.021,0,.041,0,.062,0s.043,0,.063,0a4.106,4.106,0,0,1,4.04,4.1v2.44H33.483Z" transform="translate(-23.253 -23.866)"/>
      <path id="Trazado_944852" data-name="Trazado 944852" d="M49,19.056l.013.011c1.87,1.451,2.918,2.177,3.961,2.177s2.09-.732,3.955-2.2l.009-.007c4.908-3.861,4.607-7.648,4.25-9.1a5.3,5.3,0,0,0-4.027-4.068,4.559,4.559,0,0,0-4.306,1.642,4.908,4.908,0,0,0-4.656-1.6A5.109,5.109,0,0,0,44.5,9.884c-.323,1.456-.529,5.261,4.506,9.172Zm-3.24-8.891A3.81,3.81,0,0,1,48.49,7.183a3.905,3.905,0,0,1,3.882,1.75.641.641,0,0,0,.53.248.649.649,0,0,0,.514-.278,3.487,3.487,0,0,1,3.51-1.752,4.059,4.059,0,0,1,3,3.1c.628,2.548-.756,5.38-3.8,7.77l-.009.007c-1.653,1.3-2.478,1.923-3.146,1.924h0c-.665,0-1.494-.618-3.151-1.905l-.013-.011c-4.462-3.458-4.318-6.657-4.049-7.872Z" transform="translate(-30.154 -5.8)"/>
      <path id="Trazado_944853" data-name="Trazado 944853" d="M58.567,22.386a.65.65,0,0,0,.918,0l3.344-3.344a.649.649,0,1,0-.918-.918l-2.883,2.885-1.237-1.237a.65.65,0,1,0-.92.918Z" transform="translate(-37.143 -12.68)"/>
      <path id="Trazado_944854" data-name="Trazado 944854" d="M28.43,69.269l-2.223-.982L20.1,62.734a2.851,2.851,0,0,0-.63-.433l-.019-.01a1.992,1.992,0,0,0-.2-.087l-.043-.019c-.063-.024-.126-.043-.19-.064l-.061-.019c-.062-.017-.124-.032-.187-.043l-.07-.014c-.062-.012-.125-.019-.188-.027l-.071-.008c-.065-.006-.13-.008-.2-.009h-.065c-.079,0-.158,0-.238.012l-.709-6.783a2.844,2.844,0,0,0-5.672.3v1.256a.65.65,0,0,0,1.3,0V55.526a1.545,1.545,0,0,1,3.082-.162l.736,7.077a2.87,2.87,0,0,0-.5.406,2.828,2.828,0,0,0,.041,4l5.646,5.527a.649.649,0,1,0,.909-.928l-5.645-5.528a1.524,1.524,0,0,1,.529-2.52,1.5,1.5,0,0,1,.235-.071c.015,0,.031,0,.046-.006a1.644,1.644,0,0,1,.239-.026,1.516,1.516,0,0,1,.159.01c.041,0,.082,0,.122.012s.1.025.146.038.09.022.132.038.063.031.1.043a1.542,1.542,0,0,1,.394.257l6.183,5.621a.662.662,0,0,0,.173.113L27.9,70.455a5.232,5.232,0,0,1,3.125,4.79v6.244H21.351V78.943A4.646,4.646,0,0,0,19.82,75.5l-5.087-4.575a5.68,5.68,0,0,1-1.869-4.1.64.64,0,0,0-.66-.638.65.65,0,0,0-.639.66,6.984,6.984,0,0,0,2.3,5.045l5.087,4.578a3.343,3.343,0,0,1,1.1,2.479v3.2a.65.65,0,0,0,.65.65H31.679a.65.65,0,0,0,.65-.65v-6.9A6.533,6.533,0,0,0,28.43,69.269Z" transform="translate(-11.561 -32.387)"/>
      <path id="Trazado_944855" data-name="Trazado 944855" d="M12.21,73.211a.65.65,0,0,0,.65-.65V70.41a.65.65,0,1,0-1.3,0v2.152A.65.65,0,0,0,12.21,73.211Z" transform="translate(-11.56 -42.065)"/>
      <path id="Trazado_944856" data-name="Trazado 944856" d="M88.416,53.51a2.845,2.845,0,0,0-4.84,1.714L82.865,62a2.815,2.815,0,0,0-2.159.726l-6.1,5.551-2.225.984a6.528,6.528,0,0,0-3.9,5.975v6.894a.65.65,0,0,0,.65.65H80.105a.65.65,0,0,0,.65-.65v-3.2a3.334,3.334,0,0,1,1.1-2.478l5.085-4.579a6.974,6.974,0,0,0,2.3-5.174V55.52a2.824,2.824,0,0,0-.832-2.01ZM87.948,66.7a5.675,5.675,0,0,1-1.874,4.21l-5.084,4.578a4.636,4.636,0,0,0-1.535,3.444v2.546H69.78V75.237A5.229,5.229,0,0,1,72.9,70.451l2.323-1.027a.66.66,0,0,0,.161-.106s.008,0,.011-.007l1.645-1.5,4.538-4.127.01-.008a1.58,1.58,0,0,1,.2-.15c.028-.017.056-.033.087-.049a1.575,1.575,0,0,1,.145-.069c.034-.014.068-.029.1-.041a1.555,1.555,0,0,1,.2-.051c.048-.009.1-.014.145-.019s.087-.008.13-.008a1.1,1.1,0,0,1,.126,0c.042,0,.09.009.135.016s.077.011.114.02a1.529,1.529,0,0,1,.712,2.58l-5.646,5.528a.649.649,0,1,0,.909.928l5.644-5.527a2.828,2.828,0,0,0,.043-4,2.862,2.862,0,0,0-.5-.407l.74-7.076a1.545,1.545,0,0,1,3.081.162Z" transform="translate(-43.834 -32.38)"/>
    </g>
  </g>
</svg>
