<svg xmlns="http://www.w3.org/2000/svg" width="50.147" height="48.289" viewBox="0 0 50.147 48.289">
  <g id="servicios-sociales" transform="translate(-7.999 -17.194)">
    <path id="Trazado_853633" data-name="Trazado 853633" d="M56.653,24.351a4.176,4.176,0,0,0-4.12,4.08l-.6,10.355-2.982,4.075.433-1.985a3.26,3.26,0,0,0-.468-2.628A15.555,15.555,0,0,0,52.11,27.6a11.848,11.848,0,0,0-4.346-7.944c-3.68-2.978-9.368-3.759-13.122.509l-1.569,1.783L31.5,20.166c-3.752-4.268-9.441-3.487-13.121-.509A11.85,11.85,0,0,0,14.036,27.6a15.553,15.553,0,0,0,3.189,10.647,3.261,3.261,0,0,0-.468,2.629l.433,1.984-2.982-4.075-.593-10.356a4.182,4.182,0,0,0-4.123-4.08A1.5,1.5,0,0,0,8,25.844V41.526a.705.705,0,0,0,.038.227,93.015,93.015,0,0,0,8.631,18.269l-.615,4.659a.708.708,0,0,0,.609.794.717.717,0,0,0,.094.006.708.708,0,0,0,.7-.615L18.1,59.96a.708.708,0,0,0-.1-.461,91.819,91.819,0,0,1-8.592-18.09V25.844a.079.079,0,0,1,.078-.078,2.783,2.783,0,0,1,2.71,2.746l.6,10.564a.707.707,0,0,0,.135.378l4.994,6.825,1.079,4.942a.708.708,0,1,0,1.383-.3L18.139,40.576a1.594,1.594,0,0,1,.812-1.948c.685-.278,1.692-.092,2.277,1.345l4.947,12.14a12.229,12.229,0,0,1,.758,5.776l-.482,6.835a.708.708,0,0,0,1.412.1l.481-6.836a13.546,13.546,0,0,0-.859-6.409l-2.3-5.635a61.549,61.549,0,0,0,7.558,4.57.708.708,0,0,0,.65,0,61.671,61.671,0,0,0,7.557-4.569l-2.3,5.633a13.547,13.547,0,0,0-.859,6.41l.481,6.835a.708.708,0,0,0,1.412-.1l-.481-6.835a12.228,12.228,0,0,1,.758-5.777l4.946-12.139c.587-1.438,1.594-1.624,2.277-1.346a1.594,1.594,0,0,1,.812,1.947L45.748,50.919a.708.708,0,0,0,1.383.3l1.079-4.942L53.2,39.453a.707.707,0,0,0,.135-.377l.608-10.564a2.778,2.778,0,0,1,2.707-2.745.079.079,0,0,1,.078.078V41.409A91.811,91.811,0,0,1,48.142,59.5a.708.708,0,0,0-.1.461l.645,4.906a.708.708,0,0,0,1.4-.184l-.612-4.659a93,93,0,0,0,8.628-18.269.706.706,0,0,0,.038-.227V25.844a1.5,1.5,0,0,0-1.493-1.493Zm-37.38-3.593c3.155-2.553,8-3.254,11.167.344l2.1,2.387a.708.708,0,0,0,1.063,0L35.7,21.1c3.165-3.6,8.014-2.9,11.169-.343,3.9,3.153,5.7,9.191,1.417,15.892A4,4,0,0,0,44.9,34.375a5.53,5.53,0,0,0,.982-3.209,3.648,3.648,0,1,0-7.3,0,5.53,5.53,0,0,0,.982,3.209,4.185,4.185,0,0,0-1.3.3,4.379,4.379,0,0,0-2.429-.859,5.855,5.855,0,0,0,1.1-3.5,3.869,3.869,0,0,0-7.738,0,5.856,5.856,0,0,0,1.1,3.5,4.38,4.38,0,0,0-2.428.859,4.166,4.166,0,0,0-1.3-.3,5.53,5.53,0,0,0,.982-3.208,3.648,3.648,0,0,0-7.3,0,5.53,5.53,0,0,0,.982,3.209,4,4,0,0,0-3.392,2.275c-4.282-6.7-2.478-12.74,1.418-15.893ZM40,31.166a2.233,2.233,0,1,1,4.465,0c0,1.328-.693,3.2-2.233,3.2C40.545,34.364,40,32.209,40,31.166Zm-9.38-.848a2.453,2.453,0,0,1,4.907,0c0,1.451-.761,3.494-2.453,3.494S30.62,31.768,30.62,30.317Zm-8.939.848a2.233,2.233,0,1,1,4.465,0c0,1.328-.693,3.2-2.233,3.2-1.687,0-2.233-2.155-2.233-3.2Zm.859,8.274A3.244,3.244,0,0,0,19.2,37.121a2.615,2.615,0,0,1,2.333-1.341H26.3a2.787,2.787,0,0,1,.527.05,3.783,3.783,0,0,0-.556,1.97v7.173q-1.117-.789-2.124-1.595l-1.605-3.94Zm10.533,9.649q-1.338-.7-2.585-1.423V38.382a.708.708,0,0,0-1.415,0V45.32a.694.694,0,1,1-1.387,0V37.8a2.712,2.712,0,0,1,2.826-2.574h5.124A2.712,2.712,0,0,1,38.461,37.8v7.52a.694.694,0,1,1-1.387,0V38.382a.708.708,0,0,0-1.415,0v9.284q-1.248.722-2.585,1.423Zm10.533-9.649L42,43.382q-1.006.8-2.123,1.592V37.8a3.783,3.783,0,0,0-.555-1.97,2.791,2.791,0,0,1,.53-.051h4.766a2.612,2.612,0,0,1,2.33,1.341,3.247,3.247,0,0,0-3.341,2.318Z"/>
    <path id="Trazado_853634" data-name="Trazado 853634" d="M123.491,201.025H121.11a2.615,2.615,0,0,0-2.333,1.341,3.244,3.244,0,0,1,3.341,2.318l1.605,3.94q1.006.806,2.124,1.595v-7.173a3.783,3.783,0,0,1,.556-1.97,2.785,2.785,0,0,0-.527-.05h-2.384Z" transform="translate(-99.578 -165.245)" fill="#0473ce"/>
    <path id="Trazado_853635" data-name="Trazado 853635" d="M210.657,195.554h-5.124a2.712,2.712,0,0,0-2.826,2.574v7.52a.694.694,0,1,0,1.387,0v-6.938a.708.708,0,0,1,1.415,0v9.284q1.247.722,2.585,1.423,1.337-.7,2.585-1.423v-9.284a.708.708,0,1,1,1.415,0v6.938a.694.694,0,1,0,1.387,0v-7.52a2.712,2.712,0,0,0-2.826-2.574Z" transform="translate(-175.022 -160.327)" fill="#e94444"/>
    <g id="Grupo_1083162" data-name="Grupo 1083162" transform="translate(21.681 27.867)">
      <path id="Trazado_853636" data-name="Trazado 853636" d="M328.977,135.539a2.233,2.233,0,1,0-4.465,0c0,1.044.546,3.2,2.233,3.2C328.285,138.737,328.977,136.867,328.977,135.539Z" transform="translate(-306.193 -132.24)" fill="#fdd7ad"/>
      <path id="Trazado_853637" data-name="Trazado 853637" d="M236.641,125.211a2.453,2.453,0,0,0-4.907,0c0,1.451.761,3.494,2.453,3.494S236.641,126.661,236.641,125.211Z" transform="translate(-222.795 -122.76)" fill="#fdd7ad"/>
      <path id="Trazado_853638" data-name="Trazado 853638" d="M147.787,135.539a2.233,2.233,0,0,0-4.465,0c0,1.044.546,3.2,2.233,3.2C147.095,138.737,147.787,136.867,147.787,135.539Z" transform="translate(-143.322 -132.24)" fill="#fdd7ad"/>
    </g>
    <path id="Trazado_853639" data-name="Trazado 853639" d="M323.095,201.025h-4.766a2.782,2.782,0,0,0-.53.051,3.784,3.784,0,0,1,.555,1.97v7.174q1.116-.787,2.123-1.592l1.607-3.943a3.247,3.247,0,0,1,3.341-2.318,2.612,2.612,0,0,0-2.33-1.341Z" transform="translate(-278.478 -165.245)" fill="#22b27f"/>
    <path id="Trazado_853640" data-name="Trazado 853640" d="M112.516,33.444c-3.155-2.553-8-3.255-11.169.343l-2.1,2.387a.708.708,0,0,1-1.063,0l-2.1-2.387c-3.163-3.6-8.012-2.9-11.167-.344-3.9,3.153-5.7,9.191-1.418,15.893a4,4,0,0,1,3.392-2.275,5.53,5.53,0,0,1-.982-3.209,3.648,3.648,0,0,1,7.3,0,5.531,5.531,0,0,1-.982,3.208,4.164,4.164,0,0,1,1.3.3A4.379,4.379,0,0,1,95.95,46.5a5.855,5.855,0,0,1-1.1-3.5,3.869,3.869,0,0,1,7.738,0,5.856,5.856,0,0,1-1.1,3.5,4.379,4.379,0,0,1,2.429.859,4.184,4.184,0,0,1,1.3-.3,5.53,5.53,0,0,1-.982-3.209,3.648,3.648,0,0,1,7.3,0,5.53,5.53,0,0,1-.982,3.209,4,4,0,0,1,3.392,2.275c4.282-6.7,2.479-12.74-1.417-15.892Z" transform="translate(-65.642 -12.687)" fill="#f7df3f"/>
    <path id="Trazado_853641" data-name="Trazado 853641" d="M332.692,117.626V102.061a.079.079,0,0,0-.078-.078,2.778,2.778,0,0,0-2.707,2.745l-.608,10.564a.707.707,0,0,1-.135.377l-4.994,6.825-1.079,4.942a.708.708,0,1,1-1.383-.3l2.258-10.343a1.594,1.594,0,0,0-.812-1.947c-.684-.278-1.69-.092-2.277,1.346l-4.946,12.139a12.23,12.23,0,0,0-.758,5.777l.481,6.835a.708.708,0,0,1-.656.756v0h10.353a.708.708,0,0,1-.7-.616l-.645-4.906a.708.708,0,0,1,.1-.461A91.811,91.811,0,0,0,332.692,117.626Z" transform="translate(-275.961 -76.217)" fill="#fdd7ad"/>
    <path id="Trazado_853642" data-name="Trazado 853642" d="M30.041,141.083a.708.708,0,0,1-.7.615H39.693v0a.708.708,0,0,1-.656-.756l.482-6.835a12.229,12.229,0,0,0-.758-5.776l-4.947-12.14c-.585-1.437-1.592-1.623-2.277-1.345a1.594,1.594,0,0,0-.812,1.948l2.258,10.342a.708.708,0,0,1-1.383.3l-1.079-4.942-4.994-6.825a.708.708,0,0,1-.135-.378l-.6-10.564a2.783,2.783,0,0,0-2.71-2.746.079.079,0,0,0-.078.078v15.565a91.812,91.812,0,0,0,8.592,18.09.708.708,0,0,1,.1.461l-.648,4.906Z" transform="translate(-12.585 -76.216)" fill="#fdd7ad"/>
  </g>
</svg>
