<svg xmlns="http://www.w3.org/2000/svg" width="52.235" height="59.2" viewBox="0 0 52.235 59.2">
  <g id="avatar_8323075" transform="translate(0)">
    <path id="Trazado_945284" data-name="Trazado 945284" d="M328.686,273.006a4.938,4.938,0,0,0-.671-6.754,4.935,4.935,0,0,0-.67-6.754,4.934,4.934,0,0,0,.629-4.984l-3.984.048c-5.274,1.761-8.532,5.745-10.116,11.27,1.337,7.082,4.917,12.491,11.266,15.835a4.939,4.939,0,0,0,3.546-8.661Z" transform="translate(-281.065 -225.086)" fill="#5d5770"/>
    <path id="Trazado_945285" data-name="Trazado 945285" d="M57.7,254.415a4.934,4.934,0,0,0,.629,4.984,4.935,4.935,0,0,0-.67,6.754,4.938,4.938,0,0,0-.671,6.754,4.939,4.939,0,0,0,3.547,8.66c6.474-3.216,10-8.67,11.266-15.835C69.034,257.905,64.324,254.152,57.7,254.415Z" transform="translate(-52.372 -224.986)" fill="#4a4561"/>
    <path id="Trazado_945286" data-name="Trazado 945286" d="M133.446,381.479a18.822,18.822,0,0,0-7.707-11.27H104.5a18.812,18.812,0,0,0-7.707,11.27,3.437,3.437,0,0,0,.37,2.505h0a3.478,3.478,0,0,0,3.024,1.752H130.05A3.481,3.481,0,0,0,133.446,381.479Z" transform="translate(-89 -327.403)" fill="#c89bdf"/>
    <path id="Trazado_945287" data-name="Trazado 945287" d="M181.453,352.4H168.07a18.737,18.737,0,0,0-3.93,2.058h0c.925,4.188,5.33,7.36,10.621,7.36s9.7-3.173,10.621-7.36A18.711,18.711,0,0,0,181.453,352.4Z" transform="translate(-148.644 -311.651)" fill="#70e0eb"/>
    <path id="Trazado_945288" data-name="Trazado 945288" d="M221.226,342.975a3.772,3.772,0,0,1,.039.54c0,2.4-2.339,4.353-5.224,4.353s-5.224-1.949-5.224-4.353a3.774,3.774,0,0,1,.039-.54C213.964,340.593,217.6,340.553,221.226,342.975Z" transform="translate(-189.924 -301.725)" fill="#c38778"/>
    <path id="Trazado_945289" data-name="Trazado 945289" d="M398.864,183.369a4.5,4.5,0,0,1-4.291,7.685c-2-3.094-1.2-5.785.351-8.08C396.674,181.6,398.222,182.281,398.864,183.369Z" transform="translate(-351.382 -161.139)" fill="#d79b8c"/>
    <path id="Trazado_945290" data-name="Trazado 945290" d="M63.412,183.374c-1.327-1.14-2.638-.848-3.94.395a4.5,4.5,0,0,0,4.291,7.685C66.755,188.25,66.088,185.537,63.412,183.374Z" transform="translate(-54.719 -161.54)" fill="#c38778"/>
    <path id="Trazado_945291" data-name="Trazado 945291" d="M220.154,164.175a27.965,27.965,0,0,0-24.279-.864c-.887,9.323,3.619,16.934,12.713,20.072C216.876,180.656,221.961,172.536,220.154,164.175Z" transform="translate(-176.612 -142.34)" fill="#e0aea2"/>
    <path id="Trazado_945292" data-name="Trazado 945292" d="M113.063,181.363q-5.295.244-10.569.864c-2.268,10.493,6.264,20.14,17.424,20.14a18.721,18.721,0,0,0,5.858-.932A28.51,28.51,0,0,1,113.063,181.363Z" transform="translate(-93.8 -160.393)" fill="#d79b8c"/>
    <path id="Trazado_945293" data-name="Trazado 945293" d="M216.8,19.912A20.032,20.032,0,0,0,196.613,7.567c-5.566,2.968-7,6.929-5.1,11.4A43.053,43.053,0,0,0,216.8,19.912Z" transform="translate(-172.151 -6.632)" fill="#ff5680"/>
    <path id="Trazado_945294" data-name="Trazado 945294" d="M112.629,8.089A20.042,20.042,0,0,0,95.755,20.434c3.915,2.185,7.844,2.046,11.778-.948A24.409,24.409,0,0,1,112.629,8.089Z" transform="translate(-88.166 -7.154)" fill="#f72c77"/>
    <path id="Trazado_945295" data-name="Trazado 945295" d="M185.307,105.543a6.769,6.769,0,0,0-.1,8.639,148.885,148.885,0,0,1,27.2,1.238,4.313,4.313,0,0,0,1.178-8.545,157.441,157.441,0,0,0-28.278-1.332Z" transform="translate(-165.94 -93.211)" fill="#ff7590"/>
    <path id="Trazado_945296" data-name="Trazado 945296" d="M56.121,106.65c-5.081.218-10.05.678-14.777,1.332a4.313,4.313,0,0,0,1.178,8.545c4.331-.6,8.857-1.025,13.494-1.238A27.841,27.841,0,0,1,56.121,106.65Z" transform="translate(-36.754 -94.319)" fill="#ff5680"/>
    <ellipse id="Elipse_9815" data-name="Elipse 9815" cx="3.357" cy="2.674" rx="3.357" ry="2.674" transform="translate(31.859 27.844)" fill="#fff"/>
    <ellipse id="Elipse_9816" data-name="Elipse 9816" cx="3.357" cy="2.674" rx="3.357" ry="2.674" transform="translate(13.661 27.844)" fill="#fff"/>
    <path id="Trazado_945297" data-name="Trazado 945297" d="M77.883,12.806q-1.254-.174-2.519-.326a20.9,20.9,0,0,0-38.254,0q-1.261.154-2.519.325a5.18,5.18,0,0,0-1.278,9.915,5.366,5.366,0,0,0,1.095,7.025,5.8,5.8,0,0,0,.547,4.556,5.812,5.812,0,0,0-.67,6.755,5.81,5.81,0,0,0-.672,6.754,5.806,5.806,0,0,0,4.207,9.646A4.367,4.367,0,0,0,41.3,59.2H71.169a4.326,4.326,0,0,0,3.483-1.744,5.806,5.806,0,0,0,4.207-9.645,5.81,5.81,0,0,0-.672-6.754,5.812,5.812,0,0,0-.67-6.755,5.8,5.8,0,0,0,.547-4.556A5.366,5.366,0,0,0,79.16,22.72a5.18,5.18,0,0,0-1.277-9.915ZM35.2,23.114a17.441,17.441,0,0,0,2.551-.277,16.744,16.744,0,0,0,.325,6.4A3.631,3.631,0,0,1,35.2,23.114Zm37.728-.492a14.867,14.867,0,0,1-.386,6.887.834.834,0,0,0-.093.3,16.466,16.466,0,0,1-9.743,10.1.869.869,0,0,0-.178.069q-.629.236-1.279.424a.863.863,0,0,0-.15.044,18.186,18.186,0,0,1-9.73,0,.865.865,0,0,0-.148-.044q-.65-.188-1.281-.425a.874.874,0,0,0-.176-.068,16.81,16.81,0,0,1-7.023-5.114,14.973,14.973,0,0,1-3.2-12.172,147.75,147.75,0,0,1,33.387,0ZM50.148,41.885c.06,2.835,2.767,5.125,6.089,5.125s6.029-2.291,6.089-5.125q.3-.1.6-.206a18.006,18.006,0,0,1,2.932,1.5c-1.111,3.577-5.051,6.119-9.623,6.119s-8.508-2.539-9.622-6.114a17.882,17.882,0,0,1,2.931-1.506q.3.108.6.206Zm1.794.49a20.019,20.019,0,0,0,8.588,0,4.2,4.2,0,0,1-4.294,2.9c-2.153,0-3.945-1.256-4.294-2.9ZM71.17,57.466H41.3a2.612,2.612,0,0,1-2.551-3.195,17.84,17.84,0,0,1,1.633-4.361.867.867,0,0,0-1.531-.815,19.579,19.579,0,0,0-1.792,4.786,4.337,4.337,0,0,0-.045,1.731A4.072,4.072,0,0,1,35.3,48.575a.867.867,0,0,0,.116-1.187,4.071,4.071,0,0,1,.555-5.568.867.867,0,0,0,.117-1.186,4.073,4.073,0,0,1,.553-5.568.867.867,0,0,0,.117-1.186,4.066,4.066,0,0,1-.785-3.231,5.336,5.336,0,0,0,2.618.279,18.042,18.042,0,0,0,8.806,9.82A19.727,19.727,0,0,0,41.232,45.6a.867.867,0,0,0,1.322,1.122,17.98,17.98,0,0,1,2.587-2.493c1.54,4.009,5.99,6.8,11.095,6.8s9.561-2.8,11.1-6.812a17.888,17.888,0,0,1,6.386,10.05A2.613,2.613,0,0,1,71.17,57.466Zm5.886-10.077a.867.867,0,0,0,.116,1.187,4.072,4.072,0,0,1-1.715,7.036,4.327,4.327,0,0,0-.046-1.731A19.623,19.623,0,0,0,65.077,40.747a18.045,18.045,0,0,0,8.8-9.818A5.336,5.336,0,0,0,76.5,30.65a4.066,4.066,0,0,1-.785,3.232.867.867,0,0,0,.117,1.186,4.073,4.073,0,0,1,.553,5.568.867.867,0,0,0,.117,1.186A4.071,4.071,0,0,1,77.056,47.389Zm-.488-18.7a3.622,3.622,0,0,1-2.175.546,16.739,16.739,0,0,0,.326-6.4q.874.11,1.747.23a5.167,5.167,0,0,0,.8.048A3.629,3.629,0,0,1,76.568,28.694Zm.136-7.345a149.5,149.5,0,0,0-40.936,0,3.445,3.445,0,0,1-.94-6.826,156.874,156.874,0,0,1,26.681-1.382.867.867,0,1,0,.058-1.733,158.854,158.854,0,0,0-22.433.839,19.169,19.169,0,0,1,34.2,0c-2.561-.278-5.139-.495-7.707-.647a.867.867,0,0,0-.1,1.731c3.905.231,7.986.623,12.116,1.195a3.445,3.445,0,0,1-.941,6.826Z" transform="translate(-30.119)"/>
    <path id="Trazado_945298" data-name="Trazado 945298" d="M175.372,217.444a2.468,2.468,0,0,0-2.466,2.466.867.867,0,0,0,1.734,0,.731.731,0,1,1,1.462,0,.867.867,0,0,0,1.734,0A2.468,2.468,0,0,0,175.372,217.444Z" transform="translate(-156.396 -192.302)"/>
    <path id="Trazado_945299" data-name="Trazado 945299" d="M297.32,220.777a.867.867,0,0,0,.867-.867.731.731,0,1,1,1.462,0,.867.867,0,1,0,1.734,0,2.465,2.465,0,1,0-4.93,0A.867.867,0,0,0,297.32,220.777Z" transform="translate(-265.658 -192.302)"/>
    <path id="Trazado_945300" data-name="Trazado 945300" d="M235.361,247.722a.867.867,0,1,0-1.307,1.14,3.115,3.115,0,0,0,4.7,0,.867.867,0,0,0-1.307-1.14A1.378,1.378,0,0,1,235.361,247.722Z" transform="translate(-210.285 -218.816)"/>
  </g>
</svg>
