<svg id="Grupo_1132740" data-name="Grupo 1132740" xmlns="http://www.w3.org/2000/svg" width="75.132" height="75.132" viewBox="0 0 75.132 75.132">
  <path id="Trazado_861607" data-name="Trazado 861607" d="M37.566,0A37.566,37.566,0,1,1,0,37.566,37.566,37.566,0,0,1,37.566,0Z" fill="#ffb6c8"/>
  <g id="hombre" transform="translate(18.117 16.883)">
    <path id="Trazado_875913" data-name="Trazado 875913" d="M123.066,20.966c-.01-.656.014-1.058.014-1.058a16.178,16.178,0,0,0,4.727-6.425,17.891,17.891,0,0,0,9.754,6.377s.028.428.02,1.122a1.663,1.663,0,0,1,1.995.17c3.325-10.72-6.288-13.43-8.771-13.583a5.233,5.233,0,0,0-4.179,1.918c-2.34-1.8-4.932.36-5.851,3.716-.563,2.054-.167,5.606.224,8.053a1.644,1.644,0,0,1,2.067-.291Zm0,0" transform="translate(-110.891 -6.959)" fill="#945b44"/>
    <path id="Trazado_875914" data-name="Trazado 875914" d="M326.149,173.576a1.664,1.664,0,0,0-2.306-.526,19.124,19.124,0,0,1-.956,5.945C326.3,180.141,327.342,175.235,326.149,173.576Zm0,0" transform="translate(-297.153 -159.026)" fill="#ffbd86"/>
    <path id="Trazado_875915" data-name="Trazado 875915" d="M121.023,173.032a1.657,1.657,0,0,0-2.273.542c-1.192,1.658-.153,6.559,3.256,5.422a19.251,19.251,0,0,1-.983-5.965Zm0,0" transform="translate(-108.849 -159.025)" fill="#ffbd86"/>
    <path id="Trazado_875916" data-name="Trazado 875916" d="M323.287,199.619a13.927,13.927,0,0,1-.4,1.337c2.815.944,4.017-2.225,3.683-4.3C326.324,198.352,325.24,200.026,323.287,199.619Zm0,0" transform="translate(-297.153 -180.987)" fill="#ffa664"/>
    <path id="Trazado_875917" data-name="Trazado 875917" d="M118.331,196.66c-.333,2.07.866,5.235,3.676,4.3-.159-.441-.293-.89-.406-1.337C119.656,200.019,118.577,198.348,118.331,196.66Zm0,0" transform="translate(-108.85 -180.986)" fill="#ffa664"/>
    <path id="Trazado_875918" data-name="Trazado 875918" d="M198.622,297.138a5.964,5.964,0,0,1-3.954-1.337v3.446a3.934,3.934,0,0,0,7.868,0V295.8A5.971,5.971,0,0,1,198.622,297.138Zm0,0" transform="translate(-179.153 -272.226)" fill="#ffbd86"/>
    <path id="Trazado_875919" data-name="Trazado 875919" d="M167.226,88.252s.792,11.984-7.2,12.01-7.28-11.962-7.28-11.962a16.178,16.178,0,0,0,4.727-6.425,17.891,17.891,0,0,0,9.753,6.377Zm0,0" transform="translate(-140.556 -75.349)" fill="#fed2a4"/>
    <path id="Trazado_875920" data-name="Trazado 875920" d="M160.023,173.612c-6.226.021-7.17-7.249-7.283-10.463-.039.843-.407,11.935,7.283,11.91,7.423-.025,7.269-10.359,7.209-11.834-.111,3.274-1.062,10.368-7.209,10.388Zm0,0" transform="translate(-140.554 -150.146)" fill="#ffbd86"/>
    <path id="Trazado_875921" data-name="Trazado 875921" d="M194.668,295.8v1.444a6.45,6.45,0,0,0,7.868,0V295.8a6.456,6.456,0,0,1-7.868,0Zm0,0" transform="translate(-179.153 -272.226)" fill="#ffa664"/>
    <path id="Trazado_875922" data-name="Trazado 875922" d="M42.812,346.2c-2.163-1.749-12.472-7.151-12.472-7.151a3.934,3.934,0,1,1-7.868,0S12.162,344.452,10,346.2s-2.44,6.03-2.44,6.03H45.252s-.276-4.281-2.44-6.03Zm0,0" transform="translate(-6.957 -312.029)" fill="#8bcaff"/>
    <path id="Trazado_875923" data-name="Trazado 875923" d="M7.76,486.3a12.881,12.881,0,0,0-.2,1.446H45.251a12.829,12.829,0,0,0-.2-1.446Zm0,0" transform="translate(-6.956 -447.54)" fill="#60b8ff"/>
    <path id="Trazado_875928" data-name="Trazado 875928" d="M7.979,39.6H1.274A13.824,13.824,0,0,1,1.593,38,6.579,6.579,0,0,1,3.42,34.641c1.75-1.415,9.154-5.381,11.591-6.673a4.536,4.536,0,0,0,8.873,0c.912.483,2.517,1.34,4.251,2.292a.6.6,0,0,0,.58-1.057c-2.091-1.148-3.995-2.157-4.731-2.546v-2.81c.143-.129.282-.264.417-.408a8.967,8.967,0,0,0,1.705-2.754,3.392,3.392,0,0,0,.594.054,2.957,2.957,0,0,0,2.432-1.275c1.1-1.487,1.264-4,.351-5.267-.04-.056-.082-.11-.125-.162,1.077-3.711.751-6.854-.971-9.349C25.929,1.125,21.463.1,19.949.009a5.678,5.678,0,0,0-4.314,1.73,3.209,3.209,0,0,0-2.707-.289c-1.6.538-2.991,2.315-3.627,4.636A8.824,8.824,0,0,0,9.037,7.78a.6.6,0,1,0,1.2.084A7.68,7.68,0,0,1,10.463,6.4C10.986,4.494,12.1,3,13.312,2.592a2.122,2.122,0,0,1,2.054.414.6.6,0,0,0,.845-.111,4.667,4.667,0,0,1,3.663-1.683c1.26.078,5.346,1.008,7.522,4.16,1.443,2.09,1.751,4.748.921,7.909a2.13,2.13,0,0,0-1.033-.083c-.006-.2-.014-.318-.015-.336a.6.6,0,0,0-.436-.54,17.5,17.5,0,0,1-9.415-6.128.6.6,0,0,0-1.065.113,15.709,15.709,0,0,1-4.529,6.162.6.6,0,0,0-.238.445c0,.016-.006.114-.011.279a2.117,2.117,0,0,0-1.011.094c-.164-1.161-.274-2.233-.326-3.2a.6.6,0,0,0-1.2.064c.063,1.178.21,2.511.435,3.963-.02.026-.039.051-.058.078-.912,1.268-.746,3.777.349,5.264A2.957,2.957,0,0,0,12.2,20.74a3.406,3.406,0,0,0,.587-.053,8.99,8.99,0,0,0,1.742,2.785c.125.132.255.256.387.376v2.81C13.116,27.6,4.655,32.093,2.662,33.7.32,35.6.012,39.978,0,40.164a.609.609,0,0,0,.6.641H7.979a.6.6,0,1,0,0-1.205ZM27.095,16.777a22.832,22.832,0,0,0,.189-2.346,1.02,1.02,0,0,1,1.222.47,3.872,3.872,0,0,1-.343,3.848,1.746,1.746,0,0,1-1.649.777,17.649,17.649,0,0,0,.581-2.749ZM22.779,27.021a3.331,3.331,0,0,1-6.663,0v-2.31a6.809,6.809,0,0,0,3.325.8h.028a6.829,6.829,0,0,0,3.31-.8ZM10.731,18.747A3.876,3.876,0,0,1,10.39,14.9a1.015,1.015,0,0,1,1.191-.479,22.8,22.8,0,0,0,.207,2.407,17.685,17.685,0,0,0,.585,2.7,1.748,1.748,0,0,1-1.641-.78Zm2.048-5.5A16.966,16.966,0,0,0,17.065,7.7a19.244,19.244,0,0,0,9.017,5.659c.031,1.486-.059,6.58-2.564,9.262a5.343,5.343,0,0,1-4.053,1.69A5.34,5.34,0,0,1,15.4,22.646c-2.619-2.767-2.652-8.152-2.622-9.4Zm0,0" transform="translate(0.001 0.001)"/>
    <path id="Trazado_875929" data-name="Trazado 875929" d="M151.921,390.03c-.012-.186-.32-4.566-2.662-6.46a49.3,49.3,0,0,0-5.407-3.328.6.6,0,1,0-.591,1.05,45.639,45.639,0,0,1,5.24,3.215c1.46,1.18,1.978,3.757,2.145,4.959H123.415a.6.6,0,0,0,0,1.205h27.9a.609.609,0,0,0,.6-.641Zm0,0" transform="translate(-113.024 -349.866)"/>
  </g>
</svg>
