<svg xmlns="http://www.w3.org/2000/svg" width="75.132" height="75.132" viewBox="0 0 75.132 75.132">
  <g id="Grupo_1132741" data-name="Grupo 1132741" transform="translate(0 0)">
    <g id="Grupo_1106730" data-name="Grupo 1106730" transform="translate(0 0)">
      <path id="Trazado_861606" data-name="Trazado 861606" d="M37.566,0A37.566,37.566,0,1,1,0,37.566,37.566,37.566,0,0,1,37.566,0Z" fill="#ffb6c8"/>
    </g>
    <g id="diversity_8034775" transform="translate(15.844 18.414)">
      <path id="Trazado_933688" data-name="Trazado 933688" d="M307.115,21.059a.3.3,0,0,1,.19.541c-3.429,2.759-4.794,4.427-3.322,5.9a1.724,1.724,0,0,0,2.438,0l-1.547,1.547a1.751,1.751,0,0,0-.073,2.422,1.724,1.724,0,0,0,2.482.045l1-1a1.724,1.724,0,0,0,2.438,2.438l1.313-1.313a1.724,1.724,0,1,0,2.438,2.438c2.3-2.3,8.666-8.244,3.321-13.589-5.193-5.193-8.027-3.168-11.919-3.168a1.869,1.869,0,1,0,0,3.738h1.242Z" transform="translate(-277.65 -16.296)" fill="#da9d81"/>
      <path id="Trazado_933689" data-name="Trazado 933689" d="M318.634,29.745c-10.876-1.357-10.452-7.7-9.134-12.11-1.176.109-2.344.329-3.627.329a1.869,1.869,0,1,0,0,3.738h1.242a.3.3,0,0,1,.19.541c-3.429,2.759-4.794,4.427-3.322,5.9a1.724,1.724,0,0,0,2.438,0l-1.547,1.547a1.751,1.751,0,0,0-.073,2.422,1.724,1.724,0,0,0,2.482.045l1-1A1.724,1.724,0,1,0,310.72,33.6l1.313-1.313a1.724,1.724,0,1,0,2.438,2.438A25.189,25.189,0,0,0,318.634,29.745Z" transform="translate(-277.65 -16.94)" fill="#c7856a"/>
      <path id="Trazado_933690" data-name="Trazado 933690" d="M11.613,304.558a.3.3,0,0,0,.541.19c2.759-3.429,4.427-4.794,5.9-3.322a1.724,1.724,0,0,1,0,2.438l1.547-1.547a1.751,1.751,0,0,1,2.422-.073,1.724,1.724,0,0,1,.045,2.482l-1,1a1.724,1.724,0,0,1,2.438,2.438l-1.313,1.313a1.724,1.724,0,1,1,2.438,2.438c-2.3,2.3-8.244,8.666-13.589,3.32-5.193-5.193-3.168-8.027-3.168-11.919a1.869,1.869,0,1,1,3.738,0v1.242Z" transform="translate(-6.851 -276.111)" fill="#ffdcce"/>
      <path id="Trazado_933691" data-name="Trazado 933691" d="M15.447,306.733a17.4,17.4,0,0,0-3.294,3.409.3.3,0,0,1-.541-.19V308.71a1.869,1.869,0,1,0-3.738,0c0,3.892-2.025,6.725,3.168,11.919,3.666,3.666,7.614,1.823,10.475-.439C13.805,318.667,13.945,310.688,15.447,306.733Z" transform="translate(-6.849 -281.505)" fill="#ffcabd"/>
      <path id="Trazado_933692" data-name="Trazado 933692" d="M27.163,21.059a.3.3,0,0,0-.19.541c3.429,2.759,4.794,4.427,3.322,5.9a1.724,1.724,0,0,1-2.438,0L29.4,29.046a1.751,1.751,0,0,1,.073,2.422,1.724,1.724,0,0,1-2.482.045l-1-1a1.724,1.724,0,0,1-2.438,2.438L22.245,31.64a1.724,1.724,0,1,1-2.438,2.438c-2.3-2.3-8.666-8.244-3.321-13.589,5.193-5.193,8.027-3.168,11.919-3.168a1.869,1.869,0,1,1,0,3.738H27.163Z" transform="translate(-13.182 -16.296)" fill="#fdd1a3"/>
      <path id="Trazado_933693" data-name="Trazado 933693" d="M20.175,26.115a13.846,13.846,0,0,0-3.691,2.778c-5.346,5.346,1.022,11.291,3.321,13.589a1.724,1.724,0,0,0,2.438-2.438l1.313,1.313A1.722,1.722,0,0,0,26.5,40.185c-8.811-3.385-8.1-10.691-6.322-14.07Z" transform="translate(-13.18 -24.7)" fill="#ffbb85"/>
      <path id="Trazado_933694" data-name="Trazado 933694" d="M310.006,304.558a.3.3,0,0,1-.541.19c-2.759-3.429-4.427-4.794-5.9-3.322a1.724,1.724,0,0,0,0,2.438l-1.547-1.547a1.751,1.751,0,0,0-2.422-.073,1.724,1.724,0,0,0-.045,2.482l1,1a1.724,1.724,0,0,0-2.438,2.438l1.313,1.313a1.724,1.724,0,0,0-2.438,2.438c2.3,2.3,8.244,8.666,13.589,3.32,5.193-5.193,3.168-8.027,3.168-11.919a1.869,1.869,0,1,0-3.738,0Z" transform="translate(-271.322 -276.111)" fill="#ffd3bc"/>
      <path id="Trazado_933695" data-name="Trazado 933695" d="M310.576,325.525c.353-.353.672-.7.961-1.028-6.629-1.516-8.812-7.357-9.111-11.481l-.408-.408a1.751,1.751,0,0,0-2.422-.073,1.724,1.724,0,0,0-.045,2.482l1,1a1.724,1.724,0,0,0-2.438,2.438l1.313,1.313a1.724,1.724,0,0,0-2.438,2.438C299.285,324.5,305.23,330.871,310.576,325.525Z" transform="translate(-271.322 -286.402)" fill="#ffbe9c"/>
      <path id="Trazado_933696" data-name="Trazado 933696" d="M135.039,126.663c0,3.6,3.594,7.691,7.894,10.266a4.609,4.609,0,0,0,4.738,0c4.3-2.575,7.895-6.661,7.895-10.266a5.727,5.727,0,0,0-9.643-4.18.911.911,0,0,1-1.24,0,5.727,5.727,0,0,0-9.643,4.18Z" transform="translate(-123.58 -111.473)" fill="#ff6e80"/>
      <path id="Trazado_933697" data-name="Trazado 933697" d="M141.693,121.009a5.724,5.724,0,0,0-6.654,5.653c0,3.6,3.594,7.691,7.894,10.266a4.609,4.609,0,0,0,4.738,0,22.829,22.829,0,0,0,2.876-2.039C140.088,134.419,137.812,125.754,141.693,121.009Z" transform="translate(-123.58 -111.472)" fill="#f8475e"/>
      <path id="Trazado_933698" data-name="Trazado 933698" d="M10.77,14.894a7.144,7.144,0,0,1-3.4.282.636.636,0,1,0-.225,1.253,8.369,8.369,0,0,0,4.043-.333.636.636,0,0,0-.418-1.2Zm5.655,9.449a.636.636,0,0,0-.636.636V26a.636.636,0,0,0,1.273,0V24.98A.636.636,0,0,0,16.424,24.344ZM6.362,45.249a.637.637,0,0,0,.626-.524,8.368,8.368,0,0,0-.333-4.043.636.636,0,0,0-1.2.418,7.141,7.141,0,0,1,.282,3.4.637.637,0,0,0,.627.749Zm10.9-3.477A2.364,2.364,0,0,0,16.058,38a2.361,2.361,0,0,0-.451-2.886,2.4,2.4,0,0,0-3.371.154,2.529,2.529,0,0,0-2.4-1.727c-1.01.054-2.13.668-4.436,3.423v-.312a2.505,2.505,0,1,0-5.011,0,19.476,19.476,0,0,1-.195,2.406c-.332,2.687-.675,5.466,3.03,9.426a.636.636,0,1,0,.929-.87c-3.3-3.525-3.019-5.784-2.7-8.4a20.473,20.473,0,0,0,.2-2.562,1.233,1.233,0,1,1,2.465,0v1.242a.941.941,0,0,0,1.674.589c1.435-1.783,3.044-3.613,4.1-3.67a1.07,1.07,0,0,1,.85.4,1.089,1.089,0,0,1,0,1.538L8.972,38.527a.636.636,0,1,0,.9.9l1.782-1.782L13.2,36.1a1.118,1.118,0,0,1,1.538-.057,1.087,1.087,0,0,1,.029,1.566L11.515,40.86a.636.636,0,0,0,.9.9l2.254-2.254a1.088,1.088,0,0,1,1.538,1.538l-2.644,2.644a.636.636,0,0,0,.9.9l1.33-1.33A1.088,1.088,0,0,1,17.332,44.8l-.254.255c-2.13,2.143-6.562,6.6-10.775,4.33a.636.636,0,0,0-.6,1.12c2.4,1.3,4.915.88,7.3-.47A24.969,24.969,0,0,0,18.233,45.7a2.364,2.364,0,0,0-.969-3.923Zm6.276-16.284a.636.636,0,0,0-.9.062,1.215,1.215,0,0,1-1.835,0,.636.636,0,1,0-.96.836,2.488,2.488,0,0,0,3.754,0A.636.636,0,0,0,23.539,25.488ZM36.077,15.177a7.143,7.143,0,0,1-3.4-.282.636.636,0,1,0-.418,1.2,8.368,8.368,0,0,0,4.043.333.636.636,0,1,0-.225-1.253ZM30.15,30.549a12.462,12.462,0,0,0,1.963-3.324,2.343,2.343,0,0,0,1.236-.52,2.36,2.36,0,0,0,3.923.969l.253-.251c1.863-1.852,5.33-5.3,5.336-9.214a6.989,6.989,0,0,0-2.268-5.024c-.213-.213-.426-.418-.633-.609a.636.636,0,1,0-.864.935c.2.18.4.373.6.574a5.691,5.691,0,0,1,1.9,4.122c-.005,3.387-3.229,6.591-4.961,8.313l-.255.254a1.087,1.087,0,1,1-1.538-1.538l1.33-1.33a.636.636,0,0,0-.9-.9c-2.729,2.729-2.652,2.659-2.737,2.726a6.32,6.32,0,0,0-.164-2.9l.974-.974a.636.636,0,1,0-.9-.9l-.605.605a6.409,6.409,0,0,0-1.371-1.7L31,19.313a.636.636,0,0,0-.9-.9l-.693.693a6.317,6.317,0,0,0-2.566-.811,18.4,18.4,0,0,1,3.21-3.053.941.941,0,0,0-.589-1.674H28.224a1.233,1.233,0,1,1,0-2.465,20.458,20.458,0,0,0,2.562-.2c2.009-.248,3.744-.462,6.009.863a.636.636,0,0,0,.643-1.1C34.8,9.12,32.681,9.382,30.63,9.635a19.476,19.476,0,0,1-2.406.195,2.505,2.505,0,1,0,0,5.011h.31a11.467,11.467,0,0,0-3.176,3.489,6.337,6.337,0,0,0-3.45,1.657.274.274,0,0,1-.37,0,6.337,6.337,0,0,0-3.45-1.657,11.466,11.466,0,0,0-3.176-3.489h.31a2.505,2.505,0,1,0,0-5.011,19.493,19.493,0,0,1-2.406-.195c-2.806-.347-5.708-.705-9.963,3.55A6.988,6.988,0,0,0,.586,18.209c.006,3.916,3.473,7.362,5.336,9.214l.253.251a2.364,2.364,0,0,0,3.924-.968,2.342,2.342,0,0,0,1.235.519c1.271,3.355,4.6,6.369,7.693,8.219a5.24,5.24,0,0,0,5.392,0,21.857,21.857,0,0,0,5.73-4.9ZM11.01,20.957a.636.636,0,0,0-.9.9l.974.974a6.319,6.319,0,0,0-.164,2.9c-.085-.068-.007,0-2.737-2.726a.636.636,0,0,0-.9.9l1.332,1.332a1.088,1.088,0,0,1-1.54,1.536l-.255-.254C5.088,24.8,1.865,21.594,1.859,18.207a5.691,5.691,0,0,1,1.9-4.122c3.815-3.815,6.174-3.524,8.906-3.186a20.458,20.458,0,0,0,2.562.2,1.233,1.233,0,0,1,0,2.465H13.982a.941.941,0,0,0-.589,1.674,18.4,18.4,0,0,1,3.21,3.053,6.318,6.318,0,0,0-2.566.811l-.693-.693a.636.636,0,0,0-.9.9l.543.543a6.406,6.406,0,0,0-1.371,1.7Zm12.755,13.4a3.969,3.969,0,0,1-4.084,0,20.556,20.556,0,0,1-5.39-4.6A8.58,8.58,0,0,1,12.1,24.632a5.091,5.091,0,0,1,8.572-3.716,1.547,1.547,0,0,0,2.111,0,5.091,5.091,0,0,1,8.572,3.716,8.58,8.58,0,0,1-2.195,5.121,20.56,20.56,0,0,1-5.39,4.6ZM37.6,40.29a.637.637,0,0,0-.81.392,8.369,8.369,0,0,0-.333,4.043.636.636,0,0,0,1.253-.225,7.142,7.142,0,0,1,.283-3.4A.637.637,0,0,0,37.6,40.29ZM27.023,24.344a.636.636,0,0,0-.636.636V26a.636.636,0,1,0,1.273,0V24.98A.636.636,0,0,0,27.023,24.344ZM43.254,39.053a19.458,19.458,0,0,1-.195-2.406,2.505,2.505,0,1,0-5.011,0v.31c-1.862-2.236-4.185-4.719-6.254-2.65a2.346,2.346,0,0,0-.581.957,2.4,2.4,0,0,0-3.371-.154A2.361,2.361,0,0,0,27.39,38a2.366,2.366,0,0,0-1.206,3.776,2.36,2.36,0,0,0-.969,3.923l.252.253c2.476,2.49,5.617,5.336,9.224,5.336A6.991,6.991,0,0,0,39.7,49.015C43.959,44.761,43.6,41.859,43.254,39.053ZM38.8,48.115a5.715,5.715,0,0,1-4.122,1.9c-3.387-.005-6.591-3.229-8.313-4.961l-.254-.255a1.087,1.087,0,1,1,1.538-1.538l1.33,1.33a.636.636,0,0,0,.9-.9l-1.33-1.33L27.24,41.043a1.087,1.087,0,0,1,1.538-1.538l2.254,2.254a.636.636,0,1,0,.9-.9L28.68,37.607a1.087,1.087,0,0,1,.029-1.566,1.118,1.118,0,0,1,1.538.057l1.547,1.547,1.782,1.782a.636.636,0,1,0,.9-.9l-1.782-1.782a1.089,1.089,0,0,1,0-1.538,1.069,1.069,0,0,1,.85-.4c1.06.057,2.669,1.887,4.1,3.67a.941.941,0,0,0,1.674-.589V36.647a1.233,1.233,0,1,1,2.465,0,20.457,20.457,0,0,0,.2,2.562c.338,2.732.629,5.091-3.186,8.906Z" transform="translate(-0.001 -9.442)"/>
    </g>
  </g>
</svg>
