<svg xmlns="http://www.w3.org/2000/svg" width="75.132" height="75.132" viewBox="0 0 75.132 75.132">
  <g id="Grupo_1140413" data-name="Grupo 1140413" transform="translate(0 0)">
    <g id="Grupo_1106733" data-name="Grupo 1106733" transform="translate(0 0)">
      <path id="Trazado_861606" data-name="Trazado 861606" d="M37.566,0A37.566,37.566,0,1,1,0,37.566,37.566,37.566,0,0,1,37.566,0Z" fill="#ffb6c8"/>
    </g>
    <g id="asistencia-social_1_" data-name="asistencia-social (1)" transform="translate(15.955 15.953)">
      <g id="Grupo_1134857" data-name="Grupo 1134857" transform="translate(0.844 14.052)">
        <path id="Trazado_939399" data-name="Trazado 939399" d="M18.1,185.231,15.341,182.3a5.078,5.078,0,0,1-1.377-3.477V168.436a1.982,1.982,0,0,0-1.553-1.935h0A1.982,1.982,0,0,0,10,168.436v13.09a7.377,7.377,0,0,0,1.362,4.27l1.506,2.121,3.6,5.074,1.271,1.79h9.6l-1.383-6.592a11.654,11.654,0,0,0-4.9-7.278L18.1,178.924a2.116,2.116,0,0,0-2.765.353h0a2.277,2.277,0,0,0,.048,3.073c1.617,1.714,4.023,4.276,4.023,4.276" transform="translate(-10 -166.453)" fill="#ffcdac"/>
        <path id="Trazado_939400" data-name="Trazado 939400" d="M305.826,185.231l2.756-2.933a5.078,5.078,0,0,0,1.377-3.477V168.436a1.982,1.982,0,0,1,1.553-1.935h0a1.982,1.982,0,0,1,2.411,1.935v13.09a7.377,7.377,0,0,1-1.362,4.27l-1.505,2.121-3.6,5.074-1.271,1.79h-9.6l1.383-6.592a11.654,11.654,0,0,1,4.9-7.278l2.953-1.986a2.116,2.116,0,0,1,2.765.353h0a2.277,2.277,0,0,1-.048,3.073c-1.617,1.714-4.023,4.276-4.023,4.276" transform="translate(-272.387 -166.453)" fill="#ffcdac"/>
      </g>
      <g id="Grupo_1134858" data-name="Grupo 1134858" transform="translate(8.728 15.163)">
        <path id="Trazado_939401" data-name="Trazado 939401" d="M280.137,182.365a3.116,3.116,0,0,1,1.521-.87l2.156-.517h0v-1.316h2.632v1.32h0l2.15.514a3.124,3.124,0,0,1,2.4,3.038v1.577h-4.766Z" transform="translate(-265.216 -179.658)" fill="#7d9bff"/>
        <path id="Trazado_939402" data-name="Trazado 939402" d="M114.247,182.314a3.115,3.115,0,0,0-1.521-.87l-2.156-.517h0v-1.316h-2.632v1.32h0l-2.15.514a3.124,3.124,0,0,0-2.4,3.038v1.577h4.766Z" transform="translate(-103.39 -179.611)" fill="#7d9bff"/>
      </g>
      <path id="Trazado_939403" data-name="Trazado 939403" d="M165.562,211.07l-3,.72a4.351,4.351,0,0,0-3.337,4.231v3.036h16.34v-3.033a4.351,4.351,0,0,0-3.34-4.232l-2.995-.715" transform="translate(-145.781 -193.251)" fill="#78d2fa"/>
      <path id="Trazado_939404" data-name="Trazado 939404" d="M237.979,189.357V191.2l-1.832,4.167-1.834-4.173v-1.833" transform="translate(-214.532 -173.371)" fill="#ffb487"/>
      <path id="Trazado_939405" data-name="Trazado 939405" d="M215.89,114.551v2.539a4.087,4.087,0,0,1-4.087,4.087h0a4.087,4.087,0,0,1-4.087-4.087v-2.539" transform="translate(-190.18 -104.88)" fill="#ffcdac"/>
      <path id="Trazado_939406" data-name="Trazado 939406" d="M211.8,64h0a4.087,4.087,0,0,0-4.087,4.087v.984h2a4.49,4.49,0,0,0,3.442-1.606h0l2.734,1.606v-.984A4.087,4.087,0,0,0,211.8,64Z" transform="translate(-190.18 -58.597)" fill="#bebebe"/>
      <path id="Trazado_939407" data-name="Trazado 939407" d="M143.983,93.252v-.706a2.934,2.934,0,0,0-2.934-2.934h0a2.934,2.934,0,0,0-2.934,2.934v.706h2.023a7,7,0,0,0,3.6-.995h0" transform="translate(-126.455 -82.046)" fill="#f5b955"/>
      <path id="Trazado_939408" data-name="Trazado 939408" d="M143.983,125.9v1.823a2.934,2.934,0,0,1-2.934,2.934h0a2.934,2.934,0,0,1-2.934-2.934V125.9" transform="translate(-126.455 -115.275)" fill="#ffcdac"/>
      <path id="Trazado_939409" data-name="Trazado 939409" d="M304.5,93.3V92.6a2.934,2.934,0,0,1,2.934-2.934h0a2.934,2.934,0,0,1,2.934,2.934V93.3h-2.023a7,7,0,0,1-3.6-.995h0" transform="translate(-278.793 -82.092)" fill="#f5b955"/>
      <path id="Trazado_939410" data-name="Trazado 939410" d="M304.5,125.955v1.823a2.934,2.934,0,0,0,2.934,2.934h0a2.934,2.934,0,0,0,2.934-2.934v-1.823" transform="translate(-278.793 -115.322)" fill="#ffcdac"/>
      <path id="Trazado_939411" data-name="Trazado 939411" d="M78.157,471.147a.844.844,0,1,0-1.377.977l1.271,1.79a.844.844,0,0,0,1.377-.977Z" transform="translate(-70.155 -431.046)"/>
      <path id="Trazado_939412" data-name="Trazado 939412" d="M17.63,178.857a12.433,12.433,0,0,0-5.258-7.805l-2.953-1.986a2.971,2.971,0,0,0-3.766.384V159.278a2.826,2.826,0,0,0-4.595-2.2A2.813,2.813,0,0,0,0,159.278v13.09a8.178,8.178,0,0,0,1.518,4.759l1.506,2.121A.844.844,0,1,0,4.4,178.27L2.9,176.15a6.5,6.5,0,0,1-1.206-3.782v-13.09a1.138,1.138,0,1,1,2.275,0v10.385a5.9,5.9,0,0,0,1.521,3.961c.042.05.085.1.131.149.561.594,1.22,1.294,1.841,1.954l.869.925.009.008,1.3,1.387a.844.844,0,1,0,1.231-1.156c-.015-.016-1-1.069-2.132-2.268L6.8,172.563l-.014-.016a1.425,1.425,0,0,1,.028-1.867,1.276,1.276,0,0,1,1.662-.212l2.953,1.986a10.753,10.753,0,0,1,4.548,6.751l1.383,6.593a.844.844,0,1,0,1.652-.347Z" transform="translate(-0.001 -143.243)"/>
      <path id="Trazado_939413" data-name="Trazado 939413" d="M57.416,441.929a.844.844,0,0,0-1.374.981l.005.008a.844.844,0,0,0,1.374-.981Z" transform="translate(-51.166 -404.296)"/>
      <path id="Trazado_939414" data-name="Trazado 939414" d="M304.553,157.076a2.826,2.826,0,0,0-4.595,2.2v10.173a2.971,2.971,0,0,0-3.766-.384l-2.953,1.986a12.432,12.432,0,0,0-5.258,7.805l-1.383,6.593a.844.844,0,1,0,1.652.347l1.383-6.592a10.753,10.753,0,0,1,4.548-6.751l2.953-1.986a1.276,1.276,0,0,1,1.662.212,1.425,1.425,0,0,1,.029,1.865l-.016.018-4.068,4.328a.844.844,0,1,0,1.231,1.156c.011-.012,3.461-3.68,4.022-4.274.046-.048.089-.1.131-.149a5.9,5.9,0,0,0,1.521-3.961V159.281a1.138,1.138,0,1,1,2.275,0v13.09a6.5,6.5,0,0,1-1.206,3.782l-6.378,8.985a.844.844,0,1,0,1.377.977l6.378-8.985a8.178,8.178,0,0,0,1.517-4.759v-13.09A2.814,2.814,0,0,0,304.553,157.076Z" transform="translate(-262.386 -143.245)"/>
      <path id="Trazado_939415" data-name="Trazado 939415" d="M115.288,76.091a.844.844,0,0,0,.844-.844V72.213c0-.1,0-.208-.01-.312h3.89a.844.844,0,0,0,.844-.844V69.481a3.955,3.955,0,0,0-3.046-3.859l-1.5-.359v-.269a3.776,3.776,0,0,0,1.616-3.1V59.945a3.775,3.775,0,0,0-6.23-2.872,4.929,4.929,0,0,0-9.136.007,3.775,3.775,0,0,0-6.238,2.865V61.9a3.776,3.776,0,0,0,1.616,3.1v.269l-1.5.359a3.955,3.955,0,0,0-3.046,3.859v1.577a.844.844,0,0,0,.844.844h3.879c-.006.1-.01.205-.01.309v3.036a.844.844,0,0,0,.844.844h5.075a.844.844,0,0,0,0-1.688h-.872V72.657a.844.844,0,1,0-1.688,0V74.4h-1.67V72.211a3.5,3.5,0,0,1,2.689-3.41l2.317-.555,1.55,3.527a.844.844,0,0,0,.773.5h0a.844.844,0,0,0,.773-.5l1.549-3.522,2.309.552a3.5,3.5,0,0,1,2.692,3.41V74.4h-1.67V72.657a.844.844,0,1,0-1.688,0V74.4h-.957a.844.844,0,0,0,0,1.688ZM104.443,65.848a3.961,3.961,0,0,0-.676-.228l-1.508-.361V65a3.809,3.809,0,0,0,.732-.668,4.97,4.97,0,0,0,1.452,1.456ZM98.01,61.9v-.4h1.178a7.843,7.843,0,0,0,3-.6v1a2.09,2.09,0,0,1-4.18,0Zm5.876-.247v-.892h1.154a5.319,5.319,0,0,0,3.587-1.386l1.741,1.023v1.378a3.242,3.242,0,0,1-6.482-.124Zm5.912,4.2v-.057a4.968,4.968,0,0,0,1.464-1.459,3.808,3.808,0,0,0,.726.661v.263l-1.508.361A3.973,3.973,0,0,0,109.8,65.851Zm2.259-3.954v-.123c0-.041,0-.082,0-.123V60.9a7.842,7.842,0,0,0,3,.6h1.178v.4a2.09,2.09,0,1,1-4.18,0Zm2.09-4.043a2.093,2.093,0,0,1,2.085,1.952h-1.174a6.153,6.153,0,0,1-2.831-.69A2.093,2.093,0,0,1,114.147,57.855Zm-10.261,1.076a3.243,3.243,0,0,1,6.445-.515l-1.421-.835a.844.844,0,0,0-1.075.186,3.637,3.637,0,0,1-2.795,1.3h-1.154v-.14ZM100.1,57.855a2.093,2.093,0,0,1,1.919,1.262,6.154,6.154,0,0,1-2.831.69H98.015A2.093,2.093,0,0,1,100.1,57.855Zm1.988,9.3A5.178,5.178,0,0,0,98.5,70.213H95.078v-.732a2.272,2.272,0,0,1,1.75-2.217l2.15-.514a.844.844,0,0,0,.648-.821v-.284a3.664,3.664,0,0,0,.944,0v.241c0,.013,0,.025,0,.038a.846.846,0,0,0,.686.831l1.259.3Zm5.034,2.177-.99-2.253v-.6a4.948,4.948,0,0,0,1.978,0v.6Zm5.023-2.175-.424-.1,1.266-.3a.845.845,0,0,0,.69-.831c0-.007,0-.013,0-.02v-.259a3.664,3.664,0,0,0,.944,0v.284a.844.844,0,0,0,.648.821l2.15.514a2.272,2.272,0,0,1,1.75,2.217v.732h-3.433A5.176,5.176,0,0,0,112.145,67.161Z" transform="translate(-85.506 -49.441)"/>
      <path id="Trazado_939416" data-name="Trazado 939416" d="M246.844,295.67a.843.843,0,1,0,.6.247A.848.848,0,0,0,246.844,295.67Z" transform="translate(-225.232 -270.709)"/>
      <path id="Trazado_939417" data-name="Trazado 939417" d="M246.838,2.952a.844.844,0,0,0,.844-.844V.844a.844.844,0,1,0-1.688,0V2.107A.844.844,0,0,0,246.838,2.952Z" transform="translate(-225.227)"/>
      <path id="Trazado_939418" data-name="Trazado 939418" d="M192.733,21.539a.844.844,0,1,0,1.193-1.194l-.886-.885a.844.844,0,1,0-1.193,1.194Z" transform="translate(-175.424 -17.591)"/>
      <path id="Trazado_939419" data-name="Trazado 939419" d="M290.59,22.037a.841.841,0,0,0,.6-.248l.879-.88a.844.844,0,0,0-1.195-1.193l-.879.88a.844.844,0,0,0,.6,1.441Z" transform="translate(-265.285 -17.826)"/>
    </g>
  </g>
</svg>
