<svg id="Grupo_1143305" data-name="Grupo 1143305" xmlns="http://www.w3.org/2000/svg" xmlns:xlink="http://www.w3.org/1999/xlink" width="133.574" height="120.654" viewBox="0 0 133.574 120.654">
  <defs>
    <clipPath id="clip-path">
      <path id="doctor-hombre-adulto-pie-derecho-oficina-hospital" d="M30.285-19.778c15.464,0,28.664,17.27,41.052,32.866,8.688,10.937,16.6,20.265,16.6,31.371,0,10.761-3.038,16.809-5.937,22.53-4.008,7.915-9.549,13.59-20.169,20.7-17.849,11.958-34.644-3.459-48.324-9.815C2.752,72.881-10.068,70.5-18.8,65.206c-3.232-1.96-13.721-8.3-11.041-20.567C-27.378,33.394-11.253,20.8-5.387,13.6,6.355-.8,16.309-19.778,30.285-19.778Z" transform="translate(30.274 19.778)" fill="#3c1c74"/>
    </clipPath>
  </defs>
  <g id="Grupo_1072178" data-name="Grupo 1072178" transform="translate(0 0)">
    <path id="doctor-hombre-adulto-pie-derecho-oficina-hospital-2" data-name="doctor-hombre-adulto-pie-derecho-oficina-hospital" d="M30.285-19.778c15.464,0,28.664,17.27,41.052,32.866,8.688,10.937,16.6,20.265,16.6,31.371,0,10.761-3.038,16.809-5.937,22.53-4.008,7.915-9.549,13.59-20.169,20.7-17.849,11.958-34.644-3.459-48.324-9.815C2.752,72.881-10.068,70.5-18.8,65.206c-3.232-1.96-13.721-8.3-11.041-20.567C-27.378,33.394-11.253,20.8-5.387,13.6,6.355-.8,16.309-19.778,30.285-19.778Z" transform="translate(36.131 19.778)" fill="#bad1ff"/>
    <g id="Elipse_4857" data-name="Elipse 4857" transform="translate(0 21.962)" fill="none" stroke="#bad1ff" stroke-width="1">
      <ellipse cx="10.737" cy="10.737" rx="10.737" ry="10.737" stroke="none"/>
      <ellipse cx="10.737" cy="10.737" rx="10.237" ry="10.237" fill="none"/>
    </g>
    <ellipse id="Elipse_4858" data-name="Elipse 4858" cx="5.24" cy="4.716" rx="5.24" ry="4.716" transform="translate(117.391 23.267)" fill="#bad1ff"/>
    <path id="Trazado_115346" data-name="Trazado 115346" d="M7.746,0c4.278,0,7.746,3.1,7.746,6.931,0,2.048-.493,3.842-2.286,4.917-1.157.7-3.471.822-5.46.822C3.468,12.67,0,10.759,0,6.931S3.468,0,7.746,0Z" transform="translate(43.359 107.985)" fill="#bad1ff"/>
  </g>
  <g id="doctor_921059" transform="translate(-18.977 13.417)">
    <path id="Trazado_916489" data-name="Trazado 916489" d="M120.4,343.262l-13.7-4.029H82.908l-13.7,4.029a7.8,7.8,0,0,0-5.6,7.481v15.284h62.379V350.742A7.8,7.8,0,0,0,120.4,343.262Z" transform="translate(-6.285 -284.237)" fill="#edebed"/>
    <path id="Trazado_916490" data-name="Trazado 916490" d="M215.483,370.168h-13l-2.6-25.991h18.194Z" transform="translate(-120.466 -288.379)" fill="#a5cdff"/>
    <path id="Trazado_916491" data-name="Trazado 916491" d="M200.479,350.089a12.95,12.95,0,0,0,17.012,0l.591-5.912H199.888Z" transform="translate(-120.466 -288.379)" fill="#8cb4eb"/>
    <path id="Trazado_916492" data-name="Trazado 916492" d="M208.985,282.21h0a9.1,9.1,0,0,1-9.1-9.1v-9.1h18.194v9.1A9.1,9.1,0,0,1,208.985,282.21Z" transform="translate(-120.466 -221.214)" fill="#c17c46"/>
    <path id="Trazado_916493" data-name="Trazado 916493" d="M199.888,270.814a19.147,19.147,0,0,0,18.194,0v-6.8H199.888Z" transform="translate(-120.466 -221.214)" fill="#a16131"/>
    <path id="Trazado_916494" data-name="Trazado 916494" d="M160.664,92.641h-1.949v-13H124.926v13h-1.949a3.249,3.249,0,1,0,0,6.5h2.015a16.878,16.878,0,0,0,33.658,0h2.015a3.249,3.249,0,1,0,0-6.5Z" transform="translate(-53.302 -66.733)" fill="#c17c46"/>
    <path id="Trazado_916495" data-name="Trazado 916495" d="M125.014,79.645v13H123.2a3.323,3.323,0,0,0-3.245,2.367,3.259,3.259,0,0,0,3.131,4.131h2a16.775,16.775,0,0,0,19.436,15.376,16.883,16.883,0,0,1-14.3-16.675V89.672a3.891,3.891,0,0,1,4.4-3.831,32.922,32.922,0,0,0,3.9.224,51.236,51.236,0,0,0,12.836-1.83,10.027,10.027,0,0,0,6.045-4.59Z" transform="translate(-53.39 -66.733)" fill="#a16131"/>
    <path id="Trazado_916496" data-name="Trazado 916496" d="M144.694,47.534l.162,5.2s-3.9,3.9-3.9,9.1v1.6a2.6,2.6,0,0,1-2.277,2.579l-2.922.365V55.332C135.759,51.025,139.82,47.318,144.694,47.534Z" transform="translate(-66.734 -39.821)" fill="#365e7d"/>
    <path id="Trazado_916497" data-name="Trazado 916497" d="M271.571,323.783,269,321.209l2.755-3.673a1.591,1.591,0,0,0-.561-2.378l-6.092-3.046L256,343.3h7.8l8.259-16.518A2.6,2.6,0,0,0,271.571,323.783Z" transform="translate(-167.482 -261.513)" fill="#dbd9dc"/>
    <path id="Trazado_916498" data-name="Trazado 916498" d="M320.292,23.485l-.162,9.1s3.9,3.9,3.9,9.1v1.6a2.6,2.6,0,0,0,2.277,2.579l2.922.365V31.283C329.227,26.976,325.166,23.269,320.292,23.485Z" transform="translate(-221.215 -19.67)" fill="#365e7d"/>
    <path id="Trazado_916499" data-name="Trazado 916499" d="M156.027,323.783l2.574-2.574-2.755-3.673a1.591,1.591,0,0,1,.561-2.378l6.092-3.046,9.1,31.19h-7.8l-8.259-16.518A2.6,2.6,0,0,1,156.027,323.783Z" transform="translate(-83.079 -261.513)" fill="#dbd9dc"/>
    <path id="Trazado_916500" data-name="Trazado 916500" d="M158.249,7.5c-10.842,0-12.92,3.3-21.269,5.955a.91.91,0,0,0-.508,1.355c1.812,2.834,8.555,10.22,27.712,5.2a6.071,6.071,0,0,0,4.423-4.67h0a6.076,6.076,0,0,0-3.482-6.437A16,16,0,0,0,158.249,7.5Z" transform="translate(-67.213 -6.284)" fill="#284c68"/>
    <rect id="Rectángulo_404467" data-name="Rectángulo 404467" width="12.995" height="7.798" transform="translate(63.826 73.991)" fill="#a5cdff"/>
    <path id="Trazado_916501" data-name="Trazado 916501" d="M201.621,160.322a1.216,1.216,0,0,0-1.216,1.216v1.3a1.216,1.216,0,0,0,2.432,0v-1.3A1.216,1.216,0,0,0,201.621,160.322Z" transform="translate(-120.9 -134.331)"/>
    <path id="Trazado_916502" data-name="Trazado 916502" d="M297.814,160.322a1.216,1.216,0,0,0-1.216,1.216v1.3a1.216,1.216,0,0,0,2.432,0v-1.3A1.216,1.216,0,0,0,297.814,160.322Z" transform="translate(-201.498 -134.331)"/>
    <path id="Trazado_916503" data-name="Trazado 916503" d="M234.321,218.516a1.216,1.216,0,1,0-1.708-1.731,5.359,5.359,0,0,1-6.09,0,1.216,1.216,0,0,0-1.708,1.731,7.67,7.67,0,0,0,9.505,0Z" transform="translate(-141.05 -181.347)"/>
    <path id="Trazado_916504" data-name="Trazado 916504" d="M196.2,136.274h-2.6a1.216,1.216,0,0,0,0,2.432h2.6a1.216,1.216,0,1,0,0-2.432Z" transform="translate(-114.183 -114.181)"/>
    <path id="Trazado_916505" data-name="Trazado 916505" d="M289.8,138.706h2.6a1.216,1.216,0,0,0,0-2.432h-2.6a1.216,1.216,0,0,0,0,2.432Z" transform="translate(-194.781 -114.181)"/>
    <path id="Trazado_916506" data-name="Trazado 916506" d="M114.56,57.915,105.8,55.221a2.788,2.788,0,0,0-1.544-2.663l-5.42-2.71V45.983a18.137,18.137,0,0,0,7.623-12.362h.723a4.607,4.607,0,0,0,4.627-4.009,4.458,4.458,0,0,0-2.576-4.51V11.612A9.023,9.023,0,0,0,100.215,2.6h-.206A15.329,15.329,0,0,0,91.037,0,31,31,0,0,0,75.912,3.414,52.734,52.734,0,0,1,68.359,6.33a1.216,1.216,0,0,0-.781,1.636,11.032,11.032,0,0,0,1.982,2.882c-.605.745-1.751,2.65-1.751,6.4v7.913a4.435,4.435,0,0,0,1.866,8.465h.908a18.131,18.131,0,0,0,7.623,12.364v3.863l-5.42,2.71a2.788,2.788,0,0,0-1.544,2.663l-8.764,2.694a8.968,8.968,0,0,0-6.364,8.615V81.789a1.216,1.216,0,0,0,2.432,0V66.531a6.548,6.548,0,0,1,4.647-6.291l9.116-2.8,1.609,2.145-1.828,1.828a3.81,3.81,0,0,0-.715,4.4l3.481,6.961H71.541V71.393a1.216,1.216,0,1,0-2.432,0v1.383H63.827a1.216,1.216,0,0,0-1.216,1.216v7.8A1.216,1.216,0,0,0,63.827,83h13a1.216,1.216,0,0,0,1.216-1.216V79.142l1.6,3.191a1.216,1.216,0,0,0,2.175-1.088L73.55,64.727a1.382,1.382,0,0,1,.259-1.6l2.574-2.574a1.216,1.216,0,0,0,.113-1.589l-2.755-3.673a.376.376,0,0,1,.132-.561l4.789-2.394L82.043,63.93a1.216,1.216,0,1,0,2.335-.681l-.533-1.827a14.227,14.227,0,0,0,9.347,0L88.519,77.446l-2.624-9a1.216,1.216,0,1,0-2.335.681l3.791,13a1.216,1.216,0,0,0,2.335,0l8.689-29.791,4.789,2.394a.375.375,0,0,1,.133.561l-2.755,3.673a1.216,1.216,0,0,0,.113,1.589l2.574,2.574a1.381,1.381,0,0,1,.259,1.6L95.229,81.245A1.216,1.216,0,1,0,97.4,82.333l8.259-16.518a3.81,3.81,0,0,0-.714-4.4l-1.828-1.828,1.609-2.145,9.116,2.8a6.548,6.548,0,0,1,4.647,6.291V81.789a1.216,1.216,0,1,0,2.432,0V66.531A8.968,8.968,0,0,0,114.56,57.915ZM75.607,80.573H65.043V75.207h4.066v.084a1.216,1.216,0,1,0,2.432,0v-.084h4.066v5.366Zm1.31-74.944a28.639,28.639,0,0,1,14.12-3.2c4.486,0,8.494,1.877,9.324,4.367a1.216,1.216,0,0,0,2.307-.769,5.736,5.736,0,0,0-.248-.618,6.592,6.592,0,0,1,4.376,6.2V24.692h-1.383a1.385,1.385,0,0,1-1.383-1.383v-1.3c0-5.637-4.081-9.783-4.255-9.957a1.217,1.217,0,0,0-1.226-.3c-6.75,2.132-16.267,3.928-23.273.383A13.08,13.08,0,0,1,70.536,8.2,59.807,59.807,0,0,0,76.916,5.629ZM96.4,50.426l-2.322,7.962a11.8,11.8,0,0,1-11.117,0l-2.323-7.963V47.409a18.084,18.084,0,0,0,15.762,0Zm-7.881-3.641A15.7,15.7,0,0,1,72.84,31.106a1.216,1.216,0,0,0-2.432,0v.084h-.733a2.034,2.034,0,0,1-2.022-2.247,2.157,2.157,0,0,1,2.208-1.819h1.764a3.819,3.819,0,0,0,3.815-3.815V18.719a1.216,1.216,0,0,0-2.432,0v4.589a1.385,1.385,0,0,1-1.383,1.383H70.241V17.244a8.2,8.2,0,0,1,1.111-4.735,16.713,16.713,0,0,0,2.634,1.7,22.7,22.7,0,0,0,9.748,2.364,46.018,46.018,0,0,0,14.792-2.265,12.814,12.814,0,0,1,3.072,7.7v1.3a3.819,3.819,0,0,0,3.815,3.815h1.949a2.033,2.033,0,0,1,2.022,2.247,2.157,2.157,0,0,1-2.208,1.819h-.549v-.071a1.216,1.216,0,0,0-1.215-1.216h0a1.216,1.216,0,0,0-1.216,1.215A15.7,15.7,0,0,1,88.519,46.784Z" transform="translate(0)"/>
    <path id="Trazado_916507" data-name="Trazado 916507" d="M368.441,436.12h-2.033v-2.033a1.216,1.216,0,1,0-2.432,0v2.033h-2.033a1.216,1.216,0,1,0,0,2.432h2.033v2.033a1.216,1.216,0,1,0,2.432,0v-2.033h2.033a1.216,1.216,0,1,0,0-2.432Z" transform="translate(-255.23 -362.694)"/>
  </g>
</svg>
