<svg xmlns="http://www.w3.org/2000/svg" xmlns:xlink="http://www.w3.org/1999/xlink" width="133.574" height="120.655" viewBox="0 0 133.574 120.655">
  <defs>
    <clipPath id="clip-path">
      <path id="doctor-hombre-adulto-pie-derecho-oficina-hospital" d="M30.285-19.778c15.464,0,28.664,17.27,41.052,32.866,8.688,10.937,16.6,20.265,16.6,31.371,0,10.761-3.038,16.809-5.937,22.53-4.008,7.915-9.549,13.59-20.169,20.7-17.849,11.958-34.644-3.459-48.324-9.815C2.752,72.881-10.068,70.5-18.8,65.206c-3.232-1.96-13.721-8.3-11.041-20.567C-27.378,33.394-11.253,20.8-5.387,13.6,6.355-.8,16.309-19.778,30.285-19.778Z" transform="translate(30.274 19.778)" fill="#3c1c74"/>
    </clipPath>
  </defs>
  <g id="Grupo_1140414" data-name="Grupo 1140414" transform="translate(0 0)">
    <g id="Grupo_1072178" data-name="Grupo 1072178" transform="translate(0 0)">
      <path id="doctor-hombre-adulto-pie-derecho-oficina-hospital-2" data-name="doctor-hombre-adulto-pie-derecho-oficina-hospital" d="M30.285-19.778c15.464,0,28.664,17.27,41.052,32.866,8.688,10.937,16.6,20.265,16.6,31.371,0,10.761-3.038,16.809-5.937,22.53-4.008,7.915-9.549,13.59-20.169,20.7-17.849,11.958-34.644-3.459-48.324-9.815C2.752,72.881-10.068,70.5-18.8,65.206c-3.232-1.96-13.721-8.3-11.041-20.567C-27.378,33.394-11.253,20.8-5.387,13.6,6.355-.8,16.309-19.778,30.285-19.778Z" transform="translate(36.131 19.778)" fill="#bad1ff"/>
      <g id="Elipse_4857" data-name="Elipse 4857" transform="translate(0 21.962)" fill="none" stroke="#bad1ff" stroke-width="1">
        <ellipse cx="10.737" cy="10.737" rx="10.737" ry="10.737" stroke="none"/>
        <ellipse cx="10.737" cy="10.737" rx="10.237" ry="10.237" fill="none"/>
      </g>
      <ellipse id="Elipse_4858" data-name="Elipse 4858" cx="5.24" cy="4.716" rx="5.24" ry="4.716" transform="translate(117.391 23.267)" fill="#bad1ff"/>
      <path id="Trazado_115346" data-name="Trazado 115346" d="M7.746,0c4.278,0,7.746,3.1,7.746,6.931,0,2.048-.493,3.842-2.286,4.917-1.157.7-3.471.822-5.46.822C3.468,12.67,0,10.759,0,6.931S3.468,0,7.746,0Z" transform="translate(43.359 107.985)" fill="#bad1ff"/>
    </g>
    <g id="salud-publica" transform="translate(31.585 23.367)">
      <path id="Trazado_862025" data-name="Trazado 862025" d="M205.538,190.152a6.46,6.46,0,0,0-4.171-5.7,4.392,4.392,0,0,0-4.855,1.382h0l-1.443,1.641a1.084,1.084,0,0,1-1.627,0L192,185.833a4.476,4.476,0,0,0-3.39-1.627,4.622,4.622,0,0,0-1.465.245,6.46,6.46,0,0,0-4.171,5.7c-.372,4.78,3.732,9.8,11.282,13.826,7.55-4.026,11.654-9.046,11.282-13.826Z" transform="translate(-155.874 -158.357)" fill="#e94444"/>
      <path id="Trazado_862026" data-name="Trazado 862026" d="M84.764,30.429V54.435a1.079,1.079,0,0,1-.058.348A142.6,142.6,0,0,1,71.5,82.749l.937,7.132a1.083,1.083,0,1,1-2.148.282L69.3,82.653a1.084,1.084,0,0,1,.149-.705A140.776,140.776,0,0,0,82.6,54.256V30.429a.12.12,0,0,0-.119-.119,4.253,4.253,0,0,0-4.143,4.2L77.4,50.685a1.082,1.082,0,0,1-.207.578L69.553,61.709,67.9,69.275a1.083,1.083,0,0,1-2.117-.462L69.242,52.98A2.44,2.44,0,0,0,68,50c-1.049-.426-2.59-.142-3.486,2.059L56.94,70.641a18.718,18.718,0,0,0-1.16,8.843l.737,10.462a1.083,1.083,0,0,1-2.161.152l-.737-10.463a20.736,20.736,0,0,1,1.315-9.812L62.506,51.24c1.395-3.427,4.247-4.086,6.307-3.249a4.563,4.563,0,0,1,2.546,5.45L70.7,56.48l4.565-6.239.912-15.851a6.392,6.392,0,0,1,6.307-6.246,2.288,2.288,0,0,1,2.285,2.285ZM30.258,51.241c-1.395-3.427-4.248-4.086-6.306-3.25a4.563,4.563,0,0,0-2.547,5.451l.663,3.037L17.5,50.241l-.912-15.85a6.392,6.392,0,0,0-6.307-6.247A2.288,2.288,0,0,0,8,30.429V54.435a1.082,1.082,0,0,0,.057.348A142.368,142.368,0,0,0,21.265,82.749l-.937,7.132a1.083,1.083,0,1,0,2.148.282l.987-7.511a1.084,1.084,0,0,0-.149-.705A140.545,140.545,0,0,1,10.167,54.256V30.429a.12.12,0,0,1,.119-.119,4.253,4.253,0,0,1,4.143,4.2l.93,16.171a1.083,1.083,0,0,0,.207.578L23.21,61.709l1.652,7.566a1.083,1.083,0,0,0,2.117-.462L23.523,52.981A2.44,2.44,0,0,1,24.767,50c1.047-.426,2.589-.142,3.485,2.059l7.572,18.584a18.72,18.72,0,0,1,1.16,8.842l-.737,10.463a1.083,1.083,0,0,0,2.161.152l.737-10.464a20.737,20.737,0,0,0-1.315-9.811L30.258,51.241ZM46.879,64.992a1.083,1.083,0,0,1-1,0c-4.665-2.413-8.143-5.152-10.339-8.143a12.068,12.068,0,0,1-2.606-8.037,9.153,9.153,0,0,1,.6-2.611H22.679A1.083,1.083,0,0,1,21.6,45.117V35.8a6.143,6.143,0,0,1,5.977-5.956,8.755,8.755,0,0,1-1.612-5.17,5.782,5.782,0,0,1,11.564,0,8.754,8.754,0,0,1-1.613,5.171,6.677,6.677,0,0,1,2.175.491,6.957,6.957,0,0,1,3.974-1.384,9.265,9.265,0,0,1-1.812-5.634,6.133,6.133,0,0,1,12.266,0A9.265,9.265,0,0,1,50.7,28.952a6.958,6.958,0,0,1,3.976,1.385,6.631,6.631,0,0,1,2.174-.492,8.754,8.754,0,0,1-1.613-5.171,5.782,5.782,0,1,1,11.564,0,8.754,8.754,0,0,1-1.612,5.17A6.143,6.143,0,0,1,71.168,35.8v9.318A1.083,1.083,0,0,1,70.085,46.2H59.226a9.154,9.154,0,0,1,.6,2.611,12.068,12.068,0,0,1-2.606,8.037c-2.2,2.991-5.674,5.73-10.339,8.143ZM64.829,32H57.213a4.492,4.492,0,0,0-.92.1,6,6,0,0,1,.915,3.18v7.832a8.615,8.615,0,0,1,.809.925h6.088V38.12a1.083,1.083,0,0,1,2.167,0v5.914H69V35.8A4,4,0,0,0,64.829,32Zm-7.423-7.326c0,2.142,1.122,5.159,3.615,5.159s3.615-3.017,3.615-5.159a3.615,3.615,0,1,0-7.23,0Zm-14.99-1.356c0,2.337,1.231,5.629,3.966,5.629s3.966-3.292,3.966-5.629a3.966,3.966,0,0,0-7.932,0ZM37.721,35.277v6.3a7.476,7.476,0,0,1,.863-.35,6.927,6.927,0,0,1,1.449-.318v-4.7a1.083,1.083,0,0,1,2.167,0v4.832a6.829,6.829,0,0,1,3.551,2.191l.63.716.63-.716a6.828,6.828,0,0,1,3.551-2.192V36.207a1.083,1.083,0,1,1,2.167,0v4.7a6.932,6.932,0,0,1,1.449.318,7.47,7.47,0,0,1,.863.35v-6.3a4.384,4.384,0,0,0-4.567-4.164H42.288a4.384,4.384,0,0,0-4.567,4.164Zm-9.594-10.6c0,2.142,1.122,5.159,3.615,5.159s3.615-3.017,3.615-5.159a3.615,3.615,0,0,0-7.23,0Zm6.619,19.36a8.627,8.627,0,0,1,.809-.925V35.277A6.005,6.005,0,0,1,36.47,32.1a4.511,4.511,0,0,0-.92-.1H27.934a4,4,0,0,0-4.172,3.8v8.235h2.729V38.12a1.083,1.083,0,0,1,2.167,0v5.914h6.088ZM57.664,48.98a6.46,6.46,0,0,0-4.171-5.7,4.392,4.392,0,0,0-4.855,1.382h0L47.2,46.3a1.084,1.084,0,0,1-1.627,0l-1.443-1.641a4.476,4.476,0,0,0-3.39-1.627,4.621,4.621,0,0,0-1.465.245,6.46,6.46,0,0,0-4.171,5.7c-.372,4.78,3.732,9.8,11.282,13.826,7.55-4.026,11.654-9.046,11.282-13.826Zm-5.272,2.235v3.549a1.083,1.083,0,0,1-1.083,1.083H49.237v2.067A1.083,1.083,0,0,1,48.154,59H44.609a1.083,1.083,0,0,1-1.083-1.083V55.847H41.455a1.083,1.083,0,0,1-1.083-1.083V51.215a1.083,1.083,0,0,1,1.083-1.083h2.071V48.065a1.083,1.083,0,0,1,1.083-1.083h3.545a1.083,1.083,0,0,1,1.083,1.083v2.067h2.071A1.083,1.083,0,0,1,52.392,51.215ZM50.225,52.3H48.154a1.083,1.083,0,0,1-1.083-1.083V49.148H45.693v2.067A1.083,1.083,0,0,1,44.609,52.3H42.539v1.382h2.071a1.083,1.083,0,0,1,1.083,1.083v2.067h1.378V54.764a1.083,1.083,0,0,1,1.083-1.083h2.071Z" transform="translate(-8 -17.185)"/>
      <path id="Trazado_862027" data-name="Trazado 862027" d="M235.7,225.779v-2.067h-1.378v2.067a1.083,1.083,0,0,1-1.083,1.083h-2.071v1.382h2.071a1.083,1.083,0,0,1,1.083,1.083v2.067H235.7v-2.067a1.083,1.083,0,0,1,1.083-1.083h2.071v-1.382h-2.071A1.083,1.083,0,0,1,235.7,225.779Z" transform="translate(-196.629 -191.749)" fill="#ebebeb"/>
      <path id="Trazado_862028" data-name="Trazado 862028" d="M121.639,116.184a6.005,6.005,0,0,1,.915-3.181,4.51,4.51,0,0,0-.92-.1h-7.616a4,4,0,0,0-4.172,3.8v8.235h2.729v-5.914a1.083,1.083,0,1,1,2.167,0v5.914h6.088a8.629,8.629,0,0,1,.809-.925v-7.832Z" transform="translate(-94.084 -98.092)" fill="#fec165"/>
      <path id="Trazado_862029" data-name="Trazado 862029" d="M141.665,50.986c2.494,0,3.615-3.017,3.615-5.159a3.615,3.615,0,0,0-7.23,0C138.05,47.969,139.172,50.986,141.665,50.986Z" transform="translate(-117.923 -38.338)" fill="#fdd7ad"/>
      <path id="Trazado_862030" data-name="Trazado 862030" d="M202.354,116.973v-4.7a1.083,1.083,0,0,1,2.167,0v4.832a6.829,6.829,0,0,1,3.551,2.191l.63.716.63-.716a6.828,6.828,0,0,1,3.551-2.192v-4.831a1.083,1.083,0,0,1,2.167,0v4.7a6.928,6.928,0,0,1,1.449.318,7.473,7.473,0,0,1,.863.35v-6.3a4.384,4.384,0,0,0-4.567-4.163h-8.186a4.384,4.384,0,0,0-4.567,4.163v6.3a7.484,7.484,0,0,1,.863-.35,6.926,6.926,0,0,1,1.449-.318Z" transform="translate(-170.32 -93.252)" fill="#0473ce"/>
      <path id="Trazado_862031" data-name="Trazado 862031" d="M330.848,50.986c2.494,0,3.615-3.017,3.615-5.159a3.615,3.615,0,1,0-7.23,0C327.233,47.969,328.355,50.986,330.848,50.986Z" transform="translate(-277.827 -38.338)" fill="#fdd7ad"/>
      <path id="Trazado_862032" data-name="Trazado 862032" d="M234.34,40.78c2.736,0,3.966-3.292,3.966-5.629a3.966,3.966,0,0,0-7.932,0C230.374,37.488,231.6,40.78,234.34,40.78Z" transform="translate(-195.958 -29.018)" fill="#fdd7ad"/>
      <path id="Trazado_862033" data-name="Trazado 862033" d="M328.579,112.907h-7.616a4.49,4.49,0,0,0-.92.1,6,6,0,0,1,.915,3.18v7.832a8.611,8.611,0,0,1,.809.925h6.088v-5.914a1.083,1.083,0,1,1,2.167,0v5.914h2.729v-8.235a4,4,0,0,0-4.172-3.8Z" transform="translate(-271.75 -98.092)" fill="#22b27f"/>
      <g id="Grupo_1088061" data-name="Grupo 1088061" transform="translate(2.167 13.125)">
        <path id="Trazado_862034" data-name="Trazado 862034" d="M49.084,162.785a1.083,1.083,0,0,1-1-1.157l.737-10.463a18.72,18.72,0,0,0-1.16-8.842L40.085,123.74c-.9-2.2-2.437-2.485-3.485-2.059a2.44,2.44,0,0,0-1.244,2.982l3.457,15.832a1.083,1.083,0,1,1-2.117.462l-1.652-7.566L27.4,122.944a1.083,1.083,0,0,1-.207-.578l-.93-16.171a4.253,4.253,0,0,0-4.143-4.2.12.12,0,0,0-.119.119v23.827a140.546,140.546,0,0,0,13.148,27.692,1.084,1.084,0,0,1,.149.705l-.987,7.511a1.084,1.084,0,0,1-1.073.942H49.084Z" transform="translate(-22 -101.992)" fill="#fdd7ad"/>
        <path id="Trazado_862035" data-name="Trazado 862035" d="M329.773,161.846l-.987-7.511a1.085,1.085,0,0,1,.149-.705,140.771,140.771,0,0,0,13.147-27.692V102.112a.12.12,0,0,0-.119-.119,4.253,4.253,0,0,0-4.143,4.2l-.93,16.172a1.083,1.083,0,0,1-.207.578l-7.644,10.447-1.652,7.566a1.083,1.083,0,1,1-2.117-.462l3.457-15.833a2.44,2.44,0,0,0-1.244-2.981c-1.049-.426-2.59-.142-3.486,2.059l-7.572,18.584a18.717,18.717,0,0,0-1.16,8.843L316,161.629a1.084,1.084,0,0,1-1,1.157v0h15.847A1.084,1.084,0,0,1,329.773,161.846Z" transform="translate(-269.653 -101.993)" fill="#fdd7ad"/>
      </g>
    </g>
  </g>
</svg>
