<svg xmlns="http://www.w3.org/2000/svg" xmlns:xlink="http://www.w3.org/1999/xlink" width="133.575" height="120.655" viewBox="0 0 133.575 120.655">
  <defs>
    <clipPath id="clip-path">
      <path id="doctor-hombre-adulto-pie-derecho-oficina-hospital" d="M30.285-19.778c15.464,0,28.664,17.27,41.052,32.866,8.688,10.937,16.6,20.265,16.6,31.371,0,10.761-3.038,16.809-5.937,22.53-4.008,7.915-9.549,13.59-20.169,20.7-17.849,11.958-34.644-3.459-48.324-9.815C2.752,72.881-10.068,70.5-18.8,65.206c-3.232-1.96-13.721-8.3-11.041-20.567C-27.378,33.394-11.253,20.8-5.387,13.6,6.355-.8,16.309-19.778,30.285-19.778Z" transform="translate(30.274 19.778)" fill="#3c1c74"/>
    </clipPath>
  </defs>
  <g id="Grupo_1140415" data-name="Grupo 1140415" transform="translate(0 0)">
    <g id="Grupo_1072178" data-name="Grupo 1072178" transform="translate(0 0)">
      <path id="doctor-hombre-adulto-pie-derecho-oficina-hospital-2" data-name="doctor-hombre-adulto-pie-derecho-oficina-hospital" d="M30.285-19.778c15.464,0,28.664,17.27,41.052,32.866,8.688,10.937,16.6,20.265,16.6,31.371,0,10.761-3.038,16.809-5.937,22.53-4.008,7.915-9.549,13.59-20.169,20.7-17.849,11.958-34.644-3.459-48.324-9.815C2.752,72.881-10.068,70.5-18.8,65.206c-3.232-1.96-13.721-8.3-11.041-20.567C-27.378,33.394-11.253,20.8-5.387,13.6,6.355-.8,16.309-19.778,30.285-19.778Z" transform="translate(36.131 19.778)" fill="#bad1ff"/>
      <g id="Elipse_4857" data-name="Elipse 4857" transform="translate(0 21.962)" fill="none" stroke="#bad1ff" stroke-width="1">
        <ellipse cx="10.737" cy="10.737" rx="10.737" ry="10.737" stroke="none"/>
        <ellipse cx="10.737" cy="10.737" rx="10.237" ry="10.237" fill="none"/>
      </g>
      <ellipse id="Elipse_4858" data-name="Elipse 4858" cx="5.24" cy="4.716" rx="5.24" ry="4.716" transform="translate(117.391 23.267)" fill="#bad1ff"/>
      <path id="Trazado_115346" data-name="Trazado 115346" d="M7.746,0c4.278,0,7.746,3.1,7.746,6.931,0,2.048-.493,3.842-2.286,4.917-1.157.7-3.471.822-5.46.822C3.468,12.67,0,10.759,0,6.931S3.468,0,7.746,0Z" transform="translate(43.359 107.985)" fill="#bad1ff"/>
    </g>
    <g id="doctor_1_" data-name="doctor (1)" transform="translate(36.585 13.643)">
      <path id="Trazado_943122" data-name="Trazado 943122" d="M124.622,356.328l-13.032-4.6H89.712l-13.032,4.6a7.571,7.571,0,0,0-5.051,7.139v12.309h58.044V363.467A7.571,7.571,0,0,0,124.622,356.328Z" transform="translate(-70.449 -296.362)" fill="#edebed"/>
      <rect id="Rect치ngulo_416720" data-name="Rect치ngulo 416720" width="12.618" height="23.975" transform="translate(23.893 55.438)" fill="#a5cdff"/>
      <path id="Trazado_943123" data-name="Trazado 943123" d="M215.919,359.111a11.351,11.351,0,0,0,12.618,0v-6.918H215.919Z" transform="translate(-192.026 -296.754)" fill="#8cb4eb"/>
      <path id="Trazado_943124" data-name="Trazado 943124" d="M156.293,46.887a21.328,21.328,0,0,1-1.244-7.842V28.951a21.451,21.451,0,1,0-42.9,0V39.045a21.328,21.328,0,0,1-1.244,7.842,2.5,2.5,0,0,0,1.541,3.272,84.087,84.087,0,0,0,13.583,3.4h15.142a84.046,84.046,0,0,0,13.583-3.4A2.5,2.5,0,0,0,156.293,46.887Z" transform="translate(-103.396 -6.319)" fill="#64505a"/>
      <path id="Trazado_943125" data-name="Trazado 943125" d="M215.474,296.452h0a7.571,7.571,0,0,1-7.571-7.571v-8.833h15.142v8.833A7.571,7.571,0,0,1,215.474,296.452Z" transform="translate(-185.272 -235.966)" fill="#e3aa75"/>
      <path id="Trazado_943126" data-name="Trazado 943126" d="M207.9,286.028a18.8,18.8,0,0,0,15.142,0v-5.98H207.9v5.98Z" transform="translate(-185.272 -235.966)" fill="#d29b6e"/>
      <path id="Trazado_943127" data-name="Trazado 943127" d="M168.194,114.976h0a16.4,16.4,0,0,1-16.4-16.4V79.645H184.6V98.572A16.4,16.4,0,0,1,168.194,114.976Z" transform="translate(-137.992 -67.108)" fill="#f5b97d"/>
      <path id="Trazado_943128" data-name="Trazado 943128" d="M162.479,86.526a1.177,1.177,0,0,1,.739-.256,1.226,1.226,0,0,1,.739.246A53.965,53.965,0,0,0,184.6,95.573V79.645H151.79V98.572a16.295,16.295,0,0,0,18.927,16.19,16.393,16.393,0,0,1-13.88-16.19V93.119a5.056,5.056,0,0,1,2.353-4.259A39.152,39.152,0,0,0,162.479,86.526Z" transform="translate(-137.992 -67.108)" fill="#e3aa75"/>
      <rect id="Rect치ngulo_416721" data-name="Rect치ngulo 416721" width="12.618" height="7.571" transform="translate(7.489 71.842)" fill="#a5cdff"/>
      <path id="Trazado_943129" data-name="Trazado 943129" d="M219.928,227.914c0,2.788,2.542,5.047,5.678,5.047s5.678-2.26,5.678-5.047Z" transform="translate(-195.404 -192.038)" fill="#fff"/>
      <path id="Trazado_943130" data-name="Trazado 943130" d="M138.449,22.046c3.68,2.747,11.74,7.652,24.178,9.429V29.514c0-12.024-9.839-22.234-21.861-22.009a21.451,21.451,0,0,0-21.041,21.447v.805A56.385,56.385,0,0,0,133.891,22.1,3.736,3.736,0,0,1,138.449,22.046Z" transform="translate(-110.975 -6.32)" fill="#6e5a64"/>
      <g id="Grupo_1140417" data-name="Grupo 1140417" transform="translate(16.018 50.606)">
        <path id="Trazado_943131" data-name="Trazado 943131" d="M269.159,324.127l-5.588-2.636L256,350.3h6.309l6.979-15.121a2.523,2.523,0,0,0-.192-2.457l-1.74-2.61,2.47-3.293A1.788,1.788,0,0,0,269.159,324.127Z" transform="translate(-241.816 -321.491)" fill="#dbd9dc"/>
        <path id="Trazado_943132" data-name="Trazado 943132" d="M166.914,324.127l5.588-2.636,7.571,28.807h-6.309l-6.979-15.121a2.523,2.523,0,0,1,.192-2.457l1.74-2.61-2.47-3.293A1.788,1.788,0,0,1,166.914,324.127Z" transform="translate(-165.888 -321.491)" fill="#dbd9dc"/>
      </g>
      <path id="Trazado_943133" data-name="Trazado 943133" d="M239.1,27.971A21.412,21.412,0,0,0,210.516,8.744C215.491,15.191,224.987,24.717,239.1,27.971Z" transform="translate(-187.474 -6.319)" fill="#84737b"/>
      <path id="Trazado_943134" data-name="Trazado 943134" d="M118.7,58.852l-9.1-3.213a2.969,2.969,0,0,0-1.6-3.465l-4.911-2.317V48.24a85.965,85.965,0,0,0,12.78-3.282,3.721,3.721,0,0,0,2.174-1.952,3.611,3.611,0,0,0,.087-2.872,20.218,20.218,0,0,1-1.161-7.408V22.631a22.631,22.631,0,1,0-45.263,0V32.726a20.22,20.22,0,0,1-1.161,7.408,3.611,3.611,0,0,0,.087,2.872A3.72,3.72,0,0,0,72.8,44.958a85.968,85.968,0,0,0,12.78,3.282v1.617l-4.911,2.317a2.969,2.969,0,0,0-1.6,3.465l-9.1,3.213A8.765,8.765,0,0,0,64.131,67.1V79.413a1.181,1.181,0,1,0,2.361,0V67.1a6.4,6.4,0,0,1,4.263-6.026l9.6-3.387,1.18,1.573L80.254,61.18a3.728,3.728,0,0,0-.281,3.607l2.711,5.875H79.11V69.319a1.181,1.181,0,0,0-2.361,0v1.343H71.62a1.18,1.18,0,0,0-1.181,1.181v7.571a1.181,1.181,0,0,0,1.181,1.181H84.239a1.181,1.181,0,0,0,1.181-1.181V76.587l1.533,3.322a1.181,1.181,0,1,0,2.144-.989L82.117,63.8a1.352,1.352,0,0,1,.1-1.308l1.74-2.61a1.181,1.181,0,0,0-.038-1.363l-2.47-3.294a.607.607,0,0,1,.227-.913l4.3-2.03,2.569,9.775a1.181,1.181,0,1,0,2.284-.6l-.1-.376a11.292,11.292,0,0,0,7.2,0l-3.6,13.69-2.176-8.278a1.181,1.181,0,0,0-2.284.6l3.317,12.623a1.181,1.181,0,0,0,2.284,0l7.21-27.434,4.3,2.03a.607.607,0,0,1,.227.913l-2.47,3.294a1.18,1.18,0,0,0-.038,1.363l1.74,2.61a1.352,1.352,0,0,1,.1,1.308L99.57,78.919a1.181,1.181,0,1,0,2.144.989l6.979-15.121a3.728,3.728,0,0,0-.281-3.607l-1.277-1.915,1.18-1.573,9.6,3.387a6.4,6.4,0,0,1,4.263,6.026V79.413a1.181,1.181,0,1,0,2.361,0V67.1A8.765,8.765,0,0,0,118.7,58.852ZM83.058,78.233H72.8v-5.21h3.948V73.1a1.181,1.181,0,1,0,2.361,0v-.081h3.948ZM115.9,42.013a1.332,1.332,0,0,1-.789.708,86.049,86.049,0,0,1-10.187,2.773,17.567,17.567,0,0,0,7-14.03V25.682q1.333.272,2.686.488v6.556A22.7,22.7,0,0,0,115.93,41,1.271,1.271,0,0,1,115.9,42.013ZM94.333,59.306a8.907,8.907,0,0,1-4.364-1.14l-2.027-7.712V47.846a17.584,17.584,0,0,0,12.781,0v2.607L98.7,58.166A8.916,8.916,0,0,1,94.333,59.306Zm0-12.618A15.24,15.24,0,0,1,79.11,31.464V26.417a1.181,1.181,0,1,0-2.361,0v5.047a17.567,17.567,0,0,0,7,14.03,86.12,86.12,0,0,1-10.188-2.773,1.331,1.331,0,0,1-.788-.708A1.271,1.271,0,0,1,72.736,41a22.707,22.707,0,0,0,1.327-8.276V23.844c.182-.031.356-.063.406-.077A41.735,41.735,0,0,0,87.8,16.719a2.538,2.538,0,0,1,3.118-.031,48.929,48.929,0,0,0,11.826,6.354,1.181,1.181,0,0,0,.838-2.208,46.546,46.546,0,0,1-11.253-6.04,4.9,4.9,0,0,0-6.017.091A40.165,40.165,0,0,1,74.1,21.41a20.27,20.27,0,0,1,40.5,1.222v1.145a59.538,59.538,0,0,1-6.074-1.329,1.181,1.181,0,0,0-.627,2.276q.819.226,1.654.429v6.311A15.24,15.24,0,0,1,94.333,46.687Z" transform="translate(-64.131)"/>
      <path id="Trazado_943135" data-name="Trazado 943135" d="M193.568,154.668h2.524a1.181,1.181,0,0,0,0-2.361h-2.524a1.181,1.181,0,0,0,0,2.361Z" transform="translate(-172.198 -128.332)"/>
      <path id="Trazado_943136" data-name="Trazado 943136" d="M289.762,154.668h2.524a1.181,1.181,0,0,0,0-2.361h-2.524a1.181,1.181,0,0,0,0,2.361Z" transform="translate(-253.25 -128.332)"/>
      <path id="Trazado_943137" data-name="Trazado 943137" d="M360.2,436.025h-1.974v-1.974a1.181,1.181,0,0,0-2.361,0v1.974H353.89a1.181,1.181,0,0,0,0,2.361h1.974v1.974a1.181,1.181,0,1,0,2.361,0v-1.974H360.2a1.181,1.181,0,1,0,0-2.361Z" transform="translate(-307.284 -364.733)"/>
      <path id="Trazado_943138" data-name="Trazado 943138" d="M202.764,178.8v-1.262a1.181,1.181,0,0,0-2.361,0V178.8a1.181,1.181,0,1,0,2.361,0Z" transform="translate(-178.952 -148.594)"/>
      <path id="Trazado_943139" data-name="Trazado 943139" d="M297.778,176.354a1.18,1.18,0,0,0-1.181,1.181V178.8a1.181,1.181,0,1,0,2.361,0v-1.262A1.181,1.181,0,0,0,297.778,176.354Z" transform="translate(-260.005 -148.594)"/>
      <path id="Trazado_943140" data-name="Trazado 943140" d="M212.427,221.6c0,3.434,3.077,6.228,6.859,6.228s6.859-2.794,6.859-6.228a1.181,1.181,0,0,0-1.181-1.181H213.608A1.181,1.181,0,0,0,212.427,221.6Zm11.142,1.181a4.758,4.758,0,0,1-8.567,0Z" transform="translate(-189.084 -185.719)"/>
    </g>
  </g>
</svg>
