<svg xmlns="http://www.w3.org/2000/svg" width="75.132" height="75.132" viewBox="0 0 75.132 75.132">
  <g id="Grupo_1132743" data-name="Grupo 1132743" transform="translate(0)">
    <g id="Grupo_1106731" data-name="Grupo 1106731" transform="translate(0)">
      <path id="Trazado_861606" data-name="Trazado 861606" d="M37.566,0A37.566,37.566,0,1,1,0,37.566,37.566,37.566,0,0,1,37.566,0Z" fill="#ffb6c8"/>
    </g>
    <g id="Grupo_1132742" data-name="Grupo 1132742" transform="translate(15.153 22.08)">
      <g id="social-network_6432336" transform="translate(0 0)">
        <g id="Grupo_1132644" data-name="Grupo 1132644">
          <g id="Grupo_1132624" data-name="Grupo 1132624">
            <g id="Grupo_1132606" data-name="Grupo 1132606" transform="translate(2.451 0.7)">
              <path id="Trazado_933120" data-name="Trazado 933120" d="M17.738,12.546a3.724,3.724,0,0,1-3.754,3.691H8.548c-2.444,0-4.048-1.611-4.048-3.6V9.962a.936.936,0,0,1,.932-.932h8.7a3.6,3.6,0,0,1,3.607,3.516Z" transform="translate(-4.5 -9.03)" fill="#5e7588"/>
            </g>
            <g id="Grupo_1132607" data-name="Grupo 1132607" transform="translate(5.687 0.707)">
              <path id="Trazado_933121" data-name="Trazado 933121" d="M18.071,10.091a3.594,3.594,0,0,0-2.55-1.051H9.12a4.442,4.442,0,0,0,4.441,4.441H19.01a3.379,3.379,0,0,0,.112-.925,3.613,3.613,0,0,0-1.051-2.465Z" transform="translate(-9.12 -9.04)" fill="#5e7588"/>
            </g>
            <g id="Grupo_1132608" data-name="Grupo 1132608" transform="translate(5.687 0.707)" opacity="0.3">
              <path id="Trazado_933122" data-name="Trazado 933122" d="M18.071,10.091a3.594,3.594,0,0,0-2.55-1.051H9.12a4.442,4.442,0,0,0,4.441,4.441H19.01a3.379,3.379,0,0,0,.112-.925,3.613,3.613,0,0,0-1.051-2.465Z" transform="translate(-9.12 -9.04)" fill="#fff"/>
            </g>
            <g id="Grupo_1132609" data-name="Grupo 1132609" transform="translate(5.694 0.707)" opacity="0.3">
              <path id="Trazado_933123" data-name="Trazado 933123" d="M19.125,12.556a3.379,3.379,0,0,1-.112.925,1.619,1.619,0,0,1-1.443-.918,3.59,3.59,0,0,0-.672-.939,3.63,3.63,0,0,0-2.55-1.058H10.713A1.558,1.558,0,0,1,9.13,9.054V9.04h6.4a3.588,3.588,0,0,1,3.593,3.516Z" transform="translate(-9.13 -9.04)" fill="#fff"/>
            </g>
            <g id="Grupo_1132610" data-name="Grupo 1132610" transform="translate(1.751)">
              <path id="Trazado_933124" data-name="Trazado 933124" d="M13.684,16.638H8.256a4.446,4.446,0,0,1-4.756-4.3V9.662A1.634,1.634,0,0,1,5.132,8.03h8.7a4.295,4.295,0,0,1,4.308,4.2,4.2,4.2,0,0,1-1.219,3.04A4.533,4.533,0,0,1,13.684,16.638Zm-8.552-7.2a.233.233,0,0,0-.231.231v2.676c0,1.681,1.408,2.9,3.355,2.9h5.428a3.151,3.151,0,0,0,2.234-.946,2.786,2.786,0,0,0,.82-2.024,2.924,2.924,0,0,0-.848-1.982,2.894,2.894,0,0,0-2.052-.848H5.132Z" transform="translate(-3.5 -8.03)"/>
            </g>
            <g id="Grupo_1132611" data-name="Grupo 1132611" transform="translate(0.7 15.76)">
              <path id="Trazado_933125" data-name="Trazado 933125" d="M18.747,34.011v7.312H2V34.011a2.459,2.459,0,0,1,1.814-2.367l4.14-1.114h4.84l4.14,1.114A2.451,2.451,0,0,1,18.747,34.011Z" transform="translate(-2 -30.53)" fill="#f95d68"/>
            </g>
            <g id="Grupo_1132612" data-name="Grupo 1132612" transform="translate(6.325 15.76)" opacity="0.3">
              <path id="Trazado_933126" data-name="Trazado 933126" d="M19.339,31.644,15.2,30.53h-4.84l-.329.091a7.587,7.587,0,0,0,7.586,7.586h3.537v-4.2A2.451,2.451,0,0,0,19.339,31.644Z" transform="translate(-10.03 -30.53)" fill="#fff"/>
            </g>
            <g id="Grupo_1132613" data-name="Grupo 1132613" transform="translate(0 15.066)">
              <path id="Trazado_933127" data-name="Trazado 933127" d="M12.2,41.727H1.7a.7.7,0,0,1-.7-.7V33.715a3.149,3.149,0,0,1,2.332-3.04l4.133-1.114a.763.763,0,0,1,.182-.021h4.84a.808.808,0,0,1,.182.021l2.059.553a.7.7,0,0,1-.364,1.359L12.4,30.941H7.738L3.69,32.034A1.734,1.734,0,0,0,2.4,33.715v6.612h9.8a.7.7,0,1,1,0,1.4Z" transform="translate(-1 -29.54)"/>
            </g>
            <g id="Grupo_1132614" data-name="Grupo 1132614" transform="translate(6.542 13.532)">
              <path id="Trazado_933128" data-name="Trazado 933128" d="M15.4,27.357v2.97a2.532,2.532,0,0,1-5.064,0V27.35Z" transform="translate(-10.34 -27.35)" fill="#ffab03"/>
            </g>
            <g id="Grupo_1132615" data-name="Grupo 1132615" transform="translate(6.542 13.539)" opacity="0.3">
              <path id="Trazado_933129" data-name="Trazado 933129" d="M15.4,27.36v2.97a2.51,2.51,0,0,1-.217,1.03,2.455,2.455,0,0,1-.763.119,2.535,2.535,0,0,1-2.529-2.536V27.367L10.34,27.36Z" transform="translate(-10.34 -27.36)" fill="#fff"/>
            </g>
            <g id="Grupo_1132616" data-name="Grupo 1132616" transform="translate(5.842 12.832)">
              <path id="Trazado_933130" data-name="Trazado 933130" d="M12.569,33.256A3.228,3.228,0,0,1,9.34,30.027v-2.97a.7.7,0,0,1,.7-.7L15.1,26.35a.705.705,0,0,1,.5.2.693.693,0,0,1,.2.5v2.977a3.236,3.236,0,0,1-3.236,3.229Zm-1.828-5.5v2.269a1.8,1.8,0,0,0,.539,1.3,1.833,1.833,0,0,0,3.124-1.3V27.758Z" transform="translate(-9.34 -26.35)"/>
            </g>
            <g id="Grupo_1132617" data-name="Grupo 1132617" transform="translate(7.656 18.603)" opacity="0.3">
              <path id="Trazado_933131" data-name="Trazado 933131" d="M11.93,34.59a2.5,2.5,0,0,0,1.415.434A2.521,2.521,0,0,1,11.93,34.59Z" transform="translate(-11.93 -34.59)" fill="#fff"/>
            </g>
            <g id="Grupo_1132618" data-name="Grupo 1132618" transform="translate(4.406 4.455)">
              <path id="Trazado_933132" data-name="Trazado 933132" d="M16.627,16.393v3.488a4.668,4.668,0,0,1-9.337,0V14.39a6.817,6.817,0,0,0,4.826,2Z" transform="translate(-7.29 -14.39)" fill="#ffab03"/>
            </g>
            <g id="Grupo_1132619" data-name="Grupo 1132619" transform="translate(12.797 12.531)" opacity="0.3">
              <path id="Trazado_933133" data-name="Trazado 933133" d="M19.27,26.151c.056-.077.112-.154.161-.231C19.382,26,19.326,26.074,19.27,26.151Z" transform="translate(-19.27 -25.92)" fill="#fff"/>
            </g>
            <g id="Grupo_1132620" data-name="Grupo 1132620" transform="translate(6.549 5.912)" opacity="0.3">
              <path id="Trazado_933134" data-name="Trazado 933134" d="M17.543,20.511a4.629,4.629,0,0,1-.784,2.585,4.585,4.585,0,0,1-1.751.336A4.651,4.651,0,0,1,10.35,18.76V16.47a6.8,6.8,0,0,0,2.69.553H17.55v3.488Z" transform="translate(-10.35 -16.47)" fill="#fff"/>
            </g>
            <g id="Grupo_1132621" data-name="Grupo 1132621" transform="translate(3.705 3.758)">
              <path id="Trazado_933135" data-name="Trazado 933135" d="M11.655,24.956A5.369,5.369,0,0,1,6.29,19.584V14.092a.692.692,0,0,1,.434-.644.7.7,0,0,1,.763.154,6.158,6.158,0,0,0,4.336,1.8h4.511a.7.7,0,0,1,.7.7v3.488a5.387,5.387,0,0,1-5.379,5.365ZM7.691,15.563v4.02a3.971,3.971,0,0,0,7.943,0V16.8h-3.81A7.62,7.62,0,0,1,7.691,15.563Z" transform="translate(-6.29 -13.396)"/>
            </g>
            <g id="Grupo_1132623" data-name="Grupo 1132623" transform="translate(3.558 22.561)">
              <g id="Grupo_1132622" data-name="Grupo 1132622">
                <path id="Trazado_933136" data-name="Trazado 933136" d="M6.78,44.933a.7.7,0,0,1-.7-.7V40.94a.7.7,0,0,1,1.4,0v3.292A.7.7,0,0,1,6.78,44.933Z" transform="translate(-6.08 -40.24)"/>
              </g>
            </g>
          </g>
          <g id="Grupo_1132643" data-name="Grupo 1132643" transform="translate(27.38)">
            <g id="Grupo_1132625" data-name="Grupo 1132625" transform="translate(1.751 0.7)">
              <path id="Trazado_933137" data-name="Trazado 933137" d="M55.828,12.546a3.724,3.724,0,0,1-3.754,3.691H46.638c-2.444,0-4.048-1.611-4.048-3.6V9.962a.936.936,0,0,1,.932-.932h8.7a3.6,3.6,0,0,1,3.607,3.516Z" transform="translate(-42.59 -9.03)" fill="#5e7588"/>
            </g>
            <g id="Grupo_1132626" data-name="Grupo 1132626" transform="translate(4.987 0.707)">
              <path id="Trazado_933138" data-name="Trazado 933138" d="M56.161,10.091a3.594,3.594,0,0,0-2.55-1.051h-6.4a4.442,4.442,0,0,0,4.441,4.441H57.1a3.379,3.379,0,0,0,.112-.925,3.613,3.613,0,0,0-1.051-2.465Z" transform="translate(-47.21 -9.04)" fill="#5e7588"/>
            </g>
            <g id="Grupo_1132627" data-name="Grupo 1132627" transform="translate(4.987 0.707)" opacity="0.3">
              <path id="Trazado_933139" data-name="Trazado 933139" d="M56.161,10.091a3.594,3.594,0,0,0-2.55-1.051h-6.4a4.442,4.442,0,0,0,4.441,4.441H57.1a3.379,3.379,0,0,0,.112-.925,3.613,3.613,0,0,0-1.051-2.465Z" transform="translate(-47.21 -9.04)" fill="#fff"/>
            </g>
            <g id="Grupo_1132628" data-name="Grupo 1132628" transform="translate(5.001 0.707)" opacity="0.3">
              <path id="Trazado_933140" data-name="Trazado 933140" d="M57.225,12.556a3.379,3.379,0,0,1-.112.925,1.619,1.619,0,0,1-1.443-.918A3.59,3.59,0,0,0,55,11.625a3.63,3.63,0,0,0-2.55-1.058H48.813A1.558,1.558,0,0,1,47.23,9.054V9.04h6.4a3.613,3.613,0,0,1,2.55,1.058,3.672,3.672,0,0,1,1.044,2.458Z" transform="translate(-47.23 -9.04)" fill="#fff"/>
            </g>
            <g id="Grupo_1132629" data-name="Grupo 1132629" transform="translate(1.058)">
              <path id="Trazado_933141" data-name="Trazado 933141" d="M51.784,16.638H46.349a4.44,4.44,0,0,1-4.749-4.3V9.662A1.634,1.634,0,0,1,43.232,8.03h8.7a4.295,4.295,0,0,1,4.308,4.2,4.2,4.2,0,0,1-1.219,3.04A4.545,4.545,0,0,1,51.784,16.638Zm-8.552-7.2A.233.233,0,0,0,43,9.669v2.676c0,1.681,1.408,2.9,3.348,2.9h5.435a3.151,3.151,0,0,0,2.234-.946,2.786,2.786,0,0,0,.819-2.024,2.924,2.924,0,0,0-.848-1.982,2.894,2.894,0,0,0-2.052-.848H43.232Z" transform="translate(-41.6 -8.03)"/>
            </g>
            <g id="Grupo_1132630" data-name="Grupo 1132630" transform="translate(0 15.76)">
              <path id="Trazado_933142" data-name="Trazado 933142" d="M56.837,34.011v7.312H40.09V34.011A2.459,2.459,0,0,1,41.9,31.644l4.14-1.114h4.84l4.14,1.114A2.451,2.451,0,0,1,56.837,34.011Z" transform="translate(-40.09 -30.53)" fill="#9acff7"/>
            </g>
            <g id="Grupo_1132631" data-name="Grupo 1132631" transform="translate(5.631 15.76)" opacity="0.3">
              <path id="Trazado_933143" data-name="Trazado 933143" d="M57.432,31.644l-4.14-1.114H48.459l-.329.091a7.587,7.587,0,0,0,7.586,7.586h3.53v-4.2A2.451,2.451,0,0,0,57.432,31.644Z" transform="translate(-48.13 -30.53)" fill="#fff"/>
            </g>
            <g id="Grupo_1132632" data-name="Grupo 1132632" transform="translate(1.177 15.059)">
              <path id="Trazado_933144" data-name="Trazado 933144" d="M57.34,41.724H42.47a.7.7,0,1,1,0-1.4H56.64V33.712a1.747,1.747,0,0,0-1.3-1.688L51.3,30.931H46.638l-1.968.532a.707.707,0,0,1-.862-.5.7.7,0,0,1,.5-.862l2.059-.553a.763.763,0,0,1,.182-.021h4.84a.763.763,0,0,1,.182.021l4.14,1.114a3.163,3.163,0,0,1,2.332,3.047v7.312a.7.7,0,0,1-.7.7Z" transform="translate(-41.77 -29.53)"/>
            </g>
            <g id="Grupo_1132633" data-name="Grupo 1132633" transform="translate(5.842 13.532)">
              <path id="Trazado_933145" data-name="Trazado 933145" d="M53.494,27.357v2.97a2.532,2.532,0,0,1-5.064,0V27.35Z" transform="translate(-48.43 -27.35)" fill="#ffab03"/>
            </g>
            <g id="Grupo_1132634" data-name="Grupo 1132634" transform="translate(5.842 13.539)" opacity="0.3">
              <path id="Trazado_933146" data-name="Trazado 933146" d="M53.494,27.36v2.97a2.51,2.51,0,0,1-.217,1.03,2.455,2.455,0,0,1-.763.119,2.535,2.535,0,0,1-2.529-2.536V27.367L48.43,27.36Z" transform="translate(-48.43 -27.36)" fill="#fff"/>
            </g>
            <g id="Grupo_1132635" data-name="Grupo 1132635" transform="translate(6.955 18.603)" opacity="0.3">
              <path id="Trazado_933147" data-name="Trazado 933147" d="M50.02,34.59a2.5,2.5,0,0,0,1.415.434A2.521,2.521,0,0,1,50.02,34.59Z" transform="translate(-50.02 -34.59)" fill="#fff"/>
            </g>
            <g id="Grupo_1132636" data-name="Grupo 1132636" transform="translate(5.148 12.832)">
              <path id="Trazado_933148" data-name="Trazado 933148" d="M50.669,33.256h0a3.23,3.23,0,0,1-3.229-3.229V27.05a.723.723,0,0,1,.2-.5.682.682,0,0,1,.5-.2l5.064.007a.7.7,0,0,1,.7.7v2.97a3.228,3.228,0,0,1-3.236,3.229Zm-1.835-5.505V30.02a1.832,1.832,0,0,0,3.663,0V27.751Z" transform="translate(-47.44 -26.35)"/>
            </g>
            <g id="Grupo_1132637" data-name="Grupo 1132637" transform="translate(3.705 4.455)">
              <path id="Trazado_933149" data-name="Trazado 933149" d="M54.717,16.393v3.488a4.668,4.668,0,0,1-9.337,0V14.39a6.817,6.817,0,0,0,4.826,2Z" transform="translate(-45.38 -14.39)" fill="#ffab03"/>
            </g>
            <g id="Grupo_1132638" data-name="Grupo 1132638" transform="translate(12.096 12.531)" opacity="0.3">
              <path id="Trazado_933150" data-name="Trazado 933150" d="M57.36,26.151c.056-.077.112-.154.161-.231C57.472,26,57.416,26.074,57.36,26.151Z" transform="translate(-57.36 -25.92)" fill="#fff"/>
            </g>
            <g id="Grupo_1132639" data-name="Grupo 1132639" transform="translate(5.849 5.912)" opacity="0.3">
              <path id="Trazado_933151" data-name="Trazado 933151" d="M55.633,20.511a4.629,4.629,0,0,1-.784,2.585,4.585,4.585,0,0,1-1.751.336A4.651,4.651,0,0,1,48.44,18.76V16.47a6.8,6.8,0,0,0,2.69.553H55.64v3.488Z" transform="translate(-48.44 -16.47)" fill="#fff"/>
            </g>
            <g id="Grupo_1132640" data-name="Grupo 1132640" transform="translate(3.005 3.758)">
              <path id="Trazado_933152" data-name="Trazado 933152" d="M49.745,24.956a5.369,5.369,0,0,1-5.365-5.372V14.092a.692.692,0,0,1,.434-.644.7.7,0,0,1,.763.154,6.158,6.158,0,0,0,4.336,1.8h4.511a.7.7,0,0,1,.7.7v3.488a5.387,5.387,0,0,1-5.379,5.365Zm-3.964-9.393v4.02a3.971,3.971,0,0,0,7.943,0V16.8h-3.81A7.561,7.561,0,0,1,45.781,15.563Z" transform="translate(-44.38 -13.396)"/>
            </g>
            <g id="Grupo_1132642" data-name="Grupo 1132642" transform="translate(12.489 22.561)">
              <g id="Grupo_1132641" data-name="Grupo 1132641">
                <path id="Trazado_933153" data-name="Trazado 933153" d="M58.62,44.933a.7.7,0,0,1-.7-.7V40.94a.7.7,0,0,1,1.4,0v3.292A.7.7,0,0,1,58.62,44.933Z" transform="translate(-57.92 -40.24)"/>
              </g>
            </g>
          </g>
        </g>
        <g id="Grupo_1132664" data-name="Grupo 1132664" transform="translate(12.538 4.243)">
          <g id="Grupo_1132648" data-name="Grupo 1132648" transform="translate(2.837)">
            <g id="Grupo_1132645" data-name="Grupo 1132645" transform="translate(0.7 0.693)">
              <path id="Trazado_933154" data-name="Trazado 933154" d="M36.628,21.418v8.846H23.95V21.586a6.449,6.449,0,0,1,5.891-6.493,6.34,6.34,0,0,1,6.787,6.325Z" transform="translate(-23.95 -15.078)" fill="#4e6575"/>
            </g>
            <g id="Grupo_1132646" data-name="Grupo 1132646" transform="translate(6.752 0.702)" opacity="0.3">
              <path id="Trazado_933155" data-name="Trazado 933155" d="M39.216,22.389v-.967A6.325,6.325,0,0,0,32.59,15.1v3.278A4.013,4.013,0,0,0,36.6,22.389Z" transform="translate(-32.59 -15.091)" fill="#fff"/>
            </g>
            <g id="Grupo_1132647" data-name="Grupo 1132647">
              <path id="Trazado_933156" data-name="Trazado 933156" d="M36.328,30.668H23.65a.7.7,0,0,1-.7-.7V21.3a7.037,7.037,0,0,1,12.012-5.148,7.011,7.011,0,0,1,2.059,4.98v8.846A.691.691,0,0,1,36.328,30.668Zm-11.977-1.4H35.628V21.122A5.643,5.643,0,0,0,29.59,15.49a5.745,5.745,0,0,0-5.239,5.8Z" transform="translate(-22.95 -14.088)"/>
            </g>
          </g>
          <g id="Grupo_1132663" data-name="Grupo 1132663" transform="translate(0 6.925)">
            <g id="Grupo_1132649" data-name="Grupo 1132649" transform="translate(0.7 11.273)">
              <path id="Trazado_933157" data-name="Trazado 933157" d="M38.251,43.887v8.02H19.9v-8.02A2.684,2.684,0,0,1,21.889,41.3l4.539-1.226h5.3L36.262,41.3A2.67,2.67,0,0,1,38.251,43.887Z" transform="translate(-19.9 -40.07)" fill="#b0aeed"/>
            </g>
            <g id="Grupo_1132650" data-name="Grupo 1132650" transform="translate(6.871 11.273)" opacity="0">
              <path id="Trazado_933158" data-name="Trazado 933158" d="M38.9,41.3,34.369,40.07h-5.3l-.357.1a8.315,8.315,0,0,0,8.314,8.314H40.9V43.887a2.684,2.684,0,0,0-2-2.592Z" transform="translate(-28.71 -40.07)" fill="#b0aeed"/>
            </g>
            <g id="Grupo_1132651" data-name="Grupo 1132651" transform="translate(0 10.573)">
              <path id="Trazado_933159" data-name="Trazado 933159" d="M37.952,52.3H19.6a.7.7,0,0,1-.7-.7V43.588a3.394,3.394,0,0,1,2.508-3.271l4.539-1.226a.763.763,0,0,1,.182-.021h5.3a.763.763,0,0,1,.182.021l4.532,1.226a.7.7,0,1,1-.364,1.359l-4.441-1.2h-5.12l-4.448,1.191A1.986,1.986,0,0,0,20.3,43.588v7.319h16.95v-5.05a.7.7,0,1,1,1.4,0v5.75a.692.692,0,0,1-.7.693Z" transform="translate(-18.9 -39.07)"/>
            </g>
            <g id="Grupo_1132652" data-name="Grupo 1132652" transform="translate(7.544 9.221)">
              <path id="Trazado_933160" data-name="Trazado 933160" d="M34.342,37.14v2.746a2.336,2.336,0,1,1-4.672,0V37.14Z" transform="translate(-29.67 -37.14)" fill="#ffab03"/>
            </g>
            <g id="Grupo_1132653" data-name="Grupo 1132653" transform="translate(7.544 9.214)" opacity="0.3">
              <path id="Trazado_933161" data-name="Trazado 933161" d="M34.342,37.137v2.739a2.33,2.33,0,0,1-.2.946,2.292,2.292,0,0,1-.7.112,2.344,2.344,0,0,1-2.339-2.339V37.137L29.67,37.13Z" transform="translate(-29.67 -37.13)" fill="#fff"/>
            </g>
            <g id="Grupo_1132654" data-name="Grupo 1132654" transform="translate(8.566 13.9)" opacity="0.3">
              <path id="Trazado_933162" data-name="Trazado 933162" d="M31.13,43.82a2.371,2.371,0,0,0,1.3.406A2.333,2.333,0,0,1,31.13,43.82Z" transform="translate(-31.13 -43.82)" fill="#fff"/>
            </g>
            <g id="Grupo_1132655" data-name="Grupo 1132655" transform="translate(6.836 8.52)">
              <path id="Trazado_933163" data-name="Trazado 933163" d="M31.7,42.626a3.046,3.046,0,0,1-3.04-3.04V36.84a.723.723,0,0,1,.2-.5.682.682,0,0,1,.5-.2l4.679.007a.7.7,0,0,1,.7.7v2.746a3.025,3.025,0,0,1-3.04,3.033Zm-1.639-5.085v2.045a1.639,1.639,0,0,0,3.278.007V37.548Z" transform="translate(-28.66 -36.14)"/>
            </g>
            <g id="Grupo_1132656" data-name="Grupo 1132656" transform="translate(5.561 0.697)">
              <path id="Trazado_933164" data-name="Trazado 933164" d="M35.469,27.162v3.019a4.315,4.315,0,1,1-8.629-.007V27.162a4.237,4.237,0,0,1,.6-2.192,5.84,5.84,0,0,0,3.712,1.191,5.875,5.875,0,0,0,3.719-1.191A4.28,4.28,0,0,1,35.469,27.162Z" transform="translate(-26.84 -24.97)" fill="#ffab03"/>
            </g>
            <g id="Grupo_1132657" data-name="Grupo 1132657" transform="translate(8.699 0.697)" opacity="0.3">
              <path id="Trazado_933165" data-name="Trazado 933165" d="M36.216,24.97A5.875,5.875,0,0,1,32.5,26.161a7.145,7.145,0,0,1-1.177-.1V27.73a3.408,3.408,0,0,0,3.4,3.4H36.7a4.271,4.271,0,0,0,.112-.953V27.162a4.28,4.28,0,0,0-.6-2.192Z" transform="translate(-31.32 -24.97)" fill="#fff"/>
            </g>
            <g id="Grupo_1132658" data-name="Grupo 1132658" transform="translate(4.868)">
              <path id="Trazado_933166" data-name="Trazado 933166" d="M30.858,34.9a5.01,5.01,0,0,1-5.008-5.015V26.864a4.916,4.916,0,0,1,.7-2.55A.7.7,0,0,1,27.6,24.14a5.15,5.15,0,0,0,3.264,1.03,5.213,5.213,0,0,0,3.271-1.03.7.7,0,0,1,1.051.182,5.014,5.014,0,0,1,.693,2.55V29.89A5.033,5.033,0,0,1,30.858,34.9Zm-3.425-9.183a3.686,3.686,0,0,0-.182,1.149v3.019a3.614,3.614,0,0,0,7.228,0V26.864a3.559,3.559,0,0,0-.189-1.149,7.359,7.359,0,0,1-6.857,0Z" transform="translate(-25.85 -23.975)"/>
            </g>
            <g id="Grupo_1132659" data-name="Grupo 1132659" transform="translate(13.315 8.289)" opacity="0.3">
              <path id="Trazado_933167" data-name="Trazado 933167" d="M37.91,36.027a2.358,2.358,0,0,0,.147-.217C38.015,35.887,37.959,35.95,37.91,36.027Z" transform="translate(-37.91 -35.81)" fill="#fff"/>
            </g>
            <g id="Grupo_1132662" data-name="Grupo 1132662" transform="translate(3.901 18.796)">
              <g id="Grupo_1132660" data-name="Grupo 1132660" transform="translate(10.548)">
                <path id="Trazado_933168" data-name="Trazado 933168" d="M40.23,55.818a.7.7,0,0,1-.7-.7V51.51a.7.7,0,0,1,1.4,0v3.607A.7.7,0,0,1,40.23,55.818Z" transform="translate(-39.53 -50.81)"/>
              </g>
              <g id="Grupo_1132661" data-name="Grupo 1132661">
                <path id="Trazado_933169" data-name="Trazado 933169" d="M25.17,55.818a.7.7,0,0,1-.7-.7V51.51a.7.7,0,0,1,1.4,0v3.607A.7.7,0,0,1,25.17,55.818Z" transform="translate(-24.47 -50.81)"/>
              </g>
            </g>
          </g>
        </g>
      </g>
    </g>
  </g>
</svg>
