<svg id="Grupo_1134862" data-name="Grupo 1134862" xmlns="http://www.w3.org/2000/svg" width="133.549" height="407" viewBox="0 0 133.549 407">
  <path id="Trazado_934463" data-name="Trazado 934463" d="M202.893,93.992c.025-.562,3.319-4.825,4.8-5.8,1.506-.97,2.425-.945,2.706,1.685s-2.579,11.565-2.579,11.565a3.543,3.543,0,0,1-3.6,0c-1.991-1.1-1.787-1.481-1.787-1.481" transform="translate(-117.852 -49.953)" fill="#fabd79"/>
  <path id="Trazado_934464" data-name="Trazado 934464" d="M302.849,228.952c-.357.817-.715,1.685-1.123,2.476a2.085,2.085,0,0,0,.077,2.145,2.558,2.558,0,0,1,.025,2.783c-2.962,5.055-4.6,10.646-6.127,16.212A111.23,111.23,0,0,1,287.25,273.5c-1.583,3.064-3.089,6.153-4.6,9.242a1.266,1.266,0,0,0-.026.919,8.886,8.886,0,0,1,.587,4.238,5.845,5.845,0,0,1-1.047,2.374,4.17,4.17,0,0,0-.587,1.379,15.529,15.529,0,0,1-.409,1.889,13.9,13.9,0,0,0-.945,5.081c-.179,3.166-.332,6.331-.255,9.5.077,3.4.409,6.791.689,10.187.357,3.983.817,7.965,1.2,11.948.1,1.047-.281,1.455-1.328,1.481a1.363,1.363,0,0,0-.46.128c-1.889.894-3.8,1.813-5.693,2.681-.357.179-.485.332-.46.715a119.8,119.8,0,0,1-.153,14.833c-.255,4.238-.638,8.451-.945,12.663-.2,2.834-.357,5.668-.536,8.5a136.09,136.09,0,0,1-1.711,15.778c-1.2,6.485-2.527,12.918-3.727,19.4-.536,2.962-.842,6-1.328,8.961-.409,2.451-.919,4.876-1.43,7.3a2.17,2.17,0,0,0,.843,2.553,3.128,3.128,0,0,1,1.021,3.778c-.332,1-.766,1.94-1.174,2.885-.153.357-.332.715-.511,1.072a4.522,4.522,0,0,0,0,4.8,10.56,10.56,0,0,1,1.072,7.812,16.247,16.247,0,0,1-.23,1.608,20.794,20.794,0,0,1-1.047,2.451.925.925,0,0,0,.051,1.174,35.967,35.967,0,0,0,10.289,8.833c2.63,1.455,5.157,3.064,7.736,4.621a1.469,1.469,0,0,1,.485.383c.306.485.766.434,1.251.511a24.127,24.127,0,0,1,3.064.638,1.152,1.152,0,0,1,.536.766c.434,1.864.894,3.727,1.225,5.617.255,1.532-.46,2.3-2.042,2.374-4.7.2-9.421.46-14.118.587a37.562,37.562,0,0,1-13.429-2.221,12.452,12.452,0,0,1-6.153-4.417,2.048,2.048,0,0,0-1.506-.868,31.058,31.058,0,0,1-8.578-2.119c-1.711-.689-2.2-1.251-1.838-3.472.179-1.123.511-2.221.74-3.344a9.343,9.343,0,0,0,.128-1.455,1.193,1.193,0,0,1,.077-.434c1-1.4.842-3.013.689-4.57-.536-5.489-1.149-10.952-1.685-16.441-.409-4.187-.689-8.4-1.047-12.612-.332-3.855-.715-7.685-1.072-11.54-.23-2.553-.383-5.106-.664-7.659-.306-2.808-.638-5.642-1.072-8.425a64.884,64.884,0,0,1-.74-13.531,31.205,31.205,0,0,0-.434-8.3,1.609,1.609,0,0,0-.1-.332c-.1,1.634-.179,3.089-.281,4.57-.23,3.447-.485,6.919-.715,10.365-.153,2.451-.255,4.927-.409,7.378-.23,3.549-.408,7.072-.766,10.621-.357,3.625-.791,7.251-1.379,10.85A132.129,132.129,0,0,1,227.535,437c-.587,1.838-.919,3.753-1.353,5.642a.976.976,0,0,0,.46,1.123c1.379,1.047,1.557,1.736.766,3.319-.306.613-.638,1.225-1,1.813A4.583,4.583,0,0,0,226,452.8c.383,1.174.791,2.323,1.174,3.5.562,1.608.638,3.115-.766,4.391a.694.694,0,0,0-.128.562c.179,1.711.409,3.4.562,5.106a7.41,7.41,0,0,1-.051,1.991,1.374,1.374,0,0,1-1.736,1.2c-1.685-.409-3.319-.051-4.978-.026-.562.026-1.123.1-1.685.179a.915.915,0,0,0-.894,1,6.3,6.3,0,0,1-1.991,4.136,15.878,15.878,0,0,1-10.263,4.9,52.248,52.248,0,0,1-10.187-.332c-2.2-.255-4.417-.383-6.612-.536-1.608-.128-3.217-.2-4.8-.281a1.634,1.634,0,0,1-1.506-1.047,21.415,21.415,0,0,1-1.455-6.434,1.616,1.616,0,0,1,.689-1.532,16.78,16.78,0,0,1,2.323-1.557c2.783-1.3,5.591-2.5,8.4-3.727a1.884,1.884,0,0,0,1.174-1.3,7.976,7.976,0,0,1,1.225-2.3c.97-1.251,2.068-2.4,3.064-3.651a11.483,11.483,0,0,0,1.072-1.66c.689-1.276,1.225-2.63,1.991-3.83a6.67,6.67,0,0,0,.843-4.825c-.587-4.8-1.174-9.6-1.557-14.425a33.946,33.946,0,0,1,2.145-14.246,11.029,11.029,0,0,0,1.021-5.412,29.568,29.568,0,0,0-1.123-4.723,43.224,43.224,0,0,1-1.966-11.565c-.128-3.013-.357-6.051-.332-9.063.026-3.166.332-6.332.511-9.5.153-2.425.306-4.825.434-7.251.2-4.008.408-8.017.536-12,.128-3.651.179-7.3.179-10.952.025-3.268-.051-6.51-.077-9.778,0-.306-.026-.536-.357-.689-4.442-2.017-8.859-4.059-13.327-6.051A26.574,26.574,0,0,0,176.832,329a19.4,19.4,0,0,1-2.732-.23c-1.021-.153-1.2-.587-.791-1.506.179-.383.2-.817.357-1.2,1.021-2.5,1.991-5.029,3.115-7.506,2.3-5,4.647-9.957,7.072-14.91a23.392,23.392,0,0,0,2.579-8.936c.025-.383.025-.791.025-1.2,0-.562-.077-1.021-.74-1.251a1,1,0,0,1-.281-1.608c.46-.613,1.021-1.174,1.532-1.736a.583.583,0,0,0,.153-.74,8.222,8.222,0,0,1-.281-1.583c-.077-.536-.179-.945-.894-1.021a1.766,1.766,0,0,1-1.123-.842,24.34,24.34,0,0,1-1.481-3.7c-1.149-4.085-2.17-8.221-3.268-12.331a72.12,72.12,0,0,0-4.876-13.225,6.162,6.162,0,0,1-.689-2.706,8.411,8.411,0,0,0-1.021-3.83c-.689-1.328-1.4-2.655-2.119-3.983a17.352,17.352,0,0,1-1.966-10.289c.179-1.711.357-3.447.536-5.157a1.038,1.038,0,0,0,0-.485,3.744,3.744,0,0,1,.025-2.783c.689-2.936,1.225-5.923,2.119-8.808,1.2-3.932,2.757-7.787,4.008-11.693,1.991-6.255,3.779-12.561,5.8-18.816,1.991-6.127,4.136-12.178,6.229-18.28.179-.536.357-1.174,1.174-1a7.951,7.951,0,0,1-.1-1.328A2.819,2.819,0,0,1,190.8,164c1.685-.919,3.4-1.787,5.106-2.681a97.741,97.741,0,0,1,15.624-6.127c1.353-.434,2.681-1.047,4.008-1.583.587-.23.791-.077.97.766.077-.153.255-.332.23-.485-.051-.689-.179-1.353-.23-2.042a1.659,1.659,0,0,1,1.328-1.966c1.455-.536,2.885-1.1,4.34-1.608a.717.717,0,0,0,.536-.74c.2-2.527.434-5.08.613-7.608a.886.886,0,0,0-.255-.638c-.97-1.174-2.042-2.272-2.936-3.5a14.471,14.471,0,0,1-2.272-5.77c-.306-1.455-.357-2.962-.536-4.468a1.687,1.687,0,0,1-.026-.357,2.22,2.22,0,0,1-2.859-.536,6.453,6.453,0,0,1-1.787-3.855c-.332-2.425-.587-4.825-.842-7.251a4.661,4.661,0,0,1,.23-1.659c.306-1.149.919-1.43,2.017-1.021a1.673,1.673,0,0,0,.46.128c-1.557-1.481-1.583-3.293-1.1-5.208a1.918,1.918,0,0,1-1.506-1.915c-2.6-.715-3.727-2.732-4.212-5.106a10.771,10.771,0,0,1,2.451-9.472,4.611,4.611,0,0,1,2.885-1.838,6.513,6.513,0,0,0,1.634-.74c-.153-.2-.23-.357-.332-.511a10.98,10.98,0,0,1-.74-1.149,2.747,2.747,0,0,1,.97-3.779,14.613,14.613,0,0,1,2.3-1.1,5.075,5.075,0,0,1,1.021-.281c1.532-.383,1.532-.383,1.557-1.94a3.657,3.657,0,0,1,3.345-3.676,14.739,14.739,0,0,1,6.51.306,11.3,11.3,0,0,1,2.681,1.3c1.1.664,1.4.715,2.017-.383a3.971,3.971,0,0,1,3.319-1.915c1.532-.179,3.038-.485,4.544-.74h1.762a6.082,6.082,0,0,0,.664.128,10.778,10.778,0,0,1,4.519,1.506,2.194,2.194,0,0,0,1.634.306,9.655,9.655,0,0,1,5.489.766,4.181,4.181,0,0,1,2.349,2.4,3.145,3.145,0,0,1-.23,3.038c.409.23.791.408,1.123.638a3.869,3.869,0,0,1,1.94,3.5,30.4,30.4,0,0,1-.306,3.421,2.656,2.656,0,0,0,.332,1.915c.485.74.945,1.481,1.379,2.247,1.1,1.915,1.4,3.83-.179,5.617.255.409.485.791.74,1.123a2.729,2.729,0,0,1,.153,2.91c-.2.434-.485.817-.715,1.251a1.122,1.122,0,0,0-.179.562c-.077,1.328-.128,2.655-.255,3.983a1.7,1.7,0,0,1-1.1,1.557c-.128.051-.2.255-.332.434a1.729,1.729,0,0,1,1.43,1.43,7.044,7.044,0,0,1,.281,2.885c-.689,2.936-1.532,5.821-2.425,8.706a3.361,3.361,0,0,1-1.864,2.093c-1.149.511-1.736.2-1.991-1a1.953,1.953,0,0,0,2.3-.74,8.168,8.168,0,0,0,.894-1.838c.613-1.864,1.174-3.727,1.736-5.591a10.128,10.128,0,0,0,.562-2.425,10.458,10.458,0,0,0-.408-2.476c-.026-.153-.485-.383-.613-.306a7.177,7.177,0,0,0-1.3,1.021c-1.1,1.174-2.093,2.451-3.268,3.549a2.949,2.949,0,0,0-.868,2.63c.026.383.179.511.562.434a1.891,1.891,0,0,0,1.557-1.379,9.324,9.324,0,0,1,2.17-3.4,3.532,3.532,0,0,1,.817-.434c.128.306.409.613.383.894-.153,1.1-.383,2.221-.638,3.293-.1.434-.23,1.021-.868.817s-.306-.74-.2-1.174c.153-.613.306-1.2.46-1.813a1.068,1.068,0,0,1-.255-.1c-.562,1.1-1.149,2.17-1.736,3.293a2.107,2.107,0,0,1,.74,2.17c-.128.894-.485,1.072-1.174.817a5.237,5.237,0,0,0-.2-1.966c-.23-.409-.97-.46-1.608-.128.179,1.608.357,3.268.511,4.927a14.684,14.684,0,0,1-2.272,9.727,16.751,16.751,0,0,1-3.7,3.983c.051.74.128,1.379.128,2.017-.026,2.093-.077,4.161-.1,6.255a.751.751,0,0,0,.23.562c.409.281.842.511,1.276.766a11.894,11.894,0,0,1,3.881,3.319,4.241,4.241,0,0,0,2.3,1.557c.255.1.511.179.766.255a75.021,75.021,0,0,1,8.246,2.5c5.234,2.247,10.365,4.749,15.522,7.225a18.091,18.091,0,0,1,3.217,2.145c1.277,1.021,1.889,2.3.664,4.034-.025.026,0,.077-.025.153a5.327,5.327,0,0,1,1.481,2.6c.791,2.859,1.583,5.744,2.349,8.6,1.1,4.11,2.247,8.221,3.242,12.382.919,3.855,1.481,7.787,2.579,11.591,2.349,8.093,4.927,16.11,7.4,24.177A3.489,3.489,0,0,1,302.849,228.952ZM190.771,284.1a2.063,2.063,0,0,1-.868-2.425,41.38,41.38,0,0,1,3.319-7.251,5.921,5.921,0,0,0,.332-1.2c-.077-.025-.128-.025-.2-.051a34.378,34.378,0,0,0-4.544,13.429c.051.026.128.077.179.1.613-.868,1.2-1.711,1.813-2.579a2.057,2.057,0,0,0,.357-.306,57.013,57.013,0,0,0,8.3-15.114c.077-.2.128-.409.2-.689-.128.051-.179.051-.2.1-.332.434-.689.843-1,1.277a79.521,79.521,0,0,0-7.021,12.867c-.128.281-.332.536-.434.817A7.328,7.328,0,0,0,190.771,284.1Zm59.051-136.2c-.026.1-.051.128-.051.153a.473.473,0,0,0,.051.179,5.165,5.165,0,0,1,1.532,2.859,1.517,1.517,0,0,1-.2,1.4,29.985,29.985,0,0,1-8.17,8.553,5.245,5.245,0,0,0-2.3,3.038c-.077.281-.179.562-.255.843-.357,1.353-.664,2.706-1.047,4.059a64.085,64.085,0,0,1-3.676,8.6,7.248,7.248,0,0,0-.23,1.072c-.1.306-.281.715-.511.791a1.021,1.021,0,0,1-.868-.383,2.6,2.6,0,0,1-.485-1.2c-.485-2.885-.945-5.8-1.379-8.706-.23-1.608-.306-3.242-.562-4.851a6.17,6.17,0,0,0-2.578-3.881c-1.864-1.481-3.779-2.885-5.693-4.315a8.087,8.087,0,0,1-3.268-4.749,7.976,7.976,0,0,1-.128-1.4c-.511.2-1.072.46-1.659.689a.819.819,0,0,0-.587,1.072,39.122,39.122,0,0,0,1.353,4.136,32.141,32.141,0,0,1,2.374,6.638c.332,1.557.638,3.14.97,4.8.1-.23.153-.383.23-.536.766-1.608,1.481-3.268,2.3-4.851a6.008,6.008,0,0,1,1.353-1.557.99.99,0,0,1,1.583.2,6.577,6.577,0,0,1,.74,1.3,26.359,26.359,0,0,1,2.247,8.093,17.615,17.615,0,0,1-.077,3.064c0,.128-.2.281-.306.408a.98.98,0,0,1-.434-1.1,53.343,53.343,0,0,0-2.553-10.11c-.1-.255-.2-.485-.357-.817a5.412,5.412,0,0,0-.46.74c-.842,2.017-1.736,4.008-2.527,6.051-.357.868-.536,1.787-.817,2.681a1.049,1.049,0,0,1-1.072.817,1.063,1.063,0,0,1-1.021-.868c-.1-.306-.153-.638-.23-.97-.587-2.834-1.047-5.693-1.787-8.5-.536-2.042-1.43-3.983-2.17-5.974-.179-.511-.46-.613-.919-.332-.255.153-.536.434-.817.434a6.89,6.89,0,0,0-2.655.842,166.949,166.949,0,0,0-18.178,7.991c-.97.511-1.915,1-2.885,1.481a1.488,1.488,0,0,0-.868,1.149c-.128,1.047-.2,2.093-.306,2.962-.2-.409-.485-1-.791-1.583-.511,1.532-.868,2.987-1.3,4.417-1.506,4.953-3.115,9.88-4.57,14.884-1.966,6.817-3.753,13.71-6.2,20.373-1.991,5.387-4.008,10.774-5,16.493-.255,1.43-.945,2.808-.459,4.34a1.233,1.233,0,0,1,0,.306c-.23,1.659-.46,3.293-.664,4.953a16.226,16.226,0,0,0,1.736,10.008c.664,1.174,1.277,2.4,1.864,3.6a10.782,10.782,0,0,1,1.276,4.6,5.514,5.514,0,0,0,.766,2.6c.638,1.251,1.251,2.528,1.813,3.83a105.44,105.44,0,0,1,5,15.905c.689,2.681,1.557,5.31,2.349,7.965a14.3,14.3,0,0,0,.689,1.481c.153-.766.23-1.3.357-1.864s.255-1.149.409-1.711a36.89,36.89,0,0,1,9.957-16.7c-.562-.077-.894-.306-1.123-1.379-.434-2.094-.791-4.212-1.149-6.331-.179-1.1-.255-2.2-.383-3.293a15.25,15.25,0,0,0-.945,2.681c-.23.919-.383,1.838-.536,2.706a14.458,14.458,0,0,1,.026-1.813,11.684,11.684,0,0,1,.357-1.838c.153-.587.332-1.149.485-1.711a1.225,1.225,0,0,0-.511.434,26.027,26.027,0,0,0-5.132,9.982,4.875,4.875,0,0,1-.689,1.532,1.1,1.1,0,0,1-1.991-.23,1.972,1.972,0,0,1-.179-.664,25.019,25.019,0,0,1,.179-7.174,60.1,60.1,0,0,1,3.166-12.076,31.042,31.042,0,0,1,3.881-8.016.931.931,0,0,0,.1-.689c-.357-1.762-.715-3.5-1.1-5.259a1.915,1.915,0,0,0-.485-.894,42.457,42.457,0,0,1-8.961-12.663,37.394,37.394,0,0,1-1.379-3.676c-.077-.255.1-.613.153-.919.281.1.664.153.843.357a23.481,23.481,0,0,1,1.762,2.119c1.762,2.553,3.5,5.132,5.259,7.71.128.179.255.332.383.511a5.688,5.688,0,0,0-.536-1.123,3.7,3.7,0,0,1-.153-.766c.255.1.587.153.74.357.408.46.766,1,1.149,1.506l.23-.077c-.153-.664-.281-1.328-.485-1.966-.153-.562-.434-1.072-.613-1.634-1.864-6.025-2.425-12.255-2.757-18.509-.153-3.166-.23-6.332-.332-9.523-.026-1.047-.051-2.093-.026-3.14,0-.2.255-.409.408-.613.2.153.46.281.562.485a3.833,3.833,0,0,1,.255,1.1c.179,2.068.357,4.11.536,6.178.128,1.506,0,3.064.689,4.493.077.153-.051.383-.1.587a2.2,2.2,0,0,0-.23.766,98.526,98.526,0,0,0,1.3,12.867c.383,2.2.97,4.34,1.481,6.51a8.991,8.991,0,0,0,.434.945,7.646,7.646,0,0,0,.306-.945c.077-.23.2-.485.128-.689a38.841,38.841,0,0,1-1.4-10.7q0-10.148.128-20.3a11.1,11.1,0,0,1,.715-4.468c.1-.23.357-.357.562-.536a1.806,1.806,0,0,1,.332.715c.1,4.264.179,8.527.281,12.765.1,5.208.077,10.442.383,15.65a28.9,28.9,0,0,0,4.264,13.582,9.87,9.87,0,0,1,1.072,2.5,6.944,6.944,0,0,1-.434,3.932,13.83,13.83,0,0,0-.689,4.672c.153,3.115.153,6.255.383,9.4.255,3.421.689,6.817,1.072,10.212a49.733,49.733,0,0,0,1.3,7.353c.1-.409.255-.894.383-1.4.2-.919.383-1.838.638-2.732.077-.255.485-.587.689-.536.255.051.485.408.638.689a1.01,1.01,0,0,1,.025.562,1.781,1.781,0,0,0,.383,1.328,6.419,6.419,0,0,1,1.123,3.651,17.025,17.025,0,0,1-.817,5.055,78.089,78.089,0,0,1-6.383,14.782,40.046,40.046,0,0,1-2.987,4.468,3.422,3.422,0,0,1-1.174.894.837.837,0,0,1-1.149-.357.9.9,0,0,1,.153-1.149c.357-.409.715-.817,1.047-1.251a63.487,63.487,0,0,0,5.132-8.578,59.863,59.863,0,0,0,4.851-10.672,18.4,18.4,0,0,0,.664-3.727,3.137,3.137,0,0,0-.97-2.527,49.74,49.74,0,0,1-5.821,14.986,60.282,60.282,0,0,1-9.6,12.714,5.982,5.982,0,0,1,.46,1.2,14.811,14.811,0,0,1,.128,2.374,20.877,20.877,0,0,1-2.042,7.94c-2.553,5.387-5.132,10.748-7.634,16.161-1.2,2.63-2.247,5.336-3.344,8.017a3.719,3.719,0,0,0-.153.664c1.2,0,2.323.025,3.421,0a25.58,25.58,0,0,1,10.927,2.349q8.157,3.676,16.263,7.455a16.691,16.691,0,0,0,10.365,1.3c.715-.128.817-.409.817-1.047a138.549,138.549,0,0,1,.638-15.624c.383-3.6.842-7.2,1.3-10.8.485-3.7,1.1-7.378,1.532-11.08.46-3.932.868-7.889,1.174-11.821.332-4.264.536-8.553.74-12.816.179-4.161.281-8.3.434-12.459.2-5.974.46-11.948.536-17.9.077-6.025,0-12.076-.1-18.1-.153-7.914-.383-15.829-.638-23.743-.077-2.706-.281-5.412-.511-8.119-.306-3.549-.664-7.1-1.1-10.646-.511-4.136-1.1-8.272-1.711-12.382a22.359,22.359,0,0,1-.255-5.54,1.611,1.611,0,0,1,.23-.638c.051-.077.255-.1.383-.077a.346.346,0,0,1,.153.281,23.993,23.993,0,0,0,.1,3.038c.842,5.668,1.864,11.31,2.579,17,.74,6.051,1.3,12.152,1.736,18.254.357,5.183.536,10.391.638,15.573.153,8.808.2,17.616.306,26.424v.689a17.867,17.867,0,0,1,1.838-.357c1.149-.128,2.323-.2,3.5-.255a11.782,11.782,0,0,1,2.119-.025c1.557.2,3.115.613,4.672.766,3.447.357,6.893.587,10.34.894.306.026.715.026.894.2.434.485.919.332,1.455.306.051-.332.1-.638.128-.97.306-3.523.613-7.072.919-10.6.332-3.906.664-7.812.97-11.718.255-3.6.485-7.2.664-10.8.23-4.927.485-9.855.562-14.756.077-4.6,0-9.191-.1-13.786-.1-4.059-.306-8.144-.46-12.2,0-.179-.051-.434-.179-.485a2.052,2.052,0,0,1-.97-1.4c-.587-1.838-1.174-3.7-1.736-5.54-.409-1.328-.817-2.681-1.277-3.983-.077-.23-.485-.562-.689-.536a3.146,3.146,0,0,0-2.2,1.251,28.732,28.732,0,0,0-3.574,6.714c-.1.306-.128.868-.664.689-.153-.051-.255-.664-.179-.97a15.088,15.088,0,0,1,4.11-7.455,3.475,3.475,0,0,1,1.328-.791c1.915-.74,2.451-.536,3.217,1.353.74,1.864,1.379,3.8,2.042,5.693.077.23.179.46.281.715.051,0,.1-.026.153-.026-.255-4.7-.306-9.37,1.532-13.837-.026.868-.077,1.711-.179,2.579-.128,1.072-.306,2.145-.46,3.217.1.025.179.025.281.051.434-2.834.894-5.668,1.328-8.5a.911.911,0,0,0-.128-.638A14.984,14.984,0,0,0,249.822,147.893ZM224.165,460.562a.746.746,0,0,0,.051-.23,4.709,4.709,0,0,1,.791-.945,1.777,1.777,0,0,0,.587-2.068c-.409-1.277-.817-2.528-1.2-3.8a6.306,6.306,0,0,1,.715-5.514c.332-.536.664-1.1.97-1.685.408-.792.408-.843-.383-1.328a2.41,2.41,0,0,1-1.353-2.4,29.176,29.176,0,0,1,1.3-6.612,133.155,133.155,0,0,0,4.9-20.143c.613-3.6,1.047-7.225,1.43-10.85s.613-7.276.894-10.927c.153-2.093.23-4.212.409-6.306.281-3.447.587-6.893.97-10.34.23-2.068.638-4.11.945-6.178a1.243,1.243,0,0,0-.051-.536,11.742,11.742,0,0,1-.077-7.429,11.53,11.53,0,0,0,.2-5.821c-.357-1.711-.766-3.421-1.021-5.157-.459-3.344-.919-6.689-1.149-10.059a102.975,102.975,0,0,1-.383-11.565c.255-6.281.868-12.535,1.3-18.79.255-3.753.511-7.506.74-11.233a2.6,2.6,0,0,0-.2-.715c.179-.077.485-.306.664-.255a.917.917,0,0,1,.409.689c.1.766.179,1.532.2,2.3a172.858,172.858,0,0,1-.511,17.82c-.23,3.523-.536,7.046-.536,10.569.025,3.957.281,7.914.562,11.872a97.642,97.642,0,0,0,1.711,12.765,15.984,15.984,0,0,1-.281,8.348,9.558,9.558,0,0,0-.051,5.974,34.552,34.552,0,0,1,1.328,12.612,62.452,62.452,0,0,0,.74,12.152c.46,3.268.919,6.536,1.3,9.8.485,4.212.868,8.425,1.3,12.637.536,5.132,1.047,10.263,1.583,15.369.485,4.544,1.1,9.063,1.557,13.608.23,2.476.255,4.953.357,7.429a1.669,1.669,0,0,1-.817,1.685c1.251-.562,2.476-1.123,3.651-1.762a3.5,3.5,0,0,1,3.14-.179,7.447,7.447,0,0,0,6.689-.383c1.3-.664,2.553-1.4,3.855-2.068.536-.281,1.047-.485.97-1.225a1.445,1.445,0,0,1,.255-.766c1.021-1.787,1-3.8,1.3-5.744a7.729,7.729,0,0,0-1.277-4.876,5.532,5.532,0,0,1-.051-5.617c.306-.562.613-1.149.894-1.711a15.487,15.487,0,0,0,.791-1.762c.562-1.532.434-1.966-.919-2.885A2.944,2.944,0,0,1,262,423.313q.115-.919.306-1.838c.434-2.221.97-4.391,1.251-6.638.587-4.723,1.353-9.4,2.349-14.067a200.267,200.267,0,0,0,4.212-24.892c.332-3.8.562-7.608.868-11.412.23-2.885.46-5.77.689-8.68.23-2.757.485-5.54.664-8.3q.268-4.289.46-8.578c.051-1.251,0-2.527,0-3.8-.128.026-.306.051-.485.1-1.4.511-2.783,1.1-4.212,1.532-2.6.817-5.259,1.43-7.838,2.323a48.814,48.814,0,0,1-8.017,2.119,3.827,3.827,0,0,1-1.659-.306c-1.123-.383-1.506-1.43-1.915-2.4a20.1,20.1,0,0,1-1.251-7.557c-.153-10.135-.332-20.3-.357-30.432-.025-6.689.153-13.4.332-20.092.1-4.085.357-8.17.613-12.255.179-2.987.485-5.949.74-8.91q.153-1.723.306-3.37a12.4,12.4,0,0,1-1.379,0c-1.021-.128-2.017-.332-3.038-.408-2.068-.179-4.11-.306-6.178-.409-2.936-.128-5.872-.128-8.808-.255-1.608-.077-3.217-.281-4.876-.46-.026.332-.026.664-.051,1.021-.051,1.991-.1,4.008-.179,6-.23,6.255-.434,12.51-.715,18.765-.179,3.83-.434,7.659-.791,11.489-.383,4.136-.919,8.246-1.455,12.357-.587,4.519-1.328,9.038-1.915,13.557-.409,3.37-.766,6.765-.945,10.161-.2,3.574-.2,7.174-.281,10.774a6.893,6.893,0,0,1-.1,1.251.855.855,0,0,1-1.225.664,1.786,1.786,0,0,0-.894-.077,20.393,20.393,0,0,1-5.285.332,19.011,19.011,0,0,1-6.587-2.017c-.357-.179-.74-.332-1.149-.511v.638c.077,5.872.255,11.718.23,17.59-.025,4.366-.332,8.731-.536,13.071-.1,2.323-.179,4.647-.409,6.944a109.092,109.092,0,0,0-.689,15.012c.153,3.268.23,6.561.689,9.8a61.7,61.7,0,0,0,1.889,7.634,12.978,12.978,0,0,1,.664,5.923,33.572,33.572,0,0,1-1.072,4.11,33.371,33.371,0,0,0-1.991,13.582c.357,4.289.817,8.553,1.43,12.816.383,2.63.255,5.055-1.3,7.276a5.725,5.725,0,0,0-.306.536c-.077.128-.1.281-.2.485.868-.2,1.659-.434,2.451-.587a19.939,19.939,0,0,1,6.383-.689,3.205,3.205,0,0,1,2.808,1.685,4.509,4.509,0,0,0,.868,1.2,20.148,20.148,0,0,0,10.059,5.438ZM271.779,205a.352.352,0,0,0-.1-.077c.434-.587.843-1.149,1.251-1.736a1.054,1.054,0,0,0,.179-.383c.357-1.787.715-3.6,1.021-5.387a96.473,96.473,0,0,1,2.757-11.335,35.023,35.023,0,0,1,3.881-9.114,2.385,2.385,0,0,1,.536-.689.547.547,0,0,1,.485-.077c.077.026.128.306.1.434-.128.409-.281.843-.434,1.251a141.583,141.583,0,0,0-5.642,18.484c-.255,1.1-.408,2.221-.613,3.344a3.579,3.579,0,0,0,.766-.919,43.476,43.476,0,0,1,6.357-8.272,19.174,19.174,0,0,1,2.247-1.787c.332-.23.817-.46,1.149-.051s-.1.715-.357,1.021a25.287,25.287,0,0,0-5.055,9.267c-.23.791-.383,1.608-.587,2.553,1.021-.485,1.838-1.072,3.013-.485-.919.638-1.762,1.3-2.655,1.813-.791.46-1.455-.026-1.455-.945a2.15,2.15,0,0,1,.1-.689,28.893,28.893,0,0,1,4.8-9.829c.357-.511.715-1,1.072-1.481a2.979,2.979,0,0,0-.945.715c-1.149,1.277-2.374,2.476-3.4,3.83-2.425,3.166-4.851,6.332-5.77,10.34a2.75,2.75,0,0,0-.026,1.021c.587,3.14,1.225,6.255,1.787,9.4.306,1.711.485,3.447.715,5.183a12.9,12.9,0,0,0,.2-1.736c.128-2.119.23-4.264.357-6.383.051-.945.2-1,1.072-.383a5.658,5.658,0,0,0,.409-.919c.179-.715.281-1.481.46-2.2.051-.2.306-.332.46-.511.153.179.383.332.46.536a3.294,3.294,0,0,1-.357,2.4,4.267,4.267,0,0,0-.281,1.123c-.2,2.2-.357,4.391-.613,6.587a30.561,30.561,0,0,1-.638,3.038c1.608-1.379,3.191-2.808,4.851-4.161a15.651,15.651,0,0,1,4.621-2.834c.281-.1.638.077.97.128a2.17,2.17,0,0,1-.255.868c-.791.97-1.659,1.864-2.5,2.808a62.611,62.611,0,0,0-6.383,8.272c-.23.383-.434.817-.74,1.379a8.407,8.407,0,0,1,4.442-1.123,17.564,17.564,0,0,1,10.467,3.4,12.49,12.49,0,0,1,3.779,4.136c.23.408.562.894.051,1.3-.485.383-.868-.051-1.2-.332-.46-.383-.868-.791-1.328-1.149a13.766,13.766,0,0,0-7.608-2.706,13.922,13.922,0,0,0-7.582,1.4c-.179.1-.434.2-.511.357-.409.868-.766,1.762-1.2,2.783a6.1,6.1,0,0,1,4.851-.689,17.676,17.676,0,0,1,10.748,7.863,1.032,1.032,0,0,1,.128.23,4.962,4.962,0,0,1-.051.613,1.894,1.894,0,0,1-.536-.179,6.145,6.145,0,0,1-.613-.536,19.211,19.211,0,0,0-9.7-3.7,6.53,6.53,0,0,0-1.864.077.911.911,0,0,0-.689.511c-.051.2.2.562.434.715a7.084,7.084,0,0,0,1.455.74c1,.408,2.017.715,2.987,1.149a12.1,12.1,0,0,1,2.323,1.3,1.023,1.023,0,0,1-.255,1.915,5.994,5.994,0,0,1-1.991.485c-1.762.051-3.549.026-5.31.026-1.889,0-2.451.664-2.094,2.527a.472.472,0,0,0,.051.179c.23,1.072.485,2.119.766,3.344-.2-.46-.357-.74-.485-1.047a8,8,0,0,1-1-3.268c.026-1.506.715-2.3,2.247-2.323.97-.026,1.966.077,2.936.051a35.539,35.539,0,0,0,3.676-.23c.46-.051.868-.46,1.3-.689-.332-.332-.587-.766-.97-.97-1.276-.664-2.6-1.225-3.881-1.864a10.821,10.821,0,0,1-1.966-1.174c-.689-.562-.536-1.251.332-1.481a7.291,7.291,0,0,1,2.094-.2,19.561,19.561,0,0,1,8.655,2.63c.179.1.383.2.562.306a15.781,15.781,0,0,0-8.093-5.923,6.336,6.336,0,0,0-6.076.817.738.738,0,0,0-.281.46,27.313,27.313,0,0,1-1.966,8.17,102.156,102.156,0,0,1-5.31,11.667,5.2,5.2,0,0,0-.664,2.706c2.017-.2,3.4.868,4.519,2.323a22.126,22.126,0,0,1,2.221,3.319,42.592,42.592,0,0,1,4.749,13.25,5.187,5.187,0,0,0,.332-.613c1.966-3.881,3.83-7.787,5.9-11.591a85.164,85.164,0,0,0,5.923-14.169c1.915-5.923,3.472-12.025,6.817-17.412a1.271,1.271,0,0,0-.1-1.506,3.439,3.439,0,0,1-.2-3.83,3.856,3.856,0,0,0,.23-3.344c-1.328-4.059-2.579-8.144-3.83-12.2a125.721,125.721,0,0,1-3.574-13.276c-1.251-6.587-2.6-13.148-4.468-19.607-.919-3.166-1.608-6.408-2.374-9.625a3.716,3.716,0,0,0-1.3-2.527c-.842-.562-.919-1.021-.434-1.889.536-.97.536-1.3-.357-1.966a20.532,20.532,0,0,0-3.013-1.889c-2.859-1.455-5.8-2.757-8.6-4.315-5.387-2.962-11.284-4.672-16.927-6.689-.051,1.021,0,2.17-.153,3.268-.434,3.013-1.021,6-1.353,9.012a56,56,0,0,0-.332,6.868c.026,2.476.383,4.953.46,7.429.153,5.157.179,10.314.306,15.471.179,7.123-.2,14.246-.587,21.343-.255,4.621-.613,9.242-.945,13.863-.332,4.366-.664,8.731-1.047,13.1-.46,5.259-1.021,10.493-1.481,15.752-.409,4.825-.843,9.65-1.072,14.476-.281,5.744-.485,11.514-.485,17.284,0,9.37.179,18.739.332,28.134.077,4.749.23,9.523.511,14.271.128,2.145.306,4.366,1.966,6.1.306.306.511.46.894.357,1.532-.383,3.089-.664,4.6-1.174,2.757-.945,5.412-2.17,8.246-2.859,2.323-.562,4.8-.791,6.791-2.323a2.009,2.009,0,0,1,.587-.23c2.272-1.021,4.519-2.042,6.791-3.038a.529.529,0,0,0,.383-.664c-.332-2.936-.689-5.872-.945-8.833-.332-3.574-.638-7.148-.842-10.723a66.9,66.9,0,0,1,.511-12.178,14.14,14.14,0,0,1,1.021-4.544,3.235,3.235,0,0,0,.23-1.634,3.928,3.928,0,0,1,.715-2.706,3.537,3.537,0,0,0,.587-2.732c-.919.357-1.353.153-1.608-.766-.255-.894-.409-1.787-.689-2.655-1.047-3.064-2.17-6.127-3.217-9.191-.715-2.068-1.353-4.161-2.017-6.255l-.409.409a4.921,4.921,0,0,1,.128-.74c.077-.2.23-.562.357-.562a.786.786,0,0,1,.638.357,12.065,12.065,0,0,1,.842,1.736c1.379,3.4,2.732,6.791,4.11,10.187a3.624,3.624,0,0,0,.2.46.783.783,0,0,0,.026-.536,41.279,41.279,0,0,0-4.366-11.795,24.032,24.032,0,0,0-2.476-3.5,2.859,2.859,0,0,0-3.676-.74c.077.23.128.485.2.715a57.865,57.865,0,0,0,5.132,10.493c.817,1.4,1.659,2.808,2.374,4.264a11.068,11.068,0,0,1,1.379,4.57c.025.536.051,1.2-.613,1.353-.689.153-.766-.511-.945-.945a49.657,49.657,0,0,0-3.447-7.021,60.259,60.259,0,0,1-5.259-10.7,17.456,17.456,0,0,1-1.2-6.357,4.112,4.112,0,0,1,.842-2.579.833.833,0,0,1,.689-.2c.1.026.179.409.2.613a1.417,1.417,0,0,1-.077.434,7.585,7.585,0,0,0,.128,3.115,16.079,16.079,0,0,1,.23-2.042,10.375,10.375,0,0,1,.715-1.864,4.347,4.347,0,0,0,.409-2.553c-.255-2.247-.255-4.544-.409-6.791a17.365,17.365,0,0,0-.383-2.783,2.777,2.777,0,0,1,.383-2.374c.23-.332.46-.689.689-1.047-.306-.153-.511-.255-.74-.357a3.253,3.253,0,0,1-1.915-2.936,6.238,6.238,0,0,1,.051-1.379c.485-3.013.97-6,1.481-9.012.638-3.8,1.379-7.582,1.966-11.386.587-3.778,1.506-7.531,1.481-11.514A3.79,3.79,0,0,0,271.779,205Zm-13.735-95.228a.558.558,0,0,0-.077-.128c.587-.46,1.174-.894,1.736-1.379.23-.2.587-.434.613-.664a23.682,23.682,0,0,0,.128-3.293,2.03,2.03,0,0,1,.306-1.455,11.224,11.224,0,0,0,.919-1.328,1.9,1.9,0,0,0-.664-2.3c-1.072-.613-1.251-1.251-.536-2.221a2.461,2.461,0,0,0,.2-2.91l-1.455-2.757a3.185,3.185,0,0,1-.025-3.064,12.9,12.9,0,0,0,.842-2.145c.664-2.349-.026-3.574-2.374-4.315l-.23-.077c-.791-.306-.919-.791-.306-1.4a1.545,1.545,0,0,0,.434-1.481,2.926,2.926,0,0,0-2.5-2.4,8.545,8.545,0,0,0-4.927.306,1.978,1.978,0,0,1-1.813-.128,11.622,11.622,0,0,0-7.072-1.557,45.014,45.014,0,0,1-4.544-.128,1.715,1.715,0,0,0-1.889.868,3.337,3.337,0,0,1-.638.843,1.4,1.4,0,0,1-2.017.2,6.873,6.873,0,0,1-.817-.689,4.688,4.688,0,0,0-2.425-1.225,12.582,12.582,0,0,0-5.515.332,3.448,3.448,0,0,0-2.732,2.859,2.663,2.663,0,0,1-2.068,2.3,4.6,4.6,0,0,0-.97.409,22.52,22.52,0,0,0-2.093,1.353A1.739,1.739,0,0,0,215,84.451c.153.357.306.715.485,1.072a1.469,1.469,0,0,1-.613,2.221,14.015,14.015,0,0,0-2.145,1.711,10.675,10.675,0,0,0-2.962,9.472,4.815,4.815,0,0,0,2.3,3.676,1.107,1.107,0,0,1,.689,1.251.886.886,0,0,0,1.072,1.021c.613-.077.766.077.791.715a15.557,15.557,0,0,0,.026,1.889c.128,1.225.511,2.272,1.711,2.681a13.9,13.9,0,0,1,.281-2.068,7.354,7.354,0,0,0-.128-3.574c-.077-.434-.077-.842-.562-1.149-.46-.306-.409-.843-.1-1.3a8.147,8.147,0,0,1,.664-.664,22.206,22.206,0,0,0,1.736-2.042c.409-.587.281-.945-.281-1.379a4.784,4.784,0,0,0-.46-.306c-.689-.46-.791-1.047-.153-1.583a1.363,1.363,0,0,0,.408-1.685,9.06,9.06,0,0,0-.536-1.123c-.562-.97-.46-1.481.536-1.966a23.355,23.355,0,0,1,2.349-.868,2.707,2.707,0,0,1-.306-.255c-.664-.587-1.379-1.149-1.991-1.787a1.085,1.085,0,0,1-.077-1.583c.383-.409.919-.409,1.532,0,.383.281.766.587,1.123.894a13.432,13.432,0,0,0,4.57,2.63,14.347,14.347,0,0,0,1.787.306c-.306-.638-.306-1.072.2-1.353a1.129,1.129,0,0,1,1.379.23,1.952,1.952,0,0,0,2.3.434c.945-.536,1.225-.46,1.634.562a5.163,5.163,0,0,0,2.2,2.579c2.4,1.455,4.825,1.251,7.327.281a1.61,1.61,0,0,0,1.251-1.532c.026-.817.715-1.123,1.276-.587a3.581,3.581,0,0,0,1.813.664.691.691,0,0,0,.485-.153,1.039,1.039,0,0,1,1.3-.306,1.081,1.081,0,0,1,.511,1.174,18.616,18.616,0,0,0,0,2.068,3.639,3.639,0,0,0,2.987,3.676c.281.077.485.409.664.638a1.42,1.42,0,0,1,.153.536.342.342,0,0,0,.128.026c.434-.306.894-.485,1.251.051.306.485.1.868-.383,1.149a.556.556,0,0,0-.179.409,5.1,5.1,0,0,0,1.2,3.727,5.83,5.83,0,0,0,1.277.843c.179.128.46.255.485.409a.737.737,0,0,1-.281.613,1.732,1.732,0,0,0-.638,1.711c.026.153.128.383.051.485-.434.689-.026,1.328.1,1.966.1.511.434.613.868.715a18.238,18.238,0,0,1,1.889.536c.306-.281.766-.689,1.225-1.123-.153-.179-.281-.332-.408-.485l.689-1.149-.1-.1C258.886,109.5,258.477,109.649,258.043,109.777Zm-40.082,3.983c-.408.051-.536.255-.408.689a29.022,29.022,0,0,1,.817,10.059,16.6,16.6,0,0,0,4.264,12.535,6.3,6.3,0,0,0,2.476,1.838,17.871,17.871,0,0,1,1.838.945,13.38,13.38,0,0,0,1.659.689,28.805,28.805,0,0,0,9.982,1.277,7.022,7.022,0,0,0,1.481-.077,26.646,26.646,0,0,0,9.114-4.672,13.981,13.981,0,0,0,5.54-12.306c-.077-1.4-.306-2.783-.357-4.187a28.758,28.758,0,0,1,.357-7.251c-.383-.2-.74-.383-1.123-.587-.1.894-.153,1.685-.255,2.5-.383,2.6-1.762,4.136-4.391,4.289a41.178,41.178,0,0,1-6.868-.2,4.1,4.1,0,0,1-3.881-3.37,6.009,6.009,0,0,1-.255-1.481c.077-.97-.485-1.353-1.251-1.659a2.136,2.136,0,0,0-2.732.357.783.783,0,0,1-.357.23c-.408.051-.408.332-.434.638-.128,1.123-.2,2.247-.408,3.344a2.44,2.44,0,0,1-2.5,2.349c-2.476.179-4.953.2-7.429.23-2.349.026-3.7-1.277-4.289-3.447C218.293,115.572,218.139,114.653,217.961,113.759ZM224.624,462.5c-.511,0-.919.026-1.3,0a6.224,6.224,0,0,1-1.174-.179,22.047,22.047,0,0,1-10.084-6.357,2.144,2.144,0,0,1-.485-.792,1.292,1.292,0,0,0-1.379-1.021,29.7,29.7,0,0,0-3.37.051c-1.838.179-3.676.485-5.515.689-.409.051-.638.179-.74.562a7.478,7.478,0,0,1-2.145,3.319,31.83,31.83,0,0,0-2.553,3.013,6.555,6.555,0,0,0-.945,1.889,3.014,3.014,0,0,1-1.736,1.915c-2.783,1.2-5.591,2.4-8.348,3.625-.766.357-1.481.817-2.221,1.251a.8.8,0,0,0-.434.945c.434,1.685.868,3.37,1.328,5.055a.645.645,0,0,0,.485.357c1.736.1,3.5.153,5.259.255,2.119.128,4.238.23,6.357.409a49.042,49.042,0,0,0,10.059.1,13.851,13.851,0,0,0,8.68-4.391,4.526,4.526,0,0,0,1.3-2.655,2.714,2.714,0,0,1,2.681-2.757,27.2,27.2,0,0,1,6.791-.255C224.956,465.847,224.777,464.213,224.624,462.5Zm38.244-10.8a5.005,5.005,0,0,1-.562.357c-1.634.97-3.242,2.042-4.953,2.936a8.138,8.138,0,0,1-7.251.306,1.9,1.9,0,0,0-1.736.077c-1.149.587-2.3,1.2-3.472,1.685a2.1,2.1,0,0,0-1.532,1.915c-.077,1.149-.332,2.3-.46,3.472-.025.306-.1.638.332.842a26.408,26.408,0,0,0,6.919,2.094,6.405,6.405,0,0,1,4.672,2.5,8.4,8.4,0,0,0,3.957,2.757,38.187,38.187,0,0,0,14.425,2.6c4.468-.025,8.936-.153,13.4-.23.562,0,.791-.23.689-.74-.281-1.659-.587-3.319-.894-4.978a.559.559,0,0,0-.306-.332c-.562-.153-1.123-.255-1.787-.408.332.434.587.817.894,1.225-1.43-.919-2.783-1.813-4.161-2.63-2.3-1.353-4.6-2.706-6.944-3.957a31.1,31.1,0,0,1-9.293-7.276C264.17,453.209,263.532,452.469,262.868,451.7Zm-29.258-284c1.557-.638,3.14-.332,4.723-.408.051-.153.077-.306.128-.46.689-2.579,1.608-4.978,3.855-6.663a39.63,39.63,0,0,0,6.485-6.434c.409-.485.74-1,1.174-1.557-.97-.077-.817-.766-.894-1.353-.791-.128-.97-.689-1-1.353a10.233,10.233,0,0,1,0-1.251c.153-3.089.332-6.153.485-9.242-.894.536-1.813,1.123-2.732,1.685.025.026.025.051.051.077.23-.077.434-.153.664-.23a20.65,20.65,0,0,0-2.017,1.277,11.232,11.232,0,0,1-5.846,2.3,34.8,34.8,0,0,1-5.157.128,23.38,23.38,0,0,0-5.336.945,1.928,1.928,0,0,0-1.4,1.1,32.25,32.25,0,0,1-1.736,3.038,4.054,4.054,0,0,0-.791,1.711,1.024,1.024,0,0,1-1.1.842c-.587.026-1.174.153-1.762.2a1.081,1.081,0,0,0-.128.179,22.335,22.335,0,0,0,1.889,1.915c1.225.919,2.553,1.736,3.83,2.6a22.035,22.035,0,0,1,4.417,3.574,6.662,6.662,0,0,1,1.787,3.906C233.3,165.382,233.458,166.53,233.611,167.7Zm-15.522-57.852a3.452,3.452,0,0,1,2.3-1.583,45,45,0,0,1,9.6-1.1,5.608,5.608,0,0,1,2.068.587,1.792,1.792,0,0,1,1.123,1.685c.051.74.128,1.455.179,2.272a3.734,3.734,0,0,1,4.468-.766v-.511c.051-1.711.332-2.017,1.94-2.5a30.725,30.725,0,0,1,7.914-1.149c1.225-.026,2.451.026,3.7.077a1.4,1.4,0,0,1,1.353,1.021c.281.842.434,1.736.715,2.579a2.324,2.324,0,0,0,.485.74c.051-.026.1-.077.153-.1a9.938,9.938,0,0,1,.051-4.34,12.747,12.747,0,0,1-1.43-1.455,5.421,5.421,0,0,1-.97-4.315.775.775,0,0,0-.868-1.021,3.273,3.273,0,0,1-2.681-.766,5.3,5.3,0,0,1-1.787-2.885c-.23-1-.306-1.991-.46-3.038-.638-.179-1.3-.357-1.711.562a2.916,2.916,0,0,1-.791.791,8.6,8.6,0,0,1-7.148,1.659c-2.808-.613-5.106-1.915-5.8-5-.613-.051-1.225-.1-1.838-.1a.58.58,0,0,0-.408.153,3.2,3.2,0,0,1-3.37,1.149c-1.328-.306-2.6-.817-3.932-1.251-.587.894-1.94.664-2.834,1.379.791,1.379,1.787,2.732.485,4.315,1.4,1.277,1.608,2.042.817,3.727a18.263,18.263,0,0,1-1.353,2.093,1.158,1.158,0,0,0-.255.536c.026.791.077,1.583.128,2.374.026.613.051,1.251.026,1.864C217.91,108.3,217.527,109.087,218.088,109.853ZM271.5,251.776c.128-.153.179-.179.2-.23a72.169,72.169,0,0,0,4.11-10.927,31.6,31.6,0,0,1,2.221-7.072c.026-.077.1-.179.077-.23-.051-.153-.128-.409-.255-.46a1.889,1.889,0,0,1-1.481-2.221,1.145,1.145,0,0,0-.128-.485,4.921,4.921,0,0,1-.562-1.174c-.46-3.651-.842-7.327-1.3-11-.255-2.094-.587-4.161-.894-6.229a.621.621,0,0,0-.23.383c-.179,1.43-.306,2.859-.511,4.289-.638,4.442-1.328,8.859-1.966,13.3-.332,2.2-.613,4.417-.945,6.612a2.291,2.291,0,0,0,1.353,2.757,2.4,2.4,0,0,1,.306.23,1.52,1.52,0,0,1,.434,1.966,13,13,0,0,1-.766,1.277,1.907,1.907,0,0,0-.255,1.532,22.861,22.861,0,0,1,.332,2.655C271.37,248.38,271.421,250.014,271.5,251.776ZM227.2,118.661v-.1c.842,0,1.659.026,2.5,0,1.506-.051,1.915-.408,2.094-1.889.153-1.251.281-2.476.357-3.727.051-1.047.051-2.093,0-3.115a1.337,1.337,0,0,0-1.3-1.43,8.082,8.082,0,0,0-1.915-.153,41.082,41.082,0,0,0-8.961,1.659,1,1,0,0,0-.843,1.123,15.478,15.478,0,0,0,1.353,6.051,2.028,2.028,0,0,0,1.838,1.251C223.96,118.406,225.594,118.534,227.2,118.661Zm21.088-10.57c-.766.051-1.762.051-2.732.2-1.838.281-3.651.613-5.463.945a.964.964,0,0,0-.894,1.2c.23,1.787.409,3.6.791,5.361a3.039,3.039,0,0,0,2.706,2.5,7.5,7.5,0,0,0,1.3.128c2.119-.077,4.238-.179,6.357-.281a1.064,1.064,0,0,0,.945-1.1,2.846,2.846,0,0,1,.128-.791,19.814,19.814,0,0,0,.562-6.817c-.077-.766-.357-1.1-1.123-1.174A24.52,24.52,0,0,0,248.291,108.092ZM193.758,238.781c-2.757,3.957-6.612,18.2-6.127,22.416a1.156,1.156,0,0,0,.128-.255,26.244,26.244,0,0,1,5.872-8.553,4.186,4.186,0,0,1,.894-.766.648.648,0,0,0,.409-.766c-.255-2.757-.485-5.515-.74-8.272C194.09,241.36,193.937,240.134,193.758,238.781ZM214.846,112.1a10.192,10.192,0,0,0-1-.536c-.613-.255-.791-.153-.868.511a9.9,9.9,0,0,0-.025,2.3c.179,1.685.46,3.344.715,5a8.907,8.907,0,0,0,1.1,3.676,5.046,5.046,0,0,0,2.63,1.736v-6.051c-.255.077-.689.077-.74.23a12.29,12.29,0,0,0-.332,1.685c-.868-.255-1.021-.536-.74-1.481a4.417,4.417,0,0,1,.357-.791c.051-.128.179-.281.153-.383-.179-.791-.408-1.583-.638-2.476a2.4,2.4,0,0,0-.434,2.221c.128.408.179.791-.306.919-.511.128-.664-.281-.74-.715-.128-.766-.281-1.506-.409-2.272-.2-1.379.1-1.762,1.506-1.787C215.229,113.249,214.157,112.84,214.846,112.1Zm79.067,120.069c-.128-.179-.153-.255-.179-.281a16.676,16.676,0,0,0-11.182-3.8,4.618,4.618,0,0,0-3.6,1.481,1.893,1.893,0,0,0-.255.664,3.937,3.937,0,0,0,.766.1c.128,0,.255-.153.383-.2a6.471,6.471,0,0,1,1.328-.511c.817-.179,1.2.153,1.3,1.021A16.89,16.89,0,0,1,293.913,232.169Zm-97.857,6.689a.52.52,0,0,0,.025-.128,19.552,19.552,0,0,1,.894-6.97,4.469,4.469,0,0,0-.638-3.8c-.562-.868-1.1-1.787-1.583-2.706-.46-.868-.817-1.787-1.225-2.706a6.671,6.671,0,0,0,.051,1.889c.051.23.23.587.434.638a.492.492,0,0,1,.408.511c.128,1.838.306,3.651.409,5.489a14.462,14.462,0,0,0-.128,1.481C195.137,234.671,195.622,236.79,196.056,238.858Zm38.908-62.4a60.16,60.16,0,0,0,3.013-7.94c-1.455.23-2.834.587-4.264.077.2,1.379.383,2.732.613,4.085C234.5,173.883,234.734,175.083,234.964,176.462Zm-.817,77.05c.587.051,1.353.1,2.119.179a2.672,2.672,0,0,0,2.63-1.225c1-1.481.485-3.115-1.149-3.5a11.576,11.576,0,0,0-5.208-.128,2.129,2.129,0,0,0-1.047,3.191,1.112,1.112,0,0,0,.153.179,1.663,1.663,0,0,0,.357.23,1.91,1.91,0,0,1,.025-2.374,2.167,2.167,0,0,1,2.247-.74,9.7,9.7,0,0,1,1.532.46,1.636,1.636,0,0,1,1.225,1.353,1.6,1.6,0,0,1-.894,1.608A13.14,13.14,0,0,1,234.147,253.512Zm15.293-4.034h-2.834v5.157c.791.128,1.634.255,2.476.409v-.562c-1.3.409-1.813.128-1.608-.842a.673.673,0,0,0,.97-.23A8.715,8.715,0,0,0,249.44,249.478Zm36.917-32.449a5.473,5.473,0,0,0-.485.332c-2.808,2.706-5.617,5.387-8.425,8.093a.519.519,0,0,0-.153.383c-.026.919,0,1.864,0,2.859.153-.1.306-.128.332-.179C279.642,224.025,283.012,220.552,286.356,217.029Zm-8.91,4.008a35.567,35.567,0,0,0,1.3-8.374c-.306-.1-.587-.2-.919-.306C277.267,215.242,277.7,218.127,277.446,221.037Zm-78.531,45.112c-.051-.1-.153-.281-.306-.613-.306.383-.613.664-.817.97-1.353,1.991-2.732,3.957-4.059,5.974a2.7,2.7,0,0,0-.179,1.072c1.557-2.17,3.064-4.289,4.519-6.331,0,0-.153.051-.281.1-.025-.026-.051-.077-.077-.1C198.1,266.864,198.481,266.532,198.915,266.149Zm-16.084-51.724c-.051.026-.077.077-.128.1a49.207,49.207,0,0,0,6.868,10.34C187.324,221.395,185.078,217.9,182.831,214.425Zm34.313-96.351c.1-.026.23-.077.332-.1-.153-.945-.281-1.915-.485-2.834-.179-.843-.255-.843-.945-.587.23.868.46,1.711.715,2.579C216.863,117.461,217.016,117.768,217.144,118.074Zm37.887-2.936c.051.051.128.077.179.128.46-.511.919-1.047,1.455-1.659a5.458,5.458,0,0,0-.638.051C255.669,114.193,255.363,114.678,255.031,115.138Z" transform="translate(-169.3 -72.86)" fill="#311d48"/>
  <path id="Trazado_934465" data-name="Trazado 934465" d="M218.021,111.449c-.536-2.042-1.43-3.983-2.17-5.974-.179-.511-.46-.613-.919-.332-.255.153-.536.434-.817.434a6.89,6.89,0,0,0-2.655.842,166.946,166.946,0,0,0-18.178,7.991c-.97.511-1.915,1-2.885,1.481a1.488,1.488,0,0,0-.868,1.149c-.128,1.047-.2,2.093-.306,2.962-.2-.408-.485-1-.791-1.583-.511,1.532-.868,2.987-1.3,4.417-1.506,4.953-3.115,9.88-4.57,14.884-1.966,6.817-3.753,13.71-6.2,20.373-1.991,5.387-4.008,10.774-5,16.493-.255,1.43-.945,2.808-.46,4.34a1.23,1.23,0,0,1,0,.306c-.23,1.659-.459,3.293-.664,4.953a16.226,16.226,0,0,0,1.736,10.008c.664,1.174,1.277,2.4,1.889,3.6a10.783,10.783,0,0,1,1.277,4.6,5.514,5.514,0,0,0,.766,2.6c.638,1.251,1.251,2.527,1.813,3.83a105.442,105.442,0,0,1,5,15.905c.689,2.681,1.557,5.31,2.349,7.965a14.313,14.313,0,0,0,.689,1.481c.153-.766.23-1.3.357-1.864s.23-1.149.408-1.711a36.89,36.89,0,0,1,9.957-16.7c-.562-.077-.894-.306-1.123-1.379-.434-2.093-.791-4.212-1.149-6.331-.179-1.1-.255-2.2-.383-3.293a15.24,15.24,0,0,0-.945,2.681c-.23.919-.383,1.838-.536,2.706a14.451,14.451,0,0,1,.025-1.813,11.685,11.685,0,0,1,.357-1.838c.153-.587.332-1.149.485-1.711a1.225,1.225,0,0,0-.511.434,26.026,26.026,0,0,0-5.132,9.982,4.874,4.874,0,0,1-.689,1.532,1.1,1.1,0,0,1-1.991-.23,1.97,1.97,0,0,1-.179-.664,25.016,25.016,0,0,1,.179-7.174,60.1,60.1,0,0,1,3.166-12.076,31.04,31.04,0,0,1,3.881-8.016.931.931,0,0,0,.1-.689c-.357-1.762-.715-3.5-1.1-5.259a1.914,1.914,0,0,0-.485-.894,42.457,42.457,0,0,1-8.961-12.663,37.4,37.4,0,0,1-1.379-3.676c-.077-.255.1-.613.153-.919.281.1.664.153.842.357a23.494,23.494,0,0,1,1.762,2.119c1.762,2.553,3.5,5.132,5.259,7.71.128.179.255.332.383.511a5.682,5.682,0,0,0-.536-1.123,3.707,3.707,0,0,1-.153-.766c.255.1.587.153.74.357.409.46.766,1,1.149,1.506l.23-.077c-.153-.664-.281-1.328-.485-1.966-.153-.562-.434-1.072-.613-1.634-1.864-6.025-2.425-12.255-2.757-18.509-.153-3.166-.23-6.332-.332-9.523-.026-1.047-.051-2.093-.026-3.14,0-.2.255-.408.408-.613.2.153.46.281.562.485a3.833,3.833,0,0,1,.255,1.1c.179,2.068.357,4.11.536,6.178.128,1.506,0,3.064.689,4.493.077.153-.051.383-.1.587a2.2,2.2,0,0,0-.23.766,98.52,98.52,0,0,0,1.3,12.867c.383,2.2.97,4.34,1.481,6.51a9,9,0,0,0,.434.945,7.654,7.654,0,0,0,.306-.945c.077-.23.2-.485.128-.689a38.841,38.841,0,0,1-1.4-10.7q0-10.148.128-20.3a11.1,11.1,0,0,1,.715-4.468c.1-.23.357-.357.562-.536a1.805,1.805,0,0,1,.332.715c.1,4.264.179,8.527.281,12.765.1,5.208.077,10.442.383,15.65a28.9,28.9,0,0,0,4.264,13.582,9.874,9.874,0,0,1,1.072,2.5,6.945,6.945,0,0,1-.434,3.932,13.83,13.83,0,0,0-.689,4.672c.153,3.115.153,6.255.383,9.4.255,3.421.689,6.817,1.072,10.212a49.737,49.737,0,0,0,1.3,7.353c.1-.409.255-.894.383-1.4.2-.919.383-1.838.638-2.732.077-.255.485-.587.689-.536.255.051.485.408.638.689a1.009,1.009,0,0,1,.026.562,1.782,1.782,0,0,0,.383,1.328,6.42,6.42,0,0,1,1.123,3.651,17.027,17.027,0,0,1-.817,5.055,78.089,78.089,0,0,1-6.383,14.782,40.03,40.03,0,0,1-2.987,4.468,3.421,3.421,0,0,1-1.174.894.837.837,0,0,1-1.149-.357.9.9,0,0,1,.153-1.149c.357-.409.715-.817,1.047-1.251a63.489,63.489,0,0,0,5.132-8.578,59.862,59.862,0,0,0,4.851-10.672,18.4,18.4,0,0,0,.664-3.727,3.137,3.137,0,0,0-.97-2.528,49.742,49.742,0,0,1-5.821,14.986,60.28,60.28,0,0,1-9.6,12.714,5.979,5.979,0,0,1,.46,1.2,14.82,14.82,0,0,1,.128,2.374,20.877,20.877,0,0,1-2.042,7.94c-2.553,5.387-5.132,10.748-7.634,16.161-1.2,2.63-2.247,5.336-3.344,8.017a3.711,3.711,0,0,0-.153.664c1.2,0,2.323.026,3.421,0a25.582,25.582,0,0,1,10.927,2.349q8.157,3.676,16.263,7.455a16.691,16.691,0,0,0,10.365,1.3c.715-.128.817-.408.817-1.047a138.541,138.541,0,0,1,.638-15.624c.383-3.6.842-7.2,1.3-10.8.485-3.7,1.1-7.378,1.532-11.08.46-3.932.868-7.889,1.174-11.821.332-4.264.536-8.553.74-12.816.179-4.161.281-8.3.434-12.459.2-5.974.46-11.948.536-17.9.077-6.025,0-12.076-.1-18.1-.153-7.914-.383-15.829-.638-23.743-.077-2.706-.281-5.412-.511-8.119-.306-3.549-.664-7.1-1.1-10.646-.511-4.136-1.1-8.272-1.711-12.382a22.366,22.366,0,0,1-.255-5.54,1.61,1.61,0,0,1,.23-.638c.051-.077.255-.1.383-.077a.346.346,0,0,1,.153.281v.077a7.94,7.94,0,0,0,.409-1.251A23.863,23.863,0,0,0,218.021,111.449Z" transform="translate(-168.084 -22.961)" fill="#fff"/>
  <path id="Trazado_934466" data-name="Trazado 934466" d="M224.944,105.977a15.365,15.365,0,0,0-4.57-3.727c-.025.1-.051.128-.051.153a.473.473,0,0,0,.051.179,5.164,5.164,0,0,1,1.532,2.859,1.517,1.517,0,0,1-.2,1.4,29.984,29.984,0,0,1-8.17,8.553,5.245,5.245,0,0,0-2.3,3.038c-.077.281-.179.562-.255.843-.357,1.353-.664,2.706-1.047,4.059a64.092,64.092,0,0,1-3.676,8.6,7.258,7.258,0,0,0-.23,1.072c-.1.306-.281.715-.511.791a1.021,1.021,0,0,1-.868-.383,2.6,2.6,0,0,1-.485-1.2c-.485-2.885-.945-5.8-1.379-8.706-.23-1.608-.306-3.242-.562-4.851a6.17,6.17,0,0,0-2.579-3.881c-1.864-1.481-3.778-2.885-5.693-4.315a8.087,8.087,0,0,1-3.268-4.749,7.969,7.969,0,0,1-.128-1.4c-.511.2-1.072.46-1.659.689a.819.819,0,0,0-.587,1.072,39.128,39.128,0,0,0,1.353,4.136,32.141,32.141,0,0,1,2.374,6.638c.332,1.557.638,3.14.97,4.8.1-.23.153-.383.23-.536.766-1.608,1.481-3.268,2.3-4.851a6.008,6.008,0,0,1,1.353-1.557.99.99,0,0,1,1.583.2,6.579,6.579,0,0,1,.74,1.3,26.359,26.359,0,0,1,2.247,8.093,17.616,17.616,0,0,1-.077,3.064c0,.128-.2.281-.306.408a.98.98,0,0,1-.434-1.1,53.347,53.347,0,0,0-2.553-10.11,6.677,6.677,0,0,0-.357-.817,5.4,5.4,0,0,0-.46.74c-.843,2.017-1.736,4.008-2.527,6.051-.357.868-.536,1.787-.817,2.681a1.049,1.049,0,0,1-1.072.817,1.063,1.063,0,0,1-1.021-.868c-.1-.306-.153-.638-.23-.97-.357-1.711-.664-3.421-1.021-5.132a7.933,7.933,0,0,1-.408,1.251,22.806,22.806,0,0,0,.1,2.962c.842,5.668,1.864,11.31,2.579,17,.74,6.051,1.3,12.152,1.736,18.254.357,5.183.536,10.391.638,15.573.153,8.808.2,17.616.306,26.424v.689a17.859,17.859,0,0,1,1.838-.357c1.149-.128,2.323-.2,3.5-.255a11.779,11.779,0,0,1,2.119-.026c1.557.2,3.115.613,4.672.766,3.447.357,6.893.587,10.34.894.306.026.715.026.894.2.434.485.919.332,1.455.306.051-.332.1-.638.128-.97.306-3.523.613-7.072.919-10.6.332-3.906.664-7.812.97-11.718.255-3.6.485-7.2.664-10.8.23-4.927.485-9.855.562-14.756.077-4.6,0-9.191-.1-13.786-.1-4.059-.306-8.144-.46-12.2,0-.179-.051-.434-.179-.485a2.052,2.052,0,0,1-.97-1.4c-.587-1.838-1.174-3.7-1.736-5.54-.409-1.328-.817-2.681-1.277-3.983-.077-.23-.485-.562-.689-.536a3.146,3.146,0,0,0-2.2,1.251,28.73,28.73,0,0,0-3.574,6.714c-.1.306-.128.868-.664.689-.153-.051-.255-.664-.179-.97a15.089,15.089,0,0,1,4.11-7.455,3.476,3.476,0,0,1,1.328-.791c1.915-.74,2.451-.536,3.217,1.353.74,1.864,1.379,3.8,2.042,5.693.077.23.179.46.281.715.051,0,.1-.026.153-.026-.255-4.7-.306-9.37,1.532-13.837-.026.868-.077,1.71-.179,2.579-.128,1.072-.306,2.145-.46,3.217.1.026.179.026.281.051.434-2.834.894-5.668,1.328-8.5A3.027,3.027,0,0,0,224.944,105.977Zm-17.973,45.214c-.255,1.583-.306,3.191-.459,4.8-.306,2.987-.562,5.974-.945,8.961a50.881,50.881,0,0,0-.306,9.242c.23,4.468.383,8.936.587,13.378.153,3.013.332,6.051.459,9.063,0,.2-.23.613-.357.613-.23,0-.638-.179-.689-.357a10.309,10.309,0,0,1-.638-2.579c-.179-4.57-.281-9.14-.408-13.71-.077-2.476-.1-4.978-.2-7.455a66.963,66.963,0,0,1,.587-10.11c.332-3.14.536-6.306.842-9.472.179-1.915.485-3.8.638-5.719.2-2.374.306-4.749.511-7.123.077-1.047.255-2.093.383-3.14a7.308,7.308,0,0,1,.894,3.779A52.929,52.929,0,0,1,206.971,151.191Z" transform="translate(-139.852 -27.217)" fill="#b1deef"/>
  <path id="Trazado_934467" data-name="Trazado 934467" d="M204.55,350.173a27.386,27.386,0,0,1-3.217-.945,24.139,24.139,0,0,1-6.893-4.493,4.009,4.009,0,0,1-.868-1.2,3.205,3.205,0,0,0-2.808-1.685,20.014,20.014,0,0,0-6.383.689c-.791.153-1.557.383-2.451.587a3.08,3.08,0,0,1,.2-.485,3.665,3.665,0,0,1,.306-.536,9.694,9.694,0,0,0,1.3-7.276c-.638-4.238-1.1-8.527-1.43-12.816a33.746,33.746,0,0,1,1.991-13.582,32.411,32.411,0,0,0,1.072-4.11c.408-2.017-.153-3.957-.664-5.923a72.406,72.406,0,0,1-1.889-7.634c-.459-3.242-.536-6.536-.689-9.8a105.371,105.371,0,0,1,.689-15.012c.23-2.3.281-4.621.408-6.944.2-4.366.511-8.706.536-13.071.025-5.872-.153-11.718-.23-17.59V227.7c.408.179.791.332,1.149.511a19.349,19.349,0,0,0,6.587,2.017,20.321,20.321,0,0,0,5.285-.332,2.132,2.132,0,0,1,.894.077.855.855,0,0,0,1.225-.664,6.711,6.711,0,0,0,.1-1.251c.1-3.6.077-7.174.281-10.774.2-3.4.536-6.791.945-10.161.562-4.519,1.3-9.038,1.915-13.557.536-4.11,1.072-8.221,1.455-12.357.357-3.83.613-7.659.791-11.489.281-6.255.485-12.51.715-18.765.077-1.991.1-4.008.179-6,0-.357.025-.715.051-1.021,1.66.153,3.268.383,4.876.46,2.936.128,5.872.153,8.808.255,2.068.077,4.11.23,6.178.409,1.021.077,2.017.281,3.038.408a12.4,12.4,0,0,0,1.379,0c-.1,1.1-.2,2.247-.306,3.37-.255,2.962-.536,5.949-.74,8.91-.255,4.085-.511,8.17-.613,12.255-.179,6.689-.357,13.4-.332,20.092.026,10.135.2,20.3.357,30.432a21.256,21.256,0,0,0,1.251,7.557c.408,1,.791,2.017,1.915,2.4a3.487,3.487,0,0,0,1.659.306,48.812,48.812,0,0,0,8.017-2.119c2.579-.868,5.234-1.506,7.838-2.323,1.43-.434,2.808-1.021,4.212-1.532.179-.051.357-.077.485-.1,0,1.276.051,2.527,0,3.8-.128,2.859-.255,5.719-.46,8.578-.179,2.757-.434,5.54-.664,8.3-.23,2.885-.485,5.77-.689,8.68-.306,3.8-.536,7.608-.868,11.412a201.091,201.091,0,0,1-4.212,24.892c-1,4.646-1.762,9.344-2.349,14.067-.281,2.221-.843,4.417-1.251,6.638q-.191.919-.306,1.838a3.03,3.03,0,0,0,1.379,3.013c1.353.919,1.481,1.353.919,2.885-.23.613-.511,1.174-.791,1.762s-.587,1.149-.894,1.71a5.532,5.532,0,0,0,.051,5.617,7.728,7.728,0,0,1,1.276,4.876c-.281,1.94-.281,3.957-1.3,5.744a1.445,1.445,0,0,0-.255.766c.077.74-.434.97-.97,1.225-1.3.664-2.553,1.4-3.855,2.068a7.446,7.446,0,0,1-6.689.383,3.5,3.5,0,0,0-3.14.179c-1.2.613-2.4,1.2-3.651,1.762a1.65,1.65,0,0,0,.817-1.685c-.1-2.476-.1-4.978-.357-7.429-.434-4.544-1.047-9.063-1.557-13.608-.562-5.132-1.072-10.238-1.583-15.369-.434-4.212-.817-8.425-1.3-12.637q-.574-4.9-1.3-9.8a62.452,62.452,0,0,1-.74-12.152,34.01,34.01,0,0,0-1.328-12.612,9.38,9.38,0,0,1,.051-5.974,15.975,15.975,0,0,0,.281-8.348,97.644,97.644,0,0,1-1.711-12.765c-.281-3.957-.562-7.914-.562-11.872,0-3.523.306-7.046.536-10.57a173.073,173.073,0,0,0,.511-17.82c-.025-.766-.1-1.532-.2-2.3a.917.917,0,0,0-.409-.689c-.179-.077-.485.179-.664.255a3.992,3.992,0,0,1,.2.715c-.23,3.753-.459,7.506-.74,11.233-.434,6.255-1.047,12.51-1.3,18.79a109.4,109.4,0,0,0,.383,11.565c.23,3.37.715,6.714,1.149,10.059.23,1.736.638,3.447,1.021,5.157a11.53,11.53,0,0,1-.2,5.821,11.918,11.918,0,0,0,.077,7.429,1.282,1.282,0,0,1,.051.536c-.306,2.068-.715,4.11-.945,6.178-.383,3.447-.664,6.893-.97,10.34-.179,2.094-.255,4.212-.409,6.306-.281,3.651-.511,7.276-.894,10.927-.383,3.625-.817,7.251-1.43,10.85a130.9,130.9,0,0,1-4.9,20.143,30.637,30.637,0,0,0-1.3,6.612,2.389,2.389,0,0,0,1.353,2.4c.791.46.791.511.383,1.328-.306.562-.613,1.123-.97,1.685a6.391,6.391,0,0,0-.715,5.514c.409,1.277.817,2.528,1.2,3.8a1.758,1.758,0,0,1-.587,2.068,9.683,9.683,0,0,0-.791.945A.7.7,0,0,1,204.55,350.173Zm-.46-166.483a4.273,4.273,0,0,0,2.6,2.042,13.1,13.1,0,0,1,3.472.894,8.756,8.756,0,0,0,6.2.613c2.987-.817,5.923-1.787,8.884-2.732a6.436,6.436,0,0,0,1.506-.613c.23-.128.357-.485.536-.74a3.072,3.072,0,0,0-.868-.434,2.572,2.572,0,0,0-.97.153c-2.783.715-5.566,1.43-8.348,2.119a9.191,9.191,0,0,1-6.536-.46,8.678,8.678,0,0,0-1.864-.485c-1.481-.332-3.038.128-4.493-.485C204.243,183.589,204.218,183.614,204.09,183.691ZM215.2,146.672a.324.324,0,0,1-.153-.026c-.128,2.936-.23,5.872-.408,8.808-.23,3.523-.536,7.021-.791,10.544-.255,3.472-.485,6.944-.715,10.416-.077,1.3-.128,2.63-.128,3.932,0,.281.255.536.383.817.153-.255.306-.485.434-.74v-.051c.23-2.017.485-4.059.664-6.1.255-2.681.562-5.361.664-8.042.1-3.217.025-6.459.025-9.7C215.17,153.259,215.2,149.965,215.2,146.672Zm2.247,27.93c.128,0,.23.026.357.026.664-1.685.408-3.5.613-5.234.23-1.787.306-3.574.408-5.361.128-1.813.281-3.625.332-5.438.051-1.787.026-3.6-.051-5.387s-.281-3.574-.434-5.361A234.321,234.321,0,0,0,217.443,174.6Z" transform="translate(-149.685 37.529)" fill="#7b6a58"/>
  <path id="Trazado_934468" data-name="Trazado 934468" d="M223.34,156.255c.23-.23.434-.46.74-.791.051,3.983-.894,7.736-1.481,11.514-.587,3.8-1.3,7.608-1.966,11.387-.511,2.987-1,6-1.481,9.012a6.236,6.236,0,0,0-.051,1.379,3.211,3.211,0,0,0,1.915,2.936c.23.1.46.2.74.357-.23.357-.46.715-.689,1.047a2.792,2.792,0,0,0-.383,2.374,16.6,16.6,0,0,1,.383,2.783c.153,2.272.153,4.544.409,6.791a4.556,4.556,0,0,1-.409,2.553,10.37,10.37,0,0,0-.715,1.864,16.088,16.088,0,0,0-.23,2.042,7.585,7.585,0,0,1-.128-3.115,1.3,1.3,0,0,0,.077-.434c-.026-.23-.1-.613-.2-.613a.832.832,0,0,0-.689.2,4.062,4.062,0,0,0-.842,2.579,17.557,17.557,0,0,0,1.2,6.357,59.415,59.415,0,0,0,5.259,10.7,49.7,49.7,0,0,1,3.447,7.021c.179.434.255,1.123.945.945.664-.153.638-.817.613-1.353a11.066,11.066,0,0,0-1.379-4.57c-.74-1.455-1.583-2.859-2.374-4.264a57.06,57.06,0,0,1-5.132-10.493c-.077-.23-.153-.485-.2-.715a2.86,2.86,0,0,1,3.676.74,21.75,21.75,0,0,1,2.476,3.5,41.278,41.278,0,0,1,4.366,11.795.977.977,0,0,1-.026.536,3.615,3.615,0,0,1-.2-.459c-1.379-3.4-2.732-6.791-4.11-10.187a12.065,12.065,0,0,0-.843-1.736.905.905,0,0,0-.638-.357c-.128,0-.281.357-.357.562a4.4,4.4,0,0,0-.128.74l.408-.409c.664,2.094,1.3,4.187,2.017,6.255,1.047,3.064,2.17,6.127,3.217,9.191.306.868.46,1.762.689,2.655.255.919.689,1.123,1.608.766a3.672,3.672,0,0,1-.587,2.732,3.8,3.8,0,0,0-.715,2.706,3.2,3.2,0,0,1-.23,1.634,14.138,14.138,0,0,0-1.021,4.544,69.366,69.366,0,0,0-.511,12.178c.2,3.574.511,7.148.843,10.723.255,2.936.613,5.9.945,8.833a.553.553,0,0,1-.383.664c-2.272,1-4.519,2.017-6.791,3.038a5.577,5.577,0,0,0-.587.23c-2.017,1.532-4.468,1.762-6.791,2.323-2.859.689-5.489,1.915-8.246,2.859-1.481.511-3.064.791-4.6,1.174-.357.1-.587-.051-.894-.357-1.659-1.736-1.838-3.957-1.966-6.1-.281-4.749-.434-9.523-.511-14.271-.153-9.37-.332-18.739-.332-28.134,0-5.77.2-11.514.485-17.284.23-4.825.664-9.65,1.072-14.476.46-5.259,1.021-10.493,1.481-15.752.383-4.366.715-8.731,1.047-13.1.332-4.621.715-9.242.945-13.863.383-7.1.766-14.22.587-21.343-.128-5.157-.153-10.314-.306-15.471-.077-2.476-.434-4.953-.459-7.429a51.34,51.34,0,0,1,.332-6.868c.357-3.013.945-6,1.353-9.012a28.806,28.806,0,0,0,.153-3.268c5.642,2.017,11.54,3.727,16.927,6.689,2.808,1.557,5.744,2.834,8.6,4.315a22.938,22.938,0,0,1,3.013,1.889c.894.664.894,1,.357,1.966-.485.894-.408,1.328.434,1.889a3.716,3.716,0,0,1,1.3,2.528c.766,3.217,1.481,6.459,2.374,9.625,1.864,6.459,3.217,13.02,4.468,19.607a119.826,119.826,0,0,0,3.574,13.276q1.876,6.127,3.83,12.2a3.85,3.85,0,0,1-.23,3.344,3.439,3.439,0,0,0,.2,3.83,1.312,1.312,0,0,1,.1,1.506c-3.319,5.387-4.876,11.489-6.817,17.412A83.922,83.922,0,0,1,239.4,218.5c-2.068,3.8-3.932,7.736-5.9,11.591-.1.179-.2.357-.332.613a42.826,42.826,0,0,0-4.749-13.25,24.269,24.269,0,0,0-2.221-3.319,5,5,0,0,0-4.519-2.323,4.961,4.961,0,0,1,.664-2.706,96.124,96.124,0,0,0,5.31-11.667,27.5,27.5,0,0,0,1.966-8.17.738.738,0,0,1,.281-.46,6.328,6.328,0,0,1,6.076-.817,15.54,15.54,0,0,1,8.093,5.923c-.179-.1-.383-.2-.562-.306a19.56,19.56,0,0,0-8.655-2.63,6.423,6.423,0,0,0-2.093.2c-.868.2-1.021.919-.332,1.481a9.54,9.54,0,0,0,1.966,1.174c1.277.638,2.63,1.2,3.881,1.864a4.371,4.371,0,0,1,.97.97c-.434.23-.842.638-1.3.689a35.506,35.506,0,0,1-3.676.23c-.97.026-1.966-.077-2.936-.051a2.055,2.055,0,0,0-2.247,2.323,8.249,8.249,0,0,0,1,3.268c.128.306.281.613.485,1.047-.281-1.225-.511-2.272-.766-3.344-.026-.051-.026-.128-.051-.179-.357-1.838.2-2.528,2.094-2.528,1.762,0,3.549.051,5.31-.025a5.431,5.431,0,0,0,1.991-.485,1.023,1.023,0,0,0,.255-1.915,12.266,12.266,0,0,0-2.323-1.3c-.97-.434-1.991-.74-2.987-1.149a7.807,7.807,0,0,1-1.455-.74c-.23-.153-.485-.511-.434-.715.051-.23.434-.46.689-.511a7.605,7.605,0,0,1,1.864-.077,19.445,19.445,0,0,1,9.7,3.7c.2.153.383.383.613.536a1.9,1.9,0,0,0,.536.179,4.955,4.955,0,0,0,.051-.613c0-.077-.077-.153-.128-.23a17.605,17.605,0,0,0-10.748-7.863,6.205,6.205,0,0,0-4.851.689c.434-1.021.791-1.915,1.2-2.783.077-.153.306-.255.511-.357a13.964,13.964,0,0,1,7.582-1.4,13.766,13.766,0,0,1,7.608,2.706c.46.357.868.766,1.328,1.149.357.281.74.715,1.2.332.511-.408.179-.894-.051-1.3a12.224,12.224,0,0,0-3.779-4.136,17.563,17.563,0,0,0-10.467-3.4,8.465,8.465,0,0,0-4.442,1.123c.306-.562.485-.97.74-1.379a60.512,60.512,0,0,1,6.383-8.272c.817-.945,1.685-1.864,2.5-2.808.179-.2.179-.587.255-.868a2.677,2.677,0,0,0-.97-.128,15.653,15.653,0,0,0-4.621,2.834c-1.634,1.353-3.242,2.757-4.851,4.161.2-1,.511-2.017.638-3.038.255-2.2.409-4.391.613-6.587a3.461,3.461,0,0,1,.281-1.123,3.313,3.313,0,0,0,.357-2.4c-.077-.2-.306-.357-.46-.536-.153.179-.408.306-.46.511-.179.715-.281,1.481-.46,2.2a9.277,9.277,0,0,1-.408.919c-.868-.613-1.021-.562-1.072.383-.153,2.119-.23,4.238-.357,6.383a13.4,13.4,0,0,1-.2,1.736c-.23-1.736-.408-3.472-.715-5.183-.562-3.14-1.2-6.255-1.787-9.4a2.749,2.749,0,0,1,.026-1.021c.919-4.008,3.344-7.174,5.77-10.34,1.047-1.353,2.247-2.579,3.4-3.83a2.98,2.98,0,0,1,.945-.715c-.357.485-.74,1-1.072,1.481a29.606,29.606,0,0,0-4.8,9.829,6.41,6.41,0,0,0-.1.689c0,.919.664,1.4,1.455.945.894-.511,1.736-1.174,2.655-1.813-1.174-.562-1.991,0-3.012.485.23-.945.357-1.762.587-2.553a24.373,24.373,0,0,1,5.055-9.267c.255-.281.689-.587.357-1.021-.332-.408-.817-.2-1.149.051a21.56,21.56,0,0,0-2.247,1.787,43.476,43.476,0,0,0-6.357,8.272,2.892,2.892,0,0,1-.766.919c.2-1.123.357-2.247.613-3.344a141.586,141.586,0,0,1,5.642-18.484c.153-.408.306-.817.434-1.251.026-.128-.025-.409-.1-.434a.534.534,0,0,0-.485.077,7.115,7.115,0,0,0-.536.689,35.023,35.023,0,0,0-3.881,9.114,91.648,91.648,0,0,0-2.757,11.335c-.306,1.813-.689,3.6-1.021,5.387a1.291,1.291,0,0,1-.179.383c-.409.587-.843,1.149-1.251,1.736A.276.276,0,0,0,223.34,156.255Z" transform="translate(-120.861 -24.111)" fill="#fff"/>
  <path id="Trazado_934469" data-name="Trazado 934469" d="M233.583,108.588c.434-.128.843-.281,1.277-.408l.1.1c-.23.383-.46.74-.689,1.149.128.153.255.281.408.485-.46.434-.919.817-1.225,1.123-.689-.2-1.276-.409-1.889-.536-.46-.077-.766-.2-.868-.715-.153-.664-.562-1.276-.1-1.966.077-.1-.025-.306-.051-.485a1.666,1.666,0,0,1,.638-1.711.858.858,0,0,0,.281-.613c-.025-.153-.306-.281-.485-.408a5.539,5.539,0,0,1-1.277-.843,5.141,5.141,0,0,1-1.2-3.727.514.514,0,0,1,.179-.408c.485-.281.689-.664.383-1.149-.357-.536-.817-.357-1.251-.051a.717.717,0,0,1-.128-.026,2.118,2.118,0,0,0-.153-.536,1.583,1.583,0,0,0-.664-.638,3.615,3.615,0,0,1-2.987-3.676,18.639,18.639,0,0,1,0-2.068,1.081,1.081,0,0,0-.511-1.174,1.039,1.039,0,0,0-1.3.306.655.655,0,0,1-.485.153,3.22,3.22,0,0,1-1.813-.664c-.587-.536-1.251-.23-1.277.587-.025.894-.511,1.251-1.251,1.532-2.5,1-4.927,1.174-7.327-.281a5.182,5.182,0,0,1-2.2-2.579c-.408-1.021-.664-1.1-1.634-.562a1.916,1.916,0,0,1-2.3-.434,1.123,1.123,0,0,0-1.379-.23c-.511.281-.511.715-.2,1.353a15.215,15.215,0,0,1-1.787-.306,14.057,14.057,0,0,1-4.57-2.63c-.383-.306-.74-.613-1.123-.894-.613-.434-1.149-.408-1.532,0a1.106,1.106,0,0,0,.077,1.583c.613.638,1.328,1.2,1.991,1.787.1.1.23.179.306.255a23.357,23.357,0,0,0-2.349.868c-1,.485-1.1,1-.536,1.966a9.062,9.062,0,0,1,.536,1.123,1.37,1.37,0,0,1-.409,1.685c-.638.536-.536,1.123.153,1.583a2.873,2.873,0,0,1,.46.306c.562.46.689.817.281,1.379-.511.715-1.149,1.353-1.736,2.042a8.138,8.138,0,0,0-.664.664.879.879,0,0,0,.1,1.3c.485.306.459.715.562,1.149a7.354,7.354,0,0,1,.128,3.574,11.2,11.2,0,0,0-.281,2.068,2.724,2.724,0,0,1-1.711-2.681c-.051-.613,0-1.251-.025-1.889,0-.638-.153-.766-.791-.715a.886.886,0,0,1-1.072-1.021,1.135,1.135,0,0,0-.689-1.251,4.748,4.748,0,0,1-2.3-3.676,10.583,10.583,0,0,1,2.961-9.472,14.014,14.014,0,0,1,2.145-1.71,1.473,1.473,0,0,0,.613-2.221c-.179-.357-.332-.715-.485-1.072A1.753,1.753,0,0,1,191,81.041a22.513,22.513,0,0,1,2.094-1.353,4.6,4.6,0,0,1,.97-.408,2.608,2.608,0,0,0,2.068-2.3,3.417,3.417,0,0,1,2.732-2.859,12.582,12.582,0,0,1,5.515-.332,4.688,4.688,0,0,1,2.425,1.225,10.591,10.591,0,0,0,.817.689,1.4,1.4,0,0,0,2.017-.2,4.069,4.069,0,0,0,.638-.842,1.715,1.715,0,0,1,1.889-.868,45.024,45.024,0,0,0,4.544.128c2.5-.077,4.927.128,7.072,1.557a1.973,1.973,0,0,0,1.813.128,8.766,8.766,0,0,1,4.927-.306,2.953,2.953,0,0,1,2.5,2.4,1.545,1.545,0,0,1-.434,1.481c-.613.613-.485,1.1.306,1.4l.23.077c2.323.74,3.013,1.966,2.374,4.315a12.894,12.894,0,0,1-.843,2.145,3.185,3.185,0,0,0,.026,3.064l1.455,2.757a2.461,2.461,0,0,1-.2,2.91c-.74.97-.536,1.608.536,2.221a1.9,1.9,0,0,1,.664,2.3c-.281.46-.613.894-.919,1.328a2.085,2.085,0,0,0-.306,1.455,20.31,20.31,0,0,1-.128,3.293c-.025.23-.383.485-.613.664-.562.46-1.149.919-1.736,1.379A.257.257,0,0,1,233.583,108.588Z" transform="translate(-144.839 -71.671)" fill="#312783"/>
  <path id="Trazado_934470" data-name="Trazado 934470" d="M188.644,89.7c.2.894.357,1.813.587,2.681.613,2.17,1.966,3.472,4.289,3.447,2.476-.026,4.953-.077,7.429-.23a2.425,2.425,0,0,0,2.5-2.349c.2-1.1.281-2.221.408-3.344.026-.306.026-.587.434-.638a.671.671,0,0,0,.357-.23,2.14,2.14,0,0,1,2.732-.357c.766.332,1.328.715,1.251,1.659a5.013,5.013,0,0,0,.255,1.481,4.125,4.125,0,0,0,3.881,3.37,41.183,41.183,0,0,0,6.868.2c2.63-.153,4.008-1.685,4.391-4.289.1-.791.179-1.608.255-2.5.383.2.74.383,1.123.587a30.128,30.128,0,0,0-.357,7.251c.026,1.4.255,2.783.357,4.187a13.981,13.981,0,0,1-5.54,12.306,26.429,26.429,0,0,1-9.114,4.672,5.713,5.713,0,0,1-1.481.077,29.264,29.264,0,0,1-9.982-1.277,13.378,13.378,0,0,1-1.659-.689c-.613-.281-1.2-.689-1.838-.945a6.493,6.493,0,0,1-2.476-1.838,16.6,16.6,0,0,1-4.264-12.535,29.02,29.02,0,0,0-.817-10.059C188.082,89.953,188.235,89.749,188.644,89.7Zm17.029,20.245v-.026c.485,0,.97-.026,1.43,0a6.6,6.6,0,0,0,4.8-1.813,5.277,5.277,0,0,1,3.089-1.711.38.38,0,0,0,.23-.1,5.775,5.775,0,0,0,.332-.511,2.679,2.679,0,0,0-.587-.2c-1.149,0-2.3.077-3.421,0a7.92,7.92,0,0,0-3.37.153,4.862,4.862,0,0,1-4.11-.306,3.58,3.58,0,0,0-1.813-.281c-1.532.051-3.013.638-4.57.306-.23-.051-.715.1-.766.255-.153.434.23.562.587.613a2.482,2.482,0,0,1,1.864,1.174,10.723,10.723,0,0,0,1.251,1.4,3.094,3.094,0,0,0,2.017.919C203.656,109.842,204.651,109.867,205.673,109.944Zm-2.987-11.565-.153-.23a1.8,1.8,0,0,0-1.787.689,1.305,1.305,0,0,0-.332,1.047,1.409,1.409,0,0,0,.766.715,6.438,6.438,0,0,0,1.225.153.713.713,0,0,1,.434.23,2.376,2.376,0,0,0,1.94,1.4,6.315,6.315,0,0,0,4.366-.97,2.846,2.846,0,0,1,1.2-.357,2.127,2.127,0,0,0,1.659-.843,1.15,1.15,0,0,0-.026-1.353.819.819,0,0,0-1.1-.281c.2,1.1.179,1.149-.485,1.328-.715.179-1.43.409-2.145.638a10.162,10.162,0,0,1-1.43.434,3.493,3.493,0,0,1-3.242-.664,1.459,1.459,0,0,0-1.506-.485c-.179.051-.46-.128-.894-.255C201.766,99.093,202.226,98.736,202.686,98.378Zm8.527,12.331c-.025-.077-.077-.128-.1-.2a1.991,1.991,0,0,0-.562.077,10.156,10.156,0,0,1-5.846.46c-.791-.153-1.583-.306-2.4-.409-.153-.025-.357.128-.536.2.1.179.153.383.306.485a2.176,2.176,0,0,0,.791.332c1.3.2,2.63.46,3.957.562a6.294,6.294,0,0,0,3.7-.894A3.942,3.942,0,0,0,211.213,110.71Zm-3.166-13.761.153.077c.077-.128.255-.281.23-.409a.61.61,0,0,0-.332-.383c-.153-.1-.485-.1-.511-.179-.026-.715-.536-.383-.817-.357-.766.128-1.532.332-2.3.511a1.129,1.129,0,0,0-.409.153.91.91,0,0,0-.255.281l.077.153c.689-.1,1.4-.255,2.094-.306.74-.026,1.481.051,2.3.077A2.881,2.881,0,0,1,208.047,96.949Zm-3.013-7.327v4.7A7.224,7.224,0,0,0,205.034,89.622Z" transform="translate(-139.983 -48.799)" fill="#fabd79"/>
  <path id="Trazado_934471" data-name="Trazado 934471" d="M216.8,230.579c.179,1.711.332,3.344.511,5.029a28.471,28.471,0,0,0-6.791.255,2.681,2.681,0,0,0-2.681,2.757,4.6,4.6,0,0,1-1.3,2.655,14.11,14.11,0,0,1-8.68,4.391,49.044,49.044,0,0,1-10.059-.1c-2.119-.179-4.238-.281-6.357-.409-1.736-.1-3.5-.153-5.259-.255a.645.645,0,0,1-.485-.357c-.46-1.685-.894-3.37-1.328-5.055a.772.772,0,0,1,.434-.945c.74-.434,1.455-.894,2.221-1.251,2.783-1.251,5.566-2.425,8.348-3.625a2.893,2.893,0,0,0,1.736-1.915,6.558,6.558,0,0,1,.945-1.889,28.435,28.435,0,0,1,2.553-3.013,7.7,7.7,0,0,0,2.145-3.319c.1-.409.332-.511.74-.562,1.838-.2,3.676-.511,5.515-.689a24.748,24.748,0,0,1,3.37-.051,1.315,1.315,0,0,1,1.379,1.021,2.145,2.145,0,0,0,.485.792,21.788,21.788,0,0,0,10.084,6.357,5.925,5.925,0,0,0,1.174.179C215.881,230.6,216.264,230.579,216.8,230.579Z" transform="translate(-161.476 159.064)" fill="#432918"/>
  <path id="Trazado_934472" data-name="Trazado 934472" d="M218.1,221.25c.689.791,1.328,1.532,1.966,2.272a30.694,30.694,0,0,0,9.293,7.276c2.349,1.251,4.647,2.6,6.944,3.957,1.379.817,2.732,1.711,4.161,2.63-.306-.409-.587-.792-.894-1.225.664.153,1.225.255,1.787.409a.5.5,0,0,1,.306.332c.306,1.659.613,3.319.894,4.978.1.536-.153.74-.689.74-4.468.077-8.936.2-13.4.23a38.185,38.185,0,0,1-14.425-2.6,8.91,8.91,0,0,1-3.957-2.757,6.411,6.411,0,0,0-4.672-2.5,27.41,27.41,0,0,1-6.919-2.094c-.434-.2-.383-.536-.332-.842.128-1.149.383-2.3.459-3.472a2.045,2.045,0,0,1,1.532-1.915c1.2-.485,2.323-1.1,3.472-1.685a1.9,1.9,0,0,1,1.736-.077,8.064,8.064,0,0,0,7.251-.306c1.711-.868,3.293-1.94,4.953-2.936A2.279,2.279,0,0,1,218.1,221.25Z" transform="translate(-124.531 157.593)" fill="#432918"/>
  <path id="Trazado_934473" data-name="Trazado 934473" d="M201.991,127.466c-.128-1.149-.281-2.3-.409-3.447a6.987,6.987,0,0,0-1.787-3.906,21.186,21.186,0,0,0-4.417-3.574c-1.276-.868-2.6-1.685-3.83-2.6a16.734,16.734,0,0,1-1.889-1.915,1.081,1.081,0,0,0,.128-.179c.587-.077,1.174-.179,1.762-.2a1.024,1.024,0,0,0,1.1-.843,4.363,4.363,0,0,1,.791-1.71c.638-.97,1.2-2.017,1.736-3.038a1.928,1.928,0,0,1,1.4-1.1,23.381,23.381,0,0,1,5.336-.945,38.559,38.559,0,0,0,5.157-.128,11.232,11.232,0,0,0,5.846-2.3c.613-.485,1.353-.817,2.017-1.277-.23.077-.434.153-.664.23-.026-.026-.026-.051-.051-.077.919-.562,1.838-1.149,2.732-1.685-.153,3.089-.332,6.153-.485,9.242-.025.408,0,.842,0,1.251.026.664.2,1.251,1,1.353.1.587-.077,1.277.894,1.353-.434.587-.766,1.1-1.174,1.557a39.636,39.636,0,0,1-6.485,6.434c-2.247,1.685-3.166,4.11-3.855,6.663-.051.153-.077.306-.128.46C205.131,127.109,203.548,126.8,201.991,127.466Z" transform="translate(-137.68 -32.621)" fill="#fabd79"/>
  <path id="Trazado_934474" data-name="Trazado 934474" d="M188.612,98.718c-.587-.791-.2-1.583-.179-2.349.026-.613,0-1.251-.026-1.864-.025-.791-.1-1.583-.128-2.374a1.288,1.288,0,0,1,.255-.536,18.27,18.27,0,0,0,1.353-2.093c.791-1.685.587-2.476-.817-3.727,1.277-1.583.281-2.936-.485-4.315.894-.715,2.247-.485,2.834-1.379,1.353.434,2.63.945,3.932,1.251a3.123,3.123,0,0,0,3.37-1.149.58.58,0,0,1,.408-.153c.613.026,1.225.077,1.838.1.689,3.089,2.987,4.391,5.8,5a8.6,8.6,0,0,0,7.148-1.659,2.138,2.138,0,0,0,.791-.791c.409-.919,1.072-.74,1.711-.562.153,1.047.23,2.068.46,3.038a5.021,5.021,0,0,0,1.787,2.885,3.324,3.324,0,0,0,2.681.766c.613-.077,1,.357.868,1.021a5.4,5.4,0,0,0,.97,4.315,12.743,12.743,0,0,0,1.43,1.455,9.94,9.94,0,0,0-.051,4.34c-.051.026-.1.077-.153.1a6.125,6.125,0,0,1-.485-.74c-.255-.843-.434-1.736-.715-2.579a1.425,1.425,0,0,0-1.353-1.021c-1.225-.051-2.451-.1-3.7-.077a30.887,30.887,0,0,0-7.914,1.149c-1.634.46-1.889.791-1.94,2.5v.511a3.734,3.734,0,0,0-4.468.766c-.077-.817-.128-1.557-.179-2.272a1.805,1.805,0,0,0-1.123-1.685,5.16,5.16,0,0,0-2.068-.587,45,45,0,0,0-9.6,1.1A3.7,3.7,0,0,0,188.612,98.718Zm12.357-3.242c.153-.1.485-.2.562-.408a1.04,1.04,0,0,0-.179-.791,1.743,1.743,0,0,0-.689-.511,6.967,6.967,0,0,0-4.034-.843,19.687,19.687,0,0,0-6.536,2.145,2.654,2.654,0,0,0-.945.97.681.681,0,0,0,.025.664c.1.128.434.1.664.077.255-.051.511-.179.766-.255,1.3-.383,2.6-.715,3.881-1.174a7.7,7.7,0,0,1,4.289-.357C199.437,95.118,200.126,95.3,200.969,95.476Zm15.573-2.783c-.97.1-1.634.128-2.272.23A6.852,6.852,0,0,0,210.8,94.2c-.306.281-.587.587-.357,1.021.255.485.689.357,1.1.23a22.549,22.549,0,0,1,2.553-.766,7.685,7.685,0,0,1,2.4-.179c1.276.179,2.553.562,3.83.842.357.077.74.1.894-.332.153-.409-.1-.664-.46-.843-.791-.357-1.583-.766-2.4-1.047A9.113,9.113,0,0,0,216.542,92.693Z" transform="translate(-139.823 -61.725)" fill="#fabd79"/>
  <path id="Trazado_934475" data-name="Trazado 934475" d="M196.889,97.155c-1.634-.128-3.242-.23-4.876-.357a2.028,2.028,0,0,1-1.838-1.251,15.479,15.479,0,0,1-1.353-6.051,1.016,1.016,0,0,1,.842-1.123,41.086,41.086,0,0,1,8.961-1.659,9.535,9.535,0,0,1,1.915.153,1.337,1.337,0,0,1,1.3,1.43c.051,1.047.051,2.093,0,3.115-.077,1.251-.2,2.5-.357,3.727-.179,1.481-.587,1.864-2.093,1.889-.842.026-1.659,0-2.5,0C196.889,97.078,196.889,97.129,196.889,97.155Z" transform="translate(-138.986 -51.354)" fill="#dadada"/>
  <path id="Trazado_934476" data-name="Trazado 934476" d="M205.78,86.66c1,.051,1.787.051,2.579.153a1.085,1.085,0,0,1,1.123,1.174,19.815,19.815,0,0,1-.562,6.817,2.849,2.849,0,0,0-.128.791,1.066,1.066,0,0,1-.945,1.1c-2.119.1-4.238.2-6.357.281a7.5,7.5,0,0,1-1.3-.128,3.014,3.014,0,0,1-2.706-2.5c-.383-1.762-.536-3.574-.791-5.361a.973.973,0,0,1,.894-1.2c1.813-.332,3.651-.664,5.463-.945C204.018,86.711,205.014,86.711,205.78,86.66Z" transform="translate(-126.789 -51.428)" fill="#dadada"/>
  <path id="Trazado_934477" data-name="Trazado 934477" d="M182.633,137.85c.153,1.353.332,2.579.434,3.8.255,2.757.485,5.515.74,8.272.025.383-.026.587-.409.766a4.188,4.188,0,0,0-.894.766,25.346,25.346,0,0,0-5.872,8.553c-.026.077-.077.128-.128.255C176.02,156.028,179.9,141.782,182.633,137.85Z" transform="translate(-158.174 28.071)" fill="#c6c6c6"/>
  <path id="Trazado_934478" data-name="Trazado 934478" d="M188.3,88.65c-.664.74.383,1.149.255,1.762-1.379.026-1.711.409-1.506,1.787.128.766.281,1.506.408,2.272.077.434.2.843.74.715.485-.128.409-.511.306-.919a2.339,2.339,0,0,1,.434-2.221c.23.894.46,1.685.638,2.476.026.1-.1.255-.153.383a4.412,4.412,0,0,0-.357.791c-.306.945-.128,1.225.74,1.481a12.293,12.293,0,0,1,.332-1.685c.051-.153.511-.153.74-.23v6.051a4.946,4.946,0,0,1-2.63-1.736,8.9,8.9,0,0,1-1.1-3.676c-.255-1.659-.511-3.344-.715-5a13.811,13.811,0,0,1,.026-2.3c.051-.664.255-.766.868-.511C187.608,88.241,187.889,88.42,188.3,88.65Z" transform="translate(-142.751 -49.41)" fill="#fabd79"/>
  <path id="Trazado_934479" data-name="Trazado 934479" d="M227.366,137.769a17.031,17.031,0,0,0-11.438-1.557c-.077-.868-.485-1.2-1.3-1.021a8.38,8.38,0,0,0-1.328.511c-.128.051-.255.2-.383.2-.255,0-.511-.077-.766-.1a1.893,1.893,0,0,1,.255-.664,4.669,4.669,0,0,1,3.6-1.481,16.675,16.675,0,0,1,11.182,3.8A1.55,1.55,0,0,0,227.366,137.769Z" transform="translate(-102.753 21.539)" fill="#c6c6c6"/>
  <path id="Trazado_934480" data-name="Trazado 934480" d="M177.71,165.384c.077-.332.128-.689.23-1.021.1-.281.306-.536.434-.817a79.512,79.512,0,0,1,7.021-12.867c.306-.434.664-.868,1-1.277.026-.026.077-.026.2-.1-.077.281-.128.485-.2.689a57.008,57.008,0,0,1-8.3,15.114,2.059,2.059,0,0,1-.357.306Z" transform="translate(-156.239 45.853)" fill="#c6c6c6"/>
  <path id="Trazado_934481" data-name="Trazado 934481" d="M195.8,118.254c-.255-1.379-.46-2.579-.664-3.753-.2-1.353-.409-2.706-.613-4.085,1.43.511,2.808.153,4.264-.077A57.545,57.545,0,0,1,195.8,118.254Z" transform="translate(-130.133 -14.653)" fill="#b1deef"/>
  <path id="Trazado_934482" data-name="Trazado 934482" d="M196.531,146.6a16.189,16.189,0,0,0,1.991-.74,1.6,1.6,0,0,0,.894-1.608,1.636,1.636,0,0,0-1.225-1.353,11.62,11.62,0,0,0-1.532-.46,2.167,2.167,0,0,0-2.247.74,1.944,1.944,0,0,0-.026,2.374c-.2-.128-.281-.179-.357-.23-.051-.051-.1-.128-.153-.179a2.153,2.153,0,0,1,1.047-3.191,11.222,11.222,0,0,1,5.208.128c1.634.383,2.17,2.017,1.149,3.5a2.672,2.672,0,0,1-2.63,1.225C197.884,146.7,197.118,146.65,196.531,146.6Z" transform="translate(-131.684 34.053)" fill="#c6c6c6"/>
  <path id="Trazado_934483" data-name="Trazado 934483" d="M202.429,142.04a8.424,8.424,0,0,1-1.021,3.932.694.694,0,0,1-.97.23c-.2.97.281,1.251,1.608.843v.562c-.842-.128-1.685-.281-2.476-.408V142.04Z" transform="translate(-122.29 34.578)" fill="#634e42"/>
  <path id="Trazado_934484" data-name="Trazado 934484" d="M220.679,129.33c-3.344,3.5-6.714,7-8.757,11.489-.025.077-.153.1-.332.179v-2.859a.719.719,0,0,1,.153-.383q4.213-4.059,8.425-8.093C220.347,129.534,220.526,129.458,220.679,129.33Z" transform="translate(-103.622 14.839)" fill="#c6c6c6"/>
  <path id="Trazado_934485" data-name="Trazado 934485" d="M178.906,162.247l.025.025c-.613.868-1.2,1.711-1.813,2.579-.051-.026-.128-.077-.179-.1a33.971,33.971,0,0,1,4.544-13.429c.077.026.128.026.2.051a4.627,4.627,0,0,1-.332,1.2,42.248,42.248,0,0,0-3.319,7.251A2.012,2.012,0,0,0,178.906,162.247Z" transform="translate(-157.435 48.99)" fill="#c6c6c6"/>
  <path id="Trazado_934486" data-name="Trazado 934486" d="M211.66,136.165c.255-2.91-.179-5.8.383-8.655.332.1.613.2.919.306A35.358,35.358,0,0,1,211.66,136.165Z" transform="translate(-103.514 12.013)" fill="#c6c6c6"/>
  <path id="Trazado_934487" data-name="Trazado 934487" d="M184.161,148.943c-.46.409-.817.74-1.2,1.072.026.025.051.077.077.1.128-.051.281-.1.281-.1-1.455,2.042-2.962,4.161-4.519,6.331a2.778,2.778,0,0,1,.179-1.072c1.328-2.017,2.681-3.983,4.059-5.974.23-.332.511-.613.817-.97A4.3,4.3,0,0,1,184.161,148.943Z" transform="translate(-154.546 44.347)" fill="#c6c6c6"/>
  <path id="Trazado_934488" data-name="Trazado 934488" d="M174.678,128.31c2.247,3.472,4.493,6.97,6.74,10.442a49.2,49.2,0,0,1-6.868-10.34A.554.554,0,0,0,174.678,128.31Z" transform="translate(-161.146 13.255)" fill="#c6c6c6"/>
  <path id="Trazado_934489" data-name="Trazado 934489" d="M188.708,92.819c-.128-.332-.281-.638-.383-.97-.255-.843-.46-1.711-.715-2.579.715-.255.766-.255.945.587.2.945.332,1.889.485,2.834A.752.752,0,0,1,188.708,92.819Z" transform="translate(-140.864 -47.605)" fill="#312783"/>
  <path id="Trazado_934490" data-name="Trazado 934490" d="M202.88,90.352c.306-.46.638-.919,1-1.481.077,0,.281-.026.638-.051-.536.613-1,1.123-1.455,1.659A.458.458,0,0,0,202.88,90.352Z" transform="translate(-117.149 -48.074)" fill="#312783"/>
  <path id="Trazado_934491" data-name="Trazado 934491" d="M197.438,116.08a7.308,7.308,0,0,1,.894,3.778,55.228,55.228,0,0,1-.919,9.829c-.255,1.583-.306,3.191-.46,4.8-.306,2.987-.562,5.974-.945,8.961a50.881,50.881,0,0,0-.306,9.242c.23,4.468.383,8.936.587,13.378.153,3.013.332,6.051.46,9.063,0,.2-.23.613-.357.613-.23,0-.638-.179-.689-.357a10.3,10.3,0,0,1-.638-2.579c-.179-4.57-.281-9.14-.409-13.71-.077-2.476-.1-4.978-.2-7.455a66.971,66.971,0,0,1,.587-10.11c.332-3.14.536-6.306.843-9.472.179-1.915.485-3.8.638-5.719.2-2.374.306-4.749.511-7.123C197.157,118.2,197.31,117.152,197.438,116.08Z" transform="translate(-130.293 -5.738)" fill="#311d48"/>
  <path id="Trazado_934492" data-name="Trazado 934492" d="M190.61,160.092c.128-.077.128-.1.153-.1,1.455.638,3.013.179,4.493.485a7.408,7.408,0,0,1,1.864.485,9.181,9.181,0,0,0,6.536.46c2.783-.689,5.566-1.4,8.348-2.119a2.653,2.653,0,0,1,.97-.153,3.075,3.075,0,0,1,.868.434c-.179.255-.281.587-.536.74a9.791,9.791,0,0,1-1.506.613c-2.962.919-5.9,1.915-8.885,2.732a8.88,8.88,0,0,1-6.2-.613,13.36,13.36,0,0,0-3.472-.894A4.475,4.475,0,0,1,190.61,160.092Z" transform="translate(-136.205 61.128)" fill="#311d48"/>
  <path id="Trazado_934493" data-name="Trazado 934493" d="M196.28,145.01v9.88c0,3.242.1,6.459-.025,9.7-.1,2.681-.409,5.361-.664,8.042-.2,2.042-.46,4.059-.664,6.1v.051c-.153.255-.306.511-.434.74-.128-.281-.383-.536-.383-.817,0-1.3.051-2.63.128-3.932.23-3.472.46-6.944.715-10.416.255-3.523.562-7.021.791-10.544.179-2.936.281-5.872.409-8.808Z" transform="translate(-130.769 39.191)" fill="#311d48"/>
  <path id="Trazado_934494" data-name="Trazado 934494" d="M195.871,172.21a233.633,233.633,0,0,1,1.251-26.73c.153,1.787.357,3.574.434,5.361s.1,3.6.051,5.387c-.051,1.813-.2,3.625-.332,5.438-.128,1.787-.2,3.574-.409,5.361-.2,1.736.051,3.574-.613,5.234C196.1,172.236,195.973,172.236,195.871,172.21Z" transform="translate(-128.114 39.921)" fill="#311d48"/>
  <path id="Trazado_934495" data-name="Trazado 934495" d="M200.393,99.765c-1.021-.051-2.042-.1-3.064-.179a3.084,3.084,0,0,1-2.017-.919,10.919,10.919,0,0,1-1.251-1.4,2.482,2.482,0,0,0-1.864-1.174c-.357-.051-.74-.179-.587-.613.051-.153.536-.306.766-.255,1.557.332,3.038-.23,4.57-.306a3.58,3.58,0,0,1,1.813.281,4.862,4.862,0,0,0,4.11.306,7.937,7.937,0,0,1,3.37-.153c1.123.1,2.272,0,3.421,0a1.794,1.794,0,0,1,.587.2,3.512,3.512,0,0,1-.332.511.38.38,0,0,1-.23.1,5.5,5.5,0,0,0-3.089,1.711,6.6,6.6,0,0,1-4.8,1.813c-.485-.026-.97,0-1.43,0C200.419,99.74,200.393,99.74,200.393,99.765Zm-5.183-3.651a1.418,1.418,0,0,1,.077.383,2.233,2.233,0,0,0,2.374,2.247c1.353.077,2.706.1,4.059.1a5.1,5.1,0,0,0,1.659-.153c1.277-.434,2.732-.689,2.987-2.476a13.206,13.206,0,0,0-1.685-.357,2.823,2.823,0,0,0-1.1.23c-1.685.664-3.37,1.072-5.081-.026a2.82,2.82,0,0,0-1.532-.332A10.5,10.5,0,0,0,195.211,96.115Z" transform="translate(-134.704 -38.621)" fill="#311d48"/>
  <path id="Trazado_934496" data-name="Trazado 934496" d="M195.239,92.461c-.46.357-.894.715-1.481,1.174.434.128.715.306.894.255a1.459,1.459,0,0,1,1.506.485,3.55,3.55,0,0,0,3.242.664,10.17,10.17,0,0,0,1.43-.434c.715-.2,1.4-.46,2.145-.638.664-.179.689-.23.485-1.328a.819.819,0,0,1,1.1.281,1.15,1.15,0,0,1,.025,1.353,1.987,1.987,0,0,1-1.659.843,3.841,3.841,0,0,0-1.2.357,6.256,6.256,0,0,1-4.366.97,2.376,2.376,0,0,1-1.94-1.4c-.051-.128-.281-.2-.434-.23a6.187,6.187,0,0,1-1.225-.153,1.409,1.409,0,0,1-.766-.715,1.247,1.247,0,0,1,.332-1.047,1.908,1.908,0,0,1,1.787-.689A.354.354,0,0,0,195.239,92.461Z" transform="translate(-132.536 -42.882)" fill="#311d48"/>
  <path id="Trazado_934497" data-name="Trazado 934497" d="M202.931,97.234a4.964,4.964,0,0,1-.664.613,6.153,6.153,0,0,1-3.7.894c-1.328-.1-2.63-.357-3.957-.562a2.177,2.177,0,0,1-.791-.332c-.153-.1-.2-.332-.306-.485.179-.077.357-.23.536-.2.791.1,1.608.281,2.4.409a10.173,10.173,0,0,0,5.846-.46,2.126,2.126,0,0,1,.562-.077A.487.487,0,0,0,202.931,97.234Z" transform="translate(-131.701 -35.323)" fill="#311d48"/>
  <path id="Trazado_934498" data-name="Trazado 934498" d="M198.507,92.553c.051-.077.128-.179.281-.383-.843-.026-1.583-.1-2.3-.077a18.778,18.778,0,0,0-2.093.306l-.077-.153a1.338,1.338,0,0,1,.255-.281,2.655,2.655,0,0,1,.408-.153c.766-.179,1.532-.383,2.3-.511.281-.051.791-.383.817.357,0,.051.357.077.511.179.128.1.306.255.332.383s-.153.281-.23.409A.865.865,0,0,1,198.507,92.553Z" transform="translate(-130.443 -44.403)" fill="#311d48"/>
  <path id="Trazado_934499" data-name="Trazado 934499" d="M194.78,88.85a7.224,7.224,0,0,1,0,4.7Z" transform="translate(-129.729 -48.027)" fill="#311d48"/>
  <path id="Trazado_934500" data-name="Trazado 934500" d="M200.5,87.651c-.843-.179-1.532-.332-2.221-.485a7.935,7.935,0,0,0-4.289.357c-1.277.46-2.579.766-3.881,1.174-.255.077-.511.2-.766.255-.23.026-.562.051-.664-.077a.681.681,0,0,1-.026-.664,2.868,2.868,0,0,1,.945-.97,19.881,19.881,0,0,1,6.536-2.145,6.967,6.967,0,0,1,4.034.843,1.743,1.743,0,0,1,.689.511,1,1,0,0,1,.179.791C200.986,87.447,200.628,87.549,200.5,87.651Z" transform="translate(-139.356 -53.9)" fill="#311d48"/>
  <path id="Trazado_934501" data-name="Trazado 934501" d="M203.1,84.99a16.5,16.5,0,0,1,1.838.434c.817.281,1.608.689,2.4,1.047.357.153.613.408.46.843s-.536.408-.894.332c-1.277-.281-2.528-.664-3.83-.843a7.575,7.575,0,0,0-2.4.179c-.868.179-1.711.511-2.553.766-.408.128-.842.255-1.1-.23-.23-.434.026-.766.357-1.021a6.344,6.344,0,0,1,3.472-1.277A19.9,19.9,0,0,1,203.1,84.99Z" transform="translate(-126.381 -54.022)" fill="#311d48"/>
  <path id="Trazado_934502" data-name="Trazado 934502" d="M193,95.615a10.018,10.018,0,0,1,1.813-.383,2.872,2.872,0,0,1,1.532.332c1.71,1.1,3.37.715,5.081.026a2.823,2.823,0,0,1,1.1-.23,13.206,13.206,0,0,1,1.685.357c-.255,1.762-1.711,2.042-2.987,2.476a5.168,5.168,0,0,1-1.659.153c-1.353,0-2.706-.026-4.059-.1A2.233,2.233,0,0,1,193.128,96,1.112,1.112,0,0,1,193,95.615Z" transform="translate(-132.493 -38.121)" fill="#fff"/>
  <g id="Grupo_1133623" data-name="Grupo 1133623" transform="translate(72.659 35.232)">
    <path id="Trazado_934503" data-name="Trazado 934503" d="M204.091,86.66c-.153,0-.332.026-.536.026l-5.8,10.008a5.861,5.861,0,0,0,.715.179,7.5,7.5,0,0,0,1.3.128,1.931,1.931,0,0,0,.383-.026l5.923-10.212C205.5,86.686,204.857,86.686,204.091,86.66Z" transform="translate(-197.76 -86.66)" fill="#fff"/>
    <path id="Trazado_934504" data-name="Trazado 934504" d="M205.546,88.347c0-.179-.026-.383-.026-.562a1.119,1.119,0,0,0-.536-1l-5.744,9.931c.511-.026,1-.051,1.506-.051Z" transform="translate(-195.462 -86.458)" fill="#fff"/>
  </g>
  <g id="Grupo_1133624" data-name="Grupo 1133624" transform="translate(51.137 35.334)">
    <path id="Trazado_934505" data-name="Trazado 934505" d="M194.13,87.1l-4.8,8.272c.025.051.025.077.051.128a2.072,2.072,0,0,0,1.711,1.251l5.8-10.008A20.373,20.373,0,0,0,194.13,87.1Z" transform="translate(-189.33 -86.638)" fill="#fff"/>
    <path id="Trazado_934506" data-name="Trazado 934506" d="M197.8,86.853a12.648,12.648,0,0,0-1.379-.153l-5.9,10.187c.46.026.945.077,1.4.1Z" transform="translate(-187.482 -86.7)" fill="#fff"/>
  </g>
</svg>
