<svg xmlns="http://www.w3.org/2000/svg" width="1240" height="177.667" viewBox="0 0 1240 177.667">
  <g id="Grupo_1142507" data-name="Grupo 1142507" transform="translate(-180 -4912.406)">
    <rect id="Rectángulo_417354" data-name="Rectángulo 417354" width="1240" height="177.667" rx="12" transform="translate(180 4912.406)" fill="#defcf3"/>
    <g id="Grupo_1142386" data-name="Grupo 1142386" transform="translate(-29.94 1069.875)">
      <g id="Grupo_1142506" data-name="Grupo 1142506">
        <path id="Trazado_944930" data-name="Trazado 944930" d="M13.64,13.272a.429.429,0,0,1,.312.136l.848.92a4.657,4.657,0,0,1-1.732,1.336,5.969,5.969,0,0,1-2.468.464,5.832,5.832,0,0,1-2.316-.44,5.1,5.1,0,0,1-1.756-1.224,5.358,5.358,0,0,1-1.116-1.872,7.027,7.027,0,0,1-.388-2.376A6.614,6.614,0,0,1,5.44,7.828,5.489,5.489,0,0,1,6.612,5.96a5.3,5.3,0,0,1,1.8-1.22,5.983,5.983,0,0,1,2.32-.436,5.7,5.7,0,0,1,2.244.416,5.346,5.346,0,0,1,1.668,1.088l-.72,1a.653.653,0,0,1-.164.168.465.465,0,0,1-.276.072.528.528,0,0,1-.248-.068q-.128-.068-.28-.168t-.352-.22a2.9,2.9,0,0,0-.464-.22,3.787,3.787,0,0,0-.612-.168,4.228,4.228,0,0,0-.8-.068,3.568,3.568,0,0,0-1.42.276,3.086,3.086,0,0,0-1.108.8,3.688,3.688,0,0,0-.72,1.28,5.364,5.364,0,0,0-.256,1.724A5.067,5.067,0,0,0,7.5,11.952a3.817,3.817,0,0,0,.748,1.28,3.194,3.194,0,0,0,1.112.8,3.437,3.437,0,0,0,1.376.276,5.994,5.994,0,0,0,.8-.048,3.379,3.379,0,0,0,.656-.152,2.912,2.912,0,0,0,.568-.268,3.549,3.549,0,0,0,.532-.4.758.758,0,0,1,.168-.116A.406.406,0,0,1,13.64,13.272Zm5.792-5.608a4.475,4.475,0,0,1,1.66.3,3.637,3.637,0,0,1,1.28.84,3.69,3.69,0,0,1,.82,1.328,5.051,5.051,0,0,1,.288,1.752,5.076,5.076,0,0,1-.288,1.76,3.77,3.77,0,0,1-.82,1.336,3.584,3.584,0,0,1-1.28.848,4.475,4.475,0,0,1-1.66.3,4.53,4.53,0,0,1-1.672-.3,3.577,3.577,0,0,1-1.284-.848,3.817,3.817,0,0,1-.824-1.336,5.013,5.013,0,0,1-.292-1.76,4.989,4.989,0,0,1,.292-1.752A3.735,3.735,0,0,1,16.476,8.8a3.629,3.629,0,0,1,1.284-.84A4.53,4.53,0,0,1,19.432,7.664Zm0,6.936a1.738,1.738,0,0,0,1.516-.688A3.45,3.45,0,0,0,21.44,11.9a3.489,3.489,0,0,0-.492-2.024,1.73,1.73,0,0,0-1.516-.7,1.765,1.765,0,0,0-1.54.7,3.449,3.449,0,0,0-.5,2.02,3.41,3.41,0,0,0,.5,2.012A1.773,1.773,0,0,0,19.432,14.6Zm5.56,1.4V7.792H26.2a.485.485,0,0,1,.5.36l.128.608a4.674,4.674,0,0,1,.452-.44,2.9,2.9,0,0,1,.5-.344,2.73,2.73,0,0,1,.576-.228,2.564,2.564,0,0,1,.676-.084,1.916,1.916,0,0,1,1.276.42A2.529,2.529,0,0,1,31.064,9.2a2.5,2.5,0,0,1,.48-.7,2.624,2.624,0,0,1,.632-.476,2.908,2.908,0,0,1,.732-.272,3.516,3.516,0,0,1,.78-.088,3.277,3.277,0,0,1,1.208.208,2.317,2.317,0,0,1,.888.608,2.68,2.68,0,0,1,.548.976,4.251,4.251,0,0,1,.188,1.32V16H34.544V10.776A1.756,1.756,0,0,0,34.2,9.6a1.263,1.263,0,0,0-1.008-.4,1.5,1.5,0,0,0-.564.1,1.344,1.344,0,0,0-.456.3,1.37,1.37,0,0,0-.308.492,1.914,1.914,0,0,0-.112.68V16H29.768V10.776a1.787,1.787,0,0,0-.332-1.2,1.228,1.228,0,0,0-.972-.376,1.6,1.6,0,0,0-.8.212,2.681,2.681,0,0,0-.692.58V16ZM40.44,7.792V16H38.456V7.792ZM40.712,5.4a1.126,1.126,0,0,1-.1.48,1.3,1.3,0,0,1-.68.66,1.24,1.24,0,0,1-.5.1,1.192,1.192,0,0,1-.484-.1,1.282,1.282,0,0,1-.4-.268,1.3,1.3,0,0,1-.268-.392,1.164,1.164,0,0,1-.1-.48,1.24,1.24,0,0,1,.1-.5,1.252,1.252,0,0,1,.664-.668,1.192,1.192,0,0,1,.484-.1,1.24,1.24,0,0,1,.5.1,1.319,1.319,0,0,1,.4.268,1.29,1.29,0,0,1,.276.4A1.2,1.2,0,0,1,40.712,5.4Zm4.48,10.728a2.156,2.156,0,0,1-1.644-.6,2.328,2.328,0,0,1-.572-1.668V9.272h-.84a.385.385,0,0,1-.272-.1.406.406,0,0,1-.112-.312V8.072l1.32-.216.416-2.24a.439.439,0,0,1,.152-.248.452.452,0,0,1,.288-.088h1.024V7.864h2.192V9.272H44.952V13.72a.884.884,0,0,0,.188.6.648.648,0,0,0,.516.216.93.93,0,0,0,.308-.044,1.7,1.7,0,0,0,.216-.092q.092-.048.164-.092a.274.274,0,0,1,.144-.044.226.226,0,0,1,.144.044.667.667,0,0,1,.12.132l.592.96a2.991,2.991,0,0,1-.992.544A3.692,3.692,0,0,1,45.192,16.128Zm8.44-5.176a2.378,2.378,0,0,0-.108-.724,1.721,1.721,0,0,0-.324-.6,1.507,1.507,0,0,0-.548-.4,1.881,1.881,0,0,0-.772-.148,1.83,1.83,0,0,0-1.348.488,2.393,2.393,0,0,0-.628,1.384Zm-3.768,1.192a3.889,3.889,0,0,0,.224,1.092,2.233,2.233,0,0,0,.464.76,1.817,1.817,0,0,0,.684.448,2.485,2.485,0,0,0,.876.148,2.716,2.716,0,0,0,.828-.112,3.882,3.882,0,0,0,.608-.248q.26-.136.456-.248a.765.765,0,0,1,.38-.112.409.409,0,0,1,.368.184l.568.72a3.293,3.293,0,0,1-.736.644,4.128,4.128,0,0,1-.852.416,4.657,4.657,0,0,1-.9.22,6.473,6.473,0,0,1-.892.064,4.385,4.385,0,0,1-1.592-.284,3.564,3.564,0,0,1-1.28-.84,3.941,3.941,0,0,1-.856-1.376,5.325,5.325,0,0,1-.312-1.9,4.544,4.544,0,0,1,.272-1.58,3.8,3.8,0,0,1,.78-1.288,3.672,3.672,0,0,1,1.24-.868,4.084,4.084,0,0,1,1.652-.32,4.018,4.018,0,0,1,1.432.248,3.12,3.12,0,0,1,1.128.724A3.354,3.354,0,0,1,55.14,9.8a4.352,4.352,0,0,1,.268,1.58,1.283,1.283,0,0,1-.1.6.4.4,0,0,1-.368.156ZM54.656,4.3,52.68,6.392a.921.921,0,0,1-.292.22.934.934,0,0,1-.364.06H50.84l1.136-1.944a.935.935,0,0,1,.28-.316.864.864,0,0,1,.48-.108ZM61.9,9.392a.527.527,0,0,1-.168.18.435.435,0,0,1-.224.052.706.706,0,0,1-.308-.08q-.164-.08-.38-.18a3.48,3.48,0,0,0-.492-.18,2.356,2.356,0,0,0-.652-.08,1.5,1.5,0,0,0-.916.248.772.772,0,0,0-.332.648.618.618,0,0,0,.172.444,1.547,1.547,0,0,0,.456.316A4.463,4.463,0,0,0,59.7,11q.36.108.732.236t.732.292a2.566,2.566,0,0,1,.644.416,1.832,1.832,0,0,1,.628,1.452,2.769,2.769,0,0,1-.212,1.092,2.359,2.359,0,0,1-.628.864,2.962,2.962,0,0,1-1.028.568,4.818,4.818,0,0,1-2.24.128,4.887,4.887,0,0,1-.776-.212,4.294,4.294,0,0,1-.688-.32,3.339,3.339,0,0,1-.556-.4l.456-.752a.645.645,0,0,1,.208-.208.583.583,0,0,1,.3-.072.639.639,0,0,1,.348.1q.164.1.38.224a3.4,3.4,0,0,0,.508.224,2.235,2.235,0,0,0,.74.1,1.92,1.92,0,0,0,.6-.084,1.278,1.278,0,0,0,.416-.22.826.826,0,0,0,.24-.316.947.947,0,0,0,.076-.372.664.664,0,0,0-.172-.472,1.505,1.505,0,0,0-.456-.32,4.4,4.4,0,0,0-.648-.244q-.364-.108-.744-.236a6.882,6.882,0,0,1-.744-.3,2.536,2.536,0,0,1-.648-.436,1.973,1.973,0,0,1-.456-.648,2.261,2.261,0,0,1-.172-.928,2.364,2.364,0,0,1,.2-.96,2.252,2.252,0,0,1,.588-.8,2.92,2.92,0,0,1,.968-.544,4.032,4.032,0,0,1,1.34-.2,4.1,4.1,0,0,1,1.544.28,3.487,3.487,0,0,1,1.16.736Zm11.064.5a1.945,1.945,0,0,0-.732-.576,2.159,2.159,0,0,0-.852-.168,1.888,1.888,0,0,0-.808.168,1.627,1.627,0,0,0-.616.508,2.443,2.443,0,0,0-.392.864,4.96,4.96,0,0,0-.136,1.236,5.487,5.487,0,0,0,.116,1.22,2.4,2.4,0,0,0,.332.816,1.265,1.265,0,0,0,.528.456,1.681,1.681,0,0,0,.7.14,2.021,2.021,0,0,0,1.048-.256,3.113,3.113,0,0,0,.816-.728Zm1.976-5.776V16H73.728a.465.465,0,0,1-.5-.36l-.168-.792a4.143,4.143,0,0,1-1.14.92,3.079,3.079,0,0,1-1.5.352,2.716,2.716,0,0,1-1.232-.28,2.745,2.745,0,0,1-.964-.812,3.892,3.892,0,0,1-.624-1.316,6.646,6.646,0,0,1-.22-1.792,5.6,5.6,0,0,1,.248-1.7,4.126,4.126,0,0,1,.712-1.36,3.322,3.322,0,0,1,1.112-.9,3.211,3.211,0,0,1,1.456-.324,2.894,2.894,0,0,1,1.176.216,3.013,3.013,0,0,1,.872.584V4.112Zm7.24,6.84a2.378,2.378,0,0,0-.108-.724,1.721,1.721,0,0,0-.324-.6,1.507,1.507,0,0,0-.548-.4,1.881,1.881,0,0,0-.772-.148,1.83,1.83,0,0,0-1.348.488,2.393,2.393,0,0,0-.628,1.384Zm-3.768,1.192a3.889,3.889,0,0,0,.224,1.092A2.233,2.233,0,0,0,79.1,14a1.817,1.817,0,0,0,.684.448,2.485,2.485,0,0,0,.876.148,2.716,2.716,0,0,0,.828-.112,3.882,3.882,0,0,0,.608-.248q.26-.136.456-.248a.765.765,0,0,1,.38-.112.409.409,0,0,1,.368.184l.568.72a3.293,3.293,0,0,1-.736.644,4.128,4.128,0,0,1-.852.416,4.657,4.657,0,0,1-.9.22,6.473,6.473,0,0,1-.892.064,4.385,4.385,0,0,1-1.592-.284,3.564,3.564,0,0,1-1.28-.84,3.941,3.941,0,0,1-.856-1.376,5.325,5.325,0,0,1-.312-1.9,4.543,4.543,0,0,1,.272-1.58,3.8,3.8,0,0,1,.78-1.288,3.672,3.672,0,0,1,1.24-.868,4.084,4.084,0,0,1,1.652-.32,4.018,4.018,0,0,1,1.432.248,3.12,3.12,0,0,1,1.128.724,3.354,3.354,0,0,1,.74,1.168,4.352,4.352,0,0,1,.268,1.58,1.283,1.283,0,0,1-.1.6.4.4,0,0,1-.368.156Zm14.984-1.9a3.242,3.242,0,0,0,1.032-.148,1.955,1.955,0,0,0,.732-.424A1.717,1.717,0,0,0,95.592,9a2.572,2.572,0,0,0,.144-.884,2.333,2.333,0,0,0-.144-.84,1.66,1.66,0,0,0-.432-.64,1.922,1.922,0,0,0-.728-.4,3.444,3.444,0,0,0-1.04-.14H91.784v4.152Zm0-5.816A6.6,6.6,0,0,1,95.4,4.7a3.865,3.865,0,0,1,1.4.76,3.014,3.014,0,0,1,.82,1.168,4.023,4.023,0,0,1,.268,1.488,4.111,4.111,0,0,1-.28,1.54,3.2,3.2,0,0,1-.84,1.2,3.905,3.905,0,0,1-1.4.784,6.271,6.271,0,0,1-1.972.28H91.784V16H89.632V4.432Zm9.92,8.064a10.9,10.9,0,0,0-1.44.148,3.839,3.839,0,0,0-.936.276,1.231,1.231,0,0,0-.5.392.97.97,0,0,0,.156,1.232,1.335,1.335,0,0,0,.8.224,2.345,2.345,0,0,0,1.052-.22,3.124,3.124,0,0,0,.868-.668Zm-4.528-3.56a4.87,4.87,0,0,1,3.408-1.3,3.33,3.33,0,0,1,1.288.236,2.721,2.721,0,0,1,.96.656,2.808,2.808,0,0,1,.6,1,3.858,3.858,0,0,1,.2,1.28V16h-.9a.906.906,0,0,1-.432-.084.582.582,0,0,1-.24-.34l-.176-.592a7.143,7.143,0,0,1-.608.492,3.579,3.579,0,0,1-.616.356,3.31,3.31,0,0,1-.684.22,3.941,3.941,0,0,1-.8.076,3.152,3.152,0,0,1-.96-.14,2.109,2.109,0,0,1-.76-.42,1.886,1.886,0,0,1-.5-.7,2.469,2.469,0,0,1-.176-.968,1.927,1.927,0,0,1,.1-.62,1.812,1.812,0,0,1,.34-.588,2.831,2.831,0,0,1,.612-.528,3.977,3.977,0,0,1,.924-.432,7.983,7.983,0,0,1,1.276-.3,12.746,12.746,0,0,1,1.664-.14v-.48a1.8,1.8,0,0,0-.352-1.22,1.288,1.288,0,0,0-1.016-.4,2.412,2.412,0,0,0-.8.112,3.275,3.275,0,0,0-.556.252l-.436.252a.863.863,0,0,1-.436.112.57.57,0,0,1-.352-.108.9.9,0,0,1-.232-.252Zm10.176.28a3.539,3.539,0,0,1,.912-1.156,1.944,1.944,0,0,1,1.248-.42,1.526,1.526,0,0,1,.912.248l-.128,1.48a.382.382,0,0,1-.116.2.32.32,0,0,1-.2.06,2.331,2.331,0,0,1-.356-.04,2.751,2.751,0,0,0-.46-.04,1.656,1.656,0,0,0-.584.1,1.469,1.469,0,0,0-.46.276,1.881,1.881,0,0,0-.36.436,4.253,4.253,0,0,0-.292.584V16H107.1V7.792h1.16a.639.639,0,0,1,.424.108.635.635,0,0,1,.16.388ZM121.344,16h-1.976V9.272H115.56V13.72a.884.884,0,0,0,.188.6.648.648,0,0,0,.516.216.93.93,0,0,0,.308-.044,1.7,1.7,0,0,0,.216-.092q.092-.048.164-.092a.274.274,0,0,1,.144-.044.226.226,0,0,1,.144.044.668.668,0,0,1,.12.132l.592.96a2.991,2.991,0,0,1-.992.544,3.692,3.692,0,0,1-1.16.184,2.156,2.156,0,0,1-1.644-.6,2.328,2.328,0,0,1-.572-1.668V9.272h-.84a.385.385,0,0,1-.272-.1.406.406,0,0,1-.112-.312V8.072l1.32-.224.416-2.232a.439.439,0,0,1,.152-.248.452.452,0,0,1,.288-.088h1.024V7.864h5.784Zm.344-10.632a1.153,1.153,0,0,1-.1.484,1.282,1.282,0,0,1-.684.664,1.268,1.268,0,0,1-.5.1,1.164,1.164,0,0,1-.48-.1,1.3,1.3,0,0,1-.392-.268,1.282,1.282,0,0,1-.268-.4,1.192,1.192,0,0,1-.1-.484,1.211,1.211,0,0,1,.1-.492,1.333,1.333,0,0,1,.268-.4,1.261,1.261,0,0,1,.392-.272,1.164,1.164,0,0,1,.48-.1,1.289,1.289,0,0,1,.908.372,1.356,1.356,0,0,1,.276.4A1.171,1.171,0,0,1,121.688,5.368Zm7.552,4.16a.985.985,0,0,1-.172.176.4.4,0,0,1-.244.064.543.543,0,0,1-.3-.092q-.144-.092-.344-.208a2.572,2.572,0,0,0-.476-.208,2.187,2.187,0,0,0-.684-.092,2.087,2.087,0,0,0-.912.188,1.729,1.729,0,0,0-.652.54,2.433,2.433,0,0,0-.388.852,4.575,4.575,0,0,0-.128,1.132,4.438,4.438,0,0,0,.14,1.168,2.5,2.5,0,0,0,.4.86,1.738,1.738,0,0,0,.64.528,1.94,1.94,0,0,0,.848.18,2.1,2.1,0,0,0,.764-.116,2.411,2.411,0,0,0,.492-.256q.2-.14.348-.256a.525.525,0,0,1,.332-.116.4.4,0,0,1,.36.184l.568.72a3.573,3.573,0,0,1-.712.644,3.849,3.849,0,0,1-.8.416,4.048,4.048,0,0,1-.848.22,5.969,5.969,0,0,1-.868.064,3.64,3.64,0,0,1-1.432-.284,3.382,3.382,0,0,1-1.176-.828,3.954,3.954,0,0,1-.8-1.332,5.146,5.146,0,0,1-.292-1.8,5.22,5.22,0,0,1,.26-1.676,3.8,3.8,0,0,1,.764-1.336,3.5,3.5,0,0,1,1.248-.884,4.3,4.3,0,0,1,1.712-.32,4.072,4.072,0,0,1,1.612.3,3.939,3.939,0,0,1,1.244.848Zm3.88-1.736V16h-1.984V7.792Zm.272-2.392a1.126,1.126,0,0,1-.1.48,1.3,1.3,0,0,1-.68.66,1.24,1.24,0,0,1-.5.1,1.192,1.192,0,0,1-.484-.1,1.282,1.282,0,0,1-.4-.268,1.3,1.3,0,0,1-.268-.392,1.164,1.164,0,0,1-.1-.48,1.24,1.24,0,0,1,.1-.5,1.252,1.252,0,0,1,.664-.668,1.192,1.192,0,0,1,.484-.1,1.24,1.24,0,0,1,.5.1,1.319,1.319,0,0,1,.4.268,1.29,1.29,0,0,1,.276.4A1.2,1.2,0,0,1,133.392,5.4Zm3.72,8.472a1.945,1.945,0,0,0,.732.576,2.179,2.179,0,0,0,.86.168,1.888,1.888,0,0,0,.808-.168,1.583,1.583,0,0,0,.612-.512,2.533,2.533,0,0,0,.388-.868,4.96,4.96,0,0,0,.136-1.236,5.486,5.486,0,0,0-.116-1.22A2.357,2.357,0,0,0,140.2,9.8a1.312,1.312,0,0,0-.524-.456,1.634,1.634,0,0,0-.7-.144,2,2,0,0,0-1.048.26,3.181,3.181,0,0,0-.816.732Zm-.1-4.96a4.281,4.281,0,0,1,1.144-.92,3.073,3.073,0,0,1,1.5-.352,2.691,2.691,0,0,1,1.228.28,2.756,2.756,0,0,1,.96.812,3.9,3.9,0,0,1,.624,1.312,6.6,6.6,0,0,1,.22,1.788,5.623,5.623,0,0,1-.248,1.7,4.17,4.17,0,0,1-.708,1.36,3.271,3.271,0,0,1-1.112.9,3.236,3.236,0,0,1-1.46.324,2.942,2.942,0,0,1-1.176-.212,2.873,2.873,0,0,1-.872-.588v3.36h-1.976V7.792h1.208a.485.485,0,0,1,.5.36ZM148.56,12.5a10.9,10.9,0,0,0-1.44.148,3.839,3.839,0,0,0-.936.276,1.231,1.231,0,0,0-.5.392.97.97,0,0,0,.156,1.232,1.335,1.335,0,0,0,.8.224,2.345,2.345,0,0,0,1.052-.22,3.124,3.124,0,0,0,.868-.668Zm-4.528-3.56a4.87,4.87,0,0,1,3.408-1.3,3.33,3.33,0,0,1,1.288.236,2.721,2.721,0,0,1,.96.656,2.807,2.807,0,0,1,.6,1,3.858,3.858,0,0,1,.2,1.28V16h-.9a.906.906,0,0,1-.432-.084.582.582,0,0,1-.24-.34l-.176-.592a7.141,7.141,0,0,1-.608.492,3.579,3.579,0,0,1-.616.356,3.31,3.31,0,0,1-.684.22,3.941,3.941,0,0,1-.8.076,3.152,3.152,0,0,1-.96-.14,2.109,2.109,0,0,1-.76-.42,1.886,1.886,0,0,1-.5-.7,2.469,2.469,0,0,1-.176-.968,1.927,1.927,0,0,1,.1-.62,1.812,1.812,0,0,1,.34-.588,2.831,2.831,0,0,1,.612-.528,3.977,3.977,0,0,1,.924-.432,7.983,7.983,0,0,1,1.276-.3,12.746,12.746,0,0,1,1.664-.14v-.48a1.8,1.8,0,0,0-.352-1.22,1.288,1.288,0,0,0-1.016-.4,2.412,2.412,0,0,0-.8.112,3.276,3.276,0,0,0-.556.252l-.436.252a.863.863,0,0,1-.436.112.57.57,0,0,1-.352-.108.9.9,0,0,1-.232-.252Zm14.192.592a.985.985,0,0,1-.172.176.4.4,0,0,1-.244.064.543.543,0,0,1-.3-.092q-.144-.092-.344-.208a2.571,2.571,0,0,0-.476-.208,2.187,2.187,0,0,0-.684-.092,2.087,2.087,0,0,0-.912.188,1.729,1.729,0,0,0-.652.54,2.433,2.433,0,0,0-.388.852,4.574,4.574,0,0,0-.128,1.132,4.438,4.438,0,0,0,.14,1.168,2.5,2.5,0,0,0,.4.86,1.738,1.738,0,0,0,.64.528,1.939,1.939,0,0,0,.848.18,2.1,2.1,0,0,0,.764-.116,2.411,2.411,0,0,0,.492-.256q.2-.14.348-.256a.525.525,0,0,1,.332-.116.4.4,0,0,1,.36.184l.568.72a3.572,3.572,0,0,1-.712.644,3.848,3.848,0,0,1-.8.416,4.048,4.048,0,0,1-.848.22,5.969,5.969,0,0,1-.868.064,3.64,3.64,0,0,1-1.432-.284,3.383,3.383,0,0,1-1.176-.828,3.954,3.954,0,0,1-.8-1.332,5.146,5.146,0,0,1-.292-1.8,5.22,5.22,0,0,1,.26-1.676,3.8,3.8,0,0,1,.764-1.336,3.5,3.5,0,0,1,1.248-.884,4.3,4.3,0,0,1,1.712-.32,4.072,4.072,0,0,1,1.612.3,3.939,3.939,0,0,1,1.244.848Zm3.88-1.736V16H160.12V7.792Zm.272-2.392a1.126,1.126,0,0,1-.1.48,1.3,1.3,0,0,1-.68.66,1.24,1.24,0,0,1-.5.1,1.192,1.192,0,0,1-.484-.1,1.282,1.282,0,0,1-.4-.268,1.3,1.3,0,0,1-.268-.392,1.164,1.164,0,0,1-.1-.48,1.24,1.24,0,0,1,.1-.5,1.252,1.252,0,0,1,.664-.668,1.192,1.192,0,0,1,.484-.1,1.24,1.24,0,0,1,.5.1,1.319,1.319,0,0,1,.4.268,1.29,1.29,0,0,1,.276.4A1.2,1.2,0,0,1,162.376,5.4Zm5.376,2.264a4.475,4.475,0,0,1,1.66.3,3.637,3.637,0,0,1,1.28.84,3.69,3.69,0,0,1,.82,1.328,5.051,5.051,0,0,1,.288,1.752,5.076,5.076,0,0,1-.288,1.76,3.77,3.77,0,0,1-.82,1.336,3.584,3.584,0,0,1-1.28.848,4.475,4.475,0,0,1-1.66.3,4.53,4.53,0,0,1-1.672-.3,3.577,3.577,0,0,1-1.284-.848,3.817,3.817,0,0,1-.824-1.336,5.013,5.013,0,0,1-.292-1.76,4.989,4.989,0,0,1,.292-1.752A3.735,3.735,0,0,1,164.8,8.8a3.629,3.629,0,0,1,1.284-.84A4.53,4.53,0,0,1,167.752,7.664Zm0,6.936a1.738,1.738,0,0,0,1.516-.688,3.45,3.45,0,0,0,.492-2.016,3.489,3.489,0,0,0-.492-2.024,1.73,1.73,0,0,0-1.516-.7,1.765,1.765,0,0,0-1.54.7,3.449,3.449,0,0,0-.5,2.02,3.41,3.41,0,0,0,.5,2.012A1.773,1.773,0,0,0,167.752,14.6ZM170.52,4.3l-1.976,2.088a.921.921,0,0,1-.292.22.934.934,0,0,1-.364.06H166.7l1.136-1.944a.935.935,0,0,1,.28-.316.864.864,0,0,1,.48-.108Zm4.64,4.5a5.344,5.344,0,0,1,.524-.46,3.31,3.31,0,0,1,.584-.36,3.273,3.273,0,0,1,.66-.232,3.306,3.306,0,0,1,.768-.084,2.943,2.943,0,0,1,1.192.228,2.355,2.355,0,0,1,.868.64,2.813,2.813,0,0,1,.528.984,4.181,4.181,0,0,1,.18,1.26V16h-1.976V10.776a1.767,1.767,0,0,0-.344-1.164A1.288,1.288,0,0,0,177.1,9.2a2.058,2.058,0,0,0-.96.232,3.441,3.441,0,0,0-.848.632V16h-1.976V7.792h1.208a.485.485,0,0,1,.5.36Zm19.32,4.472a.429.429,0,0,1,.312.136l.848.92a4.657,4.657,0,0,1-1.732,1.336,5.969,5.969,0,0,1-2.468.464,5.832,5.832,0,0,1-2.316-.44,5.1,5.1,0,0,1-1.756-1.224,5.358,5.358,0,0,1-1.116-1.872,7.027,7.027,0,0,1-.388-2.376,6.614,6.614,0,0,1,.416-2.388,5.489,5.489,0,0,1,1.172-1.868,5.3,5.3,0,0,1,1.8-1.22,5.983,5.983,0,0,1,2.32-.436,5.7,5.7,0,0,1,2.244.416,5.346,5.346,0,0,1,1.668,1.088l-.72,1a.653.653,0,0,1-.164.168.465.465,0,0,1-.276.072.528.528,0,0,1-.248-.068q-.128-.068-.28-.168t-.352-.22a2.9,2.9,0,0,0-.464-.22,3.788,3.788,0,0,0-.612-.168,4.228,4.228,0,0,0-.8-.068,3.568,3.568,0,0,0-1.42.276,3.086,3.086,0,0,0-1.108.8,3.688,3.688,0,0,0-.72,1.28,5.364,5.364,0,0,0-.256,1.724,5.067,5.067,0,0,0,.276,1.736,3.817,3.817,0,0,0,.748,1.28,3.194,3.194,0,0,0,1.112.8,3.437,3.437,0,0,0,1.376.276,5.994,5.994,0,0,0,.8-.048,3.379,3.379,0,0,0,.656-.152,2.912,2.912,0,0,0,.568-.268,3.55,3.55,0,0,0,.532-.4.758.758,0,0,1,.168-.116A.406.406,0,0,1,194.48,13.272Zm5.792-5.608a4.475,4.475,0,0,1,1.66.3,3.637,3.637,0,0,1,1.28.84,3.69,3.69,0,0,1,.82,1.328,5.051,5.051,0,0,1,.288,1.752,5.076,5.076,0,0,1-.288,1.76,3.77,3.77,0,0,1-.82,1.336,3.584,3.584,0,0,1-1.28.848,4.475,4.475,0,0,1-1.66.3,4.53,4.53,0,0,1-1.672-.3,3.577,3.577,0,0,1-1.284-.848,3.817,3.817,0,0,1-.824-1.336,5.013,5.013,0,0,1-.292-1.76,4.989,4.989,0,0,1,.292-1.752,3.735,3.735,0,0,1,.824-1.328,3.629,3.629,0,0,1,1.284-.84A4.53,4.53,0,0,1,200.272,7.664Zm0,6.936a1.738,1.738,0,0,0,1.516-.688,3.45,3.45,0,0,0,.492-2.016,3.489,3.489,0,0,0-.492-2.024,1.73,1.73,0,0,0-1.516-.7,1.765,1.765,0,0,0-1.54.7,3.449,3.449,0,0,0-.5,2.02,3.41,3.41,0,0,0,.5,2.012A1.773,1.773,0,0,0,200.272,14.6Zm5.56,1.4V7.792h1.208a.485.485,0,0,1,.5.36l.128.608a4.674,4.674,0,0,1,.452-.44,2.9,2.9,0,0,1,.5-.344,2.73,2.73,0,0,1,.576-.228,2.564,2.564,0,0,1,.676-.084,1.916,1.916,0,0,1,1.276.42A2.529,2.529,0,0,1,211.9,9.2a2.5,2.5,0,0,1,.48-.7,2.624,2.624,0,0,1,.632-.476,2.908,2.908,0,0,1,.732-.272,3.516,3.516,0,0,1,.78-.088,3.277,3.277,0,0,1,1.208.208,2.317,2.317,0,0,1,.888.608,2.68,2.68,0,0,1,.548.976,4.251,4.251,0,0,1,.188,1.32V16h-1.976V10.776a1.756,1.756,0,0,0-.344-1.18,1.263,1.263,0,0,0-1.008-.4,1.5,1.5,0,0,0-.564.1,1.344,1.344,0,0,0-.456.3,1.37,1.37,0,0,0-.308.492,1.914,1.914,0,0,0-.112.68V16h-1.984V10.776a1.787,1.787,0,0,0-.332-1.2A1.228,1.228,0,0,0,209.3,9.2a1.6,1.6,0,0,0-.8.212,2.681,2.681,0,0,0-.692.58V16ZM226.3,7.792V16H225.1a.465.465,0,0,1-.5-.36l-.136-.656a4.409,4.409,0,0,1-1.112.828,3.065,3.065,0,0,1-1.432.316,2.914,2.914,0,0,1-1.188-.228,2.379,2.379,0,0,1-.868-.644,2.82,2.82,0,0,1-.532-.988,4.181,4.181,0,0,1-.18-1.26V7.792h1.976v5.216a1.753,1.753,0,0,0,.348,1.164,1.29,1.29,0,0,0,1.044.412,2.087,2.087,0,0,0,.96-.228,3.356,3.356,0,0,0,.848-.628V7.792ZM230.1,8.8a5.344,5.344,0,0,1,.524-.46,3.31,3.31,0,0,1,.584-.36,3.273,3.273,0,0,1,.66-.232,3.306,3.306,0,0,1,.768-.084,2.943,2.943,0,0,1,1.192.228,2.355,2.355,0,0,1,.868.64,2.813,2.813,0,0,1,.528.984,4.181,4.181,0,0,1,.18,1.26V16h-1.976V10.776a1.767,1.767,0,0,0-.344-1.164A1.288,1.288,0,0,0,232.04,9.2a2.058,2.058,0,0,0-.96.232,3.441,3.441,0,0,0-.848.632V16h-1.976V7.792h1.208a.485.485,0,0,1,.5.36Zm9.224-1.008V16h-1.984V7.792ZM239.6,5.4a1.126,1.126,0,0,1-.1.48,1.3,1.3,0,0,1-.68.66,1.24,1.24,0,0,1-.5.1,1.192,1.192,0,0,1-.484-.1,1.282,1.282,0,0,1-.4-.268,1.3,1.3,0,0,1-.268-.392,1.164,1.164,0,0,1-.1-.48,1.24,1.24,0,0,1,.1-.5,1.252,1.252,0,0,1,.664-.668,1.192,1.192,0,0,1,.484-.1,1.24,1.24,0,0,1,.5.1,1.319,1.319,0,0,1,.4.268,1.29,1.29,0,0,1,.276.4A1.2,1.2,0,0,1,239.6,5.4Zm4.48,10.728a2.156,2.156,0,0,1-1.644-.6,2.328,2.328,0,0,1-.572-1.668V9.272h-.84a.385.385,0,0,1-.272-.1.406.406,0,0,1-.112-.312V8.072l1.32-.216.416-2.24a.439.439,0,0,1,.152-.248.452.452,0,0,1,.288-.088h1.024V7.864h2.192V9.272H243.84V13.72a.884.884,0,0,0,.188.6.648.648,0,0,0,.516.216.93.93,0,0,0,.308-.044,1.694,1.694,0,0,0,.216-.092q.092-.048.164-.092a.274.274,0,0,1,.144-.044.226.226,0,0,1,.144.044.668.668,0,0,1,.12.132l.592.96a2.991,2.991,0,0,1-.992.544A3.692,3.692,0,0,1,244.08,16.128Zm7.552-3.632a10.9,10.9,0,0,0-1.44.148,3.839,3.839,0,0,0-.936.276,1.231,1.231,0,0,0-.5.392.97.97,0,0,0,.156,1.232,1.335,1.335,0,0,0,.8.224,2.345,2.345,0,0,0,1.052-.22,3.124,3.124,0,0,0,.868-.668ZM247.1,8.936a4.87,4.87,0,0,1,3.408-1.3,3.33,3.33,0,0,1,1.288.236,2.721,2.721,0,0,1,.96.656,2.807,2.807,0,0,1,.6,1,3.858,3.858,0,0,1,.2,1.28V16h-.9a.906.906,0,0,1-.432-.084.582.582,0,0,1-.24-.34l-.176-.592a7.141,7.141,0,0,1-.608.492,3.579,3.579,0,0,1-.616.356,3.31,3.31,0,0,1-.684.22,3.941,3.941,0,0,1-.8.076,3.152,3.152,0,0,1-.96-.14,2.109,2.109,0,0,1-.76-.42,1.886,1.886,0,0,1-.5-.7,2.469,2.469,0,0,1-.176-.968,1.927,1.927,0,0,1,.1-.62,1.812,1.812,0,0,1,.34-.588,2.831,2.831,0,0,1,.612-.528,3.977,3.977,0,0,1,.924-.432,7.983,7.983,0,0,1,1.276-.3,12.746,12.746,0,0,1,1.664-.14v-.48a1.8,1.8,0,0,0-.352-1.22,1.288,1.288,0,0,0-1.016-.4,2.412,2.412,0,0,0-.8.112,3.276,3.276,0,0,0-.556.252l-.436.252a.863.863,0,0,1-.436.112.57.57,0,0,1-.352-.108.9.9,0,0,1-.232-.252Zm10.176.28a3.54,3.54,0,0,1,.912-1.156,1.944,1.944,0,0,1,1.248-.42,1.526,1.526,0,0,1,.912.248l-.128,1.48a.382.382,0,0,1-.116.2.32.32,0,0,1-.2.06,2.332,2.332,0,0,1-.356-.04,2.751,2.751,0,0,0-.46-.04,1.656,1.656,0,0,0-.584.1,1.469,1.469,0,0,0-.46.276,1.882,1.882,0,0,0-.36.436,4.254,4.254,0,0,0-.292.584V16h-1.976V7.792h1.16A.639.639,0,0,1,257,7.9a.635.635,0,0,1,.16.388Zm6.152-1.424V16h-1.984V7.792ZM263.7,5.4a1.126,1.126,0,0,1-.1.48,1.3,1.3,0,0,1-.68.66,1.24,1.24,0,0,1-.5.1,1.192,1.192,0,0,1-.484-.1,1.282,1.282,0,0,1-.4-.268,1.3,1.3,0,0,1-.268-.392,1.164,1.164,0,0,1-.1-.48,1.239,1.239,0,0,1,.1-.5,1.269,1.269,0,0,1,.268-.4,1.282,1.282,0,0,1,.4-.268,1.192,1.192,0,0,1,.484-.1,1.24,1.24,0,0,1,.5.1,1.319,1.319,0,0,1,.4.268,1.29,1.29,0,0,1,.276.4A1.2,1.2,0,0,1,263.7,5.4Zm6.08,7.1a10.9,10.9,0,0,0-1.44.148,3.838,3.838,0,0,0-.936.276,1.231,1.231,0,0,0-.5.392.97.97,0,0,0,.156,1.232,1.335,1.335,0,0,0,.8.224,2.345,2.345,0,0,0,1.052-.22,3.125,3.125,0,0,0,.868-.668Zm-4.528-3.56a4.87,4.87,0,0,1,3.408-1.3,3.331,3.331,0,0,1,1.288.236,2.721,2.721,0,0,1,.96.656,2.808,2.808,0,0,1,.6,1,3.858,3.858,0,0,1,.2,1.28V16h-.9a.906.906,0,0,1-.432-.084.582.582,0,0,1-.24-.34l-.176-.592a7.146,7.146,0,0,1-.608.492,3.578,3.578,0,0,1-.616.356,3.31,3.31,0,0,1-.684.22,3.941,3.941,0,0,1-.8.076,3.152,3.152,0,0,1-.96-.14,2.11,2.11,0,0,1-.76-.42,1.885,1.885,0,0,1-.5-.7,2.469,2.469,0,0,1-.176-.968,1.927,1.927,0,0,1,.1-.62,1.813,1.813,0,0,1,.34-.588,2.83,2.83,0,0,1,.612-.528,3.977,3.977,0,0,1,.924-.432,7.983,7.983,0,0,1,1.276-.3,12.746,12.746,0,0,1,1.664-.14v-.48a1.8,1.8,0,0,0-.352-1.22,1.288,1.288,0,0,0-1.016-.4,2.412,2.412,0,0,0-.8.112,3.276,3.276,0,0,0-.556.252l-.436.252a.863.863,0,0,1-.436.112.57.57,0,0,1-.352-.108.9.9,0,0,1-.232-.252ZM98.98,34.984a13.376,13.376,0,0,0,1.544,6.232.831.831,0,0,1,.092.284.507.507,0,0,1-.02.216.417.417,0,0,1-.1.16.767.767,0,0,1-.148.116l-.88.536A13.847,13.847,0,0,1,98.46,40.7a13.11,13.11,0,0,1-1.068-3.752,15.584,15.584,0,0,1,0-3.924,13.187,13.187,0,0,1,.388-1.9,13.029,13.029,0,0,1,.68-1.852,13.977,13.977,0,0,1,1.008-1.828l.88.528a.767.767,0,0,1,.148.116.417.417,0,0,1,.1.16.507.507,0,0,1,.02.216.9.9,0,0,1-.092.292A13.032,13.032,0,0,0,99.38,31.74,13.294,13.294,0,0,0,98.98,34.984Zm11.008,2.288a.429.429,0,0,1,.312.136l.848.92a4.657,4.657,0,0,1-1.732,1.336,5.969,5.969,0,0,1-2.468.464,5.832,5.832,0,0,1-2.316-.44,5.1,5.1,0,0,1-1.756-1.224,5.358,5.358,0,0,1-1.116-1.872,7.027,7.027,0,0,1-.388-2.376,6.614,6.614,0,0,1,.416-2.388,5.489,5.489,0,0,1,1.172-1.868,5.3,5.3,0,0,1,1.8-1.22,5.983,5.983,0,0,1,2.32-.436,5.7,5.7,0,0,1,2.244.416A5.346,5.346,0,0,1,111,29.808l-.72,1a.653.653,0,0,1-.164.168.465.465,0,0,1-.276.072.528.528,0,0,1-.248-.068q-.128-.068-.28-.168t-.352-.22a2.9,2.9,0,0,0-.464-.22,3.787,3.787,0,0,0-.612-.168,4.228,4.228,0,0,0-.8-.068,3.568,3.568,0,0,0-1.42.276,3.086,3.086,0,0,0-1.108.8,3.688,3.688,0,0,0-.72,1.28,5.364,5.364,0,0,0-.256,1.724,5.067,5.067,0,0,0,.276,1.736,3.817,3.817,0,0,0,.748,1.28,3.194,3.194,0,0,0,1.112.8,3.437,3.437,0,0,0,1.376.276,5.994,5.994,0,0,0,.8-.048,3.379,3.379,0,0,0,.656-.152,2.912,2.912,0,0,0,.568-.268,3.549,3.549,0,0,0,.532-.4.758.758,0,0,1,.168-.116A.406.406,0,0,1,109.988,37.272Zm13.424-3.056a6.466,6.466,0,0,1-.42,2.356,5.531,5.531,0,0,1-1.188,1.876,5.4,5.4,0,0,1-1.848,1.236,6.687,6.687,0,0,1-4.792,0,5.44,5.44,0,0,1-1.852-1.236,5.55,5.55,0,0,1-1.2-1.876,6.758,6.758,0,0,1,0-4.712,5.55,5.55,0,0,1,1.2-1.876,5.44,5.44,0,0,1,1.852-1.236,6.234,6.234,0,0,1,2.392-.444,6.492,6.492,0,0,1,1.656.2,5.814,5.814,0,0,1,1.424.576,5.264,5.264,0,0,1,1.164.9,5.5,5.5,0,0,1,.876,1.188,5.823,5.823,0,0,1,.548,1.424A6.775,6.775,0,0,1,123.412,34.216Zm-2.2,0a5.309,5.309,0,0,0-.256-1.708,3.661,3.661,0,0,0-.728-1.284,3.117,3.117,0,0,0-1.148-.808,4.287,4.287,0,0,0-3.048,0,3.154,3.154,0,0,0-1.152.808,3.627,3.627,0,0,0-.732,1.284,5.826,5.826,0,0,0,0,3.416,3.586,3.586,0,0,0,.732,1.28,3.176,3.176,0,0,0,1.152.8,4.287,4.287,0,0,0,3.048,0,3.139,3.139,0,0,0,1.148-.8,3.619,3.619,0,0,0,.728-1.28A5.309,5.309,0,0,0,121.212,34.216Zm7.856.032A3.242,3.242,0,0,0,130.1,34.1a1.955,1.955,0,0,0,.732-.424,1.717,1.717,0,0,0,.436-.672,2.572,2.572,0,0,0,.144-.884,2.333,2.333,0,0,0-.144-.84,1.66,1.66,0,0,0-.432-.64,1.922,1.922,0,0,0-.728-.4,3.444,3.444,0,0,0-1.04-.14H127.46v4.152Zm0-5.816a6.6,6.6,0,0,1,2.008.272,3.865,3.865,0,0,1,1.4.76,3.014,3.014,0,0,1,.82,1.168,4.024,4.024,0,0,1,.268,1.488,4.111,4.111,0,0,1-.28,1.54,3.2,3.2,0,0,1-.84,1.2,3.905,3.905,0,0,1-1.4.784,6.271,6.271,0,0,1-1.972.28H127.46V40h-2.152V28.432Zm11.448,7.2-1.408-3.848q-.1-.256-.216-.608t-.224-.76q-.1.408-.216.764t-.216.62l-1.4,3.832Zm3.8,4.368h-1.664a.71.71,0,0,1-.456-.14.872.872,0,0,1-.264-.348l-.864-2.36h-4.792l-.864,2.36a.767.767,0,0,1-.248.336.692.692,0,0,1-.456.152h-1.68l4.552-11.568h2.192Zm8.8-2.728a.429.429,0,0,1,.312.136l.848.92a4.657,4.657,0,0,1-1.732,1.336,5.969,5.969,0,0,1-2.468.464,5.832,5.832,0,0,1-2.316-.44A5.1,5.1,0,0,1,146,38.464a5.358,5.358,0,0,1-1.116-1.872,7.027,7.027,0,0,1-.388-2.376,6.614,6.614,0,0,1,.416-2.388,5.489,5.489,0,0,1,1.172-1.868,5.3,5.3,0,0,1,1.8-1.22,5.983,5.983,0,0,1,2.32-.436,5.7,5.7,0,0,1,2.244.416,5.346,5.346,0,0,1,1.668,1.088l-.72,1a.653.653,0,0,1-.164.168.465.465,0,0,1-.276.072.528.528,0,0,1-.248-.068q-.128-.068-.28-.168t-.352-.22a2.9,2.9,0,0,0-.464-.22,3.787,3.787,0,0,0-.612-.168,4.228,4.228,0,0,0-.8-.068,3.568,3.568,0,0,0-1.42.276,3.086,3.086,0,0,0-1.108.8,3.688,3.688,0,0,0-.72,1.28,5.364,5.364,0,0,0-.256,1.724,5.067,5.067,0,0,0,.276,1.736,3.817,3.817,0,0,0,.748,1.28,3.194,3.194,0,0,0,1.112.8,3.437,3.437,0,0,0,1.376.276,5.993,5.993,0,0,0,.8-.048,3.379,3.379,0,0,0,.656-.152,2.912,2.912,0,0,0,.568-.268,3.549,3.549,0,0,0,.532-.4.758.758,0,0,1,.168-.116A.406.406,0,0,1,153.116,37.272Zm13.424-3.056a6.466,6.466,0,0,1-.42,2.356,5.531,5.531,0,0,1-1.188,1.876,5.4,5.4,0,0,1-1.848,1.236,6.687,6.687,0,0,1-4.792,0,5.44,5.44,0,0,1-1.852-1.236,5.55,5.55,0,0,1-1.2-1.876,6.758,6.758,0,0,1,0-4.712,5.55,5.55,0,0,1,1.2-1.876,5.44,5.44,0,0,1,1.852-1.236,6.234,6.234,0,0,1,2.392-.444,6.492,6.492,0,0,1,1.656.2,5.814,5.814,0,0,1,1.424.576,5.265,5.265,0,0,1,1.164.9,5.5,5.5,0,0,1,.876,1.188,5.822,5.822,0,0,1,.548,1.424A6.775,6.775,0,0,1,166.54,34.216Zm-2.2,0a5.309,5.309,0,0,0-.256-1.708,3.661,3.661,0,0,0-.728-1.284,3.117,3.117,0,0,0-1.148-.808,4.287,4.287,0,0,0-3.048,0,3.154,3.154,0,0,0-1.152.808,3.627,3.627,0,0,0-.732,1.284,5.826,5.826,0,0,0,0,3.416,3.586,3.586,0,0,0,.732,1.28,3.176,3.176,0,0,0,1.152.8,4.287,4.287,0,0,0,3.048,0,3.139,3.139,0,0,0,1.148-.8,3.619,3.619,0,0,0,.728-1.28A5.309,5.309,0,0,0,164.34,34.216Zm10.256-3.68a.743.743,0,0,1-.2.244.454.454,0,0,1-.268.076.691.691,0,0,1-.364-.124q-.2-.124-.468-.276a3.855,3.855,0,0,0-.636-.276,2.673,2.673,0,0,0-.86-.124,2.567,2.567,0,0,0-.784.108,1.646,1.646,0,0,0-.564.3,1.2,1.2,0,0,0-.34.46,1.51,1.51,0,0,0-.112.588,1.022,1.022,0,0,0,.228.68,1.9,1.9,0,0,0,.6.464,5.606,5.606,0,0,0,.856.344q.48.152.984.324a9.268,9.268,0,0,1,.984.4,3.4,3.4,0,0,1,.856.576,2.611,2.611,0,0,1,.6.852,2.959,2.959,0,0,1,.228,1.224,3.988,3.988,0,0,1-.268,1.468,3.387,3.387,0,0,1-.784,1.192,3.693,3.693,0,0,1-1.26.8,4.639,4.639,0,0,1-1.7.292,5.5,5.5,0,0,1-1.088-.108,5.728,5.728,0,0,1-1.028-.308,5.507,5.507,0,0,1-.924-.48,4.455,4.455,0,0,1-.768-.624l.632-1.032a.674.674,0,0,1,.208-.188.524.524,0,0,1,.272-.076.763.763,0,0,1,.432.164q.232.164.552.364a4.344,4.344,0,0,0,.748.364,2.876,2.876,0,0,0,1.028.164,2.11,2.11,0,0,0,1.424-.436,1.566,1.566,0,0,0,.5-1.252,1.163,1.163,0,0,0-.228-.744,1.841,1.841,0,0,0-.6-.484,4.509,4.509,0,0,0-.856-.332q-.48-.136-.976-.3a8.415,8.415,0,0,1-.976-.384,3.162,3.162,0,0,1-.856-.584,2.657,2.657,0,0,1-.6-.9,3.43,3.43,0,0,1-.228-1.332,3.2,3.2,0,0,1,.984-2.3,3.586,3.586,0,0,1,1.184-.744,4.348,4.348,0,0,1,1.616-.28,5.4,5.4,0,0,1,1.888.32,4.262,4.262,0,0,1,1.472.9Zm3.416,4.448a13.421,13.421,0,0,0-.4-3.244,12.9,12.9,0,0,0-1.14-2.988.824.824,0,0,1-.1-.292.507.507,0,0,1,.02-.216.417.417,0,0,1,.1-.16.679.679,0,0,1,.156-.116l.88-.528a13.976,13.976,0,0,1,1.008,1.828,13.03,13.03,0,0,1,.68,1.852,12.826,12.826,0,0,1,.384,1.9,16.1,16.1,0,0,1,0,3.924,12.844,12.844,0,0,1-.384,1.9,13.2,13.2,0,0,1-.68,1.856,13.845,13.845,0,0,1-1.008,1.832l-.88-.536a.679.679,0,0,1-.156-.116.417.417,0,0,1-.1-.16.507.507,0,0,1-.02-.216.759.759,0,0,1,.1-.284,13.072,13.072,0,0,0,1.14-2.992A13.373,13.373,0,0,0,178.012,34.984Z" transform="translate(335.94 3872.756)" fill="#12263f"/>
        <path id="Trazado_944929" data-name="Trazado 944929" d="M29.308,11.632,27.9,7.784q-.1-.256-.216-.608t-.224-.76q-.1.408-.216.764t-.216.62l-1.4,3.832ZM33.108,16H31.444a.71.71,0,0,1-.456-.14.872.872,0,0,1-.264-.348l-.864-2.36H25.068l-.864,2.36a.767.767,0,0,1-.248.336A.692.692,0,0,1,23.5,16H21.82L26.372,4.432h2.192ZM35.98,4.112V16H34V4.112ZM40,7.792V16H38.02V7.792ZM40.276,5.4a1.126,1.126,0,0,1-.1.48,1.3,1.3,0,0,1-.68.66,1.24,1.24,0,0,1-.5.1,1.192,1.192,0,0,1-.484-.1,1.282,1.282,0,0,1-.4-.268,1.3,1.3,0,0,1-.268-.392,1.164,1.164,0,0,1-.1-.48,1.24,1.24,0,0,1,.1-.5,1.252,1.252,0,0,1,.664-.668,1.192,1.192,0,0,1,.484-.1,1.24,1.24,0,0,1,.5.1,1.319,1.319,0,0,1,.4.268,1.29,1.29,0,0,1,.276.4A1.2,1.2,0,0,1,40.276,5.4Zm6.08,7.1a10.9,10.9,0,0,0-1.44.148,3.839,3.839,0,0,0-.936.276,1.231,1.231,0,0,0-.5.392.97.97,0,0,0,.156,1.232,1.335,1.335,0,0,0,.8.224,2.345,2.345,0,0,0,1.052-.22,3.124,3.124,0,0,0,.868-.668Zm-4.528-3.56a4.87,4.87,0,0,1,3.408-1.3,3.33,3.33,0,0,1,1.288.236,2.721,2.721,0,0,1,.96.656,2.807,2.807,0,0,1,.6,1,3.858,3.858,0,0,1,.2,1.28V16h-.9a.906.906,0,0,1-.432-.084.582.582,0,0,1-.24-.34l-.176-.592a7.145,7.145,0,0,1-.608.492,3.579,3.579,0,0,1-.616.356,3.31,3.31,0,0,1-.684.22,3.941,3.941,0,0,1-.8.076,3.152,3.152,0,0,1-.96-.14,2.109,2.109,0,0,1-.76-.42,1.886,1.886,0,0,1-.5-.7,2.469,2.469,0,0,1-.176-.968,1.927,1.927,0,0,1,.1-.62,1.812,1.812,0,0,1,.34-.588,2.831,2.831,0,0,1,.612-.528,3.977,3.977,0,0,1,.924-.432,7.983,7.983,0,0,1,1.276-.3,12.746,12.746,0,0,1,1.664-.14v-.48A1.8,1.8,0,0,0,46,9.6a1.288,1.288,0,0,0-1.016-.4,2.412,2.412,0,0,0-.8.112,3.276,3.276,0,0,0-.556.252l-.436.252a.863.863,0,0,1-.436.112.57.57,0,0,1-.352-.108.9.9,0,0,1-.232-.252ZM51.988,8.8a5.345,5.345,0,0,1,.524-.46,3.311,3.311,0,0,1,.584-.36,3.273,3.273,0,0,1,.66-.232,3.306,3.306,0,0,1,.768-.084,2.943,2.943,0,0,1,1.192.228,2.355,2.355,0,0,1,.868.64,2.813,2.813,0,0,1,.528.984,4.182,4.182,0,0,1,.18,1.26V16H55.316V10.776a1.767,1.767,0,0,0-.344-1.164A1.288,1.288,0,0,0,53.924,9.2a2.058,2.058,0,0,0-.96.232,3.44,3.44,0,0,0-.848.632V16H50.14V7.792h1.208a.485.485,0,0,1,.5.36ZM65.06,8.608a1.2,1.2,0,0,1-.072.408.936.936,0,0,1-.192.328L60.9,14.48h4.04V16H58.6v-.824a1.032,1.032,0,0,1,.064-.324,1.251,1.251,0,0,1,.192-.356L62.8,9.3h-3.96V7.792H65.06ZM70.852,12.5a10.9,10.9,0,0,0-1.44.148,3.839,3.839,0,0,0-.936.276,1.231,1.231,0,0,0-.5.392.97.97,0,0,0,.156,1.232,1.335,1.335,0,0,0,.8.224,2.345,2.345,0,0,0,1.052-.22,3.124,3.124,0,0,0,.868-.668Zm-4.528-3.56a4.87,4.87,0,0,1,3.408-1.3,3.33,3.33,0,0,1,1.288.236,2.721,2.721,0,0,1,.96.656,2.808,2.808,0,0,1,.6,1,3.858,3.858,0,0,1,.2,1.28V16h-.9a.906.906,0,0,1-.432-.084.582.582,0,0,1-.24-.34l-.176-.592a7.143,7.143,0,0,1-.608.492,3.579,3.579,0,0,1-.616.356,3.31,3.31,0,0,1-.684.22,3.941,3.941,0,0,1-.8.076,3.152,3.152,0,0,1-.96-.14,2.109,2.109,0,0,1-.76-.42,1.886,1.886,0,0,1-.5-.7,2.469,2.469,0,0,1-.176-.968,1.927,1.927,0,0,1,.1-.62,1.812,1.812,0,0,1,.34-.588,2.831,2.831,0,0,1,.612-.528,3.977,3.977,0,0,1,.924-.432,7.983,7.983,0,0,1,1.276-.3,12.746,12.746,0,0,1,1.664-.14v-.48A1.8,1.8,0,0,0,70.5,9.6a1.288,1.288,0,0,0-1.016-.4,2.412,2.412,0,0,0-.8.112,3.275,3.275,0,0,0-.556.252l-.436.252a.863.863,0,0,1-.436.112.57.57,0,0,1-.352-.108.9.9,0,0,1-.232-.252Zm13.32.456a.527.527,0,0,1-.168.18.435.435,0,0,1-.224.052.706.706,0,0,1-.308-.08q-.164-.08-.38-.18a3.48,3.48,0,0,0-.492-.18,2.356,2.356,0,0,0-.652-.08,1.5,1.5,0,0,0-.916.248.772.772,0,0,0-.332.648.618.618,0,0,0,.172.444,1.547,1.547,0,0,0,.456.316,4.463,4.463,0,0,0,.644.244q.36.108.732.236t.732.292a2.566,2.566,0,0,1,.644.416A1.832,1.832,0,0,1,80.18,13.4a2.769,2.769,0,0,1-.212,1.092,2.359,2.359,0,0,1-.628.864,2.962,2.962,0,0,1-1.028.568,4.818,4.818,0,0,1-2.24.128,4.887,4.887,0,0,1-.776-.212,4.3,4.3,0,0,1-.688-.32,3.339,3.339,0,0,1-.556-.4l.456-.752a.645.645,0,0,1,.208-.208.583.583,0,0,1,.3-.072.639.639,0,0,1,.348.1q.164.1.38.224a3.4,3.4,0,0,0,.508.224,2.235,2.235,0,0,0,.74.1,1.92,1.92,0,0,0,.6-.084,1.278,1.278,0,0,0,.416-.22.826.826,0,0,0,.24-.316.947.947,0,0,0,.076-.372.664.664,0,0,0-.172-.472,1.505,1.505,0,0,0-.456-.32,4.4,4.4,0,0,0-.648-.244q-.364-.108-.744-.236a6.883,6.883,0,0,1-.744-.3,2.536,2.536,0,0,1-.648-.436,1.973,1.973,0,0,1-.456-.648,2.261,2.261,0,0,1-.172-.928,2.364,2.364,0,0,1,.2-.96,2.252,2.252,0,0,1,.588-.8,2.92,2.92,0,0,1,.968-.544,4.032,4.032,0,0,1,1.34-.2,4.1,4.1,0,0,1,1.544.28,3.487,3.487,0,0,1,1.16.736Zm9.544-1.728a4.475,4.475,0,0,1,1.66.3,3.637,3.637,0,0,1,1.28.84,3.689,3.689,0,0,1,.82,1.328,5.051,5.051,0,0,1,.288,1.752,5.076,5.076,0,0,1-.288,1.76,3.77,3.77,0,0,1-.82,1.336,3.584,3.584,0,0,1-1.28.848,4.475,4.475,0,0,1-1.66.3,4.53,4.53,0,0,1-1.672-.3,3.577,3.577,0,0,1-1.284-.848,3.817,3.817,0,0,1-.824-1.336,5.013,5.013,0,0,1-.292-1.76,4.989,4.989,0,0,1,.292-1.752A3.735,3.735,0,0,1,86.232,8.8a3.629,3.629,0,0,1,1.284-.84A4.53,4.53,0,0,1,89.188,7.664Zm0,6.936a1.738,1.738,0,0,0,1.516-.688A3.45,3.45,0,0,0,91.2,11.9,3.489,3.489,0,0,0,90.7,9.872a1.73,1.73,0,0,0-1.516-.7,1.765,1.765,0,0,0-1.54.7,3.449,3.449,0,0,0-.5,2.02,3.41,3.41,0,0,0,.5,2.012A1.773,1.773,0,0,0,89.188,14.6Zm15.336-2.968-1.408-3.848q-.1-.256-.216-.608t-.224-.76q-.1.408-.216.764t-.216.62l-1.4,3.832Zm3.8,4.368H106.66a.71.71,0,0,1-.456-.14.872.872,0,0,1-.264-.348l-.864-2.36h-4.792l-.864,2.36a.767.767,0,0,1-.248.336.692.692,0,0,1-.456.152h-1.68l4.552-11.568h2.192Zm5.9-6.608a.527.527,0,0,1-.168.18.435.435,0,0,1-.224.052.706.706,0,0,1-.308-.08q-.164-.08-.38-.18a3.48,3.48,0,0,0-.492-.18A2.356,2.356,0,0,0,112,9.1a1.5,1.5,0,0,0-.916.248.772.772,0,0,0-.332.648.618.618,0,0,0,.172.444,1.547,1.547,0,0,0,.456.316,4.463,4.463,0,0,0,.644.244q.36.108.732.236t.732.292a2.566,2.566,0,0,1,.644.416,1.832,1.832,0,0,1,.628,1.452,2.769,2.769,0,0,1-.212,1.092,2.359,2.359,0,0,1-.628.864,2.962,2.962,0,0,1-1.028.568,4.818,4.818,0,0,1-2.24.128,4.887,4.887,0,0,1-.776-.212,4.3,4.3,0,0,1-.688-.32,3.34,3.34,0,0,1-.556-.4l.456-.752a.645.645,0,0,1,.208-.208.583.583,0,0,1,.3-.072.639.639,0,0,1,.348.1q.164.1.38.224a3.4,3.4,0,0,0,.508.224,2.235,2.235,0,0,0,.74.1,1.92,1.92,0,0,0,.6-.084,1.278,1.278,0,0,0,.416-.22.826.826,0,0,0,.24-.316.947.947,0,0,0,.076-.372.664.664,0,0,0-.172-.472,1.505,1.505,0,0,0-.456-.32,4.4,4.4,0,0,0-.648-.244q-.364-.108-.744-.236a6.883,6.883,0,0,1-.744-.3,2.536,2.536,0,0,1-.648-.436,1.973,1.973,0,0,1-.456-.648,2.261,2.261,0,0,1-.172-.928,2.364,2.364,0,0,1,.2-.96,2.252,2.252,0,0,1,.588-.8,2.92,2.92,0,0,1,.968-.544,4.032,4.032,0,0,1,1.34-.2,4.1,4.1,0,0,1,1.544.28,3.487,3.487,0,0,1,1.16.736Zm5.656-1.728a4.475,4.475,0,0,1,1.66.3,3.637,3.637,0,0,1,1.28.84,3.689,3.689,0,0,1,.82,1.328,5.051,5.051,0,0,1,.288,1.752,5.076,5.076,0,0,1-.288,1.76,3.77,3.77,0,0,1-.82,1.336,3.584,3.584,0,0,1-1.28.848,4.475,4.475,0,0,1-1.66.3,4.53,4.53,0,0,1-1.672-.3,3.577,3.577,0,0,1-1.284-.848,3.817,3.817,0,0,1-.824-1.336,5.013,5.013,0,0,1-.292-1.76,4.989,4.989,0,0,1,.292-1.752A3.735,3.735,0,0,1,116.92,8.8a3.629,3.629,0,0,1,1.284-.84A4.53,4.53,0,0,1,119.876,7.664Zm0,6.936a1.738,1.738,0,0,0,1.516-.688,3.45,3.45,0,0,0,.492-2.016,3.489,3.489,0,0,0-.492-2.024,1.73,1.73,0,0,0-1.516-.7,1.765,1.765,0,0,0-1.54.7,3.449,3.449,0,0,0-.5,2.02,3.41,3.41,0,0,0,.5,2.012A1.773,1.773,0,0,0,119.876,14.6Zm11.44-5.072a.985.985,0,0,1-.172.176.4.4,0,0,1-.244.064.543.543,0,0,1-.3-.092q-.144-.092-.344-.208a2.571,2.571,0,0,0-.476-.208,2.187,2.187,0,0,0-.684-.092,2.087,2.087,0,0,0-.912.188,1.729,1.729,0,0,0-.652.54,2.433,2.433,0,0,0-.388.852,4.575,4.575,0,0,0-.128,1.132,4.438,4.438,0,0,0,.14,1.168,2.5,2.5,0,0,0,.4.86,1.738,1.738,0,0,0,.64.528,1.939,1.939,0,0,0,.848.18,2.1,2.1,0,0,0,.764-.116,2.411,2.411,0,0,0,.492-.256q.2-.14.348-.256a.525.525,0,0,1,.332-.116.4.4,0,0,1,.36.184l.568.72a3.572,3.572,0,0,1-.712.644,3.848,3.848,0,0,1-.8.416,4.048,4.048,0,0,1-.848.22,5.969,5.969,0,0,1-.868.064,3.64,3.64,0,0,1-1.432-.284,3.382,3.382,0,0,1-1.176-.828,3.954,3.954,0,0,1-.8-1.332,5.146,5.146,0,0,1-.292-1.8,5.22,5.22,0,0,1,.26-1.676,3.8,3.8,0,0,1,.764-1.336,3.5,3.5,0,0,1,1.248-.884,4.3,4.3,0,0,1,1.712-.32,4.072,4.072,0,0,1,1.612.3,3.939,3.939,0,0,1,1.244.848Zm3.88-1.736V16h-1.984V7.792Zm.272-2.392a1.126,1.126,0,0,1-.1.48,1.3,1.3,0,0,1-.68.66,1.24,1.24,0,0,1-.5.1,1.192,1.192,0,0,1-.484-.1,1.282,1.282,0,0,1-.4-.268,1.3,1.3,0,0,1-.268-.392,1.164,1.164,0,0,1-.1-.48,1.24,1.24,0,0,1,.1-.5,1.252,1.252,0,0,1,.664-.668,1.192,1.192,0,0,1,.484-.1,1.24,1.24,0,0,1,.5.1,1.319,1.319,0,0,1,.4.268,1.29,1.29,0,0,1,.276.4A1.2,1.2,0,0,1,135.468,5.4Zm6.08,7.1a10.9,10.9,0,0,0-1.44.148,3.839,3.839,0,0,0-.936.276,1.231,1.231,0,0,0-.5.392.97.97,0,0,0,.156,1.232,1.335,1.335,0,0,0,.8.224,2.345,2.345,0,0,0,1.052-.22,3.124,3.124,0,0,0,.868-.668Zm-4.528-3.56a4.87,4.87,0,0,1,3.408-1.3,3.33,3.33,0,0,1,1.288.236,2.721,2.721,0,0,1,.96.656,2.807,2.807,0,0,1,.6,1,3.858,3.858,0,0,1,.2,1.28V16h-.9a.906.906,0,0,1-.432-.084.582.582,0,0,1-.24-.34l-.176-.592a7.141,7.141,0,0,1-.608.492,3.579,3.579,0,0,1-.616.356,3.31,3.31,0,0,1-.684.22,3.941,3.941,0,0,1-.8.076,3.152,3.152,0,0,1-.96-.14,2.109,2.109,0,0,1-.76-.42,1.886,1.886,0,0,1-.5-.7,2.469,2.469,0,0,1-.176-.968,1.927,1.927,0,0,1,.1-.62,1.812,1.812,0,0,1,.34-.588,2.831,2.831,0,0,1,.612-.528,3.977,3.977,0,0,1,.924-.432,7.983,7.983,0,0,1,1.276-.3,12.746,12.746,0,0,1,1.664-.14v-.48A1.8,1.8,0,0,0,141.2,9.6a1.288,1.288,0,0,0-1.016-.4,2.412,2.412,0,0,0-.8.112,3.276,3.276,0,0,0-.556.252l-.436.252a.863.863,0,0,1-.436.112.57.57,0,0,1-.352-.108.9.9,0,0,1-.232-.252Zm14.192.592a.985.985,0,0,1-.172.176.4.4,0,0,1-.244.064.543.543,0,0,1-.3-.092q-.144-.092-.344-.208a2.571,2.571,0,0,0-.476-.208A2.187,2.187,0,0,0,149,9.168a2.087,2.087,0,0,0-.912.188,1.729,1.729,0,0,0-.652.54,2.433,2.433,0,0,0-.388.852,4.574,4.574,0,0,0-.128,1.132,4.438,4.438,0,0,0,.14,1.168,2.5,2.5,0,0,0,.4.86,1.738,1.738,0,0,0,.64.528,1.939,1.939,0,0,0,.848.18,2.1,2.1,0,0,0,.764-.116,2.411,2.411,0,0,0,.492-.256q.2-.14.348-.256a.525.525,0,0,1,.332-.116.4.4,0,0,1,.36.184l.568.72a3.572,3.572,0,0,1-.712.644,3.848,3.848,0,0,1-.8.416,4.048,4.048,0,0,1-.848.22,5.969,5.969,0,0,1-.868.064,3.64,3.64,0,0,1-1.432-.284,3.383,3.383,0,0,1-1.176-.828,3.954,3.954,0,0,1-.8-1.332,5.146,5.146,0,0,1-.292-1.8,5.22,5.22,0,0,1,.26-1.676,3.8,3.8,0,0,1,.764-1.336,3.5,3.5,0,0,1,1.248-.884,4.3,4.3,0,0,1,1.712-.32,4.072,4.072,0,0,1,1.612.3,3.939,3.939,0,0,1,1.244.848Zm3.88-1.736V16h-1.984V7.792Zm.272-2.392a1.126,1.126,0,0,1-.1.48,1.3,1.3,0,0,1-.68.66,1.24,1.24,0,0,1-.5.1,1.192,1.192,0,0,1-.484-.1,1.282,1.282,0,0,1-.4-.268,1.3,1.3,0,0,1-.268-.392,1.164,1.164,0,0,1-.1-.48,1.24,1.24,0,0,1,.1-.5,1.252,1.252,0,0,1,.664-.668,1.192,1.192,0,0,1,.484-.1,1.24,1.24,0,0,1,.5.1,1.319,1.319,0,0,1,.4.268,1.29,1.29,0,0,1,.276.4A1.2,1.2,0,0,1,155.364,5.4Zm5.376,2.264a4.475,4.475,0,0,1,1.66.3,3.637,3.637,0,0,1,1.28.84,3.69,3.69,0,0,1,.82,1.328,5.051,5.051,0,0,1,.288,1.752,5.076,5.076,0,0,1-.288,1.76,3.77,3.77,0,0,1-.82,1.336,3.584,3.584,0,0,1-1.28.848,4.475,4.475,0,0,1-1.66.3,4.53,4.53,0,0,1-1.672-.3,3.577,3.577,0,0,1-1.284-.848,3.817,3.817,0,0,1-.824-1.336,5.013,5.013,0,0,1-.292-1.76,4.989,4.989,0,0,1,.292-1.752,3.735,3.735,0,0,1,.824-1.328,3.629,3.629,0,0,1,1.284-.84A4.53,4.53,0,0,1,160.74,7.664Zm0,6.936a1.738,1.738,0,0,0,1.516-.688,3.45,3.45,0,0,0,.492-2.016,3.489,3.489,0,0,0-.492-2.024,1.73,1.73,0,0,0-1.516-.7,1.765,1.765,0,0,0-1.54.7,3.449,3.449,0,0,0-.5,2.02,3.41,3.41,0,0,0,.5,2.012A1.773,1.773,0,0,0,160.74,14.6Zm7.408-5.8a5.344,5.344,0,0,1,.524-.46,3.31,3.31,0,0,1,.584-.36,3.273,3.273,0,0,1,.66-.232,3.306,3.306,0,0,1,.768-.084,2.943,2.943,0,0,1,1.192.228,2.355,2.355,0,0,1,.868.64,2.813,2.813,0,0,1,.528.984,4.181,4.181,0,0,1,.18,1.26V16h-1.976V10.776a1.767,1.767,0,0,0-.344-1.164,1.288,1.288,0,0,0-1.048-.412,2.058,2.058,0,0,0-.96.232,3.441,3.441,0,0,0-.848.632V16H166.3V7.792h1.208a.485.485,0,0,1,.5.36Zm12.464,2.152a2.378,2.378,0,0,0-.108-.724,1.721,1.721,0,0,0-.324-.6,1.507,1.507,0,0,0-.548-.4,1.881,1.881,0,0,0-.772-.148,1.83,1.83,0,0,0-1.348.488,2.393,2.393,0,0,0-.628,1.384Zm-3.768,1.192a3.889,3.889,0,0,0,.224,1.092,2.233,2.233,0,0,0,.464.76,1.817,1.817,0,0,0,.684.448,2.485,2.485,0,0,0,.876.148,2.716,2.716,0,0,0,.828-.112,3.883,3.883,0,0,0,.608-.248q.26-.136.456-.248a.765.765,0,0,1,.38-.112.409.409,0,0,1,.368.184l.568.72a3.293,3.293,0,0,1-.736.644,4.128,4.128,0,0,1-.852.416,4.657,4.657,0,0,1-.9.22,6.473,6.473,0,0,1-.892.064,4.385,4.385,0,0,1-1.592-.284,3.564,3.564,0,0,1-1.28-.84,3.941,3.941,0,0,1-.856-1.376,5.325,5.325,0,0,1-.312-1.9,4.543,4.543,0,0,1,.272-1.58,3.8,3.8,0,0,1,.78-1.288,3.672,3.672,0,0,1,1.24-.868,4.084,4.084,0,0,1,1.652-.32,4.018,4.018,0,0,1,1.432.248,3.12,3.12,0,0,1,1.128.724,3.354,3.354,0,0,1,.74,1.168,4.352,4.352,0,0,1,.268,1.58,1.283,1.283,0,0,1-.1.6.4.4,0,0,1-.368.156Zm12.032-2.752a.527.527,0,0,1-.168.18.435.435,0,0,1-.224.052.706.706,0,0,1-.308-.08q-.164-.08-.38-.18a3.48,3.48,0,0,0-.492-.18,2.356,2.356,0,0,0-.652-.08,1.5,1.5,0,0,0-.916.248A.772.772,0,0,0,185.4,10a.618.618,0,0,0,.172.444,1.547,1.547,0,0,0,.456.316,4.462,4.462,0,0,0,.644.244q.36.108.732.236t.732.292a2.566,2.566,0,0,1,.644.416,1.832,1.832,0,0,1,.628,1.452,2.769,2.769,0,0,1-.212,1.092,2.359,2.359,0,0,1-.628.864,2.962,2.962,0,0,1-1.028.568,4.818,4.818,0,0,1-2.24.128,4.887,4.887,0,0,1-.776-.212,4.294,4.294,0,0,1-.688-.32,3.34,3.34,0,0,1-.556-.4l.456-.752a.645.645,0,0,1,.208-.208.583.583,0,0,1,.3-.072.639.639,0,0,1,.348.1q.164.1.38.224a3.4,3.4,0,0,0,.508.224,2.235,2.235,0,0,0,.74.1,1.92,1.92,0,0,0,.6-.084,1.278,1.278,0,0,0,.416-.22.826.826,0,0,0,.24-.316.947.947,0,0,0,.076-.372.664.664,0,0,0-.172-.472,1.506,1.506,0,0,0-.456-.32,4.405,4.405,0,0,0-.648-.244q-.364-.108-.744-.236a6.882,6.882,0,0,1-.744-.3,2.536,2.536,0,0,1-.648-.436,1.973,1.973,0,0,1-.456-.648,2.261,2.261,0,0,1-.172-.928,2.364,2.364,0,0,1,.2-.96,2.252,2.252,0,0,1,.588-.8,2.92,2.92,0,0,1,.968-.544,4.032,4.032,0,0,1,1.34-.2,4.1,4.1,0,0,1,1.544.28,3.487,3.487,0,0,1,1.16.736Zm11.064.5a1.945,1.945,0,0,0-.732-.576,2.159,2.159,0,0,0-.852-.168,1.888,1.888,0,0,0-.808.168,1.627,1.627,0,0,0-.616.508,2.443,2.443,0,0,0-.392.864,4.96,4.96,0,0,0-.136,1.236,5.486,5.486,0,0,0,.116,1.22,2.4,2.4,0,0,0,.332.816,1.265,1.265,0,0,0,.528.456,1.682,1.682,0,0,0,.7.14,2.021,2.021,0,0,0,1.048-.256,3.112,3.112,0,0,0,.816-.728Zm1.976-5.776V16h-1.208a.465.465,0,0,1-.5-.36l-.168-.792a4.143,4.143,0,0,1-1.14.92,3.079,3.079,0,0,1-1.5.352,2.716,2.716,0,0,1-1.232-.28,2.745,2.745,0,0,1-.964-.812,3.892,3.892,0,0,1-.624-1.316,6.646,6.646,0,0,1-.22-1.792,5.6,5.6,0,0,1,.248-1.7,4.127,4.127,0,0,1,.712-1.36,3.323,3.323,0,0,1,1.112-.9,3.211,3.211,0,0,1,1.456-.324,2.894,2.894,0,0,1,1.176.216,3.013,3.013,0,0,1,.872.584V4.112Zm7.24,6.84a2.378,2.378,0,0,0-.108-.724,1.721,1.721,0,0,0-.324-.6,1.507,1.507,0,0,0-.548-.4,1.881,1.881,0,0,0-.772-.148,1.83,1.83,0,0,0-1.348.488,2.393,2.393,0,0,0-.628,1.384Zm-3.768,1.192a3.889,3.889,0,0,0,.224,1.092,2.233,2.233,0,0,0,.464.76,1.817,1.817,0,0,0,.684.448,2.485,2.485,0,0,0,.876.148,2.716,2.716,0,0,0,.828-.112,3.883,3.883,0,0,0,.608-.248q.26-.136.456-.248a.765.765,0,0,1,.38-.112.409.409,0,0,1,.368.184l.568.72a3.293,3.293,0,0,1-.736.644,4.128,4.128,0,0,1-.852.416,4.657,4.657,0,0,1-.9.22,6.473,6.473,0,0,1-.892.064,4.385,4.385,0,0,1-1.592-.284,3.564,3.564,0,0,1-1.28-.84,3.941,3.941,0,0,1-.856-1.376,5.325,5.325,0,0,1-.312-1.9,4.543,4.543,0,0,1,.272-1.58,3.8,3.8,0,0,1,.78-1.288,3.672,3.672,0,0,1,1.24-.868,4.084,4.084,0,0,1,1.652-.32,4.018,4.018,0,0,1,1.432.248,3.12,3.12,0,0,1,1.128.724,3.354,3.354,0,0,1,.74,1.168,4.352,4.352,0,0,1,.268,1.58,1.283,1.283,0,0,1-.1.6.4.4,0,0,1-.368.156Zm15.88,2.12a2.842,2.842,0,0,0,1.116-.208,2.287,2.287,0,0,0,.828-.584,2.583,2.583,0,0,0,.516-.912,3.756,3.756,0,0,0,.18-1.2V4.432h2.152V11.36a5.341,5.341,0,0,1-.332,1.908,4.238,4.238,0,0,1-2.46,2.5,5.818,5.818,0,0,1-4.008,0,4.238,4.238,0,0,1-2.46-2.5,5.341,5.341,0,0,1-.332-1.908V4.432h2.152v6.92a3.756,3.756,0,0,0,.18,1.2,2.592,2.592,0,0,0,.52.916,2.3,2.3,0,0,0,.832.588A2.842,2.842,0,0,0,221.268,14.264Zm11.576-4.872a.527.527,0,0,1-.168.18.435.435,0,0,1-.224.052.706.706,0,0,1-.308-.08q-.164-.08-.38-.18a3.48,3.48,0,0,0-.492-.18,2.356,2.356,0,0,0-.652-.08,1.5,1.5,0,0,0-.916.248.772.772,0,0,0-.332.648.618.618,0,0,0,.172.444,1.547,1.547,0,0,0,.456.316,4.462,4.462,0,0,0,.644.244q.36.108.732.236t.732.292a2.566,2.566,0,0,1,.644.416,1.832,1.832,0,0,1,.628,1.452,2.769,2.769,0,0,1-.212,1.092,2.359,2.359,0,0,1-.628.864,2.962,2.962,0,0,1-1.028.568,4.818,4.818,0,0,1-2.24.128,4.887,4.887,0,0,1-.776-.212,4.3,4.3,0,0,1-.688-.32,3.34,3.34,0,0,1-.556-.4l.456-.752a.645.645,0,0,1,.208-.208.583.583,0,0,1,.3-.072.639.639,0,0,1,.348.1q.164.1.38.224a3.4,3.4,0,0,0,.508.224,2.235,2.235,0,0,0,.74.1,1.92,1.92,0,0,0,.6-.084,1.278,1.278,0,0,0,.416-.22.826.826,0,0,0,.24-.316.947.947,0,0,0,.076-.372.664.664,0,0,0-.172-.472,1.506,1.506,0,0,0-.456-.32,4.405,4.405,0,0,0-.648-.244q-.364-.108-.744-.236a6.882,6.882,0,0,1-.744-.3,2.536,2.536,0,0,1-.648-.436,1.973,1.973,0,0,1-.456-.648,2.261,2.261,0,0,1-.172-.928,2.364,2.364,0,0,1,.2-.96,2.252,2.252,0,0,1,.588-.8,2.92,2.92,0,0,1,.968-.544,4.032,4.032,0,0,1,1.34-.2,4.1,4.1,0,0,1,1.544.28,3.487,3.487,0,0,1,1.16.736Zm9.1-1.6V16h-1.208a.465.465,0,0,1-.5-.36l-.136-.656a4.409,4.409,0,0,1-1.112.828,3.065,3.065,0,0,1-1.432.316,2.914,2.914,0,0,1-1.188-.228,2.379,2.379,0,0,1-.868-.644,2.82,2.82,0,0,1-.532-.988,4.181,4.181,0,0,1-.18-1.26V7.792h1.976v5.216a1.753,1.753,0,0,0,.348,1.164,1.29,1.29,0,0,0,1.044.412,2.087,2.087,0,0,0,.96-.228,3.356,3.356,0,0,0,.848-.628V7.792Zm6.288,4.7a10.9,10.9,0,0,0-1.44.148,3.839,3.839,0,0,0-.936.276,1.231,1.231,0,0,0-.5.392.97.97,0,0,0,.156,1.232,1.335,1.335,0,0,0,.8.224,2.345,2.345,0,0,0,1.052-.22,3.124,3.124,0,0,0,.868-.668ZM243.7,8.936a4.87,4.87,0,0,1,3.408-1.3,3.33,3.33,0,0,1,1.288.236,2.721,2.721,0,0,1,.96.656,2.807,2.807,0,0,1,.6,1,3.858,3.858,0,0,1,.2,1.28V16h-.9a.906.906,0,0,1-.432-.084.582.582,0,0,1-.24-.34l-.176-.592a7.141,7.141,0,0,1-.608.492,3.579,3.579,0,0,1-.616.356,3.31,3.31,0,0,1-.684.22,3.941,3.941,0,0,1-.8.076,3.152,3.152,0,0,1-.96-.14,2.109,2.109,0,0,1-.76-.42,1.886,1.886,0,0,1-.5-.7,2.469,2.469,0,0,1-.176-.968,1.927,1.927,0,0,1,.1-.62,1.812,1.812,0,0,1,.34-.588,2.831,2.831,0,0,1,.612-.528,3.977,3.977,0,0,1,.924-.432,7.983,7.983,0,0,1,1.276-.3,12.746,12.746,0,0,1,1.664-.14v-.48a1.8,1.8,0,0,0-.352-1.22,1.288,1.288,0,0,0-1.016-.4,2.412,2.412,0,0,0-.8.112,3.276,3.276,0,0,0-.556.252l-.436.252a.863.863,0,0,1-.436.112.57.57,0,0,1-.352-.108.9.9,0,0,1-.232-.252Zm10.176.28a3.539,3.539,0,0,1,.912-1.156,1.944,1.944,0,0,1,1.248-.42,1.526,1.526,0,0,1,.912.248l-.128,1.48a.382.382,0,0,1-.116.2.32.32,0,0,1-.2.06,2.331,2.331,0,0,1-.356-.04,2.751,2.751,0,0,0-.46-.04,1.656,1.656,0,0,0-.584.1,1.469,1.469,0,0,0-.46.276,1.881,1.881,0,0,0-.36.436,4.254,4.254,0,0,0-.292.584V16h-1.976V7.792h1.16a.639.639,0,0,1,.424.108.635.635,0,0,1,.16.388Zm6.152-1.424V16h-1.984V7.792ZM260.3,5.4a1.126,1.126,0,0,1-.1.48,1.3,1.3,0,0,1-.68.66,1.24,1.24,0,0,1-.5.1,1.192,1.192,0,0,1-.484-.1,1.282,1.282,0,0,1-.4-.268,1.3,1.3,0,0,1-.268-.392,1.164,1.164,0,0,1-.1-.48,1.239,1.239,0,0,1,.1-.5,1.269,1.269,0,0,1,.268-.4,1.282,1.282,0,0,1,.4-.268,1.192,1.192,0,0,1,.484-.1,1.24,1.24,0,0,1,.5.1,1.319,1.319,0,0,1,.4.268,1.29,1.29,0,0,1,.276.4A1.2,1.2,0,0,1,260.3,5.4Zm5.376,2.264a4.475,4.475,0,0,1,1.66.3,3.637,3.637,0,0,1,1.28.84,3.69,3.69,0,0,1,.82,1.328,5.052,5.052,0,0,1,.288,1.752,5.077,5.077,0,0,1-.288,1.76,3.771,3.771,0,0,1-.82,1.336,3.584,3.584,0,0,1-1.28.848,4.475,4.475,0,0,1-1.66.3,4.529,4.529,0,0,1-1.672-.3,3.576,3.576,0,0,1-1.284-.848,3.817,3.817,0,0,1-.824-1.336,5.013,5.013,0,0,1-.292-1.76,4.989,4.989,0,0,1,.292-1.752A3.735,3.735,0,0,1,262.72,8.8,3.629,3.629,0,0,1,264,7.96,4.529,4.529,0,0,1,265.676,7.664Zm0,6.936a1.738,1.738,0,0,0,1.516-.688,3.45,3.45,0,0,0,.492-2.016,3.489,3.489,0,0,0-.492-2.024,1.73,1.73,0,0,0-1.516-.7,1.765,1.765,0,0,0-1.54.7,3.449,3.449,0,0,0-.5,2.02,3.41,3.41,0,0,0,.5,2.012A1.773,1.773,0,0,0,265.676,14.6Zm10.568-5.208a.527.527,0,0,1-.168.18.435.435,0,0,1-.224.052.706.706,0,0,1-.308-.08q-.164-.08-.38-.18a3.481,3.481,0,0,0-.492-.18,2.356,2.356,0,0,0-.652-.08,1.5,1.5,0,0,0-.916.248.772.772,0,0,0-.332.648.618.618,0,0,0,.172.444,1.546,1.546,0,0,0,.456.316,4.463,4.463,0,0,0,.644.244q.36.108.732.236t.732.292a2.566,2.566,0,0,1,.644.416,1.832,1.832,0,0,1,.628,1.452,2.769,2.769,0,0,1-.212,1.092,2.359,2.359,0,0,1-.628.864,2.962,2.962,0,0,1-1.028.568,4.818,4.818,0,0,1-2.24.128,4.888,4.888,0,0,1-.776-.212,4.3,4.3,0,0,1-.688-.32,3.34,3.34,0,0,1-.556-.4l.456-.752a.645.645,0,0,1,.208-.208.583.583,0,0,1,.3-.072.639.639,0,0,1,.348.1q.164.1.38.224a3.4,3.4,0,0,0,.508.224,2.235,2.235,0,0,0,.74.1,1.92,1.92,0,0,0,.6-.084,1.278,1.278,0,0,0,.416-.22.826.826,0,0,0,.24-.316.947.947,0,0,0,.076-.372.664.664,0,0,0-.172-.472,1.505,1.505,0,0,0-.456-.32,4.4,4.4,0,0,0-.648-.244q-.364-.108-.744-.236a6.884,6.884,0,0,1-.744-.3,2.536,2.536,0,0,1-.648-.436,1.974,1.974,0,0,1-.456-.648,2.261,2.261,0,0,1-.172-.928,2.364,2.364,0,0,1,.2-.96,2.252,2.252,0,0,1,.588-.8,2.92,2.92,0,0,1,.968-.544,4.032,4.032,0,0,1,1.34-.2,4.1,4.1,0,0,1,1.544.28,3.488,3.488,0,0,1,1.16.736Zm1.736,5.52a1.23,1.23,0,0,1,.092-.472,1.158,1.158,0,0,1,.252-.384,1.225,1.225,0,0,1,.864-.352,1.177,1.177,0,0,1,.476.1,1.274,1.274,0,0,1,.384.256,1.2,1.2,0,0,1,0,1.712,1.219,1.219,0,0,1-.86.344,1.251,1.251,0,0,1-.48-.092,1.139,1.139,0,0,1-.636-.632A1.221,1.221,0,0,1,277.98,14.912Z" transform="translate(647.94 3896.756)" fill="#12263f"/>
        <path id="Trazado_944931" data-name="Trazado 944931" d="M18.428,13.272a.429.429,0,0,1,.312.136l.848.92a4.657,4.657,0,0,1-1.732,1.336,5.969,5.969,0,0,1-2.468.464,5.832,5.832,0,0,1-2.316-.44,5.1,5.1,0,0,1-1.756-1.224A5.358,5.358,0,0,1,10.2,12.592a7.027,7.027,0,0,1-.388-2.376,6.614,6.614,0,0,1,.416-2.388A5.489,5.489,0,0,1,11.4,5.96a5.3,5.3,0,0,1,1.8-1.22,5.983,5.983,0,0,1,2.32-.436,5.7,5.7,0,0,1,2.244.416,5.346,5.346,0,0,1,1.668,1.088l-.72,1a.653.653,0,0,1-.164.168.465.465,0,0,1-.276.072.528.528,0,0,1-.248-.068q-.128-.068-.28-.168t-.352-.22a2.9,2.9,0,0,0-.464-.22A3.787,3.787,0,0,0,16.32,6.2a4.228,4.228,0,0,0-.8-.068,3.568,3.568,0,0,0-1.42.276,3.086,3.086,0,0,0-1.108.8,3.688,3.688,0,0,0-.72,1.28,5.364,5.364,0,0,0-.256,1.724,5.067,5.067,0,0,0,.276,1.736,3.817,3.817,0,0,0,.748,1.28,3.194,3.194,0,0,0,1.112.8,3.437,3.437,0,0,0,1.376.276,5.994,5.994,0,0,0,.8-.048,3.379,3.379,0,0,0,.656-.152,2.912,2.912,0,0,0,.568-.268,3.549,3.549,0,0,0,.532-.4.758.758,0,0,1,.168-.116A.406.406,0,0,1,18.428,13.272ZM24.22,7.664a4.475,4.475,0,0,1,1.66.3,3.637,3.637,0,0,1,1.28.84,3.69,3.69,0,0,1,.82,1.328,5.051,5.051,0,0,1,.288,1.752,5.076,5.076,0,0,1-.288,1.76,3.77,3.77,0,0,1-.82,1.336,3.584,3.584,0,0,1-1.28.848,4.475,4.475,0,0,1-1.66.3,4.53,4.53,0,0,1-1.672-.3,3.577,3.577,0,0,1-1.284-.848,3.817,3.817,0,0,1-.824-1.336,5.013,5.013,0,0,1-.292-1.76,4.989,4.989,0,0,1,.292-1.752A3.735,3.735,0,0,1,21.264,8.8a3.629,3.629,0,0,1,1.284-.84A4.53,4.53,0,0,1,24.22,7.664Zm0,6.936a1.738,1.738,0,0,0,1.516-.688,3.45,3.45,0,0,0,.492-2.016,3.489,3.489,0,0,0-.492-2.024,1.73,1.73,0,0,0-1.516-.7,1.765,1.765,0,0,0-1.54.7,3.449,3.449,0,0,0-.5,2.02,3.41,3.41,0,0,0,.5,2.012A1.773,1.773,0,0,0,24.22,14.6ZM29.78,16V7.792h1.208a.485.485,0,0,1,.5.36l.128.608a4.673,4.673,0,0,1,.452-.44,2.9,2.9,0,0,1,.5-.344,2.73,2.73,0,0,1,.576-.228,2.565,2.565,0,0,1,.676-.084,1.916,1.916,0,0,1,1.276.42A2.529,2.529,0,0,1,35.852,9.2a2.5,2.5,0,0,1,.48-.7,2.624,2.624,0,0,1,.632-.476,2.908,2.908,0,0,1,.732-.272,3.516,3.516,0,0,1,.78-.088,3.277,3.277,0,0,1,1.208.208,2.317,2.317,0,0,1,.888.608,2.68,2.68,0,0,1,.548.976,4.251,4.251,0,0,1,.188,1.32V16H39.332V10.776a1.756,1.756,0,0,0-.344-1.18,1.263,1.263,0,0,0-1.008-.4,1.5,1.5,0,0,0-.564.1,1.344,1.344,0,0,0-.456.3,1.37,1.37,0,0,0-.308.492,1.914,1.914,0,0,0-.112.68V16H34.556V10.776a1.787,1.787,0,0,0-.332-1.2,1.228,1.228,0,0,0-.972-.376,1.6,1.6,0,0,0-.8.212,2.681,2.681,0,0,0-.692.58V16ZM45.228,7.792V16H43.244V7.792ZM45.5,5.4a1.126,1.126,0,0,1-.1.48,1.3,1.3,0,0,1-.68.66,1.24,1.24,0,0,1-.5.1,1.192,1.192,0,0,1-.484-.1,1.282,1.282,0,0,1-.4-.268,1.3,1.3,0,0,1-.268-.392,1.164,1.164,0,0,1-.1-.48,1.24,1.24,0,0,1,.1-.5,1.252,1.252,0,0,1,.664-.668,1.192,1.192,0,0,1,.484-.1,1.24,1.24,0,0,1,.5.1,1.319,1.319,0,0,1,.4.268,1.29,1.29,0,0,1,.276.4A1.2,1.2,0,0,1,45.5,5.4Zm4.48,10.728a2.156,2.156,0,0,1-1.644-.6,2.328,2.328,0,0,1-.572-1.668V9.272h-.84a.385.385,0,0,1-.272-.1.406.406,0,0,1-.112-.312V8.072l1.32-.216.416-2.24a.439.439,0,0,1,.152-.248.452.452,0,0,1,.288-.088H49.74V7.864h2.192V9.272H49.74V13.72a.884.884,0,0,0,.188.6.648.648,0,0,0,.516.216.93.93,0,0,0,.308-.044,1.7,1.7,0,0,0,.216-.092q.092-.048.164-.092a.274.274,0,0,1,.144-.044.226.226,0,0,1,.144.044.667.667,0,0,1,.12.132l.592.96a2.991,2.991,0,0,1-.992.544A3.692,3.692,0,0,1,49.98,16.128Zm8.44-5.176a2.378,2.378,0,0,0-.108-.724,1.721,1.721,0,0,0-.324-.6,1.507,1.507,0,0,0-.548-.4,1.881,1.881,0,0,0-.772-.148,1.83,1.83,0,0,0-1.348.488,2.393,2.393,0,0,0-.628,1.384Zm-3.768,1.192a3.889,3.889,0,0,0,.224,1.092,2.233,2.233,0,0,0,.464.76,1.817,1.817,0,0,0,.684.448,2.485,2.485,0,0,0,.876.148,2.716,2.716,0,0,0,.828-.112,3.882,3.882,0,0,0,.608-.248q.26-.136.456-.248a.765.765,0,0,1,.38-.112.409.409,0,0,1,.368.184l.568.72a3.293,3.293,0,0,1-.736.644,4.128,4.128,0,0,1-.852.416,4.657,4.657,0,0,1-.9.22,6.473,6.473,0,0,1-.892.064,4.385,4.385,0,0,1-1.592-.284,3.564,3.564,0,0,1-1.28-.84A3.941,3.941,0,0,1,53,13.62a5.325,5.325,0,0,1-.312-1.9,4.544,4.544,0,0,1,.272-1.58,3.8,3.8,0,0,1,.78-1.288,3.672,3.672,0,0,1,1.24-.868,4.084,4.084,0,0,1,1.652-.32,4.018,4.018,0,0,1,1.432.248,3.12,3.12,0,0,1,1.128.724,3.354,3.354,0,0,1,.74,1.168,4.352,4.352,0,0,1,.268,1.58,1.283,1.283,0,0,1-.1.6.4.4,0,0,1-.368.156ZM59.444,4.3,57.468,6.392a.921.921,0,0,1-.292.22.934.934,0,0,1-.364.06H55.628l1.136-1.944a.935.935,0,0,1,.28-.316.864.864,0,0,1,.48-.108Zm7.24,5.088a.527.527,0,0,1-.168.18.435.435,0,0,1-.224.052.706.706,0,0,1-.308-.08q-.164-.08-.38-.18a3.48,3.48,0,0,0-.492-.18,2.356,2.356,0,0,0-.652-.08,1.5,1.5,0,0,0-.916.248.772.772,0,0,0-.332.648.618.618,0,0,0,.172.444,1.547,1.547,0,0,0,.456.316,4.463,4.463,0,0,0,.644.244q.36.108.732.236t.732.292a2.566,2.566,0,0,1,.644.416A1.832,1.832,0,0,1,67.22,13.4a2.769,2.769,0,0,1-.212,1.092,2.359,2.359,0,0,1-.628.864,2.962,2.962,0,0,1-1.028.568,4.818,4.818,0,0,1-2.24.128,4.887,4.887,0,0,1-.776-.212,4.294,4.294,0,0,1-.688-.32,3.339,3.339,0,0,1-.556-.4l.456-.752a.645.645,0,0,1,.208-.208.583.583,0,0,1,.3-.072.639.639,0,0,1,.348.1q.164.1.38.224a3.4,3.4,0,0,0,.508.224,2.235,2.235,0,0,0,.74.1,1.92,1.92,0,0,0,.6-.084,1.278,1.278,0,0,0,.416-.22.826.826,0,0,0,.24-.316.947.947,0,0,0,.076-.372.664.664,0,0,0-.172-.472,1.505,1.505,0,0,0-.456-.32,4.4,4.4,0,0,0-.648-.244q-.364-.108-.744-.236a6.882,6.882,0,0,1-.744-.3,2.536,2.536,0,0,1-.648-.436A1.973,1.973,0,0,1,61.5,11.1a2.261,2.261,0,0,1-.172-.928,2.364,2.364,0,0,1,.2-.96,2.252,2.252,0,0,1,.588-.8,2.92,2.92,0,0,1,.968-.544,4.032,4.032,0,0,1,1.34-.2,4.1,4.1,0,0,1,1.544.28,3.487,3.487,0,0,1,1.16.736Zm11.064.5a1.945,1.945,0,0,0-.732-.576,2.159,2.159,0,0,0-.852-.168,1.888,1.888,0,0,0-.808.168,1.627,1.627,0,0,0-.616.508,2.443,2.443,0,0,0-.392.864,4.96,4.96,0,0,0-.136,1.236,5.487,5.487,0,0,0,.116,1.22,2.4,2.4,0,0,0,.332.816,1.265,1.265,0,0,0,.528.456,1.681,1.681,0,0,0,.7.14,2.021,2.021,0,0,0,1.048-.256,3.113,3.113,0,0,0,.816-.728Zm1.976-5.776V16H78.516a.465.465,0,0,1-.5-.36l-.168-.792a4.143,4.143,0,0,1-1.14.92,3.079,3.079,0,0,1-1.5.352,2.716,2.716,0,0,1-1.232-.28,2.745,2.745,0,0,1-.964-.812,3.892,3.892,0,0,1-.624-1.316,6.646,6.646,0,0,1-.22-1.792,5.6,5.6,0,0,1,.248-1.7,4.126,4.126,0,0,1,.712-1.36,3.322,3.322,0,0,1,1.112-.9A3.211,3.211,0,0,1,75.7,7.64a2.894,2.894,0,0,1,1.176.216,3.013,3.013,0,0,1,.872.584V4.112Zm7.24,6.84a2.378,2.378,0,0,0-.108-.724,1.721,1.721,0,0,0-.324-.6,1.507,1.507,0,0,0-.548-.4,1.881,1.881,0,0,0-.772-.148,1.83,1.83,0,0,0-1.348.488,2.393,2.393,0,0,0-.628,1.384ZM83.2,12.144a3.889,3.889,0,0,0,.224,1.092,2.233,2.233,0,0,0,.464.76,1.817,1.817,0,0,0,.684.448,2.485,2.485,0,0,0,.876.148,2.716,2.716,0,0,0,.828-.112,3.882,3.882,0,0,0,.608-.248q.26-.136.456-.248a.765.765,0,0,1,.38-.112.409.409,0,0,1,.368.184l.568.72a3.293,3.293,0,0,1-.736.644,4.128,4.128,0,0,1-.852.416,4.657,4.657,0,0,1-.9.22,6.473,6.473,0,0,1-.892.064,4.385,4.385,0,0,1-1.592-.284A3.564,3.564,0,0,1,82.4,15a3.941,3.941,0,0,1-.856-1.376,5.325,5.325,0,0,1-.312-1.9,4.543,4.543,0,0,1,.272-1.58,3.8,3.8,0,0,1,.78-1.288,3.672,3.672,0,0,1,1.24-.868,4.084,4.084,0,0,1,1.652-.32,4.018,4.018,0,0,1,1.432.248,3.12,3.12,0,0,1,1.128.724,3.354,3.354,0,0,1,.74,1.168,4.352,4.352,0,0,1,.268,1.58,1.283,1.283,0,0,1-.1.6.4.4,0,0,1-.368.156Zm13.384-6V9.352h4.048v1.656H96.58V14.28h5.136V16h-7.3V4.432h7.3V6.144Zm4.968-5.032L98.956,3.4a.7.7,0,0,1-.3.176,1.744,1.744,0,0,1-.368.032H96.852L98.524,1.44a.991.991,0,0,1,.16-.18.528.528,0,0,1,.176-.1.855.855,0,0,1,.212-.04q.116-.008.276-.008ZM111.268,16h-1.976V9.272h-3.808V13.72a.884.884,0,0,0,.188.6.648.648,0,0,0,.516.216.93.93,0,0,0,.308-.044,1.7,1.7,0,0,0,.216-.092q.092-.048.164-.092a.274.274,0,0,1,.144-.044.226.226,0,0,1,.144.044.668.668,0,0,1,.12.132l.592.96a2.991,2.991,0,0,1-.992.544,3.692,3.692,0,0,1-1.16.184,2.156,2.156,0,0,1-1.644-.6,2.328,2.328,0,0,1-.572-1.668V9.272h-.84a.385.385,0,0,1-.272-.1.406.406,0,0,1-.112-.312V8.072l1.32-.224.416-2.232a.439.439,0,0,1,.152-.248.452.452,0,0,1,.288-.088h1.024V7.864h5.784Zm.344-10.632a1.153,1.153,0,0,1-.1.484,1.282,1.282,0,0,1-.684.664,1.268,1.268,0,0,1-.5.1,1.164,1.164,0,0,1-.48-.1,1.3,1.3,0,0,1-.392-.268,1.282,1.282,0,0,1-.268-.4,1.192,1.192,0,0,1-.1-.484,1.211,1.211,0,0,1,.1-.492,1.333,1.333,0,0,1,.268-.4,1.261,1.261,0,0,1,.392-.272,1.164,1.164,0,0,1,.48-.1,1.289,1.289,0,0,1,.908.372,1.356,1.356,0,0,1,.276.4A1.171,1.171,0,0,1,111.612,5.368Zm7.552,4.16a.985.985,0,0,1-.172.176.4.4,0,0,1-.244.064.543.543,0,0,1-.3-.092q-.144-.092-.344-.208a2.572,2.572,0,0,0-.476-.208,2.187,2.187,0,0,0-.684-.092,2.087,2.087,0,0,0-.912.188,1.729,1.729,0,0,0-.652.54,2.433,2.433,0,0,0-.388.852,4.575,4.575,0,0,0-.128,1.132,4.438,4.438,0,0,0,.14,1.168,2.5,2.5,0,0,0,.4.86,1.738,1.738,0,0,0,.64.528,1.94,1.94,0,0,0,.848.18,2.1,2.1,0,0,0,.764-.116,2.411,2.411,0,0,0,.492-.256q.2-.14.348-.256a.525.525,0,0,1,.332-.116.4.4,0,0,1,.36.184l.568.72a3.572,3.572,0,0,1-.712.644,3.849,3.849,0,0,1-.8.416,4.048,4.048,0,0,1-.848.22,5.969,5.969,0,0,1-.868.064,3.64,3.64,0,0,1-1.432-.284,3.382,3.382,0,0,1-1.176-.828,3.954,3.954,0,0,1-.8-1.332,5.146,5.146,0,0,1-.292-1.8,5.22,5.22,0,0,1,.26-1.676,3.8,3.8,0,0,1,.764-1.336,3.5,3.5,0,0,1,1.248-.884,4.3,4.3,0,0,1,1.712-.32,4.072,4.072,0,0,1,1.612.3,3.939,3.939,0,0,1,1.244.848Zm6.168,2.968a10.9,10.9,0,0,0-1.44.148,3.839,3.839,0,0,0-.936.276,1.231,1.231,0,0,0-.5.392.97.97,0,0,0,.156,1.232,1.335,1.335,0,0,0,.8.224,2.345,2.345,0,0,0,1.052-.22,3.124,3.124,0,0,0,.868-.668ZM120.8,8.936a4.87,4.87,0,0,1,3.408-1.3,3.33,3.33,0,0,1,1.288.236,2.721,2.721,0,0,1,.96.656,2.808,2.808,0,0,1,.6,1,3.858,3.858,0,0,1,.2,1.28V16h-.9a.906.906,0,0,1-.432-.084.582.582,0,0,1-.24-.34l-.176-.592a7.143,7.143,0,0,1-.608.492,3.579,3.579,0,0,1-.616.356,3.31,3.31,0,0,1-.684.22,3.941,3.941,0,0,1-.8.076,3.152,3.152,0,0,1-.96-.14,2.109,2.109,0,0,1-.76-.42,1.886,1.886,0,0,1-.5-.7,2.469,2.469,0,0,1-.176-.968,1.927,1.927,0,0,1,.1-.62,1.812,1.812,0,0,1,.34-.588,2.831,2.831,0,0,1,.612-.528,3.977,3.977,0,0,1,.924-.432,7.983,7.983,0,0,1,1.276-.3,12.746,12.746,0,0,1,1.664-.14v-.48a1.8,1.8,0,0,0-.352-1.22,1.288,1.288,0,0,0-1.016-.4,2.412,2.412,0,0,0-.8.112,3.275,3.275,0,0,0-.556.252l-.436.252a.863.863,0,0,1-.436.112.57.57,0,0,1-.352-.108.9.9,0,0,1-.232-.252Zm22.264-4.5V16h-2.16V10.944h-5.432V16h-2.16V4.432h2.16V9.408h5.432V4.432Zm5.648,3.232a4.475,4.475,0,0,1,1.66.3,3.637,3.637,0,0,1,1.28.84,3.69,3.69,0,0,1,.82,1.328,5.051,5.051,0,0,1,.288,1.752,5.076,5.076,0,0,1-.288,1.76,3.77,3.77,0,0,1-.82,1.336,3.584,3.584,0,0,1-1.28.848,4.475,4.475,0,0,1-1.66.3,4.53,4.53,0,0,1-1.672-.3,3.577,3.577,0,0,1-1.284-.848,3.817,3.817,0,0,1-.824-1.336,5.013,5.013,0,0,1-.292-1.76,4.989,4.989,0,0,1,.292-1.752A3.735,3.735,0,0,1,145.76,8.8a3.629,3.629,0,0,1,1.284-.84A4.53,4.53,0,0,1,148.716,7.664Zm0,6.936a1.738,1.738,0,0,0,1.516-.688,3.45,3.45,0,0,0,.492-2.016,3.489,3.489,0,0,0-.492-2.024,1.73,1.73,0,0,0-1.516-.7,1.765,1.765,0,0,0-1.54.7,3.449,3.449,0,0,0-.5,2.02,3.41,3.41,0,0,0,.5,2.012A1.773,1.773,0,0,0,148.716,14.6Zm10.568-5.208a.527.527,0,0,1-.168.18.435.435,0,0,1-.224.052.706.706,0,0,1-.308-.08q-.164-.08-.38-.18a3.48,3.48,0,0,0-.492-.18,2.356,2.356,0,0,0-.652-.08,1.5,1.5,0,0,0-.916.248.772.772,0,0,0-.332.648.618.618,0,0,0,.172.444,1.547,1.547,0,0,0,.456.316,4.462,4.462,0,0,0,.644.244q.36.108.732.236t.732.292a2.566,2.566,0,0,1,.644.416,1.832,1.832,0,0,1,.628,1.452,2.769,2.769,0,0,1-.212,1.092,2.359,2.359,0,0,1-.628.864,2.962,2.962,0,0,1-1.028.568,4.818,4.818,0,0,1-2.24.128,4.887,4.887,0,0,1-.776-.212,4.3,4.3,0,0,1-.688-.32,3.34,3.34,0,0,1-.556-.4l.456-.752a.645.645,0,0,1,.208-.208.583.583,0,0,1,.3-.072.639.639,0,0,1,.348.1q.164.1.38.224a3.4,3.4,0,0,0,.508.224,2.235,2.235,0,0,0,.74.1,1.92,1.92,0,0,0,.6-.084,1.278,1.278,0,0,0,.416-.22.826.826,0,0,0,.24-.316.947.947,0,0,0,.076-.372.664.664,0,0,0-.172-.472,1.506,1.506,0,0,0-.456-.32,4.405,4.405,0,0,0-.648-.244q-.364-.108-.744-.236a6.882,6.882,0,0,1-.744-.3,2.536,2.536,0,0,1-.648-.436,1.973,1.973,0,0,1-.456-.648,2.261,2.261,0,0,1-.172-.928,2.364,2.364,0,0,1,.2-.96,2.252,2.252,0,0,1,.588-.8,2.92,2.92,0,0,1,.968-.544,4.032,4.032,0,0,1,1.34-.2,4.1,4.1,0,0,1,1.544.28,3.487,3.487,0,0,1,1.16.736Zm4,4.48a1.945,1.945,0,0,0,.732.576,2.179,2.179,0,0,0,.86.168,1.888,1.888,0,0,0,.808-.168,1.583,1.583,0,0,0,.612-.512,2.533,2.533,0,0,0,.388-.868,4.96,4.96,0,0,0,.136-1.236,5.486,5.486,0,0,0-.116-1.22,2.357,2.357,0,0,0-.332-.812,1.312,1.312,0,0,0-.524-.456,1.634,1.634,0,0,0-.7-.144,2,2,0,0,0-1.048.26,3.181,3.181,0,0,0-.816.732Zm-.1-4.96a4.281,4.281,0,0,1,1.144-.92,3.073,3.073,0,0,1,1.5-.352,2.691,2.691,0,0,1,1.228.28,2.756,2.756,0,0,1,.96.812,3.9,3.9,0,0,1,.624,1.312,6.6,6.6,0,0,1,.22,1.788,5.623,5.623,0,0,1-.248,1.7,4.17,4.17,0,0,1-.708,1.36,3.271,3.271,0,0,1-1.112.9,3.236,3.236,0,0,1-1.46.324,2.942,2.942,0,0,1-1.176-.212,2.873,2.873,0,0,1-.872-.588v3.36h-1.976V7.792h1.208a.485.485,0,0,1,.5.36Zm9.264-1.12V16H170.46V7.792Zm.272-2.392a1.126,1.126,0,0,1-.1.48,1.3,1.3,0,0,1-.68.66,1.24,1.24,0,0,1-.5.1,1.192,1.192,0,0,1-.484-.1,1.282,1.282,0,0,1-.4-.268,1.3,1.3,0,0,1-.268-.392,1.164,1.164,0,0,1-.1-.48,1.24,1.24,0,0,1,.1-.5,1.252,1.252,0,0,1,.664-.668,1.192,1.192,0,0,1,.484-.1,1.24,1.24,0,0,1,.5.1,1.319,1.319,0,0,1,.4.268,1.29,1.29,0,0,1,.276.4A1.2,1.2,0,0,1,172.716,5.4Zm4.48,10.728a2.156,2.156,0,0,1-1.644-.6,2.328,2.328,0,0,1-.572-1.668V9.272h-.84a.385.385,0,0,1-.272-.1.406.406,0,0,1-.112-.312V8.072l1.32-.216.416-2.24a.439.439,0,0,1,.152-.248.452.452,0,0,1,.288-.088h1.024V7.864h2.192V9.272h-2.192V13.72a.884.884,0,0,0,.188.6.648.648,0,0,0,.516.216.93.93,0,0,0,.308-.044,1.694,1.694,0,0,0,.216-.092q.092-.048.164-.092a.274.274,0,0,1,.144-.044.226.226,0,0,1,.144.044.667.667,0,0,1,.12.132l.592.96a2.991,2.991,0,0,1-.992.544A3.692,3.692,0,0,1,177.2,16.128Zm7.552-3.632a10.9,10.9,0,0,0-1.44.148,3.839,3.839,0,0,0-.936.276,1.231,1.231,0,0,0-.5.392.97.97,0,0,0,.156,1.232,1.335,1.335,0,0,0,.8.224,2.345,2.345,0,0,0,1.052-.22,3.124,3.124,0,0,0,.868-.668Zm-4.528-3.56a4.87,4.87,0,0,1,3.408-1.3,3.33,3.33,0,0,1,1.288.236,2.721,2.721,0,0,1,.96.656,2.807,2.807,0,0,1,.6,1,3.858,3.858,0,0,1,.2,1.28V16h-.9a.906.906,0,0,1-.432-.084.582.582,0,0,1-.24-.34l-.176-.592a7.141,7.141,0,0,1-.608.492,3.579,3.579,0,0,1-.616.356,3.31,3.31,0,0,1-.684.22,3.941,3.941,0,0,1-.8.076,3.152,3.152,0,0,1-.96-.14,2.109,2.109,0,0,1-.76-.42,1.886,1.886,0,0,1-.5-.7,2.469,2.469,0,0,1-.176-.968,1.927,1.927,0,0,1,.1-.62,1.812,1.812,0,0,1,.34-.588,2.831,2.831,0,0,1,.612-.528,3.977,3.977,0,0,1,.924-.432,7.983,7.983,0,0,1,1.276-.3,12.746,12.746,0,0,1,1.664-.14v-.48A1.8,1.8,0,0,0,184.4,9.6a1.288,1.288,0,0,0-1.016-.4,2.412,2.412,0,0,0-.8.112,3.276,3.276,0,0,0-.556.252l-.436.252a.863.863,0,0,1-.436.112.57.57,0,0,1-.352-.108.9.9,0,0,1-.232-.252Zm10.312-4.824V16h-1.976V4.112Zm6.312,8.384a10.9,10.9,0,0,0-1.44.148,3.839,3.839,0,0,0-.936.276,1.231,1.231,0,0,0-.5.392.97.97,0,0,0,.156,1.232,1.335,1.335,0,0,0,.8.224,2.345,2.345,0,0,0,1.052-.22,3.124,3.124,0,0,0,.868-.668Zm-4.528-3.56a4.87,4.87,0,0,1,3.408-1.3,3.33,3.33,0,0,1,1.288.236,2.721,2.721,0,0,1,.96.656,2.807,2.807,0,0,1,.6,1,3.858,3.858,0,0,1,.2,1.28V16h-.9a.906.906,0,0,1-.432-.084.582.582,0,0,1-.24-.34l-.176-.592a7.141,7.141,0,0,1-.608.492,3.579,3.579,0,0,1-.616.356,3.31,3.31,0,0,1-.684.22,3.941,3.941,0,0,1-.8.076,3.152,3.152,0,0,1-.96-.14,2.109,2.109,0,0,1-.76-.42,1.886,1.886,0,0,1-.5-.7,2.469,2.469,0,0,1-.176-.968,1.927,1.927,0,0,1,.1-.62,1.812,1.812,0,0,1,.34-.588,2.831,2.831,0,0,1,.612-.528,3.977,3.977,0,0,1,.924-.432,7.983,7.983,0,0,1,1.276-.3,12.746,12.746,0,0,1,1.664-.14v-.48a1.8,1.8,0,0,0-.352-1.22,1.288,1.288,0,0,0-1.016-.4,2.412,2.412,0,0,0-.8.112,3.276,3.276,0,0,0-.556.252l-.436.252a.863.863,0,0,1-.436.112.57.57,0,0,1-.352-.108.9.9,0,0,1-.232-.252Zm10.176.28A3.539,3.539,0,0,1,203.4,8.06a1.944,1.944,0,0,1,1.248-.42,1.526,1.526,0,0,1,.912.248l-.128,1.48a.382.382,0,0,1-.116.2.32.32,0,0,1-.2.06,2.331,2.331,0,0,1-.356-.04,2.751,2.751,0,0,0-.46-.04,1.656,1.656,0,0,0-.584.1,1.469,1.469,0,0,0-.46.276,1.881,1.881,0,0,0-.36.436,4.254,4.254,0,0,0-.292.584V16h-1.976V7.792h1.16a.639.639,0,0,1,.424.108.635.635,0,0,1,.16.388Zm6.152-1.424V16H206.66V7.792Zm.272-2.392a1.126,1.126,0,0,1-.1.48,1.3,1.3,0,0,1-.68.66,1.24,1.24,0,0,1-.5.1,1.192,1.192,0,0,1-.484-.1,1.282,1.282,0,0,1-.4-.268,1.3,1.3,0,0,1-.268-.392,1.164,1.164,0,0,1-.1-.48,1.24,1.24,0,0,1,.1-.5,1.252,1.252,0,0,1,.664-.668,1.192,1.192,0,0,1,.484-.1,1.24,1.24,0,0,1,.5.1,1.319,1.319,0,0,1,.4.268,1.29,1.29,0,0,1,.276.4A1.2,1.2,0,0,1,208.916,5.4ZM215,12.5a10.9,10.9,0,0,0-1.44.148,3.839,3.839,0,0,0-.936.276,1.231,1.231,0,0,0-.5.392.97.97,0,0,0,.156,1.232,1.335,1.335,0,0,0,.8.224,2.345,2.345,0,0,0,1.052-.22A3.124,3.124,0,0,0,215,13.88Zm-4.528-3.56a4.87,4.87,0,0,1,3.408-1.3,3.33,3.33,0,0,1,1.288.236,2.721,2.721,0,0,1,.96.656,2.807,2.807,0,0,1,.6,1,3.858,3.858,0,0,1,.2,1.28V16h-.9a.906.906,0,0,1-.432-.084.582.582,0,0,1-.24-.34l-.176-.592a7.141,7.141,0,0,1-.608.492,3.579,3.579,0,0,1-.616.356,3.31,3.31,0,0,1-.684.22,3.941,3.941,0,0,1-.8.076,3.152,3.152,0,0,1-.96-.14,2.109,2.109,0,0,1-.76-.42,1.886,1.886,0,0,1-.5-.7,2.469,2.469,0,0,1-.176-.968,1.927,1.927,0,0,1,.1-.62,1.812,1.812,0,0,1,.34-.588,2.831,2.831,0,0,1,.612-.528,3.977,3.977,0,0,1,.924-.432,7.983,7.983,0,0,1,1.276-.3A12.746,12.746,0,0,1,215,11.3v-.48a1.8,1.8,0,0,0-.352-1.22,1.288,1.288,0,0,0-1.016-.4,2.412,2.412,0,0,0-.8.112,3.276,3.276,0,0,0-.556.252l-.436.252a.863.863,0,0,1-.436.112.57.57,0,0,1-.352-.108.9.9,0,0,1-.232-.252Z" transform="translate(1023.94 3896.756)" fill="#12263f"/>
        <g id="right_8841151" transform="translate(1193.463 3794.411)">
          <path id="Trazado_939013" data-name="Trazado 939013" d="M222.326,151.648,189.3,118.618a6.367,6.367,0,0,0-10.869,4.5v8.64l-13.143-13.142a6.367,6.367,0,0,0-10.87,4.5v10.6h-939.7a2.122,2.122,0,0,0-2.122,2.122,2.122,2.122,0,0,0,2.122,2.122h941.82a2.122,2.122,0,0,0,2.122-2.122V123.121a2.123,2.123,0,0,1,3.624-1.5l33.031,33.029a2.125,2.125,0,0,1,0,3L162.282,190.68a2.123,2.123,0,0,1-3.623-1.5V176.453a2.122,2.122,0,0,0-2.122-2.122H-758.443a2.122,2.122,0,0,0-2.122,2.122c0,1.172,2.122,2.122,2.122,2.122H154.414v10.6a6.269,6.269,0,0,0,3.931,5.883,6.458,6.458,0,0,0,2.477.5,6.279,6.279,0,0,0,4.462-1.881l13.143-13.142v8.64a6.269,6.269,0,0,0,3.931,5.883,6.459,6.459,0,0,0,2.477.5,6.28,6.28,0,0,0,4.462-1.881l33.031-33.029a6.366,6.366,0,0,0,0-9Zm-3,6-33.03,33.029a2.123,2.123,0,0,1-3.624-1.5V176.294l15.643-15.642a6.375,6.375,0,0,0,0-9l-15.643-15.642V123.121a2.123,2.123,0,0,1,3.624-1.5l33.031,33.029a2.123,2.123,0,0,1,0,3Z" transform="translate(-79.298 0)" fill="#48b994"/>
          <path id="Trazado_939014" data-name="Trazado 939014" d="M51.77,217.371H6.383a2.122,2.122,0,0,1-1.5-3.623L17.94,200.691a2.122,2.122,0,0,0,0-3L4.882,184.632a2.122,2.122,0,0,1,1.5-3.623H24.929a2.122,2.122,0,1,0,0-4.245H6.383a6.367,6.367,0,0,0-4.5,10.869L13.438,199.19,1.881,210.747a6.367,6.367,0,0,0,4.5,10.869H51.77a2.122,2.122,0,1,0,0-4.245Z" transform="translate(-900 -43.04)" fill="#6bf2c6"/>
        </g>
      </g>
      <g id="Grupo_1114332" data-name="Grupo 1114332" transform="translate(-368.06 1930.964)">
        <circle id="Elipse_1128" data-name="Elipse 1128" cx="9.5" cy="9.5" r="9.5" transform="translate(833 2011)" fill="#fff"/>
        <path id="Elipse_1128_-_Contorno" data-name="Elipse 1128 - Contorno" d="M9.5,2A7.5,7.5,0,1,0,17,9.5,7.508,7.508,0,0,0,9.5,2m0-2A9.5,9.5,0,1,1,0,9.5,9.5,9.5,0,0,1,9.5,0Z" transform="translate(833 2011)" fill="#48b994"/>
        <circle id="Elipse_1133" data-name="Elipse 1133" cx="5.5" cy="5.5" r="5.5" transform="translate(837 2015)" fill="#48b994"/>
      </g>
      <g id="Grupo_1142387" data-name="Grupo 1142387" transform="translate(-55.06 1930.964)">
        <circle id="Elipse_1128-2" data-name="Elipse 1128" cx="9.5" cy="9.5" r="9.5" transform="translate(833 2011)" fill="#fff"/>
        <path id="Elipse_1128_-_Contorno-2" data-name="Elipse 1128 - Contorno" d="M9.5,2A7.5,7.5,0,1,0,17,9.5,7.508,7.508,0,0,0,9.5,2m0-2A9.5,9.5,0,1,1,0,9.5,9.5,9.5,0,0,1,9.5,0Z" transform="translate(833 2011)" fill="#48b994"/>
        <circle id="Elipse_1133-2" data-name="Elipse 1133" cx="5.5" cy="5.5" r="5.5" transform="translate(837 2015)" fill="#63d8b1"/>
      </g>
      <g id="Grupo_1142388" data-name="Grupo 1142388" transform="translate(291.94 1930.964)">
        <circle id="Elipse_1128-3" data-name="Elipse 1128" cx="9.5" cy="9.5" r="9.5" transform="translate(833 2011)" fill="#fff"/>
        <path id="Elipse_1128_-_Contorno-3" data-name="Elipse 1128 - Contorno" d="M9.5,2A7.5,7.5,0,1,0,17,9.5,7.508,7.508,0,0,0,9.5,2m0-2A9.5,9.5,0,1,1,0,9.5,9.5,9.5,0,0,1,9.5,0Z" transform="translate(833 2011)" fill="#48b994"/>
        <circle id="Elipse_1133-3" data-name="Elipse 1133" cx="5.5" cy="5.5" r="5.5" transform="translate(837 2015)" fill="#88d1b9"/>
      </g>
    </g>
  </g>
</svg>
