<svg xmlns="http://www.w3.org/2000/svg" xmlns:xlink="http://www.w3.org/1999/xlink" width="1600" height="2500" viewBox="0 0 1600 2500">
  <defs>
    <clipPath id="clip-path">
      <rect id="Rectángulo_417382" data-name="Rectángulo 417382" width="1600" height="2500" transform="translate(0 6873)" fill="none"/>
    </clipPath>
    <clipPath id="clip-path-2">
      <rect id="Rectángulo_394179" data-name="Rectángulo 394179" width="1600" height="780" transform="translate(0 1346.417)" fill="#12263f" opacity="0.67"/>
    </clipPath>
    <clipPath id="clip-path-3">
      <rect id="Rectángulo_394179-2" data-name="Rectángulo 394179" width="1600" height="780" transform="translate(0 0.499)" fill="#12263f" opacity="0.67"/>
    </clipPath>
  </defs>
  <g id="Enmascarar_grupo_1079220" data-name="Enmascarar grupo 1079220" transform="translate(0 -6873)" clip-path="url(#clip-path)">
    <path id="Trazado_863566" data-name="Trazado 863566" d="M.42,22.651a5.076,5.076,0,0,0,5.2,5.195l11.281-.2-.2,11.274a5.077,5.077,0,0,0,5.2,5.195,5.524,5.524,0,0,0,5.383-5.38l.2-11.274,11.278-.2a5.523,5.523,0,0,0,5.383-5.38,5.076,5.076,0,0,0-5.2-5.195l-11.278.2.2-11.274A5.077,5.077,0,0,0,22.664.42,5.523,5.523,0,0,0,17.281,5.8l-.2,11.274-11.281.2A5.523,5.523,0,0,0,.42,22.651Zm17.515-3.83a.92.92,0,0,0,.9-.9l.212-12.155a3.682,3.682,0,0,1,3.588-3.587A3.384,3.384,0,0,1,26.1,5.646L25.886,17.8a.845.845,0,0,0,.867.866l12.16-.212a3.384,3.384,0,0,1,3.466,3.463A3.682,3.682,0,0,1,38.789,25.5l-12.16.212a.92.92,0,0,0-.9.9L25.52,38.769a3.682,3.682,0,0,1-3.589,3.587,3.384,3.384,0,0,1-3.465-3.463l.212-12.155a.845.845,0,0,0-.867-.866l-12.163.212A3.384,3.384,0,0,1,2.183,22.62a3.682,3.682,0,0,1,3.589-3.587Z" transform="translate(74.497 8175.304) rotate(45)" fill="#bad1ff" fill-rule="evenodd"/>
    <g id="Grupo_1090646" data-name="Grupo 1090646" transform="translate(1456.221 8118.195)">
      <g id="Grupo_1073147" data-name="Grupo 1073147" transform="translate(0 34.016)">
        <path id="Trazado_773575" data-name="Trazado 773575" d="M495.353,62.724c-.32.036-.678.055-1,.091a6.21,6.21,0,0,0,2.412.837,44.735,44.735,0,0,1-7.689-.819,21.566,21.566,0,0,1-6.219-2.075,50.482,50.482,0,0,1-11.515-7.516c-2.563-.837-4.485-2.475-4.3-3.658s2.412-1.456,4.976-.619a11.07,11.07,0,0,0,1.753.2,55.966,55.966,0,0,1,14.172,1.056c-1.036-.036-2.13-.055-3.166-.091.754.127,1.489.255,2.243.419q.566.109,1.131.273c.339.091.867.273,1,.291a1.434,1.434,0,0,1-.6.473c1.244-.4,4.353.218,7.256,1.274a30.453,30.453,0,0,1,4.391,2c.735.4,1.282.764,2.017,1.238a17.809,17.809,0,0,1,1.866,1.4c.264.237.509.473.716.692l.773.746a4.714,4.714,0,0,1,.961,1.347,1.254,1.254,0,0,1-.6,1.784,4.694,4.694,0,0,1-1.432.437c-.584.091-1.338.109-1.885.218a18.121,18.121,0,0,1-2.092.109c-.735-.018-1.527-.036-2.356-.055,0,0-2.884-.109-2.827-.073Z" transform="translate(-219.125 36.531)" fill="#d5e3ff"/>
        <path id="Trazado_773576" data-name="Trazado 773576" d="M477.508,51.768c1.131-.055,2.808.018,4.335.036,1.659.036,3.3.073,4.938.127l.735-.2-.735,1.656V53.26a23.115,23.115,0,0,0-4.9-3.13c-1.64-.819-3.392-1.674-5.07-2.493l-1.338-.783a2.03,2.03,0,0,1-.942-1.383c-.038-.928,1.489-1.238,3.392-.673l1.093.328a6.482,6.482,0,0,0,.81.164,21.9,21.9,0,0,1,4.014.6c.829.182,1.677.4,2.525.637.886.255,1.772.546,2.62.855a31.7,31.7,0,0,1,5.126,2.384,18.115,18.115,0,0,1,4.316,3.421c.132.146.151.255.264.4a1.14,1.14,0,0,1,.207.4.5.5,0,0,1-.32.528,3.24,3.24,0,0,0-1.225.837c-.075.6-1.036.819-2.507.71-.358-.018-.773-.073-1.169-.127a7.84,7.84,0,0,1-1.074-.127,18.949,18.949,0,0,1-2.412-.546c-3.166-.874-5.3-2.4-5.164-3.622-.49-.055-1.018-.109-1.508-.164l.98.728c-.49-1.219-2.978-2.166-4.486-3.167-.188-.055-1.866-.855-1.941-.892.056.018,1.979-2.311,1.979-2.311l.415.328c.245.164.6.364.584.364-.132.091-.4.2-.377.2a60.622,60.622,0,0,0,7.878,4.35l4.165,2.348c1.131.928.716,1.62-.848,1.62,0,0-.565-.036-1.15-.055h-1.055c.339-.018.641-.055.98-.073-2.205-.364-4.467-.746-6.709-1.128-2.092-.328-4.2-.655-5.937-.819a1.358,1.358,0,0,1-1.187-.637c-.113-.309.188-.564.7-.546Z" transform="translate(-212.494 51.308)" fill="#d5e3ff"/>
        <g id="Grupo_1073146" data-name="Grupo 1073146" transform="translate(0 0)">
          <path id="Trazado_773577" data-name="Trazado 773577" d="M483.459,43.88c.415.018.829.055,1.282.109a6.309,6.309,0,0,1,1.621.473c.283.237.433.364.509.437a16.654,16.654,0,0,0-1.941-.2c-1.206-.036-1.658-.473-1.47-.819Z" transform="translate(-204.631 63.655)" fill="#d5e3ff"/>
          <path id="Trazado_773578" data-name="Trazado 773578" d="M485.25,43.81c.509.073.867.109.867.109-.226,0-.433.018-.622.036a.626.626,0,0,0-.151-.073l-.094-.073Z" transform="translate(-203.01 64.726)" fill="#d5e3ff"/>
          <path id="Trazado_773579" data-name="Trazado 773579" d="M414.853,93.188q-9.159-2.7-18.3-5.533l-18.111-5.7c-.4-.127-.7-.364-.66-.528.038-.146.4-.182.773-.055l18.093,5.678q9.131,2.812,18.281,5.514c.415.127.7.364.7.546-.038.164-.377.218-.754.109Z" transform="translate(-298.085 -52.827)" fill="#d5e3ff"/>
          <path id="Trazado_773580" data-name="Trazado 773580" d="M347.646,90.183c.226.237.151.4-.189.4a1.659,1.659,0,0,1-.961-.4c-.189-.2-.094-.4.188-.382a1.48,1.48,0,0,1,.942.4Z" transform="translate(-325.846 -65.601)" fill="#d5e3ff"/>
          <path id="Trazado_773581" data-name="Trazado 773581" d="M354.56,62.764a31.492,31.492,0,0,1,4.3,2.712,2,2,0,0,0,.792.291c-.207.218.019.582.584.91,5.5,3.294,11.383,6.515,17.433,9.373,6.05,2.876,12.25,5.66,18.375,8.5a1.413,1.413,0,0,0,.3.8,7.609,7.609,0,0,0,4.127,2.421l1.432.309c5.692,1.565,11.364,3.112,17.037,4.677A18.689,18.689,0,0,0,422.6,94.65c4.448,2.457,8.933,4.859,13.569,7.134-.377.073-.641.218-.716.455-.113.6.848,1.4,2.186,1.838l1.979.728-5.861-1.529a3.424,3.424,0,0,0-.792-.164q-3.138-1.037-6.332-2.239c-9.235-3.476-18.206-7.316-26.856-11.32-8.669-4.022-17.113-8.408-25.443-12.74a1.756,1.756,0,0,0-1.018-.309c-.226.073-.264.255.038.455,9.989,6.716,18.319,14.014,30.173,20.129q10.6,5.542,21.165,10.738c7.049,3.476,14.229,6.843,21.353,10.228,7.784,2.785,15.209,5.751,22.333,9.063,7.162,3.276,14.418,6.57,21.711,10.3,5.013,2.475,9.819,4.786,14.889,7.152q7.915,3.658,15.812,7.134c10.592,4.6,20.882,9.282,32.209,13.358,8.2,3.567,16.773,4.077,19.092,1.183,1.376-1.765.226-4.35-2.676-6.9l2.035.71,3.336.783a17.987,17.987,0,0,0,8.066.328l2.733-.564a24.643,24.643,0,0,1,3.223-1c1.3-.291,2.808-.491,3.92-.855a23.3,23.3,0,0,0,6.182-2.493l-.226-1.219.66-.146c2.073-.255,3.656-.91,4.391-1.856l.226-1.329a8.389,8.389,0,0,0-1.546-4.95,2.21,2.21,0,0,0-.038-1.729c1.7-.946,2.752-2.148,2.167-3.949.9-.146.942-.746.113-1.347a4.314,4.314,0,0,0-1.055-.51h0a9.232,9.232,0,0,1,1.395-.473c.829.109,1.3.164,1.3.164l4.146.746a14.264,14.264,0,0,0,3.129-.164c2.978-1.474,3.129-1.383,3.129-2.493a5.531,5.531,0,0,0-.339-.455c1.018.218,1.583.328,1.941.4.584.218.886.309,1.338.473,1,.291,1.715.455,1.715.455.434-.4.434-.4,1.112-.237a.515.515,0,0,0,.377-.273c-1.508-1.583-1.583-1.565-1.527-1.765a10.937,10.937,0,0,0-.98-.837c-1.508-.837-2.111-1.165-2.356-1.31-.848.073-1.47.127-1.941.164-.4.091-.66.146-.829.182-.339.073-.358.073-.358.073l-.32-.637-.754.455.509-.473L613,133.178l1.489-.073c-1.357-.328-2.035-.491-2.507-.6a12.176,12.176,0,0,1-1.187-.346,10.225,10.225,0,0,1-1.96-.673,1.472,1.472,0,0,0,.188-.291c-2.62-.51-2.582-.491-5.051-.928a4.514,4.514,0,0,0-.66.237,1.706,1.706,0,0,0-1.018-.51l-1.206-.237-.17-.146v-.036c-.283-.2-.49-.346-.7-.51-.132-.109-.151-.109-.151-.109h0c-.6-.419-1.451-1.037-3.75-2.657a20.332,20.332,0,0,0-2.054-.455c.226,0,.452-.036.66-.036.434-.055.283-.673.49-.637q2.007.3,4.014.71l1.018.218.773.073c.528.055.961.109,1.7.237,2.582.4,5.6.965,8.707,1.565,1.112.4,2.262.419,2.563.055.283-.382-.4-1-1.545-1.4a89,89,0,0,0-8.575-4.095c-1.168-.51-2.356-1.037-3.543-1.547-1.451-.619-2.921-1.219-4.41-1.765A100.66,100.66,0,0,0,578,114.432q-4.467-1.256-8.99-2.548l.528-.091-2.412-.455-.245-.073,2.092-.273,1.3.182c6.9,2.129,13.569,3,20.392,4.513,3.675.819,6.992,1.056,10.5,1.638.867.273,1.564.164,1.6-.255.038-.4-.66-.946-1.508-1.2-10.7-4.732-23.351-8.772-33.453-8.972a23.231,23.231,0,0,0-5.9-1.383h-.094c.528-.109,1.036-.182,1.564-.255-1.583-.437-2.657-.146-4.127-.455l.942-.8c-7.689-2.439-15.586-6.06-23.125-7.462-.283-.091-.565-.164-.829-.237a46.238,46.238,0,0,0-8.82-5.423c1.263.382,2.469.764,3.732,1.165a46.251,46.251,0,0,0-7.765-4.04c-7.859-3.112-17.245-5.278-22.484-4.149l-22.5-9.081q-11.223-4.313-22.371-8.827a1.989,1.989,0,0,0-1.79-.073c-.188.273.207.746.961,1.056,5.2,2.439,10.5,4.8,15.812,7.1l8.029,3.385,8.085,3.512c-9.386-3.057-18.79-5.678-28.232-8.954l-3.562-1.42a22.591,22.591,0,0,0-3.6-1.056c-11.968-4.113-23.37-7.862-35.149-12.812-10.139-4.2-18.677-8.172-28.477-12.721-6.785-3.294-13.155-6.534-19.619-9.555-3.26-1.474-6.389-3.076-9.593-4.568-3.2-1.511-6.464-2.967-9.838-4.368-1.753-.837-3.656-.965-4.222-.291s.415,1.911,2.167,2.748c26.932,14.378,54.919,27.354,86.336,37.727,3.392,1.128,6.747,2.22,10.064,3.33a1.04,1.04,0,0,0-.207.291,1.551,1.551,0,0,0,.415,1.456c-3.788-1.2-7.652-2.33-11.534-3.421a285.586,285.586,0,0,0-31.643-12.539c-7.708-2.421-15.04-3.822-22.3-5.678-8.594-3.858-17.188-7.68-25.65-11.811a1.119,1.119,0,0,0-.9-.182c-.189.091-.075.328.264.528,2.789,1.729,5.635,3.4,8.537,5.059,2.959,1.583,5.974,3.112,8.99,4.641-1.206.109-2.054.51-2.262,1.219-.226.746.3,1.674,1.3,2.584l-4.353-1.6c-.9-.309-1.715-.309-1.847.055-.151.4.452.928,1.3,1.256q8.877,3.276,17.716,6.552,10.46,4.422,21.014,8.663a4.881,4.881,0,0,0-2.714.983h0c-1.112-.4-2.205-.819-3.3-1.219q-7.294-3.467-14.738-6.77c-4.919-2.275-9.876-4.532-14.87-6.716-2.507-1.074-5.013-2.148-7.539-3.2-2.507-1.092-4.994-2.2-7.5-3.294q-7.52-3.276-15.209-6.3c-.4-.164-.792-.182-.867,0-.075.164.17.419.528.564q9.273,3.658,18.338,7.662h-.038c-.283,0-.415.164-.189.382a1.676,1.676,0,0,0,.961.4c.339,0,.377-.182.188-.382,5.635,2.475,11.346,4.786,16.905,7.334q8.368,3.795,16.679,7.589l-7.934-2.948L373.068,57.1c-5.258-2-10.535-3.949-15.869-5.787-1.037-.673-2.092-1.347-3.147-2.02a1.319,1.319,0,0,0-.942-.146c-.151.091,0,.364.32.528l.886.546c-2-.746-3.807-.692-4.146.146-.264.91,1.131,2.275,3.2,3.094,5.428,2.421,10.969,4.513,16.491,6.7L371.6,61l1.64,1.092c-8.745-2.985-17.6-5.66-26.216-8.863-.716-.309-1.451-.328-1.6-.036s.32.783,1.055,1.11c7.181,3.8,14.606,7.116,22.088,10.465,7.463,3.4,15.077,6.461,22.71,9.5,4.58,3.149,9.2,6.3,13.909,9.391-.66-.218-1.338-.437-2-.637-8.443-2.912-15.906-6.716-23.219-10.483-7.331-3.767-14.474-7.917-22.427-11.356a.893.893,0,0,0-.9-.055c-.113.127.113.4.509.546,7.708,3.476,14.418,7.626,21.975,11.356,6.257,3.094,12.231,6.006,17.961,9.191-6.163-2.4-12.1-5.078-17.98-7.808-5.88-2.675-11.685-5.678-17.678-8.335a3.075,3.075,0,0,0-1.489-.382.5.5,0,0,0-.207-.328,43.76,43.76,0,0,0-4.523-2.839,1.175,1.175,0,0,0-.98-.182c-.226.073-.094.291.245.528Zm221.2,62.751c.151-.018.264-.055.377-.073-.358-.018-.754-.055-1.187-.091l-1.979.692S574.367,125.771,575.762,125.516Zm16.905,11.5h0c.641-.218,1.112-.382,1.112-.382-.452.164-.81.291-1.093.382ZM477.59,79.035a189.317,189.317,0,0,0,20.053,6.352l-4.674-2.02C487.88,81.855,482.754,80.381,477.59,79.035Zm112.4,46.39a23.192,23.192,0,0,0-5.051.71,21.184,21.184,0,0,0-3.355-1.438c-3.166-1.074-6.276-2.038-9.367-2.93.565-.291-.17-.51-.528-.692s-.716-.346-1.093-.528q4.975,1.283,10.064,2.566c3.072.764,6.332,1.765,9.31,2.311Zm21.994,9.045a2.5,2.5,0,0,0,.358-.073l-.471-.874s.038.4.094.946Zm.754,1.474c-.188-.036-.377-.055-.584-.091C612.267,136.162,612.475,136.126,612.738,135.944Zm-5.032-.6a3,3,0,0,1,.754-.182Zm-9.2,18.782-.7-3.84.886,3.749Z" transform="translate(-335.493 -24.751)" fill="#d5e3ff"/>
        </g>
      </g>
      <g id="Grupo_1073149" data-name="Grupo 1073149" transform="translate(64.072 0)">
        <path id="Trazado_773582" data-name="Trazado 773582" d="M374.24,101.956c.151,0,.32-.036.49-.055a1.95,1.95,0,0,0-1-.528c4.825,0,9.687,3.4,12.326,6.643,1.263.473,2.13,1.474,1.922,2.239s-1.413.983-2.676.51a5.875,5.875,0,0,0-.9-.091,23.268,23.268,0,0,1-7.444-.364h1.7a10.076,10.076,0,0,1-2.318-.582l.452-.273c-2.808-.091-5.918-1.856-6.954-3.931s.377-3.694,3.185-3.585h1.263Z" transform="translate(-369.49 -73.078)" fill="#d5e3ff"/>
        <path id="Trazado_773583" data-name="Trazado 773583" d="M379.8,107.716c-1.64-.164-3.242-.255-4.844-.346l-.377.127.584-1.056v.091c.867,1.474,2.827,2.785,4.674,3.895l.622.455a1.12,1.12,0,0,1,.358.855c-.075.6-.9.819-1.866.51l-1.093-.364c-2.846-.491-6.879-2.22-7.482-4.7-.132-.564.4-.983.7-1.456.226-.764,1.47-.983,2.77-.473s2.167,1.529,1.922,2.311c.245.036.49.091.716.127l-.4-.491c.075.783,1.187,1.438,1.9,2.148l1.225.746-1.508,1.365-.584-.528a1.418,1.418,0,0,0,.226-.127A32.1,32.1,0,0,0,374,107.88l-1.489-1.4c-.339-.528-.075-.983.584-1.056h.961a3.786,3.786,0,0,0-.452.036c2,.419,4.014,1.019,5.993,1.4a.92.92,0,0,1,.716.491c.056.218-.151.364-.49.309Z" transform="translate(-368.721 -81.022)" fill="#d5e3ff"/>
        <g id="Grupo_1073148" data-name="Grupo 1073148" transform="translate(2.658 0)">
          <path id="Trazado_773584" data-name="Trazado 773584" d="M372.595,109.668a2.3,2.3,0,0,1-1.112-.2,2.163,2.163,0,0,1-.113-.218c.189,0,.452-.018.7-.036.509-.036.641.218.509.455Z" transform="translate(-370.484 -85.996)" fill="#d5e3ff"/>
          <path id="Trazado_773585" data-name="Trazado 773585" d="M371.512,109.513h-.3a1.519,1.519,0,0,0,.226-.073l.038.036.019.036Z" transform="translate(-370.626 -86.258)" fill="#d5e3ff"/>
          <path id="Trazado_773586" data-name="Trazado 773586" d="M412.909,84.7q8.707,3.249,17.282,6.788c.189.073.32.218.283.328-.038.091-.226.127-.4.036-5.748-2.33-11.477-4.6-17.282-6.77-.189-.073-.32-.218-.283-.328s.207-.146.4-.073Z" transform="translate(-334.093 -23.515)" fill="#d5e3ff"/>
          <path id="Trazado_773587" data-name="Trazado 773587" d="M437.721,84.065c-.094-.146-.038-.237.132-.255a.635.635,0,0,1,.471.218.161.161,0,0,1-.132.255.568.568,0,0,1-.452-.218Z" transform="translate(-311.827 -14.384)" fill="#d5e3ff"/>
          <path id="Trazado_773588" data-name="Trazado 773588" d="M499.471,136.52a13.794,13.794,0,0,1-1.922-1.583.771.771,0,0,0-.377-.164c.132-.146.057-.364-.207-.564-4.938-3.895-10.7-7.152-16.283-10.537a1.243,1.243,0,0,0-.057-.51,2.877,2.877,0,0,0-1.828-1.492l-.7-.182c-2.714-.928-5.409-1.856-8.123-2.785a6.479,6.479,0,0,0-1.64-1.165c-2-1.529-4.014-3.021-6.125-4.422a.532.532,0,0,0,.415-.309c.132-.382-.283-.892-.9-1.147l-.923-.437,2.827.928a1.043,1.043,0,0,0,.4.091c1,.419,1.979.874,2.978,1.365a178.967,178.967,0,0,1,23.841,14.614.6.6,0,0,0,.49.164.162.162,0,0,0,.038-.291c-4.335-4.131-7.689-8.535-13-12.339-6.314-4.55-12.646-8.827-19.393-12.94-7.463-3.367-14.078-7.28-21.523-11.32-10.026-5.442-19.845-9.919-30.041-14.468-3.694-1.966-7.9-1.984-9.367-.055-.886,1.183-.565,2.784.622,4.313l-.942-.382-1.6-.382a7.31,7.31,0,0,0-4.033.055l-1.451.455c-2.149,1.11-5.013,1.565-6.954,2.876l-.057.783-.358.073a3.693,3.693,0,0,0-2.488,1.092l-.283.855a6.281,6.281,0,0,0,.132,3.221,1.847,1.847,0,0,0-.207,1.11,2.743,2.743,0,0,0-1.621,2.512c-.471.091-.565.473-.226.855a1.719,1.719,0,0,0,.452.346h0a8,8,0,0,1-.754.291c-.4-.073-.622-.127-.622-.127q-1.018-.255-1.9-.491a4.734,4.734,0,0,0-1.451.182,4.351,4.351,0,0,0-1.6,1.8,2.106,2.106,0,0,0,.075.255c-.716-.055-.773-.055-.98-.073a2.306,2.306,0,0,0-.415.109.988.988,0,0,1-.339.4.719.719,0,0,0-.132.237,1.538,1.538,0,0,1,.151.637,1.2,1.2,0,0,0,.113.273c.358.291.509.4.565.455,1.263-.491,1.282-.491,1.282-.491l.057.382.377-.309-.283.328.547-.036-.66.109a11.589,11.589,0,0,1,1.527.528,3.485,3.485,0,0,1,.829.419.606.606,0,0,0-.132.182q1.187.346,2.356.673a3.787,3.787,0,0,0,.358-.127.754.754,0,0,0,.471.364l.6.182.094.109v.036c.17.164.283.255.415.382l.075.091h0c.283.255.678.655,1.772,1.674a7.692,7.692,0,0,0,1.036.237l-.358.036c-.226.036-.207.437-.32.419a61.711,61.711,0,0,1-8.2-1.984c-.452-.237-.961-.237-1.15,0s.038.637.49.874c4.448,4.022,10.95,6.588,16.962,7.553l4.467,1.4-.283.073,1.225.237.132.036-1.112.218-.66-.073c-3.411-1.2-6.841-1.583-10.29-2.4-1.866-.437-3.581-.51-5.39-.8-.434-.146-.81-.073-.886.2-.057.255.264.582.678.746,5.22,2.766,11.553,5.1,16.811,4.968a7.476,7.476,0,0,0,2.978.655h.057l-.829.237a21.306,21.306,0,0,0,2.13.091l-.565.564c3.845,1.165,7.689,3.076,11.515,3.585.151.055.283.073.415.109a17.423,17.423,0,0,0,4.184,3.021c-.622-.182-1.225-.364-1.828-.546a16.407,16.407,0,0,0,3.619,2.129c3.656,1.529,8.2,2.257,10.95,1.347,6.917,3.258,13.89,6.57,20.712,10.155a.809.809,0,0,0,.9.018c.132-.182,0-.473-.358-.673-4.712-2.93-9.649-5.624-14.606-8.172,4.448,1.511,8.9,3.149,13.325,5.023l1.64.837a9.164,9.164,0,0,0,1.715.637c5.616,2.493,10.969,4.768,16.453,7.808,4.674,2.621,8.726,4.968,13.306,7.771,6.408,3.931,12.213,7.589,18.96,10.61.867.455,1.866.473,2.224,0,.339-.455-.075-1.219-.942-1.674-13.324-7.862-26.234-15.924-41.048-22.258-1.6-.673-3.166-1.347-4.749-2a1.1,1.1,0,0,0,.132-.182,1.076,1.076,0,0,0-.038-.928c1.79.728,3.619,1.4,5.484,2.057a93.336,93.336,0,0,0,14.795,7.662,106.76,106.76,0,0,0,10.912,3.221c4.108,2.22,8.16,4.513,12.326,6.7a.464.464,0,0,0,.471.073c.113-.073.057-.218-.094-.328-2.657-1.947-5.447-3.767-8.311-5.569a1.5,1.5,0,0,0,1.282-.855,1.728,1.728,0,0,0-.415-1.62l2.092.892c.434.182.867.146.961-.091.113-.255-.151-.582-.547-.764-2.846-1.238-5.673-2.457-8.519-3.676q-4.891-2.648-9.838-5.205a2.725,2.725,0,0,0,1.508-.673h0l1.545.728A196.741,196.741,0,0,0,506.915,150.5c.188.091.4.073.452-.036s-.057-.255-.226-.328c-3.016-1.256-5.993-2.6-8.914-4h0a.151.151,0,0,0,.132-.255.638.638,0,0,0-.471-.218c-.17,0-.207.127-.132.255-5.447-2.639-10.724-5.551-15.831-8.626,4.975,2.366,9.989,4.677,15.115,6.716l1.47,1.128a.557.557,0,0,0,.471.055c.075-.073.019-.237-.113-.328l-.415-.309c.98.382,1.922.273,2.167-.291.226-.582-.4-1.4-1.395-1.82q-3.9-1.938-7.821-3.731l-.81-.473-.735-.655c4.2,1.62,8.424,3.185,12.627,4.714.339.164.716.127.829-.055.094-.2-.094-.491-.452-.655-6.785-4-13.8-7.771-20.92-11.393-2-1.911-4-3.858-6.012-5.787l.942.382c7.916,3.549,13.494,8.972,20.92,12.9a.369.369,0,0,0,.452,0c.075-.091,0-.255-.207-.328-3.581-2-6.615-4.368-10.045-6.606-2.846-1.856-5.56-3.622-8.1-5.533,5.729,2.839,10.837,6.406,16.415,9.464a1.11,1.11,0,0,0,.716.2.245.245,0,0,0,.075.2,16.352,16.352,0,0,0,2.017,1.674.488.488,0,0,0,.49.091c.113-.055.075-.182-.075-.328ZM392.1,103.124s-.132.036-.207.055c.189,0,.377,0,.6.018l1.093-.491s-.735.2-1.489.419Zm-7.614-6.9h0c-.358.164-.622.273-.622.273Q384.234,96.336,384.488,96.227Zm54,32.049a60.3,60.3,0,0,0-9.5-3.312l2.167,1.11C433.565,126.856,436.015,127.548,438.484,128.276ZM384.7,103.543a11.328,11.328,0,0,0,2.714-.582,9.445,9.445,0,0,0,1.6.837c1.545.6,3.072,1.147,4.58,1.62-.32.2.038.328.207.437l.509.309c-1.64-.455-3.3-.91-4.994-1.383-1.527-.4-3.129-.965-4.636-1.238Zm-10.328-5.824-.189.055.094.546s.038-.255.075-.6Zm-.132-.928.245.036C374.481,96.627,374.368,96.664,374.236,96.791Zm2.28.346a2.764,2.764,0,0,1-.4.109Zm7.105-11.921-.17,2.475.056-2.421Z" transform="translate(-370.9 -75.539)" fill="#d5e3ff"/>
        </g>
      </g>
    </g>
    <g id="Grupo_1090647" data-name="Grupo 1090647" transform="translate(-175.779 7769.135)">
      <g id="Grupo_1073147-2" data-name="Grupo 1073147" transform="translate(0 0)">
        <path id="Trazado_773575-2" data-name="Trazado 773575" d="M478.364,49.408c.32-.036.678-.055,1-.091a6.21,6.21,0,0,0-2.412-.837,44.734,44.734,0,0,1,7.689.819,21.566,21.566,0,0,1,6.219,2.075,50.482,50.482,0,0,1,11.515,7.516c2.563.837,4.485,2.475,4.3,3.658s-2.412,1.456-4.976.619a11.069,11.069,0,0,0-1.753-.2,55.966,55.966,0,0,1-14.172-1.056c1.036.036,2.13.055,3.166.091-.754-.127-1.489-.255-2.243-.419q-.566-.109-1.131-.273c-.339-.091-.867-.273-1-.291a1.434,1.434,0,0,1,.6-.473c-1.244.4-4.353-.218-7.256-1.274a30.453,30.453,0,0,1-4.391-2c-.735-.4-1.282-.764-2.017-1.238a17.809,17.809,0,0,1-1.866-1.4c-.264-.237-.509-.473-.716-.692l-.773-.746a4.714,4.714,0,0,1-.961-1.347,1.254,1.254,0,0,1,.6-1.784,4.694,4.694,0,0,1,1.432-.437c.584-.091,1.338-.109,1.885-.218A18.122,18.122,0,0,1,473.2,49.3c.735.018,1.527.036,2.356.055,0,0,2.884.109,2.827.073Z" transform="translate(-467.033 -5.295)" fill="#bad1ff"/>
        <path id="Trazado_773576-2" data-name="Trazado 773576" d="M495.927,48.837c-1.131.055-2.808-.018-4.335-.036-1.659-.036-3.3-.073-4.938-.127l-.735.2.735-1.656v.127a23.115,23.115,0,0,0,4.9,3.13c1.64.819,3.392,1.674,5.07,2.493l1.338.783a2.03,2.03,0,0,1,.942,1.383c.038.928-1.489,1.238-3.392.673l-1.093-.328a6.482,6.482,0,0,0-.81-.164,21.9,21.9,0,0,1-4.014-.6c-.829-.182-1.677-.4-2.525-.637-.886-.255-1.772-.546-2.62-.855a31.7,31.7,0,0,1-5.126-2.384,18.115,18.115,0,0,1-4.316-3.421c-.132-.146-.151-.255-.264-.4a1.14,1.14,0,0,1-.207-.4.5.5,0,0,1,.32-.528,3.24,3.24,0,0,0,1.225-.837c.075-.6,1.036-.819,2.507-.71.358.018.773.073,1.169.127a7.841,7.841,0,0,1,1.074.127,18.949,18.949,0,0,1,2.412.546c3.166.874,5.3,2.4,5.164,3.622.49.055,1.018.109,1.508.164l-.98-.728c.49,1.219,2.978,2.166,4.486,3.167.188.055,1.866.855,1.941.892-.056-.018-1.979,2.311-1.979,2.311l-.415-.328c-.245-.164-.6-.364-.584-.364.132-.091.4-.2.377-.2a60.622,60.622,0,0,0-7.878-4.35l-4.165-2.348c-1.131-.928-.716-1.62.848-1.62,0,0,.565.036,1.15.055h1.055c-.339.018-.641.055-.98.073,2.205.364,4.467.746,6.709,1.128,2.092.328,4.2.655,5.937.819a1.358,1.358,0,0,1,1.187.637c.113.309-.188.564-.7.546Z" transform="translate(-473.382 -8.546)" fill="#bad1ff"/>
        <g id="Grupo_1073146-2" data-name="Grupo 1073146" transform="translate(0.211)">
          <path id="Trazado_773577-2" data-name="Trazado 773577" d="M486.829,44.9c-.415-.018-.829-.055-1.282-.109a6.309,6.309,0,0,1-1.621-.473c-.283-.237-.433-.364-.509-.437a16.656,16.656,0,0,0,1.941.2c1.206.036,1.658.473,1.47.819Z" transform="translate(-478.311 -9.066)" fill="#bad1ff"/>
          <path id="Trazado_773578-2" data-name="Trazado 773578" d="M486.117,43.956c-.509-.073-.867-.109-.867-.109.226,0,.433-.018.622-.036a.626.626,0,0,0,.151.073l.094.073Z" transform="translate(-481.009 -9.124)" fill="#bad1ff"/>
          <path id="Trazado_773579-2" data-name="Trazado 773579" d="M378.551,81.392q9.159,2.7,18.3,5.533l18.111,5.7c.4.127.7.364.66.528-.038.146-.4.182-.773.055l-18.093-5.678q-9.131-2.812-18.281-5.514c-.415-.127-.7-.364-.7-.546.038-.164.377-.218.754-.109Z" transform="translate(-207.971 21.615)" fill="#bad1ff"/>
          <path id="Trazado_773580-2" data-name="Trazado 773580" d="M346.527,90.2c-.226-.237-.151-.4.189-.4a1.659,1.659,0,0,1,.961.4c.189.2.094.4-.188.382a1.48,1.48,0,0,1-.942-.4Z" transform="translate(-80.98 28.585)" fill="#bad1ff"/>
          <path id="Trazado_773581-2" data-name="Trazado 773581" d="M603.773,130.105a31.493,31.493,0,0,1-4.3-2.712,2,2,0,0,0-.792-.291c.207-.218-.019-.582-.584-.91-5.5-3.294-11.383-6.515-17.433-9.373-6.05-2.876-12.25-5.66-18.375-8.5a1.413,1.413,0,0,0-.3-.8,7.609,7.609,0,0,0-4.127-2.421l-1.432-.309c-5.692-1.565-11.364-3.112-17.037-4.677a18.688,18.688,0,0,0-3.656-1.893c-4.448-2.457-8.933-4.859-13.569-7.134.377-.073.641-.218.716-.455.113-.6-.848-1.4-2.186-1.838l-1.979-.728,5.861,1.529a3.424,3.424,0,0,0,.792.164Q528.509,90.795,531.7,92c9.235,3.476,18.206,7.316,26.856,11.32,8.669,4.022,17.113,8.408,25.443,12.74a1.755,1.755,0,0,0,1.018.309c.226-.073.264-.255-.038-.455-9.989-6.716-18.319-14.013-30.173-20.128q-10.6-5.542-21.165-10.738c-7.049-3.476-14.229-6.843-21.353-10.228-7.784-2.784-15.209-5.751-22.333-9.063-7.162-3.276-14.418-6.57-21.711-10.3-5.013-2.475-9.819-4.786-14.889-7.152q-7.915-3.658-15.812-7.134c-10.592-4.6-20.882-9.282-32.209-13.358-8.2-3.567-16.773-4.077-19.092-1.183-1.376,1.765-.226,4.35,2.676,6.9l-2.035-.71-3.336-.783a17.987,17.987,0,0,0-8.066-.328l-2.733.564a24.644,24.644,0,0,1-3.223,1c-1.3.291-2.808.491-3.92.855a23.3,23.3,0,0,0-6.182,2.493l.226,1.219-.66.146c-2.073.255-3.656.91-4.391,1.856l-.226,1.329a8.389,8.389,0,0,0,1.546,4.95,2.21,2.21,0,0,0,.038,1.729c-1.7.946-2.752,2.148-2.167,3.949-.9.146-.942.746-.113,1.347a4.313,4.313,0,0,0,1.055.51h0a9.232,9.232,0,0,1-1.395.473c-.829-.109-1.3-.164-1.3-.164l-4.146-.746a14.263,14.263,0,0,0-3.129.164c-2.978,1.474-3.129,1.383-3.129,2.493a5.532,5.532,0,0,0,.339.455c-1.018-.218-1.583-.328-1.941-.4-.584-.218-.886-.309-1.338-.473-1-.291-1.715-.455-1.715-.455-.434.4-.434.4-1.112.237a.515.515,0,0,0-.377.273c1.508,1.583,1.583,1.565,1.527,1.765a10.939,10.939,0,0,0,.98.837c1.508.837,2.111,1.165,2.356,1.31.848-.073,1.47-.127,1.941-.164.4-.091.66-.146.829-.182.339-.073.358-.073.358-.073l.32.637.754-.455-.509.473,1.282.036-1.489.073c1.357.328,2.035.491,2.507.6a12.171,12.171,0,0,1,1.187.346,10.226,10.226,0,0,1,1.96.673,1.472,1.472,0,0,0-.188.291c2.62.51,2.582.491,5.051.928a4.517,4.517,0,0,0,.66-.237,1.706,1.706,0,0,0,1.018.51l1.206.237.17.146V63.3c.283.2.49.346.7.51.132.109.151.109.151.109h0c.6.419,1.451,1.037,3.75,2.657a20.332,20.332,0,0,0,2.054.455c-.226,0-.452.036-.66.036-.434.055-.283.673-.49.637q-2.007-.3-4.014-.71l-1.018-.218-.773-.073c-.528-.055-.961-.109-1.7-.237-2.582-.4-5.6-.965-8.707-1.565-1.112-.4-2.262-.419-2.563-.055-.283.382.4,1,1.545,1.4a89,89,0,0,0,8.575,4.095c1.168.51,2.356,1.037,3.543,1.547,1.451.619,2.921,1.219,4.41,1.765a100.66,100.66,0,0,0,18.111,4.786q4.467,1.256,8.99,2.548l-.528.091,2.412.455.245.073-2.092.273-1.3-.182c-6.9-2.129-13.569-3-20.392-4.513-3.675-.819-6.992-1.056-10.5-1.638-.867-.273-1.564-.164-1.6.255-.038.4.66.946,1.508,1.2,10.7,4.732,23.351,8.772,33.453,8.972a23.231,23.231,0,0,0,5.9,1.383h.094c-.528.109-1.036.182-1.564.255,1.583.437,2.657.146,4.127.455l-.942.8c7.689,2.439,15.586,6.06,23.125,7.462.283.091.565.164.829.237a46.239,46.239,0,0,0,8.82,5.423c-1.263-.382-2.469-.764-3.732-1.165a46.251,46.251,0,0,0,7.765,4.04c7.859,3.112,17.245,5.278,22.484,4.149l22.5,9.081q11.223,4.313,22.371,8.827a1.989,1.989,0,0,0,1.79.073c.188-.273-.207-.746-.961-1.056-5.2-2.439-10.5-4.8-15.812-7.1l-8.029-3.385-8.085-3.512c9.386,3.057,18.79,5.678,28.232,8.954l3.562,1.42a22.591,22.591,0,0,0,3.6,1.056c11.968,4.113,23.37,7.862,35.149,12.812,10.139,4.2,18.677,8.172,28.477,12.721,6.785,3.294,13.155,6.534,19.619,9.555,3.26,1.474,6.389,3.076,9.593,4.568,3.2,1.511,6.464,2.967,9.838,4.368,1.753.837,3.656.965,4.222.291s-.415-1.911-2.167-2.748c-26.932-14.378-54.919-27.354-86.336-37.727-3.392-1.128-6.747-2.22-10.064-3.33a1.039,1.039,0,0,0,.207-.291,1.551,1.551,0,0,0-.415-1.456c3.788,1.2,7.652,2.33,11.534,3.421A285.582,285.582,0,0,0,557.9,138.095c7.708,2.421,15.039,3.822,22.3,5.678,8.594,3.858,17.188,7.68,25.65,11.811a1.119,1.119,0,0,0,.9.182c.189-.091.075-.328-.264-.528-2.789-1.729-5.635-3.4-8.537-5.059-2.959-1.583-5.974-3.112-8.99-4.641,1.206-.109,2.054-.51,2.262-1.219.226-.746-.3-1.674-1.3-2.584l4.353,1.6c.9.309,1.715.309,1.847-.055.151-.4-.452-.928-1.3-1.256q-8.877-3.276-17.716-6.552-10.46-4.422-21.014-8.663a4.881,4.881,0,0,0,2.714-.983h0c1.112.4,2.205.819,3.3,1.219q7.293,3.467,14.738,6.77c4.919,2.275,9.876,4.532,14.87,6.716,2.507,1.074,5.013,2.148,7.539,3.2,2.507,1.092,4.994,2.2,7.5,3.294q7.52,3.276,15.209,6.3c.4.164.792.182.867,0,.075-.164-.17-.419-.528-.564q-9.273-3.658-18.338-7.662H604c.283,0,.415-.164.188-.382a1.676,1.676,0,0,0-.961-.4c-.339,0-.377.182-.188.382-5.635-2.475-11.346-4.786-16.905-7.334q-8.368-3.795-16.679-7.589l7.934,2.948,7.878,3.039c5.258,2,10.535,3.949,15.869,5.787,1.037.673,2.092,1.347,3.147,2.02a1.319,1.319,0,0,0,.942.146c.151-.091,0-.364-.32-.528l-.886-.546c2,.746,3.807.692,4.146-.146.264-.91-1.131-2.275-3.2-3.094-5.428-2.421-10.969-4.513-16.491-6.7l-1.734-.837-1.64-1.092c8.745,2.985,17.6,5.66,26.215,8.863.716.309,1.451.328,1.6.036s-.32-.783-1.055-1.11c-7.181-3.8-14.606-7.116-22.088-10.465-7.463-3.4-15.077-6.461-22.71-9.5-4.58-3.149-9.2-6.3-13.909-9.391.66.218,1.338.437,2,.637,8.443,2.912,15.906,6.716,23.219,10.483,7.331,3.767,14.474,7.917,22.427,11.356a.894.894,0,0,0,.9.055c.113-.127-.113-.4-.509-.546-7.708-3.476-14.418-7.626-21.975-11.356-6.257-3.094-12.231-6.006-17.961-9.191,6.163,2.4,12.1,5.078,17.98,7.808,5.88,2.675,11.685,5.678,17.678,8.335a3.075,3.075,0,0,0,1.489.382.5.5,0,0,0,.207.328,43.76,43.76,0,0,0,4.523,2.839,1.175,1.175,0,0,0,.98.182c.226-.073.094-.291-.245-.528Zm-221.2-62.751c-.151.018-.264.055-.377.073.358.018.754.055,1.187.091l1.979-.692S383.966,67.1,382.571,67.354Zm-16.905-11.5h0c-.641.218-1.112.382-1.112.382.452-.164.81-.291,1.093-.382Zm115.077,57.983a189.313,189.313,0,0,0-20.053-6.352l4.674,2.02C470.453,111.014,475.579,112.488,480.743,113.835Zm-112.4-46.39a23.192,23.192,0,0,0,5.051-.71,21.185,21.185,0,0,0,3.355,1.438c3.166,1.074,6.276,2.038,9.367,2.93-.565.291.17.51.528.692s.716.346,1.093.528q-4.975-1.283-10.064-2.566c-3.072-.764-6.332-1.765-9.31-2.311ZM346.348,58.4a2.5,2.5,0,0,0-.358.073l.471.874s-.038-.4-.094-.946Zm-.754-1.474c.188.036.377.055.584.091C346.066,56.707,345.858,56.744,345.595,56.926Zm5.032.6a3,3,0,0,1-.754.182Zm9.2-18.782.7,3.84-.886-3.749Z" transform="translate(-335.493 -24.751)" fill="#bad1ff"/>
        </g>
      </g>
      <g id="Grupo_1073149-2" data-name="Grupo 1073149" transform="translate(84.346 92.431)">
        <path id="Trazado_773582-2" data-name="Trazado 773582" d="M383.259,110.431c-.151,0-.32.036-.49.055a1.95,1.95,0,0,0,1,.528c-4.825,0-9.687-3.4-12.326-6.643-1.263-.473-2.13-1.474-1.922-2.239s1.413-.983,2.676-.51a5.874,5.874,0,0,0,.9.091,23.268,23.268,0,0,1,7.444.364h-1.7a10.075,10.075,0,0,1,2.318.582l-.452.273c2.808.091,5.918,1.856,6.954,3.931s-.377,3.694-3.185,3.585h-1.263Z" transform="translate(-248.869 -54.356)" fill="#bad1ff"/>
        <path id="Trazado_773583-2" data-name="Trazado 773583" d="M371.383,109.655c1.64.164,3.242.255,4.844.346l.377-.127-.584,1.056v-.091c-.867-1.474-2.827-2.785-4.674-3.895l-.622-.455a1.12,1.12,0,0,1-.358-.855c.075-.6.9-.819,1.866-.51l1.093.364c2.846.491,6.879,2.22,7.482,4.7.132.564-.4.983-.7,1.456-.226.764-1.47.983-2.77.473s-2.167-1.529-1.922-2.311c-.245-.036-.49-.091-.716-.127l.4.491c-.075-.783-1.187-1.438-1.9-2.148l-1.225-.746,1.508-1.365.584.528a1.418,1.418,0,0,0-.226.127,32.1,32.1,0,0,0,3.355,2.93l1.489,1.4c.339.528.075.983-.584,1.056h-.961a3.786,3.786,0,0,0,.452-.036c-2-.419-4.014-1.019-5.993-1.4a.92.92,0,0,1-.716-.491c-.056-.218.151-.364.49-.309Z" transform="translate(-243.325 -51.396)" fill="#bad1ff"/>
        <g id="Grupo_1073148-2" data-name="Grupo 1073148">
          <path id="Trazado_773584-2" data-name="Trazado 773584" d="M371.4,109.21a2.3,2.3,0,0,1,1.112.2,2.162,2.162,0,0,1,.113.218c-.189,0-.452.018-.7.036-.509.036-.641-.218-.509-.455Z" transform="translate(-237.028 -47.93)" fill="#bad1ff"/>
          <path id="Trazado_773585-2" data-name="Trazado 773585" d="M371.21,109.44h.3a1.518,1.518,0,0,0-.226.073l-.038-.036-.019-.036Z" transform="translate(-235.614 -47.742)" fill="#bad1ff"/>
          <path id="Trazado_773586-2" data-name="Trazado 773586" d="M430.078,91.846Q421.371,88.6,412.8,85.058c-.189-.073-.32-.218-.283-.328.038-.091.226-.127.4-.036,5.748,2.329,11.477,4.6,17.282,6.77.189.073.32.218.283.328s-.207.146-.4.073Z" transform="translate(-372.412 -68.075)" fill="#bad1ff"/>
          <path id="Trazado_773587-2" data-name="Trazado 773587" d="M438.309,84.028c.094.146.038.237-.132.255a.635.635,0,0,1-.471-.218.161.161,0,0,1,.132-.255.568.568,0,0,1,.452.218Z" transform="translate(-427.721 -68.757)" fill="#bad1ff"/>
          <path id="Trazado_773588-2" data-name="Trazado 773588" d="M378.811,99.51a13.8,13.8,0,0,1,1.922,1.583.771.771,0,0,0,.377.164c-.132.146-.057.364.207.564,4.938,3.895,10.7,7.152,16.283,10.537a1.243,1.243,0,0,0,.057.51,2.877,2.877,0,0,0,1.828,1.492l.7.182c2.714.928,5.409,1.856,8.123,2.784a6.479,6.479,0,0,0,1.64,1.165c2,1.529,4.014,3.021,6.125,4.422a.532.532,0,0,0-.415.309c-.132.382.283.892.9,1.147l.923.437-2.827-.928a1.042,1.042,0,0,0-.4-.091c-1-.419-1.979-.874-2.978-1.365a178.968,178.968,0,0,1-23.841-14.614.6.6,0,0,0-.49-.164.162.162,0,0,0-.038.291c4.335,4.131,7.689,8.535,13,12.339,6.314,4.55,12.646,8.827,19.393,12.94,7.463,3.367,14.078,7.28,21.523,11.32,10.026,5.442,19.845,9.919,30.041,14.468,3.694,1.966,7.9,1.984,9.367.055.886-1.183.565-2.784-.622-4.313l.942.382,1.6.382a7.31,7.31,0,0,0,4.033-.055L487.65,155c2.149-1.11,5.013-1.565,6.954-2.875l.057-.783.358-.073a3.693,3.693,0,0,0,2.488-1.092l.283-.855a6.281,6.281,0,0,0-.132-3.221,1.847,1.847,0,0,0,.207-1.11,2.743,2.743,0,0,0,1.621-2.512c.471-.091.565-.473.226-.855a1.719,1.719,0,0,0-.452-.346h0a8,8,0,0,1,.754-.291c.4.073.622.127.622.127q1.018.255,1.9.491a4.733,4.733,0,0,0,1.451-.182,4.351,4.351,0,0,0,1.6-1.8,2.106,2.106,0,0,0-.075-.255c.716.055.773.055.98.073a2.307,2.307,0,0,0,.415-.109.988.988,0,0,1,.339-.4.719.719,0,0,0,.132-.237,1.539,1.539,0,0,1-.151-.637,1.2,1.2,0,0,0-.113-.273c-.358-.291-.509-.4-.565-.455-1.263.491-1.282.491-1.282.491l-.057-.382-.377.309.283-.328-.547.036.66-.109a11.583,11.583,0,0,1-1.527-.528,3.485,3.485,0,0,1-.829-.419.606.606,0,0,0,.132-.182q-1.187-.346-2.356-.673a3.787,3.787,0,0,0-.358.127.754.754,0,0,0-.471-.364l-.6-.182-.094-.109v-.036c-.17-.164-.283-.255-.415-.382l-.075-.091h0c-.283-.255-.678-.655-1.772-1.674a7.694,7.694,0,0,0-1.036-.237l.358-.036c.226-.036.207-.437.32-.419a61.7,61.7,0,0,1,8.2,1.984c.452.237.961.237,1.15,0s-.038-.637-.49-.874c-4.448-4.022-10.95-6.588-16.962-7.553l-4.467-1.4.283-.073-1.225-.237-.132-.036,1.112-.218.66.073c3.411,1.2,6.841,1.583,10.29,2.4,1.866.437,3.581.51,5.39.8.434.146.81.073.886-.2.057-.255-.264-.582-.678-.746-5.22-2.766-11.553-5.1-16.811-4.968a7.476,7.476,0,0,0-2.978-.655h-.057l.829-.237a21.309,21.309,0,0,0-2.13-.091l.565-.564c-3.845-1.165-7.689-3.076-11.515-3.585-.151-.055-.283-.073-.415-.109a17.423,17.423,0,0,0-4.184-3.021c.622.182,1.225.364,1.828.546a16.407,16.407,0,0,0-3.619-2.129c-3.656-1.529-8.2-2.257-10.95-1.347-6.917-3.258-13.89-6.57-20.712-10.155a.809.809,0,0,0-.9-.018c-.132.182,0,.473.358.673,4.712,2.93,9.649,5.624,14.606,8.172-4.448-1.511-8.9-3.149-13.325-5.023l-1.64-.837a9.164,9.164,0,0,0-1.715-.637c-5.616-2.493-10.969-4.768-16.453-7.808C406.629,91.647,402.577,89.3,398,86.5c-6.408-3.931-12.213-7.589-18.96-10.61-.867-.455-1.866-.473-2.224,0-.339.455.075,1.219.942,1.674,13.324,7.862,26.234,15.924,41.048,22.258,1.6.673,3.166,1.347,4.749,2a1.1,1.1,0,0,0-.132.182,1.076,1.076,0,0,0,.038.928c-1.79-.728-3.619-1.4-5.484-2.057a93.335,93.335,0,0,0-14.795-7.662,106.76,106.76,0,0,0-10.912-3.221c-4.108-2.22-8.16-4.513-12.326-6.7a.464.464,0,0,0-.471-.073c-.113.073-.057.218.094.328,2.657,1.947,5.447,3.767,8.311,5.569a1.5,1.5,0,0,0-1.282.855,1.728,1.728,0,0,0,.415,1.62l-2.092-.892c-.434-.182-.867-.146-.961.091-.113.255.151.582.547.764,2.846,1.238,5.673,2.457,8.519,3.676q4.891,2.648,9.838,5.205a2.725,2.725,0,0,0-1.508.673h0l-1.545-.728a196.741,196.741,0,0,0-28.439-14.851c-.188-.091-.4-.073-.452.036s.057.255.226.328c3.016,1.256,5.993,2.6,8.914,4h0a.151.151,0,0,0-.132.255.638.638,0,0,0,.471.218c.17,0,.207-.127.132-.255,5.447,2.639,10.724,5.551,15.831,8.626-4.975-2.366-9.989-4.677-15.115-6.716l-1.47-1.128a.557.557,0,0,0-.471-.055c-.075.073-.019.237.113.328l.415.309c-.98-.382-1.922-.273-2.167.291-.226.582.4,1.4,1.395,1.82q3.9,1.938,7.821,3.731l.81.473.735.655c-4.2-1.62-8.424-3.185-12.627-4.714-.339-.164-.716-.127-.829.055-.094.2.094.491.452.655,6.785,4,13.8,7.771,20.92,11.393,2,1.911,4,3.858,6.012,5.787l-.942-.382c-7.916-3.549-13.494-8.972-20.92-12.9a.369.369,0,0,0-.452,0c-.075.091,0,.255.207.328,3.581,2,6.615,4.368,10.045,6.606,2.846,1.856,5.56,3.622,8.1,5.533-5.729-2.839-10.837-6.406-16.415-9.464a1.11,1.11,0,0,0-.716-.2.245.245,0,0,0-.075-.2,16.352,16.352,0,0,0-2.017-1.674.488.488,0,0,0-.49-.091c-.113.055-.075.182.075.328Zm107.368,33.4s.132-.036.207-.055c-.189,0-.377,0-.6-.018l-1.093.491S485.426,133.124,486.18,132.905Zm7.614,6.9h0c.358-.164.622-.273.622-.273Q494.048,139.694,493.794,139.8Zm-54-32.049a60.3,60.3,0,0,0,9.5,3.312l-2.167-1.11C444.718,109.173,442.268,108.482,439.8,107.754Zm53.788,24.733a11.328,11.328,0,0,0-2.714.582,9.447,9.447,0,0,0-1.6-.837c-1.545-.6-3.072-1.147-4.58-1.62.32-.2-.038-.328-.207-.437l-.509-.309c1.64.455,3.3.91,4.994,1.383,1.527.4,3.129.965,4.636,1.238Zm10.328,5.824.189-.055-.094-.546s-.038.255-.075.6Zm.132.928-.245-.036C503.8,139.4,503.915,139.366,504.046,139.239Zm-2.28-.346a2.765,2.765,0,0,1,.4-.109Zm-7.105,11.921.17-2.475-.056,2.42Z" transform="translate(-370.9 -75.539)" fill="#bad1ff"/>
        </g>
      </g>
    </g>
    <path id="Trazado_934076" data-name="Trazado 934076" d="M.42,22.651a5.076,5.076,0,0,0,5.2,5.195l11.281-.2-.2,11.274a5.077,5.077,0,0,0,5.2,5.195,5.524,5.524,0,0,0,5.383-5.38l.2-11.274,11.278-.2a5.523,5.523,0,0,0,5.383-5.38,5.076,5.076,0,0,0-5.2-5.195l-11.278.2.2-11.274A5.077,5.077,0,0,0,22.664.42,5.523,5.523,0,0,0,17.281,5.8l-.2,11.274-11.281.2A5.523,5.523,0,0,0,.42,22.651Zm17.515-3.83a.92.92,0,0,0,.9-.9l.212-12.155a3.682,3.682,0,0,1,3.588-3.587A3.384,3.384,0,0,1,26.1,5.646L25.886,17.8a.845.845,0,0,0,.867.866l12.16-.212a3.384,3.384,0,0,1,3.466,3.463A3.682,3.682,0,0,1,38.789,25.5l-12.16.212a.92.92,0,0,0-.9.9L25.52,38.769a3.682,3.682,0,0,1-3.589,3.587,3.384,3.384,0,0,1-3.465-3.463l.212-12.155a.845.845,0,0,0-.867-.866l-12.163.212A3.384,3.384,0,0,1,2.183,22.62a3.682,3.682,0,0,1,3.589-3.587Z" transform="translate(1529.497 7670.304) rotate(45)" fill="#bad1ff" fill-rule="evenodd"/>
    <g id="Enmascarar_grupo_1078658" data-name="Enmascarar grupo 1078658" transform="translate(0 7113.616)" clip-path="url(#clip-path-2)">
      <g id="Grupo_1079441" data-name="Grupo 1079441" transform="translate(0 -17784.082)">
        <g id="Enmascarar_grupo_1078609" data-name="Enmascarar grupo 1078609" transform="translate(0 19130)" clip-path="url(#clip-path-3)">
          <path id="Trazado_846168" data-name="Trazado 846168" d="M1607.557,52.079s-67.644,36.415-154.729,50.914c-88.59,14.5-176.755,27.385-258.3,23.886-83.049-1.971-212.324-15.529-295.916-34.086S592.667,30.185,524.121,18.079C455.576,7.5,390.545-2.6,259.515,3.119S22.4,24.318,0,40.943V737.938s98.6,27.634,163.84,37.4c63.739,9.766,245.108,12.814,400.405-15.3,127.791-23.36,312-69.133,425.744-86.348,16.511-2.5,303.5-13.986,380.919-2.9,75.911,11.086,205.795,43.243,230.8,55.335C1601.705,708.477,1607.557,52.079,1607.557,52.079Z" transform="translate(-4 -1.146)" fill="#f2f6ff" fill-rule="evenodd"/>
        </g>
        <path id="Trazado_833689" data-name="Trazado 833689" d="M0,22.231a5.387,5.387,0,0,0,5.383,5.38H16.861V39.081a5.383,5.383,0,0,0,10.766,0V27.61H39.1a5.38,5.38,0,1,0,0-10.759H27.628V5.38a5.383,5.383,0,0,0-10.766,0V16.851H5.383A5.387,5.387,0,0,0,0,22.231Zm17.759-3.586a.9.9,0,0,0,.9-.9V5.38a3.589,3.589,0,0,1,7.177,0V17.747a.9.9,0,0,0,.9.9H39.1a3.586,3.586,0,1,1,0,7.173H26.73a.9.9,0,0,0-.9.9V39.081a3.589,3.589,0,0,1-7.177,0V26.714a.9.9,0,0,0-.9-.9H5.383a3.586,3.586,0,1,1,0-7.173Z" transform="translate(1513.582 19298.389) rotate(45)" fill="#bad1ff" fill-rule="evenodd"/>
        <path id="Trazado_868824" data-name="Trazado 868824" d="M0,22.231a5.387,5.387,0,0,0,5.383,5.38H16.861V39.081a5.383,5.383,0,0,0,10.766,0V27.61H39.1a5.38,5.38,0,1,0,0-10.759H27.628V5.38a5.383,5.383,0,0,0-10.766,0V16.851H5.383A5.387,5.387,0,0,0,0,22.231Zm17.759-3.586a.9.9,0,0,0,.9-.9V5.38a3.589,3.589,0,0,1,7.177,0V17.747a.9.9,0,0,0,.9.9H39.1a3.586,3.586,0,1,1,0,7.173H26.73a.9.9,0,0,0-.9.9V39.081a3.589,3.589,0,0,1-7.177,0V26.714a.9.9,0,0,0-.9-.9H5.383a3.586,3.586,0,1,1,0-7.173Z" transform="translate(89.582 19600.389) rotate(45)" fill="#bad1ff" fill-rule="evenodd"/>
      </g>
      <g id="Grupo_1079434" data-name="Grupo 1079434" transform="translate(1434.44 1599.966)">
        <path id="Trazado_773712" data-name="Trazado 773712" d="M490.119,157.2c1.912-.5,1.573-.8.2-1.019a42.836,42.836,0,0,0-6.147-.179l-3.538,2.877s2.359-.447,4.718-.911c2.359-.447,4.771-.786,4.771-.786Z" transform="translate(-133.817 75.502)" fill="#a7f7dd"/>
        <path id="Trazado_773713" data-name="Trazado 773713" d="M478.731,158.18s-2.591.858-5.289,1.483a43.637,43.637,0,0,1-5.522.929s2.037-.054,4.021-.322c1.984-.25,3.913-.679,3.913-.679,4.378.25,4.2.8,2.43,1.519a30.538,30.538,0,0,1-6.915,1.43,25.03,25.03,0,0,0,7.094-.983c1.179-.411,1.412-.822,1.269-1.179-.286-.733-2.055-1.447-1-2.2Z" transform="translate(-143.819 77.235)" fill="#a7f7dd"/>
        <path id="Trazado_773714" data-name="Trazado 773714" d="M464.044,158.715c-2.5-2.52-3.181-3.753-3.61-3.556-.393.143-.2,1.7.733,3.145a3.19,3.19,0,0,1,1.09.518c.429.2.893.465,1.412.679.965.393,1.43.393.375-.768Z" transform="translate(-149.861 74.841)" fill="#a7f7dd"/>
        <path id="Trazado_773715" data-name="Trazado 773715" d="M339.26,100.25l-.465.5c-.161.179-.214.214-.322.322-.214.2-.411.393-.59.572-.357.34-.661.554-.8.393-.125.661-.089,1.054.2.876a3.06,3.06,0,0,0,.625-.715c.143-.2.3-.429.518-.715.25-.34.518-.751.84-1.215Z" transform="translate(-246.838 31.646)" fill="#a7f7dd"/>
        <path id="Trazado_773716" data-name="Trazado 773716" d="M337.1,101.636c.054-.25.107-.536.2-.876a6.268,6.268,0,0,0-.3.768c0,.089.072.071.107.107Z" transform="translate(-246.855 32.047)" fill="#a7f7dd"/>
        <path id="Trazado_773717" data-name="Trazado 773717" d="M460.225,194.379a58.741,58.741,0,0,1,8.631-4.432c.643-.286,1.251-.5,1.894-.751.643-.268,1.269-.5,1.841-.7,1.412-.536,2.895-1.09,4.557-1.715l4.664.375c7.541-3.27,2.895-2.68,8.077-5.5a124.875,124.875,0,0,0,13.474-3.949,102.834,102.834,0,0,1,10.221-2.966c2.252.411-2.341,1.644-3.252,2.484,2.019-.7,3.413-1.144,4.61-1.68,1.179-.447,2.109-.893,3.127-1.34a21.4,21.4,0,0,1,9.078-1.59l.143.5a21.008,21.008,0,0,1,2.144-.107l1.09-.036h.5l.25-.036,1.054-.054h.715a2.567,2.567,0,0,1,2.52,1.59,3.78,3.78,0,0,1,.143,1.68,5.168,5.168,0,0,1-.143.893c-.036.179-.143.447-.2.679a8.367,8.367,0,0,1-.268.8,99.937,99.937,0,0,1-4.682,10.025c-3.627,7.076-7.952,14.367-11.061,23.248-.393,1.09-.75,2.269-1.054,3.467-.339,1.144-.572,2.466-.822,3.717a36.222,36.222,0,0,0-.447,4.039,26.752,26.752,0,0,0,.214,4.432c.125.768.214,1.59.411,2.359.214.751.465,1.519.715,2.252a11.8,11.8,0,0,0,.947,2.216,18.621,18.621,0,0,0,1.019,1.823,23.176,23.176,0,0,0,5.915,6.594c-2.43-2.2-1.465-2.019-2.055-3.127a20.083,20.083,0,0,0,6.236,4.61,22.042,22.042,0,0,0,7.309,2,37.226,37.226,0,0,0,12.938-1.269c7.827-2.055,14.635-5.254,21.229-8.309q4.825-2.305,9.578-4.575c3.61-1.644,4.914-2.341,7.148-3.234a21.623,21.623,0,0,1,6.88-1.715,8.1,8.1,0,0,1,3.574.643,7.839,7.839,0,0,1,2.7,2.234,6.429,6.429,0,0,1,1.573,4.575,14.222,14.222,0,0,1-1.179,4.5,20.466,20.466,0,0,0,2.395-4.718,8.018,8.018,0,0,0-.357-5.843,7.782,7.782,0,0,0-3.842-4.253,11.869,11.869,0,0,0-5.986-.768,47.814,47.814,0,0,0-12.473,3.431,181.988,181.988,0,0,0-22.873,11.311c-3.413.572-7.487,2.073-11.347,2.913-3.824.876-7.505.876-8.881-.232a16.781,16.781,0,0,1-8.845-3.628,19.249,19.249,0,0,1-5-6.808,18.861,18.861,0,0,1-1.251-7.684,35.543,35.543,0,0,1,1.054-7.13c2.323-9.113,6.5-17.3,12.223-28,1.876-2.913,1.912-1.019,3.163-1.519,0,0-1.984,4.414-4.217,8.81-1.09,2.2-2.18,4.414-3,6.076-.8,1.662-1.34,2.788-1.34,2.788s1.555-2.573,3.181-5.111l3.234-5.057c-.876,2.466-3.038,6.379-4.753,9.953-1.751,3.574-2.948,6.862-2.484,7.845a87.776,87.776,0,0,1,5.736-13.134c2.377-4.646,5.093-9.471,7.255-14.51a34.927,34.927,0,0,0,2.52-7.845,11.593,11.593,0,0,0-.84-7.612,9.448,9.448,0,0,0-5.575-4.164c-.536-.143-1.054-.286-1.573-.429-.518-.125-1.054-.143-1.555-.214-.5-.054-.983-.107-1.465-.161-.482,0-.947,0-1.412.018a20.472,20.472,0,0,1,2.466.572,16.2,16.2,0,0,1,2.5.786,10.434,10.434,0,0,1,4.557,3.02,8,8,0,0,1,1.751,5.379,18.893,18.893,0,0,1-1.126,5.718c-1.537,3.038-4.539,7.9-5.164,7.13a71.422,71.422,0,0,0,2.448-7.595,13.279,13.279,0,0,0,.286-5.9,6.214,6.214,0,0,0-3.52-4.2,5.71,5.71,0,0,0-1.287-.518,6.951,6.951,0,0,0-1.322-.375l-1.34-.286-1.5-.179c-.876-.143-2.323-.2-3.538-.3-1.269-.125-2.52-.036-3.806-.072-1.269,0-2.573.143-3.86.214-1.3.107-2.609.3-3.931.465a94.929,94.929,0,0,0-16.351,4.128c-5.647,1.912-13.474,4.557-14.724,4.056,3.681-1.608.59-1.3,3.556-2.788-7.934,3.556.3,3.288-11.758,7.112l.536-3.413a9.608,9.608,0,0,1-4.021,2.734c-.858.34-1.769.643-2.752.929-.929.268-1.894.536-2.877.822-4,1.144-8.577,2.663-12.312,5.307-3.449.179,1.733-2.913,7.952-5.611-7.362,2.484-7.237,4.5-13.063,6.9l4.414-4.735c-5.075,4.95-11.222,4.217-14.975,4.539-.107.375.822.75.786,1.358,0,.3-.286.643-1.054,1.072a15.819,15.819,0,0,1-4.128,1.394c-3.645.482-1.948-.59-2.859-.768a4.589,4.589,0,0,1-2.412,1.573,13.182,13.182,0,0,1-2.752.786c-.554.089-1.144.179-1.787.25-.643.054-1.34.036-2.073.036-.518-.447.465-.751,1.59-1.054,1.108-.34,2.359-.786,2.5-1.233a35.758,35.758,0,0,1-5.129.089h.018a9.868,9.868,0,0,1,1.7-5.272c1.072-3.467.679-3.074.071-2.609-.59.536-1.34,1.215-.965-.375,2.859-4.36,4.271-5.254,5.111-5.307.84-.089,1.608.7,3.735-1.8a66.982,66.982,0,0,1-2.537,7.38c-.625,1.5-1.287,3.109-1.894,4.7-.2.751-.375,1.483-.572,2.216.036.393.054.768.054,1.144-1.519-1.626-3.02-3.27-4.36-4.7a26.563,26.563,0,0,0,7.9-1.34,35.266,35.266,0,0,1-7.863.893l4.771,5.146V189.7l.643-2.162c.679-1.555,1.376-3.109,2.109-4.628.322.554,2.806-3.252,4.217-5.575.715-1.144,1.287-2.055,1.537-2.055.143-.018.2.2.125.733a13.025,13.025,0,0,1-.679,2.788,40.021,40.021,0,0,0,3.735-12.223,30.435,30.435,0,0,0,.268-6.576l-.071-.965c-.036-.3-.2-.268-.286-.429-.232-.214-.447-.429-.679-.679-.465-.447-.929-1.054-1.412-1.608-7.237,2.126-14.617,4.271-21.837,6.683-3.556,1.161-7.094,2.305-10.275,3.252-1.215.375-2.412.733-3.61,1.09-1.036.3-2.055.59-3.056.876,2.126-.107,4.861-.554,4.575.179-7.469,2.395-6.88.822-8.542.429a11,11,0,0,0-4.682,2.448,10.513,10.513,0,0,1-3.163,2.484c-.733-.036-1.412-.071-2.073-.125-.625-.036-1.054-.107-1.537-.161-.929-.107-1.715-.25-2.43-.375a15.983,15.983,0,0,1-3.574-1.09,5.662,5.662,0,0,1-2.466-2.216,5.252,5.252,0,0,1-.107-4.324s-.5.232-1.019.465c-.5.25-1,.518-1,.518.286-1.43.679-2.395.876-3.217.232-.822.34-1.519.482-2.252a10.457,10.457,0,0,1,.786-2.412,15.718,15.718,0,0,1,2.538-3.52c.268-.071.089.572-.268,1.483-.179.447-.393.983-.625,1.537-.2.5-.268.822-.393,1.233a12.006,12.006,0,0,1,1.769-2.806,16.89,16.89,0,0,1,1.823-1.787,18.334,18.334,0,0,0,4.164-4.878l-.858,2.7-.768,2.663c2.984-4.164,7.648-10.758,7.166-7.523a67.682,67.682,0,0,1,4.467-7.237c1.8-2.68,3.9-5.522,5.951-8.953a30.927,30.927,0,0,0,2.948-6.236,14.02,14.02,0,0,0,.7-5.289,9.172,9.172,0,0,0-.3-1.841,8.148,8.148,0,0,0-.733-1.948,9.879,9.879,0,0,0-2.573-3.27,11.856,11.856,0,0,0-5.236-2.43,19.51,19.51,0,0,0-3.717-.357,29.185,29.185,0,0,0-5.682.572l.768-1.608c-3.574,1.215-9.489,2.323-15.1,3.77-.7.179-1.394.375-2.091.554l-1.019.286c-.357.089-1,.3-1.34.411-1.5.536-2.716,1.036-3.86,1.555a19.851,19.851,0,0,0-5.093,3.056l-1.072-.25-10.7,6.362c-5.254,1.787-4.289-1.036-4.485-.286-11.168,4.61-20.21,7.648-27.609,8.685-.232,1.09-2.412,2.377-5.861,3.306a22.025,22.025,0,0,1-5.736.786,8.171,8.171,0,0,1-3-.518,3.816,3.816,0,0,1-2.144-1.894,6.071,6.071,0,0,1,.125-3.431,16.161,16.161,0,0,1,1.34-3.2,28.355,28.355,0,0,1,1.769-2.931l2.019-2.716,1-1.358c.357-.482.59-.84,1.126-1.465l2.877-3.467c1.841-2.341,3.967-4.592,6.058-6.88a287.92,287.92,0,0,1,27.323-25.411c19.21-15.922,39.456-30.271,57.594-44.46a64.98,64.98,0,0,0,6.326-5.45c2.162-2.126,4.378-4.45,6.63-6.755l1.019,3.074c-1.894.357-3.842,1.858-7.148,2.234a22.7,22.7,0,0,0,2.716-.232c.7-.143,1.34-.286,1.966-.411.5-.089,1.072-.268,1.43-.286.375-.036.715-.089,1.036-.143-.608-1.8-1.2-3.61-1.715-5.164-3.663,2.823-5.432,4.861-11.383,9.042-6.63,4.039-10.2,3.9-16.44,6.612l3.77-.5c-7.863,7.094-6.469,3.324-12.33,9.471l-1.3-2.5c-1.608,2.823-8.309,6.058-11.222,7.184l-1.126,3.163c-6.058,2.948-9.828,5.146-12.509,4.932l1.573,1.054a20.766,20.766,0,0,0-4.289,2.52c-1.966,1.412-4.324,3.091-6.415,4.575-4.2,2.966-7.452,5.093-5.254,1.394-1.287,1.555-2.144,3.342-5.593,5.9l-1.626-.947c-2.234,2.2-4.664,4.45-6.719,6.29-2.037,1.876-3.788,3.234-4.789,3.467,2.252-2.609,2.591-3.949,2.913-5.289-2.52,2.216-4.414,4.021-5.826,5.486a23.9,23.9,0,0,0-2.895,3.645c-1.179,1.912-1.09,2.859-.929,3.753a4.278,4.278,0,0,1-.429,3.359c-.786,1.715-2.609,4.2-6.5,8.667l-.7-.965-2.966,5.54s-.322.25-.822.643c-.25.2-.536.429-.84.661a7.1,7.1,0,0,0-1.019.911l-3.091,3.377a26.078,26.078,0,0,1-1.948,4.878,33.433,33.433,0,0,0-2.5,5.843,27.312,27.312,0,0,0-1.5,6.7,10.694,10.694,0,0,0,1.662,7.273,12.6,12.6,0,0,0,6.362,4.253,25.78,25.78,0,0,0,8.023,1.126,42.476,42.476,0,0,0,8.631-1c1.394-.286,2.77-.661,4.056-1.019q.965-.295,1.876-.59a12.385,12.385,0,0,0,1.376-.536c5.325-1.7,12.991-1.608,22.748-5.379L340.1,138c4.253-.536,13.777-3.359,23.159-5.968,2.341-.643,4.682-1.269,6.826-1.769.518-.107,1.036-.214,1.537-.322a5.046,5.046,0,0,1,1.161-.143,1.861,1.861,0,0,0,.59-.036l.768-.071c.518-.036,1.019-.089,1.5-.125,3.931-.268,7.112-.054,8.9.661,6.111-2.323-.661-.3-.876-1.626a23.446,23.446,0,0,1,6.915-1.43,3.234,3.234,0,0,1,.733.089.5.5,0,0,1,.2.071c.036-.071-.089.447.179-.786a13.816,13.816,0,0,1,2.162-5.629c.608-.751.768-.482-.107-.322a10.987,10.987,0,0,1-4.592-.393,33.033,33.033,0,0,1-3.913-1.144c-.071-.054-.2,0-.322.054a5.026,5.026,0,0,0-1,.911c-.59,1.412-.893,2.073-.7,2.019a6.121,6.121,0,0,0,1.215-1.287c1.072-1.358,1.5-1.858,1.787-.8-.715.965-1.3,1.787-1.841,2.5-.608.858-1.179,1.68-1.662,2.448-.983,1.537-1.662,2.859-2.43,4.271-1.537,2.895-3.431,5.951-9.578,12.866-1.912.84,2.394-4.217,3.056-6.022-1.644,2.77-3.878,5.968-6.451,9.81-.643.983-1.3,2-1.966,3.038-.375.608-.751,1.2-1.126,1.823-.518.858-.983,1.715-1.483,2.573a32.517,32.517,0,0,0-3.913,11.133A21.8,21.8,0,0,0,360.6,175.83l.661,1.322c.268.411.554.822.84,1.215a17.683,17.683,0,0,0,1.912,2.252,28.764,28.764,0,0,0,2.216,1.948c.822.554,1.68,1.054,2.52,1.555a28.481,28.481,0,0,0,11.848,3.02,30.666,30.666,0,0,0,3.145.089c.983,0,2.252,0,2.859-.054,1.412-.089,2.77-.214,4.056-.375,3.217-.179,6.5-.554,9.864-1.072,1.662-.268,3.377-.554,5.075-.894.858-.161,1.715-.34,2.573-.518l1.161-.232.322-.036a21.626,21.626,0,0,1,3.038-.089.76.76,0,0,1,.3.071s.054,0,.054.036l-.054.179a2.987,2.987,0,0,1-.143.357,4.242,4.242,0,0,1-.858,1.108c-.3.3-.572.554-.786.733l-.3.25s-.143.322-.2.465a4.588,4.588,0,0,0-.089.679l-.107.965-.161,1.93-.983,12.133,13.277,1.144a57.24,57.24,0,0,0,6.648.286l.572-.679c7,.286,13.4-1.59,19.281-3.788,5.808-2.252,11.294-4.95,16.708-6.88L460.17,194.4Z" transform="translate(-286.55 -26.44)" fill="#a7f7dd"/>
        <path id="Trazado_773718" data-name="Trazado 773718" d="M423.148,138.057l2.019-1.179s.161-.625.465-1.573c.268-.947.715-2.2,1.162-3.485.929-2.537,2-5.111,2-5.111-3.109,3.413-3.359,5.951-5.665,11.329Z" transform="translate(-179.067 52.469)" fill="#a7f7dd"/>
        <path id="Trazado_773719" data-name="Trazado 773719" d="M421.709,132.315s-.34,1.465-.7,2.931c-.125.733-.25,1.483-.357,2.037a7.227,7.227,0,0,0-.125.929,13.464,13.464,0,0,1,.375-1.447c.232-.876.59-2.019,1-3.145.8-2.269,1.787-4.45,1.787-4.45s-.536.768-1.019,1.555c-.5.8-.983,1.59-.983,1.59Z" transform="translate(-181.113 54.405)" fill="#a7f7dd"/>
        <path id="Trazado_773720" data-name="Trazado 773720" d="M381.26,116.725l1.447-.375s1.215-.608,3.02-1.519c1.823-.911,4.271-2.109,6.808-3.217l10.043-4.074s-1.34.518-3.324,1.3c-2,.786-4.7,1.733-7.469,2.913-2.7,1.162-5.325,2.43-7.273,3.377S381.26,116.725,381.26,116.725Z" transform="translate(-212.017 37.383)" fill="#a7f7dd"/>
        <path id="Trazado_773721" data-name="Trazado 773721" d="M339.049,101.467a4.581,4.581,0,0,1-.357,1.8,2.563,2.563,0,0,0-.214,1.59,9.145,9.145,0,0,1,.375-1.823c.143-.465.34-.965.465-1.3.393-.733.643-1.215.643-1.215l-.911.947Z" transform="translate(-245.734 31.859)" fill="#a7f7dd"/>
        <path id="Trazado_773722" data-name="Trazado 773722" d="M319.316,76.79c-2.537,3.86-6.969,2.555-1.465,3.145C323.211,77.433,318.047,78.237,319.316,76.79Z" transform="translate(-263.991 13.184)" fill="#a7f7dd"/>
        <path id="Trazado_773723" data-name="Trazado 773723" d="M306.66,84.179a23.514,23.514,0,0,0,6.451-2.859C308.554,81.57,308.858,82.928,306.66,84.179Z" transform="translate(-270.723 16.749)" fill="#a7f7dd"/>
      </g>
      <g id="Grupo_1093981" data-name="Grupo 1093981" transform="translate(-258.634 1839.74)">
        <path id="Trazado_773712-2" data-name="Trazado 773712" d="M481.962,157.2c-1.912-.5-1.573-.8-.2-1.019a42.836,42.836,0,0,1,6.147-.179l3.538,2.877s-2.359-.447-4.718-.911c-2.359-.447-4.771-.786-4.771-.786Z" transform="translate(-480.63 75.5)" fill="#a7f7dd"/>
        <path id="Trazado_773713-2" data-name="Trazado 773713" d="M468.958,158.18s2.591.858,5.289,1.483a43.638,43.638,0,0,0,5.522.929s-2.037-.054-4.021-.322c-1.984-.25-3.913-.679-3.913-.679-4.378.25-4.2.8-2.43,1.519a30.538,30.538,0,0,0,6.915,1.43,25.03,25.03,0,0,1-7.094-.983c-1.179-.411-1.412-.822-1.269-1.179.286-.733,2.055-1.447,1-2.2Z" transform="translate(-446.237 77.233)" fill="#a7f7dd"/>
        <path id="Trazado_773714-2" data-name="Trazado 773714" d="M460.844,158.715c2.5-2.52,3.181-3.753,3.61-3.556.393.143.2,1.7-.733,3.145a3.19,3.19,0,0,0-1.09.518c-.429.2-.893.465-1.412.679-.965.393-1.43.393-.375-.768Z" transform="translate(-417.394 74.84)" fill="#a7f7dd"/>
        <path id="Trazado_773715-2" data-name="Trazado 773715" d="M337.012,100.25l.465.5c.161.179.214.214.322.322.214.2.411.393.59.572.357.34.661.554.8.393.125.661.089,1.054-.2.876a3.061,3.061,0,0,1-.625-.715c-.143-.2-.3-.429-.518-.715-.25-.34-.518-.751-.84-1.215Z" transform="translate(-71.8 31.645)" fill="#a7f7dd"/>
        <path id="Trazado_773716-2" data-name="Trazado 773716" d="M337.186,101.636c-.054-.25-.107-.536-.2-.876a6.268,6.268,0,0,1,.3.768c0,.089-.072.071-.107.107Z" transform="translate(-69.795 32.046)" fill="#a7f7dd"/>
        <path id="Trazado_773717-2" data-name="Trazado 773717" d="M431.286,194.378a58.74,58.74,0,0,0-8.631-4.432c-.643-.286-1.251-.5-1.894-.751-.643-.268-1.269-.5-1.841-.7-1.412-.536-2.895-1.09-4.557-1.715l-4.664.375c-7.541-3.27-2.895-2.68-8.077-5.5a124.878,124.878,0,0,1-13.474-3.949,102.832,102.832,0,0,0-10.221-2.966c-2.252.411,2.341,1.644,3.252,2.484-2.019-.7-3.413-1.144-4.61-1.68-1.179-.447-2.109-.893-3.127-1.34a21.4,21.4,0,0,0-9.078-1.59l-.143.5a21.008,21.008,0,0,0-2.144-.107l-1.09-.036h-.5l-.25-.036-1.054-.054h-.715a2.567,2.567,0,0,0-2.52,1.59,3.78,3.78,0,0,0-.143,1.68,5.168,5.168,0,0,0,.143.893c.036.179.143.447.2.679a8.367,8.367,0,0,0,.268.8,99.937,99.937,0,0,0,4.682,10.025c3.627,7.076,7.952,14.367,11.061,23.248.393,1.09.75,2.269,1.054,3.467.339,1.144.572,2.466.822,3.717a36.222,36.222,0,0,1,.447,4.039,26.752,26.752,0,0,1-.214,4.432c-.125.768-.214,1.59-.411,2.359-.214.751-.465,1.519-.715,2.252a11.8,11.8,0,0,1-.947,2.216,18.62,18.62,0,0,1-1.019,1.823,23.176,23.176,0,0,1-5.915,6.594c2.43-2.2,1.465-2.019,2.055-3.127a20.083,20.083,0,0,1-6.236,4.61,22.042,22.042,0,0,1-7.309,2,37.227,37.227,0,0,1-12.938-1.269C333,242.858,326.2,239.659,319.6,236.6q-4.825-2.305-9.578-4.575c-3.61-1.644-4.914-2.341-7.148-3.234a21.623,21.623,0,0,0-6.88-1.715,8.1,8.1,0,0,0-3.574.643,7.839,7.839,0,0,0-2.7,2.234,6.429,6.429,0,0,0-1.573,4.575,14.222,14.222,0,0,0,1.179,4.5,20.466,20.466,0,0,1-2.395-4.718,8.018,8.018,0,0,1,.357-5.843,7.782,7.782,0,0,1,3.842-4.253,11.87,11.87,0,0,1,5.986-.768,47.814,47.814,0,0,1,12.473,3.431,181.988,181.988,0,0,1,22.873,11.311c3.413.572,7.487,2.073,11.347,2.913,3.824.876,7.505.876,8.881-.232a16.782,16.782,0,0,0,8.845-3.628,19.249,19.249,0,0,0,5-6.808,18.861,18.861,0,0,0,1.251-7.684,35.543,35.543,0,0,0-1.054-7.13c-2.323-9.113-6.5-17.3-12.223-28-1.876-2.913-1.912-1.019-3.163-1.519,0,0,1.984,4.414,4.217,8.81,1.09,2.2,2.18,4.414,3,6.076.8,1.662,1.34,2.788,1.34,2.788s-1.555-2.573-3.181-5.111L353.5,193.61c.876,2.466,3.038,6.379,4.753,9.953,1.751,3.574,2.948,6.862,2.484,7.845A87.775,87.775,0,0,0,355,198.273c-2.377-4.646-5.093-9.471-7.255-14.51a34.926,34.926,0,0,1-2.52-7.845,11.593,11.593,0,0,1,.84-7.612,9.448,9.448,0,0,1,5.575-4.164c.536-.143,1.054-.286,1.573-.429.518-.125,1.054-.143,1.555-.214.5-.054.983-.107,1.465-.161.482,0,.947,0,1.412.018a20.475,20.475,0,0,0-2.466.572,16.2,16.2,0,0,0-2.5.786,10.434,10.434,0,0,0-4.557,3.02,8,8,0,0,0-1.751,5.379,18.892,18.892,0,0,0,1.126,5.718c1.537,3.038,4.539,7.9,5.164,7.13a71.423,71.423,0,0,1-2.448-7.595,13.279,13.279,0,0,1-.286-5.9,6.214,6.214,0,0,1,3.52-4.2,5.71,5.71,0,0,1,1.287-.518,6.951,6.951,0,0,1,1.322-.375l1.34-.286,1.5-.179c.876-.143,2.323-.2,3.538-.3,1.269-.125,2.52-.036,3.806-.072,1.269,0,2.573.143,3.86.214,1.3.107,2.609.3,3.931.465a94.929,94.929,0,0,1,16.351,4.128c5.647,1.912,13.474,4.557,14.724,4.056-3.681-1.608-.59-1.3-3.556-2.788,7.934,3.556-.3,3.288,11.758,7.112l-.536-3.413a9.608,9.608,0,0,0,4.021,2.734c.858.34,1.769.643,2.752.929.929.268,1.894.536,2.877.822,4,1.144,8.577,2.663,12.312,5.307,3.449.179-1.733-2.913-7.952-5.611,7.362,2.484,7.237,4.5,13.063,6.9l-4.414-4.735c5.075,4.95,11.222,4.217,14.975,4.539.107.375-.822.75-.786,1.358,0,.3.286.643,1.054,1.072a15.819,15.819,0,0,0,4.128,1.394c3.645.482,1.948-.59,2.859-.768a4.589,4.589,0,0,0,2.412,1.573,13.182,13.182,0,0,0,2.752.786c.554.089,1.144.179,1.787.25.643.054,1.34.036,2.073.036.518-.447-.465-.751-1.59-1.054-1.108-.34-2.359-.786-2.5-1.233a35.758,35.758,0,0,0,5.129.089H467.7a9.868,9.868,0,0,0-1.7-5.271c-1.072-3.467-.679-3.074-.071-2.609.59.536,1.34,1.215.965-.375-2.859-4.36-4.271-5.254-5.111-5.307-.84-.089-1.608.7-3.735-1.8a66.981,66.981,0,0,0,2.537,7.38c.625,1.5,1.287,3.109,1.894,4.7.2.751.375,1.483.572,2.216-.036.393-.054.768-.054,1.144,1.519-1.626,3.02-3.27,4.36-4.7a26.563,26.563,0,0,1-7.9-1.34,35.266,35.266,0,0,0,7.863.893l-4.771,5.146V189.7l-.643-2.162c-.679-1.555-1.376-3.109-2.109-4.628-.322.554-2.806-3.252-4.217-5.575-.715-1.144-1.287-2.055-1.537-2.055-.143-.018-.2.2-.125.733a13.025,13.025,0,0,0,.679,2.788,40.021,40.021,0,0,1-3.735-12.223A30.434,30.434,0,0,1,450.6,160l.071-.965c.036-.3.2-.268.286-.429.232-.214.447-.429.679-.679.465-.447.929-1.054,1.412-1.608,7.237,2.126,14.617,4.271,21.837,6.683,3.556,1.161,7.094,2.305,10.275,3.252,1.215.375,2.412.733,3.61,1.09,1.036.3,2.055.59,3.056.876-2.126-.107-4.861-.554-4.575.179,7.469,2.395,6.88.822,8.542.429a11,11,0,0,1,4.682,2.448,10.513,10.513,0,0,0,3.163,2.484c.733-.036,1.412-.071,2.073-.125.625-.036,1.054-.107,1.537-.161.929-.107,1.715-.25,2.43-.375a15.983,15.983,0,0,0,3.574-1.09,5.662,5.662,0,0,0,2.466-2.216,5.252,5.252,0,0,0,.107-4.324s.5.232,1.019.465c.5.25,1,.518,1,.518-.286-1.43-.679-2.395-.876-3.217-.232-.822-.34-1.519-.482-2.252a10.457,10.457,0,0,0-.786-2.412,15.718,15.718,0,0,0-2.538-3.52c-.268-.071-.089.572.268,1.483.179.447.393.983.625,1.537.2.5.268.822.393,1.233a12.006,12.006,0,0,0-1.769-2.806,16.891,16.891,0,0,0-1.823-1.787,18.334,18.334,0,0,1-4.164-4.878l.858,2.7.768,2.663c-2.984-4.164-7.648-10.757-7.166-7.523a67.68,67.68,0,0,0-4.467-7.237c-1.8-2.68-3.9-5.522-5.951-8.953a30.927,30.927,0,0,1-2.948-6.236,14.02,14.02,0,0,1-.7-5.289,9.172,9.172,0,0,1,.3-1.841,8.148,8.148,0,0,1,.733-1.948,9.879,9.879,0,0,1,2.573-3.27,11.856,11.856,0,0,1,5.236-2.43,19.51,19.51,0,0,1,3.717-.357,29.185,29.185,0,0,1,5.682.572l-.768-1.608c3.574,1.215,9.489,2.323,15.1,3.77.7.179,1.394.375,2.091.554l1.019.286c.357.089,1,.3,1.34.411,1.5.536,2.716,1.036,3.86,1.555a19.85,19.85,0,0,1,5.093,3.056l1.072-.25,10.7,6.362c5.254,1.787,4.289-1.036,4.485-.286,11.168,4.61,20.21,7.648,27.609,8.685.232,1.09,2.412,2.377,5.861,3.306a22.025,22.025,0,0,0,5.736.786,8.171,8.171,0,0,0,3-.518,3.816,3.816,0,0,0,2.144-1.894,6.07,6.07,0,0,0-.125-3.431,16.161,16.161,0,0,0-1.34-3.2,28.355,28.355,0,0,0-1.769-2.931l-2.019-2.716-1-1.358c-.357-.482-.59-.84-1.126-1.465l-2.877-3.467c-1.841-2.341-3.967-4.592-6.058-6.88a287.92,287.92,0,0,0-27.323-25.41c-19.21-15.922-39.456-30.271-57.594-44.459a64.98,64.98,0,0,1-6.326-5.45c-2.162-2.126-4.378-4.45-6.63-6.755l-1.019,3.074c1.894.357,3.842,1.858,7.148,2.234a22.7,22.7,0,0,1-2.716-.232c-.7-.143-1.34-.286-1.966-.411-.5-.089-1.072-.268-1.43-.286-.375-.036-.715-.089-1.036-.143.608-1.8,1.2-3.61,1.715-5.164,3.663,2.823,5.432,4.86,11.383,9.042,6.63,4.039,10.2,3.9,16.44,6.612l-3.77-.5c7.863,7.094,6.469,3.324,12.33,9.471l1.3-2.5c1.608,2.823,8.309,6.058,11.222,7.184l1.126,3.163c6.058,2.948,9.828,5.146,12.509,4.932L541.167,64.9a20.766,20.766,0,0,1,4.289,2.52c1.966,1.412,4.324,3.091,6.415,4.575,4.2,2.966,7.452,5.093,5.254,1.394,1.287,1.555,2.144,3.342,5.593,5.9l1.626-.947c2.234,2.2,4.664,4.45,6.719,6.29,2.037,1.876,3.788,3.234,4.789,3.467-2.252-2.609-2.591-3.949-2.913-5.289,2.52,2.216,4.414,4.021,5.826,5.486a23.9,23.9,0,0,1,2.895,3.645c1.179,1.912,1.09,2.859.929,3.753a4.278,4.278,0,0,0,.429,3.359c.786,1.715,2.609,4.2,6.5,8.667l.7-.965,2.966,5.54s.322.25.822.643c.25.2.536.429.84.661a7.1,7.1,0,0,1,1.019.911l3.091,3.377a26.077,26.077,0,0,0,1.948,4.878,33.433,33.433,0,0,1,2.5,5.843,27.311,27.311,0,0,1,1.5,6.7,10.694,10.694,0,0,1-1.662,7.273,12.6,12.6,0,0,1-6.362,4.253,25.78,25.78,0,0,1-8.023,1.126,42.476,42.476,0,0,1-8.631-1c-1.394-.286-2.77-.661-4.056-1.019q-.965-.295-1.876-.59a12.388,12.388,0,0,1-1.376-.536c-5.325-1.7-12.991-1.608-22.748-5.379l1.233-1.43c-4.253-.536-13.777-3.359-23.159-5.968-2.341-.643-4.682-1.269-6.826-1.769-.518-.107-1.036-.214-1.537-.322a5.047,5.047,0,0,0-1.161-.143,1.861,1.861,0,0,1-.59-.036l-.768-.071c-.518-.036-1.019-.089-1.5-.125-3.931-.268-7.112-.054-8.9.661-6.111-2.323.661-.3.876-1.626a23.446,23.446,0,0,0-6.915-1.43,3.234,3.234,0,0,0-.733.089.5.5,0,0,0-.2.071c-.036-.071.089.447-.179-.786a13.816,13.816,0,0,0-2.162-5.629c-.608-.751-.768-.482.107-.322a10.987,10.987,0,0,0,4.592-.393,33.034,33.034,0,0,0,3.913-1.144c.071-.054.2,0,.322.054a5.026,5.026,0,0,1,1,.911c.59,1.412.893,2.073.7,2.019a6.121,6.121,0,0,1-1.215-1.287c-1.072-1.358-1.5-1.858-1.787-.8.715.965,1.3,1.787,1.841,2.5.608.858,1.179,1.68,1.662,2.448.983,1.537,1.662,2.859,2.43,4.271,1.537,2.895,3.431,5.951,9.578,12.866,1.912.84-2.394-4.217-3.056-6.022,1.644,2.77,3.878,5.968,6.451,9.81.643.983,1.3,2,1.966,3.038.375.608.751,1.2,1.126,1.823.518.858.983,1.715,1.483,2.573a32.517,32.517,0,0,1,3.913,11.133,21.8,21.8,0,0,1-1.769,11.437l-.661,1.322c-.268.411-.554.822-.84,1.215a17.684,17.684,0,0,1-1.912,2.252,28.764,28.764,0,0,1-2.216,1.948c-.822.554-1.68,1.054-2.52,1.555a28.481,28.481,0,0,1-11.848,3.02,30.666,30.666,0,0,1-3.145.089c-.983,0-2.252,0-2.859-.054-1.412-.089-2.77-.214-4.056-.375-3.217-.179-6.5-.554-9.864-1.072-1.662-.268-3.377-.554-5.075-.894-.858-.161-1.715-.34-2.573-.518l-1.161-.232-.322-.036a21.626,21.626,0,0,0-3.038-.089.76.76,0,0,0-.3.071s-.054,0-.054.036l.054.179a2.987,2.987,0,0,0,.143.357,4.242,4.242,0,0,0,.858,1.108c.3.3.572.554.786.733l.3.25s.143.322.2.465a4.588,4.588,0,0,1,.089.679l.107.965.161,1.93.983,12.133-13.277,1.144a57.24,57.24,0,0,1-6.648.286l-.572-.679c-7,.286-13.4-1.59-19.281-3.788-5.808-2.252-11.294-4.95-16.708-6.88l5.682,1.447Z" transform="translate(-247.328 -26.44)" fill="#ffb6c8"/>
        <path id="Trazado_773718-2" data-name="Trazado 773718" d="M428.777,138.057l-2.019-1.179s-.161-.625-.465-1.573c-.268-.947-.715-2.2-1.162-3.485-.929-2.537-2-5.111-2-5.111,3.109,3.413,3.359,5.951,5.665,11.329Z" transform="translate(-315.224 52.468)" fill="#a7f7dd"/>
        <path id="Trazado_773719-2" data-name="Trazado 773719" d="M422.513,132.315s.34,1.465.7,2.931c.125.733.25,1.483.357,2.037a7.227,7.227,0,0,1,.125.929,13.463,13.463,0,0,0-.375-1.447c-.232-.876-.59-2.019-1-3.145-.8-2.269-1.787-4.45-1.787-4.45s.536.768,1.019,1.555c.5.8.983,1.59.983,1.59Z" transform="translate(-305.476 54.404)" fill="#a7f7dd"/>
        <path id="Trazado_773720-2" data-name="Trazado 773720" d="M402.578,116.725l-1.447-.375s-1.215-.608-3.02-1.519c-1.823-.911-4.271-2.109-6.808-3.217L381.26,107.54s1.34.518,3.324,1.3c2,.786,4.7,1.733,7.469,2.913,2.7,1.162,5.325,2.43,7.273,3.377S402.578,116.725,402.578,116.725Z" transform="translate(-214.188 37.382)" fill="#a7f7dd"/>
        <path id="Trazado_773721-2" data-name="Trazado 773721" d="M339.326,101.467a4.581,4.581,0,0,0,.357,1.8,2.563,2.563,0,0,1,.214,1.59,9.145,9.145,0,0,0-.375-1.823c-.143-.465-.34-.965-.465-1.3-.393-.733-.643-1.215-.643-1.215l.911.947Z" transform="translate(-75.008 31.857)" fill="#a7f7dd"/>
        <path id="Trazado_773722-2" data-name="Trazado 773722" d="M316.239,76.79c2.537,3.86,6.969,2.555,1.465,3.145C312.343,77.433,317.508,78.237,316.239,76.79Z" transform="translate(-13.93 13.183)" fill="#a7f7dd"/>
        <path id="Trazado_773723-2" data-name="Trazado 773723" d="M313.111,84.179a23.515,23.515,0,0,1-6.451-2.859C311.217,81.57,310.913,82.928,313.111,84.179Z" transform="translate(8.587 16.748)" fill="#a7f7dd"/>
      </g>
    </g>
  </g>
</svg>
