<svg xmlns="http://www.w3.org/2000/svg" xmlns:xlink="http://www.w3.org/1999/xlink" width="136.844" height="123.724" viewBox="0 0 136.844 123.724">
  <defs>
    <clipPath id="clip-path">
      <path id="doctor-hombre-adulto-pie-derecho-oficina-hospital" d="M31.767-19.778c15.842,0,29.365,17.692,42.056,33.67,8.9,11.2,17.006,20.761,17.006,32.139,0,11.024-3.113,17.22-6.083,23.081-4.106,8.109-9.782,13.922-20.662,21.211C45.8,102.574,28.592,86.78,14.578,80.268,3.56,75.148-9.573,72.71-18.519,67.285c-3.311-2.008-14.057-8.5-11.311-21.07C-27.307,34.7-10.787,21.79-4.778,14.421,7.252-.331,17.449-19.778,31.767-19.778Z" transform="translate(30.274 19.778)" fill="#3c1c74"/>
    </clipPath>
  </defs>
  <g id="Grupo_1132834" data-name="Grupo 1132834" transform="translate(11041 3081.579)">
    <g id="Grupo_1072178" data-name="Grupo 1072178" transform="translate(-11027 -3083.595)">
      <path id="doctor-hombre-adulto-pie-derecho-oficina-hospital-2" data-name="doctor-hombre-adulto-pie-derecho-oficina-hospital" d="M31.767-19.778c15.842,0,29.365,17.692,42.056,33.67,8.9,11.2,17.006,20.761,17.006,32.139,0,11.024-3.113,17.22-6.083,23.081-4.106,8.109-9.782,13.922-20.662,21.211C45.8,102.574,28.592,86.78,14.578,80.268,3.56,75.148-9.573,72.71-18.519,67.285c-3.311-2.008-14.057-8.5-11.311-21.07C-27.307,34.7-10.787,21.79-4.778,14.421,7.252-.331,17.449-19.778,31.767-19.778Z" transform="translate(32.014 21.795)" fill="#bad1ff"/>
      <g id="Elipse_4857" data-name="Elipse 4857" transform="translate(-14 24.516)" fill="none" stroke="#bad1ff" stroke-width="1">
        <circle cx="11" cy="11" r="11" stroke="none"/>
        <circle cx="11" cy="11" r="10.5" fill="none"/>
      </g>
      <ellipse id="Elipse_4858" data-name="Elipse 4858" cx="5.368" cy="4.831" rx="5.368" ry="4.831" transform="translate(112.107 28.589)" fill="#bad1ff"/>
      <path id="Trazado_115346" data-name="Trazado 115346" d="M7.936,0c4.383,0,7.936,3.179,7.936,7.1,0,2.1-.505,3.936-2.342,5.038-1.186.72-3.556.842-5.594.842C3.553,12.98,0,11.022,0,7.1S3.553,0,7.936,0Z" transform="translate(46.42 112.759)" fill="#bad1ff"/>
    </g>
    <g id="Grupo_1132833" data-name="Grupo 1132833" transform="translate(6.985 2.016)">
      <g id="conversation_9971834" transform="translate(-11022.294 -3083.595)">
        <path id="Trazado_934077" data-name="Trazado 934077" d="M49.562,351.852c-6.181,6.521-14.762,5.116-14.762,5.116s-8.581,1.405-14.762-5.116c-5.011-5.289-2.356-14.148-2.356-14.148L34.8,340.83,51.919,337.7S54.574,346.564,49.562,351.852Z" transform="translate(-13.481 -268.144)" fill="#785252"/>
        <g id="Grupo_1132826" data-name="Grupo 1132826" transform="translate(2.569 61.48)">
          <path id="Trazado_934078" data-name="Trazado 934078" d="M20.02,303.531c0,2.79-1.8,5.052-4.029,5.052s-3.517-2.6-3.517-5.388,1.293-4.717,3.517-4.717S20.02,300.741,20.02,303.531Z" transform="translate(-12.474 -298.479)" fill="#eaac9d"/>
          <path id="Trazado_934079" data-name="Trazado 934079" d="M157.89,303.531c0,2.79,1.8,5.052,4.029,5.052s3.517-2.6,3.517-5.388-1.293-4.717-3.517-4.717S157.89,300.741,157.89,303.531Z" transform="translate(-127.937 -298.479)" fill="#eaac9d"/>
        </g>
        <path id="Trazado_934080" data-name="Trazado 934080" d="M70.314,397c-.76,3.66-3.28,9.78-11.624,9.78S47.825,400.657,47.065,397l5.984-1.712A2.695,2.695,0,0,0,55,392.693V388.9h7.373v3.793a2.695,2.695,0,0,0,1.953,2.592Z" transform="translate(-37.371 -308.795)" fill="#eaac9d"/>
        <path id="Trazado_934081" data-name="Trazado 934081" d="M43.794,256.176V247.8a12.3,12.3,0,0,1,24.6,0v8.331a12.3,12.3,0,0,1-24.6.046Z" transform="translate(-34.773 -186.992)" fill="#ffcbbe"/>
        <path id="Trazado_934082" data-name="Trazado 934082" d="M91.513,235.5a12.321,12.321,0,0,0-3.09.392,12.306,12.306,0,0,1,9.208,11.91v8.324A12.329,12.329,0,0,1,88.4,268.058a12.325,12.325,0,0,0,15.408-11.933V247.8A12.3,12.3,0,0,0,91.513,235.5Z" transform="translate(-70.194 -186.992)" fill="#eaac9d"/>
        <path id="Trazado_934083" data-name="Trazado 934083" d="M47.048,428.8v3.747a2.06,2.06,0,0,1-2.06,2.06H9.56a2.06,2.06,0,0,1-2.06-2.06V428.8a10.858,10.858,0,0,1,7.6-10.359l6.174-1.939a.529.529,0,0,1,.675.386c.364,1.57,1.695,4.746,5.322,4.746s4.958-3.177,5.322-4.746a.529.529,0,0,1,.675-.386l6.174,1.939A10.858,10.858,0,0,1,47.048,428.8Z" transform="translate(-5.955 -330.691)" fill="#ffd064"/>
        <g id="Grupo_1132827" data-name="Grupo 1132827" transform="translate(26.245 85.785)">
          <path id="Trazado_934084" data-name="Trazado 934084" d="M134.661,418.439l-6.174-1.939a.529.529,0,0,0-.675.386,7.744,7.744,0,0,1-.4,1.219l1.065.335a10.858,10.858,0,0,1,7.6,10.359v3.747a2.06,2.06,0,0,1-2.06,2.06H140.2a2.06,2.06,0,0,0,2.06-2.06V428.8A10.858,10.858,0,0,0,134.661,418.439Z" transform="translate(-127.417 -416.475)" fill="#ffc250"/>
        </g>
        <path id="Trazado_934085" data-name="Trazado 934085" d="M61.7,231.052s-1.874-12.087-5.118-11.344-4.579,1.283-7.289,1.283-4.047-.54-7.289-1.283-4.9,7.192-4.9,7.192-8.545-19.651,12.3-19.651c13.8,0,15.678,8.322,15.757,14.717A13.911,13.911,0,0,1,61.7,231.052Z" transform="translate(-28.086 -164.561)" fill="#785252"/>
        <path id="Trazado_934086" data-name="Trazado 934086" d="M36.6,214.414c2.744-1.376,3.724-14.375-3.527-14.88-7.827-.546-12.724,5.645-15.334,12.392a38.886,38.886,0,0,1-2.78,6.126,1,1,0,0,0,.337,1.4,8.851,8.851,0,0,0,5.479,1.407A37.674,37.674,0,0,0,36.6,214.414Z" transform="translate(-11.755 -158.407)" fill="#8b5e5e"/>
        <path id="Trazado_934087" data-name="Trazado 934087" d="M354.562,351.852c-6.181,6.521-14.762,5.116-14.762,5.116s-8.581,1.405-14.762-5.116c-5.011-5.289-2.356-14.148-2.356-14.148L339.8,340.83l17.119-3.125S359.574,346.564,354.562,351.852Z" transform="translate(-255.658 -268.144)" fill="#785252"/>
        <g id="Grupo_1132828" data-name="Grupo 1132828" transform="translate(65.393 61.48)">
          <path id="Trazado_934088" data-name="Trazado 934088" d="M325.02,303.531c0,2.79-1.8,5.052-4.029,5.052s-3.518-2.6-3.518-5.388,1.293-4.717,3.518-4.717S325.02,300.741,325.02,303.531Z" transform="translate(-317.474 -298.479)" fill="#eaac9d"/>
          <path id="Trazado_934089" data-name="Trazado 934089" d="M462.89,303.531c0,2.79,1.8,5.052,4.029,5.052s3.518-2.6,3.518-5.388-1.293-4.717-3.518-4.717S462.89,300.741,462.89,303.531Z" transform="translate(-432.938 -298.479)" fill="#eaac9d"/>
        </g>
        <path id="Trazado_934090" data-name="Trazado 934090" d="M375.314,397c-.76,3.66-3.28,9.78-11.624,9.78s-10.864-6.121-11.624-9.78l5.984-1.712A2.695,2.695,0,0,0,360,392.693V388.9h7.373v3.793a2.695,2.695,0,0,0,1.953,2.592Z" transform="translate(-279.547 -308.795)" fill="#eaac9d"/>
        <path id="Trazado_934091" data-name="Trazado 934091" d="M348.794,256.176V247.8a12.3,12.3,0,0,1,24.6,0v8.331a12.3,12.3,0,0,1-24.6.046Z" transform="translate(-276.95 -186.992)" fill="#ffcbbe"/>
        <path id="Trazado_934092" data-name="Trazado 934092" d="M396.513,235.5a12.322,12.322,0,0,0-3.09.392,12.306,12.306,0,0,1,9.208,11.91v8.324a12.329,12.329,0,0,1-9.228,11.933,12.325,12.325,0,0,0,15.408-11.933V247.8A12.3,12.3,0,0,0,396.513,235.5Z" transform="translate(-312.37 -186.992)" fill="#eaac9d"/>
        <path id="Trazado_934093" data-name="Trazado 934093" d="M352.048,428.8v3.747a2.06,2.06,0,0,1-2.06,2.06H314.56a2.06,2.06,0,0,1-2.06-2.06V428.8a10.858,10.858,0,0,1,7.6-10.359l6.174-1.939a.529.529,0,0,1,.675.386c.364,1.57,1.695,4.746,5.322,4.746s4.958-3.177,5.322-4.746a.529.529,0,0,1,.675-.386l6.174,1.939A10.858,10.858,0,0,1,352.048,428.8Z" transform="translate(-248.132 -330.691)" fill="#d80a61"/>
        <g id="Grupo_1132829" data-name="Grupo 1132829" transform="translate(89.069 85.785)">
          <path id="Trazado_934094" data-name="Trazado 934094" d="M439.661,418.439l-6.174-1.939a.529.529,0,0,0-.675.386,7.753,7.753,0,0,1-.4,1.219l1.065.335a10.858,10.858,0,0,1,7.6,10.359v3.747a2.06,2.06,0,0,1-2.06,2.06H445.2a2.06,2.06,0,0,0,2.06-2.06V428.8A10.858,10.858,0,0,0,439.661,418.439Z" transform="translate(-432.417 -416.475)" fill="#c10a54"/>
        </g>
        <path id="Trazado_934095" data-name="Trazado 934095" d="M366.7,231.052s-1.874-12.087-5.118-11.344-4.579,1.283-7.289,1.283-4.047-.54-7.289-1.283-4.9,7.192-4.9,7.192-8.545-19.651,12.3-19.651c13.8,0,15.678,8.322,15.757,14.717A13.911,13.911,0,0,1,366.7,231.052Z" transform="translate(-270.263 -164.561)" fill="#785252"/>
        <path id="Trazado_934096" data-name="Trazado 934096" d="M341.6,214.414c2.744-1.376,3.724-14.375-3.527-14.88-7.827-.546-12.724,5.645-15.334,12.392a38.886,38.886,0,0,1-2.78,6.126,1,1,0,0,0,.337,1.4,8.85,8.85,0,0,0,5.479,1.407A37.674,37.674,0,0,0,341.6,214.414Z" transform="translate(-253.932 -158.407)" fill="#8b5e5e"/>
        <path id="Trazado_934097" data-name="Trazado 934097" d="M75.2,12.647v15.4a5.155,5.155,0,0,1-5.164,5.147H56.251a1.583,1.583,0,0,0-1.047.4l-6.127,5.4a.93.93,0,0,1-1.546-.694V33.827a.637.637,0,0,0-.639-.636H39.164A5.155,5.155,0,0,1,34,28.044v-15.4A5.155,5.155,0,0,1,39.164,7.5H70.032A5.155,5.155,0,0,1,75.2,12.647Z" transform="translate(-26.997 -5.955)" fill="#e7ecf6"/>
        <g id="Grupo_1132830" data-name="Grupo 1132830" transform="translate(36.856 1.545)">
          <path id="Trazado_934098" data-name="Trazado 934098" d="M185.109,7.5H178.93a5.155,5.155,0,0,1,5.164,5.147v15.4a5.155,5.155,0,0,1-5.164,5.147h6.179a5.155,5.155,0,0,0,5.164-5.147v-15.4A5.155,5.155,0,0,0,185.109,7.5Z" transform="translate(-178.93 -7.5)" fill="#d8e2f1"/>
        </g>
        <path id="Trazado_934099" data-name="Trazado 934099" d="M278,12.647v15.4a5.155,5.155,0,0,0,5.164,5.147h13.781a1.583,1.583,0,0,1,1.047.4l6.127,5.4a.93.93,0,0,0,1.546-.694V33.827a.638.638,0,0,1,.639-.636h7.728a5.155,5.155,0,0,0,5.164-5.147v-15.4A5.155,5.155,0,0,0,314.032,7.5H283.164A5.155,5.155,0,0,0,278,12.647Z" transform="translate(-220.738 -5.955)" fill="#ffd064"/>
        <g id="Grupo_1132831" data-name="Grupo 1132831" transform="translate(87.114 1.545)">
          <path id="Trazado_934100" data-name="Trazado 934100" d="M429.109,7.5H422.93a5.155,5.155,0,0,1,5.164,5.147v15.4a5.155,5.155,0,0,1-5.164,5.147h6.179a5.155,5.155,0,0,0,5.164-5.147v-15.4A5.155,5.155,0,0,0,429.109,7.5Z" transform="translate(-422.93 -7.5)" fill="#ffc250"/>
        </g>
        <g id="Grupo_1132832" data-name="Grupo 1132832" transform="translate(0 0)">
          <path id="Trazado_934101" data-name="Trazado 934101" d="M35.071,239.14a17.947,17.947,0,0,0,2.132-1.917c4.161-4.391,3.656-10.823,3.128-13.815a8.6,8.6,0,0,0,1.282-4.758c0-2.935-1.242-5.121-3.258-5.924a14.058,14.058,0,0,0,.266-2.886c-.032-2.581-.311-6.393-2.358-9.672-2.117-3.392-5.691-5.492-10.62-6.254a6.523,6.523,0,0,0-4.217-1.876c-7.352-.512-13.348,4.238-16.882,13.376A37.537,37.537,0,0,1,1.9,211.276a2.545,2.545,0,0,0,.313,3.116,7.344,7.344,0,0,0-1.185,4.257,8.6,8.6,0,0,0,1.282,4.758c-.6,3.4-.937,9.525,3.128,13.816a17.9,17.9,0,0,0,2.134,1.916A12.343,12.343,0,0,0,0,250.561v3.747a3.609,3.609,0,0,0,3.6,3.605H39.033a3.609,3.609,0,0,0,3.6-3.605v-3.747a12.344,12.344,0,0,0-7.567-11.421ZM34.96,235.1a14.725,14.725,0,0,1-3.641,2.8l-3.541-1.112a2.08,2.08,0,0,0-1.149-.024,1.145,1.145,0,0,1-.079-.413v-1.932a13.924,13.924,0,0,0,8.132-9.218,4.829,4.829,0,0,0,1.869.382,4.243,4.243,0,0,0,.949-.108c.272,2.738.112,6.825-2.54,9.624ZM4.114,218.649a3.84,3.84,0,0,1,.859-2.758,9.807,9.807,0,0,0,2.5.587s0,5.31.006,5.387a2.023,2.023,0,0,1-1.395.627C4.869,222.492,4.114,220.5,4.114,218.649Zm6.451-2.448a39.474,39.474,0,0,0,14.9-6.278c.445-.1,2.575-.631,3.283-.794.217.154,1.147,1.018,2.248,5.01.618,2.242.991,4.413,1.076,4.928v2.524a10.753,10.753,0,0,1-21.507.046Zm7.753,22.709a4.266,4.266,0,0,0,.859-2.559v-1.057a13.875,13.875,0,0,0,4.284-.008v1.065a4.161,4.161,0,0,0,1.309,3.058,3.66,3.66,0,0,1-6.9,0,4.213,4.213,0,0,0,.451-.5Zm20.205-20.261c0,1.848-.754,3.843-1.973,3.843a2.012,2.012,0,0,1-1.4-.627c0-.092.007-2.346.007-2.346a16.018,16.018,0,0,0,2.274-3.8C38.433,216.347,38.523,218.06,38.523,218.649Zm-2.992-8.772a11.624,11.624,0,0,1-1.141,5.068c-.1-.42-.209-.856-.327-1.3-1.358-5.085-2.7-6.477-3.592-7.082a2.894,2.894,0,0,0-2.317-.469l-.212.049a16.588,16.588,0,0,0,.2-7.189,12.916,12.916,0,0,0-.36-1.4c6.688,2.1,7.693,7.583,7.752,12.318Zm-28.106-3.35c1.74-4.5,5.843-11.963,13.786-11.408,1.83.128,3.086,1.386,3.732,3.74,1,3.646-.056,7.692-.8,8.226a37.746,37.746,0,0,1-15.356,6.293,6.883,6.883,0,0,1-3.982-.945,48.549,48.549,0,0,0,2.624-5.9ZM5.14,225.474a4.238,4.238,0,0,0,.947.108,4.842,4.842,0,0,0,1.86-.372,13.878,13.878,0,0,0,8.14,9.223v1.917a1.149,1.149,0,0,1-.079.413,2.079,2.079,0,0,0-1.149.025L11.32,237.9a14.72,14.72,0,0,1-3.642-2.8c-2.659-2.806-2.8-6.936-2.537-9.624Zm34.408,28.833a.516.516,0,0,1-.515.516H3.6a.516.516,0,0,1-.515-.516v-3.747a9.275,9.275,0,0,1,6.521-8.886l5.19-1.63a6.788,6.788,0,0,0,13.036,0l5.19,1.63a9.275,9.275,0,0,1,6.521,8.886Z" transform="translate(0 -152.452)"/>
          <path id="Trazado_934102" data-name="Trazado 934102" d="M76.545,320.427a1.545,1.545,0,0,0,1.545-1.545v-.412a1.545,1.545,0,1,0-3.09,0v.412A1.545,1.545,0,0,0,76.545,320.427Z" transform="translate(-59.552 -251.645)"/>
          <path id="Trazado_934103" data-name="Trazado 934103" d="M118.545,320.427a1.545,1.545,0,0,0,1.545-1.545v-.412a1.545,1.545,0,1,0-3.09,0v.412A1.545,1.545,0,0,0,118.545,320.427Z" transform="translate(-92.901 -251.645)"/>
          <path id="Trazado_934104" data-name="Trazado 934104" d="M83.38,351.172a1.545,1.545,0,0,0,.405,2.147,6.477,6.477,0,0,0,3.441,1,7.5,7.5,0,0,0,3.523-.94,1.545,1.545,0,0,0-1.559-2.668,4.493,4.493,0,0,1-1.965.519,3.484,3.484,0,0,1-1.713-.468A1.545,1.545,0,0,0,83.38,351.172Z" transform="translate(-65.992 -278.298)"/>
          <path id="Trazado_934105" data-name="Trazado 934105" d="M340.071,239.14a17.948,17.948,0,0,0,2.132-1.917c4.16-4.391,3.656-10.823,3.128-13.816a8.6,8.6,0,0,0,1.282-4.758c0-2.935-1.242-5.121-3.258-5.924a14.069,14.069,0,0,0,.266-2.886c-.032-2.581-.311-6.393-2.358-9.671-2.117-3.392-5.691-5.492-10.62-6.254a6.523,6.523,0,0,0-4.217-1.876c-7.352-.511-13.348,4.238-16.882,13.376a37.535,37.535,0,0,1-2.648,5.863,2.545,2.545,0,0,0,.313,3.116,7.346,7.346,0,0,0-1.185,4.257,8.6,8.6,0,0,0,1.282,4.758c-.6,3.4-.937,9.525,3.128,13.816a17.926,17.926,0,0,0,2.134,1.916A12.344,12.344,0,0,0,305,250.561v3.747a3.609,3.609,0,0,0,3.6,3.605h22.8a1.545,1.545,0,1,0,0-3.09H308.6a.516.516,0,0,1-.515-.516v-3.747a9.275,9.275,0,0,1,6.521-8.886l5.19-1.63a6.788,6.788,0,0,0,13.036,0l5.19,1.63a9.275,9.275,0,0,1,6.521,8.886v3.747a.516.516,0,0,1-.515.516h-5.381a1.545,1.545,0,1,0,0,3.09h5.381a3.609,3.609,0,0,0,3.6-3.605v-3.747A12.345,12.345,0,0,0,340.071,239.14Zm-.111-4.042a14.723,14.723,0,0,1-3.641,2.8l-3.541-1.112a2.081,2.081,0,0,0-1.149-.024,1.145,1.145,0,0,1-.079-.413v-1.932a13.925,13.925,0,0,0,8.132-9.218,4.829,4.829,0,0,0,1.869.382,4.234,4.234,0,0,0,.949-.108C342.772,228.212,342.612,232.3,339.96,235.1Zm-24.395-13.462V216.2a39.474,39.474,0,0,0,14.9-6.278c.445-.1.906-.215,1.394-.337.555-.138,1.18-.294,1.889-.457.217.154,1.147,1.018,2.248,5.01.618,2.242.991,4.412,1.076,4.928v2.524a10.753,10.753,0,0,1-21.507.046Zm-6.451-2.986a3.84,3.84,0,0,1,.859-2.758,9.805,9.805,0,0,0,2.5.587v5.157c0,.077,0,.153.006.23a2.023,2.023,0,0,1-1.395.626c-1.218,0-1.972-1.995-1.972-3.843Zm34.409,0c0,1.848-.754,3.843-1.973,3.843a2.012,2.012,0,0,1-1.4-.627c0-.092.007-.183.007-.276v-2.07a16.017,16.017,0,0,0,2.274-3.8C343.433,216.347,343.523,218.06,343.523,218.649Zm-2.992-8.772a11.624,11.624,0,0,1-1.141,5.068c-.1-.42-.209-.856-.327-1.3-1.358-5.085-2.7-6.477-3.592-7.082a2.9,2.9,0,0,0-2.317-.469l-.212.049a16.586,16.586,0,0,0,.2-7.189,12.906,12.906,0,0,0-.36-1.4C339.467,199.664,340.473,205.143,340.531,209.878Zm-28.106-3.35c1.74-4.5,5.841-11.965,13.786-11.408,1.83.128,3.086,1.386,3.732,3.74,1,3.646-.056,7.692-.8,8.226a1.571,1.571,0,0,0-.239.152,36.49,36.49,0,0,1-15.118,6.141,6.884,6.884,0,0,1-3.982-.945A48.546,48.546,0,0,0,312.426,206.528Zm-2.286,18.947a4.238,4.238,0,0,0,.947.108,4.843,4.843,0,0,0,1.86-.372,13.878,13.878,0,0,0,8.14,9.223v1.917a1.147,1.147,0,0,1-.079.413,2.079,2.079,0,0,0-1.148.025l-3.54,1.112a14.724,14.724,0,0,1-3.642-2.8c-2.659-2.806-2.8-6.936-2.537-9.624Zm16.179,16.374a3.668,3.668,0,0,1-3.451-2.441,4.16,4.16,0,0,0,1.309-3.058v-1.058a13.876,13.876,0,0,0,4.284-.008v1.065a4.161,4.161,0,0,0,1.309,3.058A3.667,3.667,0,0,1,326.319,241.849Z" transform="translate(-242.177 -152.453)"/>
          <path id="Trazado_934106" data-name="Trazado 934106" d="M383.09,318.882v-.412a1.545,1.545,0,1,0-3.09,0v.412a1.545,1.545,0,0,0,3.09,0Z" transform="translate(-301.728 -251.645)"/>
          <path id="Trazado_934107" data-name="Trazado 934107" d="M423.545,320.427a1.545,1.545,0,0,0,1.545-1.545v-.412a1.545,1.545,0,1,0-3.09,0v.412A1.545,1.545,0,0,0,423.545,320.427Z" transform="translate(-335.077 -251.645)"/>
          <path id="Trazado_934108" data-name="Trazado 934108" d="M396.3,351.256a1.54,1.54,0,0,0-2.11-.55,4.493,4.493,0,0,1-1.965.519,3.484,3.484,0,0,1-1.713-.468,1.545,1.545,0,0,0-1.728,2.562,6.477,6.477,0,0,0,3.441,1,7.5,7.5,0,0,0,3.523-.941A1.549,1.549,0,0,0,396.3,351.256Z" transform="translate(-308.169 -278.299)"/>
          <path id="Trazado_934109" data-name="Trazado 934109" d="M64.077,0H45.244a1.545,1.545,0,1,0,0,3.09H64.077a3.615,3.615,0,0,1,3.619,3.6v15.4a3.615,3.615,0,0,1-3.619,3.6H50.3a3.125,3.125,0,0,0-2.068.781l-5.107,4.5v-3.1a2.185,2.185,0,0,0-2.184-2.181H33.209a3.615,3.615,0,0,1-3.619-3.6V6.691a3.615,3.615,0,0,1,3.619-3.6h5.118a1.545,1.545,0,1,0,0-3.09H33.209A6.708,6.708,0,0,0,26.5,6.691v15.4a6.708,6.708,0,0,0,6.709,6.691h6.822v3.557a2.445,2.445,0,0,0,1.455,2.252,2.494,2.494,0,0,0,1.029.224,2.455,2.455,0,0,0,1.629-.623l6.127-5.4a.038.038,0,0,1,.025-.009H64.077a6.708,6.708,0,0,0,6.709-6.691V6.691A6.708,6.708,0,0,0,64.077,0Z" transform="translate(-21.042 0)"/>
          <path id="Trazado_934110" data-name="Trazado 934110" d="M89.894,31.611H77.962a1.545,1.545,0,0,0,0,3.09H89.894a1.545,1.545,0,1,0,0-3.09Z" transform="translate(-60.677 -25.1)"/>
          <path id="Trazado_934111" data-name="Trazado 934111" d="M98.56,61.611h-20.6a1.545,1.545,0,1,0,0,3.09h20.6a1.545,1.545,0,1,0,0-3.09Z" transform="translate(-60.677 -48.92)"/>
          <path id="Trazado_934112" data-name="Trazado 934112" d="M98.56,91.611h-20.6a1.545,1.545,0,1,0,0,3.09h20.6a1.545,1.545,0,1,0,0-3.09Z" transform="translate(-60.677 -72.741)"/>
          <path id="Trazado_934113" data-name="Trazado 934113" d="M291.015,28.789l6.128,5.4a2.455,2.455,0,0,0,1.629.623,2.494,2.494,0,0,0,1.029-.224,2.445,2.445,0,0,0,1.455-2.252V28.78h6.822a6.708,6.708,0,0,0,6.709-6.691V6.691A6.708,6.708,0,0,0,308.077,0H277.209A6.708,6.708,0,0,0,270.5,6.691v15.4a6.708,6.708,0,0,0,6.709,6.691H290.99a.037.037,0,0,1,.025.009Zm-17.425-6.7V6.691a3.614,3.614,0,0,1,3.619-3.6h30.868a3.615,3.615,0,0,1,3.619,3.6v15.4a3.615,3.615,0,0,1-3.619,3.6h-7.728a2.185,2.185,0,0,0-2.184,2.181v3.1l-5.107-4.5a3.125,3.125,0,0,0-2.068-.781H277.209A3.615,3.615,0,0,1,273.59,22.089Z" transform="translate(-214.783 0)"/>
          <path id="Trazado_934114" data-name="Trazado 934114" d="M322.128,34.7H334.06a1.545,1.545,0,0,0,0-3.09H322.128a1.545,1.545,0,0,0,0,3.09Z" transform="translate(-254.55 -25.1)"/>
          <path id="Trazado_934115" data-name="Trazado 934115" d="M322.128,64.7h20.6a1.545,1.545,0,0,0,0-3.09h-20.6a1.545,1.545,0,0,0,0,3.09Z" transform="translate(-254.55 -48.92)"/>
          <path id="Trazado_934116" data-name="Trazado 934116" d="M335.605,93.156a1.545,1.545,0,0,0-1.545-1.545H322.128a1.545,1.545,0,0,0,0,3.09H334.06A1.545,1.545,0,0,0,335.605,93.156Z" transform="translate(-254.55 -72.741)"/>
        </g>
      </g>
    </g>
  </g>
</svg>
