<svg xmlns="http://www.w3.org/2000/svg" xmlns:xlink="http://www.w3.org/1999/xlink" width="136.844" height="123.723" viewBox="0 0 136.844 123.723">
  <defs>
    <clipPath id="clip-path">
      <path id="doctor-hombre-adulto-pie-derecho-oficina-hospital" d="M31.767-19.778c15.842,0,29.365,17.692,42.056,33.67,8.9,11.2,17.006,20.761,17.006,32.139,0,11.024-3.113,17.22-6.083,23.081-4.106,8.109-9.782,13.922-20.662,21.211C45.8,102.574,28.592,86.78,14.578,80.268,3.56,75.148-9.573,72.71-18.519,67.285c-3.311-2.008-14.057-8.5-11.311-21.07C-27.307,34.7-10.787,21.79-4.778,14.421,7.252-.331,17.449-19.778,31.767-19.778Z" transform="translate(30.274 19.778)" fill="#3c1c74"/>
    </clipPath>
  </defs>
  <g id="Grupo_1132848" data-name="Grupo 1132848" transform="translate(10926.422 2770.983)">
    <g id="Grupo_1072178" data-name="Grupo 1072178" transform="translate(-10912.422 -2773)">
      <path id="doctor-hombre-adulto-pie-derecho-oficina-hospital-2" data-name="doctor-hombre-adulto-pie-derecho-oficina-hospital" d="M31.767-19.778c15.842,0,29.365,17.692,42.056,33.67,8.9,11.2,17.006,20.761,17.006,32.139,0,11.024-3.113,17.22-6.083,23.081-4.106,8.109-9.782,13.922-20.662,21.211C45.8,102.574,28.592,86.78,14.578,80.268,3.56,75.148-9.573,72.71-18.519,67.285c-3.311-2.008-14.057-8.5-11.311-21.07C-27.307,34.7-10.787,21.79-4.778,14.421,7.252-.331,17.449-19.778,31.767-19.778Z" transform="translate(32.014 21.795)" fill="#bad1ff"/>
      <g id="Elipse_4857" data-name="Elipse 4857" transform="translate(-14 24.516)" fill="none" stroke="#bad1ff" stroke-width="1">
        <circle cx="11" cy="11" r="11" stroke="none"/>
        <circle cx="11" cy="11" r="10.5" fill="none"/>
      </g>
      <ellipse id="Elipse_4858" data-name="Elipse 4858" cx="5.368" cy="4.831" rx="5.368" ry="4.831" transform="translate(112.107 28.589)" fill="#bad1ff"/>
      <path id="Trazado_115346" data-name="Trazado 115346" d="M7.936,0c4.383,0,7.936,3.179,7.936,7.1,0,2.1-.505,3.936-2.342,5.038-1.186.72-3.556.842-5.594.842C3.553,12.98,0,11.022,0,7.1S3.553,0,7.936,0Z" transform="translate(46.42 112.759)" fill="#bad1ff"/>
    </g>
    <g id="loyalty_4371215" transform="translate(-10933.666 -2763.381)">
      <g id="Grupo_1132839" data-name="Grupo 1132839" transform="translate(47.034 1.391)">
        <path id="Trazado_934117" data-name="Trazado 934117" d="M108.191,35.373H112.3v-2.1A3.264,3.264,0,0,1,115.563,30h10.314a5.439,5.439,0,0,0,2.084-.415L138.066,25.4a3.047,3.047,0,0,1,1.887-.158A4.906,4.906,0,0,1,143.69,30v5.369H147.8a4.274,4.274,0,0,1,2.412.741V28.363A20.863,20.863,0,0,0,129.347,7.5h-2.705a20.863,20.863,0,0,0-20.863,20.863v7.752A4.275,4.275,0,0,1,108.191,35.373Z" transform="translate(-96.015 -7.5)" fill="#fe9738"/>
        <path id="Trazado_934118" data-name="Trazado 934118" d="M108.19,35.374H112.3v-2.1a3.262,3.262,0,0,1,3.167-3.259V28.364a20.867,20.867,0,0,1,17.372-20.57,21,21,0,0,0-3.491-.292h-2.705a20.863,20.863,0,0,0-20.863,20.863v7.752A4.275,4.275,0,0,1,108.19,35.374Z" transform="translate(-96.014 -7.501)" fill="#fe860a"/>
        <path id="Trazado_934119" data-name="Trazado 934119" d="M114.313,319.365V298.551a8.822,8.822,0,0,1-2.46-2.91l-6.478-6.476a2.194,2.194,0,0,1-.466-2.412H95.093v7.68a.832.832,0,0,1-1.35.652L85.958,288.9a1.344,1.344,0,0,0-1.671,0L76.5,295.085a.833.833,0,0,1-1.35-.652v-7.68H59.671a6.528,6.528,0,0,0-6.528,6.528v27.7a1.785,1.785,0,0,0,1.785,1.785H71.909a8.791,8.791,0,0,1-1.028-6.034,12.785,12.785,0,0,0,.244-2.368v-7.772A2.195,2.195,0,0,1,73.32,304.4a2.237,2.237,0,0,1,2.195,2.155v3.388l2.438-2.438,8.691-8.691a2.195,2.195,0,0,1,3.1,3.1l3.207-3.207a2.195,2.195,0,0,1,3.1,3.1l-2.069,2.069a2.195,2.195,0,0,1,3.1,3.1l-2.173,2.173a2.195,2.195,0,0,1,3.1,3.1l-10.5,10.5h27.8a1.818,1.818,0,0,0,.216-.014,5.291,5.291,0,0,1-1.22-3.388Z" transform="translate(-53.143 -234.95)" fill="#b3dafe"/>
        <g id="Grupo_1132835" data-name="Grupo 1132835" transform="translate(0 51.803)">
          <path id="Trazado_934120" data-name="Trazado 934120" d="M60.908,320.983v-27.7a6.528,6.528,0,0,1,6.528-6.528H59.671a6.528,6.528,0,0,0-6.528,6.528v27.7a1.785,1.785,0,0,0,1.785,1.785h7.765A1.785,1.785,0,0,1,60.908,320.983Z" transform="translate(-53.143 -286.753)" fill="#8ac9fe"/>
        </g>
        <path id="Trazado_934121" data-name="Trazado 934121" d="M185.486,263.883h-7.455a11.911,11.911,0,0,1-6.243-1.757v12.248a.833.833,0,0,0,1.35.652l7.784-6.181a1.344,1.344,0,0,1,1.671,0l7.784,6.181a.833.833,0,0,0,1.35-.652V262.126A11.909,11.909,0,0,1,185.486,263.883Z" transform="translate(-149.779 -214.891)" fill="#0593fc"/>
        <path id="Trazado_934122" data-name="Trazado 934122" d="M171.788,262.126v12.248a.833.833,0,0,0,1.35.652l4.44-3.525v-7.628A11.9,11.9,0,0,1,171.788,262.126Z" transform="translate(-149.779 -214.891)" fill="#0182fc"/>
        <path id="Trazado_934123" data-name="Trazado 934123" d="M204.2,271.568c-.095,0-.188,0-.283-.006l3.358,5.816a.557.557,0,0,0,.964,0l3.354-5.81H204.2Z" transform="translate(-175.947 -222.577)" fill="#ffbd86"/>
        <path id="Trazado_934124" data-name="Trazado 934124" d="M175.237,358.836a2.195,2.195,0,0,0-3.1,0l2.173-2.173a2.195,2.195,0,0,0-3.1-3.1l2.069-2.069a2.195,2.195,0,1,0-3.1-3.1l-3.207,3.207a2.195,2.195,0,0,0-3.1-3.1l-8.691,8.691-2.438,2.438V356.23a2.237,2.237,0,0,0-2.195-2.155,2.195,2.195,0,0,0-2.195,2.195v7.772a12.782,12.782,0,0,1-.244,2.368,8.778,8.778,0,0,0,14.833,7.841l12.311-12.311a2.2,2.2,0,0,0,0-3.1Z" transform="translate(-130.355 -284.626)" fill="#ffe5c2"/>
        <g id="Grupo_1132838" data-name="Grupo 1132838" transform="translate(7.881 17.658)">
          <path id="Trazado_934125" data-name="Trazado 934125" d="M139.528,112.9H135.42v-5.369a4.906,4.906,0,0,0-3.736-4.764,3.048,3.048,0,0,0-1.887.158l-10.106,4.191a5.439,5.439,0,0,1-2.084.415H107.293a3.264,3.264,0,0,0-3.264,3.264v2.1H99.921a4.3,4.3,0,0,0-4.3,4.3v3.555a4.3,4.3,0,0,0,4.3,4.3h4.486A11.973,11.973,0,0,0,116,134.021h7.455a11.972,11.972,0,0,0,11.59-8.972h4.486a4.3,4.3,0,0,0,4.3-4.3V117.2A4.3,4.3,0,0,0,139.528,112.9Z" transform="translate(-95.626 -102.687)" fill="#ffe5c2"/>
          <g id="Grupo_1132837" data-name="Grupo 1132837" transform="translate(8.404 4.847)">
            <g id="Grupo_1132836" data-name="Grupo 1132836">
              <path id="Trazado_934126" data-name="Trazado 934126" d="M146.691,143.334V132.079a3.264,3.264,0,0,1,3.264-3.264h-5.764a3.264,3.264,0,0,0-3.264,3.264v11.255A11.968,11.968,0,0,0,152.895,155.3h5.764A11.968,11.968,0,0,1,146.691,143.334Z" transform="translate(-140.927 -128.815)" fill="#fed2a4"/>
            </g>
          </g>
        </g>
      </g>
      <g id="Grupo_1132842" data-name="Grupo 1132842" transform="translate(98.624 32.401)">
        <g id="Grupo_1132841" data-name="Grupo 1132841" transform="translate(9.58 32.592)">
          <g id="Grupo_1132840" data-name="Grupo 1132840">
            <path id="Trazado_934127" data-name="Trazado 934127" d="M386.743,371.165V352.022a8.732,8.732,0,0,1-3.858-1.671h0v20.814a5.313,5.313,0,0,0,7.242,4.951A5.314,5.314,0,0,1,386.743,371.165Z" transform="translate(-382.885 -350.351)" fill="#fed2a4"/>
          </g>
        </g>
        <path id="Trazado_934128" data-name="Trazado 934128" d="M352.723,180.66a2.195,2.195,0,0,0-2.195,2.195v-3.073a2.195,2.195,0,1,0-4.39,0v-2.927a2.195,2.195,0,0,0-4.39,0v4.536a2.195,2.195,0,0,0-4.39,0v15.739l-2.367-2.367a2.195,2.195,0,0,0-3.1,3.1l6.478,6.476a8.821,8.821,0,0,0,2.46,2.91v20.814a5.313,5.313,0,0,0,10.627,0V207.253a8.764,8.764,0,0,0,3.466-6.988V182.855A2.195,2.195,0,0,0,352.723,180.66Z" transform="translate(-331.244 -174.661)" fill="#ffe5c2"/>
      </g>
      <g id="Grupo_1132845" data-name="Grupo 1132845" transform="translate(64.619 70.841)">
        <g id="Grupo_1132844" data-name="Grupo 1132844" transform="translate(0)">
          <g id="Grupo_1132843" data-name="Grupo 1132843">
            <path id="Trazado_934129" data-name="Trazado 934129" d="M156.267,402.055a8.767,8.767,0,0,1-2.417-7.841,12.783,12.783,0,0,0,.244-2.368v-5.793l-1.369,1.369v-3.388a2.237,2.237,0,0,0-2.195-2.155,2.2,2.2,0,0,0-2.195,2.195v7.772a12.785,12.785,0,0,1-.244,2.368,8.78,8.78,0,0,0,11.5,9.928A8.749,8.749,0,0,1,156.267,402.055Z" transform="translate(-147.938 -381.879)" fill="#fed2a4"/>
          </g>
        </g>
      </g>
      <g id="Grupo_1132846" data-name="Grupo 1132846" transform="translate(45.643 0)">
        <path id="Trazado_934130" data-name="Trazado 934130" d="M213.315,176.437h1.907a1.391,1.391,0,1,0,0-2.783h-1.088v-2.8a1.391,1.391,0,1,0-2.783,0v3.624A1.966,1.966,0,0,0,213.315,176.437Z" transform="translate(-180.612 -138.022)"/>
        <path id="Trazado_934131" data-name="Trazado 934131" d="M195.177,220.156a7.5,7.5,0,0,0,10.6,0,1.391,1.391,0,0,0-1.968-1.967,4.708,4.708,0,0,1-6.664,0,1.391,1.391,0,0,0-1.968,1.967Z" transform="translate(-167.105 -177.381)"/>
        <path id="Trazado_934132" data-name="Trazado 934132" d="M183.98,161.9a1.391,1.391,0,0,0,1.391-1.391v-1.731a1.391,1.391,0,0,0-2.783,0v1.731A1.391,1.391,0,0,0,183.98,161.9Z" transform="translate(-157.185 -128.191)"/>
        <path id="Trazado_934133" data-name="Trazado 934133" d="M254.87,161.9a1.391,1.391,0,0,0,1.391-1.391v-1.731a1.391,1.391,0,1,0-2.783,0v1.731A1.391,1.391,0,0,0,254.87,161.9Z" transform="translate(-214.924 -128.191)"/>
        <path id="Trazado_934134" data-name="Trazado 934134" d="M120.1,37.009a3.562,3.562,0,0,0-.829.1,3.569,3.569,0,0,0-4.411-3.067,3.584,3.584,0,0,0-7.125.554V35.64a3.546,3.546,0,0,0-3.233.861V33.56a5.674,5.674,0,0,0-1.883-4.224V22.254a22.348,22.348,0,0,0-.668-5.427,1.391,1.391,0,0,0-2.7.676,19.558,19.558,0,0,1,.585,4.75v5.713a5.7,5.7,0,0,0-1.021-.093H96.1V23.9a6.279,6.279,0,0,0-4.8-6.116,4.469,4.469,0,0,0-2.75.224L78.447,22.2A4.028,4.028,0,0,1,76.9,22.5H66.582a4.661,4.661,0,0,0-4.655,4.655v.713H59.21a5.694,5.694,0,0,0-1.02.093V22.254A19.494,19.494,0,0,1,77.662,2.783h2.7a19.382,19.382,0,0,1,16.508,9.143,1.391,1.391,0,0,0,2.358-1.478A22.149,22.149,0,0,0,80.367,0h-2.7A22.279,22.279,0,0,0,55.408,22.254v7.082a5.674,5.674,0,0,0-1.883,4.224v3.555A5.693,5.693,0,0,0,59.211,42.8h3.46a13.427,13.427,0,0,0,4.981,6.566V51.8H53.562a7.928,7.928,0,0,0-7.919,7.919v27.7A3.18,3.18,0,0,0,48.819,90.6h6.907a1.391,1.391,0,1,0,0-2.783H48.819a.394.394,0,0,1-.394-.394v-27.7a5.142,5.142,0,0,1,5.136-5.136h14.09v6.288a2.224,2.224,0,0,0,3.607,1.742l6.363-5.053V66.2L70.86,72.962l0,0-.061.061V73a3.586,3.586,0,0,0-7.172.04v7.772a11.374,11.374,0,0,1-.22,2.11,10.182,10.182,0,0,0,.278,4.9H62.219a1.391,1.391,0,1,0,0,2.783h2.819A10.169,10.169,0,0,0,80.589,92l1.4-1.4h26.848a6.7,6.7,0,0,0,11.385-4.794v-6.6a1.391,1.391,0,1,0-2.783,0v6.6a3.922,3.922,0,0,1-7.844,0V67.392a10.172,10.172,0,0,0,3.922.784,1.391,1.391,0,0,0,0-2.783,7.375,7.375,0,0,1-6.543-3.958,1.4,1.4,0,0,0-.248-.337l-6.476-6.476a.8.8,0,0,1,1.136-1.136l3.6,3.6a1.391,1.391,0,0,0,.984.408h1.954a4.792,4.792,0,0,1,4.786,4.786,1.391,1.391,0,0,0,2.783,0,7.577,7.577,0,0,0-7.569-7.569h-1.378l-.418-.418V39.132a.8.8,0,1,1,1.607,0V51.423a1.391,1.391,0,0,0,1.391,1.391h8.779a1.391,1.391,0,0,0,1.391-1.391V40.595a.8.8,0,1,1,1.607,0V58.005a7.338,7.338,0,0,1-2.918,5.881,1.391,1.391,0,0,0-.548,1.107v7.725a1.391,1.391,0,1,0,2.783,0V65.653a10.087,10.087,0,0,0,3.466-7.647V40.595a3.59,3.59,0,0,0-3.586-3.586ZM59.211,40.019a2.907,2.907,0,0,1-2.9-2.9V33.56a2.907,2.907,0,0,1,2.9-2.9h2.717v7.759a13.4,13.4,0,0,0,.1,1.6Zm36.89-1.6V30.656h2.717a2.907,2.907,0,0,1,2.9,2.9v3.555a2.907,2.907,0,0,1-2.9,2.9H96A13.471,13.471,0,0,0,96.1,38.415Zm-31.391,0V27.16a1.875,1.875,0,0,1,1.873-1.873H76.9a6.794,6.794,0,0,0,2.617-.521l10.106-4.191a1.669,1.669,0,0,1,1.024-.092A3.5,3.5,0,0,1,93.318,23.9V38.415A10.588,10.588,0,0,1,82.742,48.991H75.286A10.588,10.588,0,0,1,64.71,38.415ZM83.5,51.75a13.249,13.249,0,0,0,4.1-.891v8.858L81.63,54.983ZM70.435,59.717V50.859a13.243,13.243,0,0,0,3.742.869l1.986,3.441Zm6.982-7.943H80.27l-1.426,2.471Zm5.859,33.6-4.655,4.655a7.387,7.387,0,0,1-12.482-6.6,14.1,14.1,0,0,0,.268-2.626V73.036a.8.8,0,0,1,.8-.8.849.849,0,0,1,.8.763v3.388a1.391,1.391,0,0,0,2.375.984l4.561-4.561,6.568-6.568a.8.8,0,1,1,1.136,1.136l-8.691,8.691a1.391,1.391,0,0,0,1.968,1.967l11.9-11.9a.8.8,0,0,1,1.136,1.136L86.9,69.34h0l-9.829,9.829a1.391,1.391,0,0,0,1.968,1.967l9.83-9.83A.8.8,0,0,1,90,72.445l-9.829,9.829a1.391,1.391,0,0,0,1.968,1.967L89.8,76.586a.8.8,0,1,1,1.136,1.136l-7.656,7.656h0Zm21.339-22.456a10.2,10.2,0,0,0,2.2,2.732V85.807a6.676,6.676,0,0,0,.309,2.011H84.772L92.9,79.689a3.586,3.586,0,0,0,0-5.072,3.612,3.612,0,0,0-.657-.516,3.582,3.582,0,0,0-.274-4.761,3.6,3.6,0,0,0-.676-.527,3.584,3.584,0,0,0-5.43-4.646l-.738.738a3.6,3.6,0,0,0-.5-.634,3.59,3.59,0,0,0-4.218-.633V57.563l6.363,5.053a2.224,2.224,0,0,0,3.607-1.742V54.586h6.9a3.563,3.563,0,0,0,1.005,2Zm-3.8-12.454A3.573,3.573,0,0,0,98.028,51.8H90.376V49.368A13.428,13.428,0,0,0,95.357,42.8h3.46a5.68,5.68,0,0,0,4.53-2.254V51.422c0,.028,0,.059,0,.092A3.562,3.562,0,0,0,100.819,50.469Zm11.308-12.947V50.031h-1.607V34.6a.8.8,0,1,1,1.607,0Zm4.39,3.073v9.436h-1.607V37.522a.8.8,0,1,1,1.607,0Z" transform="translate(-45.643 0)"/>
      </g>
    </g>
  </g>
</svg>
