<svg xmlns="http://www.w3.org/2000/svg" xmlns:xlink="http://www.w3.org/1999/xlink" width="136.844" height="123.724" viewBox="0 0 136.844 123.724">
  <defs>
    <clipPath id="clip-path">
      <path id="doctor-hombre-adulto-pie-derecho-oficina-hospital" d="M31.767-19.778c15.842,0,29.365,17.692,42.056,33.67,8.9,11.2,17.006,20.761,17.006,32.139,0,11.024-3.113,17.22-6.083,23.081-4.106,8.109-9.782,13.922-20.662,21.211C45.8,102.574,28.592,86.78,14.578,80.268,3.56,75.148-9.573,72.71-18.519,67.285c-3.311-2.008-14.057-8.5-11.311-21.07C-27.307,34.7-10.787,21.79-4.778,14.421,7.252-.331,17.449-19.778,31.767-19.778Z" transform="translate(30.274 19.778)" fill="#3c1c74"/>
    </clipPath>
  </defs>
  <g id="Grupo_1132854" data-name="Grupo 1132854" transform="translate(10926.422 2770.984)">
    <g id="Grupo_1132847" data-name="Grupo 1132847">
      <path id="doctor-hombre-adulto-pie-derecho-oficina-hospital-2" data-name="doctor-hombre-adulto-pie-derecho-oficina-hospital" d="M31.767-19.778c15.842,0,29.365,17.692,42.056,33.67,8.9,11.2,17.006,20.761,17.006,32.139,0,11.024-3.113,17.22-6.083,23.081-4.106,8.109-9.782,13.922-20.662,21.211C45.8,102.574,28.592,86.78,14.578,80.268,3.56,75.148-9.573,72.71-18.519,67.285c-3.311-2.008-14.057-8.5-11.311-21.07C-27.307,34.7-10.787,21.79-4.778,14.421,7.252-.331,17.449-19.778,31.767-19.778Z" transform="translate(-10880.407 -2751.206)" fill="#bad1ff"/>
      <g id="Elipse_4857" data-name="Elipse 4857" transform="translate(-10926.422 -2748.484)" fill="none" stroke="#bad1ff" stroke-width="1">
        <circle cx="11" cy="11" r="11" stroke="none"/>
        <circle cx="11" cy="11" r="10.5" fill="none"/>
      </g>
      <ellipse id="Elipse_4858" data-name="Elipse 4858" cx="5.368" cy="4.831" rx="5.368" ry="4.831" transform="translate(-10800.314 -2744.411)" fill="#bad1ff"/>
      <path id="Trazado_115346" data-name="Trazado 115346" d="M7.936,0c4.383,0,7.936,3.179,7.936,7.1,0,2.1-.505,3.936-2.342,5.038-1.186.72-3.556.842-5.594.842C3.553,12.98,0,11.022,0,7.1S3.553,0,7.936,0Z" transform="translate(-10866.002 -2660.241)" fill="#bad1ff"/>
    </g>
    <g id="argument_9185732" transform="translate(-10896.871 -2761.992)">
      <g id="Grupo_1132852" data-name="Grupo 1132852" transform="translate(1.344 1.344)">
        <path id="Trazado_934135" data-name="Trazado 934135" d="M58.163,184.4v27.133l-7.346.007h-.69l-21.316.018v-27.14a15.479,15.479,0,0,1,3.6-9.923l.009-.013a12.407,12.407,0,0,1,9.521-4.453h3.214l.812.138a8.559,8.559,0,0,1,4.334,1.027,12.364,12.364,0,0,1,4.255,3.272A15.488,15.488,0,0,1,58.163,184.4Z" transform="translate(-24.992 -140.909)" fill="#707070"/>
        <path id="Trazado_934136" data-name="Trazado 934136" d="M354.595,340.013c-3.706,7.851-13.841,7.227-16.736,0l1.867-.477a1.638,1.638,0,0,0,1.26-1.593v-.908l.7-1.474v-4.738h9.309l.1,4.738.377,1.473v.91a1.637,1.637,0,0,0,1.258,1.593Z" transform="translate(-278.667 -272.891)" fill="#cb6d49"/>
        <path id="Trazado_934137" data-name="Trazado 934137" d="M327.169,190.279h-2.052a4.1,4.1,0,0,0,3.137-1.419l.576-1c4.745-8.24,1.267-18.558-7.912-21.041a11.29,11.29,0,0,0-3.381-.607q-.209,0-.417,0c-.7.013-2.122-.043-2.122-.043a14.578,14.578,0,0,0-9.921,22.014l.044.072c.515.842,1.43,2.022,2.417,2.022h19.631Z" transform="translate(-249.977 -137.741)" fill="#fed059"/>
        <path id="Trazado_934138" data-name="Trazado 934138" d="M385.591,187l-.575,1a2.833,2.833,0,0,1-2.455,1.419l-3.59-.88L378.7,176.3c0-5.273-2.174-9.59-8.314-11a14.369,14.369,0,0,1,2.084-.186c.14,0,.278,0,.417,0a15.823,15.823,0,0,1,4.021.547A14.557,14.557,0,0,1,385.591,187Z" transform="translate(-305.369 -136.877)" fill="#ffbc50"/>
        <path id="Trazado_934139" data-name="Trazado 934139" d="M365.794,330.822v6.211a8.056,8.056,0,0,1-10.484,0v-6.213Z" transform="translate(-292.991 -272.891)" fill="#bf553c"/>
        <path id="Trazado_934140" data-name="Trazado 934140" d="M345.786,246.983l-2.031,2.043-.194.151a6.274,6.274,0,0,1-7.711,0l-2.384-1.857a9.212,9.212,0,0,1-3.551-7.267v-9.038a3.608,3.608,0,0,1,4.753-3.422l2.215.741a8.9,8.9,0,0,0,5.647,0,24.639,24.639,0,0,1,2.951-.905,4.3,4.3,0,0,1,3.492,4.213l-.316,7.842C348.658,242.323,348.027,245.237,345.786,246.983Z" transform="translate(-272.147 -188.002)" fill="#d98556"/>
        <path id="Trazado_934141" data-name="Trazado 934141" d="M412.115,231.016v9.039a9.216,9.216,0,0,1-3.551,7.267l-2.363,1.84a11.141,11.141,0,0,0,2.689-7.352V229.983a4.377,4.377,0,0,0-.792-2.551A3.61,3.61,0,0,1,412.115,231.016Z" transform="translate(-334.763 -188.005)" fill="#cb6d49"/>
        <path id="Trazado_934142" data-name="Trazado 934142" d="M271.353,389.569a8.763,8.763,0,0,0-6.731,8.524v11.164a.717.717,0,0,0,.717.717h6.974l1.792-9.41-1.792-11.224Z" transform="translate(-218.552 -320.924)" fill="#d98556"/>
        <path id="Trazado_934143" data-name="Trazado 934143" d="M460.7,398.093V408.9a.717.717,0,0,1-.717.717l-2.912.358h-3.7l-1.792-8.751,1.792-11.883.959.588a7.067,7.067,0,0,1,3.77,1.933A8.756,8.756,0,0,1,460.7,398.093Z" transform="translate(-372.012 -320.924)" fill="#d98556"/>
        <path id="Trazado_934144" data-name="Trazado 934144" d="M329.708,382.117l-1.963,2.285a8.444,8.444,0,0,1-12.809,0l-1.963-2.285-5.432,1.294v20.634h27.6V383.411Z" transform="translate(-253.78 -314.995)" fill="#707070"/>
        <path id="Trazado_934145" data-name="Trazado 934145" d="M134.83,184.4v27.133l-9.138.007-2.215-2.215V198.483a22.071,22.071,0,0,0,5.572-14.838c0-9.315-9.02-13.616-9.02-13.616h1.695a12.389,12.389,0,0,1,9.5,4.436A15.487,15.487,0,0,1,134.83,184.4Z" transform="translate(-99.867 -140.909)" fill="#5e5d5d"/>
        <path id="Trazado_934146" data-name="Trazado 934146" d="M35.39,7.858,32.344,7.5H8.826A1.326,1.326,0,0,0,7.5,8.826V27.893a1.326,1.326,0,0,0,1.326,1.326H13.3a.663.663,0,0,1,.663.663V32.14a.6.6,0,0,0,.98.455l3.814-3.22a.663.663,0,0,1,.428-.156H32.344l3.046-.358a1.326,1.326,0,0,0,1.326-1.326V9.184A1.326,1.326,0,0,0,35.39,7.858Z" transform="translate(-7.5 -7.5)" fill="#fed059"/>
        <g id="Grupo_1132849" data-name="Grupo 1132849" transform="translate(24.665)">
          <path id="Trazado_934147" data-name="Trazado 934147" d="M148.742,7.5h-3.584a1.326,1.326,0,0,1,1.326,1.326V27.893a1.326,1.326,0,0,1-1.326,1.326h3.584a1.326,1.326,0,0,0,1.326-1.326V8.826A1.326,1.326,0,0,0,148.742,7.5Z" transform="translate(-145.158 -7.5)" fill="#ffbc50"/>
        </g>
        <path id="Trazado_934148" data-name="Trazado 934148" d="M93.8,340.025,93.877,338a1.8,1.8,0,0,1-1.32-1.735V334.88l-1.792-6.045H84.786l-1.792,6.045v1.387A1.8,1.8,0,0,1,81.674,338l.077,2.023A6.717,6.717,0,0,0,93.8,340.025Z" transform="translate(-68.384 -271.26)" fill="#ffc2ab"/>
        <path id="Trazado_934149" data-name="Trazado 934149" d="M15.912,406.985a3.63,3.63,0,0,0-.258-2.9l-4.334-6.4a8.957,8.957,0,0,0-3.82,7.36v11.061a.717.717,0,0,0,.717.717l6.535.023.538-5.97A11.784,11.784,0,0,1,15.912,406.985Z" transform="translate(-7.5 -327.778)" fill="#ffd9c4"/>
        <path id="Trazado_934150" data-name="Trazado 934150" d="M98.606,330.747v5.7l-.521.348a7.653,7.653,0,0,1-8.52,0l-.521-.348v-5.7Z" transform="translate(-74.432 -272.829)" fill="#ffaf9c"/>
        <path id="Trazado_934151" data-name="Trazado 934151" d="M183.486,405.23v10.523a.718.718,0,0,1-.717.717l-2.946.358h-3.209l-.717-5.97a12.481,12.481,0,0,0-.624-3.9,3.634,3.634,0,0,1,.258-2.9l1.63-2.908,2.861-3.467c.4.285.43.781.785,1.131a9.012,9.012,0,0,1,2.677,6.409Z" transform="translate(-145.06 -327.778)" fill="#ffd9c4"/>
        <path id="Trazado_934152" data-name="Trazado 934152" d="M56.189,389.9a3.634,3.634,0,0,0-.258,2.9,12.48,12.48,0,0,1,.624,3.9v5.612H32.23V396.7a12.531,12.531,0,0,1,.622-3.9,3.627,3.627,0,0,0-.258-2.9L28.82,383.17a9,9,0,0,1,2.79-1.324L38.289,380l.079.231a6.717,6.717,0,0,0,12.048,0l.077-.231,4.437,2.1s2.429,2.265,3.274,2.86l-.109,1.548Z" transform="translate(-25 -313.257)" fill="#ff7bae"/>
        <path id="Trazado_934153" data-name="Trazado 934153" d="M340.769,7.5h23.518l3.046.358a1.326,1.326,0,0,1,1.326,1.326l.179,18.35a1.326,1.326,0,0,1-1.326,1.326l-3.225.358H363.22a.663.663,0,0,0-.663.663V32.14a.6.6,0,0,1-.98.455l-3.814-3.22a.663.663,0,0,0-.428-.156H340.769a1.326,1.326,0,0,1-1.326-1.326V8.826A1.326,1.326,0,0,1,340.769,7.5Z" transform="translate(-279.967 -7.5)" fill="#fed059"/>
        <g id="Grupo_1132850" data-name="Grupo 1132850" transform="translate(84.141)">
          <path id="Trazado_934154" data-name="Trazado 934154" d="M480.684,7.5H477.1a1.326,1.326,0,0,1,1.326,1.326V27.893a1.326,1.326,0,0,1-1.326,1.326h3.583a1.326,1.326,0,0,0,1.326-1.326V8.826A1.326,1.326,0,0,0,480.684,7.5Z" transform="translate(-477.1 -7.5)" fill="#ffbc50"/>
        </g>
        <path id="Trazado_934155" data-name="Trazado 934155" d="M214.58,42.377l-5.105,14.811a1.174,1.174,0,0,0,1.11,1.557h5.381a.358.358,0,0,1,.348.444L214.4,66.97a1.388,1.388,0,0,0,2.453,1.172l9.4-12.363a1.937,1.937,0,0,0-1.542-3.109h-5.585a.358.358,0,0,1-.338-.479l3.42-9.579a.768.768,0,0,0-.724-1.027h-5.8A1.174,1.174,0,0,0,214.58,42.377Z" transform="translate(-173.233 -35.479)" fill="#ff7bae"/>
        <path id="Trazado_934156" data-name="Trazado 934156" d="M79.945,228.913v6.594a15.789,15.789,0,0,1-4.856,10.55,1.028,1.028,0,0,1-.1.068L73.083,247.4a3.98,3.98,0,0,1-4.422,0l-1.91-1.278a12.782,12.782,0,0,1-5.671-10.618v-6.594a3.731,3.731,0,0,1,4.915-3.539l2.286.765a8.159,8.159,0,0,0,5.18,0l2.288-.765a3.651,3.651,0,0,1,.865-.179C78.725,225.007,79.945,226.668,79.945,228.913Z" transform="translate(-51.48 -186.176)" fill="#ffd9c4"/>
        <g id="Grupo_1132851" data-name="Grupo 1132851" transform="translate(23.61 39.004)">
          <path id="Trazado_934157" data-name="Trazado 934157" d="M144.842,228.921v6.594a12.772,12.772,0,0,1-5.572,10.55,10.707,10.707,0,0,0,2.284-6.642v-11.8a4.174,4.174,0,0,0-.76-2.424A3.73,3.73,0,0,1,144.842,228.921Z" transform="translate(-139.27 -225.189)" fill="#ffc2ab"/>
        </g>
        <path id="Trazado_934158" data-name="Trazado 934158" d="M195.22,398.641a9.172,9.172,0,0,0-1.143-.951l-1.6,1.353-.272,1.981c1.136,1.641,1.669,2.344,1.669,4.123v11.68h3.3a.718.718,0,0,0,.717-.717v-11.06A9.012,9.012,0,0,0,195.22,398.641Z" transform="translate(-159.112 -327.778)" fill="#ffc2ab"/>
        <path id="Trazado_934159" data-name="Trazado 934159" d="M156.46,381.846,149.78,380a24.489,24.489,0,0,1,7.6,6.5l1.869-3.334A9.012,9.012,0,0,0,156.46,381.846Z" transform="translate(-124.287 -313.257)" fill="#ff61a7"/>
        <path id="Trazado_934160" data-name="Trazado 934160" d="M469.27,398.093v11.164a.716.716,0,0,1-.717.717h-3.27v-12.3a11.417,11.417,0,0,0-3.7-8.332l.959.229a8.764,8.764,0,0,1,6.732,8.523Z" transform="translate(-380.22 -320.924)" fill="#cb6d49"/>
      </g>
      <g id="Grupo_1132853" data-name="Grupo 1132853" transform="translate(0 0)">
        <path id="Trazado_934161" data-name="Trazado 934161" d="M37.65,203.993V178.244a16.861,16.861,0,0,0-3.919-10.8A13.733,13.733,0,0,0,23.2,162.53H18.292A13.71,13.71,0,0,0,7.708,167.5a16.852,16.852,0,0,0-3.89,10.757v9.392a1.344,1.344,0,1,0,2.688,0v-9.392A14.161,14.161,0,0,1,9.793,169.2a11.03,11.03,0,0,1,8.5-3.983H23.2a11.109,11.109,0,0,1,4.674,1.038,10.944,10.944,0,0,1,3.793,2.916,14.169,14.169,0,0,1,3.294,9.072v24.169a10.271,10.271,0,0,0-1.087-.368L27.2,200.2a.457.457,0,0,1-.335-.439v-4.891a14.091,14.091,0,0,0,5.01-10.786v-6.594a5.074,5.074,0,0,0-6.684-4.812l-2.288.765a6.859,6.859,0,0,1-4.327,0l-2.287-.765A5.074,5.074,0,0,0,9.6,177.488v6.594a14.09,14.09,0,0,0,5.01,10.786v4.891a.457.457,0,0,1-.335.439L7.6,202.045a10.327,10.327,0,0,0-1.09.369v-8.489a1.344,1.344,0,0,0-2.688,0v10.07q-.387.314-.743.666A10.419,10.419,0,0,0,0,212.025V223.8a1.344,1.344,0,1,0,2.688,0V212.025a7.716,7.716,0,0,1,2.122-5.291l2.953,5.317a2.3,2.3,0,0,1,.156,1.827,13.826,13.826,0,0,0-.689,4.313V223.8a1.344,1.344,0,1,0,2.688,0v-5.612a11.135,11.135,0,0,1,.555-3.476,4.992,4.992,0,0,0-.36-3.969L7,205.135a7.661,7.661,0,0,1,1.316-.5l5.626-1.555a8.053,8.053,0,0,0,13.594,0l5.626,1.555a7.661,7.661,0,0,1,1.316.5l-3.116,5.61a4.992,4.992,0,0,0-.36,3.969,11.137,11.137,0,0,1,.555,3.476V223.8a1.344,1.344,0,1,0,2.688,0v-5.612a13.828,13.828,0,0,0-.689-4.313,2.3,2.3,0,0,1,.156-1.827l2.953-5.317a7.716,7.716,0,0,1,2.122,5.291V223.8a1.344,1.344,0,1,0,2.688,0V212.025a10.419,10.419,0,0,0-3.075-7.364q-.357-.353-.746-.668Zm-16.915.135a5.254,5.254,0,0,1-4.327-2.184,3.144,3.144,0,0,0,.889-2.184v-2.986l.479.321a5.3,5.3,0,0,0,5.916,0l.479-.321v2.986a3.144,3.144,0,0,0,.889,2.184,5.253,5.253,0,0,1-4.327,2.184Zm3.373-10.544L22.2,194.861a2.623,2.623,0,0,1-2.927,0l-1.909-1.278a11.411,11.411,0,0,1-5.074-9.5v-6.594a2.392,2.392,0,0,1,2.379-2.389,2.406,2.406,0,0,1,.765.126l2.287.765a9.559,9.559,0,0,0,6.032,0l2.287-.765a2.387,2.387,0,0,1,3.144,2.263v6.594A11.412,11.412,0,0,1,24.108,193.584Z" transform="translate(0 -133.409)"/>
        <path id="Trazado_934162" data-name="Trazado 934162" d="M2.67,24.407H6.46v1.578a1.939,1.939,0,0,0,3.19,1.482l3.624-3.059H29.592a2.673,2.673,0,0,0,2.67-2.67V2.67A2.673,2.673,0,0,0,29.592,0H2.67A2.673,2.673,0,0,0,0,2.67V21.737a2.673,2.673,0,0,0,2.67,2.67ZM2.688,2.688H29.574V21.719H13.026a2.01,2.01,0,0,0-1.295.473L9.148,24.373v-.647a2.009,2.009,0,0,0-2.007-2.007H2.688Z" transform="translate(0 0)"/>
        <path id="Trazado_934163" data-name="Trazado 934163" d="M295.027,196.235l-8.259-1.968a.293.293,0,0,1-.226-.286v-4.73l.48-.374a10.478,10.478,0,0,0,3.882-6.351,4.128,4.128,0,0,0,2.3-1.891l.585-1.034a16.354,16.354,0,0,0,.889-14.346,15.658,15.658,0,0,0-10.218-9.217,16.879,16.879,0,0,0-4.49-.641h-.02a16.892,16.892,0,0,0-4.49.641,15.66,15.66,0,0,0-10.218,9.217,16.355,16.355,0,0,0,.889,14.346l.585,1.035a4.132,4.132,0,0,0,2.3,1.891,10.477,10.477,0,0,0,3.882,6.351l.48.374v4.73a.293.293,0,0,1-.226.286l-8.259,1.968a10.107,10.107,0,0,0-7.764,9.831v11.881a1.344,1.344,0,1,0,2.688,0V206.066a7.4,7.4,0,0,1,5-7.01v18.891a1.344,1.344,0,1,0,2.688,0V198.375l3.852-.918,1.676,1.951a9.134,9.134,0,0,0,13.856,0l1.676-1.951,3.852.918v19.572a1.344,1.344,0,1,0,2.688,0V199.057a7.4,7.4,0,0,1,5,7.01v11.881a1.344,1.344,0,1,0,2.688,0V206.066a10.107,10.107,0,0,0-7.764-9.831Zm-26.2-24.724V178.9l-.355-.627a13.682,13.682,0,0,1-.742-12,12.987,12.987,0,0,1,8.467-7.653,13.424,13.424,0,0,1,7.53,0,12.987,12.987,0,0,1,8.467,7.653,13.683,13.683,0,0,1-.742,12l-.355.627v-7.394a4.952,4.952,0,0,0-6.523-4.7l-2.215.741a7.605,7.605,0,0,1-4.794,0l-2.215-.741a4.952,4.952,0,0,0-6.523,4.7Zm16.024,26.145a6.446,6.446,0,0,1-9.779,0l-.806-.938a2.97,2.97,0,0,0,1.8-2.737V191.27a7.606,7.606,0,0,0,7.8,0v2.712a2.97,2.97,0,0,0,1.8,2.737Zm.525-10.9-2.385,1.857a4.925,4.925,0,0,1-6.059,0l-2.384-1.857a7.818,7.818,0,0,1-3.033-6.207v-9.038a2.27,2.27,0,0,1,2.257-2.267,2.285,2.285,0,0,1,.725.119l2.215.741a10.308,10.308,0,0,0,6.5,0l2.215-.741a2.264,2.264,0,0,1,2.983,2.147v9.038A7.817,7.817,0,0,1,285.371,186.757Z" transform="translate(-211.053 -127.554)"/>
        <path id="Trazado_934164" data-name="Trazado 934164" d="M53.873,39.993a1.344,1.344,0,0,0,1.344-1.344V32.684a1.344,1.344,0,1,0-2.688,0V38.65A1.344,1.344,0,0,0,53.873,39.993Z" transform="translate(-43.117 -25.725)"/>
        <path id="Trazado_934165" data-name="Trazado 934165" d="M83.873,39.993a1.344,1.344,0,0,0,1.344-1.344V32.684a1.344,1.344,0,1,0-2.688,0V38.65A1.344,1.344,0,0,0,83.873,39.993Z" transform="translate(-67.742 -25.725)"/>
        <path id="Trazado_934166" data-name="Trazado 934166" d="M113.873,39.993a1.344,1.344,0,0,0,1.344-1.344V32.684a1.344,1.344,0,0,0-2.688,0V38.65A1.344,1.344,0,0,0,113.873,39.993Z" transform="translate(-92.367 -25.725)"/>
        <path id="Trazado_934167" data-name="Trazado 934167" d="M361.533,0H344.663a1.344,1.344,0,0,0,0,2.688h16.852V21.72H357.06a2.009,2.009,0,0,0-2.007,2.007v.646l-2.588-2.184a2.015,2.015,0,0,0-1.29-.468H334.628V2.688h3.765a1.344,1.344,0,0,0,0-2.688H334.61a2.673,2.673,0,0,0-2.67,2.67V21.738a2.673,2.673,0,0,0,2.67,2.67h16.319l3.62,3.055a1.939,1.939,0,0,0,3.193-1.479V24.407h3.791a2.673,2.673,0,0,0,2.67-2.67V2.67A2.673,2.673,0,0,0,361.533,0Z" transform="translate(-272.465 0)"/>
        <path id="Trazado_934168" data-name="Trazado 934168" d="M445.815,39.993a1.344,1.344,0,0,0,1.344-1.344V32.684a1.344,1.344,0,0,0-2.688,0V38.65A1.344,1.344,0,0,0,445.815,39.993Z" transform="translate(-364.833 -25.725)"/>
        <path id="Trazado_934169" data-name="Trazado 934169" d="M415.815,39.993a1.344,1.344,0,0,0,1.344-1.344V32.684a1.344,1.344,0,1,0-2.688,0V38.65A1.344,1.344,0,0,0,415.815,39.993Z" transform="translate(-340.208 -25.725)"/>
        <path id="Trazado_934170" data-name="Trazado 934170" d="M385.815,39.993a1.344,1.344,0,0,0,1.344-1.344V32.684a1.344,1.344,0,1,0-2.688,0V38.65A1.344,1.344,0,0,0,385.815,39.993Z" transform="translate(-315.583 -25.725)"/>
        <path id="Trazado_934171" data-name="Trazado 934171" d="M221.5,47a3.261,3.261,0,0,0-2.94-1.825h-4.187l2.949-8.262a2.11,2.11,0,0,0-1.989-2.822h-5.8a2.518,2.518,0,0,0-2.379,1.7l-1.3,3.757a1.344,1.344,0,1,0,2.541.876l1.256-3.642h4.858L211.2,46.066a1.344,1.344,0,0,0,1.266,1.8h6.094a.592.592,0,0,1,.471.951l-9.4,12.363c-.01.013-.018.021-.019.024a.288.288,0,0,1-.065-.021.148.148,0,0,1,.006-.04l2.023-8.226a1.344,1.344,0,0,0-1.3-1.665h-5.6l1.687-4.894a1.344,1.344,0,0,0-2.541-.876L202.054,50.6a2.519,2.519,0,0,0,2.382,3.336h4.123L206.946,60.5a2.708,2.708,0,0,0,1.474,3.117,2.754,2.754,0,0,0,1.19.273,2.711,2.711,0,0,0,2.163-1.083l9.4-12.362A3.259,3.259,0,0,0,221.5,47Z" transform="translate(-165.74 -27.982)"/>
        <circle id="Elipse_9684" data-name="Elipse 9684" cx="1.344" cy="1.344" r="1.344" transform="translate(9.412 16.165)"/>
        <circle id="Elipse_9685" data-name="Elipse 9685" cx="1.344" cy="1.344" r="1.344" transform="translate(14.787 16.165)"/>
        <circle id="Elipse_9686" data-name="Elipse 9686" cx="1.344" cy="1.344" r="1.344" transform="translate(20.163 16.165)"/>
        <circle id="Elipse_9687" data-name="Elipse 9687" cx="1.344" cy="1.344" r="1.344" transform="translate(68.888 16.165)"/>
        <circle id="Elipse_9688" data-name="Elipse 9688" cx="1.344" cy="1.344" r="1.344" transform="translate(74.263 16.165)"/>
        <circle id="Elipse_9689" data-name="Elipse 9689" cx="1.344" cy="1.344" r="1.344" transform="translate(79.638 16.165)"/>
      </g>
    </g>
  </g>
</svg>
