<svg xmlns="http://www.w3.org/2000/svg" xmlns:xlink="http://www.w3.org/1999/xlink" width="1600" height="805" viewBox="0 0 1600 805">
  <defs>
    <clipPath id="clip-path">
      <rect id="Rectángulo_417383" data-name="Rectángulo 417383" width="1600" height="805" transform="translate(0 9851)" fill="none"/>
    </clipPath>
  </defs>
  <g id="Enmascarar_grupo_1079220" data-name="Enmascarar grupo 1079220" transform="translate(0 -9851)" clip-path="url(#clip-path)">
    <g id="Grupo_1108951" data-name="Grupo 1108951" transform="translate(-214.682 9899.13)">
      <path id="Trazado_912571" data-name="Trazado 912571" d="M481.962,157.571c-1.912.474-1.573.763-.2.966a45.156,45.156,0,0,0,6.147.169l3.538-2.728s-2.359.424-4.718.864c-2.359.424-4.771.746-4.771.746Z" transform="translate(-480.63 -150.86)" fill="#ffb6c8"/>
      <path id="Trazado_912572" data-name="Trazado 912572" d="M468.958,162.315s2.591-.813,5.289-1.407a45.834,45.834,0,0,1,5.522-.881s-2.037.051-4.021.305c-1.984.237-3.913.644-3.913.644-4.378-.237-4.2-.763-2.43-1.44a32,32,0,0,1,6.915-1.356,26.291,26.291,0,0,0-7.094.932c-1.179.39-1.412.78-1.269,1.118.286.695,2.055,1.373,1,2.084Z" transform="translate(-446.237 -158.18)" fill="#ffb6c8"/>
      <path id="Trazado_912573" data-name="Trazado 912573" d="M460.844,156.108c2.5,2.389,3.181,3.559,3.61,3.372.393-.136.2-1.61-.733-2.982a3.275,3.275,0,0,1-1.09-.491c-.429-.186-.893-.441-1.412-.644-.965-.373-1.43-.373-.375.729Z" transform="translate(-417.394 -150.211)" fill="#ffb6c8"/>
      <path id="Trazado_912574" data-name="Trazado 912574" d="M337.012,102.816l.465-.474c.161-.169.214-.2.322-.305.214-.186.411-.373.59-.542.357-.322.661-.525.8-.373.125-.627.089-1-.2-.83a2.962,2.962,0,0,0-.625.678c-.143.186-.3.407-.518.678-.25.322-.518.712-.84,1.152Z" transform="translate(-71.8 -0.513)" fill="#ffb6c8"/>
      <path id="Trazado_912575" data-name="Trazado 912575" d="M337.186,100.76c-.054.237-.107.508-.2.83a5.767,5.767,0,0,0,.3-.729c0-.085-.072-.068-.107-.1Z" transform="translate(-69.795 -0.152)" fill="#ffb6c8"/>
      <path id="Trazado_912576" data-name="Trazado 912576" d="M431.286,75.7a60.014,60.014,0,0,1-8.631,4.2c-.643.271-1.251.474-1.894.712-.643.254-1.269.475-1.841.661-1.412.508-2.895,1.034-4.557,1.627l-4.664-.356c-7.541,3.1-2.895,2.542-8.077,5.219a130.116,130.116,0,0,0-13.474,3.745c-4.628,1.44-8.72,2.576-10.221,2.813-2.252-.39,2.341-1.559,3.252-2.355-2.019.661-3.413,1.085-4.61,1.593-1.179.424-2.109.847-3.127,1.271a22.425,22.425,0,0,1-9.078,1.508l-.143-.474c-.7.1-1.412.068-2.144.1l-1.09.034h-.5l-.25.034-1.054.051h-.715a2.58,2.58,0,0,1-2.52-1.508,3.408,3.408,0,0,1-.143-1.593,4.668,4.668,0,0,1,.143-.847c.036-.169.143-.424.2-.644a7.651,7.651,0,0,1,.268-.763,92.588,92.588,0,0,1,4.682-9.507c3.627-6.711,7.952-13.625,11.061-22.047a34.258,34.258,0,0,0,1.054-3.288c.339-1.085.572-2.339.822-3.525a32.644,32.644,0,0,0,.447-3.83,24.072,24.072,0,0,0-.214-4.2c-.125-.729-.214-1.508-.411-2.237-.214-.712-.465-1.44-.715-2.135a10.893,10.893,0,0,0-.947-2.1,17.418,17.418,0,0,0-1.019-1.729,22.419,22.419,0,0,0-5.915-6.253c2.43,2.084,1.465,1.915,2.055,2.966a20.05,20.05,0,0,0-6.236-4.372,22.987,22.987,0,0,0-7.309-1.9,39.166,39.166,0,0,0-12.938,1.2C333,29.726,326.2,32.759,319.6,35.657q-4.825,2.186-9.578,4.338c-3.61,1.559-4.914,2.22-7.148,3.067A22.584,22.584,0,0,1,296,44.689a8.488,8.488,0,0,1-3.574-.61,7.761,7.761,0,0,1-2.7-2.118,5.9,5.9,0,0,1-1.573-4.338,12.936,12.936,0,0,1,1.179-4.27,19.051,19.051,0,0,0-2.395,4.474,7.243,7.243,0,0,0,.357,5.541,7.533,7.533,0,0,0,3.842,4.033,12.465,12.465,0,0,0,5.986.729,49.868,49.868,0,0,0,12.473-3.254,186.193,186.193,0,0,0,22.873-10.727c3.413-.542,7.487-1.966,11.347-2.762,3.824-.83,7.505-.83,8.881.22a17.28,17.28,0,0,1,8.845,3.44,18.34,18.34,0,0,1,5,6.456A17.053,17.053,0,0,1,367.8,48.79a32.089,32.089,0,0,1-1.054,6.761c-2.323,8.642-6.5,16.4-12.223,26.554-1.876,2.762-1.912.966-3.163,1.44,0,0,1.984-4.186,4.217-8.354,1.09-2.084,2.18-4.186,3-5.762.8-1.576,1.34-2.644,1.34-2.644s-1.555,2.44-3.181,4.847l-3.234,4.8c.876-2.339,3.038-6.05,4.753-9.439,1.751-3.389,2.948-6.507,2.484-7.439A81.067,81.067,0,0,1,355,72.006c-2.377,4.406-5.093,8.981-7.255,13.76a31.914,31.914,0,0,0-2.52,7.439,10.479,10.479,0,0,0,.84,7.219,9.421,9.421,0,0,0,5.575,3.948c.536.136,1.054.271,1.573.407.518.119,1.054.136,1.555.2.5.051.983.1,1.465.153.482,0,.947,0,1.412-.017a21.417,21.417,0,0,1-2.466-.542,16.847,16.847,0,0,1-2.5-.746,10.492,10.492,0,0,1-4.557-2.864,7.329,7.329,0,0,1-1.751-5.1,17.107,17.107,0,0,1,1.126-5.423c1.537-2.881,4.539-7.49,5.164-6.761a65.244,65.244,0,0,0-2.448,7.2,11.963,11.963,0,0,0-.286,5.592,5.984,5.984,0,0,0,3.52,3.982,5.891,5.891,0,0,0,1.287.491,7.247,7.247,0,0,0,1.322.356l1.34.271,1.5.169c.876.136,2.323.186,3.538.288,1.269.119,2.52.034,3.806.068,1.269,0,2.573-.136,3.86-.2,1.3-.1,2.609-.288,3.931-.441a99.194,99.194,0,0,0,16.351-3.915c5.647-1.813,13.474-4.321,14.724-3.847-3.681,1.525-.59,1.237-3.556,2.644,7.934-3.372-.3-3.118,11.758-6.745l-.536,3.237a9.639,9.639,0,0,1,4.021-2.593c.858-.322,1.769-.61,2.752-.881.929-.254,1.894-.508,2.877-.78,4-1.085,8.577-2.525,12.312-5.033,3.449-.169-1.733,2.762-7.952,5.321,7.362-2.355,7.237-4.27,13.063-6.541l-4.414,4.491c5.075-4.694,11.222-4,14.975-4.3.107-.356-.822-.712-.786-1.288,0-.288.286-.61,1.054-1.017a16.4,16.4,0,0,1,4.128-1.322c3.645-.458,1.948.559,2.859.729a4.6,4.6,0,0,1,2.412-1.491,13.736,13.736,0,0,1,2.752-.746c.554-.085,1.144-.169,1.787-.237.643-.051,1.34-.034,2.073-.034.518.424-.465.712-1.59,1-1.108.322-2.359.746-2.5,1.169a37.7,37.7,0,0,1,5.129-.085H467.7a9.03,9.03,0,0,1-1.7,5c-1.072,3.288-.679,2.915-.071,2.474.59-.508,1.34-1.152.965.356-2.859,4.135-4.271,4.982-5.111,5.033-.84.085-1.608-.661-3.735,1.712a61.3,61.3,0,0,1,2.537-7c.625-1.423,1.287-2.949,1.894-4.457.2-.712.375-1.407.572-2.1-.036-.373-.054-.729-.054-1.085,1.519,1.542,3.02,3.1,4.36,4.457a27.867,27.867,0,0,0-7.9,1.271A37.107,37.107,0,0,1,467.329,84l-4.771-4.88V80.14l-.643,2.05c-.679,1.474-1.376,2.949-2.109,4.389-.322-.525-2.806,3.084-4.217,5.287-.715,1.085-1.287,1.949-1.537,1.949-.143.017-.2-.186-.125-.695a11.818,11.818,0,0,1,.679-2.644,36.51,36.51,0,0,0-3.735,11.591,27.387,27.387,0,0,0-.268,6.236l.071.915c.036.288.2.254.286.407.232.2.447.407.679.644.465.424.929,1,1.412,1.525,7.237-2.017,14.617-4.05,21.837-6.338,3.556-1.1,7.094-2.186,10.275-3.084,1.215-.356,2.412-.695,3.61-1.034,1.036-.288,2.055-.559,3.056-.83-2.126.1-4.861.525-4.575-.169,7.469-2.271,6.88-.78,8.542-.407a11.189,11.189,0,0,0,4.682-2.322,10.439,10.439,0,0,1,3.163-2.355c.733.034,1.412.068,2.073.119.625.034,1.054.1,1.537.153.929.1,1.715.237,2.43.356a16.627,16.627,0,0,1,3.574,1.034,5.571,5.571,0,0,1,2.466,2.1,4.747,4.747,0,0,1,.107,4.1s.5-.22,1.019-.441c.5-.237,1-.491,1-.491-.286,1.356-.679,2.271-.876,3.05-.232.779-.339,1.44-.482,2.135a9.559,9.559,0,0,1-.786,2.288A14.937,14.937,0,0,1,513.165,113c-.268.068-.089-.542.268-1.407.179-.424.393-.932.625-1.457.2-.475.268-.78.393-1.169a11.32,11.32,0,0,1-1.769,2.661,16.514,16.514,0,0,1-1.823,1.695,17.7,17.7,0,0,0-4.164,4.626l.858-2.559.768-2.525c-2.984,3.948-7.648,10.2-7.166,7.134a63.7,63.7,0,0,1-4.467,6.863c-1.8,2.542-3.9,5.236-5.951,8.49a28.688,28.688,0,0,0-2.948,5.914,12.661,12.661,0,0,0-.7,5.016,8.287,8.287,0,0,0,.3,1.745,7.482,7.482,0,0,0,.733,1.847,9.466,9.466,0,0,0,2.573,3.1,12.172,12.172,0,0,0,5.236,2.3,20.54,20.54,0,0,0,3.717.339,30.72,30.72,0,0,0,5.682-.542l-.768,1.525c3.574-1.152,9.489-2.2,15.1-3.576.7-.169,1.394-.356,2.091-.525l1.019-.271c.357-.085,1-.288,1.34-.39,1.5-.508,2.716-.983,3.86-1.474a20.077,20.077,0,0,0,5.093-2.9l1.072.237,10.7-6.033c5.254-1.695,4.289.983,4.485.271,11.168-4.372,20.21-7.253,27.609-8.236.232-1.034,2.412-2.254,5.861-3.135a23.149,23.149,0,0,1,5.736-.746,8.572,8.572,0,0,1,3,.491,3.757,3.757,0,0,1,2.144,1.8,5.473,5.473,0,0,1-.125,3.254,14.9,14.9,0,0,1-1.34,3.033,26.646,26.646,0,0,1-1.769,2.779l-2.019,2.576-1,1.288c-.357.458-.59.8-1.126,1.39l-2.877,3.288c-1.84,2.22-3.967,4.355-6.058,6.524a282.588,282.588,0,0,1-27.323,24.1c-19.21,15.1-39.456,28.707-57.594,42.162a64.17,64.17,0,0,0-6.326,5.169c-2.162,2.017-4.378,4.22-6.63,6.406l-1.019-2.915c1.894-.339,3.842-1.762,7.148-2.118a23.9,23.9,0,0,0-2.716.22c-.7.136-1.34.271-1.966.39-.5.085-1.072.254-1.43.271-.375.034-.715.085-1.036.136.608,1.712,1.2,3.423,1.715,4.9,3.663-2.677,5.432-4.609,11.383-8.575,6.63-3.83,10.2-3.694,16.44-6.27l-3.77.474c7.863-6.728,6.469-3.152,12.33-8.981l1.3,2.372c1.608-2.677,8.309-5.745,11.222-6.812l1.126-3c6.058-2.8,9.828-4.88,12.509-4.677l-1.573-1a21.077,21.077,0,0,0,4.289-2.389c1.966-1.339,4.324-2.932,6.415-4.338,4.2-2.813,7.452-4.83,5.254-1.322a23.428,23.428,0,0,1,5.593-5.592l1.626.9c2.234-2.084,4.664-4.22,6.719-5.965,2.037-1.779,3.788-3.067,4.789-3.288-2.252,2.474-2.591,3.745-2.913,5.016,2.52-2.1,4.414-3.813,5.826-5.2a22.888,22.888,0,0,0,2.895-3.457c1.179-1.813,1.09-2.711.929-3.559a3.871,3.871,0,0,1,.429-3.186c.786-1.627,2.609-3.982,6.5-8.219l.7.915,2.966-5.253s.322-.237.822-.61c.25-.186.536-.407.84-.627a6.989,6.989,0,0,0,1.019-.864l3.091-3.2a23.994,23.994,0,0,1,1.948-4.626,30.86,30.86,0,0,0,2.5-5.541,24.77,24.77,0,0,0,1.5-6.355,9.725,9.725,0,0,0-1.662-6.9,12.665,12.665,0,0,0-6.362-4.033,27.089,27.089,0,0,0-8.023-1.068,44.688,44.688,0,0,0-8.631.949c-1.394.271-2.77.627-4.056.966q-.965.28-1.876.559a12.8,12.8,0,0,0-1.376.508c-5.325,1.61-12.991,1.525-22.748,5.1l1.233,1.356c-4.253.508-13.777,3.186-23.159,5.66-2.341.61-4.682,1.2-6.826,1.678-.518.1-1.036.2-1.537.3a5.308,5.308,0,0,1-1.161.136,1.961,1.961,0,0,0-.59.034l-.768.068c-.518.034-1.019.085-1.5.119-3.931.254-7.112.051-8.9-.627-6.111,2.2.661.288.876,1.542a24.573,24.573,0,0,1-6.916,1.356,3.4,3.4,0,0,1-.733-.085.521.521,0,0,1-.2-.068c-.036.068.089-.424-.179.746a12.734,12.734,0,0,1-2.162,5.338c-.608.712-.768.458.107.305a11.564,11.564,0,0,1,4.592.373,34.422,34.422,0,0,1,3.913,1.085c.071.051.2,0,.322-.051a4.949,4.949,0,0,0,1-.864c.59-1.339.893-1.966.7-1.915a5.959,5.959,0,0,0-1.215,1.22c-1.072,1.288-1.5,1.762-1.787.763.715-.915,1.3-1.695,1.841-2.372.608-.813,1.179-1.593,1.662-2.322.983-1.457,1.662-2.711,2.43-4.05,1.537-2.745,3.431-5.643,9.578-12.2,1.912-.8-2.395,4-3.056,5.711,1.644-2.627,3.878-5.66,6.451-9.3.643-.932,1.3-1.9,1.966-2.881.375-.576.751-1.135,1.126-1.729.518-.813.983-1.627,1.483-2.44a29.8,29.8,0,0,0,3.913-10.557A19.72,19.72,0,0,0,530.91,93.29l-.661-1.254c-.268-.39-.554-.78-.84-1.152a17.033,17.033,0,0,0-1.912-2.135,28.352,28.352,0,0,0-2.216-1.847c-.822-.525-1.68-1-2.52-1.474a29.723,29.723,0,0,0-11.848-2.864c-1.036-.1-2.091-.085-3.145-.085-.983,0-2.252,0-2.859.051-1.412.085-2.77.2-4.056.356-3.217.169-6.5.525-9.864,1.017-1.662.254-3.377.525-5.075.847-.858.153-1.715.322-2.573.491l-1.161.22-.322.034a22.8,22.8,0,0,1-3.038.085.8.8,0,0,1-.3-.068s-.054,0-.054-.034l.054-.169a2.749,2.749,0,0,1,.143-.339,4.06,4.06,0,0,1,.858-1.051c.3-.288.572-.525.786-.695l.3-.237s.143-.305.2-.441a4.14,4.14,0,0,0,.089-.644l.107-.915.161-1.83.983-11.506-13.277-1.085a60.342,60.342,0,0,0-6.648-.271l-.572.644c-7-.271-13.4,1.508-19.281,3.593-5.808,2.135-11.294,4.694-16.708,6.524l5.682-1.373Z" transform="translate(-273.024 -7.577)" fill="#ffb6c8"/>
      <path id="Trazado_912577" data-name="Trazado 912577" d="M428.777,126.71l-2.019,1.118s-.161.593-.465,1.491c-.268.9-.715,2.084-1.162,3.3-.929,2.406-2,4.847-2,4.847,3.109-3.237,3.359-5.643,5.665-10.744Z" transform="translate(-315.224 -80.007)" fill="#ffb6c8"/>
      <path id="Trazado_912578" data-name="Trazado 912578" d="M422.513,134.762s.34-1.39.7-2.779c.125-.695.25-1.407.357-1.932a6.517,6.517,0,0,0,.125-.881,12.229,12.229,0,0,1-.375,1.373c-.232.83-.59,1.915-1,2.982-.8,2.152-1.787,4.22-1.787,4.22s.536-.729,1.019-1.474c.5-.763.983-1.508.983-1.508Z" transform="translate(-305.476 -84.449)" fill="#ffb6c8"/>
      <path id="Trazado_912579" data-name="Trazado 912579" d="M402.578,107.54l-1.447.356s-1.215.576-3.02,1.44c-1.823.864-4.271,2-6.808,3.05L381.26,116.25s1.34-.491,3.324-1.237c2-.746,4.7-1.644,7.469-2.762,2.7-1.1,5.325-2.3,7.273-3.2S402.578,107.54,402.578,107.54Z" transform="translate(-214.188 -26.301)" fill="#ffb6c8"/>
      <path id="Trazado_912580" data-name="Trazado 912580" d="M339.326,103.74a4.151,4.151,0,0,1,.357-1.712,2.317,2.317,0,0,0,.214-1.508,8.275,8.275,0,0,1-.375,1.728c-.143.441-.34.915-.465,1.237-.393.695-.643,1.152-.643,1.152l.911-.9Z" transform="translate(-75.008 -2.792)" fill="#ffb6c8"/>
      <path id="Trazado_912581" data-name="Trazado 912581" d="M316.239,79.772c2.537-3.66,6.969-2.423,1.465-2.982C312.343,79.162,317.508,78.4,316.239,79.772Z" transform="translate(-13.93 62.286)" fill="#ffb6c8"/>
      <path id="Trazado_912582" data-name="Trazado 912582" d="M313.111,81.32a24.153,24.153,0,0,0-6.451,2.711C311.217,83.794,310.913,82.506,313.111,81.32Z" transform="translate(8.587 50.351)" fill="#ffb6c8"/>
    </g>
    <g id="Grupo_1108956" data-name="Grupo 1108956" transform="translate(1434.394 10077.36)">
      <g id="Grupo_1108953" data-name="Grupo 1108953" transform="translate(0 0)">
        <path id="Trazado_912583" data-name="Trazado 912583" d="M495.353,49.391c-.32-.036-.678-.054-1-.089a6.283,6.283,0,0,1,2.412-.822,45.522,45.522,0,0,0-7.689.8,21.84,21.84,0,0,0-6.219,2.037A50.578,50.578,0,0,0,471.343,58.7c-2.563.822-4.485,2.431-4.3,3.592s2.412,1.43,4.976.608a11.265,11.265,0,0,1,1.753-.2,56.965,56.965,0,0,0,14.172-1.037c-1.036.036-2.13.054-3.166.089.754-.125,1.489-.25,2.243-.411q.566-.107,1.131-.268c.339-.089.867-.268,1-.286a1.43,1.43,0,0,0-.6-.465c1.244.393,4.353-.214,7.256-1.251a30.724,30.724,0,0,0,4.391-1.966c.735-.393,1.282-.751,2.017-1.215a17.784,17.784,0,0,0,1.866-1.376c.264-.232.509-.465.716-.679l.773-.733a4.63,4.63,0,0,0,.961-1.323,1.223,1.223,0,0,0-.6-1.752,4.757,4.757,0,0,0-1.432-.429c-.584-.089-1.338-.107-1.885-.214a18.449,18.449,0,0,0-2.092-.107c-.735.018-1.527.036-2.356.054,0,0-2.884.107-2.827.071Z" transform="translate(-219.126 -6.07)" fill="#bad1ff"/>
        <path id="Trazado_912584" data-name="Trazado 912584" d="M477.508,48.76c1.131.054,2.808-.018,4.335-.036,1.659-.036,3.3-.071,4.938-.125l.735.2-.735-1.626v.125a23.171,23.171,0,0,1-4.9,3.074c-1.64.8-3.392,1.644-5.07,2.449l-1.338.769a1.991,1.991,0,0,0-.942,1.358c-.038.911,1.489,1.215,3.392.661l1.093-.322a6.587,6.587,0,0,1,.81-.161,22.27,22.27,0,0,0,4.014-.59c.829-.179,1.677-.393,2.525-.626.886-.25,1.772-.536,2.62-.84a31.97,31.97,0,0,0,5.126-2.341,18.066,18.066,0,0,0,4.316-3.36c.132-.143.151-.25.264-.393a1.112,1.112,0,0,0,.207-.393c.038-.232-.094-.393-.32-.518a3.242,3.242,0,0,1-1.225-.822c-.075-.59-1.036-.8-2.507-.7-.358.018-.773.071-1.169.125a7.976,7.976,0,0,0-1.074.125,19.244,19.244,0,0,0-2.412.536c-3.166.858-5.3,2.359-5.164,3.557-.49.054-1.018.107-1.508.161l.98-.715c-.49,1.2-2.978,2.127-4.486,3.11-.188.054-1.866.84-1.941.876.056-.018,1.979,2.27,1.979,2.27l.415-.322c.245-.161.6-.357.584-.357-.132-.089-.4-.2-.377-.2a60.956,60.956,0,0,1,7.878-4.272l4.165-2.306c1.131-.911.716-1.591-.848-1.591,0,0-.565.036-1.15.054h-1.055c.339.018.641.054.98.071-2.205.357-4.467.733-6.709,1.108-2.092.322-4.2.643-5.937.8a1.363,1.363,0,0,0-1.187.626c-.113.3.188.554.7.536Z" transform="translate(-212.494 -9.192)" fill="#bad1ff"/>
        <g id="Grupo_1108952" data-name="Grupo 1108952">
          <path id="Trazado_912585" data-name="Trazado 912585" d="M483.459,44.881c.415-.018.829-.054,1.282-.107a6.4,6.4,0,0,0,1.621-.465c.283-.232.433-.357.509-.429a16.951,16.951,0,0,1-1.941.2c-1.206.036-1.658.465-1.47.8Z" transform="translate(-204.631 -9.692)" fill="#bad1ff"/>
          <path id="Trazado_912586" data-name="Trazado 912586" d="M485.25,43.953c.509-.071.867-.107.867-.107-.226,0-.433-.018-.622-.036a.632.632,0,0,1-.151.071l-.094.071Z" transform="translate(-203.01 -9.747)" fill="#bad1ff"/>
          <path id="Trazado_912587" data-name="Trazado 912587" d="M414.853,81.39q-9.159,2.654-18.3,5.433l-18.111,5.594c-.4.125-.7.357-.66.518.038.143.4.179.773.054l18.093-5.576q9.131-2.761,18.281-5.415c.415-.125.7-.357.7-.536-.038-.161-.377-.214-.754-.107Z" transform="translate(-298.085 19.767)" fill="#bad1ff"/>
          <path id="Trazado_912588" data-name="Trazado 912588" d="M347.646,90.193c.226-.232.151-.393-.189-.393a1.675,1.675,0,0,0-.961.393c-.189.2-.094.393.188.375a1.493,1.493,0,0,0,.942-.393Z" transform="translate(-325.846 26.459)" fill="#bad1ff"/>
          <path id="Trazado_912589" data-name="Trazado 912589" d="M354.56,128.213a31.581,31.581,0,0,0,4.3-2.663,2.027,2.027,0,0,1,.792-.286c-.207-.214.019-.572.584-.894,5.5-3.235,11.383-6.4,17.433-9.2,6.05-2.824,12.25-5.558,18.375-8.346a1.372,1.372,0,0,1,.3-.786,7.634,7.634,0,0,1,4.127-2.377l1.432-.3q8.537-2.306,17.037-4.593A18.812,18.812,0,0,1,422.6,96.9c4.448-2.413,8.933-4.772,13.569-7.006-.377-.071-.641-.214-.716-.447-.113-.59.848-1.376,2.186-1.805l1.979-.715-5.861,1.5a3.479,3.479,0,0,1-.792.161q-3.138,1.019-6.332,2.2c-9.235,3.414-18.206,7.185-26.856,11.117-8.669,3.95-17.113,8.257-25.443,12.511a1.778,1.778,0,0,1-1.018.3c-.226-.071-.264-.25.038-.447,9.989-6.595,18.319-13.762,30.173-19.767q10.6-5.442,21.165-10.545c7.049-3.414,14.229-6.72,21.353-10.044,7.784-2.734,15.209-5.648,22.333-8.9,7.162-3.217,14.418-6.452,21.711-10.116,5.013-2.431,9.819-4.7,14.889-7.024q7.915-3.592,15.812-7.006c10.592-4.522,20.882-9.115,32.209-13.118,8.2-3.5,16.773-4,19.092-1.162,1.376,1.734.226,4.272-2.676,6.774l2.035-.7,3.336-.769a18.307,18.307,0,0,1,8.066-.322l2.733.554a24.977,24.977,0,0,0,3.223.983c1.3.286,2.808.483,3.92.84A23.544,23.544,0,0,1,598.9,36.4l-.226,1.2.66.143c2.073.25,3.656.894,4.391,1.823l.226,1.3a8.135,8.135,0,0,1-1.546,4.861,2.134,2.134,0,0,1-.038,1.7c1.7.929,2.752,2.109,2.167,3.878.9.143.942.733.113,1.323a4.347,4.347,0,0,1-1.055.5h0a9.347,9.347,0,0,0,1.395.465c.829-.107,1.3-.161,1.3-.161l4.146-.733a14.518,14.518,0,0,1,3.129.161c2.978,1.448,3.129,1.358,3.129,2.449a5.438,5.438,0,0,1-.339.447c1.018-.214,1.583-.322,1.941-.393.584-.214.886-.3,1.338-.465,1-.286,1.715-.447,1.715-.447.434.393.434.393,1.112.232a.513.513,0,0,1,.377.268c-1.508,1.555-1.583,1.537-1.527,1.734a10.891,10.891,0,0,1-.98.822c-1.508.822-2.111,1.144-2.356,1.287-.848-.071-1.47-.125-1.941-.161-.4-.089-.66-.143-.829-.179-.339-.071-.358-.071-.358-.071l-.32.626-.754-.447.509.465L613,59.065l1.489.071c-1.357.322-2.035.483-2.507.59a12.341,12.341,0,0,0-1.187.34,10.349,10.349,0,0,0-1.96.661,1.442,1.442,0,0,1,.188.286c-2.62.5-2.582.483-5.051.911a4.571,4.571,0,0,1-.66-.232,1.716,1.716,0,0,1-1.018.5l-1.206.232-.17.143V62.6c-.283.2-.49.34-.7.5-.132.107-.151.107-.151.107h0c-.6.411-1.451,1.019-3.75,2.609a20.653,20.653,0,0,1-2.054.447c.226,0,.452.036.66.036.434.054.283.661.49.626q2.007-.295,4.014-.7l1.018-.214.773-.071c.528-.054.961-.107,1.7-.232,2.582-.393,5.6-.947,8.707-1.537,1.112-.393,2.262-.411,2.563-.054.283.375-.4.983-1.545,1.376a89.73,89.73,0,0,1-8.575,4.021c-1.168.5-2.356,1.019-3.543,1.519-1.451.608-2.921,1.2-4.41,1.734A102.138,102.138,0,0,1,578,77.473q-4.467,1.233-8.99,2.5l.528.089-2.412.447-.245.071,2.092.268,1.3-.179c6.9-2.091,13.569-2.949,20.392-4.432,3.675-.8,6.992-1.037,10.5-1.609.867-.268,1.564-.161,1.6.25.038.393-.66.929-1.508,1.18-10.7,4.647-23.351,8.615-33.453,8.811a23.588,23.588,0,0,1-5.9,1.358h-.094c.528.107,1.036.179,1.564.25-1.583.429-2.657.143-4.127.447l.942.786c-7.689,2.395-15.586,5.952-23.125,7.328-.283.089-.565.161-.829.232a46.39,46.39,0,0,1-8.82,5.326c1.263-.375,2.469-.751,3.732-1.144a46.558,46.558,0,0,1-7.765,3.968c-7.859,3.056-17.245,5.183-22.484,4.075l-22.5,8.918q-11.223,4.236-22.371,8.668a2.021,2.021,0,0,1-1.79.071c-.188-.268.207-.733.961-1.037,5.2-2.395,10.5-4.718,15.812-6.97l8.029-3.324,8.085-3.449c-9.386,3-18.79,5.576-28.232,8.793l-3.562,1.394a22.9,22.9,0,0,1-3.6,1.037c-11.968,4.039-23.37,7.721-35.149,12.582-10.139,4.129-18.677,8.025-28.477,12.493-6.785,3.235-13.155,6.416-19.619,9.383-3.26,1.448-6.389,3.02-9.593,4.486-3.2,1.483-6.464,2.913-9.838,4.289-1.753.822-3.656.947-4.222.286s.415-1.877,2.167-2.7c26.932-14.119,54.919-26.862,86.336-37.05,3.392-1.108,6.747-2.18,10.064-3.271a1.021,1.021,0,0,1-.207-.286,1.5,1.5,0,0,1,.415-1.43c-3.788,1.18-7.652,2.288-11.534,3.36a288.693,288.693,0,0,1-31.643,12.314c-7.708,2.377-15.039,3.753-22.3,5.576-8.594,3.789-17.188,7.542-25.65,11.6a1.136,1.136,0,0,1-.9.179c-.189-.089-.075-.322.264-.518,2.789-1.7,5.635-3.342,8.537-4.969,2.959-1.555,5.974-3.056,8.99-4.558-1.206-.107-2.054-.5-2.262-1.2-.226-.733.3-1.644,1.3-2.538l-4.353,1.573c-.9.3-1.715.3-1.847-.054-.151-.393.452-.911,1.3-1.233q8.877-3.217,17.716-6.434,10.46-4.343,21.014-8.507a4.935,4.935,0,0,1-2.714-.965h0c-1.112.393-2.205.8-3.3,1.2q-7.293,3.4-14.738,6.649c-4.919,2.234-9.876,4.45-14.87,6.595-2.507,1.054-5.013,2.109-7.539,3.146-2.507,1.072-4.994,2.163-7.5,3.235q-7.52,3.217-15.209,6.184c-.4.161-.792.179-.867,0-.075-.161.17-.411.528-.554q9.273-3.592,18.338-7.524h-.038c-.283,0-.415-.161-.188-.375a1.692,1.692,0,0,1,.961-.393c.339,0,.377.179.188.375,5.635-2.431,11.346-4.7,16.905-7.2q8.368-3.726,16.679-7.453l-7.934,2.9-7.878,2.985c-5.258,1.966-10.535,3.878-15.869,5.683-1.037.661-2.092,1.323-3.147,1.984a1.34,1.34,0,0,1-.942.143c-.151-.089,0-.357.32-.518l.886-.536c-2,.733-3.807.679-4.146-.143-.264-.894,1.131-2.234,3.2-3.038,5.428-2.377,10.969-4.432,16.491-6.577l1.734-.822,1.64-1.072c-8.745,2.931-17.6,5.558-26.215,8.7-.716.3-1.451.322-1.6.036s.32-.769,1.055-1.09c7.181-3.735,14.606-6.988,22.088-10.277,7.463-3.342,15.077-6.345,22.71-9.329,4.58-3.092,9.2-6.184,13.909-9.222-.66.214-1.338.429-2,.626a175.518,175.518,0,0,0-23.219,10.295c-7.331,3.7-14.474,7.775-22.427,11.152a.908.908,0,0,1-.9.054c-.113-.125.113-.393.509-.536,7.708-3.414,14.418-7.489,21.975-11.152,6.257-3.038,12.231-5.9,17.961-9.026-6.163,2.359-12.1,4.986-17.98,7.667-5.88,2.627-11.685,5.576-17.678,8.186a3.12,3.12,0,0,1-1.489.375.489.489,0,0,1-.207.322,43.891,43.891,0,0,1-4.523,2.788,1.192,1.192,0,0,1-.98.179c-.226-.072-.094-.286.245-.518Zm221.2-61.625c.151.018.264.054.377.071-.358.018-.754.054-1.187.089l-1.979-.679S574.367,66.339,575.761,66.589Zm16.905-11.3h0c.641.214,1.112.375,1.112.375-.452-.161-.81-.286-1.093-.375ZM477.59,112.235A191.836,191.836,0,0,1,497.643,106l-4.674,1.984C487.88,109.465,482.754,110.913,477.59,112.235Zm112.4-45.557a23.589,23.589,0,0,1-5.051-.7,21.392,21.392,0,0,1-3.355,1.412c-3.166,1.054-6.276,2-9.367,2.877.565.286-.17.5-.528.679s-.716.34-1.093.518q4.975-1.26,10.064-2.52c3.072-.751,6.332-1.734,9.31-2.27ZM611.984,57.8a2.538,2.538,0,0,1,.358.072l-.471.858s.038-.393.094-.929Zm.754-1.448c-.188.036-.377.054-.584.089C612.267,56.133,612.474,56.169,612.738,56.348Zm-5.032.59a3.045,3.045,0,0,0,.754.179Zm-9.2-18.444-.7,3.771.886-3.682Z" transform="translate(-335.493 -24.751)" fill="#bad1ff"/>
        </g>
      </g>
      <g id="Grupo_1108955" data-name="Grupo 1108955" transform="translate(64.072 90.771)">
        <path id="Trazado_912590" data-name="Trazado 912590" d="M374.24,110.268c.151,0,.32.036.49.054a1.961,1.961,0,0,1-1,.518c4.825,0,9.687-3.342,12.326-6.523,1.263-.465,2.13-1.448,1.922-2.2s-1.413-.965-2.676-.5a5.979,5.979,0,0,1-.9.089,23.686,23.686,0,0,0-7.444.357h1.7a10.227,10.227,0,0,0-2.318.572l.452.268c-2.808.089-5.918,1.823-6.954,3.86s.377,3.628,3.185,3.521h1.263Z" transform="translate(-369.49 -55.2)" fill="#bad1ff"/>
        <path id="Trazado_912591" data-name="Trazado 912591" d="M379.8,109.571c-1.64.161-3.242.25-4.844.34l-.377-.125.584,1.037v-.089c.867-1.448,2.827-2.735,4.674-3.825l.622-.447a1.09,1.09,0,0,0,.358-.84c-.075-.59-.9-.8-1.866-.5l-1.093.357c-2.846.483-6.879,2.18-7.482,4.611-.132.554.4.965.7,1.43.226.751,1.47.965,2.77.465s2.167-1.5,1.922-2.27c.245-.036.49-.089.716-.125l-.4.483c.075-.769,1.187-1.412,1.9-2.109l1.225-.733-1.508-1.34-.584.518a1.425,1.425,0,0,1,.226.125A31.931,31.931,0,0,1,374,109.41l-1.489,1.376c-.339.518-.075.965.584,1.037h.961a3.853,3.853,0,0,1-.452-.036c2-.411,4.014-1,5.993-1.376a.919.919,0,0,0,.716-.483c.056-.214-.151-.357-.49-.3Z" transform="translate(-368.721 -52.358)" fill="#bad1ff"/>
        <g id="Grupo_1108954" data-name="Grupo 1108954" transform="translate(2.658)">
          <path id="Trazado_912592" data-name="Trazado 912592" d="M372.595,109.21a2.34,2.34,0,0,0-1.112.2,2.11,2.11,0,0,0-.113.214c.189,0,.452.018.7.036.509.036.641-.214.509-.447Z" transform="translate(-370.484 -49.031)" fill="#bad1ff"/>
          <path id="Trazado_912593" data-name="Trazado 912593" d="M371.512,109.44h-.3a1.539,1.539,0,0,1,.226.071l.038-.036.019-.036Z" transform="translate(-370.626 -48.85)" fill="#bad1ff"/>
          <path id="Trazado_912594" data-name="Trazado 912594" d="M412.909,91.717q8.707-3.19,17.282-6.666c.189-.072.32-.214.283-.322-.038-.089-.226-.125-.4-.036-5.748,2.288-11.477,4.522-17.282,6.649-.189.071-.32.214-.283.322s.207.143.4.071Z" transform="translate(-334.093 -68.373)" fill="#bad1ff"/>
          <path id="Trazado_912595" data-name="Trazado 912595" d="M437.721,84.024c-.094.143-.038.232.132.25a.64.64,0,0,0,.471-.214.158.158,0,0,0-.132-.25.572.572,0,0,0-.452.214Z" transform="translate(-311.827 -69.027)" fill="#bad1ff"/>
          <path id="Trazado_912596" data-name="Trazado 912596" d="M499.471,99.079a13.746,13.746,0,0,0-1.922,1.555.778.778,0,0,1-.377.161c.132.143.057.357-.207.554-4.938,3.825-10.7,7.024-16.283,10.348a1.2,1.2,0,0,1-.057.5,2.864,2.864,0,0,1-1.828,1.466l-.7.179c-2.714.911-5.409,1.823-8.123,2.734a6.479,6.479,0,0,1-1.64,1.144c-2,1.5-4.014,2.967-6.125,4.343a.531.531,0,0,1,.415.3c.132.375-.283.876-.9,1.126l-.923.429,2.827-.911a1.058,1.058,0,0,1,.4-.089c1-.411,1.979-.858,2.978-1.34a179.581,179.581,0,0,0,23.841-14.352.606.606,0,0,1,.49-.161.158.158,0,0,1,.038.286c-4.335,4.057-7.689,8.382-13,12.118-6.314,4.468-12.646,8.668-19.393,12.707-7.463,3.306-14.078,7.149-21.523,11.117-10.026,5.344-19.845,9.741-30.041,14.209-3.694,1.93-7.9,1.948-9.367.054-.886-1.162-.565-2.734.622-4.236l-.942.375-1.6.375a7.438,7.438,0,0,1-4.033-.054l-1.451-.447c-2.149-1.09-5.013-1.537-6.954-2.824l-.057-.769-.358-.071a3.723,3.723,0,0,1-2.488-1.072l-.283-.84a6.061,6.061,0,0,1,.132-3.163,1.786,1.786,0,0,1-.207-1.09,2.692,2.692,0,0,1-1.621-2.466c-.471-.089-.565-.465-.226-.84a1.716,1.716,0,0,1,.452-.34h0c-.3-.125-.377-.161-.754-.286-.4.072-.622.125-.622.125q-1.018.25-1.9.483a4.813,4.813,0,0,1-1.451-.179,4.294,4.294,0,0,1-1.6-1.769,2.041,2.041,0,0,1,.075-.25c-.716.054-.773.054-.98.072a2.339,2.339,0,0,1-.415-.107.976.976,0,0,0-.339-.393.7.7,0,0,1-.132-.232,1.488,1.488,0,0,0,.151-.626,1.165,1.165,0,0,1,.113-.268c.358-.286.509-.393.565-.447,1.263.483,1.282.483,1.282.483l.057-.375.377.3-.283-.322.547.036-.66-.107a11.725,11.725,0,0,0,1.527-.518,3.508,3.508,0,0,0,.829-.411.6.6,0,0,1-.132-.179q1.187-.34,2.356-.661c.132.036.264.089.358.125a.752.752,0,0,1,.471-.357l.6-.179.094-.107v-.036c.17-.161.283-.25.415-.375l.075-.089h0c.283-.25.678-.643,1.772-1.644a7.813,7.813,0,0,1,1.036-.232l-.358-.036c-.226-.036-.207-.429-.32-.411a62.644,62.644,0,0,0-8.2,1.948c-.452.232-.961.232-1.15,0s.038-.626.49-.858c4.448-3.95,10.95-6.47,16.962-7.417l4.467-1.376-.283-.071,1.225-.232.132-.036-1.112-.214-.66.072c-3.411,1.18-6.841,1.555-10.29,2.359-1.866.429-3.581.5-5.39.786-.434.143-.81.071-.886-.2-.057-.25.264-.572.678-.733,5.22-2.717,11.553-5,16.811-4.879a7.592,7.592,0,0,1,2.978-.643h.057l-.829-.232c.792-.2,1.376.036,2.13-.089l-.565-.554c3.845-1.144,7.689-3.02,11.515-3.521.151-.054.283-.071.415-.107a17.415,17.415,0,0,1,4.184-2.967c-.622.179-1.225.357-1.828.536a16.476,16.476,0,0,1,3.619-2.091c3.656-1.5,8.2-2.216,10.95-1.323,6.917-3.2,13.89-6.452,20.712-9.973a.821.821,0,0,1,.9-.018c.132.179,0,.465-.358.661-4.712,2.877-9.649,5.523-14.606,8.025,4.448-1.483,8.9-3.092,13.325-4.933l1.64-.822a9.271,9.271,0,0,1,1.715-.626c5.616-2.449,10.969-4.683,16.453-7.667,4.674-2.574,8.726-4.879,13.306-7.632,6.408-3.86,12.213-7.453,18.96-10.42.867-.447,1.866-.465,2.224,0,.339.447-.075,1.2-.942,1.644-13.324,7.721-26.234,15.638-41.048,21.858-1.6.661-3.166,1.323-4.749,1.966a1.085,1.085,0,0,1,.132.179,1.04,1.04,0,0,1-.038.912c1.79-.715,3.619-1.376,5.484-2.02A93.964,93.964,0,0,1,475.1,92.9a108.24,108.24,0,0,1,10.912-3.163c4.108-2.18,8.16-4.432,12.326-6.577a.471.471,0,0,1,.471-.072c.113.072.057.214-.094.322-2.657,1.912-5.447,3.7-8.311,5.469a1.5,1.5,0,0,1,1.282.84,1.675,1.675,0,0,1-.415,1.591l2.092-.876c.434-.179.867-.143.961.089.113.25-.151.572-.547.751-2.846,1.215-5.673,2.413-8.519,3.61q-4.891,2.6-9.838,5.112a2.748,2.748,0,0,1,1.508.661h0l1.545-.715a198.044,198.044,0,0,1,28.439-14.584c.188-.089.4-.071.452.036s-.057.25-.226.322c-3.016,1.233-5.993,2.556-8.914,3.932h0c.151,0,.226.125.132.25a.643.643,0,0,1-.471.214c-.17,0-.207-.125-.132-.25-5.447,2.592-10.724,5.451-15.831,8.472,4.975-2.323,9.989-4.593,15.115-6.595l1.47-1.108a.566.566,0,0,1,.471-.054c.075.071.019.232-.113.322l-.415.3c.98-.375,1.922-.268,2.167.286.226.572-.4,1.376-1.395,1.787q-3.9,1.9-7.821,3.664l-.81.465-.735.643c4.2-1.591,8.424-3.128,12.627-4.629.339-.161.716-.125.829.054.094.2-.094.483-.452.643-6.785,3.932-13.8,7.632-20.92,11.188-2,1.877-4,3.789-6.012,5.683l.942-.375c7.916-3.485,13.494-8.811,20.92-12.672a.374.374,0,0,1,.452,0c.075.089,0,.25-.207.322-3.581,1.966-6.615,4.289-10.045,6.488-2.846,1.823-5.56,3.557-8.1,5.433,5.729-2.788,10.837-6.291,16.415-9.294a1.125,1.125,0,0,1,.716-.2.238.238,0,0,1,.075-.2,16.289,16.289,0,0,1,2.017-1.644.5.5,0,0,1,.49-.089c.113.054.075.179-.075.322ZM392.1,131.875s-.132-.036-.207-.054c.189,0,.377,0,.6-.018l1.093.483S392.856,132.09,392.1,131.875Zm-7.614,6.774h0c-.358-.161-.622-.268-.622-.268Q384.234,138.542,384.488,138.649Zm54-31.474a61.041,61.041,0,0,1-9.5,3.253l2.167-1.09C433.565,108.569,436.015,107.89,438.484,107.175ZM384.7,131.464a11.505,11.505,0,0,1,2.714.572,9.508,9.508,0,0,1,1.6-.822c1.545-.59,3.072-1.126,4.58-1.591-.32-.2.038-.322.207-.429l.509-.3c-1.64.447-3.3.894-4.994,1.358-1.527.393-3.129.947-4.636,1.215Zm-10.328,5.719-.189-.054.094-.536s.038.25.075.59Zm-.132.912.245-.036C374.481,138.256,374.368,138.22,374.236,138.095Zm2.28-.34a2.8,2.8,0,0,0-.4-.107Zm7.105,11.707-.17-2.431.056,2.377Z" transform="translate(-370.9 -75.539)" fill="#bad1ff"/>
        </g>
      </g>
    </g>
  </g>
</svg>
