<svg xmlns="http://www.w3.org/2000/svg" xmlns:xlink="http://www.w3.org/1999/xlink" width="103" height="103" viewBox="0 0 103 103">
  <defs>
    <filter id="Trazado_842289" x="0" y="0" width="103" height="103" filterUnits="userSpaceOnUse">
      <feOffset dy="3" input="SourceAlpha"/>
      <feGaussianBlur stdDeviation="3" result="blur"/>
      <feFlood flood-opacity="0.161"/>
      <feComposite operator="in" in2="blur"/>
      <feComposite in="SourceGraphic"/>
    </filter>
  </defs>
  <g id="Grupo_1142393" data-name="Grupo 1142393" transform="translate(-276 -1431.34)">
    <g id="Grupo_1110586" data-name="Grupo 1110586" transform="translate(285 1437.34)">
      <g id="Grupo_1134645" data-name="Grupo 1134645">
        <g transform="matrix(1, 0, 0, 1, -9, -6)" filter="url(#Trazado_842289)">
          <path id="Trazado_842289-2" data-name="Trazado 842289" d="M42.5,0A42.5,42.5,0,1,1,0,42.5,42.5,42.5,0,0,1,42.5,0Z" transform="translate(9 6)" fill="#3c1c74"/>
        </g>
      </g>
    </g>
    <g id="casino_1983682" transform="translate(304.038 1456.434)">
      <circle id="Elipse_9764" data-name="Elipse 9764" cx="17.559" cy="17.559" r="17.559" transform="translate(0 0.666)" fill="#efefd2"/>
      <g id="Grupo_1134644" data-name="Grupo 1134644" transform="translate(0.869 0)">
        <path id="Trazado_938600" data-name="Trazado 938600" d="M32.643,31.285a2.643,2.643,0,1,1,2.643-2.643A2.646,2.646,0,0,1,32.643,31.285Zm0-3.775a1.133,1.133,0,1,0,1.133,1.133A1.134,1.134,0,0,0,32.643,27.51Z" transform="translate(-30 -26)" fill="#4c241d"/>
        <path id="Trazado_938601" data-name="Trazado 938601" d="M236.181,30.936a.753.753,0,0,1-.534-.221l-2.774-2.774a.755.755,0,0,1,1.068-1.068l2.774,2.774a.755.755,0,0,1-.534,1.289Z" transform="translate(-194.402 -26.529)" fill="#4c241d"/>
        <path id="Trazado_938602" data-name="Trazado 938602" d="M233.407,30.937a.755.755,0,0,1-.534-1.289l2.774-2.774a.755.755,0,1,1,1.068,1.068l-2.774,2.774A.753.753,0,0,1,233.407,30.937Z" transform="translate(-194.402 -26.53)" fill="#4c241d"/>
        <circle id="Elipse_9765" data-name="Elipse 9765" cx="0.855" cy="0.855" r="0.855" transform="translate(10.848 1.788)" fill="#4c241d"/>
        <circle id="Elipse_9766" data-name="Elipse 9766" cx="0.855" cy="0.855" r="0.855" transform="translate(1.033 28.213)" fill="#4c241d"/>
      </g>
      <path id="Trazado_938603" data-name="Trazado 938603" d="M42,242H85.035v5.285H42Z" transform="translate(-38.866 -201.23)" fill="#e7d1c4"/>
      <path id="Trazado_938604" data-name="Trazado 938604" d="M81.79,244.8H38.755A.755.755,0,0,1,38,244.04v-5.285a.755.755,0,0,1,.755-.755H81.79a.755.755,0,0,1,.755.755v5.285A.755.755,0,0,1,81.79,244.8Zm-42.28-1.51H81.035V239.51H39.51Z" transform="translate(-35.621 -197.985)" fill="#4c241d"/>
      <path id="Trazado_938605" data-name="Trazado 938605" d="M42,94H85.035v5.285H42Z" transform="translate(-38.866 -81.165)" fill="#ffce56"/>
      <path id="Trazado_938606" data-name="Trazado 938606" d="M81.79,96.8H38.755A.755.755,0,0,1,38,96.04V90.755A.755.755,0,0,1,38.755,90H81.79a.755.755,0,0,1,.755.755V96.04A.755.755,0,0,1,81.79,96.8Zm-42.28-1.51H81.035V91.51H39.51Z" transform="translate(-35.621 -77.92)" fill="#4c241d"/>
      <path id="Trazado_938607" data-name="Trazado 938607" d="M90,122.347h24.915v22.585H90Z" transform="translate(-77.806 -104.161)" fill="#edebdc"/>
      <path id="Trazado_938608" data-name="Trazado 938608" d="M111.67,142.441H86.755a.755.755,0,0,1-.755-.755V119.1a.755.755,0,0,1,.755-.755H111.67a.755.755,0,0,1,.755.755v22.585A.755.755,0,0,1,111.67,142.441Zm-24.16-1.51h23.405V119.856H87.51Z" transform="translate(-74.561 -100.916)" fill="#4c241d"/>
      <path id="Trazado_938609" data-name="Trazado 938609" d="M150.755,42.53a.755.755,0,0,1-.755-.755v-3.02a.755.755,0,0,1,1.51,0v3.02A.755.755,0,0,1,150.755,42.53Z" transform="translate(-126.481 -35.735)" fill="#4c241d"/>
      <path id="Trazado_938610" data-name="Trazado 938610" d="M50,222h7.55v3.775H50Z" transform="translate(-45.356 -185.005)" fill="#ffce56"/>
      <path id="Trazado_938611" data-name="Trazado 938611" d="M54.305,223.285h-7.55A.755.755,0,0,1,46,222.53v-3.775a.755.755,0,0,1,.755-.755h7.55a.755.755,0,0,1,.755.755v3.775A.755.755,0,0,1,54.305,223.285Zm-6.8-1.51h6.04V219.51H47.51Z" transform="translate(-42.111 -181.76)" fill="#4c241d"/>
      <path id="Trazado_938612" data-name="Trazado 938612" d="M50,122h7.55v3.775H50Z" transform="translate(-45.356 -103.88)" fill="#ffce56"/>
      <path id="Trazado_938613" data-name="Trazado 938613" d="M54.305,123.285h-7.55A.755.755,0,0,1,46,122.53v-3.775a.755.755,0,0,1,.755-.755h7.55a.755.755,0,0,1,.755.755v3.775A.755.755,0,0,1,54.305,123.285Zm-6.8-1.51h6.04V119.51H47.51Z" transform="translate(-42.111 -100.635)" fill="#4c241d"/>
      <path id="Trazado_938614" data-name="Trazado 938614" d="M62,142h3.02v15.1H62Z" transform="translate(-55.091 -120.105)" fill="#e7d1c4"/>
      <path id="Trazado_938615" data-name="Trazado 938615" d="M61.775,154.61h-3.02a.755.755,0,0,1-.755-.755v-15.1a.755.755,0,0,1,.755-.755h3.02a.755.755,0,0,1,.755.755v15.1A.755.755,0,0,1,61.775,154.61ZM59.51,153.1h1.51V139.51H59.51Z" transform="translate(-51.846 -116.86)" fill="#4c241d"/>
      <path id="Trazado_938616" data-name="Trazado 938616" d="M222,222h7.55v3.775H222Z" transform="translate(-184.89 -185.005)" fill="#ffce56"/>
      <path id="Trazado_938617" data-name="Trazado 938617" d="M226.305,223.285h-7.55a.755.755,0,0,1-.755-.755v-3.775a.755.755,0,0,1,.755-.755h7.55a.755.755,0,0,1,.755.755v3.775A.755.755,0,0,1,226.305,223.285Zm-6.8-1.51h6.04V219.51h-6.04Z" transform="translate(-181.645 -181.76)" fill="#4c241d"/>
      <path id="Trazado_938618" data-name="Trazado 938618" d="M222,122h7.55v3.775H222Z" transform="translate(-184.89 -103.88)" fill="#ffce56"/>
      <path id="Trazado_938619" data-name="Trazado 938619" d="M226.305,123.285h-7.55a.755.755,0,0,1-.755-.755v-3.775a.755.755,0,0,1,.755-.755h7.55a.755.755,0,0,1,.755.755v3.775A.755.755,0,0,1,226.305,123.285Zm-6.8-1.51h6.04V119.51h-6.04Z" transform="translate(-181.645 -100.635)" fill="#4c241d"/>
      <path id="Trazado_938620" data-name="Trazado 938620" d="M234,142h3.02v15.1H234Z" transform="translate(-194.625 -120.105)" fill="#e7d1c4"/>
      <path id="Trazado_938621" data-name="Trazado 938621" d="M233.775,154.61h-3.02a.755.755,0,0,1-.755-.755v-15.1a.755.755,0,0,1,.755-.755h3.02a.755.755,0,0,1,.755.755v15.1A.755.755,0,0,1,233.775,154.61Zm-2.265-1.51h1.51V139.51h-1.51Z" transform="translate(-191.38 -116.86)" fill="#4c241d"/>
      <path id="Trazado_938622" data-name="Trazado 938622" d="M109.775,157.63H106V139.888a1.888,1.888,0,1,1,3.775,0Z" transform="translate(-90.786 -116.86)" fill="#c1dbdc"/>
      <path id="Trazado_938623" data-name="Trazado 938623" d="M106.53,155.14h-3.775a.755.755,0,0,1-.755-.755V136.643a2.643,2.643,0,1,1,5.285,0v17.743A.755.755,0,0,1,106.53,155.14Zm-3.02-1.51h2.265V136.643a1.133,1.133,0,0,0-2.265,0Z" transform="translate(-87.541 -113.615)" fill="#4c241d"/>
      <path id="Trazado_938624" data-name="Trazado 938624" d="M149.775,157.63H146V139.888a1.888,1.888,0,1,1,3.775,0Z" transform="translate(-123.236 -116.86)" fill="#c1dbdc"/>
      <path id="Trazado_938625" data-name="Trazado 938625" d="M146.53,155.14h-3.775a.755.755,0,0,1-.755-.755V136.643a2.643,2.643,0,0,1,5.285,0v17.743A.755.755,0,0,1,146.53,155.14Zm-3.02-1.51h2.265V136.643a1.133,1.133,0,0,0-2.265,0Z" transform="translate(-119.991 -113.615)" fill="#4c241d"/>
      <path id="Trazado_938626" data-name="Trazado 938626" d="M189.775,157.63H186V139.888a1.888,1.888,0,0,1,3.775,0Z" transform="translate(-155.686 -116.86)" fill="#c1dbdc"/>
      <path id="Trazado_938627" data-name="Trazado 938627" d="M186.53,155.14h-3.775a.755.755,0,0,1-.755-.755V136.643a2.643,2.643,0,0,1,5.285,0v17.743A.755.755,0,0,1,186.53,155.14Zm-3.02-1.51h2.265V136.643a1.133,1.133,0,0,0-2.265,0Z" transform="translate(-152.441 -113.615)" fill="#4c241d"/>
      <path id="Trazado_938628" data-name="Trazado 938628" d="M50,63.216v-3.75l19.263-3.413,20.752,3.413v3.75Z" transform="translate(-45.356 -50.38)" fill="#bf7e68"/>
      <path id="Trazado_938629" data-name="Trazado 938629" d="M86.77,60.725H46.755A.755.755,0,0,1,46,59.97v-3.75a.755.755,0,0,1,.623-.743l19.263-3.413a.758.758,0,0,1,.254,0l20.752,3.413a.755.755,0,0,1,.633.745v3.75A.755.755,0,0,1,86.77,60.725Zm-39.26-1.51H86.015V56.862L66.022,53.574,47.51,56.853Z" transform="translate(-42.111 -47.135)" fill="#4c241d"/>
      <path id="Trazado_938630" data-name="Trazado 938630" d="M134.309,75.51H123.122a.755.755,0,0,1,0-1.51h11.187a.755.755,0,0,1,0,1.51Z" transform="translate(-104.063 -64.94)" fill="#4c241d"/>
    </g>
  </g>
</svg>
