<svg xmlns="http://www.w3.org/2000/svg" xmlns:xlink="http://www.w3.org/1999/xlink" width="103" height="103" viewBox="0 0 103 103">
  <defs>
    <filter id="Trazado_842289" x="0" y="0" width="103" height="103" filterUnits="userSpaceOnUse">
      <feOffset dy="3" input="SourceAlpha"/>
      <feGaussianBlur stdDeviation="3" result="blur"/>
      <feFlood flood-opacity="0.161"/>
      <feComposite operator="in" in2="blur"/>
      <feComposite in="SourceGraphic"/>
    </filter>
  </defs>
  <g id="Grupo_1134883" data-name="Grupo 1134883" transform="translate(-275.5 -20433.543)">
    <g id="Grupo_1097314" data-name="Grupo 1097314">
      <g transform="matrix(1, 0, 0, 1, 275.5, 20433.54)" filter="url(#Trazado_842289)">
        <path id="Trazado_842289-2" data-name="Trazado 842289" d="M42.5,0A42.5,42.5,0,1,1,0,42.5,42.5,42.5,0,0,1,42.5,0Z" transform="translate(9 6)" fill="#3c1c74"/>
      </g>
      <g id="family-insurance_8430722" transform="translate(301 20456.043)">
        <g id="Grupo_1132584" data-name="Grupo 1132584" transform="translate(0)">
          <g id="Grupo_1132583" data-name="Grupo 1132583" transform="translate(0)">
            <g id="Grupo_1132582" data-name="Grupo 1132582">
              <g id="Grupo_1132569" data-name="Grupo 1132569" transform="translate(0 6.117)">
                <g id="Grupo_1132565" data-name="Grupo 1132565" transform="translate(0 0)">
                  <g id="Grupo_1132563" data-name="Grupo 1132563" transform="translate(0.773 0.778)">
                    <path id="Trazado_933051" data-name="Trazado 933051" d="M23.536,85.559s6.242,3.946,5.65,9.775v5.195H18.613V97.238L8.19,84.094a5.548,5.548,0,0,1-1.2-3.661l.658-17.024a1.105,1.105,0,0,1,1.373-1.031,4.114,4.114,0,0,1,3.105,3.971l.063,12.568,6.024,9.2-2.076-9.16a2.361,2.361,0,0,1,4.522-1.332Z" transform="translate(-6.99 -62.342)" fill="#ffdecf"/>
                    <path id="Trazado_933052" data-name="Trazado 933052" d="M20.6,97.743V96.665L10.179,83.522a5.548,5.548,0,0,1-1.2-3.661l.668-17.289a4.107,4.107,0,0,0-.643-.217,1.1,1.1,0,0,0-1.356,1.036L6.995,80.415a5.547,5.547,0,0,0,1.2,3.661L18.614,97.219v3.291H29.186V98.849H21.709A1.106,1.106,0,0,1,20.6,97.743Z" transform="translate(-6.99 -62.323)" fill="#f9bcaa"/>
                  </g>
                  <g id="Grupo_1132564" data-name="Grupo 1132564">
                    <path id="Trazado_933053" data-name="Trazado 933053" d="M102.1,407.478h12.777v6.142H102.1Z" transform="translate(-90.804 -368.513)" fill="#e56ab9"/>
                    <path id="Trazado_933054" data-name="Trazado 933054" d="M104.089,409v-1.518H102.1v6.142h12.777v-1.994h-8.164a2.627,2.627,0,0,1-2.624-2.63Z" transform="translate(-90.804 -368.513)" fill="#bd50b6"/>
                    <path id="Trazado_933055" data-name="Trazado 933055" d="M24.074,93.483h-.33V89.1c.546-5.628-4.606-9.509-5.783-10.318l-2.785-7.694a3.135,3.135,0,0,0-6,1.768L10.3,77.833,6.75,72.412,6.688,60.074A4.887,4.887,0,0,0,3,55.355,1.89,1.89,0,0,0,.663,57.108L.005,74.132a6.327,6.327,0,0,0,1.363,4.173L11.623,91.237v2.245H11.3a.774.774,0,0,0-.773.775V100.4a.774.774,0,0,0,.773.775H24.073a.774.774,0,0,0,.773-.775V94.258A.774.774,0,0,0,24.074,93.483ZM13,90.484,2.579,77.34a4.773,4.773,0,0,1-1.028-3.148l.658-17.024c.048-.254.156-.335.412-.309a3.337,3.337,0,0,1,2.52,3.223L5.2,72.65a.777.777,0,0,0,.127.422l6.024,9.2a.773.773,0,0,0,1.4-.6l-2.076-9.16a1.588,1.588,0,0,1,3.041-.9l2.872,7.934a.778.778,0,0,0,.314.391c.058.037,5.829,3.768,5.293,9.041,0,.026,0,4.5,0,4.5H13.17V90.967A.776.776,0,0,0,13,90.484Zm10.3,9.141H12.07V95.033H23.3Z" transform="translate(0 -55.293)" fill="#310e31"/>
                  </g>
                </g>
                <g id="Grupo_1132568" data-name="Grupo 1132568" transform="translate(27.153)">
                  <g id="Grupo_1132566" data-name="Grupo 1132566" transform="translate(1.838 0.778)">
                    <path id="Trazado_933056" data-name="Trazado 933056" d="M267.725,85.559s-6.242,3.946-5.65,9.775v5.195h10.573V97.238l10.423-13.144a5.548,5.548,0,0,0,1.2-3.661l-.658-17.024a1.105,1.105,0,0,0-1.373-1.031,4.114,4.114,0,0,0-3.105,3.971l-.063,12.568-6.024,9.2,2.076-9.16a2.361,2.361,0,0,0-4.522-1.332Z" transform="translate(-262.035 -62.342)" fill="#ffdecf"/>
                    <path id="Trazado_933057" data-name="Trazado 933057" d="M270.977,97.743V96.665L281.4,83.522a5.548,5.548,0,0,0,1.2-3.661l-.668-17.289a4.107,4.107,0,0,1,.643-.217,1.1,1.1,0,0,1,1.356,1.036l.658,17.024a5.547,5.547,0,0,1-1.2,3.661L272.966,97.219v3.291H262.393V98.849h7.478A1.106,1.106,0,0,0,270.977,97.743Z" transform="translate(-262.353 -62.323)" fill="#f9bcaa"/>
                  </g>
                  <g id="Grupo_1132567" data-name="Grupo 1132567">
                    <path id="Trazado_933058" data-name="Trazado 933058" d="M252.416,407.478h12.777v6.142H252.416Z" transform="translate(-251.643 -368.513)" fill="#e56ab9"/>
                    <path id="Trazado_933059" data-name="Trazado 933059" d="M263.2,409v-1.518h1.989v6.142H252.416v-1.994h8.164A2.627,2.627,0,0,0,263.2,409Z" transform="translate(-251.643 -368.513)" fill="#bd50b6"/>
                    <path id="Trazado_933060" data-name="Trazado 933060" d="M268.9,78.3a6.327,6.327,0,0,0,1.363-4.173l-.658-17.024a1.89,1.89,0,0,0-2.334-1.753,4.887,4.887,0,0,0-3.69,4.719l-.062,12.339-3.549,5.421,1.128-4.975a3.135,3.135,0,0,0-6-1.768l-2.785,7.694c-1.177.809-6.329,4.69-5.783,10.318v4.381h-.33a.774.774,0,0,0-.773.775V100.4a.774.774,0,0,0,.773.775h12.777a.774.774,0,0,0,.773-.775V94.257a.774.774,0,0,0-.773-.775h-.327V91.236ZM258.2,99.624h-11.23V95.032H258.2Zm-10.126-6.142s0-4.472,0-4.5c-.535-5.263,5.214-8.99,5.293-9.041a.775.775,0,0,0,.314-.391l2.872-7.934a1.588,1.588,0,0,1,3.041.9l-2.076,9.16a.774.774,0,0,0,1.4.6l6.024-9.2a.776.776,0,0,0,.127-.422l.063-12.568a3.337,3.337,0,0,1,2.52-3.223c.256-.025.364.056.412.309l.658,17.024a4.774,4.774,0,0,1-1.029,3.148L257.27,90.483a.777.777,0,0,0-.168.482v2.516Z" transform="translate(-245.425 -55.292)" fill="#310e31"/>
                  </g>
                </g>
              </g>
              <g id="Grupo_1132581" data-name="Grupo 1132581" transform="translate(12.024)">
                <g id="Grupo_1132576" data-name="Grupo 1132576" transform="translate(0.773 0.775)">
                  <g id="Grupo_1132572" data-name="Grupo 1132572">
                    <g id="Grupo_1132570" data-name="Grupo 1132570" transform="translate(0 6.043)">
                      <path id="Trazado_933061" data-name="Trazado 933061" d="M122.787,61.623a7.115,7.115,0,0,0-7.115,7.115v2.625a1.768,1.768,0,0,0,1.768,1.768h10.694a1.768,1.768,0,0,0,1.768-1.768V68.738A7.115,7.115,0,0,0,122.787,61.623Z" transform="translate(-115.672 -61.623)" fill="#80d8ff"/>
                      <path id="Trazado_933062" data-name="Trazado 933062" d="M120.367,71.248a2.489,2.489,0,0,1-2.486-2.492,7.129,7.129,0,0,1,6.01-7.047,7.117,7.117,0,0,0-8.22,7.047v2.6a1.77,1.77,0,0,0,1.768,1.772h10.694a1.77,1.77,0,0,0,1.768-1.772v-.111Z" transform="translate(-115.672 -61.624)" fill="#8c9eff"/>
                    </g>
                    <g id="Grupo_1132571" data-name="Grupo 1132571" transform="translate(2.736)">
                      <ellipse id="Elipse_5918" data-name="Elipse 5918" cx="4.379" cy="4.389" rx="4.379" ry="4.389" transform="translate(0)" fill="#ffdecf"/>
                      <path id="Trazado_933063" data-name="Trazado 933063" d="M146.22,19.133a4.391,4.391,0,0,1-3.613-6.868,4.386,4.386,0,1,0,5.79,6.286A4.348,4.348,0,0,1,146.22,19.133Z" transform="translate(-140.405 -11.683)" fill="#f9bcaa"/>
                    </g>
                  </g>
                  <g id="Grupo_1132575" data-name="Grupo 1132575" transform="translate(12.174)">
                    <g id="Grupo_1132573" data-name="Grupo 1132573" transform="translate(0 6.043)">
                      <path id="Trazado_933064" data-name="Trazado 933064" d="M232.825,61.623a7.115,7.115,0,0,0-7.115,7.115v2.625a1.768,1.768,0,0,0,1.768,1.768h10.694a1.768,1.768,0,0,0,1.768-1.768V68.738a7.115,7.115,0,0,0-7.115-7.115Z" transform="translate(-225.71 -61.623)" fill="#80d8ff"/>
                      <path id="Trazado_933065" data-name="Trazado 933065" d="M230.405,71.248a2.489,2.489,0,0,1-2.486-2.492,7.129,7.129,0,0,1,6.01-7.047,7.117,7.117,0,0,0-8.22,7.047v2.6a1.77,1.77,0,0,0,1.768,1.772h10.694a1.77,1.77,0,0,0,1.768-1.772v-.111Z" transform="translate(-225.71 -61.624)" fill="#8c9eff"/>
                    </g>
                    <g id="Grupo_1132574" data-name="Grupo 1132574" transform="translate(2.736)">
                      <ellipse id="Elipse_5919" data-name="Elipse 5919" cx="4.379" cy="4.389" rx="4.379" ry="4.389" transform="translate(0)" fill="#ffdecf"/>
                      <path id="Trazado_933066" data-name="Trazado 933066" d="M256.258,19.133a4.391,4.391,0,0,1-3.613-6.868,4.386,4.386,0,1,0,5.79,6.286A4.348,4.348,0,0,1,256.258,19.133Z" transform="translate(-250.443 -11.683)" fill="#f9bcaa"/>
                    </g>
                  </g>
                </g>
                <g id="Grupo_1132580" data-name="Grupo 1132580">
                  <g id="Grupo_1132577" data-name="Grupo 1132577" transform="translate(6.861 11.245)">
                    <path id="Trazado_933067" data-name="Trazado 933067" d="M177.806,101.635a7.115,7.115,0,0,0-7.115,7.115v2.625a1.768,1.768,0,0,0,1.768,1.768h10.694a1.768,1.768,0,0,0,1.768-1.768V108.75A7.115,7.115,0,0,0,177.806,101.635Z" transform="translate(-170.691 -101.635)" fill="#fef2a8"/>
                    <path id="Trazado_933068" data-name="Trazado 933068" d="M175.386,111.259a2.489,2.489,0,0,1-2.486-2.492,7.129,7.129,0,0,1,6.01-7.047,7.117,7.117,0,0,0-8.22,7.047v2.6a1.77,1.77,0,0,0,1.768,1.772h10.694a1.77,1.77,0,0,0,1.768-1.772v-.111Z" transform="translate(-170.691 -101.635)" fill="#eeb6a8"/>
                  </g>
                  <g id="Grupo_1132578" data-name="Grupo 1132578" transform="translate(11.002 17.107)">
                    <path id="Trazado_933069" data-name="Trazado 933069" d="M211.821,156.17H208.9a.775.775,0,0,1,0-1.551h2.921a.775.775,0,0,1,0,1.551Z" transform="translate(-208.126 -154.619)" fill="#fff"/>
                    <path id="Trazado_933070" data-name="Trazado 933070" d="M261.024,156.17h-.575a.775.775,0,0,1,0-1.551h.575a.775.775,0,0,1,0,1.551Z" transform="translate(-253.973 -154.619)" fill="#fff"/>
                  </g>
                  <g id="Grupo_1132579" data-name="Grupo 1132579">
                    <ellipse id="Elipse_5920" data-name="Elipse 5920" cx="4.379" cy="4.389" rx="4.379" ry="4.389" transform="translate(9.597 5.202)" fill="#ffdecf"/>
                    <path id="Trazado_933071" data-name="Trazado 933071" d="M201.239,59.144a4.391,4.391,0,0,1-3.613-6.868,4.386,4.386,0,1,0,5.79,6.286A4.348,4.348,0,0,1,201.239,59.144Z" transform="translate(-185.827 -46.492)" fill="#f9bcaa"/>
                    <path id="Trazado_933072" data-name="Trazado 933072" d="M133.328,7.52a5.154,5.154,0,1,0-9.693-3,5.107,5.107,0,0,0-1.953,0,5.151,5.151,0,1,0-9.693,3,7.905,7.905,0,0,0-3.306,6.43v2.6a2.547,2.547,0,0,0,2.541,2.548h3.546V20.98a2.547,2.547,0,0,0,2.541,2.548H128a2.547,2.547,0,0,0,2.541-2.548V19.1h3.546a2.547,2.547,0,0,0,2.541-2.548v-2.6a7.907,7.907,0,0,0-3.306-6.431Zm-4.583-5.969a3.614,3.614,0,0,1,0,7.228,3.57,3.57,0,0,1-1.027-.152,5.179,5.179,0,0,0-2.576-3.558,3.613,3.613,0,0,1,3.6-3.518Zm-6.087,4.427a3.614,3.614,0,1,1-3.605,3.614,3.614,3.614,0,0,1,3.605-3.614ZM116.57,1.551a3.613,3.613,0,0,1,3.6,3.518A5.179,5.179,0,0,0,117.6,8.627a3.574,3.574,0,0,1-1.027.152,3.614,3.614,0,0,1,0-7.228Zm-1.757,16h-3.59a1,1,0,0,1-.994-1v-2.6a6.357,6.357,0,0,1,2.664-5.174,5.124,5.124,0,0,0,4.654,1.459,5.141,5.141,0,0,0,.529,1.712,7.913,7.913,0,0,0-3.262,5.6ZM129,20.98a1,1,0,0,1-.994,1H117.31a1,1,0,0,1-.994-1v-2.6A6.356,6.356,0,0,1,118.98,13.2a5.132,5.132,0,0,0,7.356,0A6.357,6.357,0,0,1,129,18.377Zm6.087-4.427a1,1,0,0,1-.994,1H130.5a7.913,7.913,0,0,0-3.262-5.6,5.143,5.143,0,0,0,.529-1.712,5.127,5.127,0,0,0,4.653-1.458,6.354,6.354,0,0,1,2.665,5.173Z" transform="translate(-108.682)" fill="#310e31"/>
                  </g>
                </g>
              </g>
            </g>
          </g>
        </g>
      </g>
    </g>
  </g>
</svg>
