<svg xmlns="http://www.w3.org/2000/svg" xmlns:xlink="http://www.w3.org/1999/xlink" width="103" height="103" viewBox="0 0 103 103">
  <defs>
    <filter id="Elipse_4743" x="0" y="0" width="103" height="103" filterUnits="userSpaceOnUse">
      <feOffset dy="3" input="SourceAlpha"/>
      <feGaussianBlur stdDeviation="3" result="blur"/>
      <feFlood flood-opacity="0.161"/>
      <feComposite operator="in" in2="blur"/>
      <feComposite in="SourceGraphic"/>
    </filter>
  </defs>
  <g id="Grupo_1134887" data-name="Grupo 1134887" transform="translate(9 6)">
    <g transform="matrix(1, 0, 0, 1, -9, -6)" filter="url(#Elipse_4743)">
      <circle id="Elipse_4743-2" data-name="Elipse 4743" cx="42.5" cy="42.5" r="42.5" transform="translate(9 6)" fill="#3c1c74"/>
    </g>
    <g id="doctor_1152746" transform="translate(15.036 14.726)">
      <path id="Trazado_934192" data-name="Trazado 934192" d="M322.883,10.168v9.85a2.043,2.043,0,0,1-2.1,1.968l-7.058.055-4.495,4.229c-.659.622-1.391.183-1.391-.7V22.04h-3.918a2.129,2.129,0,0,1-1.721-.852,1.863,1.863,0,0,1-.375-1.117v-9.85a2.042,2.042,0,0,1,2.1-1.968L319.779,8.2h1.007a2.037,2.037,0,0,1,2.1,1.968Zm0,0" transform="translate(-268.91 -7.027)" fill="#00838f"/>
      <path id="Trazado_934193" data-name="Trazado 934193" d="M320.136,9.315v9.85a2.037,2.037,0,0,1-2.1,1.968l-7.058.064-3.14,2.957V22.048H305.1V21.2H302.2a1.863,1.863,0,0,1-.375-1.117V10.23a2.042,2.042,0,0,1,2.1-1.968l15.855-.055a1.944,1.944,0,0,1,.357,1.108Zm0,0" transform="translate(-268.909 -7.035)" fill="#00bcd4"/>
      <path id="Trazado_934194" data-name="Trazado 934194" d="M329.19,34.806a.916.916,0,1,1-.916-.916A.915.915,0,0,1,329.19,34.806Zm0,0" transform="translate(-291.656 -29.917)"/>
      <path id="Trazado_934195" data-name="Trazado 934195" d="M153.333,14.2a5.492,5.492,0,0,1-5.492,5.492,5.635,5.635,0,0,1-1.374-.174,5.487,5.487,0,0,1,0-10.628,5.23,5.23,0,0,1,1.374-.183,5.492,5.492,0,0,1,5.492,5.492Zm0,0" transform="translate(-126.822 -7.483)" fill="#bfa885"/>
      <path id="Trazado_934196" data-name="Trazado 934196" d="M150.588,15.7a5.51,5.51,0,0,1-4.12,5.318,5.487,5.487,0,0,1,0-10.628,5.493,5.493,0,0,1,4.12,5.309Zm0,0" transform="translate(-126.823 -8.98)" fill="#ffecb3"/>
      <path id="Trazado_934197" data-name="Trazado 934197" d="M235.44,149.412v8.239h-2.747v-8.239A6.408,6.408,0,0,0,226.286,143h2.747A6.408,6.408,0,0,1,235.44,149.412Zm0,0" transform="translate(-201.606 -127.13)" fill="#0377bc"/>
      <path id="Trazado_934198" data-name="Trazado 934198" d="M98.088,149.412v8.239H75.2v-8.239A6.408,6.408,0,0,1,81.611,143h3.662l2.747,3.662L90.765,143h.915A6.408,6.408,0,0,1,98.088,149.412Zm0,0" transform="translate(-67.001 -127.13)" fill="#02a9f4"/>
      <path id="Trazado_934199" data-name="Trazado 934199" d="M49.252,279.131a1.845,1.845,0,0,1-1.831,1.831H9.889a1.836,1.836,0,0,1-1.831-1.831A1.844,1.844,0,0,1,9.889,277.3H47.421a1.836,1.836,0,0,1,1.831,1.831Zm0,0" transform="translate(-7.179 -246.78)" fill="#37474f"/>
      <path id="Trazado_934200" data-name="Trazado 934200" d="M46.505,279.131a1.845,1.845,0,0,1-1.831,1.831H9.889a1.836,1.836,0,0,1-1.831-1.831A1.844,1.844,0,0,1,9.889,277.3H44.675a1.836,1.836,0,0,1,1.831,1.831Zm0,0" transform="translate(-7.179 -246.78)" fill="#607d8b"/>
      <path id="Trazado_934201" data-name="Trazado 934201" d="M61.46,310.875v18.308a1.836,1.836,0,0,1-1.831,1.831H26.675a1.836,1.836,0,0,1-1.831-1.831V310.875Zm0,0" transform="translate(-22.134 -276.693)" fill="#9e9e9e"/>
      <path id="Trazado_934202" data-name="Trazado 934202" d="M58.714,310.875v18.308a1.836,1.836,0,0,1-1.831,1.831H26.675a1.836,1.836,0,0,1-1.831-1.831V310.875Zm0,0" transform="translate(-22.134 -276.693)" fill="#cfd8dc"/>
      <path id="Trazado_934203" data-name="Trazado 934203" d="M146.773,349.942v1.831a.915.915,0,0,1-.916.916h-2.746a.915.915,0,0,0-.916.915v2.746a.915.915,0,0,1-.916.916H139.45a.915.915,0,0,1-.916-.916V353.6a.915.915,0,0,0-.916-.915h-2.746a.916.916,0,0,1-.916-.916v-1.831a.916.916,0,0,1,.916-.916h2.746a.915.915,0,0,0,.916-.916v-2.746a.915.915,0,0,1,.916-.915h1.831a.915.915,0,0,1,.916.915v2.746a.915.915,0,0,0,.916.916h2.746A.915.915,0,0,1,146.773,349.942Zm0,0" transform="translate(-119.347 -306.606)" fill="#c03a2b"/>
      <path id="Trazado_934204" data-name="Trazado 934204" d="M52.21,420.9a.915.915,0,1,1-.916-.916A.915.915,0,0,1,52.21,420.9Zm0,0" transform="translate(-44.884 -373.906)"/>
      <path id="Trazado_934205" data-name="Trazado 934205" d="M178.108,34.806a.916.916,0,1,1-.916-.916A.915.915,0,0,1,178.108,34.806Zm0,0" transform="translate(-157.051 -29.917)"/>
      <path id="Trazado_934206" data-name="Trazado 934206" d="M313.663.312h-16.87A2.953,2.953,0,0,0,293.785,3.2v9.85a2.953,2.953,0,0,0,3.008,2.885H299.8v2.617a1.857,1.857,0,0,0,1.051,1.773,1.553,1.553,0,0,0,.623.131,1.853,1.853,0,0,0,1.262-.541l4.227-3.98h6.7a2.951,2.951,0,0,0,3.007-2.885V3.2A2.951,2.951,0,0,0,313.663.312Zm1.176,12.735a1.12,1.12,0,0,1-1.176,1.054H306.6a.916.916,0,0,0-.627.249l-4.342,4.077V15.016a.915.915,0,0,0-.915-.916h-3.924a1.121,1.121,0,0,1-1.177-1.054V3.2a1.136,1.136,0,0,1,1.177-1.055h16.87A1.121,1.121,0,0,1,314.84,3.2Zm0,0" transform="translate(-261.743)"/>
      <path id="Trazado_934207" data-name="Trazado 934207" d="M328.275,67.465a.915.915,0,0,0-.916.916v1.831a.916.916,0,0,0,1.831,0V68.38A.915.915,0,0,0,328.275,67.465Zm0,0" transform="translate(-291.656 -59.83)"/>
      <path id="Trazado_934208" data-name="Trazado 934208" d="M369.86,34.2a.915.915,0,0,0-1.291-.087L365.5,36.791l-3.059-2.677a.916.916,0,1,0-1.206,1.379l2.874,2.514-2.874,2.515a.915.915,0,0,0,1.2,1.379l3.058-2.677,3.059,2.677a.916.916,0,1,0,1.206-1.379L366.9,38.007l2.873-2.514a.916.916,0,0,0,.091-1.292Zm0,0" transform="translate(-321.562 -29.914)"/>
      <path id="Trazado_934209" data-name="Trazado 934209" d="M40.28,149.259H34.788v-7.323a7.331,7.331,0,0,0-7.323-7.323H23.8c-.023,0-.041.011-.064.013a.8.8,0,0,0-.478.183.978.978,0,0,0-.144.128c-.014.017-.033.025-.046.041l-2.014,2.685-2.014-2.685c-.013-.017-.032-.025-.046-.041a.868.868,0,0,0-.142-.126.852.852,0,0,0-.138-.092.87.87,0,0,0-.162-.056.86.86,0,0,0-.183-.037c-.022,0-.041-.013-.065-.013H14.646a7.331,7.331,0,0,0-7.323,7.323v7.323H2.746a2.74,2.74,0,0,0-.916,5.324v17.56a2.746,2.746,0,0,0,2.746,2.746H37.531a2.746,2.746,0,0,0,2.746-2.746V154.752a2.746,2.746,0,1,0,0-5.492ZM9.156,141.936a5.5,5.5,0,0,1,5.493-5.492h3.2l2.472,3.3a.915.915,0,0,0,1.465,0l2.471-3.3h3.2a5.5,5.5,0,0,1,5.492,5.492v7.323H29.3v-7.323a.915.915,0,0,0-1.831,0v7.323H14.649v-7.323a.916.916,0,0,0-1.831,0v7.323H9.156Zm29.293,30.209a.915.915,0,0,1-.915.916H4.58a.915.915,0,0,1-.916-.916V154.752H38.449Zm1.831-19.224H2.748a.915.915,0,0,1,0-1.831H40.28a.915.915,0,1,1,0,1.831Zm0,0" transform="translate(0 -119.654)"/>
      <path id="Trazado_934210" data-name="Trazado 934210" d="M127.748,346.124H130.5v2.746a1.831,1.831,0,0,0,1.831,1.831h1.831a1.831,1.831,0,0,0,1.831-1.831v-2.746h2.746a1.831,1.831,0,0,0,1.831-1.831v-1.831a1.831,1.831,0,0,0-1.831-1.831h-2.746v-2.746a1.831,1.831,0,0,0-1.831-1.831h-1.831a1.831,1.831,0,0,0-1.831,1.831v2.746h-2.747a1.831,1.831,0,0,0-1.831,1.831v1.831A1.831,1.831,0,0,0,127.748,346.124Zm0-3.662H130.5a1.831,1.831,0,0,0,1.831-1.831v-2.746h1.831v2.746a1.831,1.831,0,0,0,1.831,1.831h2.746v1.831h-2.746a1.831,1.831,0,0,0-1.831,1.831v2.746h-1.831v-2.746a1.831,1.831,0,0,0-1.831-1.831h-2.747Zm0,0" transform="translate(-112.184 -299.126)"/>
      <path id="Trazado_934211" data-name="Trazado 934211" d="M51.294,343.378a.915.915,0,0,0,.916-.916V336.97a.915.915,0,1,0-1.831,0v5.492A.915.915,0,0,0,51.294,343.378Zm0,0" transform="translate(-44.884 -299.126)"/>
      <path id="Trazado_934212" data-name="Trazado 934212" d="M134.313,6.724A6.408,6.408,0,1,0,140.721.316a6.408,6.408,0,0,0-6.408,6.408Zm10.985,0a4.577,4.577,0,1,1-4.577-4.577A4.577,4.577,0,0,1,145.3,6.724Zm0,0" transform="translate(-119.664 -0.005)"/>
      <path id="Trazado_934213" data-name="Trazado 934213" d="M185.587,197.028h.916v.915a.915.915,0,1,0,1.831,0v-.915h.916a.916.916,0,0,0,0-1.831h-.916v-.916a.915.915,0,0,0-1.831,0v.916h-.916a.916.916,0,0,0,0,1.831Zm0,0" transform="translate(-164.53 -172)"/>
    </g>
  </g>
</svg>
