<svg xmlns="http://www.w3.org/2000/svg" xmlns:xlink="http://www.w3.org/1999/xlink" width="103" height="103" viewBox="0 0 103 103">
  <defs>
    <filter id="Elipse_5246" x="0" y="0" width="103" height="103" filterUnits="userSpaceOnUse">
      <feOffset dy="3" input="SourceAlpha"/>
      <feGaussianBlur stdDeviation="3" result="blur"/>
      <feFlood flood-opacity="0.161"/>
      <feComposite operator="in" in2="blur"/>
      <feComposite in="SourceGraphic"/>
    </filter>
  </defs>
  <g id="Grupo_1134885" data-name="Grupo 1134885" transform="translate(-275.5 -17197.816)">
    <g id="Grupo_1097295" data-name="Grupo 1097295" transform="translate(0 -3381.543)">
      <g transform="matrix(1, 0, 0, 1, 275.5, 20579.36)" filter="url(#Elipse_5246)">
        <circle id="Elipse_5246-2" data-name="Elipse 5246" cx="42.5" cy="42.5" r="42.5" transform="translate(9 6)" fill="#3c1c74"/>
      </g>
    </g>
    <g id="Grupo_1134888" data-name="Grupo 1134888" transform="translate(-122.069 10373.818)">
      <g id="man_11107584" transform="translate(428 6845.516)">
        <g id="Grupo_1132415" data-name="Grupo 1132415" transform="translate(0.79 0.79)">
          <path id="Trazado_932120" data-name="Trazado 932120" d="M99.923,313.831l-7.692-2.262a3.38,3.38,0,0,1-2.426-3.242V304.1H77.976v4.23a3.38,3.38,0,0,1-2.426,3.242l-7.692,2.262a5.914,5.914,0,0,0-4.246,5.674h40.555A5.914,5.914,0,0,0,99.923,313.831Z" transform="translate(-63.613 -272.835)" fill="#fcdbb2"/>
          <path id="Trazado_932121" data-name="Trazado 932121" d="M214.142,311.57a3.38,3.38,0,0,1-2.426-3.242V304.1H199.887v3.692a13.226,13.226,0,0,0,7.074,1.324,2.938,2.938,0,0,1,2.719,1.558,5.941,5.941,0,0,0,3.746,3.33l2.514.739,1.352-2.245Z" transform="translate(-185.524 -272.836)" fill="#f5c89d"/>
          <path id="Trazado_932122" data-name="Trazado 932122" d="M99.921,380.24l-6.5-1.911c-1.2,1.63-2.945,4.849-9.535,4.849a11.8,11.8,0,0,1-9.535-4.849l-6.5,1.911a5.914,5.914,0,0,0-4.246,5.674v5.714h38.021l2.535-2.415v-3.3A5.914,5.914,0,0,0,99.921,380.24Z" transform="translate(-63.611 -339.244)" fill="#c6805d"/>
          <path id="Trazado_932123" data-name="Trazado 932123" d="M339.885,97.935l-1.025,10.248h-4.322V97.04Z" transform="translate(-305.982 -87.602)" fill="#845252"/>
          <path id="Trazado_932124" data-name="Trazado 932124" d="M146.219,117.47h-1.147a1.69,1.69,0,0,1-1.69-1.69l-14-7.076h-.367a4.225,4.225,0,0,0-4.225,4.225v2.852a1.69,1.69,0,0,1-1.69,1.69h-1.147a2.2,2.2,0,0,0-2.222,1.894,2.113,2.113,0,0,0,2.1,2.33h1.31a10.973,10.973,0,0,0,21.882,0h1.31a2.113,2.113,0,0,0,2.1-2.33A2.2,2.2,0,0,0,146.219,117.47Z" transform="translate(-113.811 -98.037)" fill="#ffeac6"/>
          <path id="Trazado_932125" data-name="Trazado 932125" d="M228.221,117.47h-1.147a1.69,1.69,0,0,1-1.69-1.69V108.7h-14l.129.317a6.751,6.751,0,0,0,7.055,4.177,1.84,1.84,0,0,1,1.267.3,8.406,8.406,0,0,0,2.453,1.128.817.817,0,0,1,.558.8v5.427a10.072,10.072,0,0,1-8.583,10.006l-1.948.3a10.952,10.952,0,0,0,14.712-9.462h1.31a2.113,2.113,0,0,0,2.1-2.33A2.2,2.2,0,0,0,228.221,117.47Z" transform="translate(-195.812 -98.037)" fill="#fcdbb2"/>
          <path id="Trazado_932126" data-name="Trazado 932126" d="M150.835,10.092a.886.886,0,0,1-.6-.364,3.351,3.351,0,0,0-4.146-1.061.8.8,0,0,1-.87-.117,4.172,4.172,0,0,0-6.1.617.852.852,0,0,1-1.027.251,2.882,2.882,0,0,0-1.125-.228,2.983,2.983,0,0,0-1.823.657,3.7,3.7,0,0,1-1.146.593,8.452,8.452,0,0,0-5.819,8.884L128.937,27a2.305,2.305,0,0,1,.543-.073h1.147a1.69,1.69,0,0,0,1.69-1.69V22.391a4.225,4.225,0,0,1,4.225-4.225h2.341a1.733,1.733,0,0,1,1.287.6,4.188,4.188,0,0,0,3.132,1.407,4.085,4.085,0,0,0,1.584-.323.814.814,0,0,1,.9.181,5.888,5.888,0,0,0,4.058,1.828,5.992,5.992,0,0,0,6.126-5.718A5.909,5.909,0,0,0,150.835,10.092Z" transform="translate(-121.333 -7.499)" fill="#c6805d"/>
          <path id="Trazado_932127" data-name="Trazado 932127" d="M340.724,391.628v-5.714a5.914,5.914,0,0,0-4.246-5.674l-6.5-1.911a11.964,11.964,0,0,1-1.942,2.069l.032.011,7.692,2.262a3.379,3.379,0,0,1,2.426,3.242v5.714Z" transform="translate(-300.168 -339.243)" fill="#a46a5a"/>
          <path id="Trazado_932128" data-name="Trazado 932128" d="M146.254,386.558a15.183,15.183,0,0,0,12.93-7.23l-3.4-1a11.8,11.8,0,0,1-19.07,0l-3.4,1A15.183,15.183,0,0,0,146.254,386.558Z" transform="translate(-125.976 -339.244)" fill="#e29a6c"/>
          <path id="Trazado_932129" data-name="Trazado 932129" d="M328.039,380.4h0l.032.011,3.682,1.083a15.341,15.341,0,0,0,1.624-2.164l-3.395-1A11.958,11.958,0,0,1,328.039,380.4Z" transform="translate(-300.168 -339.244)" fill="#c6805d"/>
          <path id="Trazado_932130" data-name="Trazado 932130" d="M259.288,39.668a5.9,5.9,0,0,0-4.3-5.869,6.4,6.4,0,0,1,.328,3.645,5.766,5.766,0,0,1-4.527,4.087,5.534,5.534,0,0,1-1.511.011,5.351,5.351,0,0,0-2.932.4,5.436,5.436,0,0,1-2.255.491h-.473a4.177,4.177,0,0,0,2.994,1.268,4.086,4.086,0,0,0,1.584-.323.814.814,0,0,1,.9.181,5.889,5.889,0,0,0,4.058,1.828A5.992,5.992,0,0,0,259.288,39.668Z" transform="translate(-224.65 -31.027)" fill="#a46a5a"/>
        </g>
        <g id="Grupo_1132416" data-name="Grupo 1132416" transform="translate(0 0)">
          <path id="Trazado_932134" data-name="Trazado 932134" d="M93.435,41.029l-7.692-2.262a2.6,2.6,0,0,1-1.859-2.484V33.275a11.792,11.792,0,0,0,4.956-8.037h.47a3,3,0,0,0,3.008-2.606,2.9,2.9,0,0,0-1.582-2.888l.725-7.25a6.6,6.6,0,0,0,.871-3.146,6.694,6.694,0,0,0-5.861-6.753A4.142,4.142,0,0,0,81.31,1.247a4.963,4.963,0,0,0-7.278.762,3.671,3.671,0,0,0-1.5-.319,3.727,3.727,0,0,0-2.665,1.132,9.244,9.244,0,0,0-6.909,9.872l.707,7.066a2.883,2.883,0,0,0,1.263,5.479h.59a11.788,11.788,0,0,0,4.956,8.038v3.006a2.6,2.6,0,0,1-1.859,2.484l-7.692,2.262a6.742,6.742,0,0,0-4.813,6.432v5.713a.791.791,0,0,0,1.581,0V47.461a5.152,5.152,0,0,1,3.678-4.916L63.89,41.8a16,16,0,0,0,26.581,0l2.518.741a5.152,5.152,0,0,1,3.678,4.916v5.714a.79.79,0,1,0,1.581,0V47.461a6.742,6.742,0,0,0-4.813-6.432Zm-6.171-25.3a6.819,6.819,0,0,0,2.4-1.177l-.488,4.883H88.164a.9.9,0,0,1-.9-.9ZM66.987,23.6a.791.791,0,1,0-1.581,0v.054h-.477A1.322,1.322,0,0,1,63.615,22.2a1.4,1.4,0,0,1,1.435-1.183H66.2a2.483,2.483,0,0,0,2.48-2.48V15.682a3.422,3.422,0,0,1,3.082-3.416.79.79,0,1,0-.16-1.573,5,5,0,0,0-4.5,4.989v2.852a.9.9,0,0,1-.9.9h-.974l-.69-6.9A7.66,7.66,0,0,1,70.461,4.3a.79.79,0,0,0,.429-.26,2.124,2.124,0,0,1,2.93-.338.791.791,0,0,0,1.174-.268,3.418,3.418,0,0,1,3.03-1.859,3.384,3.384,0,0,1,2.563,1.174.791.791,0,0,0,1.041.128,2.566,2.566,0,0,1,3.7.855.791.791,0,0,0,.635.4,5.12,5.12,0,1,1-4.367,8.26.791.791,0,0,0-1.019-.2,3.376,3.376,0,0,1-1.709.476A3.438,3.438,0,0,1,75.436,9.24a.791.791,0,0,0-1.581,0,5.021,5.021,0,0,0,5.015,5.015,4.848,4.848,0,0,0,1.91-.392,6.682,6.682,0,0,0,4.6,2.077c.1,0,.2,0,.3,0v2.591a2.483,2.483,0,0,0,2.48,2.48h1.267a1.322,1.322,0,0,1,1.315,1.461,1.4,1.4,0,0,1-1.435,1.183h-.357v-.046a.79.79,0,0,0-.79-.791h0a.79.79,0,0,0-.791.79A10.193,10.193,0,0,1,66.987,23.6ZM77.18,47.314a14.355,14.355,0,0,1-11.692-5.98l1.847-.543a12.512,12.512,0,0,0,9.845,4.725,12.65,12.65,0,0,0,3.34-.447.791.791,0,1,0-.418-1.525,11.067,11.067,0,0,1-2.923.391A10.938,10.938,0,0,1,68.995,40.3l.068-.02a4.193,4.193,0,0,0,2.993-4V34.2a11.757,11.757,0,0,0,10.248,0v2.081a4.193,4.193,0,0,0,2.993,4l.068.02a11.027,11.027,0,0,1-2.488,2.05.791.791,0,1,0,.817,1.353,12.6,12.6,0,0,0,3.329-2.916l1.85.544a14.343,14.343,0,0,1-11.693,5.98Z" transform="translate(-56.112 0)"/>
          <path id="Trazado_932135" data-name="Trazado 932135" d="M195.86,166.727a.79.79,0,0,0-.884-.684l-1.9.243a.791.791,0,0,0,.1,1.575.8.8,0,0,0,.1-.006l1.9-.243A.79.79,0,0,0,195.86,166.727Z" transform="translate(-178.023 -148.536)"/>
          <path id="Trazado_932136" data-name="Trazado 932136" d="M287.291,167.612l1.9.243a.805.805,0,0,0,.1.006.791.791,0,0,0,.1-1.575l-1.9-.243a.79.79,0,1,0-.2,1.568Z" transform="translate(-262.307 -148.537)"/>
          <path id="Trazado_933210" data-name="Trazado 933210" d="M296.349,192.736v11.533a8.906,8.906,0,0,0,2.84-1.631v-9.9A5.872,5.872,0,0,0,296.349,192.736Z" transform="translate(-271.736 -171.102)" fill="#80b4fb"/>
          <path id="Trazado_933211" data-name="Trazado 933211" d="M299.189,192.741v11.743a8.813,8.813,0,0,1-1.8-.688c-.274-.143-.554-.479-1.039-.764V192.741A5.716,5.716,0,0,1,299.189,192.741Z" transform="translate(-281.346 -171.22)" fill="#80b4fb"/>
          <path id="Trazado_933212" data-name="Trazado 933212" d="M14.967,21.967a5.671,5.671,0,0,0,1.211.225,6.38,6.38,0,0,0,1.274-.076" transform="translate(0.213 -0.626)" fill="none" stroke="#152020" stroke-linecap="round" stroke-width="1"/>
          <path id="Trazado_933213" data-name="Trazado 933213" d="M17.452,21.967a5.668,5.668,0,0,1-1.211.225,6.376,6.376,0,0,1-1.274-.076" transform="translate(9.824 -0.626)" fill="none" stroke="#152020" stroke-linecap="round" stroke-width="1"/>
        </g>
      </g>
    </g>
  </g>
</svg>
