<svg xmlns="http://www.w3.org/2000/svg" xmlns:xlink="http://www.w3.org/1999/xlink" width="103" height="103" viewBox="0 0 103 103">
  <defs>
    <filter id="Elipse_5245" x="0" y="0" width="103" height="103" filterUnits="userSpaceOnUse">
      <feOffset dy="3" input="SourceAlpha"/>
      <feGaussianBlur stdDeviation="3" result="blur"/>
      <feFlood flood-opacity="0.161"/>
      <feComposite operator="in" in2="blur"/>
      <feComposite in="SourceGraphic"/>
    </filter>
  </defs>
  <g id="Grupo_1134884" data-name="Grupo 1134884" transform="translate(9 6)">
    <g transform="matrix(1, 0, 0, 1, -9, -6)" filter="url(#Elipse_5245)">
      <circle id="Elipse_5245-2" data-name="Elipse 5245" cx="42.5" cy="42.5" r="42.5" transform="translate(9 6)" fill="#3c1c74"/>
    </g>
    <g id="sin-contacto" transform="translate(16.617 16.803)">
      <g id="Layer_33" data-name="Layer 33" transform="translate(0.853 0.859)">
        <path id="Trazado_842255" data-name="Trazado 842255" d="M45.326,59.87H23L23.859,53H44.468Z" transform="translate(-5.826 -10.065)" fill="#57a4ff"/>
        <path id="Trazado_842256" data-name="Trazado 842256" d="M45.326,59.87h-.318l-.541-4.294H23.859l-.532,4.294H23L23.859,53H44.468Z" transform="translate(-5.826 -10.065)" fill="#006df0"/>
        <path id="Trazado_842257" data-name="Trazado 842257" d="M55.481,25.876,42.609,42.5v3.435H25.435V42.5l-1.425-2.284c-.455-.79-1.683-2.267-2.009-2.868V14.163a2.576,2.576,0,0,1,5.152,0V9.87a2.576,2.576,0,1,1,5.152,0V5.576a2.576,2.576,0,0,1,5.152,0V9.87a2.576,2.576,0,0,1,5.152,0V31.337L49.221,23.4a3.435,3.435,0,0,1,4.543-.661l1.211.807A1.723,1.723,0,0,1,55.481,25.876Z" transform="translate(-5.685 -3)" fill="#ffdaaa"/>
        <g id="Grupo_1077168" data-name="Grupo 1077168" transform="translate(18.892)">
          <path id="Trazado_842258" data-name="Trazado 842258" d="M58.307,29.03,45.435,45.655V49.09H42V45.655L54.872,29.03a1.723,1.723,0,0,0-.507-2.327L53.155,25.9a2.054,2.054,0,0,0-.18-.112,3.435,3.435,0,0,1,3.615.112L57.8,26.7a1.723,1.723,0,0,1,.507,2.327Z" transform="translate(-27.402 -6.154)" fill="#ffc477"/>
          <path id="Trazado_842259" data-name="Trazado 842259" d="M43,8a2.576,2.576,0,0,1,2.576,2.576V27.75H43Z" transform="translate(-27.543 -3.706)" fill="#ffc477"/>
          <path id="Trazado_842260" data-name="Trazado 842260" d="M37,3a2.576,2.576,0,0,1,2.576,2.576V27.044H37Z" transform="translate(-26.696 -3)" fill="#ffc477"/>
          <path id="Trazado_842261" data-name="Trazado 842261" d="M31,8a2.576,2.576,0,0,1,2.576,2.576V27.75H31Z" transform="translate(-25.848 -3.706)" fill="#ffc477"/>
          <path id="Trazado_842262" data-name="Trazado 842262" d="M25,13a2.576,2.576,0,0,1,2.576,2.576V28.457H25Z" transform="translate(-25 -4.413)" fill="#ffc477"/>
        </g>
        <path id="Trazado_842263" data-name="Trazado 842263" d="M44.468,53l.859,6.87H23L23.859,53H44.468Z" transform="translate(-5.826 -10.065)" fill="#f51cb4"/>
        <circle id="Elipse_5251" data-name="Elipse 5251" cx="11.163" cy="11.163" r="11.163" transform="translate(0 14.598)" fill="#ffde55"/>
        <path id="Trazado_842264" data-name="Trazado 842264" d="M25.613,31.45A11.163,11.163,0,0,1,5.03,37.435,11.163,11.163,0,0,0,20.435,22.03a11.135,11.135,0,0,1,5.178,9.42Z" transform="translate(-3.287 -5.689)" fill="#ffcd00"/>
        <path id="Trazado_842265" data-name="Trazado 842265" d="M21.581,28.861l-3.04,3.04,3.04,3.04-3.641,3.641-3.04-3.04-3.04,3.04L8.22,34.941l3.04-3.04-3.04-3.04,3.641-3.641,3.04,3.04,3.04-3.04Z" transform="translate(-3.738 -6.14)" fill="#ff3051"/>
      </g>
      <g id="Layer_34" data-name="Layer 34">
        <g id="touchless">
          <path id="Trazado_842266" data-name="Trazado 842266" d="M52.622,22.695l-1.2-.807a4.294,4.294,0,0,0-5.685.824l-5.092,6.114V9.728a3.435,3.435,0,0,0-3.435-3.435,3.354,3.354,0,0,0-1.717.481V5.435a3.435,3.435,0,0,0-6.87,0v1.34A3.354,3.354,0,0,0,26.9,6.294a3.435,3.435,0,0,0-3.435,3.435v1.34a3.354,3.354,0,0,0-1.717-.481,3.431,3.431,0,0,0-3.435,3.435v3.383a12.015,12.015,0,1,0,1.365,21.82c.06.112.129.215.2.335.18.292.369.6.575.97l1.3,2.078v2.327h-.859a.859.859,0,0,0-.85.756l-.859,6.87a.831.831,0,0,0,.206.67.842.842,0,0,0,.644.292H42.36A.842.842,0,0,0,43,53.23a.831.831,0,0,0,.206-.67l-.859-6.87a.859.859,0,0,0-.85-.756h-.859V42.651L53.334,26.258a.476.476,0,0,0,.052-.069A2.568,2.568,0,0,0,52.622,22.695ZM20.034,14.022a1.717,1.717,0,0,1,3.435,0v7.187a12.189,12.189,0,0,0-3.435-2.988Zm-6.011,24.9a10.3,10.3,0,1,1,10.3-10.3A10.3,10.3,0,0,1,14.023,38.924Zm26.723,7.728.644,5.152H21l.644-5.152Zm11.2-21.4L39.106,41.835a.825.825,0,0,0-.18.524v2.576H23.469V42.359a.848.848,0,0,0-.129-.455l-1.408-2.258c-.206-.352-.4-.67-.584-.97-.077-.137-.146-.258-.215-.378A11.966,11.966,0,0,0,25.186,24.18V9.728a1.717,1.717,0,1,1,3.435,0V26.9h1.717V5.435a1.717,1.717,0,1,1,3.435,0V26.9h1.717V9.728a1.717,1.717,0,0,1,3.435,0V30.337H37.208a5.152,5.152,0,0,0-5.152,5.152h1.717a3.435,3.435,0,0,1,3.435-3.435h2.576a.859.859,0,0,0,.653-.318l.009.009,6.612-7.934a2.565,2.565,0,0,1,3.409-.489l1.2.8A.859.859,0,0,1,51.943,25.254Z" transform="translate(-2.007 -2)"/>
          <path id="Trazado_842267" data-name="Trazado 842267" d="M19.62,31.761l2.43-2.43a.859.859,0,0,0,0-1.211l-3.65-3.65a.888.888,0,0,0-1.211,0l-2.43,2.43-2.43-2.43a.888.888,0,0,0-1.211,0l-3.65,3.65a.859.859,0,0,0,0,1.211l2.43,2.43-2.43,2.43a.859.859,0,0,0,0,1.211l3.65,3.65a.888.888,0,0,0,1.211,0l2.43-2.43,2.43,2.43a.887.887,0,0,0,.61.249.866.866,0,0,0,.6-.249l3.65-3.65a.859.859,0,0,0,0-1.211ZM17.8,37.223,15.369,34.8a.85.85,0,0,0-1.219,0l-2.43,2.422L9.3,34.8l2.422-2.43a.85.85,0,0,0,0-1.219L9.3,28.721,11.72,26.3l2.43,2.422a.882.882,0,0,0,1.219,0L17.8,26.3l2.422,2.422L17.8,31.152a.85.85,0,0,0,0,1.219l2.422,2.43Z" transform="translate(-2.743 -5.141)"/>
        </g>
      </g>
    </g>
  </g>
</svg>
