<svg xmlns="http://www.w3.org/2000/svg" xmlns:xlink="http://www.w3.org/1999/xlink" width="103" height="103" viewBox="0 0 103 103">
  <defs>
    <filter id="Elipse_5246" x="0" y="0" width="103" height="103" filterUnits="userSpaceOnUse">
      <feOffset dy="3" input="SourceAlpha"/>
      <feGaussianBlur stdDeviation="3" result="blur"/>
      <feFlood flood-opacity="0.161"/>
      <feComposite operator="in" in2="blur"/>
      <feComposite in="SourceGraphic"/>
    </filter>
  </defs>
  <g id="Grupo_1134886" data-name="Grupo 1134886" transform="translate(-275.5 -17335.156)">
    <g transform="matrix(1, 0, 0, 1, 275.5, 17335.16)" filter="url(#Elipse_5246)">
      <circle id="Elipse_5246-2" data-name="Elipse 5246" cx="42.5" cy="42.5" r="42.5" transform="translate(9 6)" fill="#3c1c74"/>
    </g>
    <g id="bad_5692392_1_" data-name="bad_5692392 (1)" transform="translate(279.784 17354.211)">
      <g id="Grupo_1132877" data-name="Grupo 1132877" transform="translate(37.815 22.476)">
        <path id="Trazado_934172" data-name="Trazado 934172" d="M156.328,209.135l6.093,5.68,6.1-5.68V195.448a10.425,10.425,0,0,1-12.19-.033Z" transform="translate(-156.328 -195.415)" fill="#ffbd86" fill-rule="evenodd"/>
      </g>
      <g id="Grupo_1132878" data-name="Grupo 1132878" transform="translate(37.815 22.476)">
        <path id="Trazado_934173" data-name="Trazado 934173" d="M156.328,201.391a10.449,10.449,0,0,0,8.381,1.735c.955-.212.834.336.834,1.363l-.016,1.855,2.991-2.788v-8.109a10.412,10.412,0,0,1-11.608.355c-.2-.124-.389-.251-.582-.388Z" transform="translate(-156.328 -195.415)" fill="#f6a96c" fill-rule="evenodd"/>
      </g>
      <g id="Grupo_1132879" data-name="Grupo 1132879" transform="translate(23.275 30.894)">
        <path id="Trazado_934174" data-name="Trazado 934174" d="M61.1,268.607l-10.558,5.4-10.555-5.4a12.732,12.732,0,0,0-10.078,12.4v6.821h41.27V281.01A12.732,12.732,0,0,0,61.1,268.607Z" transform="translate(-29.913 -268.607)" fill="#62dbfb" fill-rule="evenodd"/>
      </g>
      <g id="Grupo_1132880" data-name="Grupo 1132880" transform="translate(32.297 6.295)">
        <path id="Trazado_934175" data-name="Trazado 934175" d="M113.871,73.7a10.43,10.43,0,0,0,12.19.033c.039-.029.078-.059.118-.085,3.125-2.286,5.4-6.491,5.4-12.637V60.7c-4.59.007-10.343-2.745-14.726-5.973-2.2,3.133-5.073,5.973-8.5,5.963v.32c0,5.742,2.017,9.8,4.858,12.178C113.426,73.368,113.649,73.537,113.871,73.7Z" transform="translate(-108.353 -54.728)" fill="#fed2a4" fill-rule="evenodd"/>
      </g>
      <g id="Grupo_1132881" data-name="Grupo 1132881" transform="translate(53.064 30.894)">
        <path id="Trazado_934176" data-name="Trazado 934176" d="M290.313,268.607l-1.4,3.234c4.933,1.744,7.3,6.456,7.3,11.956v4.033h4.178V281.01A12.732,12.732,0,0,0,290.313,268.607Z" transform="translate(-288.911 -268.607)" fill="#01d0fb" fill-rule="evenodd"/>
      </g>
      <g id="Grupo_1132882" data-name="Grupo 1132882" transform="translate(43.908 30.617)">
        <path id="Trazado_934177" data-name="Trazado 934177" d="M216.1,275.157l3.766-8.683a12.755,12.755,0,0,0-2.631-.277H215.4l-6.1,5.68Z" transform="translate(-209.304 -266.197)" fill="#99e6fc" fill-rule="evenodd"/>
      </g>
      <g id="Grupo_1132883" data-name="Grupo 1132883" transform="translate(33.353 30.617)">
        <path id="Trazado_934178" data-name="Trazado 934178" d="M128.089,271.878,122,266.2h-1.831a12.723,12.723,0,0,0-2.631.277l3.766,8.683Z" transform="translate(-117.534 -266.198)" fill="#99e6fc" fill-rule="evenodd"/>
      </g>
      <g id="Grupo_1132884" data-name="Grupo 1132884" transform="translate(47.013 30.617)">
        <path id="Trazado_934179" data-name="Trazado 934179" d="M238.135,268.985a12.73,12.73,0,0,1,2.631.274,13.015,13.015,0,0,1,1.589.45l1.4-3.234a12.755,12.755,0,0,0-2.632-.277H239.3l-2.991,2.788h1.831Z" transform="translate(-236.304 -266.197)" fill="#62dbfb" fill-rule="evenodd"/>
      </g>
      <g id="Grupo_1132885" data-name="Grupo 1132885" transform="translate(32.297 3.23)">
        <path id="Trazado_934180" data-name="Trazado 934180" d="M108.354,37.108a9.7,9.7,0,0,0,8.5-4.379c.082-2.732-1.35-4.3-4.279-4.649a10.841,10.841,0,0,0-4.22,9.028Z" transform="translate(-108.354 -28.08)" fill="#01525a" fill-rule="evenodd"/>
      </g>
      <g id="Grupo_1132886" data-name="Grupo 1132886" transform="translate(41.783 20.127)">
        <path id="Trazado_934181" data-name="Trazado 934181" d="M194.222,177.055a.859.859,0,0,1-.426-.113,1.678,1.678,0,0,0-1.674,0,.863.863,0,0,1-.853-1.5,3.389,3.389,0,0,1,3.38,0,.863.863,0,0,1-.427,1.613Z" transform="translate(-190.833 -174.991)"/>
      </g>
      <g id="Grupo_1132887" data-name="Grupo 1132887" transform="translate(37.821 15.105)">
        <path id="Trazado_934182" data-name="Trazado 934182" d="M158.3,133.339a2.977,2.977,0,0,1-1.479-.4.863.863,0,1,1,.855-1.5,1.247,1.247,0,0,0,1.247,0,.863.863,0,1,1,.855,1.5A2.977,2.977,0,0,1,158.3,133.339Z" transform="translate(-156.386 -131.33)"/>
      </g>
      <g id="Grupo_1132888" data-name="Grupo 1132888" transform="translate(46.17 15.105)">
        <path id="Trazado_934183" data-name="Trazado 934183" d="M230.886,133.339a2.977,2.977,0,0,1-1.479-.4.863.863,0,1,1,.855-1.5,1.247,1.247,0,0,0,1.247,0,.863.863,0,1,1,.855,1.5A2.977,2.977,0,0,1,230.886,133.339Z" transform="translate(-228.973 -131.33)"/>
      </g>
      <g id="Grupo_1132889" data-name="Grupo 1132889" transform="translate(40.806 10.947)">
        <path id="Trazado_934184" data-name="Trazado 934184" d="M197.05,96.5c-.278-1.285-2.854-2.09-3.462-.209,0,4.2-1.069,8.575-4.148,11.607a10.891,10.891,0,0,1-1.252,1.066,10.452,10.452,0,0,1-5.855,2.031,10.4,10.4,0,0,0,9.2-1.464l.118-.085c3.125-2.286,5.4-6.491,5.4-12.637V96.5Z" transform="translate(-182.333 -95.174)" fill="#ffbd86" fill-rule="evenodd"/>
      </g>
      <g id="Grupo_1132890" data-name="Grupo 1132890" transform="translate(52.907 37.605)">
        <path id="Trazado_934185" data-name="Trazado 934185" d="M294.6,326.946c-8.394,0-9.244,13.723-2.811,13.723h1.755c.376,0,2.311.218,1.566,1.924-1.03,2.354.791,5.259,2.112,4.708.5.114,3.168-5.716,7.473-5.719l1.974-6.622-1.974-5.592c-.013-2.423-3.576-2.423-4.178-2.423Z" transform="translate(-287.549 -326.946)" fill="#fed2a4" fill-rule="evenodd"/>
      </g>
      <g id="Grupo_1132891" data-name="Grupo 1132891" transform="translate(70.052 37.011)">
        <path id="Trazado_934186" data-name="Trazado 934186" d="M436.614,324.8v12.214a1.765,1.765,0,0,0,1.762,1.757h1.706a1.765,1.765,0,0,0,1.762-1.757V323.544a1.765,1.765,0,0,0-1.762-1.757h-1.706a1.765,1.765,0,0,0-1.762,1.757Z" transform="translate(-436.614 -321.787)" fill="#3ec3a4" fill-rule="evenodd"/>
      </g>
      <g id="Grupo_1132892" data-name="Grupo 1132892" transform="translate(61.846 37.74)">
        <path id="Trazado_934187" data-name="Trazado 934187" d="M370.794,328.132v10.274c0,1.04.1,1.826-.837,2.028-4.246.923-5.737,8.647-3.962,7.907.5.114,3.168-5.716,7.473-5.719V330.407C373.458,328.419,370.794,328.044,370.794,328.132Z" transform="translate(-365.261 -328.12)" fill="#ffbd86" fill-rule="evenodd"/>
      </g>
      <g id="Grupo_1132893" data-name="Grupo 1132893" transform="translate(70.052 49.297)">
        <path id="Trazado_934188" data-name="Trazado 934188" d="M441.843,428.6a1.767,1.767,0,0,1-1.762,1.757h-1.706a1.767,1.767,0,0,1-1.762-1.748v2.934a1.765,1.765,0,0,0,1.762,1.757h1.706a1.765,1.765,0,0,0,1.762-1.757Z" transform="translate(-436.613 -428.6)" fill="#00a887" fill-rule="evenodd"/>
      </g>
      <g id="Grupo_1132894" data-name="Grupo 1132894" transform="translate(36.517 0.86)">
        <path id="Trazado_934189" data-name="Trazado 934189" d="M149.325,14.5c4.384,3.231,10.137,4.4,14.726,4.389v-.01c0-11.063-12.307-14.072-19.005-9.028A15.986,15.986,0,0,0,149.325,14.5Z" transform="translate(-145.046 -7.482)" fill="#016a74" fill-rule="evenodd"/>
      </g>
      <g id="Grupo_1132895" data-name="Grupo 1132895" transform="translate(43.973 0.863)">
        <path id="Trazado_934190" data-name="Trazado 934190" d="M209.873,7.5a10.768,10.768,0,0,1,8.087,10.916v.28a28.526,28.526,0,0,0,3.462.209V18.9c0-7.571-5.766-11.369-11.549-11.4Z" transform="translate(-209.873 -7.5)" fill="#01525a" fill-rule="evenodd"/>
      </g>
      <path id="Trazado_934191" data-name="Trazado 934191" d="M75.283,44.294a.863.863,0,0,0,.863-.863V38.768a2.625,2.625,0,0,0-2.625-2.62H71.814a2.627,2.627,0,0,0-2.328,1.412,6.942,6.942,0,0,0-3.612-.819H63.7a13.687,13.687,0,0,0-4.666-4.912,13.511,13.511,0,0,0-7.2-2.075h-.967V25.732c3.56-2.74,5.518-7.4,5.518-13.155v-.32a11.786,11.786,0,0,0-3.925-9.2,13.472,13.472,0,0,0-17.1,0,11.786,11.786,0,0,0-3.925,9.2v.32c0,5.5,1.835,10.059,5.168,12.84.115.1.232.189.35.28v4.057h-.968A13.573,13.573,0,0,0,22.412,43.3v6.821a.863.863,0,0,0,.863.863H41.208a.863.863,0,1,0,0-1.725H32.421V46.949a.863.863,0,0,0-1.725,0v2.307H24.137V43.3a11.843,11.843,0,0,1,8.711-11.4l3.478,8.019a.863.863,0,0,0,1.167.434l6.414-3.1,6.418,3.1a.863.863,0,0,0,1.167-.434L54.97,31.9a11.811,11.811,0,0,1,6.708,4.841h-1.72a7.24,7.24,0,0,0-5.983,2.984,10.153,10.153,0,0,0-1.931,6.006,8.44,8.44,0,0,0,.721,3.524H46.523a.863.863,0,1,0,0,1.725H53.99a4.5,4.5,0,0,0,3.156,1.209H58.9a1.388,1.388,0,0,1,.858.284c.031.047.018.2-.082.431a4.961,4.961,0,0,0,.926,5.209,2.343,2.343,0,0,0,1.641.775,1.722,1.722,0,0,0,.475-.066c.5-.057.855-.548,1.424-1.328,1.021-1.4,2.846-3.9,5.215-4.327a2.628,2.628,0,0,0,2.454,1.693h1.706a2.625,2.625,0,0,0,2.625-2.62V47.415a.863.863,0,0,0-1.725,0v4.826a.9.9,0,0,1-.9.895H71.815a.9.9,0,0,1-.9-.895V38.768a.9.9,0,0,1,.9-.895h1.706a.9.9,0,0,1,.9.895v4.662a.863.863,0,0,0,.863.863ZM43.91,1.725a11.23,11.23,0,0,1,7.417,2.636,9.9,9.9,0,0,1,3.305,7.028C48.693,11.2,41.486,9.032,37.7,3.468A11.688,11.688,0,0,1,43.91,1.725ZM36.322,4.517A16.8,16.8,0,0,0,39.6,8.033a8.683,8.683,0,0,1-6.41,3.331A9.87,9.87,0,0,1,36.322,4.517ZM33.166,13.1a10.3,10.3,0,0,0,7.825-4.039,26.5,26.5,0,0,0,13.662,4.061c-.118,5.067-1.9,9.1-5.04,11.4a9.546,9.546,0,0,1-11.906-.425C34.877,21.731,33.274,17.839,33.166,13.1ZM37.552,38.41l-2.969-6.846a11.941,11.941,0,0,1,1.4-.083h1.491L42.4,36.069Zm1.125-8.167V26.808a11.264,11.264,0,0,0,4.882,1.3q.2.007.392.007a11.16,11.16,0,0,0,5.19-1.275v3.405l-5.234,4.876ZM50.267,38.41l-4.848-2.341,4.925-4.589h1.49a11.959,11.959,0,0,1,1.4.084ZM69.19,51.444c-3.111.473-5.246,3.4-6.438,5.034-.179.246-.395.541-.519.687a.793.793,0,0,1-.4-.26,3.239,3.239,0,0,1-.576-3.308A2.076,2.076,0,0,0,61.2,51.53a2.97,2.97,0,0,0-2.3-1.065H57.147c-2.493,0-3.377-2.55-3.377-4.733a8.4,8.4,0,0,1,1.583-4.968,5.58,5.58,0,0,1,4.6-2.3h5.917c.994,0,3.307.152,3.315,1.56V51.444Z" transform="translate(0 0)"/>
    </g>
  </g>
</svg>
