<svg xmlns="http://www.w3.org/2000/svg" xmlns:xlink="http://www.w3.org/1999/xlink" width="136.844" height="123.723" viewBox="0 0 136.844 123.723">
  <defs>
    <clipPath id="clip-path">
      <path id="doctor-hombre-adulto-pie-derecho-oficina-hospital" d="M31.767-19.778c15.842,0,29.365,17.692,42.056,33.67,8.9,11.2,17.006,20.761,17.006,32.139,0,11.024-3.113,17.22-6.083,23.081-4.106,8.109-9.782,13.922-20.662,21.211C45.8,102.574,28.592,86.78,14.578,80.268,3.56,75.148-9.573,72.71-18.519,67.285c-3.311-2.008-14.057-8.5-11.311-21.07C-27.307,34.7-10.787,21.79-4.778,14.421,7.252-.331,17.449-19.778,31.767-19.778Z" transform="translate(30.274 19.778)" fill="#3c1c74"/>
    </clipPath>
  </defs>
  <g id="Grupo_1134891" data-name="Grupo 1134891" transform="translate(11041 3081.578)">
    <g id="Grupo_1072178" data-name="Grupo 1072178" transform="translate(-11027 -3083.595)">
      <path id="doctor-hombre-adulto-pie-derecho-oficina-hospital-2" data-name="doctor-hombre-adulto-pie-derecho-oficina-hospital" d="M31.767-19.778c15.842,0,29.365,17.692,42.056,33.67,8.9,11.2,17.006,20.761,17.006,32.139,0,11.024-3.113,17.22-6.083,23.081-4.106,8.109-9.782,13.922-20.662,21.211C45.8,102.574,28.592,86.78,14.578,80.268,3.56,75.148-9.573,72.71-18.519,67.285c-3.311-2.008-14.057-8.5-11.311-21.07C-27.307,34.7-10.787,21.79-4.778,14.421,7.252-.331,17.449-19.778,31.767-19.778Z" transform="translate(32.014 21.795)" fill="#bad1ff"/>
      <g id="Elipse_4857" data-name="Elipse 4857" transform="translate(-14 24.516)" fill="none" stroke="#bad1ff" stroke-width="1">
        <circle cx="11" cy="11" r="11" stroke="none"/>
        <circle cx="11" cy="11" r="10.5" fill="none"/>
      </g>
      <ellipse id="Elipse_4858" data-name="Elipse 4858" cx="5.368" cy="4.831" rx="5.368" ry="4.831" transform="translate(112.107 28.589)" fill="#bad1ff"/>
      <path id="Trazado_115346" data-name="Trazado 115346" d="M7.936,0c4.383,0,7.936,3.179,7.936,7.1,0,2.1-.505,3.936-2.342,5.038-1.186.72-3.556.842-5.594.842C3.553,12.98,0,11.022,0,7.1S3.553,0,7.936,0Z" transform="translate(46.42 112.759)" fill="#bad1ff"/>
    </g>
    <g id="personal-information_11357496" transform="translate(-11017.185 -3069.774)">
      <g id="Grupo_1134894" data-name="Grupo 1134894" transform="translate(14.559 1.71)">
        <path id="Trazado_939534" data-name="Trazado 939534" d="M23.748,7h49.2L89.126,23.175v67a4.684,4.684,0,0,1-4.671,4.671H23.748a4.683,4.683,0,0,1-4.666-4.671v-78.5A4.683,4.683,0,0,1,23.748,7Z" transform="translate(-19.082 -7)" fill="#fdf6ec" fill-rule="evenodd"/>
      </g>
      <g id="Grupo_1134895" data-name="Grupo 1134895" transform="translate(13.595 0.5)">
        <path id="Trazado_939535" data-name="Trazado 939535" d="M18.694.5h3.167a4.813,4.813,0,0,0-4.8,4.8V85.965a4.813,4.813,0,0,0,4.8,4.8H18.694a4.812,4.812,0,0,1-4.794-4.8V5.3A4.812,4.812,0,0,1,18.694.5Z" transform="translate(-13.9 -0.5)" fill="#f5eada" fill-rule="evenodd"/>
      </g>
      <g id="Grupo_1134896" data-name="Grupo 1134896" transform="translate(68.428 1.71)">
        <path id="Trazado_939536" data-name="Trazado 939536" d="M308.49,7l16.175,16.175H308.49Z" transform="translate(-308.49 -7)" fill="#d4c4b0" fill-rule="evenodd"/>
      </g>
      <g id="Grupo_1134897" data-name="Grupo 1134897" transform="translate(20.758 42.279)">
        <path id="Trazado_939537" data-name="Trazado 939537" d="M72.077,224.955c5.824,3.876,12.175,7.79,17.938,11.859a4.3,4.3,0,0,1,1.755,3.615v8.659H52.384v-8.659a4.3,4.3,0,0,1,1.755-3.615C59.9,232.745,66.253,228.83,72.077,224.955Z" transform="translate(-52.384 -224.955)" fill="#ef5350" fill-rule="evenodd"/>
      </g>
      <g id="Grupo_1134898" data-name="Grupo 1134898" transform="translate(67.414 59.307)">
        <path id="Trazado_939538" data-name="Trazado 939538" d="M320.719,351.724a17.642,17.642,0,1,0-17.679-17.642A17.695,17.695,0,0,0,320.719,351.724Z" transform="translate(-303.04 -316.44)" fill="#ef5350" fill-rule="evenodd"/>
      </g>
      <path id="Trazado_939539" data-name="Trazado 939539" d="M380.516,351.912a3.669,3.669,0,1,0-3.672-3.672A3.676,3.676,0,0,0,380.516,351.912Z" transform="translate(-295.693 -280.029)" fill="#fff"/>
      <g id="Grupo_1134899" data-name="Grupo 1134899" transform="translate(20.758 42.279)">
        <path id="Trazado_939540" data-name="Trazado 939540" d="M72.077,224.955c.659.443,1.323.88,1.993,1.318-5.6,3.7-11.649,7.447-17.152,11.333a4.314,4.314,0,0,0-1.755,3.615v7.867H52.384v-8.659a4.3,4.3,0,0,1,1.755-3.615C59.9,232.745,66.253,228.83,72.077,224.955Z" transform="translate(-52.384 -224.955)" fill="#d90d17" fill-rule="evenodd"/>
      </g>
      <g id="Grupo_1134900" data-name="Grupo 1134900" transform="translate(33.858 33.475)">
        <path id="Trazado_939541" data-name="Trazado 939541" d="M122.8,177.655h12c.028,5.5.033,10.956.033,16.449a6.035,6.035,0,0,1-12.069,0c0-5.492.011-10.951.033-16.449Z" transform="translate(-122.762 -177.655)" fill="#b99b9b" fill-rule="evenodd"/>
      </g>
      <g id="Grupo_1134901" data-name="Grupo 1134901" transform="translate(33.858 33.475)">
        <path id="Trazado_939542" data-name="Trazado 939542" d="M122.8,177.655h12c.022,4.678.028,9.329.028,14a11.585,11.585,0,0,1-12.064,0c.005-4.673.011-9.323.033-14Z" transform="translate(-122.763 -177.655)" fill="#9a7676" fill-rule="evenodd"/>
      </g>
      <g id="Grupo_1134902" data-name="Grupo 1134902" transform="translate(25.907 9.433)">
        <path id="Trazado_939543" data-name="Trazado 939543" d="M109.134,65.267c-.343,7.812-7.38,19.222-14.544,19.222S80.046,73.09,80.046,65.267A14.308,14.308,0,0,1,92.874,51.2,14.549,14.549,0,0,0,88.86,49.04C98.942,46.145,109.583,55.13,109.134,65.267Z" transform="translate(-80.046 -48.49)" fill="#333b3f" fill-rule="evenodd"/>
      </g>
      <g id="Grupo_1134903" data-name="Grupo 1134903" transform="translate(25.907 9.434)">
        <path id="Trazado_939544" data-name="Trazado 939544" d="M85.432,78.878c-3.178-3.97-5.387-9.323-5.387-13.6A14.308,14.308,0,0,1,92.873,51.207a14.549,14.549,0,0,0-4.014-2.159,15.717,15.717,0,0,1,14.782,3.826h-.055a19.339,19.339,0,0,0-18.154,26Z" transform="translate(-80.045 -48.499)" fill="#2e373b" fill-rule="evenodd"/>
      </g>
      <g id="Grupo_1134904" data-name="Grupo 1134904" transform="translate(28.57 24.283)">
        <path id="Trazado_939545" data-name="Trazado 939545" d="M118.116,137.255c0,8.9-6.029,14.666-11.881,14.666s-11.881-5.769-11.881-14.666c0-3.272-.055-11.7,5.957-8.105,3.765,2.253,7.28,3.023,10.923,1.855C117.634,128.94,118.116,132.926,118.116,137.255Z" transform="translate(-94.354 -128.275)" fill="#b99b9b" fill-rule="evenodd"/>
      </g>
      <g id="Grupo_1134905" data-name="Grupo 1134905" transform="translate(28.011 23.594)">
        <path id="Trazado_939546" data-name="Trazado 939546" d="M98.328,146.869c-3.9-2.2-6.976-6.965-6.976-13.321,0-2.79-.039-9.334,3.682-8.963a19.328,19.328,0,0,0,3.294,22.284Z" transform="translate(-91.352 -124.57)" fill="#ffb09e" fill-rule="evenodd"/>
      </g>
      <g id="Grupo_1134906" data-name="Grupo 1134906" transform="translate(67.414 59.307)">
        <path id="Trazado_939547" data-name="Trazado 939547" d="M305.321,334.082a17.659,17.659,0,0,1,15.4-17.5c.377-.048.755-.086,1.143-.108-.377-.027-.76-.038-1.143-.038a17.642,17.642,0,1,0,0,35.284c.383,0,.766-.011,1.143-.038a17.657,17.657,0,0,1-16.541-17.6Z" transform="translate(-303.04 -316.44)" fill="#d90d17" fill-rule="evenodd"/>
      </g>
      <path id="Trazado_939548" data-name="Trazado 939548" d="M384,402h4.281v11.913H384Z" transform="translate(-301.517 -326.767)" fill="#fff" fill-rule="evenodd"/>
      <path id="Trazado_939549" data-name="Trazado 939549" d="M67.707,88.242H19.515a3.338,3.338,0,0,1-3.331-3.336V6.49a3.335,3.335,0,0,1,3.331-3.331H67.33V17.985a1.329,1.329,0,0,0,1.329,1.329H83.486V55.194a1.329,1.329,0,0,0,2.659,0V17.985a1.33,1.33,0,0,0-.389-.94L69.6.889A1.33,1.33,0,0,0,68.66.5H19.515a6,6,0,0,0-5.99,5.99V84.906a6,6,0,0,0,5.99,6H67.707a1.329,1.329,0,1,0,0-2.659Zm2.282-83.2L81.606,16.656H69.989ZM47.612,49.871q0-.759,0-1.517c3.2,2.071,6.438,4.193,9.477,6.338A2.855,2.855,0,0,1,58.23,57.12v8.417a1.329,1.329,0,1,0,2.659,0V57.12a5.51,5.51,0,0,0-2.269-4.6c-3.391-2.393-7.006-4.745-10.543-7.03A15.789,15.789,0,0,0,53.11,35.7a23.887,23.887,0,0,0,2.773-9.5A17.017,17.017,0,0,0,49.14,12.289,16.29,16.29,0,0,0,34.48,9.1a1.329,1.329,0,0,0-.072,2.533q.4.138.781.3A15.127,15.127,0,0,0,24.95,26.149,21.8,21.8,0,0,0,27.786,36.1a15.713,15.713,0,0,0,4.971,9.39c-3.537,2.284-7.157,4.637-10.542,7.03a5.512,5.512,0,0,0-2.27,4.6v8.417a1.329,1.329,0,0,0,2.659,0V57.12a2.854,2.854,0,0,1,1.144-2.429c3.034-2.144,6.276-4.267,9.476-6.337,0,.506,0,1.01,0,1.517a7.2,7.2,0,0,0,14.391,0ZM38.9,13.795a1.329,1.329,0,0,0,.652-2.38q-.158-.12-.319-.236a14.391,14.391,0,0,1,8.256,3.2,14.358,14.358,0,0,1,5.733,11.713,15.524,15.524,0,0,1-.355,2.6,4.932,4.932,0,0,0-1.778-2.78c-1.441-1.05-3.477-1.131-6.225-.247-2.986.962-6.014.431-9.528-1.673-1.936-1.159-3.61-1.354-4.974-.58-1.557.883-2.256,2.836-2.57,4.874a13.116,13.116,0,0,1-.188-2.131A12.566,12.566,0,0,1,38.9,13.795ZM30.2,33v-.086c0-1.572,0-6.355,1.481-7.2a.969.969,0,0,1,.482-.113,4.106,4.106,0,0,1,1.816.661c4.162,2.491,7.992,3.119,11.708,1.922,1.276-.41,2.977-.767,3.844-.135.975.71,1.109,2.8,1.109,4.946,0,7.988-5.3,12.932-10.22,12.932S30.2,40.988,30.2,33Zm10.22,21.4a4.539,4.539,0,0,1-4.537-4.531c0-.776,0-1.548,0-2.322a10.391,10.391,0,0,0,9.068,0v.009q0,1.155,0,2.313A4.539,4.539,0,0,1,40.417,54.4Zm27.9-5.753h-8.18a1.329,1.329,0,1,1,0-2.659h8.18a1.329,1.329,0,0,1,0,2.659Zm8.944-6.081H60.141a1.329,1.329,0,1,1,0-2.659H77.265a1.329,1.329,0,0,1,0,2.659ZM58.811,35.163a1.329,1.329,0,0,1,1.329-1.329h8.18a1.329,1.329,0,0,1,0,2.659h-8.18A1.329,1.329,0,0,1,58.811,35.163Zm19.783-6.081a1.329,1.329,0,0,1-1.329,1.329H60.141a1.329,1.329,0,1,1,0-2.659H77.265A1.329,1.329,0,0,1,78.594,29.082ZM35.391,75.6H21.275a1.329,1.329,0,0,1,0-2.659H35.391a1.329,1.329,0,0,1,0,2.659Zm9.423-1.329A1.329,1.329,0,0,1,43.485,75.6H40.331a1.329,1.329,0,1,1,0-2.659h3.154A1.329,1.329,0,0,1,44.814,74.271Zm1.969,0a1.329,1.329,0,0,1,1.329-1.329H62.229a1.329,1.329,0,1,1,0,2.659H48.113A1.329,1.329,0,0,1,46.783,74.271ZM24.428,78.636a1.329,1.329,0,1,1,0,2.659H21.275a1.329,1.329,0,1,1,0-2.659Zm3.3,1.329a1.329,1.329,0,0,1,1.329-1.329H43.172a1.329,1.329,0,0,1,0,2.659H29.056a1.329,1.329,0,0,1-1.329-1.329Zm57.088-22.3a18.976,18.976,0,1,0,18.976,18.976A19,19,0,0,0,84.815,57.664Zm0,35.292a16.317,16.317,0,1,1,16.317-16.317A16.335,16.335,0,0,1,84.815,92.956Zm3.939-16.672a1.329,1.329,0,0,0,0-2.659H80.876a1.329,1.329,0,0,0,0,2.659h.791V86.509h-.791a1.329,1.329,0,0,0,0,2.659h7.879a1.329,1.329,0,0,0,0-2.659h-.791V76.284Zm-3.45,10.225h-.979V76.284h.979Zm-.49-14.24a4.082,4.082,0,1,0-4.085-4.079A4.087,4.087,0,0,0,84.815,72.27Zm0-5.505a1.423,1.423,0,1,1-1.426,1.426A1.428,1.428,0,0,1,84.815,66.764Z" transform="translate(0 0)"/>
    </g>
  </g>
</svg>
