<svg xmlns="http://www.w3.org/2000/svg" xmlns:xlink="http://www.w3.org/1999/xlink" width="136.844" height="123.723" viewBox="0 0 136.844 123.723">
  <defs>
    <clipPath id="clip-path">
      <path id="doctor-hombre-adulto-pie-derecho-oficina-hospital" d="M31.767-19.778c15.842,0,29.365,17.692,42.056,33.67,8.9,11.2,17.006,20.761,17.006,32.139,0,11.024-3.113,17.22-6.083,23.081-4.106,8.109-9.782,13.922-20.662,21.211C45.8,102.574,28.592,86.78,14.578,80.268,3.56,75.148-9.573,72.71-18.519,67.285c-3.311-2.008-14.057-8.5-11.311-21.07C-27.307,34.7-10.787,21.79-4.778,14.421,7.252-.331,17.449-19.778,31.767-19.778Z" transform="translate(30.274 19.778)" fill="#3c1c74"/>
    </clipPath>
  </defs>
  <g id="Grupo_1134892" data-name="Grupo 1134892" transform="translate(10926.422 2770.983)">
    <g id="Grupo_1072178" data-name="Grupo 1072178" transform="translate(-10912.422 -2773)">
      <path id="doctor-hombre-adulto-pie-derecho-oficina-hospital-2" data-name="doctor-hombre-adulto-pie-derecho-oficina-hospital" d="M31.767-19.778c15.842,0,29.365,17.692,42.056,33.67,8.9,11.2,17.006,20.761,17.006,32.139,0,11.024-3.113,17.22-6.083,23.081-4.106,8.109-9.782,13.922-20.662,21.211C45.8,102.574,28.592,86.78,14.578,80.268,3.56,75.148-9.573,72.71-18.519,67.285c-3.311-2.008-14.057-8.5-11.311-21.07C-27.307,34.7-10.787,21.79-4.778,14.421,7.252-.331,17.449-19.778,31.767-19.778Z" transform="translate(32.014 21.795)" fill="#bad1ff"/>
      <g id="Elipse_4857" data-name="Elipse 4857" transform="translate(-14 24.516)" fill="none" stroke="#5b92fe" stroke-width="1">
        <circle cx="11" cy="11" r="11" stroke="none"/>
        <circle cx="11" cy="11" r="10.5" fill="none"/>
      </g>
      <ellipse id="Elipse_4858" data-name="Elipse 4858" cx="5.368" cy="4.831" rx="5.368" ry="4.831" transform="translate(112.107 28.589)" fill="#bad1ff"/>
      <path id="Trazado_115346" data-name="Trazado 115346" d="M7.936,0c4.383,0,7.936,3.179,7.936,7.1,0,2.1-.505,3.936-2.342,5.038-1.186.72-3.556.842-5.594.842C3.553,12.98,0,11.022,0,7.1S3.553,0,7.936,0Z" transform="translate(46.42 112.759)" fill="#bad1ff"/>
    </g>
    <g id="talento-oculto" transform="translate(-10947.945 -2766.983)">
      <path id="Trazado_939550" data-name="Trazado 939550" d="M141.885,386.446v16.592a2,2,0,0,0,1.995,1.995h10.4l3.1-24.783Z" transform="translate(-71.965 -304.406)" fill="#eb9c8d"/>
      <path id="Trazado_939551" data-name="Trazado 939551" d="M141.885,484.5v1.995a2,2,0,0,0,1.995,1.995h10.4l.5-3.989Z" transform="translate(-71.965 -387.863)" fill="#d78878"/>
      <path id="Trazado_939552" data-name="Trazado 939552" d="M374.854,380.25l3.1,24.783h10.4a2,2,0,0,0,1.995-1.995V386.446Z" transform="translate(-258.467 -304.406)" fill="#eb9c8d"/>
      <path id="Trazado_939553" data-name="Trazado 939553" d="M396.786,403.312v14.2a2,2,0,0,1-1.995,1.995h-6.906l.5,3.989h10.4a1.994,1.994,0,0,0,1.995-1.995V404.908Z" transform="translate(-268.898 -322.868)" fill="#d78878"/>
      <path id="Trazado_939554" data-name="Trazado 939554" d="M203.841,286.978V268.965A12.965,12.965,0,0,0,190.877,256H154.85a12.965,12.965,0,0,0-12.965,12.965v18.013h12.391v18.587H191.45V286.978Z" transform="translate(-71.965 -204.939)" fill="#2ed1e2"/>
      <path id="Trazado_939555" data-name="Trazado 939555" d="M432.51,274.1v27.369H436.5V283.451A12.927,12.927,0,0,0,432.51,274.1Z" transform="translate(-304.623 -219.426)" fill="#03bed7"/>
      <path id="Trazado_939556" data-name="Trazado 939556" d="M204.01,484.5h37.174v3.989H204.01Z" transform="translate(-121.699 -387.863)" fill="#03bed7"/>
      <path id="Trazado_939557" data-name="Trazado 939557" d="M172.679,224.938a21.7,21.7,0,0,0-20.64,27.751,1,1,0,0,1-.545,1.19l-7.612,3.435-2,7.895,7.228,1.166L155.9,261.5a1,1,0,0,1,1.305.124,21.685,21.685,0,1,0,15.476-36.684Z" transform="translate(-71.965 -180.072)" fill="#d4f2f6"/>
      <path id="Trazado_939558" data-name="Trazado 939558" d="M189.885,238.274a28.169,28.169,0,0,1,7.281,19.181,17.759,17.759,0,0,1-17.621,17.54h-.074a17.547,17.547,0,0,1-12.78-5.456,5.019,5.019,0,0,0-3.607-1.54,4.951,4.951,0,0,0-2.908.937l-10.038,7.216,5.582.9,6.785-4.878a1,1,0,0,1,1.305.124,21.686,21.686,0,1,0,26.074-34.024Z" transform="translate(-78.572 -190.749)" fill="#a6e7f0"/>
      <path id="Trazado_939559" data-name="Trazado 939559" d="M250.52,30.217V22.989a15.489,15.489,0,0,0-30.978,0v7.228Z" transform="translate(-134.133 -6.004)" fill="#707070"/>
      <path id="Trazado_939560" data-name="Trazado 939560" d="M289.193,7.5a15.634,15.634,0,0,0-1.995.127,15.492,15.492,0,0,1,13.494,15.362v7.228h3.989V22.989A15.489,15.489,0,0,0,289.193,7.5Z" transform="translate(-188.294 -6.004)" fill="#5e5d5d"/>
      <path id="Trazado_939561" data-name="Trazado 939561" d="M225.738,71.013a5.984,5.984,0,0,1-2.665,4.979l-3.531,2.354v4.969a15.49,15.49,0,1,0,30.978.194V78.347l-3.531-2.354a5.984,5.984,0,0,1-2.665-4.979v-2.4a1,1,0,0,0-1.684-.722,11.151,11.151,0,0,1-15.22,0,1,1,0,0,0-1.684.722Z" transform="translate(-134.133 -54.133)" fill="#eb9c8d"/>
      <path id="Trazado_939562" data-name="Trazado 939562" d="M301.177,108.238q-.238-.159-.458-.338v7.855a15.492,15.492,0,0,1-13.488,15.361,15.489,15.489,0,0,0,17.477-15.361v-5.163Z" transform="translate(-188.321 -86.379)" fill="#d78878"/>
      <circle id="Elipse_9796" data-name="Elipse 9796" cx="15.489" cy="15.489" r="15.489" transform="translate(85.409 51.061)" fill="#fff"/>
      <path id="Trazado_939563" data-name="Trazado 939563" d="M262.346,287.546l2,4.241a.843.843,0,0,0,.649.476l4.729.641a.843.843,0,0,1,.454,1.459l-3.459,3.148a.843.843,0,0,0-.26.783l.913,4.724a.843.843,0,0,1-1.247.891L262,301.547a.843.843,0,0,0-.838,0l-4.125,2.362a.843.843,0,0,1-1.247-.891l.913-4.724a.843.843,0,0,0-.26-.783l-3.459-3.148a.843.843,0,0,1,.454-1.459l4.73-.641a.843.843,0,0,0,.649-.476l2-4.241A.844.844,0,0,1,262.346,287.546Z" transform="translate(-160.685 -229.806)" fill="#ffc344"/>
      <path id="Trazado_939564" data-name="Trazado 939564" d="M60.147,401.294l1.961,3.4a4.986,4.986,0,0,0,7.229,1.556l13.805-9.924-5.231-9.06-15.5,6.994a4.986,4.986,0,0,0-2.267,7.038Z" transform="translate(-5.994 -310.02)" fill="#e94444"/>
      <path id="Trazado_939565" data-name="Trazado 939565" d="M67.009,425.438a1,1,0,0,1-1.445-.311L61.158,417.5a4.989,4.989,0,0,0-1.011,6.227l1.961,3.4a4.986,4.986,0,0,0,7.229,1.556l13.805-9.924-2-3.472Z" transform="translate(-5.994 -332.45)" fill="#d83131"/>
      <path id="Trazado_939566" data-name="Trazado 939566" d="M282.336,120.261h1.154a3.88,3.88,0,0,0,3.875-3.875v-3.23a1.5,1.5,0,1,0-2.992,0v3.23a.884.884,0,0,1-.883.883h-1.154a1.5,1.5,0,1,0,0,2.992Z" transform="translate(-183.204 -89.389)"/>
      <path id="Trazado_939567" data-name="Trazado 939567" d="M283.354,172.34a1.5,1.5,0,0,0-1.5-1.5h-6.2a1.5,1.5,0,1,0,0,2.992h6.2A1.5,1.5,0,0,0,283.354,172.34Z" transform="translate(-177.862 -136.768)"/>
      <path id="Trazado_939568" data-name="Trazado 939568" d="M265.839,287.039a2.318,2.318,0,0,0-1.919-1.622l-4.378-.593-1.85-3.921a2.339,2.339,0,0,0-4.23,0l-1.85,3.921-4.378.593a2.339,2.339,0,0,0-1.26,4.047l3.188,2.9-.843,4.364a2.347,2.347,0,0,0,2.294,2.787,2.34,2.34,0,0,0,1.165-.314l3.8-2.176,3.8,2.176a2.339,2.339,0,0,0,3.459-2.473l-.843-4.364,3.188-2.9A2.318,2.318,0,0,0,265.839,287.039Zm-6.131,3.36a2.353,2.353,0,0,0-.723,2.174l.643,3.326-2.89-1.655a2.347,2.347,0,0,0-2.323,0l-2.889,1.654.643-3.326a2.354,2.354,0,0,0-.722-2.173l-2.424-2.206,3.343-.453a2.331,2.331,0,0,0,1.8-1.32l1.41-2.99,1.411,2.99a2.33,2.33,0,0,0,1.8,1.319l3.343.453Z" transform="translate(-154.679 -223.801)"/>
      <path id="Trazado_939569" data-name="Trazado 939569" d="M229.026,282.47a16.99,16.99,0,0,0,14.867-25.2,1.5,1.5,0,1,0-2.617,1.449,14,14,0,1,1-4.268-4.725,1.5,1.5,0,1,0,1.709-2.456,16.986,16.986,0,1,0-9.691,30.935Z" transform="translate(-128.128 -198.935)"/>
      <path id="Trazado_939570" data-name="Trazado 939570" d="M118.912,49.565h-2.238a23.034,23.034,0,0,0-8.248-4.953,17.033,17.033,0,0,0,9.457-15.235V16.985A16.988,16.988,0,0,0,91.568,2.79a1.5,1.5,0,0,0,1.646,2.5,14,14,0,0,1,21.678,11.7v4.433l-1.205-.8a4.48,4.48,0,0,1-2-3.734v-2.4a2.493,2.493,0,0,0-4.2-1.815,9.655,9.655,0,0,1-13.177,0,2.493,2.493,0,0,0-4.2,1.815v2.4a4.48,4.48,0,0,1-2,3.734l-1.206.8V16.985a13.982,13.982,0,0,1,1.9-7.038A1.5,1.5,0,1,0,86.216,8.44a16.976,16.976,0,0,0-2.3,8.545v12.2a17.246,17.246,0,0,0,9.521,15.423,23.188,23.188,0,0,0-8.274,4.96H82.885A14.477,14.477,0,0,0,68.424,64.026V77.177L65.116,78.67A1.5,1.5,0,1,0,66.347,81.4L71.3,79.162l3.877,6.716L62.469,95.012a3.49,3.49,0,0,1-5.06-1.089l-1.961-3.4A3.49,3.49,0,0,1,57.035,85.6l2.92-1.318a1.5,1.5,0,0,0-1.231-2.727L55.8,82.872a6.482,6.482,0,0,0-2.947,9.15l1.961,3.4a6.483,6.483,0,0,0,9.4,2.022l4.208-3.025v4.216a3.5,3.5,0,0,0,3.491,3.491h57.967a3.5,3.5,0,0,0,3.491-3.491V64.026A14.477,14.477,0,0,0,118.912,49.565Zm11.469,14.461V80.543h-9.4v-2.46a23.119,23.119,0,0,0-1.589-25.516A11.483,11.483,0,0,1,130.381,64.026ZM86.905,29.182V25.014L89.77,23.1A7.465,7.465,0,0,0,93.1,16.881V15.569a12.65,12.65,0,0,0,15.6,0v1.312a7.465,7.465,0,0,0,3.331,6.223l2.865,1.91v4.363A13.994,13.994,0,0,1,100.862,43.37,14.126,14.126,0,0,1,86.905,29.182ZM82.434,52.566a22.964,22.964,0,0,0-4.707,13.3,23.247,23.247,0,0,0,.794,6.757l-7.105,3.206v-11.8A11.483,11.483,0,0,1,82.434,52.566Zm-8.4,25.36,6.1-2.755A2.506,2.506,0,0,0,81.51,72.2a20.2,20.2,0,0,1,19.216-25.837,20.188,20.188,0,0,1,20.36,20.365,20.262,20.262,0,0,1-20.1,20.012H100.9a20.012,20.012,0,0,1-14.579-6.224,2.507,2.507,0,0,0-3.259-.3l-5.443,3.913ZM71.416,98.632V92.266l9.4-6.757V99.13h-8.9A.5.5,0,0,1,71.416,98.632ZM83.807,83.358l.65-.467a22.964,22.964,0,0,0,16.44,6.84h.1a23.141,23.141,0,0,0,16.995-7.57V99.13H83.807ZM129.882,99.13h-8.9v-15.6h9.4v15.1A.5.5,0,0,1,129.882,99.13Z"/>
    </g>
  </g>
</svg>
