<svg xmlns="http://www.w3.org/2000/svg" xmlns:xlink="http://www.w3.org/1999/xlink" width="136.844" height="123.724" viewBox="0 0 136.844 123.724">
  <defs>
    <clipPath id="clip-path">
      <path id="doctor-hombre-adulto-pie-derecho-oficina-hospital" d="M31.767-19.778c15.842,0,29.365,17.692,42.056,33.67,8.9,11.2,17.006,20.761,17.006,32.139,0,11.024-3.113,17.22-6.083,23.081-4.106,8.109-9.782,13.922-20.662,21.211C45.8,102.574,28.592,86.78,14.578,80.268,3.56,75.148-9.573,72.71-18.519,67.285c-3.311-2.008-14.057-8.5-11.311-21.07C-27.307,34.7-10.787,21.79-4.778,14.421,7.252-.331,17.449-19.778,31.767-19.778Z" transform="translate(30.274 19.778)" fill="#3c1c74"/>
    </clipPath>
  </defs>
  <g id="Grupo_1134893" data-name="Grupo 1134893" transform="translate(10926.422 2770.984)">
    <g id="Grupo_1132847" data-name="Grupo 1132847">
      <path id="doctor-hombre-adulto-pie-derecho-oficina-hospital-2" data-name="doctor-hombre-adulto-pie-derecho-oficina-hospital" d="M31.767-19.778c15.842,0,29.365,17.692,42.056,33.67,8.9,11.2,17.006,20.761,17.006,32.139,0,11.024-3.113,17.22-6.083,23.081-4.106,8.109-9.782,13.922-20.662,21.211C45.8,102.574,28.592,86.78,14.578,80.268,3.56,75.148-9.573,72.71-18.519,67.285c-3.311-2.008-14.057-8.5-11.311-21.07C-27.307,34.7-10.787,21.79-4.778,14.421,7.252-.331,17.449-19.778,31.767-19.778Z" transform="translate(-10880.407 -2751.206)" fill="#bad1ff"/>
      <g id="Elipse_4857" data-name="Elipse 4857" transform="translate(-10926.422 -2748.484)" fill="none" stroke="#bad1ff" stroke-width="1">
        <circle cx="11" cy="11" r="11" stroke="none"/>
        <circle cx="11" cy="11" r="10.5" fill="none"/>
      </g>
      <ellipse id="Elipse_4858" data-name="Elipse 4858" cx="5.368" cy="4.831" rx="5.368" ry="4.831" transform="translate(-10800.314 -2744.411)" fill="#bad1ff"/>
      <path id="Trazado_115346" data-name="Trazado 115346" d="M7.936,0c4.383,0,7.936,3.179,7.936,7.1,0,2.1-.505,3.936-2.342,5.038-1.186.72-3.556.842-5.594.842C3.553,12.98,0,11.022,0,7.1S3.553,0,7.936,0Z" transform="translate(-10866.002 -2660.241)" fill="#bad1ff"/>
    </g>
    <g id="evaluar" transform="translate(-10888.328 -2752.62)">
      <path id="Trazado_939571" data-name="Trazado 939571" d="M66.38,73.256V8.6a6.6,6.6,0,0,0-6.6-6.6H7a6.6,6.6,0,0,1,6.6,6.6V72.923a8.136,8.136,0,0,0,7.673,8.25,7.917,7.917,0,0,0,8.161-7.917Z" transform="translate(1.917 0.32)" fill="#e2e7f6"/>
      <path id="Trazado_939572" data-name="Trazado 939572" d="M64.35,29.6,40.6,53.35l-6.6-6.6L57.752,23Z" transform="translate(10.545 7.03)" fill="#559b2d"/>
      <path id="Trazado_939573" data-name="Trazado 939573" d="M41.876,47.6l-6.6-6.6L30,52.876Z" transform="translate(9.267 12.782)" fill="#fadfb2"/>
      <path id="Trazado_939574" data-name="Trazado 939574" d="M37.308,48.521l-4.059-4.059L30,51.77Z" transform="translate(9.267 13.888)" fill="#474747"/>
      <path id="Trazado_939575" data-name="Trazado 939575" d="M0,0H5.6V9.331H0Z" transform="translate(68.286 30.033) rotate(-45)" fill="#f0ae42"/>
      <path id="Trazado_939576" data-name="Trazado 939576" d="M55,20.639l6.6,6.6,1.273-1.275a4.665,4.665,0,0,0-6.6-6.6Z" transform="translate(17.256 5.432)" fill="#ccc"/>
      <g id="Grupo_1134907" data-name="Grupo 1134907" transform="translate(2.32 2.32)">
        <path id="Trazado_939577" data-name="Trazado 939577" d="M15.2,24.432H4.639A2.639,2.639,0,0,1,2,21.793V8.6a6.6,6.6,0,0,1,13.2,0Z" transform="translate(-2 -2)" fill="#c8cded"/>
        <path id="Trazado_939578" data-name="Trazado 939578" d="M17.815,63.917A7.917,7.917,0,0,0,25.976,56H68.2a7.917,7.917,0,0,1-7.917,7.917Z" transform="translate(3.054 15.256)" fill="#c8cded"/>
        <path id="Trazado_939579" data-name="Trazado 939579" d="M16,18H29.2V31.2H16Z" transform="translate(2.474 3.113)" fill="#c8cded"/>
      </g>
      <path id="Trazado_939580" data-name="Trazado 939580" d="M23.185,29.422a1.32,1.32,0,0,1-.934-.385l-3.959-3.959,1.867-1.867,3.026,3.023L34.127,15.291l1.867,1.867L24.118,29.034a1.32,1.32,0,0,1-.933.388Z" transform="translate(5.526 4.567)" fill="#6bc13b"/>
      <path id="Trazado_939581" data-name="Trazado 939581" d="M16,34H29.2V47.2H16Z" transform="translate(4.793 10.545)" fill="#c8cded"/>
      <path id="Trazado_939582" data-name="Trazado 939582" d="M23.185,45.422a1.32,1.32,0,0,1-.934-.385l-3.959-3.959,1.867-1.867,3.026,3.023L34.127,31.291l1.867,1.867L24.118,45.034A1.32,1.32,0,0,1,23.185,45.422Z" transform="translate(5.526 9.679)" fill="#6bc13b"/>
      <rect id="Rectángulo_414815" data-name="Rectángulo 414815" width="36" height="7" rx="3" transform="translate(23.906 7.906)" fill="#78a0d4"/>
      <path id="Trazado_939583" data-name="Trazado 939583" d="M52.432,29.278H30V24H57.711" transform="translate(9.267 7.35)" fill="#78a0d4"/>
      <path id="Trazado_939584" data-name="Trazado 939584" d="M41,51H51.554v2.638H41Z" transform="translate(12.782 15.977)" fill="#78a0d4"/>
      <path id="Trazado_939585" data-name="Trazado 939585" d="M21.959,6a3.959,3.959,0,0,0,0,7.917H44.692A24.358,24.358,0,0,0,50.431,6Z" transform="translate(5.432 1.598)" fill="#99bbe0"/>
      <path id="Trazado_939586" data-name="Trazado 939586" d="M81.058,32.327a5.985,5.985,0,1,0-8.465-8.464l-2.977,2.977V8.917A7.927,7.927,0,0,0,61.7,1H8.917A7.917,7.917,0,0,0,1,8.917v13.2a3.959,3.959,0,0,0,3.959,3.959H14.2V73.243a9.48,9.48,0,0,0,8.953,9.569H65.658a9.247,9.247,0,0,0,9.237-9.237,1.32,1.32,0,0,0-1.32-1.32H69.617V43.771ZM42.938,60.644l1.343,1.339-2.416,1.073Zm3.928.194-2.779-2.779.881-1.979,3.879,3.879Zm4.277-2.326L46.41,53.782,68.3,31.9l4.729,4.732Zm10.009-23.2H40.586V32.669h23.2Zm9.011-5.278,2.093-2.093,4.729,4.732-2.09,2.09Zm6.664-5.278a3.345,3.345,0,0,1,2.365,5.71l-.338.338-4.732-4.728.339-.339a3.323,3.323,0,0,1,2.366-.98ZM14.2,23.432H4.959a1.32,1.32,0,0,1-1.32-1.32V8.917a5.278,5.278,0,0,1,10.556,0ZM65.658,80.173H29.9a9.146,9.146,0,0,0,2.679-5.278H72.124a6.608,6.608,0,0,1-6.466,5.278Zm1.32-7.917H31.35a1.32,1.32,0,0,0-1.32,1.32,6.6,6.6,0,0,1-6.377,6.6h-.443a6.825,6.825,0,0,1-6.375-6.93V8.917A7.876,7.876,0,0,0,14.8,3.639H61.7a5.278,5.278,0,0,1,5.278,5.278V29.48l-.549.55H39.267a1.32,1.32,0,0,0-1.32,1.32v5.278a1.32,1.32,0,0,0,1.32,1.32H58.511l-14.9,14.9a1.335,1.335,0,0,0-.272.4L38.06,65.118a1.32,1.32,0,0,0,1.207,1.859,1.291,1.291,0,0,0,.534-.115l11.876-5.278a1.335,1.335,0,0,0,.4-.272l14.9-14.9Z" transform="translate(0 0)"/>
      <path id="Trazado_939587" data-name="Trazado 939587" d="M16.32,33.381h13.2a1.32,1.32,0,0,0,1.32-1.32V23.371l6.211-6.212-1.87-1.867-4.341,4.344v-.769a1.32,1.32,0,0,0-1.32-1.32H16.32A1.32,1.32,0,0,0,15,18.866v13.2A1.32,1.32,0,0,0,16.32,33.381Zm1.32-13.2H28.2v2.091l-3.959,3.959L21.212,23.21l-1.867,1.867L23.3,29.035a1.32,1.32,0,0,0,1.867,0L28.2,26.01v4.732H17.639Z" transform="translate(4.474 4.567)"/>
      <path id="Trazado_939588" data-name="Trazado 939588" d="M37.043,33.159l-1.867-1.867-4.341,4.344v-.771a1.32,1.32,0,0,0-1.32-1.32H16.32A1.32,1.32,0,0,0,15,34.865v13.2a1.32,1.32,0,0,0,1.32,1.32h13.2a1.32,1.32,0,0,0,1.32-1.32V39.37ZM28.2,46.741H17.639V36.185H28.2v2.09l-3.959,3.959-3.024-3.026-1.867,1.867L23.3,45.034a1.32,1.32,0,0,0,1.867,0L28.2,42.009Z" transform="translate(4.474 9.68)"/>
      <path id="Trazado_939589" data-name="Trazado 939589" d="M22.278,15.556h29.03A5.278,5.278,0,1,0,51.308,5H22.278a5.278,5.278,0,1,0,0,10.556Zm0-7.917h29.03a2.639,2.639,0,0,1,0,5.278H22.278a2.639,2.639,0,1,1,0-5.278Z" transform="translate(5.113 1.278)"/>
      <path id="Trazado_939590" data-name="Trazado 939590" d="M41,51H51.554v2.638H41Z" transform="translate(12.782 15.977)"/>
    </g>
  </g>
</svg>
