<svg xmlns="http://www.w3.org/2000/svg" xmlns:xlink="http://www.w3.org/1999/xlink" width="505" height="266.173" viewBox="0 0 505 266.173">
  <defs>
    <clipPath id="clip-path">
      <rect id="Rectángulo_417799" data-name="Rectángulo 417799" width="505" height="266.173" transform="translate(-8015.953 2135.988)" fill="#fff" stroke="#707070" stroke-width="1" opacity="0.69"/>
    </clipPath>
  </defs>
  <g id="Enmascarar_grupo_1079225" data-name="Enmascarar grupo 1079225" transform="translate(8015.953 -2135.988)" clip-path="url(#clip-path)">
    <path id="Trazado_945828" data-name="Trazado 945828" d="M61.569,121.882c-9.639,7.6-19.338,15.929-24.345,27.139s-3.919,26.072,5.668,33.742c8.309,6.647,20,6.161,30.644,6.258s22.854,2.017,28.459,11.063c4.158,6.711,3.229,15.574-.16,22.705s-8.9,12.986-14,19.009A215.677,215.677,0,0,0,53.677,297.41c-6.173,14.659-10.309,32.775-.765,45.5,10.477,13.969,32.12,13.569,47.98,6.262s28.928-19.781,44.876-26.892c9.488-4.23,21.619-6.069,29.475.728,9.7,8.393,6.94,23.779,10.045,36.225,5.07,20.322,27.41,32.652,48.355,32.487s40.522-10.079,58.324-21.115a409.708,409.708,0,0,0,74.316-59.021c11.117-11.16,21.919-23.547,26.151-38.721s.034-33.755-13.48-41.85c-9-5.39-20.605-5.474-29.071-11.669-11.142-8.153-13.107-24.689-8.425-37.677s14.5-23.344,23.787-33.558,18.6-21.236,21.845-34.655c5.46-22.573-10.492-48.053-33.182-53C338.083,57,321.869,62.48,306.3,66.947s-32.928,7.827-47.438.627c-11.876-5.892-19.649-17.874-31.025-24.684-13.266-7.942-29.476-5.738-43.228-.088-14.081,5.785-26.958,15.12-39.876,23q-22,13.408-43.539,27.544-20.423,13.395-39.625,28.54" transform="translate(-7960.311 2098.269)" fill="#bad1ff"/>
    <g id="Grupo_1143330" data-name="Grupo 1143330" transform="translate(-7948.805 2176.867)">
      <g id="Grupo_1143329" data-name="Grupo 1143329" transform="translate(0 0)">
        <path id="Trazado_945829" data-name="Trazado 945829" d="M791.537,72.951c0,.252-.356,7.894-.356,7.894l-.23.941-1.182-.333s-.3-1.411-.3-1.572.206-1.216-1.32-1.515a19.684,19.684,0,0,1-2.272-.551l2.18-3.132L790.08,71.7Z" transform="translate(-447.664 -24.957)" fill="#fcea0d"/>
        <path id="Trazado_945830" data-name="Trazado 945830" d="M744.469,188.648l-9.053,34.319s-.861,2.237-1.377,2.237-1.469-2.237-1.469-2.237L738,187.26" transform="translate(-455.522 -7.922)" fill="#c99d66"/>
        <path id="Trazado_945831" data-name="Trazado 945831" d="M701.76,104.728c-.057-.08-.1-.161-.161-.241-.023-.023-.046-.034-.069-.057,0,.034.011.069.011.1A1.764,1.764,0,0,1,701.76,104.728Z" transform="translate(-460.098 -20.132)" fill="#fff"/>
        <path id="Trazado_945832" data-name="Trazado 945832" d="M790.392,80.406a.681.681,0,0,0-.092-.046V80.5Z" transform="translate(-447.012 -23.68)" fill="#fff"/>
        <path id="Trazado_945833" data-name="Trazado 945833" d="M682.4,115.522c.023-.011.057-.023.08-.034,0-.023.012-.034.012-.057Z" transform="translate(-462.918 -18.511)" fill="#fff"/>
        <path id="Trazado_945834" data-name="Trazado 945834" d="M721.95,118.92a.73.73,0,0,1,.023.08c.012-.011.023-.011.034-.023Z" transform="translate(-457.088 -17.996)" fill="#fff"/>
        <path id="Trazado_945835" data-name="Trazado 945835" d="M747.06,87.6h0l.092.092Z" transform="translate(-453.386 -22.613)" fill="#fff"/>
        <path id="Trazado_945836" data-name="Trazado 945836" d="M794.594,33.577c-.011-.046-.023-.1-.034-.149a1.629,1.629,0,0,0-.149-.138c.034.069.069.115.1.184A.627.627,0,0,0,794.594,33.577Z" transform="translate(-446.407 -30.619)" fill="#fff"/>
        <path id="Trazado_945837" data-name="Trazado 945837" d="M701.9,107.758c.31.3.631.585.941.884,3.609,1.2,1.023,4.635,1.158,7.645.015.6.84,1.466,1.676,2.085.757-.1,1.423-.184,2.065-.287,2.88-.47,2.9-.47,4.395,2.088,1.687-.528,3.408-1.067,5.255-1.641.7,1.3,1.354,2.593,2.077,3.844,1,1.744,2.088,2.111,3.809,1.17,4.016-2.2,6.7-5.232,6.242-10.2a6.349,6.349,0,0,1,.379-2.937c.252,1.262.516,2.524.815,4.016a2.624,2.624,0,0,0,.849-2.834,47.558,47.558,0,0,1-1.48-6.024,4.032,4.032,0,0,1,.47-2.433,18.292,18.292,0,0,0,2.008-9.053,6.091,6.091,0,0,0-2.341-4.762,31.982,31.982,0,0,1-2.662-2.1c-3.534-3.614-7.837-3.913-12.335-2.7a19.454,19.454,0,0,0-9.478,5.622,20.163,20.163,0,0,0-4.613,8.261,11.6,11.6,0,0,0,.333,7.894,5.371,5.371,0,0,1,.218,1.136c.023.023.046.034.069.057A2.72,2.72,0,0,0,701.9,107.758Zm21.594-8.537c.436-.872,1.113-1.3,1.985-.883-.574,1.147-1.056,2.111-1.583,3.155A1.584,1.584,0,0,1,723.492,99.221Zm-.964-1.538c0-.069.012-.126.012-.2.034-.023.069-.034.1-.057a2.6,2.6,0,0,1,3.155-1.859c.677.126,1.675.7,1.8,1.239.539,2.341,1.32,4.808-.482,6.965a3.016,3.016,0,0,0-.413,3.591,12.961,12.961,0,0,1,.952,3.213,1.377,1.377,0,0,1-.815,1.09c-.333.069-.849-.4-1.17-.746a1.9,1.9,0,0,1-.321-.975c-.206-1.56.3-3.132-.31-4.727a3.2,3.2,0,0,1,.734-2.352,6.1,6.1,0,0,0,.987-4.222c-.149-2.192-1.147-2.731-3.1-1.733-.333.172-.677.344-1.01.516a1.19,1.19,0,0,0-.046.115c-.023.046-.046.08-.08.138-.092,1.193-.172,2.4-.275,3.591,0,.057-.115.1-.172.161C721.415,99.76,721.4,99.715,722.528,97.684Zm-9.512,8.468c-1.044,1.974-2.088,3.947-3.213,6.07-.757-.631-1.457-1.216-2.2-1.847,1.675-1.538,3.35-3.087,5.037-4.624C712.764,105.876,712.89,106.014,713.016,106.152Zm-5.209-.792c1-1.756,2.49-2.146,4.509-1.147-2.742.562-4.027,2.352-4.8,4.67-.241.711-.539,1.549-1.928,1.01C706.361,108.286,706.992,106.771,707.807,105.36Z" transform="translate(-460.236 -23.162)" fill="#e8bb72"/>
        <path id="Trazado_945838" data-name="Trazado 945838" d="M806.707,50.889a9.147,9.147,0,0,1-1.928.643,9.48,9.48,0,0,1,1.021-1.193c1.549-1.136,2.329-2.5,1.7-4.486a4.958,4.958,0,0,0-4.2-3.764,17.977,17.977,0,0,0-4.154.046c-1.549.149-2.318-1.813-1.423-2.444,2.375-1.675,1.847-3.718,1.262-5.852-.034-.034-.057-.069-.092-.1-.034-.069-.069-.115-.1-.184-2.4-2.421-5.244-2.283-8.215-1.274-1.136.39-2.4.677-2.249,2.4.023.31-.6.895-.987.964-.287.046-.952-.551-.964-.884-.034-1.48-1.09-1.7-2.123-1.8-4.911-.5-9.432.585-12.966,4.108a16.044,16.044,0,0,1-3.844,3.178,6.869,6.869,0,0,0-2.421,2.628c-1.1,1.893-.252,3.178,1.928,3.293.746.046,1.7-.861,2.341.551-1.469.757-3.362,1.342-2.524,3.637.711,1.951,2.364,1.687,3.959,1.641.918-3.557,1.813-7.068,2.708-10.533,9.145-4.647,21.732,5,20.849,16.362a20.768,20.768,0,0,1,2.134-.688,2.158,2.158,0,0,1,2.914,1.8c.665,3.282-1.538,9.225-6.414,8.984-1.147,1.216-.929,2.719-.7,4.165.172,1.079.459,2.18,2.031,1.239.3-.184.941.149,1.411.3,1.492.459,2.983.929,4.486.344,1.079-3.19,1.079-3.19,4.383-3.155a16.129,16.129,0,0,0,1.824-.011c2.054-.172,2.57-1.147,1.515-2.972a24.9,24.9,0,0,0-1.744-2.272c-.3-.413-.539-.861-1.021-1.641a30.157,30.157,0,0,1,3.029-.838c3.006-.5,3.913-1.446,4.073-4.418.138-2.5-.31-3.844-2.4-6.793a5.145,5.145,0,0,0-2.673-1.4A2.471,2.471,0,0,1,806.707,50.889Z" transform="translate(-450.81 -30.869)" fill="#009ee2"/>
        <path id="Trazado_945839" data-name="Trazado 945839" d="M719.835,95.69c-.034.023-.069.034-.1.057,0,.069-.011.126-.011.2.023-.046.046-.08.08-.138A.338.338,0,0,1,719.835,95.69Z" transform="translate(-457.417 -21.42)" fill="#fff"/>
        <path id="Trazado_945840" data-name="Trazado 945840" d="M747.162,87.67a.31.31,0,0,1-.092-.08h0l.092.092Z" transform="translate(-453.385 -22.614)" fill="#311d47"/>
        <path id="Trazado_945841" data-name="Trazado 945841" d="M871.774,128.708a14.953,14.953,0,0,0-.987-2.96c-4.7-10.476-9.409-20.952-14.193-31.382-1.033-2.237-1.779-4.716-3.924-6.276-.413-2.582-2.49-3.362-4.532-4.2-2.008-.815-4.016-1.652-6.024-2.49a7.423,7.423,0,0,0-2.364-.987A6.771,6.771,0,0,1,834.4,77.8v9.856c.012.011.034.011.046.023a17.065,17.065,0,0,0,1.113-2.891,42.972,42.972,0,0,0,.482-4.383c4.05,1.595,8.078,2.639,11.509,5.335a4.006,4.006,0,0,1-.436,1.239c-2.754,3.3-3.362,7.171-2.788,11.256.516,3.672,1.8,4.888,5.4,5.691a75.338,75.338,0,0,1,5.336,15.811c-1.939-.585-3.488-1.01-5.014-1.538-5.14-1.8-10.269-3.637-15.41-5.462a2.318,2.318,0,0,1-1.595-3.109c.608-2.031-.482-2.869-1.824-3.809a22.172,22.172,0,0,0-10.074-4.073,20.869,20.869,0,0,0-3.844-7.7c-.367-.47-.539-1.09-.9-1.572-.539-.757-1.17-1.457-1.951-2.421,1.056-1.893,3.121-3.087,5.427-4.544v3.2c1.687.574,1.859-1.147,2.846-1.515.287,2.478.47,4.945.906,7.378a15.53,15.53,0,0,0,1.388,3.9c.5,1.033,1.331,1.1,2.054.229a12.033,12.033,0,0,0,1.354-2.215c1.377-2.616,2.719-5.244,4-7.722.757-.482,2.065.528,2.042-1.044-.012-.011-.034-.011-.046-.023-.011.034-.034.08-.046.115v-.149c-.344-.172-.861-.379-.838-.482.31-1.664-1-2.26-1.962-3.052a8.057,8.057,0,0,0-1.342-.7c1.274-1.893,2.421-3.591,3.546-5.255q-.241-1.429-.482-2.754a4.251,4.251,0,0,1,3.821-.172,4.791,4.791,0,0,0,1.515.356c2.283.241,3.167-.459,3.557-2.742.08-.482.2-.952.287-1.411,1.526.275,2.88.6,4.257.723a2.638,2.638,0,0,0,2.754-1.1,2.852,2.852,0,0,0-.3-3.19c-.436-.643-1-1.193-1.492-1.8-.333-.413-.631-.872-1.067-1.469,1.239-.184,2.18-.287,3.109-.459a4.739,4.739,0,0,0,3.339-2.295,7.936,7.936,0,0,0-1.239-8.938,10.7,10.7,0,0,0-1.847-1.044c2.169,3.029,2.616,4.372,2.478,6.907-.161,2.972-1.056,3.913-4.073,4.418a30.161,30.161,0,0,0-3.029.838c.47.769.711,1.228,1.021,1.641a23.43,23.43,0,0,1,1.744,2.272c1.056,1.824.539,2.8-1.515,2.972-.608.046-1.216.011-1.824.011-3.3-.034-3.3-.034-4.383,3.155-1.5.585-2.995.115-4.486-.344-.47-.149-1.113-.482-1.411-.3-1.572.941-1.859-.161-2.031-1.239-.23-1.446-.448-2.949.7-4.165,4.876.241,7.079-5.714,6.414-8.984a2.151,2.151,0,0,0-2.914-1.8,20.78,20.78,0,0,0-2.134.688c.884-11.359-11.7-21-20.848-16.362-.9,3.465-1.79,6.976-2.708,10.533-1.595.057-3.247.321-3.959-1.641-.838-2.295,1.056-2.88,2.524-3.637-.643-1.4-1.595-.5-2.341-.551-2.192-.115-3.041-1.4-1.928-3.293a6.792,6.792,0,0,1,2.421-2.628,16,16,0,0,0,3.844-3.178c3.534-3.523,8.055-4.624,12.966-4.108,1.033.1,2.088.321,2.123,1.8.012.321.677.929.964.884.39-.057,1.01-.643.987-.964-.149-1.721,1.113-2.008,2.249-2.4,2.972-1.01,5.817-1.147,8.215,1.274a4.611,4.611,0,0,0-5.095-2.662c-1.618.2-3.2.723-4.808,1.079a3.926,3.926,0,0,1-1.71.229c-6.368-1.687-12-.2-17.1,3.8a11.424,11.424,0,0,1-2.008,1.124,9.865,9.865,0,0,0-5.29,6.139c-.574,1.928.1,3.19,1.916,3.982a8.94,8.94,0,0,0,1.193.367c-.815,4.5-.161,5.4,3.786,5.6,1.147,1.365,1.5,2.651-.012,4.016-.367.333-.31,1.136-.413,1.733-.528,3.1.608,5.955,1.5,8.766,1.09,3.419,3.786,5.794,6.437,8.043a4.979,4.979,0,0,0,4.429,1.033c.585-.138,1.182-.2,1.87-.31.287,1.17.711,2.283-.3,3.213-1.595,1.457-3.167,2.96-4.876,4.245-2.5,1.882-5.06,3.672-6.357,6.7-.929,0-1.8-.011-2.662,0A145.469,145.469,0,0,0,785.971,92.9a25.121,25.121,0,0,0-3.282,1.09c.941.906,1.515,1.457,2.077,2h0a.309.309,0,0,1,.092.08V94.434c10.017-.964,19.965-2.949,30.429-1.985,1.434,3.167,2.891,6.4,4.349,9.65,4.245.2,7.745,2.192,11.107,4.544,1,.7,1.606,1.4,1.228,2.811-.5,1.893.516,3.339,2.169,4.567-.574,1.09-1.113,2.123-1.515,2.88-3.029-.906-5.76-1.71-8.468-2.547a5.429,5.429,0,0,1-2.341-1.01c-2.478-2.6-5.817-2.834-9.076-3.316,1.515.551,3.075,1,4.532,1.675a4.935,4.935,0,0,1,2.375,1.813,5.375,5.375,0,0,0,4.039,3.052c1.595,4.383,3.178,8.766,5,13.769-2.972-.895-5.29-1.595-7.814-2.352a15.383,15.383,0,0,1-2.375.241c-3.121-.1-6.253-.275-9.65-.436-.218-.333-.62-.883-.975-1.457a189.616,189.616,0,0,0-21.2-28.731,16.753,16.753,0,0,0-1.813-1.549v.023l-.092-.092c.941,1.331,1.8,2.731,2.834,3.993a237.842,237.842,0,0,1,17.154,23.935c.447.7.826,1.457,1.331,2.341-4.865.218-9.443.482-14.021.62-2.708.08-5.381.264-7.986,1.71-.585-.5-1.136-.987-1.572-1.365a36.653,36.653,0,0,0,3.8-2.582,1.858,1.858,0,0,0,.241-1.79c-2.1-2.272-4.211-4.567-7.343-5.634.585-1.377-.092-2.134-1.32-2.593-.815-.3-2.088-.321-2.375-.872-.941-1.836-2.651-1.274-3.683-1.515-.367-1.446-.688-2.731-1-3.993-.046.769-.9,1.274-1.274,2.008.448.287.849.539,1.274.8-.172.562-.333,1.124-.482,1.583a25.133,25.133,0,0,0,3.913,1.985c1.354.413,2.937.023,4.2,1.159-.356.734-.688,1.4-1,2.031,1.9,1.664,3.557,3.465,6.953,3.293a28.73,28.73,0,0,1-2.662,3.2,2.265,2.265,0,0,1-2.857.2c-2.96-1.813-5.967-3.545-9.133-5.427a2.372,2.372,0,0,0-.826-3.626c-1.71-1.033-3.328-2.582-5.565-1.182a3.794,3.794,0,0,1-.344-3.614,52.049,52.049,0,0,0,1.515-7.642A7.036,7.036,0,0,0,761.6,96.4a50.89,50.89,0,0,0-4.59-3.442c-4.44-2.823-9.133-2.341-13.769-.666-5.358,1.928-8.961,5.771-11.222,10.935-.379.872-.769,1.733-1.159,2.6-2.524-.688-4.108-3.064-3.35-5.4a20.12,20.12,0,0,1,7.665-10.877,14.636,14.636,0,0,1,4.67-1.962c3.557-.872,7.057-2.169,10.832-1.939a3.047,3.047,0,0,0,1.239-.344,1.794,1.794,0,0,1,2.6.929c.574,1.182,1.56,1.446,2.742,1.664a30.731,30.731,0,0,1,5.485,1.388,4.057,4.057,0,0,1,2.111,2.077,5.637,5.637,0,0,0,1.916,2.96c.964.677.987,1.756.8,2.846-.6,3.523-.585,3.523,1.5,6.1-.964,3.132-1.618,3.109,1.262,4.027a2.575,2.575,0,0,1-.333-2.869,2.508,2.508,0,0,0-.333-2.329c-1.3-1.113-1.251-2.4-1.021-3.8a5.011,5.011,0,0,0-1.48-4.762,3.354,3.354,0,0,1-.906-1.526c-.643-2.5-2.341-3.591-4.739-4.268-2.364-.665-4.819-1.251-6.781-3.018a3.208,3.208,0,0,0-2.4-.654,12.266,12.266,0,0,1-3.832.011,7.659,7.659,0,0,0-2.8.39c-1.847.459-3.66,1.3-5.531,1.457a17.692,17.692,0,0,0-6.644,2.157,8.955,8.955,0,0,0-2.467,2.192c-.849.975-1.515,2.123-2.306,3.155a13.337,13.337,0,0,0-2.926,8.927c.046,1.147,1.8,4.268,2.9,4.647,1.595.539,1.824,1.618,1.744,3.041a5.7,5.7,0,0,0,2.031,5.244,5.113,5.113,0,0,0-.218-1.136,11.6,11.6,0,0,1-.333-7.894A20.219,20.219,0,0,1,736.587,98a19.367,19.367,0,0,1,9.478-5.622c4.5-1.216,8.8-.918,12.335,2.7a31.967,31.967,0,0,0,2.662,2.1,6.023,6.023,0,0,1,2.341,4.762,18.32,18.32,0,0,1-2.008,9.053,4.031,4.031,0,0,0-.47,2.433,47.558,47.558,0,0,0,1.48,6.024,2.624,2.624,0,0,1-.849,2.834c-.3-1.492-.562-2.754-.815-4.016a6.2,6.2,0,0,0-.379,2.937c.459,4.968-2.226,8-6.242,10.2-1.721.941-2.811.585-3.809-1.17-.723-1.262-1.377-2.547-2.077-3.844-1.847.574-3.568,1.113-5.255,1.641-1.48-2.559-1.5-2.559-4.395-2.088-.654.1-1.308.2-2.065.287a1.427,1.427,0,0,0,.138.1l-.138-.1c-.275.034-.436-.1-.735-.057,1.7,1.182,3.075.5,4.739.3.379.757.734,1.526,1.159,2.26.3.516.585,1.274,1.033,1.411.952.287,2.019.138,3.006.333,1.01.207,1.342,1.985,2.811,1.274.08-.034.172-.1.241-.092.31.069.711.069.906.264,2.088,2.1,4.177,1.538,6.288.092a.162.162,0,0,0-.023-.069.2.2,0,0,1,.057.046c.436-.482.884-.964,1.446-1.572.229.7.379,1.17.551,1.721.252-.2.551-.3.608-.482a25.636,25.636,0,0,1,4.452-8.445c1.79-2.146,2.226-4.831,2.364-8.124,1.342,1.01,2.318,1.733,3.293,2.467-1.893,2.49-1.893,2.49-1.48,4.406-3.11,3.959-6.093,7.768-9.076,11.566l-2.18-1.515-.012.011c-.011.011-.023.011-.034.023,1.021,4.326,2.857,8.514,2.283,13.138a12.568,12.568,0,0,0,.241,2.834c.207,2,.425,3.982.677,6.288a14.132,14.132,0,0,1-1.354-.6,8.294,8.294,0,0,0-8.227-.333,12.154,12.154,0,0,1-2.9,1.124,2.713,2.713,0,0,1-2.065-.482c-2.249-1.9-4.36-3.97-6.575-5.909-1.044-.918-2.215-1.7-3.465-2.639.9-1.159,1.962-2.513,2.995-3.878,1.308-1.733,1.285-3.465-.241-5.542-2.065,2.777-4.016,5.4-5.967,8.02-.8-.367-1.56-.711-2.536-1.159-1.664,2.123-3.282,4.154-4.854,6.208a3.1,3.1,0,0,0-.47,1.193c-.264,1.147-.539,2.306-.711,3.477-.08.551-.023,1.595.138,1.618,1.538.31,1.388,2.065,2.4,2.9.734-.665,1.354-1.216,2-1.8.906.734,1.733,1.411,2.731,2.214h-38.45c0-2.983.149-5.749-.034-8.491-.287-4.418,1.4-7.4,5.588-9.122a11.213,11.213,0,0,0,3.924-2.949,12,12,0,0,1,3.4-2.742c3.064-1.629,5.714-3.626,6.185-7.412-.023.011-.057.023-.08.034.011-.034.023-.057.034-.092-.459-.034-1.056.069-1.331-.184-3.683-3.4-3.672-3.408-7.94-4.658a1.965,1.965,0,0,1,2.5-1.526,13.8,13.8,0,0,1,4.211,1.824,21.641,21.641,0,0,1,3.052,3.1c-.184.551-.344,1-.493,1.446h.057c0,.023-.011.034-.011.057a14.977,14.977,0,0,0,2.134-1.1c1.538-1.113,1.629-1.595.941-3.637.493,1.274-.023,2.134-1.262,2.9-1.2-3.029-3.8-4.314-6.712-5.324,2.582-1.182,4.808-.482,7.974,2.421,0-.011,0-.011-.011-.023,0,.011,0,.011.011.023h0c.012.011.034.023.046.046.115-.218.172-.5.344-.631,2.042-1.595,2.226-2.364.723-4.475a36.354,36.354,0,0,0-2.9-3.35q-6.54-7.108-13.081-14.2c-.459-.5-1.124-1.136-1.1-1.687.08-1.939-1.308-2.524-2.628-3.144-3.867-1.8-7.757-3.534-11.818-5.381a3.2,3.2,0,0,0-3.488-2.926V82.731c1.8-.861,3.477-1.595,5.072-2.467A8.029,8.029,0,0,0,689.2,74.4a48.719,48.719,0,0,1,2.065-6.988c1.3-3.683,3.029-7.229,3.259-11.233a2.059,2.059,0,0,1,1.124-1.5c1.664-.516,1.962-1.756,1.939-3.109a3.093,3.093,0,0,1,.62-.3c1.09-.229,2.065-.677,2.226-1.893.161-1.32-.78-2.042-1.79-2.628-.6-.344-1.595-.493-1.79-.987-.941-2.318-3.1-2.582-5.014-3.155a6.6,6.6,0,0,0-3.878-4.429,15.576,15.576,0,0,0-7.1-1.388,10.782,10.782,0,0,0-7.573,2.96c-1.262,1.285-2.616,2.49-3.821,3.832a2.806,2.806,0,0,0-.287,4,4.169,4.169,0,0,1,.264,4.119c-.551,1.434-1.067,2.891-1.606,4.349-2.18-.436-2.731-.264-3.339,1.882a19.88,19.88,0,0,0-.677,5.14c-.011,2.651.3,3.041,2.26,4.636.138,1.882-.126,3.752.47,5.29a15.056,15.056,0,0,1,.218,9.707c-.3,1.113-.046,2.5-1.549,3.029a28.374,28.374,0,0,1-3.58,1.377c-1.951.39-3.993.379-5.955.746a67.646,67.646,0,0,0-7.08,1.71c-1.159.344-2.5,1.124-2.26,2.524.39,2.215-1.056,2.857-2.49,3.729A53.5,53.5,0,0,0,627,111.565c-1.342,1.974-2,3.775-.528,5.3a12.128,12.128,0,0,0-.344,2.869c.264,1.7.7,1.882,2.456,1.583a2.319,2.319,0,0,1,1.434.126c4.647,2.6,8.319,6.4,12.22,10.04a28.044,28.044,0,0,1-5.4-.252c-2.352-.367-3.568.665-4.636,2.708-3.029,5.783-6.23,11.463-9.5,17.108-2.318,4.016-2.41,3.97-7.068,3.9-4.613-.069-9.225-.356-13.8.585-2.031.413-2.042.39-2.031,2.547v.952H546.415c.2,1.549.379,2.9.551,4.257a33.528,33.528,0,0,1-3.591-7.458,107.665,107.665,0,0,0-8.606-19.265,6.137,6.137,0,0,0-5.726-3.649,116.574,116.574,0,0,0-21.365,1.021,131.862,131.862,0,0,0-13.482,2.937c-2.547.665-3.052,1.618-3.075,4.177a147.213,147.213,0,0,0,2.455,29.89c2.249,11.245,5.37,22.306,8.032,33.47,1.228,5.129,4.062,8.365,9.523,8.881.08.011.172.046.252.057a2.212,2.212,0,0,1,2.031,1.71,19.145,19.145,0,0,1,.608,2c.562,2.077,1.377,3.947,3.683,4.544,0,.413.023.677,0,.929-.677,6.23-1.331,12.449-2.065,18.668s-1.56,12.426-2.352,18.634c-.229,1.813-.608,3.614-.7,5.427a3.6,3.6,0,0,0,.792,2.352c1.365,1.5,3.35.918,3.9-1.124,2.111-7.894,4.211-15.788,6.207-23.717.849-3.362,1.492-6.793,2.111-10.212a55.222,55.222,0,0,1,2.708-10.35h16.706c-.356,1.629-.654,2.891-.918,4.154-.436,2.042-.987,4.062-1.251,6.127-.929,7.252-1.756,14.515-2.616,21.766-.149,1.2-.356,2.421-.4,3.626-.046,1.32.666,2.169,1.71,2.215,1.239.046,1.251-.929,1.469-1.767.757-2.949,1.515-5.9,2.341-8.824,1.87-6.7,3.832-13.379,4.406-20.367.184-2.214.711-4.395,1.09-6.678,1.262.057,2.272.115,3.4.172,0,.7.023,1.2,0,1.71-.31,4.865-.643,9.719-.964,14.584-.333,5.129-.585,10.258-1.033,15.364-.333,3.809-.906,7.6-1.4,11.394-.241,1.859-.39,3.672,1.388,4.968h3.66c.264-2.146.493-4.291.792-6.425,1.136-8.365,2.387-16.706,3.419-25.082a102.548,102.548,0,0,1,3.695-16.431h9.638a15.746,15.746,0,0,0,.929,2.559c3.431,5.921,5.2,12.518,7.7,18.818,1.916,4.842,4.211,9.546,6.4,14.285.39.861.665,2.077,2.237,1.893-.643-12.863-3.706-25.2-7.332-37.612,1.515-.218,2.708-.356,3.878-.574,1.79-.344,2.593-1.182,2.639-3.006a23.119,23.119,0,0,0-.436-3.523c3.534-.918,7.493.608,10.889-1.56a14.479,14.479,0,0,1,.011-2.123,4.59,4.59,0,0,0-2.41-4.831,23.569,23.569,0,0,0-3.523-1.664c-.769-.333-1.583-.585-2.513-.918.1-2.134.218-4.131.3-6.116.1-2.7.31-5.393.252-8.089-.08-3.649-1.744-5.565-5.358-6.345a37.4,37.4,0,0,0-4.395-.562c-5.542-.516-11.1-.929-16.626-1.538-3.282-.356-6.54-.964-9.787-1.56a5.365,5.365,0,0,1-3.947-2.283c-1.572-2.616-2.18-5.553-3.259-8.651,1.308,0,2.169-.023,3.041,0,12.622.367,25.243-.608,37.876.1a42.287,42.287,0,0,0,7.814-.2,17.787,17.787,0,0,1,5.209.252c0,1.033-.034,1.893,0,2.754q.671,15.92,1.388,31.829c.3,6.517.78,13.035.987,19.552.115,3.557-.172,7.125-.31,10.694-.08,1.962.344,2.455,2.364,2.559.516.023,1.044-.057,1.572-.011,5.989.4,11.979.8,17.968,1.239,4.854.356,9.707,1.021,14.572,1.136,8.353.2,16.718.069,25.082.08h2.272c.493,2.5.631,2.777,3.109,3.2,4.452.757,8.938,1.388,13.413,1.985a8.6,8.6,0,0,0,3.109-.161,28.684,28.684,0,0,1,9.741-.5,17.459,17.459,0,0,0,4.922.241c4.039-.8,4.831-2.524,3.672-5.3a11.924,11.924,0,0,1-.379-1.377c1.01,0,1.87-.057,2.731.011,3.477.252,3.477.264,3.591-3.373.149-4.922-.344-9.879,1.859-14.584a13.611,13.611,0,0,1,3.052-4.773,37.494,37.494,0,0,0,3.924-3.431,36.845,36.845,0,0,0,2.88-4.475,4.887,4.887,0,0,1,.528.574A156.991,156.991,0,0,0,744.251,230.4a4.97,4.97,0,0,1,.539.562c.792,1.09.7,2.237-.448,2.891a18.272,18.272,0,0,1-4.268,1.847c-2.685.7-5.45,1.124-8.17,1.7-2.123.448-4.257.895-6.345,1.492a5.927,5.927,0,0,0-2.444,1.4c-1.331,1.285-1.1,2.513.6,3.259a12.767,12.767,0,0,0,3.5.952c3.109.39,6.23.723,9.351.929a29.594,29.594,0,0,0,11.371-1.079,12.937,12.937,0,0,1,3.35-.356c3.649-.184,7.309-.264,10.958-.528,1.687-.126,3.5-.2,4.727-1.836a14.567,14.567,0,0,0-4.211-6.712,6.352,6.352,0,0,1-2.639-4.039,3.99,3.99,0,0,0-1.434-2.123c-2.937-2.582-4.073-6-4.636-9.673a3.235,3.235,0,0,0-1.859-2.593c-2.7-1.446-3.637-3.568-3.236-6.666,7.711,1.033,15.421,2.077,23.315,3.132-.08.757-.149,1.606-.275,2.455-1.411,9.11-2.857,18.221-4.234,27.331a19.462,19.462,0,0,0-.172,4.165c.126,1.733.757,2.146,3.018,2.2.884-2.708,1.893-5.485,2.7-8.307.849-3.006,1.515-6.07,2.214-9.122q1.962-8.52,3.855-17.039a4.684,4.684,0,0,0-.1-1.308,5.736,5.736,0,0,0-1.239,2.57c-2.088,8.537-4.142,17.073-6.242,25.6-.436,1.767-1.021,3.511-1.595,5.244a5.807,5.807,0,0,1-.849,1.228c-1.056-1.492-.677-2.88-.47-4.234,1.056-6.965,2.157-13.93,3.19-20.894.493-3.339.884-6.689,1.365-10.3,7.871.3,15.639.6,23.465.884.333.975.643,1.79.9,2.6,2.123,7.08,4.165,14.182,6.391,21.227a75.689,75.689,0,0,0,3.27,7.952c.516,1.17,1.228,2.295,3.121,2.134-.1-1.159-.172-2.169-.31-3.178-.264-1.985-.551-3.959-.849-5.944q-1.566-10.189-3.132-20.378c-.218-1.457-.447-2.926-.539-4.395a2.046,2.046,0,0,1,.574-1.583,4.23,4.23,0,0,0,1.985-4.521,9.275,9.275,0,0,0,5.76-5.749c2.146-6.712,4.3-13.425,5.313-20.435.367-2.582.792-5.163,1.182-7.745a12.937,12.937,0,0,1,.31,3.672c-.2,4.44-.379,8.869-.631,13.3a101.968,101.968,0,0,0,2.662,27.721c1.974,8.984,3.97,17.968,6.024,27.194-2.019.666-3.832,1.193-5.611,1.847-4.154,1.538-8.319,3.052-12.4,4.762-2.134.883-2.272,1.549-1.56,4.027.8,0,1.664-.023,2.513,0,6.735.241,13.413-.631,20.217.011,7.665.734,15.467-.023,23.212-.149a4.547,4.547,0,0,0,.78-.1c2.214-.344,2.547-.792,1.733-2.949-3.087-8.17-4.142-16.672-4.555-25.323-.287-6.265-.688-12.518-1.147-18.772a12.076,12.076,0,0,1,.31-4.624c2.019-6.471,4.039-12.954,5.955-19.46a86.765,86.765,0,0,0,4.016-23.6c.011-1.262-.367-2.6,1.17-3.442.31-.161.31-1.124.252-1.7-.241-2.513-.4-5.049-.884-7.516-1.01-5.175-2.191-10.327-3.339-15.593.436.057.929.149,1.434.172,2.513.126,5.037.413,7.539.31A3.616,3.616,0,0,0,871.774,128.708Zm-40-43.556a1.642,1.642,0,0,1,.241,1.56c-1.778,3.637-3.66,7.217-5.508,10.82-.206-.057-.413-.126-.62-.184A29.543,29.543,0,0,1,824.4,84.831c.3,1.274.585,2.547.861,3.729,1.824.321,2.352-.849,3.041-1.836a6.162,6.162,0,0,1,1.664-1.882A2.04,2.04,0,0,1,831.776,85.152Zm-.413-5.875c-1.446,2.019-3.006,3.959-4.555,5.978-.379-3.144-.757-6.242-1.159-9.535,1.652-1.239,3.488-2.616,5.485-4.119.287,2.1.608,3.936.769,5.794A2.988,2.988,0,0,1,831.362,79.277ZM819.751,41.791c4.877.62,8.514,3.293,11.268,7.252a22.718,22.718,0,0,1,1.733,3.213,8.254,8.254,0,0,1,.379,6.884c-4.154-8.33-10.831-11.83-19.506-11.876-.057-.149-.126-.229-.115-.3C813.853,42.376,815.2,41.218,819.751,41.791Zm-9.2,21.17V57.453H816.3c.1,1.675.2,3.167.31,4.922C814.5,62.582,812.66,62.754,810.548,62.961Zm12.759,12.013c-2.869,1.021-4.716.069-5.921-2.444-3.35-1.572-5.209-4.245-6.1-8.2,1.71-.092,3.052-.161,4.222-.218.551.861.872,1.79,1.515,2.226.459.31,1.365-.023,2.651-.115-1.2-.574-1.8-.861-2.731-1.308q1.05-2.926,2.065-5.726c1.515.356,1.388,1.354,1.457,2.306.23,2.88.62,3.236,3.568,3.087a20.745,20.745,0,0,0,3.867-.5c.585-.138,1.492-.757,1.492-1.159a27.161,27.161,0,0,0-.459-5.37c-.069-.4-1.113-.884-1.7-.872-2.467.08-5-.482-7.366.906a2.211,2.211,0,0,1-2.582-.333c-1-.746-2.57-.757-3.9-1.01-.734-.138-1.434-.149-1.1-1.388.585-.057,1.228-.138,2.341-.252-.987-.608-1.641-1.01-2.272-1.4-.218-5.462,2.283-6.1,6.437-4.739,2.891.952,5.806,1.79,8.147,3.924A14.182,14.182,0,0,1,831.374,59c.31,1.1.6,2.237,2.26,2.364.516-.62,1.09-1.354,1.721-2.031.711-.769,1.618-1.721,2.639-1.067.585.367.643,1.549,1,2.536a11.584,11.584,0,0,0-2.754-.333c-.884.149-1.767,1.7-2.628,3.993,1.9-.31,1.9-.31,2.432-2.524l1.331,1.847c-.115.849-1.847,2.433-2.914,2.754-1.446.436-1.274-1-1.847-1.595-.1.207-.252.356-.252.516C832.039,71.211,827.84,73.357,823.308,74.974Zm-2.019-17h6.873v3.913c-1.595,1.021-3.488.654-5.232.918-.39.057-1.2-.7-1.331-1.2A24.51,24.51,0,0,1,821.288,57.97Zm2.9,22.042c.229,1.274.379,2.146.539,3.018-.184-.023-.367-.057-.562-.08-.952,1.2-1.916,2.4-2.869,3.6C821.655,84.223,822.023,81.974,824.191,80.012Zm-80.606,49.167c-.023-.2-.046-.39-.08-.585.941-.241,1.882-.493,3.041-.792C745.433,129.5,745.433,129.5,743.586,129.178Zm4.613,1.756c-.516-.321-1.044-.654-1.664-1.044.6-.631.987-1.056,1.549-1.664a7.779,7.779,0,0,1,.654,1.733C748.772,130.268,748.393,130.612,748.2,130.934ZM790.251,128c3.821-.207,7.653-.241,11.474-.333.952-.023,1.916.046,2.869.023,1.515-.034,2.88.229,3.649,1.916,1.733-1.228,3.4-1.595,5.427-.333-1.1,6.494-2.111,13.1-3.362,19.655-.792,4.177-1.928,8.3-2.926,12.438a19.521,19.521,0,0,1-4.888,8.95c-.7-2.742-1.354-5.026-1.87-7.343a44.574,44.574,0,0,0-5.278-13.276c-1.434-2.375-2.49-4.968-3.718-7.47a1.388,1.388,0,0,1-.184-.482c-.379-4.854-3.1-8.525-6.058-12.094-.1-.115-.092-.321-.218-.838A44.534,44.534,0,0,1,790.251,128Zm-44.864,28.112c2.088-.838,4.188-1.641,6.3-2.444s5.84.1,7.148,1.859a6.366,6.366,0,0,1,.528,2.26H743.046l-.1-.482C743.746,156.9,744.549,156.452,745.387,156.108Zm-4.222-1.847c1.044.6,1.629.941,2.467,1.423-.815.436-1.377.734-1.928,1.033.012.034.012.08.023.115-.046-.011-.08-.011-.126-.023-.264.39-.677.757-.723,1.159-.161,1.423-1.033.665-1.939.861.757-1.251,1.17-2.41,2.662-2.019.011-.023.023-.034.034-.057a.251.251,0,0,0,.057-.034C741.555,156.062,741.405,155.373,741.164,154.26ZM737.573,138.6c-1,2.765-3.236,4.636-5.232,6.689A25.954,25.954,0,0,1,737.573,138.6Zm-8.422,4.831c.975.849,1.5,1.365.987,2.593-1,2.4-2.226,4.268-5.944,4.062C726.042,147.617,727.556,145.575,729.151,143.429Zm-5.324,8.456h2.295C725.445,152.872,725.445,152.872,723.827,151.885Zm1.675,4.039c1.01-1.675,2.019-3.35,3.2-5.3C728.83,152.448,728.21,153.515,725.5,155.924Zm3.041-1.411c1.182-2.18,1.182-2.18,3.155-2.272,1.423,2.524,1.423,2.524,3.454,1.7a6.208,6.208,0,0,1-1.124-1.629c-.138-.47.2-1.067.321-1.606-1.4-.275-2.7-.539-3.97-.8.034-1.251.1-2.054,1.446-1.859,1.193.184,2.409.2,3.89.3.379,1.652.757,3.35,1.2,5.313,1.331-1.193.333-2.352.643-3.786,1.021,1.01,1.882,1.847,2.7,2.651-1.021,3.029-1.4,3.282-4.429,3.523a21.947,21.947,0,0,0-2.524.528C731.021,157.049,729.931,156.578,728.543,154.513Zm9.684,3.821c-1.618.872-2.949.333-4.257.3C735.209,157.714,736.494,156.934,738.227,158.334ZM708.67,129.752c-.849,1.87-2.593,2.582-4.108,3.534a12.387,12.387,0,0,0-4.44,3.855c-.792,1.274-2.57,1.985-3.981,2.811-1.1.643-2.306,1.079-4.016,1.859.367-1.813.62-3.064.872-4.314s.436-2.536.734-3.786a4.5,4.5,0,0,1,.8-1.836c1.515-1.79,3.132-3.488,4.67-5.255.723-.826,1.354-1.733,2.111-2.708C704.746,124.439,706.983,126.677,708.67,129.752Zm-7.217-8.17c-2.57,2.742-5.175,5.462-7.768,8.193-.172-.092-.333-.172-.5-.264.6-4.968,1.193-9.937,1.813-15.157,1.2.516,1.939,1.606,2.9,2.364,1.09.861,2.169,1.744,3.236,2.628C701.889,119.987,702.221,120.756,701.453,121.582ZM680.811,88.835c.172.539.344,1.079.528,1.618-.172.057-.356.1-.528.161-.149-.551-.31-1.09-.459-1.641C680.5,88.927,680.65,88.881,680.811,88.835ZM672.676,43.9a3.052,3.052,0,0,0,1.308-2.708,1.418,1.418,0,0,1,.792-1.136c2.708-.574,5.427-1.021,8.147-1.515,2.868,1.56,6.781,1.583,7.963,5.531.861.126,1.641.2,2.387.379.493.115,1.32.344,1.354.62.321,2.2,2.547,2.433,3.695,3.764.057.057.069.161.161.4-.424,1.113-2.868,1.159-1.5,3.431-3.247,0-5.989.034-8.732-.034-.4-.011-.838-.482-1.193-.8-.425-.379-.78-.826-1.274-1.354-.344.413-.734.677-.723.918.034,2.295-1.606,3.018-3.362,3.236a45.542,45.542,0,0,1-5.749.057c-.367-1.388-.654-2.455-.918-3.477-2.788.126-3.236.034-3.442-1.423C671.287,47.746,670.6,45.566,672.676,43.9Zm-2.444,8.25c1.56.493,2.823.895,4.544,1.446a15.281,15.281,0,0,0-2.49,1.388c-.379.344-.8,1.09-.677,1.48.585,1.71-.562,2.26-1.7,3.109C668.086,56.822,670.094,54.6,670.231,52.152Zm-3.637,12.966c-1.308-2.846-1.079-5.749-.425-8.892a4.147,4.147,0,0,1,2.318,3.213c.287,1.3.333,1.285,2.123,1.951,1.044-1.56,2.719-2.857,1.882-5.553a19.039,19.039,0,0,1,2.318.241c1.342.333,2.65.884,4,1.113,3.545.6,5.588-.149,8.124-2.742a36.077,36.077,0,0,1,4.36-.413,9.213,9.213,0,0,1,2.536.8,20.97,20.97,0,0,1-1.675,7.08c-1.721,4.165-3.741,8.193-4.693,12.667a5.167,5.167,0,0,1-2.191,3.052A73.932,73.932,0,0,1,676.68,81.9a3.734,3.734,0,0,1-4.658-1.262c-2.926-3.741-4.98-7.722-3.821-12.7a25.6,25.6,0,0,0,.333-3.224C667.765,64.877,667.306,64.969,666.594,65.118ZM668.889,80c1.538,1.285,2.788,2.949,4.417,3.523,1.572.551,3.546-.011,5.588-.092-.172,2.444-.918,5.072,1.239,7.538-5.072.941-9.283.1-13.172-2.937A15.955,15.955,0,0,0,668.889,80Zm-42.007,33.986c.459-.769.861-1.583,1.377-2.306A48.749,48.749,0,0,1,642.51,98.439c2.192-1.342,4.245-2.88,6.54-4.429-.677-.861-1.124-1.446-1.629-2.088.608-1.262,1.859-1.457,2.995-1.778,3.683-1.067,11.371-1.675,13.4-1.056.8-.6-.654-2.547,1.4-2.4,1.951,3.672,5.358,5.037,9.156,5.519a11.036,11.036,0,0,0,6.15-.574,4.164,4.164,0,0,1,2.926.333c3.844,1.629,7.63,3.4,11.428,5.117.31.138.792.31.861.551,1.01,3.718,4.463,5.519,6.575,8.376s4.785,5.29,7.171,7.94c1.274,1.423,2.524,2.88,3.695,4.395.769,1,.7,1.044.551,2.628-2.96-2.9-6.483-2.914-10.132-2.146-2.674-1.939-5.381-3.832-7.975-5.84a3.113,3.113,0,0,1-.964-1.939c-.184-1.377-.069-2.788-.2-4.165a6.781,6.781,0,0,0-2.57-5.026c-.1.126-.31.275-.287.367a51.964,51.964,0,0,1,.08,23.545,16.238,16.238,0,0,0,.241,7.745,4.514,4.514,0,0,1,.012,2.754c-1.17,2.891-1.32,5.921-1.583,8.95-.126,1.457-.333,2.914-.5,4.406a55.194,55.194,0,0,1-11.509,1.331c-4.349-.046-8.709.069-13.058.034-1.641-.011-3.27-.321-4.911-.413a10.036,10.036,0,0,0-1.916.229.162.162,0,0,0-.023.069.087.087,0,0,0-.023.057,4.129,4.129,0,0,0,3.259,2.559,72.63,72.63,0,0,0,8.72,1.411c3.029.252,6.093.046,9.133.126a20.361,20.361,0,0,0,7.94-1.239,20.5,20.5,0,0,1,2.272-.562c-.1,1.9-.184,3.58-.3,5.565-11.612-.229-22.983-.459-34.7-.688,1.285-2.5,2.49-4.831,3.683-7.16-.011-.034-.034-.069-.046-.1.034,0,.069-.011.1-.011,1.8-4.762,3.316-9.627,5.886-14.056a7.121,7.121,0,0,0,.792-1.629,1.453,1.453,0,0,0-1.388-2.008c-1.2-.115-2.421-.023-3.89-.023-1.182-4.544-2.5-8.927-3.442-13.4-.918-4.395-1.457-8.869-2.157-13.264,1.721-.883,3.557.643,4.9-.792-.207-1.56-1.56-.792-2.49-1.388.608-.539,1.182-1.044,1.744-1.549-.069-.161-.126-.321-.2-.482a17.965,17.965,0,0,0-2.226.711,37.943,37.943,0,0,0-11.084,7.252c-1.285,1.274-2.708,2.421-4.108,3.672C636.073,111.233,631.61,112.369,626.882,113.986Zm58.954,38.542c-6.162,1.538-12.3,1.1-18.462.069,3.029-.861,6.081-.034,9.122-.057C679.617,152.5,682.727,152.528,685.836,152.528Zm-30.074-20.871a30.926,30.926,0,0,1-3.58-2.88c-2.926-3.213-5.714-6.563-8.583-9.822a6.577,6.577,0,0,1-1.824-3.752c3.649-2.616,7.011-5.037,10.832-7.779C652.848,115.742,655.751,123.234,655.763,131.656Zm-17.085-18.026-.069.551c-1.079-.184-2.146-.356-3.224-.539l.034-.379C636.509,113.39,637.588,113.5,638.678,113.631Zm-10.74,6.873c-.482-2.616-.149-3.741,1.549-4.28,3.087-.975,6.242-1.4,9.455,0C634.788,116.281,631.323,118.209,627.938,120.5Zm4.636.585c-.539-.4-1.079-.815-1.756-1.32,3.064-2.4,6.357-2.651,9.787-1.939.574.115,1.09.792,1.515,1.308,2.914,3.568,5.806,7.16,8.709,10.728.654.8,1.354,1.549,2.421,2.777a45.244,45.244,0,0,0-4.6-.4c-1.641.023-2.6-.918-3.786-1.87C640.846,127.159,636.681,124.164,632.574,121.089Zm-.413,16.11c.585-1.538,1.182-3.075,1.767-4.613.172.069.344.149.516.218a12.509,12.509,0,0,1-2.088,4.567c-.4.987-.792,1.985-1.193,2.972A3.141,3.141,0,0,1,632.16,137.2Zm-2.478,4.532c.126.092.252.2.379.287-1.021,1.9-2.031,3.821-3.052,5.726-.2-.1-.379-.207-.574-.31Q628.07,144.594,629.682,141.731Zm-5.439,10.648a70.285,70.285,0,0,0,11.9-20.206c9.11.826,18.3,1.652,27.8,2.513-2.926,6.942-5.634,13.953-9.237,21.009-10.212-.138-20.711-.275-31.7-.413A12.663,12.663,0,0,1,624.243,152.379Zm-2.375,3.936h2.651c4.085-.011,8.158-.092,12.243-.034,5.129.08,10.258.264,15.387.413.723.023,1.411.138,1.377,1.331H621.857C621.868,157.485,621.868,156.991,621.868,156.314Zm-19.724.252a9.793,9.793,0,0,1,2.547-.482c5.106-.046,10.223-.023,15.41-.023a2.587,2.587,0,0,1,.184.631,8.955,8.955,0,0,1-.126,1.239,99.579,99.579,0,0,1-19.334-.4C601.444,157.06,601.754,156.67,602.144,156.567ZM526.53,222.508c-2.6,9.982-5.29,19.953-7.814,29.947-1,3.947-1.652,7.986-2.478,11.979-.138.654-.356,1.285-.551,2-1.779-.218-1.423-1.411-1.3-2.352.436-3.27.975-6.529,1.423-9.8q1.549-11.222,3.029-22.443c.379-2.834.723-5.68,1.113-8.525a15.237,15.237,0,0,1,.459-1.721h6.058A3.993,3.993,0,0,1,526.53,222.508Zm14.985,35.707c1.388-11.968,2.226-23.992,5.14-36.086.872.069,1.618.138,2.5.218C548.79,234.878,544.085,246.317,541.515,258.216Zm7.8-37.876q-14.492-.551-28.961-1.113c-1.193-.046-2.754.3-3.488-.321-.952-.8-1.251-2.4-1.813-3.649-.138-.31-.229-.631-.413-1.159a7.922,7.922,0,0,1,1.319-.057c8.124,1.239,16.316,1.09,24.5,1.136,3.637.023,7.32-.379,11.061,1.618.275.964.631,2.192,1.033,3.546C551.383,220.34,550.35,220.374,549.317,220.34Zm9.914,13.551c-.62,3.867-1.147,7.734-1.7,11.612s-1.113,7.745-1.641,11.623-1.021,7.734-1.538,11.692c-1.1.31-1.813.08-1.951-1.033a9.712,9.712,0,0,1,.08-2.077c.8-8.4,1.652-16.787,2.41-25.2.436-4.934.711-9.891,1.09-14.836.08-1.01.344-2.008.528-3.064h5.749C561.526,226.547,559.839,230.093,559.231,233.891Zm29.42,21.445a28.2,28.2,0,0,1-1.331-2.5c-2.077-5.163-4.188-10.3-6.127-15.524a63.815,63.815,0,0,0-5.14-11.681,20.838,20.838,0,0,1-1.262-2.972c.723-.069,1.136-.138,1.549-.149,1.652-.011,3.293,0,4.9,0C583.854,228.877,588.972,250.677,588.651,255.336Zm-2.685-34.9c-1.56.057-3.132.31-4.693.321-7.757.011-15.5-.034-23.258-.08-1.2-.011-2.41-.126-3.821-.2-.3-1.354-.562-2.559-.9-4.039h34.514a12.023,12.023,0,0,1,.218,1.859A1.908,1.908,0,0,1,585.966,220.432ZM557.292,182.9c7.653,1.17,15.272,2.639,23.063,2.582a43.55,43.55,0,0,1,5.462.39c3.465.425,4.59,1.641,4.613,5.083.012,2.6-.161,5.221-.252,7.825-.057,1.56-.2,3.132-.172,4.693.046,2.547.792,3.3,3.27,3.924a20.3,20.3,0,0,1,3.924,1.342,2.277,2.277,0,0,1,1.365,3.121c-.5.069-1.09.172-1.664.218-6.253.4-12.518.677-18.76,1.228a175.64,175.64,0,0,1-27.905.046,5.987,5.987,0,0,1-5.76-4.808c-.918-3.982-1.469-8.043-2.41-12.013-1.836-7.7-3.993-15.318-5.737-23.04-1.8-7.975-3.247-16.029-4.922-24.027-.516-2.467-1.354-4.854-1.951-7.309-.5-2.088-.849-4.211-1.274-6.322-.023.011-.034.011-.057.023-1.113,1.342-.872,2.88-.551,4.383.987,4.681,2.214,9.317,2.983,14.021,2.077,12.633,5.611,24.922,8.353,37.394.78,3.557,1.32,7.183,1.928,10.774s1.113,7.183,3.064,10.648c-1.216,0-2.146.034-3.087-.011-7.653-.356-15.307-.608-22.937-1.147a81.448,81.448,0,0,1-9.478-1.641,4.531,4.531,0,0,1-3.729-3.568c-.711-2.685-1.492-5.358-2.214-8.043-1.721-6.38-3.35-12.782-5.152-19.127a108.5,108.5,0,0,1-3.511-21.33c-.436-5.634-.677-11.291-1-16.936-.034-.516,0-1.033,0-1.733a100.4,100.4,0,0,1,37.5-4.773c-.861.413-1.492.734-2.123,1.033v.011a2.365,2.365,0,0,1,.654-.2c1.033-.023,2.077-.011,3.408-.011,2.169,4.911,4.406,9.8,6.494,14.744,2.123,5.049,4.1,10.155,6.1,15.249,1.285,3.236,2.662,6.437,3.741,9.742C549.983,179.733,552.748,182.211,557.292,182.9Zm38.794-15.284c-8-.149-15.869-.344-23.751-.413-7.814-.069-15.616-.011-23.74-.011-.379-2.157-.792-4.429-1.17-6.586,16.511-1.629,32.782-.688,49.247.344C596.476,163.21,596.292,165.322,596.086,167.616Zm1.629-.665c.184-2.134.333-3.982.482-5.68,4.578-1.388,9.053-.78,13.459-1.044,15.754-.952,31.508-.2,47.262-.046,27.251.252,54.491.746,81.742,1.056,5.565.069,11.141-.287,16.706-.31a56.125,56.125,0,0,1,6.494.551,12.257,12.257,0,0,1,2.077.62v6.988c-.895,0-1.641.023-2.387,0-13.218-.482-26.436-1.01-39.655-1.457-9.569-.321-19.139-.757-28.708-.746-28.811.046-57.634.31-86.446.448C605.185,167.352,601.639,167.089,597.715,166.951Zm10.51,66.917c0-.608.023-1.193,0-1.767-.206-4.865-.413-9.73-.654-14.6-.161-3.3-.425-6.6-.585-9.9q-.723-15.111-1.4-30.234c-.115-2.582-.011-5.186-.011-7.986h32.713a456.563,456.563,0,0,1-1,67.273C627.433,235.715,617.944,234.809,608.225,233.868Zm39.448,3.683c-2.765.069-5.542-.275-8.686-.447,1.537-22.524,2.065-45,1.457-67.915,4.177,0,8.388-.367,12.5.161,1.951.252,3.672-.264,5.5-.2,6.609.264,13.218.539,19.827.792a18.252,18.252,0,0,0,2.857-.069,162.385,162.385,0,0,1,25.105-.895c.757.023,1.515.138,2.192.2.3,6.747.6,13.321.906,20.24-.379.287-1.182.8-1.893,1.423-1.572,1.377-1.951,2.651-.861,4.372a3.932,3.932,0,0,1,.115,4.6,3.577,3.577,0,0,0-.47,1.216c-1.136,6.609-4.831,12.254-7.011,18.462a46.2,46.2,0,0,1-2.788,6.735,46.907,46.907,0,0,1-4.773,7.412c-.826,1.01-2.524,1.354-3.89,1.847-.62.229-1.492-.115-2.054.172-3.6,1.813-7.527.62-11.233,1.308C665.562,238.63,656.6,237.333,647.673,237.551Zm54.7,4.7c-1.3.057-2.6-.161-3.9-.115-3.27.1-6.54.275-9.81.425a16.331,16.331,0,0,1-2.582.115c-4.567-.574-9.122-1.216-13.677-1.859a17.167,17.167,0,0,1-2.306-.677c1.147-1.538,2.432-1.423,3.695-1.457a72.333,72.333,0,0,0,9.868-.459,19.969,19.969,0,0,0,10.74-5.473,22.057,22.057,0,0,0,2.364-3.362c.2.034.4.08.6.115a19.986,19.986,0,0,1-.447,2.364,2.06,2.06,0,0,0,1.216,2.777c1.308.585,2.719.964,4.635,1.618.723,1.147,1.79,2.823,2.788,4.406A3.443,3.443,0,0,1,702.37,242.255Zm8.674-6.265c-1.7,0-3.247.057-4.785-.011s-2.226-.964-1.8-2.421a4.9,4.9,0,0,1,1.147-2,19.763,19.763,0,0,0,4.7-6.162c.172-.413.666-.688,1.492-1.492C711.527,228.268,711.3,232.021,711.045,235.991Zm11.83-30.085a9.217,9.217,0,0,1-3.316,5.163,57.736,57.736,0,0,0-4.808,5.095,10.605,10.605,0,0,0-1.251,2.559,16.822,16.822,0,0,1-3.018,4.463c-2.547,2.811-4.854,5.84-7.206,8.835a10.979,10.979,0,0,0-1.021,2.26c-1.3-1.216-3.3.826-4.417-1.388.482-1.469,1.193-3.064.379-4.831-.2-.436.138-1.17.344-1.71,2.409-6.15,4.865-12.277,7.275-18.427.5-1.285.9-2.628,1.3-3.959.47-1.572.929-3.155,1.342-4.75s.975-3.167.184-4.831a1.53,1.53,0,0,1,.608-2.054c3.247-2.18,6.575-4.177,10.51-4.831.172.2.344.39.516.574a13.944,13.944,0,0,0-2.272,1.664c-2.914,3.144-2.777,6.609.229,9.7,1.457,1.492,2.88,3.018,4.211,4.624A2.52,2.52,0,0,1,722.875,205.905Zm40.768,31.519c.711,1.308,1.228,2.272,1.939,3.591-1.251.31-2.215.608-3.2.769a21.9,21.9,0,0,1-3.121.275c-9.547.126-19.024,2.008-28.616,1.147-2.318-.207-4.693-.126-6.816-1.182a1.153,1.153,0,0,1,.7-1.733,9.169,9.169,0,0,1,2-.539q7.057-1.17,14.136-2.295a8.558,8.558,0,0,0,5.5-3.637,9.354,9.354,0,0,1,.872-1.285,1.9,1.9,0,0,1,2.41-.057c.792.436.665,1.113.4,1.813-.172.47-.3.952-.436,1.423C754.05,237.413,758.548,239.054,763.642,237.425Zm-10.74-19.77c.2,1.492.344,2.777.516,4.05a15.05,15.05,0,0,0,3.568,7.975c1.7,1.962,3.155,4.119,4.854,6.368a4.3,4.3,0,0,1-1.32.4c-2.088-.115-4.165-.3-6.242-.459a2.734,2.734,0,0,1-2.811-2.41,2.623,2.623,0,0,0-2.146-2.318,4.407,4.407,0,0,1-3.006-2.226,7.489,7.489,0,0,0-1.606-1.7c-7.607-6.735-13.826-14.7-20.091-22.627-.746-.952-1.251-2.088-2-3.041a34.166,34.166,0,0,0-3.19-3.729c-2.364-2.283-2.616-4.658-.321-7.045a10.989,10.989,0,0,1,3.8-2.651c8.927-3.442,17.957-6.666,27.343-8.629,4.073-.849,8.273-1.067,12.415-1.538,3.11-.356,6.219-.677,9.328-1.033.218-.023.424-.229.861-.493-.436-.39-.746-.884-1.113-.929a10.041,10.041,0,0,0-2.341.08c-4.234.459-8.5.769-12.7,1.469-4.8.792-9.558,1.824-14.308,2.926q-12.082,2.788-24.1,5.806c-2.249.562-4.406,1.423-6.976,2.26-.218-6.357-.4-12.472-.1-18.852.826-.034,1.572-.126,2.318-.1,11.141.321,22.294.482,33.413,1.044,3.591.184,7.194.264,10.786.539a5.871,5.871,0,0,0,.3-1.8,5.81,5.81,0,0,1-.3,1.8,58.671,58.671,0,0,1,8.686,1.251c1.331.31,1.779-.2,1.859-1.7.115-2.237.241-4.486.367-6.8a47.773,47.773,0,0,1,11.864,2.765c1.32.459,2.651.861,3.947,1.342,2.949,1.1,5.852.069,8.766-.184.356-.034.872-.849.9-1.32a6.709,6.709,0,0,0-.47-2.283c-1.446-4.372-2.834-8.778-4.44-13.092a46.569,46.569,0,0,0-3.041-6.047c-1.365-2.5-2.811-4.945-4.395-7.343.918,3.178,2.708,5.932,4.131,8.881a99.306,99.306,0,0,1,3.924,9.65c1.136,3.178,2.019,6.448,3.018,9.684a6.68,6.68,0,0,1-5.163,1.239,44.2,44.2,0,0,1-4.337-.918c-4.314-1.021-8.617-2.042-12.92-3.109-.62-.149-1.572-.5-1.664-.918-.448-2-2.1-2.18-3.568-2.559-1.331-.344-2.731-.447-4.188-.677-.207-1.446-.413-2.88-.677-4.681,4.762.218,9.409.425,14.239.643.62,1.434,1.274,2.926,1.916,4.429.172.4.218.906.5,1.182a3.858,3.858,0,0,0,1.251.539c.092-.39.344-.838.229-1.17-.31-.895-.792-1.733-1.147-2.616a3.1,3.1,0,0,1-.161-1.56,35.04,35.04,0,0,1,6.357,6.414c.149.218.264.459.4.665.516.757.964,2.054,2.1,1.124,1.056-.861,0-1.71-.585-2.41-1.618-1.939-3.282-3.844-4.922-5.76-.436-.516-.861-1.056-1.5-1.836,1.675-.425,2.88.425,4.165.562,1.124.115,2.249,1.515,3.637-.011a7.922,7.922,0,0,0-1.423-.723c-2.2-.528-4.395-1.079-6.621-1.469a5.079,5.079,0,0,1-3.408-2.157l-4.234-5.955a17.768,17.768,0,0,1-3.568-10.178,13.419,13.419,0,0,1,.815-3.362c-.39.218-.929.367-1.09.7a8.7,8.7,0,0,0-.493,5.37,25.1,25.1,0,0,0,3.052,8c1.423,2.662,2.708,5.4,4.291,8.617-2.6.057-4.635.126-6.678.149-2,.023-3.982,0-6.253,0-.264-2.708-.815-5.2-.666-7.665a13.885,13.885,0,0,0-.929-6.368,4.138,4.138,0,0,1,.138-3.706,57,57,0,0,1,7.963-12.163c1.01-1.193-.149-2.088.08-3.373a8.718,8.718,0,0,1,1.962.4c5.324,2.455,10.441,5.267,14.457,9.638a29.888,29.888,0,0,1,3.2,4.716c.895,1.48,1.652,3.041,2.478,4.567.161.3.5.562.539.872.6,5.106,3.018,9.524,5.163,14.067,2.513,5.313,3.465,11.073,4.681,16.821a12.128,12.128,0,0,1-5.209,1.813c-3.844.746-7.7,1.4-11.566,2.042a14.348,14.348,0,0,0-11.44,9.2c-1.824,4.314-3.706,8.594-5.634,13.046-4.326,0-9-.023-13.666.011-2.421.023-4.854,0-7.263.264a22.343,22.343,0,0,0-4.2,1.388c-1.434-.459-2.9-2.146-5.588-1.767.528.78.757,1.434,1.216,1.744a64.357,64.357,0,0,1,7.734,6.162,6.129,6.129,0,0,1,1.928,2.639,30.509,30.509,0,0,1,.861,3.809C748,214.557,748.932,217.4,752.9,217.655Zm17.911-6.919c-5.473-.7-10.728-1.342-15.972-2.042-1.549-.207-3.064-.62-4.613-.826a2.5,2.5,0,0,1-2.375-2.077c7.814.918,15.329,1.79,22.971,2.685C770.814,209.107,770.814,209.726,770.814,210.736Zm38.76,34.767c-2.788-3.993-10.694-27.446-11.015-32.242,2.019-.252,4.05-.5,6.23-.769C806.372,223.438,807.932,234.189,809.573,245.5Zm-6.035-34.571a100.1,100.1,0,0,1-10.155.482c-6.357-.126-12.7-.482-19.047-.78-1.744-.08-1.744-.149-1.652-2.031a229.621,229.621,0,0,0,34.606-.826C806.888,210.025,805.339,210.793,803.538,210.931Zm18.2-51.829c-.906,5.576-2.088,11.107-2.811,16.706a151.082,151.082,0,0,1-5.691,24.36,7.475,7.475,0,0,1-6.242,5.576,26.119,26.119,0,0,1-3.867.539,308.432,308.432,0,0,1-38.117-.585c-5.2-.447-10.407-.895-15.616-1.228a5.732,5.732,0,0,1-4.819-2.547,23.908,23.908,0,0,0-1.847-2.134,6.269,6.269,0,0,1,1.7-.849,32.354,32.354,0,0,1,5.45-.39c4.934.264,9.856.711,14.893,1.1-.436,1.56-2.019,1.044-2.96,1.641,1.147,1.01,1.687,1.09,3.029.241a8.627,8.627,0,0,0,3.8-5.14,74.549,74.549,0,0,1,5.129-12.541,11.749,11.749,0,0,1,8.388-6.827c3.913-.826,7.883-1.342,11.818-2.111a35.886,35.886,0,0,0,7.263-1.859,10.7,10.7,0,0,0,3.821-3.442,21.691,21.691,0,0,0,4.142-8.651c1.606-7.3,3.178-14.618,4.635-21.95.5-2.547.6-5.186.884-7.779.069-.677.161-1.354.275-2.341,2.077.207,4.027.39,6.334.62.367,3.523.872,6.953,1.067,10.4.287,5.06.149,10.109-1.595,14.962-.321.895.057,1.423.493,2.123A3.257,3.257,0,0,1,821.736,159.1Zm35.512,95.12c-9.087.941-17.923.344-26.792.459a70.244,70.244,0,0,1,12.071-3.924c4.2-1.079,8.411-1.928,13.035-1.4C856.124,250.976,856.628,252.433,857.248,254.223Zm-14.354-28.146c.906,2.891,1.515,5.875,2.272,8.812,1.079,4.188,2.18,8.376,3.328,12.782-3.557.895-7.217,1.813-11,2.765-1.342-2.651-1.538-5.531-1.847-8.319-.654-6.047-1.136-12.105-1.618-18.175-.356-4.5-.539-9.019-.952-13.516a26.175,26.175,0,0,1,.815-7.206c.964-5.209,1.8-10.441,2.708-15.662.172-1.021.424-2.019.643-3.029l.516-.069c.1,1.274.264,2.559.287,3.832.057,3.132.1,6.265.046,9.386C837.9,207.466,839.991,216.829,842.894,226.077Zm17.532-58.529c-1.836,11.371-5.657,22.225-8.881,33.229-.344,1.17-.757,2.318-1.056,3.488a6.269,6.269,0,0,0-.252,2.054c.849,10.223,1.652,20.458,2.639,30.67.287,2.926,1.113,5.794,1.687,8.7.138.665.264,1.331.448,2.2h-4.544a76.3,76.3,0,0,1-4.154-13.172c-1.193-5.783-2.7-11.509-4.05-17.257a96.387,96.387,0,0,1-2.4-21.216c-.069-7.653.011-15.318.011-22.983,0-.769-.092-1.538-.149-2.536-2.065-.149-4.016-.287-5.967-.425-.034.138-.08.275-.115.425,1.365.436,2.731.872,4.257,1.354a8.2,8.2,0,0,1-.436,4.968c-2.972,6.058-3.695,12.644-4.888,19.127a30.913,30.913,0,0,1-.631,3.591c-1.607,5.14-1.067,10.338-.5,15.524q1.015,9.466,2.146,18.932c.62,5.186,1.32,10.35,1.974,15.536a9.864,9.864,0,0,1,0,1.17c-.884.367-1.744.734-2.616,1.09a4.587,4.587,0,0,0-.734.241c-3.3,2.237-7.114,1.641-10.751,1.824-3.786.184-7.6.046-11.44.046-.333-1.147.688-1.492,1.411-1.756,3.672-1.308,7.378-2.536,11.1-3.741,2.065-.665,4.154-1.228,6.23-1.859,1.342-.4,1.629-1.274,1.388-2.616-1.71-9.673-3.431-19.334-5.68-28.9a82.533,82.533,0,0,1-2.157-23.832c.574-9.73.562-19.483.826-29.225.034-1.193.138-2.387.218-3.66,12.644-.906,25.036,1.8,37.532-.023C861.516,161.765,860.885,164.656,860.426,167.547Zm2.329-12.082a9.733,9.733,0,0,1,.092,1.079c-3.328,1.652-6.93,1.5-10.407,1.526-5.909.034-11.818-.344-17.728-.562-2.868-.1-5.737-.241-8.606-.39a15.614,15.614,0,0,1-2.318-.3,1.25,1.25,0,0,1-1.09-1.71c1.974-8.124,1.09-16.247-.115-24.36a4.071,4.071,0,0,1,.115-.792,13.162,13.162,0,0,1,6.873,2.788,2.338,2.338,0,0,0,.482-2.88c-.975-2.6-2-5.186-3.041-7.757-.643-1.595-1.354-3.178-2.237-5.232a14.708,14.708,0,0,1,6.758,1.469c1.9.987,3.649,2.283,5.519,3.362,2.329,1.354,4.659,2.708,7.068,3.913,4.108,2.065,8.261,4.039,12.438,5.967.918.425,1.641.792,1.859,1.893C859.841,140.813,861.31,148.133,862.756,155.465Zm5.071-23.132a38.139,38.139,0,0,1-7.963-1.1,33.915,33.915,0,0,1-6.793-2.616c-6.609-3.27-13.161-6.678-19.9-10.132.62-1.48,1.159-2.742,1.813-4.291,8.468,2.215,16.385,6,25.117,8.525-.3-.769-.459-1.285-.688-1.778-2.433-5.2-5.049-10.315-7.229-15.6-1.124-2.731-2.077-5.5-3.821-7.917-.229-.321-.5-.62-.975-1.182-.723,2.065,1.423,3.109.987,4.876a3.083,3.083,0,0,1-1.813-1.951c-1.778-3.568-1.262-7.091.3-10.556.218-.482.826-.815,1.308-1.136.252-.172.666-.115.918-.287a3.182,3.182,0,0,0,.6-.769c.344.172.666.218.78.39,1.342,2.065,2.742,4.1,3.959,6.242,1.2,2.111,2.237,4.314,3.293,6.517A314.016,314.016,0,0,1,870,129.167C870.753,131.324,870.191,132.4,867.827,132.333ZM855.16,116.384c.62.447.826.516.906.665.6,1.044,1.159,2.088,1.985,3.614C855.4,120,856.009,118.129,855.16,116.384Z" transform="translate(-491.115 -30.962)" fill="#311d47"/>
        <path id="Trazado_945842" data-name="Trazado 945842" d="M685.161,111.34h-.011Z" transform="translate(-462.513 -19.113)" fill="#311d47"/>
        <path id="Trazado_945843" data-name="Trazado 945843" d="M685.15,111.32c0,.011,0,.011.011.023h0A.036.036,0,0,1,685.15,111.32Z" transform="translate(-462.513 -19.116)" fill="#311d47"/>
        <path id="Trazado_945844" data-name="Trazado 945844" d="M790.356,80.383c-.011-.011-.034-.011-.046-.023v.149C790.322,80.463,790.345,80.429,790.356,80.383Z" transform="translate(-447.011 -23.68)" fill="#311d47"/>
        <path id="Trazado_945845" data-name="Trazado 945845" d="M701.6,104.477c-.023-.023-.046-.034-.069-.057,0,.034.011.069.011.1Z" transform="translate(-460.098 -20.134)" fill="#311d47"/>
        <path id="Trazado_945846" data-name="Trazado 945846" d="M734.954,98.387a1.436,1.436,0,0,0-.184-.757C734.827,97.882,734.885,98.135,734.954,98.387Z" transform="translate(-455.198 -21.134)" fill="#311d47"/>
        <path id="Trazado_945847" data-name="Trazado 945847" d="M777.477,92.964c-.012-.011-.012-.023-.023-.034h-.035Z" transform="translate(-448.911 -21.827)" fill="#311d47"/>
        <path id="Trazado_945848" data-name="Trazado 945848" d="M794.551,33.428a.925.925,0,0,0-.161-.138c.034.069.069.115.1.184Z" transform="translate(-446.41 -30.619)" fill="#311d47"/>
        <path id="Trazado_945849" data-name="Trazado 945849" d="M523.37,122.4c.023-.011.034-.023.057-.023a.042.042,0,0,0-.012-.034A.115.115,0,0,0,523.37,122.4Z" transform="translate(-486.361 -17.492)" fill="#311d47"/>
        <path id="Trazado_945850" data-name="Trazado 945850" d="M523.371,122.393h0a.5.5,0,0,1,.057-.011v-.011A.088.088,0,0,0,523.371,122.393Z" transform="translate(-486.361 -17.487)" fill="#311d47"/>
        <path id="Trazado_945851" data-name="Trazado 945851" d="M523.33,122.4c.011,0,.023-.011.034-.011v-.011C523.364,122.391,523.342,122.4,523.33,122.4Z" transform="translate(-486.367 -17.486)" fill="#311d47"/>
        <path id="Trazado_945852" data-name="Trazado 945852" d="M709.42,140.652c.046.011.08.011.126.023-.011-.034-.011-.08-.023-.115a.251.251,0,0,0-.057.034A.2.2,0,0,0,709.42,140.652Z" transform="translate(-458.935 -14.806)" fill="#311d47"/>
        <path id="Trazado_945853" data-name="Trazado 945853" d="M636.9,135.526a.087.087,0,0,0,.023-.057.163.163,0,0,0,.023-.069c-.034,0-.069.011-.1.011A1.057,1.057,0,0,0,636.9,135.526Z" transform="translate(-469.634 -15.567)" fill="#311d47"/>
        <path id="Trazado_945854" data-name="Trazado 945854" d="M732.783,117.49a.717.717,0,0,0-.023.08l.069-.034Z" transform="translate(-455.494 -18.207)" fill="#311d47"/>
        <path id="Trazado_945855" data-name="Trazado 945855" d="M685.152,111.343h0c0-.011,0-.011-.012-.023C685.152,111.32,685.152,111.331,685.152,111.343Z" transform="translate(-462.514 -19.116)" fill="#311d47"/>
        <path id="Trazado_945856" data-name="Trazado 945856" d="M722.007,118.966a.2.2,0,0,1-.057-.046.163.163,0,0,0,.023.069c.012-.011.023-.011.034-.023C722,118.977,722.007,118.966,722.007,118.966Z" transform="translate(-457.088 -17.996)" fill="#311d47"/>
        <path id="Trazado_945857" data-name="Trazado 945857" d="M682.434,115.43c-.011.034-.023.057-.034.092.023-.011.057-.023.08-.034,0-.023.012-.034.012-.057Z" transform="translate(-462.918 -18.511)" fill="#311d47"/>
        <path id="Trazado_945858" data-name="Trazado 945858" d="M775.46,67.16c0,.011.011.023.011.034.023.011.034.023.057.034Z" transform="translate(-449.2 -25.626)" fill="#311d47"/>
        <path id="Trazado_945859" data-name="Trazado 945859" d="M747.141,110.845c.321-.643.643-1.308,1-2.031-1.251-1.136-2.846-.746-4.2-1.159a25.126,25.126,0,0,1-3.913-1.985c.138-.47.31-1.021.482-1.583-.436-.275-.826-.528-1.274-.8.493-.952,1.79-1.492,1.09-2.765a2.6,2.6,0,0,1-.3-.184c-2.88-.918-2.226-.895-1.262-4.027-2.1-2.582-2.1-2.582-1.5-6.1a2.643,2.643,0,0,0-.8-2.846,5.637,5.637,0,0,1-1.916-2.96,4.1,4.1,0,0,0-2.111-2.077,30.733,30.733,0,0,0-5.485-1.388,3.2,3.2,0,0,1-2.742-1.664,1.8,1.8,0,0,0-2.6-.929,2.8,2.8,0,0,1-1.239.344c-3.764-.229-7.275,1.067-10.832,1.939a14.745,14.745,0,0,0-4.67,1.962,20.12,20.12,0,0,0-7.665,10.877c-.757,2.341.838,4.716,3.35,5.4.39-.861.78-1.733,1.159-2.6,2.26-5.175,5.863-9.007,11.222-10.935,4.647-1.675,9.34-2.157,13.769.665a53.159,53.159,0,0,1,4.59,3.442,7.012,7.012,0,0,1,2.937,6.609,50.858,50.858,0,0,1-1.515,7.642,3.8,3.8,0,0,0,.344,3.614c2.237-1.4,3.855.149,5.565,1.182a2.371,2.371,0,0,1,.826,3.626c3.178,1.87,6.185,3.6,9.133,5.427a2.249,2.249,0,0,0,2.857-.2,28.717,28.717,0,0,0,2.662-3.2C750.71,114.31,749.046,112.509,747.141,110.845Z" transform="translate(-460.765 -24.011)" fill="#e62061"/>
        <path id="Trazado_945860" data-name="Trazado 945860" d="M719.786,96.041a2.634,2.634,0,0,1,3.2-1.974c.677.126,1.675.7,1.8,1.239.539,2.341,1.32,4.808-.482,6.965a3.016,3.016,0,0,0-.413,3.591,12.955,12.955,0,0,1,.952,3.213,1.376,1.376,0,0,1-.815,1.09c-.333.069-.849-.4-1.17-.746a1.9,1.9,0,0,1-.321-.975c-.206-1.56.3-3.132-.31-4.727a3.2,3.2,0,0,1,.734-2.352,6.106,6.106,0,0,0,.987-4.222c-.149-2.192-1.147-2.731-3.1-1.733-.367.184-.746.379-1.113.562Z" transform="translate(-457.414 -21.668)" fill="#311d47"/>
        <path id="Trazado_945861" data-name="Trazado 945861" d="M794.692,33.455c2.295,2.524,2.2,3.764-.551,6.747.872.849,1.962.413,2.914.459a8.251,8.251,0,0,1,5.668,2.249c2.444,2.455,2.341,5.749-.241,7.711a9.145,9.145,0,0,1-1.928.643,9.475,9.475,0,0,1,1.021-1.193c1.549-1.136,2.329-2.5,1.7-4.486a4.958,4.958,0,0,0-4.2-3.764,17.977,17.977,0,0,0-4.154.046c-1.549.149-2.318-1.813-1.423-2.444,2.432-1.71,1.824-3.809,1.228-6Z" transform="translate(-446.597 -30.6)" fill="#311d47"/>
        <path id="Trazado_945862" data-name="Trazado 945862" d="M712.116,103.342c-1.044,1.974-2.088,3.947-3.213,6.07-.757-.631-1.457-1.216-2.2-1.847,1.675-1.538,3.35-3.087,5.037-4.624C711.863,103.066,711.99,103.2,712.116,103.342Z" transform="translate(-459.336 -20.352)" fill="#311d47"/>
        <path id="Trazado_945863" data-name="Trazado 945863" d="M707.165,102.817c-.8,1.411-1.434,2.926-2.215,4.532,1.388.539,1.687-.3,1.928-1.01.769-2.306,2.054-4.1,4.8-4.67C709.654,100.671,708.151,101.061,707.165,102.817Z" transform="translate(-459.594 -20.618)" fill="#311d47"/>
        <path id="Trazado_945864" data-name="Trazado 945864" d="M722.585,96.5c-.574,1.147-1.056,2.111-1.583,3.155a1.577,1.577,0,0,1-.413-2.272C721.024,96.512,721.7,96.087,722.585,96.5Z" transform="translate(-457.333 -21.324)" fill="#311d47"/>
        <path id="Trazado_945865" data-name="Trazado 945865" d="M719.849,95.74c-.092,1.262-.184,2.524-.287,3.786,0,.057-.115.1-.172.161-.688-1.71-.688-1.71.516-3.89C719.906,95.786,719.849,95.74,719.849,95.74Z" transform="translate(-457.534 -21.413)" fill="#311d47"/>
        <path id="Trazado_945866" data-name="Trazado 945866" d="M702.54,105.961c.115-.08.218-.161.333-.241-.092-.08-.172-.161-.264-.252-.149-.046-.3-.092-.459-.138C702.276,105.548,702.414,105.755,702.54,105.961Z" transform="translate(-460.007 -19.999)" fill="#311d47"/>
        <path id="Trazado_945867" data-name="Trazado 945867" d="M702.212,105.436a4.346,4.346,0,0,1,.459.138c-.31-.3-.631-.585-.941-.884C701.891,104.931,702.051,105.183,702.212,105.436Z" transform="translate(-460.069 -20.094)" fill="#311d47"/>
        <path id="Trazado_945868" data-name="Trazado 945868" d="M701.55,104.526c.069.069.138.126.206.2-.057-.08-.1-.161-.161-.241Z" transform="translate(-460.095 -20.125)" fill="#311d47"/>
        <path id="Trazado_945869" data-name="Trazado 945869" d="M621.437,151.473c4.177,0,8.388-.367,12.5.161,1.951.252,3.672-.264,5.5-.2,6.609.264,13.218.539,19.827.792a18.252,18.252,0,0,0,2.857-.069,162.386,162.386,0,0,1,25.105-.895c.757.023,1.515.138,2.192.2.3,6.747.6,13.321.906,20.24-.379.287-1.182.8-1.893,1.423-1.572,1.377-1.951,2.651-.861,4.372a3.932,3.932,0,0,1,.115,4.6,3.578,3.578,0,0,0-.47,1.216c-1.136,6.609-4.831,12.254-7.011,18.462a46.217,46.217,0,0,1-2.788,6.735,46.907,46.907,0,0,1-4.773,7.412c-.826,1.01-2.524,1.354-3.89,1.847-.62.229-1.492-.115-2.054.172-3.6,1.813-7.527.62-11.233,1.308-8.9,1.652-17.865.344-26.792.574-2.765.069-5.542-.275-8.686-.448C621.529,196.876,622.057,174.387,621.437,151.473Z" transform="translate(-472.119 -13.247)" fill="#71808d"/>
        <path id="Trazado_945870" data-name="Trazado 945870" d="M743.585,157.69a1.47,1.47,0,0,0,.2.184c-.448.264-.643.47-.872.493-3.11.356-6.219.677-9.328,1.033-4.142.482-8.353.688-12.415,1.538-9.386,1.962-18.416,5.175-27.343,8.629a10.778,10.778,0,0,0-3.8,2.651c-2.295,2.387-2.031,4.75.321,7.045a34.173,34.173,0,0,1,3.19,3.729c.734.964,1.239,2.1,2,3.041,6.265,7.929,12.484,15.892,20.091,22.627a7.245,7.245,0,0,1,1.606,1.7,4.35,4.35,0,0,0,3.006,2.226,2.623,2.623,0,0,1,2.146,2.318,2.734,2.734,0,0,0,2.811,2.41c2.077.172,4.165.356,6.242.459a4.122,4.122,0,0,0,1.32-.4c-1.7-2.249-3.167-4.406-4.854-6.368a15.139,15.139,0,0,1-3.568-7.975c-.184-1.274-.333-2.559-.516-4.05-3.97-.252-4.888-3.1-5.439-6.3a30.509,30.509,0,0,0-.861-3.809,6.1,6.1,0,0,0-1.928-2.639,63.24,63.24,0,0,0-7.733-6.162c-.459-.31-.688-.964-1.216-1.744,2.685-.379,4.154,1.32,5.588,1.767a22.079,22.079,0,0,1,4.2-1.388,69.613,69.613,0,0,1,7.263-.264c4.67-.034,9.351-.011,13.666-.011,1.916-4.452,3.8-8.732,5.634-13.046a15.55,15.55,0,0,1,4.555-6.242C746.075,158.712,745.008,157.622,743.585,157.69Z" transform="translate(-462.028 -12.281)" fill="#37385e"/>
        <path id="Trazado_945871" data-name="Trazado 945871" d="M761.9,142.742c-2.146-4.544-4.578-8.961-5.163-14.067-.034-.31-.367-.574-.539-.872-.826-1.526-1.583-3.087-2.478-4.567a30.358,30.358,0,0,0-3.19-4.716c-4.016-4.372-9.133-7.183-14.457-9.638a8.991,8.991,0,0,0-1.962-.4c-.23,1.285.929,2.18-.08,3.373a56.861,56.861,0,0,0-7.963,12.163,4.138,4.138,0,0,0-.138,3.706,13.842,13.842,0,0,1,.929,6.368c-.149,2.455.4,4.957.665,7.665,2.272,0,4.268.023,6.253,0,2.031-.023,4.073-.092,6.678-.149-1.583-3.2-2.869-5.944-4.291-8.617a25.2,25.2,0,0,1-3.052-8,8.781,8.781,0,0,1,.493-5.37c.161-.333.677-.482,1.079-.7a.335.335,0,0,0,.023-.1.932.932,0,0,1,.046-.1c-.011-.367-.1-.792.069-.987a4.821,4.821,0,0,1,4.372-1.526c-1.538,1.2-3.741.62-4.452,2.513,0,.057.011.1.011.161-.023.011-.057.034-.08.046a13.94,13.94,0,0,0-.8,3.35,17.711,17.711,0,0,0,3.568,10.178l4.234,5.955a5.014,5.014,0,0,0,3.408,2.157c2.226.39,4.418.941,6.621,1.469a7.231,7.231,0,0,1,1.423.723c-1.388,1.526-2.513.126-3.637.011-1.285-.138-2.478-.987-4.165-.562.643.792,1.067,1.32,1.5,1.836,1.641,1.916,3.3,3.821,4.922,5.76.585.7,1.641,1.56.585,2.41-1.136.929-1.583-.379-2.1-1.124-.149-.218-.252-.459-.4-.665A34.677,34.677,0,0,0,743.471,144a3.134,3.134,0,0,0,.161,1.56c.356.884.849,1.721,1.147,2.616.115.321-.138.78-.229,1.17a4.124,4.124,0,0,1-1.251-.539c-.287-.275-.333-.792-.5-1.182-.643-1.5-1.3-2.995-1.916-4.429-4.831-.218-9.478-.436-14.239-.643.264,1.8.47,3.224.677,4.681,1.457.229,2.857.333,4.188.677,1.469.379,3.121.562,3.568,2.559.092.413,1.044.769,1.664.918,4.291,1.067,8.606,2.088,12.92,3.109a39.9,39.9,0,0,0,4.337.918,6.7,6.7,0,0,0,5.163-1.239c-1-3.236-1.882-6.506-3.018-9.684a99.337,99.337,0,0,0-3.924-9.65c-1.411-2.949-3.213-5.7-4.131-8.881,1.583,2.387,3.029,4.842,4.395,7.343a49.67,49.67,0,0,1,3.041,6.047c1.606,4.314,2.995,8.72,4.44,13.092a6.651,6.651,0,0,1,.47,2.283c-.023.47-.539,1.285-.895,1.32-2.914.252-5.817,1.285-8.766.184-1.3-.482-2.639-.883-3.947-1.342a47.268,47.268,0,0,0-11.864-2.765c-.126,2.318-.252,4.567-.367,6.8-.08,1.515-.539,2.008-1.859,1.7a58.672,58.672,0,0,0-8.686-1.251c-.62,1.928-2.123,3.511-3.339,4.991a21.586,21.586,0,0,0-.906,1.962c1.067-.2,2.146-.39,3.213-.574,4.2-.688,8.468-1,12.7-1.469a10.021,10.021,0,0,1,2.341-.08c.31.046.585.4.918.734,1.423-.069,2.49,1.021,3.947,1.446a14.726,14.726,0,0,1,6.9-2.96c3.855-.643,7.722-1.3,11.566-2.042a12.026,12.026,0,0,0,5.209-1.813C765.352,153.814,764.411,148.054,761.9,142.742Z" transform="translate(-457.405 -19.535)" fill="#a267a7"/>
        <path id="Trazado_945872" data-name="Trazado 945872" d="M723.919,152.82h-.057a28.322,28.322,0,0,0-3.282,5C721.8,156.343,723.288,154.748,723.919,152.82Z" transform="translate(-457.29 -12.999)" fill="#fff"/>
        <path id="Trazado_945873" data-name="Trazado 945873" d="M732.829,117.39c-.011.034-.034.069-.046.1a.333.333,0,0,0-.023.1.287.287,0,0,0,.08-.046A.813.813,0,0,1,732.829,117.39Z" transform="translate(-455.494 -18.222)" fill="#fff"/>
        <path id="Trazado_945874" data-name="Trazado 945874" d="M527.947,122.5c-1.17,1.354-.918,2.914-.6,4.44.987,4.681,2.214,9.317,2.983,14.021,2.077,12.633,5.611,24.922,8.353,37.394.78,3.557,1.32,7.183,1.928,10.774s1.113,7.183,3.064,10.648c-1.216,0-2.146.034-3.086-.011-7.653-.356-15.306-.608-22.937-1.147a81.442,81.442,0,0,1-9.478-1.641,4.531,4.531,0,0,1-3.729-3.568c-.711-2.685-1.492-5.358-2.215-8.043-1.721-6.38-3.35-12.782-5.152-19.127a108.492,108.492,0,0,1-3.511-21.33c-.436-5.634-.677-11.291-1-16.936-.034-.516,0-1.033,0-1.733a100.4,100.4,0,0,1,37.5-4.773c-.895.436-1.56.757-2.214,1.079Z" transform="translate(-490.903 -17.648)" fill="#f29100"/>
        <path id="Trazado_945875" data-name="Trazado 945875" d="M640.959,143.717c1.813-4.773,3.339-9.673,5.909-14.136a7.121,7.121,0,0,0,.792-1.629,1.453,1.453,0,0,0-1.388-2.008c-1.2-.115-2.421-.023-3.89-.023-1.182-4.544-2.5-8.927-3.442-13.4-.918-4.395-1.457-8.869-2.157-13.264,1.721-.883,3.557.643,4.9-.792-.206-1.56-1.56-.792-2.49-1.388.608-.539,1.182-1.044,1.744-1.549-.069-.161-.126-.321-.195-.482a17.965,17.965,0,0,0-2.226.711,37.942,37.942,0,0,0-11.084,7.252c-1.285,1.274-2.708,2.421-4.108,3.672-4.693-2.593-9.156-1.469-13.884.149.459-.769.861-1.583,1.377-2.306a48.75,48.75,0,0,1,14.251-13.241c2.192-1.342,4.245-2.88,6.54-4.429-.677-.861-1.124-1.446-1.629-2.088.608-1.262,1.859-1.457,2.995-1.778,3.683-1.067,11.371-1.675,13.4-1.056.8-.6-.654-2.547,1.4-2.4,1.951,3.672,5.358,5.037,9.156,5.519a11.036,11.036,0,0,0,6.15-.574,4.164,4.164,0,0,1,2.926.333c3.844,1.629,7.63,3.4,11.428,5.117.31.138.792.31.861.551,1.01,3.718,4.463,5.519,6.563,8.376s4.785,5.29,7.171,7.94c1.274,1.423,2.524,2.88,3.695,4.395.769,1,.7,1.044.551,2.628-2.96-2.9-6.483-2.914-10.132-2.146-2.673-1.939-5.381-3.832-7.974-5.84a3.112,3.112,0,0,1-.964-1.939c-.184-1.377-.069-2.788-.2-4.165a6.781,6.781,0,0,0-2.57-5.026c-.1.126-.31.275-.287.367a51.964,51.964,0,0,1,.08,23.545,16.093,16.093,0,0,0,.241,7.745,4.514,4.514,0,0,1,.011,2.754c-1.17,2.891-1.32,5.921-1.583,8.95-.126,1.457-.333,2.914-.5,4.406A55.194,55.194,0,0,1,660.89,143.8c-4.349-.046-8.709.069-13.058.034-1.641-.011-3.27-.321-4.911-.413a12.27,12.27,0,0,0-2.019.241Z" transform="translate(-473.673 -23.804)" fill="#dddb00"/>
        <path id="Trazado_945876" data-name="Trazado 945876" d="M623.588,151.611a456.555,456.555,0,0,1-1,67.273c-9.856-.952-19.345-1.859-29.064-2.8,0-.608.023-1.193,0-1.767-.206-4.865-.413-9.73-.654-14.6-.161-3.3-.425-6.6-.585-9.9q-.723-15.111-1.4-30.234c-.115-2.582-.011-5.186-.011-7.986C601.581,151.611,612.435,151.611,623.588,151.611Z" transform="translate(-476.416 -13.179)" fill="#9faeb7"/>
        <path id="Trazado_945877" data-name="Trazado 945877" d="M814.048,231.533H809.5a76.3,76.3,0,0,1-4.154-13.172c-1.193-5.783-2.7-11.509-4.05-17.257a96.383,96.383,0,0,1-2.4-21.216c-.069-7.653.011-15.318.011-22.983,0-.769-.092-1.538-.149-2.536-2.065-.149-4.016-.287-5.967-.425-.034.138-.08.275-.115.425,1.365.436,2.731.872,4.257,1.354a8.2,8.2,0,0,1-.436,4.968c-2.972,6.058-3.695,12.644-4.888,19.127a30.912,30.912,0,0,1-.631,3.591c-1.606,5.14-1.067,10.338-.5,15.524q1.015,9.466,2.146,18.932c.62,5.186,1.32,10.35,1.974,15.536a9.851,9.851,0,0,1,0,1.17c-.883.367-1.744.734-2.616,1.09a4.588,4.588,0,0,0-.734.241c-3.3,2.237-7.114,1.641-10.751,1.824-3.786.184-7.6.046-11.44.046-.333-1.147.688-1.492,1.411-1.756,3.672-1.308,7.378-2.536,11.1-3.741,2.065-.665,4.154-1.228,6.23-1.859,1.342-.4,1.629-1.274,1.388-2.616-1.71-9.673-3.431-19.334-5.68-28.9a82.533,82.533,0,0,1-2.157-23.832c.574-9.73.574-19.483.826-29.225.034-1.193.138-2.387.218-3.66,12.644-.906,25.036,1.8,37.532-.023.62,3.259,0,6.15-.47,9.042-1.836,11.371-5.657,22.225-8.881,33.229-.344,1.17-.757,2.318-1.056,3.488a6.269,6.269,0,0,0-.252,2.054c.849,10.223,1.652,20.458,2.639,30.67.287,2.926,1.113,5.794,1.687,8.7C813.739,229.984,813.876,230.65,814.048,231.533Z" transform="translate(-450.153 -14.595)" fill="#e84e1b"/>
        <path id="Trazado_945878" data-name="Trazado 945878" d="M788.48,142.287c1.744-4.854,1.882-9.9,1.595-14.962-.2-3.442-.7-6.873-1.067-10.4-2.306-.229-4.257-.413-6.334-.62-.115.987-.207,1.664-.275,2.341-.287,2.593-.379,5.232-.883,7.779-1.446,7.332-3.029,14.641-4.636,21.95a21.69,21.69,0,0,1-4.142,8.651,10.81,10.81,0,0,1-3.821,3.442,35.885,35.885,0,0,1-7.263,1.859c-3.924.769-7.906,1.285-11.818,2.111a11.75,11.75,0,0,0-8.388,6.827,75.521,75.521,0,0,0-5.129,12.541,8.628,8.628,0,0,1-3.8,5.14c-1.354.838-1.893.769-3.029-.241.941-.6,2.524-.092,2.96-1.641-5.026-.379-9.948-.826-14.893-1.1a32.182,32.182,0,0,0-5.45.39,6.269,6.269,0,0,0-1.7.849,22.138,22.138,0,0,1,1.847,2.134,5.717,5.717,0,0,0,4.819,2.547c5.209.333,10.419.78,15.616,1.228a306.191,306.191,0,0,0,38.117.585,25.909,25.909,0,0,0,3.867-.539,7.46,7.46,0,0,0,6.242-5.576,152.894,152.894,0,0,0,5.691-24.36c.723-5.6,1.916-11.13,2.811-16.706a3.258,3.258,0,0,0-.448-2.111C788.537,143.71,788.159,143.182,788.48,142.287Z" transform="translate(-458.789 -18.381)" fill="#93c01f"/>
        <path id="Trazado_945879" data-name="Trazado 945879" d="M523.33,122.431a3.1,3.1,0,0,1,.746-.229c1.033-.023,2.077-.011,3.408-.011,2.169,4.911,4.406,9.8,6.494,14.744,2.123,5.049,4.1,10.155,6.1,15.249,1.285,3.236,2.662,6.437,3.741,9.742,1.411,4.349,4.165,6.816,8.72,7.516,7.653,1.17,15.272,2.639,23.063,2.582a43.548,43.548,0,0,1,5.462.39c3.465.425,4.59,1.641,4.613,5.083.011,2.6-.161,5.221-.252,7.825-.057,1.56-.2,3.132-.172,4.693.046,2.547.792,3.3,3.27,3.924a20.3,20.3,0,0,1,3.924,1.342,2.277,2.277,0,0,1,1.365,3.121c-.5.069-1.09.172-1.664.218-6.253.4-12.518.677-18.76,1.228a175.644,175.644,0,0,1-27.905.046,5.986,5.986,0,0,1-5.76-4.808c-.918-3.982-1.469-8.043-2.41-12.013-1.836-7.7-3.993-15.318-5.737-23.04-1.8-7.975-3.247-16.029-4.922-24.027-.516-2.467-1.354-4.854-1.939-7.309-.5-2.1-.861-4.245-1.285-6.357C523.41,122.362,523.33,122.431,523.33,122.431Z" transform="translate(-486.367 -17.514)" fill="#e84e1b"/>
        <path id="Trazado_945880" data-name="Trazado 945880" d="M780.1,118.91a13.163,13.163,0,0,1,6.873,2.788,2.338,2.338,0,0,0,.482-2.88c-.975-2.6-2-5.186-3.041-7.757-.643-1.595-1.354-3.178-2.237-5.232a14.708,14.708,0,0,1,6.758,1.469c1.9.987,3.649,2.283,5.519,3.362,2.329,1.354,4.659,2.708,7.068,3.913,4.108,2.065,8.261,4.039,12.438,5.967.918.425,1.641.792,1.859,1.893,1.434,7.332,2.9,14.652,4.349,21.984a9.747,9.747,0,0,1,.092,1.079c-3.328,1.652-6.93,1.5-10.407,1.526-5.909.034-11.818-.344-17.728-.562-2.868-.1-5.737-.241-8.606-.39a15.618,15.618,0,0,1-2.318-.3,1.25,1.25,0,0,1-1.09-1.71c1.974-8.124,1.09-16.247-.115-24.36A3.067,3.067,0,0,1,780.1,118.91Z" transform="translate(-448.532 -19.926)" fill="#b17f49"/>
        <path id="Trazado_945881" data-name="Trazado 945881" d="M750.165,144.932a56.121,56.121,0,0,0-6.494-.551c-5.565.023-11.141.379-16.706.31-27.251-.31-54.491-.8-81.742-1.056-15.754-.149-31.508-.918-47.262.046-4.406.264-8.87-.344-13.459,1.044-.138,1.7-.3,3.545-.482,5.68,3.924.138,7.47.4,11.015.379,28.812-.138,57.634-.39,86.446-.447,9.569-.011,19.139.425,28.708.746,13.218.447,26.436.975,39.654,1.457.746.023,1.492,0,2.387,0v-6.988A12.941,12.941,0,0,0,750.165,144.932Z" transform="translate(-477.42 -14.416)" fill="#373860"/>
        <path id="Trazado_945882" data-name="Trazado 945882" d="M747.162,87.693V87.67a.31.31,0,0,1-.092-.08C747.059,87.6,747.162,87.693,747.162,87.693Z" transform="translate(-453.385 -22.614)" fill="#fff"/>
        <path id="Trazado_945883" data-name="Trazado 945883" d="M774.38,96.88l.069.069c.034-.011.08-.011.126-.023A.97.97,0,0,0,774.38,96.88Z" transform="translate(-449.359 -21.245)" fill="#fff"/>
        <path id="Trazado_945884" data-name="Trazado 945884" d="M775.135,102.157c.08-1.974,1.928-.447,3.213-.815a6.655,6.655,0,0,0-2.432-.413c.666-.08,1.331-.172,2.593-.333-1.813-.8-3.121-1.388-4.429-1.962,1.538-.39,3.006-1.044,4.326.172.023,0,.034-.011.057-.011l-.069-.069c.069.011.126.034.2.046.62-.1,1.251-.218,2.031-.356-1.388-1.446-3.821-.723-5.393-2.8,1.836-.1,3.167-.172,4.509-.241.034-.126.057-.264.08-.39-1.021-.252-2.042-.5-3.167-.792.264-.769.861-.7,1.572-.562,1.239.241,2.49.413,3.729.6,0-.011-.011-.011-.011-.023s-.034-.011-.046-.023h.034c-1.469-3.236-2.926-6.471-4.349-9.65-10.464-.964-20.412,1.021-30.429,1.985v1.629a15.725,15.725,0,0,1,1.813,1.549,190.173,190.173,0,0,1,21.2,28.731c.356.574.757,1.124.975,1.457,3.4.161,6.529.333,9.65.436a15.385,15.385,0,0,0,2.375-.241c2.524.757,4.842,1.457,7.814,2.352-1.813-5.014-3.408-9.386-5-13.769a5.426,5.426,0,0,1-4.039-3.052,4.936,4.936,0,0,0-2.375-1.813c-.746-.344-1.515-.631-2.295-.906-.711-.241-1.423-.482-2.123-.734,0,.034-.012.069-.012.1,0-.046.012-.069.012-.1-.034-.011-.08-.023-.115-.034A.364.364,0,0,0,775.135,102.157Z" transform="translate(-453.373 -23.103)" fill="#fff"/>
        <path id="Trazado_945885" data-name="Trazado 945885" d="M782.37,95.076a4.361,4.361,0,0,1,1.446,1.354c-3.339-.161-6.334-2.042-9.73-1.595,2.846,1.079,5.944,1.583,8.032,4.349-2.375-.562-4.739-1.113-7.114-1.675-.034.011-.08.011-.126.023a9.844,9.844,0,0,0,1.423,1.182c1.285.723,2.639,1.308,3.924,2.031a10.742,10.742,0,0,1,1.583,1.572c-2.811.023-4.865-1.492-7.045-2.249-1.3.367-3.132-1.159-3.213.815,3.224.47,6.506.723,8.961,3.293a5.719,5.719,0,0,0,2.341,1.01c2.708.849,5.439,1.641,8.468,2.547.4-.769.952-1.8,1.515-2.88-1.664-1.228-2.685-2.673-2.169-4.567.379-1.411-.229-2.111-1.228-2.811-3.362-2.352-6.873-4.349-11.107-4.544,0,.011.011.011.011.023C779.685,93.653,781.039,94.33,782.37,95.076Z" transform="translate(-449.776 -21.827)" fill="#eeb170"/>
        <path id="Trazado_945886" data-name="Trazado 945886" d="M777.476,92.943c0-.011-.012-.011-.012-.023h-.034C777.442,92.931,777.453,92.931,777.476,92.943Z" transform="translate(-448.91 -21.829)" fill="#fff"/>
        <path id="Trazado_945887" data-name="Trazado 945887" d="M619.2,119.18c9.11.826,18.3,1.652,27.8,2.513-2.926,6.942-5.634,13.952-9.237,21.009-10.212-.138-20.711-.275-31.7-.413A12.821,12.821,0,0,1,607.3,139.4,70.762,70.762,0,0,0,619.2,119.18Z" transform="translate(-474.171 -17.958)" fill="#b1b1b1"/>
        <path id="Trazado_945888" data-name="Trazado 945888" d="M792.862,81.429a20.1,20.1,0,0,0,1.17-3.006,42.938,42.938,0,0,0,.482-4.383c4.05,1.595,8.078,2.639,11.509,5.335a4.006,4.006,0,0,1-.436,1.239c-2.754,3.3-3.362,7.171-2.788,11.256.516,3.672,1.8,4.888,5.4,5.691a75.342,75.342,0,0,1,5.336,15.811c-1.939-.585-3.488-1.01-5.014-1.538-5.14-1.8-10.269-3.637-15.41-5.462a2.318,2.318,0,0,1-1.595-3.109c.608-2.031-.482-2.869-1.824-3.809a22.172,22.172,0,0,0-10.074-4.073,20.718,20.718,0,0,0-3.855-7.7c-.367-.47-.539-1.09-.9-1.572-.539-.757-1.17-1.457-1.951-2.421,1.056-1.893,3.121-3.087,5.427-4.544v3.2c1.687.574,1.859-1.147,2.846-1.515.287,2.478.47,4.945.906,7.378a15.527,15.527,0,0,0,1.388,3.9c.5,1.033,1.331,1.1,2.054.229a12.036,12.036,0,0,0,1.354-2.214c1.377-2.616,2.719-5.244,4-7.722.757-.482,2.065.528,2.042-1.044C792.954,81.338,792.862,81.429,792.862,81.429Z" transform="translate(-449.574 -24.612)" fill="#b17f49"/>
        <path id="Trazado_945889" data-name="Trazado 945889" d="M747.4,116.388a46.579,46.579,0,0,1,5.072-.815c3.821-.207,7.653-.241,11.474-.333.952-.023,1.916.046,2.868.023,1.515-.034,2.88.229,3.649,1.916,1.733-1.228,3.4-1.595,5.427-.333-1.1,6.494-2.111,13.1-3.362,19.655-.792,4.177-1.928,8.3-2.926,12.438a19.521,19.521,0,0,1-4.888,8.95c-.7-2.742-1.354-5.026-1.87-7.343a44.571,44.571,0,0,0-5.278-13.276c-1.434-2.375-2.49-4.968-3.718-7.47a1.388,1.388,0,0,1-.184-.482c-.379-4.854-3.1-8.525-6.058-12.094A4.228,4.228,0,0,1,747.4,116.388Z" transform="translate(-453.336 -18.539)" fill="#dddb00"/>
        <path id="Trazado_945890" data-name="Trazado 945890" d="M789.22,111.36c.62-1.48,1.159-2.742,1.813-4.291,8.468,2.214,16.385,6,25.117,8.525-.3-.769-.459-1.285-.688-1.778-2.432-5.2-5.049-10.315-7.229-15.6-1.124-2.731-2.077-5.5-3.821-7.917-.23-.321-.5-.62-.975-1.182-.723,2.065,1.423,3.109.987,4.876a3.083,3.083,0,0,1-1.813-1.951c-1.779-3.568-1.262-7.091.3-10.556.218-.482.826-.815,1.308-1.136.252-.172.665-.115.918-.287a3.184,3.184,0,0,0,.6-.769c.344.172.666.218.78.39,1.342,2.065,2.742,4.1,3.959,6.242,1.2,2.111,2.237,4.314,3.293,6.517a314.032,314.032,0,0,1,12.277,29.6c.769,2.157.218,3.224-2.157,3.155a38.141,38.141,0,0,1-7.963-1.1,33.914,33.914,0,0,1-6.793-2.616C802.507,118.21,795.967,114.8,789.22,111.36Z" transform="translate(-447.172 -23.838)" fill="#fcea0d"/>
        <path id="Trazado_945891" data-name="Trazado 945891" d="M675.708,214.168c-1.3-1.216-3.3.826-4.418-1.377.482-1.469,1.193-3.064.379-4.831-.2-.436.138-1.17.344-1.71,2.409-6.15,4.865-12.277,7.275-18.427.5-1.285.9-2.628,1.3-3.959.47-1.572.929-3.155,1.342-4.75s.975-3.167.184-4.831a1.53,1.53,0,0,1,.608-2.054c3.247-2.18,6.575-4.177,10.51-4.831.172.2.344.39.516.574a13.946,13.946,0,0,0-2.272,1.664c-2.914,3.144-2.777,6.609.229,9.7,1.457,1.492,2.88,3.018,4.211,4.624a2.521,2.521,0,0,1,.413,1.847,9.278,9.278,0,0,1-3.316,5.163,57.718,57.718,0,0,0-4.808,5.095,10.6,10.6,0,0,0-1.251,2.559,16.822,16.822,0,0,1-3.018,4.463c-2.547,2.811-4.854,5.84-7.206,8.835A10.586,10.586,0,0,0,675.708,214.168Z" transform="translate(-464.556 -10.85)" fill="#37385e"/>
        <path id="Trazado_945892" data-name="Trazado 945892" d="M646.09,61.764c-.746.149-1.216.252-1.928.39-1.308-2.846-1.079-5.749-.425-8.892a4.147,4.147,0,0,1,2.318,3.213c.287,1.3.333,1.285,2.123,1.951,1.044-1.56,2.719-2.857,1.882-5.553a19.04,19.04,0,0,1,2.318.241c1.342.333,2.651.884,4,1.113,3.546.6,5.588-.149,8.124-2.742a36.078,36.078,0,0,1,4.36-.413,9.214,9.214,0,0,1,2.536.8,20.968,20.968,0,0,1-1.675,7.08c-1.721,4.165-3.741,8.193-4.693,12.667a5.167,5.167,0,0,1-2.192,3.052,73.928,73.928,0,0,1-8.594,4.268,3.735,3.735,0,0,1-4.659-1.262c-2.926-3.741-4.98-7.722-3.821-12.7A27.623,27.623,0,0,0,646.09,61.764Zm12.163-2.513c-2.237.184-2.662.757-1.492,2.673.539-1.033.975-1.882,1.4-2.742.608.149,1.2.287,2.352.562-1.182-1.388-2.077-1.985-3.591-1.583C657.472,58.609,657.862,58.93,658.252,59.251Zm-1.744,15.41c.287-.2.574-.39,1.056-.711-2.077-1.044-3.855-1.939-5.726-2.891-.436,2.042-.287,3.591,1.457,4.532,1.136.62,2.042.31,3.282-.987C656.589,74.615,656.508,74.661,656.508,74.661Zm4.7-3.97a13.761,13.761,0,0,1-3.752-.562,11.368,11.368,0,0,1-2.559-2.283,1.094,1.094,0,0,0-.172,1.847c.906.757,1.951,1.778,3.006,1.87,4.36.367,4.773.241,4.222-4.2a27.442,27.442,0,0,1,.092-4.337c.023-.459.115-.918.172-1.365C660.49,64.4,661.431,67.467,661.213,70.691Zm3.3-5.771c.252.092.516.184.769.264.608-1.056,1.216-2.1,1.836-3.178a1.8,1.8,0,0,0-2.192-.964C664.77,62.464,664.643,63.692,664.517,64.919Z" transform="translate(-468.695 -27.998)" fill="#f4c172"/>
        <path id="Trazado_945893" data-name="Trazado 945893" d="M541.36,150.649c-.379-2.157-.792-4.429-1.17-6.586,16.511-1.629,32.782-.688,49.247.344-.2,2.272-.39,4.383-.585,6.678-8-.149-15.869-.344-23.751-.413C557.286,150.592,549.484,150.649,541.36,150.649Z" transform="translate(-483.881 -14.419)" fill="#8889aa"/>
        <path id="Trazado_945894" data-name="Trazado 945894" d="M776.322,70.4c-3.385-1.572-5.255-4.245-6.162-8.238,1.71-.092,3.052-.161,4.222-.218.551.861.872,1.79,1.515,2.226.459.31,1.365-.023,2.651-.115-1.2-.574-1.8-.861-2.731-1.308q1.05-2.926,2.065-5.726c1.515.356,1.388,1.354,1.457,2.306.229,2.88.62,3.236,3.568,3.087a20.746,20.746,0,0,0,3.867-.5c.585-.138,1.492-.757,1.492-1.159a27.156,27.156,0,0,0-.459-5.37c-.069-.4-1.113-.884-1.7-.872-2.467.08-5-.482-7.366.906a2.211,2.211,0,0,1-2.582-.333c-1-.746-2.57-.757-3.9-1.01-.734-.138-1.434-.149-1.1-1.388.585-.057,1.228-.138,2.341-.252-.987-.608-1.641-1.01-2.272-1.4-.218-5.462,2.283-6.1,6.437-4.739,2.892.952,5.806,1.79,8.147,3.924a14.183,14.183,0,0,1,4.44,6.621c.31,1.1.6,2.237,2.26,2.364.516-.62,1.09-1.354,1.721-2.031.711-.769,1.618-1.721,2.639-1.067.585.367.643,1.549,1,2.536a11.584,11.584,0,0,0-2.754-.333c-.883.149-1.767,1.7-2.628,3.993,1.916-.31,1.916-.31,2.432-2.524l1.331,1.847c-.115.849-1.859,2.433-2.914,2.754-1.446.436-1.274-1-1.847-1.595-.1.207-.252.356-.252.516-.333,5.726-4.532,7.871-9.065,9.489-2.88,1.033-4.727.057-5.932-2.478,1.216-.034,2.432-.023,3.649-.115,2.662-.207,3.259-1.079,2.834-3.878-2.432.39-4.876.78-7.366,1.182C775.645,68.388,775.977,69.386,776.322,70.4Zm10.751-17.567c-1.939-1.951-3.97-1.331-5.84-1.308-.883.011-1.687.275-1.721,1.893C781.932,52.668,784.285,53.735,787.073,52.829Z" transform="translate(-449.981 -28.793)" fill="#eeb170"/>
        <path id="Trazado_945895" data-name="Trazado 945895" d="M652.8,53.691c-.367-1.388-.654-2.455-.918-3.477-2.788.126-3.236.034-3.442-1.423-.287-2.019-.987-4.2,1.1-5.863a3.052,3.052,0,0,0,1.308-2.708,1.418,1.418,0,0,1,.792-1.136c2.708-.574,5.427-1.021,8.147-1.515,2.869,1.56,6.781,1.583,7.963,5.531.861.126,1.641.2,2.387.379.493.115,1.32.344,1.354.62.321,2.2,2.547,2.433,3.695,3.764.057.057.069.161.161.4-.424,1.113-2.869,1.159-1.5,3.431-3.247,0-5.989.034-8.732-.034-.4-.011-.838-.482-1.193-.8-.424-.379-.78-.826-1.274-1.354-.344.413-.734.677-.723.918.034,2.295-1.606,3.018-3.362,3.236A48.133,48.133,0,0,1,652.8,53.691Z" transform="translate(-467.975 -29.988)" fill="#b17f49"/>
        <path id="Trazado_945896" data-name="Trazado 945896" d="M733.766,211.587c.711,1.308,1.228,2.272,1.939,3.591-1.262.31-2.214.608-3.2.769a21.9,21.9,0,0,1-3.121.275c-9.547.126-19.024,2.008-28.616,1.147-2.318-.207-4.693-.126-6.816-1.182a1.153,1.153,0,0,1,.7-1.733,9.169,9.169,0,0,1,2-.539q7.057-1.17,14.136-2.295a8.558,8.558,0,0,0,5.5-3.637,9.352,9.352,0,0,1,.872-1.285,1.9,1.9,0,0,1,2.41-.057c.792.436.665,1.113.4,1.813-.172.47-.3.952-.436,1.423C724.174,211.576,728.672,213.217,733.766,211.587Z" transform="translate(-461.239 -5.124)" fill="#1d70b7"/>
        <path id="Trazado_945897" data-name="Trazado 945897" d="M674.373,204a19.987,19.987,0,0,1-.448,2.364,2.06,2.06,0,0,0,1.216,2.777c1.308.585,2.719.964,4.635,1.618.723,1.147,1.79,2.823,2.788,4.406a3.443,3.443,0,0,1-3.178,1.583c-1.3.057-2.6-.161-3.9-.115-3.27.1-6.54.275-9.81.425a16.332,16.332,0,0,1-2.582.115c-4.567-.574-9.122-1.216-13.677-1.859a17.165,17.165,0,0,1-2.306-.677c1.147-1.538,2.432-1.423,3.695-1.457a72.33,72.33,0,0,0,9.868-.459,19.969,19.969,0,0,0,10.74-5.473,22.057,22.057,0,0,0,2.364-3.362C673.971,203.924,674.166,203.959,674.373,204Z" transform="translate(-468.12 -5.471)" fill="#1d70b7"/>
        <path id="Trazado_945898" data-name="Trazado 945898" d="M517.417,197.1h6.058a3.474,3.474,0,0,1,.069.906c-2.6,9.982-5.29,19.953-7.814,29.947-1,3.947-1.652,7.986-2.478,11.979-.138.654-.356,1.285-.551,2-1.778-.218-1.423-1.411-1.3-2.352.436-3.27.975-6.529,1.423-9.8q1.549-11.222,3.029-22.443c.379-2.834.723-5.68,1.113-8.525A11.714,11.714,0,0,1,517.417,197.1Z" transform="translate(-488.142 -6.471)" fill="#c99d66"/>
        <path id="Trazado_945899" data-name="Trazado 945899" d="M548.5,193.276c.275.964.631,2.192,1.033,3.546-1.159,0-2.191.034-3.224,0q-14.492-.551-28.961-1.113c-1.193-.046-2.754.3-3.488-.321-.952-.8-1.251-2.4-1.813-3.649-.138-.31-.229-.631-.413-1.159a7.924,7.924,0,0,1,1.32-.057c8.124,1.239,16.316,1.09,24.5,1.136C541.061,191.681,544.744,191.28,548.5,193.276Z" transform="translate(-488.091 -7.444)" fill="#b17f49"/>
        <path id="Trazado_945900" data-name="Trazado 945900" d="M548.63,197.98h5.749c-.711,3.947-2.41,7.493-3.018,11.291-.62,3.867-1.147,7.734-1.7,11.612s-1.113,7.745-1.641,11.623S547,240.239,546.485,244.2c-1.1.31-1.813.08-1.951-1.033a9.72,9.72,0,0,1,.08-2.077c.8-8.4,1.652-16.787,2.41-25.2.436-4.934.711-9.891,1.09-14.836A24.943,24.943,0,0,1,548.63,197.98Z" transform="translate(-483.246 -6.342)" fill="#c99d66"/>
        <path id="Trazado_945901" data-name="Trazado 945901" d="M546.215,196.649c-.3-1.354-.562-2.559-.895-4.039h34.514a12,12,0,0,1,.218,1.859,1.928,1.928,0,0,1-2.077,2.134c-1.56.057-3.132.31-4.693.321-7.757.011-15.5-.034-23.258-.08C548.831,196.832,547.615,196.718,546.215,196.649Z" transform="translate(-483.125 -7.133)" fill="#925f36"/>
        <path id="Trazado_945902" data-name="Trazado 945902" d="M637.306,135.42a4.086,4.086,0,0,0,3.3,2.662,72.63,72.63,0,0,0,8.72,1.411c3.029.252,6.093.046,9.133.126a20.361,20.361,0,0,0,7.94-1.239,20.5,20.5,0,0,1,2.272-.562c-.1,1.9-.184,3.58-.3,5.565-11.612-.229-22.983-.459-34.7-.688,1.3-2.524,2.5-4.876,3.706-7.217Z" transform="translate(-470.1 -15.564)" fill="#1d70b7"/>
        <path id="Trazado_945903" data-name="Trazado 945903" d="M675.481,111.98c3.442.516,5.68,2.754,7.355,5.829-.849,1.87-2.593,2.582-4.108,3.534a12.387,12.387,0,0,0-4.44,3.855c-.792,1.274-2.57,1.985-3.981,2.811-1.1.643-2.306,1.079-4.016,1.859.367-1.813.631-3.064.872-4.314s.436-2.536.734-3.786a4.494,4.494,0,0,1,.8-1.836c1.515-1.79,3.132-3.488,4.67-5.255C674.093,113.862,674.724,112.955,675.481,111.98Z" transform="translate(-465.293 -19.019)" fill="#f4c172"/>
        <path id="Trazado_945904" data-name="Trazado 945904" d="M564.04,198.05c.723-.069,1.136-.138,1.549-.149,1.652-.011,3.293,0,4.9,0,2.6,6.368,7.734,28.169,7.4,32.827a28.219,28.219,0,0,1-1.331-2.5c-2.077-5.163-4.188-10.3-6.127-15.524a63.824,63.824,0,0,0-5.14-11.681A23.654,23.654,0,0,1,564.04,198.05Z" transform="translate(-480.366 -6.354)" fill="#c99d66"/>
        <path id="Trazado_945905" data-name="Trazado 945905" d="M759.06,189.939c2.019-.252,4.05-.5,6.23-.769,1.583,10.946,3.144,21.709,4.785,33.022C767.287,218.188,759.381,194.735,759.06,189.939Z" transform="translate(-451.618 -7.64)" fill="#c99d66"/>
        <path id="Trazado_945906" data-name="Trazado 945906" d="M612.87,108.654c3.064-2.4,6.357-2.651,9.787-1.939.574.115,1.09.792,1.515,1.308,2.914,3.568,5.806,7.16,8.709,10.728.654.8,1.354,1.549,2.421,2.777a45.244,45.244,0,0,0-4.6-.4c-1.641.023-2.6-.918-3.786-1.87-4-3.2-8.17-6.2-12.277-9.271C614.086,109.572,613.547,109.159,612.87,108.654Z" transform="translate(-473.167 -19.847)" fill="#f4c172"/>
        <path id="Trazado_945907" data-name="Trazado 945907" d="M791.7,57.755c-4.154-8.33-10.832-11.83-19.506-11.876-.057-.149-.126-.229-.115-.3.344-4.578,1.687-5.749,6.242-5.163,4.876.62,8.514,3.293,11.268,7.252a22.718,22.718,0,0,1,1.733,3.213A8.225,8.225,0,0,1,791.7,57.755Z" transform="translate(-449.698 -29.589)" fill="#fff"/>
        <path id="Trazado_945908" data-name="Trazado 945908" d="M811.965,221.321c.562,1.618,1.067,3.075,1.687,4.865-9.087.941-17.923.344-26.792.459a70.244,70.244,0,0,1,12.071-3.924C803.13,221.642,807.341,220.793,811.965,221.321Z" transform="translate(-447.52 -2.925)" fill="#e84e1b"/>
        <path id="Trazado_945909" data-name="Trazado 945909" d="M656.3,77.132c-.172,2.444-.918,5.072,1.239,7.538-5.072.941-9.283.1-13.172-2.937a15.959,15.959,0,0,0,1.916-8.043c1.538,1.285,2.788,2.949,4.418,3.523C652.287,77.775,654.261,77.213,656.3,77.132Z" transform="translate(-468.524 -24.663)" fill="#f4c172"/>
        <path id="Trazado_945910" data-name="Trazado 945910" d="M540.18,197.57c.872.069,1.618.138,2.5.218-.367,12.53-5.06,23.981-7.642,35.868C536.428,221.689,537.266,209.664,540.18,197.57Z" transform="translate(-484.64 -6.402)" fill="#c99d66"/>
        <path id="Trazado_945911" data-name="Trazado 945911" d="M771.131,185.06c-.413,2.249-1.951,3.018-3.764,3.155a100.1,100.1,0,0,1-10.155.482c-6.357-.126-12.7-.482-19.047-.78-1.744-.08-1.744-.149-1.652-2.031A229.774,229.774,0,0,0,771.131,185.06Z" transform="translate(-454.946 -8.246)" fill="#925f36"/>
        <path id="Trazado_945912" data-name="Trazado 945912" d="M701.194,137.2c1.423,2.524,1.423,2.524,3.454,1.7a6.208,6.208,0,0,1-1.124-1.629c-.138-.47.2-1.067.321-1.606-1.4-.275-2.7-.539-3.97-.8.034-1.251.1-2.054,1.446-1.859,1.193.184,2.409.2,3.89.3.379,1.652.757,3.35,1.2,5.313,1.331-1.193.333-2.352.643-3.786,1.021,1.01,1.882,1.847,2.7,2.651-1.021,3.029-1.4,3.282-4.429,3.523a21.942,21.942,0,0,0-2.524.528c-2.272.459-3.362-.011-4.75-2.065C699.209,137.3,699.209,137.3,701.194,137.2Z" transform="translate(-460.611 -15.924)" fill="#e8bb72"/>
        <path id="Trazado_945913" data-name="Trazado 945913" d="M636.729,141.938H605.06v-1.721h2.651c4.085-.011,8.158-.092,12.243-.034,5.129.08,10.258.264,15.387.413C636.075,140.63,636.763,140.756,636.729,141.938Z" transform="translate(-474.319 -14.865)" fill="#868686"/>
        <path id="Trazado_945914" data-name="Trazado 945914" d="M783.093,90.441A29.565,29.565,0,0,1,781.6,77.922c.3,1.274.585,2.547.861,3.729,1.824.321,2.352-.849,3.041-1.836a6.162,6.162,0,0,1,1.664-1.882,2.077,2.077,0,0,1,1.813.31,1.641,1.641,0,0,1,.241,1.56c-1.778,3.637-3.66,7.217-5.508,10.82C783.506,90.567,783.3,90.5,783.093,90.441Z" transform="translate(-448.319 -24.054)" fill="#fcea0d"/>
        <path id="Trazado_945915" data-name="Trazado 945915" d="M684.411,199.12c-.275,4.372-.516,8.112-.769,12.082-1.7,0-3.247.057-4.785-.011s-2.226-.964-1.8-2.421a4.9,4.9,0,0,1,1.147-2,19.763,19.763,0,0,0,4.7-6.162C683.091,200.2,683.585,199.923,684.411,199.12Z" transform="translate(-463.724 -6.174)" fill="#71808d"/>
        <path id="Trazado_945916" data-name="Trazado 945916" d="M783.829,80.034c-.379-3.144-.757-6.242-1.159-9.535,1.652-1.239,3.488-2.616,5.485-4.119.287,2.1.608,3.936.769,5.794a3.026,3.026,0,0,1-.539,1.87C786.938,76.076,785.389,78.015,783.829,80.034Z" transform="translate(-448.137 -25.741)" fill="#eeb170"/>
        <path id="Trazado_945917" data-name="Trazado 945917" d="M710.58,141.575c.815-.4,1.618-.849,2.456-1.193,2.088-.838,4.188-1.641,6.3-2.444s5.84.1,7.148,1.859a6.363,6.363,0,0,1,.528,2.26H710.695C710.649,141.9,710.615,141.736,710.58,141.575Z" transform="translate(-458.764 -15.236)" fill="#e8bb72"/>
        <path id="Trazado_945918" data-name="Trazado 945918" d="M714.86,183.33c7.814.918,15.329,1.79,22.971,2.685v2.26c-5.473-.7-10.728-1.342-15.972-2.042-1.549-.207-3.064-.62-4.613-.826A2.5,2.5,0,0,1,714.86,183.33Z" transform="translate(-458.133 -8.501)" fill="#c99d66"/>
        <path id="Trazado_945919" data-name="Trazado 945919" d="M722,121.143c.448-.482.9-.975,1.457-1.583.229.7.379,1.17.551,1.721.252-.2.551-.3.608-.482a25.637,25.637,0,0,1,4.452-8.445c1.79-2.146,2.226-4.831,2.364-8.124,1.342,1.01,2.318,1.733,3.293,2.467-1.893,2.49-1.893,2.49-1.48,4.406-3.11,3.959-6.093,7.768-9.076,11.566-.539-.379-1.388-.964-2.237-1.56C721.953,121.085,722,121.143,722,121.143Z" transform="translate(-457.091 -20.161)" fill="#fcea0d"/>
        <path id="Trazado_945920" data-name="Trazado 945920" d="M606,139.991a2.59,2.59,0,0,1,.184.631,8.953,8.953,0,0,1-.126,1.239,99.577,99.577,0,0,1-19.334-.4c.62-.47.929-.861,1.32-.975a9.793,9.793,0,0,1,2.547-.482C595.7,139.968,600.822,139.991,606,139.991Z" transform="translate(-477.022 -14.891)" fill="#d9d9d9"/>
        <path id="Trazado_945921" data-name="Trazado 945921" d="M769.51,54.05h5.749c.1,1.675.2,3.167.31,4.922-2.111.207-3.947.379-6.058.585Z" transform="translate(-450.077 -27.559)" fill="#fff"/>
        <path id="Trazado_945922" data-name="Trazado 945922" d="M778.87,54.5h6.873v3.913c-1.595,1.021-3.488.654-5.232.918-.39.057-1.2-.7-1.331-1.2A24.51,24.51,0,0,1,778.87,54.5Z" transform="translate(-448.697 -27.492)" fill="#fff"/>
        <path id="Trazado_945923" data-name="Trazado 945923" d="M621.4,105.385c-4.177.057-7.63,1.974-11.015,4.28-.482-2.616-.149-3.741,1.549-4.28C615.022,104.41,618.188,103.985,621.4,105.385Z" transform="translate(-473.563 -20.124)" fill="#93c01f"/>
        <path id="Trazado_945924" data-name="Trazado 945924" d="M683.679,116.259c-.47-.057-1.113.069-1.388-.184-3.683-3.4-3.672-3.408-7.94-4.658a1.965,1.965,0,0,1,2.5-1.526,13.8,13.8,0,0,1,4.211,1.824,21.639,21.639,0,0,1,3.052,3.1c-.207.585-.367,1.067-.528,1.538Z" transform="translate(-464.105 -19.339)" fill="#93c01f"/>
        <path id="Trazado_945925" data-name="Trazado 945925" d="M647.359,49.43c1.56.493,2.823.895,4.544,1.446a15.283,15.283,0,0,0-2.49,1.388c-.379.344-.8,1.09-.677,1.48.585,1.71-.562,2.26-1.7,3.109C645.214,54.1,647.221,51.874,647.359,49.43Z" transform="translate(-468.243 -28.24)" fill="#c99d66"/>
        <path id="Trazado_945926" data-name="Trazado 945926" d="M663.192,136.952c-6.162,1.538-12.3,1.1-18.462.069,3.029-.861,6.081-.034,9.122-.057C656.973,136.929,660.082,136.952,663.192,136.952Z" transform="translate(-468.471 -15.386)" fill="#2d2e82"/>
        <path id="Trazado_945927" data-name="Trazado 945927" d="M694.26,135.635c1.836-2.467,3.35-4.509,4.945-6.655.975.849,1.5,1.365.987,2.593C699.194,133.971,697.966,135.853,694.26,135.635Z" transform="translate(-461.17 -16.513)" fill="#e8bb72"/>
        <path id="Trazado_945928" data-name="Trazado 945928" d="M686.175,111.7c.5,1.285,0,2.157-1.262,2.926-1.2-3.029-3.8-4.314-6.712-5.324,2.6-1.193,4.831-.47,8.02,2.467C686.232,111.756,686.175,111.7,686.175,111.7Z" transform="translate(-463.537 -19.495)" fill="#93c01f"/>
        <path id="Trazado_945929" data-name="Trazado 945929" d="M781.749,76.647c-.952,1.2-1.916,2.4-2.869,3.6.356-2.318.723-4.567,2.892-6.54.229,1.274.379,2.146.539,3.018C782.116,76.693,781.932,76.67,781.749,76.647Z" transform="translate(-448.696 -24.66)" fill="#fcea0d"/>
        <path id="Trazado_945930" data-name="Trazado 945930" d="M706.582,124.77c-1,2.765-3.236,4.636-5.232,6.689A25.953,25.953,0,0,1,706.582,124.77Z" transform="translate(-460.125 -17.134)" fill="#fff"/>
        <path id="Trazado_945931" data-name="Trazado 945931" d="M695.39,140.551c1.01-1.675,2.019-3.35,3.2-5.3C698.718,137.074,698.1,138.141,695.39,140.551Z" transform="translate(-461.003 -15.589)" fill="#fff"/>
        <path id="Trazado_945932" data-name="Trazado 945932" d="M612.676,127.788c-1.021,1.9-2.031,3.821-3.052,5.726-.2-.1-.379-.207-.574-.31l3.236-5.714C612.423,127.593,612.55,127.7,612.676,127.788Z" transform="translate(-473.731 -16.733)" fill="#c6c6c5"/>
        <path id="Trazado_945933" data-name="Trazado 945933" d="M702.77,142.367c1.251-.929,2.524-1.7,4.257-.3C705.409,142.941,704.078,142.39,702.77,142.367Z" transform="translate(-459.915 -14.697)" fill="#e8bb72"/>
        <path id="Trazado_945934" data-name="Trazado 945934" d="M614.04,124.143c.585-1.538,1.182-3.075,1.767-4.613.172.069.344.149.516.218a12.509,12.509,0,0,1-2.088,4.567C614.166,124.257,614.109,124.2,614.04,124.143Z" transform="translate(-472.995 -17.906)" fill="#c6c6c5"/>
        <path id="Trazado_945935" data-name="Trazado 945935" d="M713.72,117.394c.6-.631.987-1.056,1.549-1.664a7.779,7.779,0,0,1,.654,1.733c.034.3-.344.654-.539.975C714.867,118.117,714.351,117.8,713.72,117.394Z" transform="translate(-458.301 -18.466)" fill="#e95654"/>
        <path id="Trazado_945936" data-name="Trazado 945936" d="M709.809,140.607c-.275.4-.734.769-.78,1.193-.161,1.423-1.033.665-1.939.861.78-1.285,1.182-2.49,2.788-2Z" transform="translate(-459.279 -14.807)" fill="#e8bb72"/>
        <path id="Trazado_945937" data-name="Trazado 945937" d="M711.09,116.152c.941-.241,1.882-.493,3.041-.792-1.124,1.71-1.124,1.71-2.972,1.388C711.136,116.542,711.113,116.347,711.09,116.152Z" transform="translate(-458.689 -18.521)" fill="#e95654"/>
        <path id="Trazado_945938" data-name="Trazado 945938" d="M709.6,140.99c-.149-.7-.3-1.388-.551-2.57,1.044.6,1.629.941,2.467,1.423-.849.459-1.423.757-1.985,1.079C709.521,140.921,709.6,140.99,709.6,140.99Z" transform="translate(-458.99 -15.122)" fill="#e8bb72"/>
        <path id="Trazado_945939" data-name="Trazado 945939" d="M614.377,123.724c-.4.987-.792,1.985-1.193,2.972a3.13,3.13,0,0,1,1-3.155C614.251,123.609,614.308,123.666,614.377,123.724Z" transform="translate(-473.137 -17.315)" fill="#c6c6c5"/>
        <path id="Trazado_945940" data-name="Trazado 945940" d="M620.074,103.6c-1.079-.184-2.146-.356-3.224-.539l.034-.379c1.079.126,2.169.241,3.247.367C620.12,103.242,620.1,103.426,620.074,103.6Z" transform="translate(-472.581 -20.39)" fill="#93c01f"/>
        <path id="Trazado_945941" data-name="Trazado 945941" d="M693.93,136.35h2.295C695.548,137.337,695.548,137.337,693.93,136.35Z" transform="translate(-461.218 -15.427)" fill="#e8bb72"/>
        <path id="Trazado_945942" data-name="Trazado 945942" d="M656.5,81.4c.172.539.344,1.079.528,1.618-.172.057-.356.1-.528.161-.149-.551-.3-1.09-.459-1.641C656.189,81.492,656.338,81.446,656.5,81.4Z" transform="translate(-466.804 -23.527)" fill="#fff"/>
        <path id="Trazado_945943" data-name="Trazado 945943" d="M732.827,117.877c.011-.39-.138-.929.069-1.147a4.821,4.821,0,0,1,4.372-1.526c-1.572,1.228-3.844.585-4.5,2.616Z" transform="translate(-455.493 -18.548)" fill="#311d47"/>
        <path id="Trazado_945944" data-name="Trazado 945944" d="M778.275,93c1.365.711,2.731,1.411,4.073,2.157a4.361,4.361,0,0,1,1.446,1.354c-3.339-.161-6.334-2.042-9.73-1.595C776.91,96,780.008,96.5,782.1,99.265l-7.309-1.721.023.08c.677-.115,1.354-.229,2.2-.379-1.388-1.446-3.821-.723-5.393-2.8,1.836-.1,3.167-.172,4.509-.241.023-.126.057-.264.08-.39-1.021-.252-2.042-.5-3.167-.792.264-.769.861-.7,1.572-.562,1.239.241,2.49.413,3.729.6C778.332,93.046,778.275,93,778.275,93Z" transform="translate(-449.766 -21.909)" fill="#311d47"/>
        <path id="Trazado_945945" data-name="Trazado 945945" d="M774.957,97.03a.29.29,0,0,0-.023-.08,10.061,10.061,0,0,0,1.492,1.239c1.285.723,2.639,1.308,3.924,2.031a10.735,10.735,0,0,1,1.583,1.572c-3.809.023-6.242-2.788-9.478-2.651.666-.08,1.331-.172,2.593-.333-1.813-.8-3.121-1.388-4.429-1.962C772.169,96.468,773.638,95.814,774.957,97.03Z" transform="translate(-449.913 -21.326)" fill="#311d47"/>
        <path id="Trazado_945946" data-name="Trazado 945946" d="M659.79,69.33c.218-3.224-.723-6.288,1-9.03-.057.459-.149.906-.172,1.365A27.457,27.457,0,0,0,660.524,66c.539,4.44.126,4.567-4.222,4.2-1.056-.092-2.088-1.113-3.006-1.87a1.094,1.094,0,0,1,.172-1.847,11.367,11.367,0,0,0,2.559,2.283A13.849,13.849,0,0,0,659.79,69.33Z" transform="translate(-467.272 -26.637)" fill="#311d47"/>
        <path id="Trazado_945947" data-name="Trazado 945947" d="M655.506,72.046c-1.239,1.285-2.146,1.595-3.282.987-1.744-.941-1.9-2.49-1.457-4.532,1.882.952,3.66,1.847,5.726,2.891-.482.321-.769.516-1.067.711-1.308-.838-2.6-1.687-4.142-2.673.207,2.364.516,2.788,1.916,2.811A22.322,22.322,0,0,0,655.506,72.046Z" transform="translate(-467.612 -25.428)" fill="#311d47"/>
        <path id="Trazado_945948" data-name="Trazado 945948" d="M661.78,63.648c.126-1.228.264-2.455.413-3.878a1.8,1.8,0,0,1,2.192.964c-.62,1.079-1.228,2.123-1.836,3.178C662.285,63.832,662.033,63.74,661.78,63.648Z" transform="translate(-465.958 -26.727)" fill="#f4c172"/>
        <path id="Trazado_945949" data-name="Trazado 945949" d="M656.513,58.15c-.436.849-.884,1.7-1.411,2.731-1.17-1.916-.746-2.49,1.492-2.673Z" transform="translate(-467.036 -26.954)" fill="#311d47"/>
        <path id="Trazado_945950" data-name="Trazado 945950" d="M656.513,58.15c-.436.849-.884,1.7-1.411,2.731-1.17-1.916-.746-2.49,1.492-2.673Z" transform="translate(-460.036 -24.438)" fill="#311d47"/>
        <path id="Trazado_945951" data-name="Trazado 945951" d="M656.491,58.355c-.39-.321-.78-.631-1.331-1.09,1.515-.39,2.409.2,3.591,1.583-1.136-.275-1.744-.425-2.341-.562C656.411,58.3,656.491,58.355,656.491,58.355Z" transform="translate(-466.933 -27.102)" fill="#311d47"/>
        <path id="Trazado_945952" data-name="Trazado 945952" d="M656.491,58.355c-.39-.321-.78-.631-1.331-1.09,1.515-.39,2.409.2,3.591,1.583-1.136-.275-1.744-.425-2.341-.562C656.411,58.3,656.491,58.355,656.491,58.355Z" transform="translate(-459.933 -24.586)" fill="#311d47"/>
        <path id="Trazado_945953" data-name="Trazado 945953" d="M775.654,67.74c-.333-1-.666-2-.964-2.869,2.49-.4,4.934-.792,7.366-1.182.424,2.8-.172,3.66-2.834,3.878-1.216.092-2.433.08-3.649.115C775.574,67.672,775.654,67.74,775.654,67.74Zm5.817-3.327c-1.951.413-3.695.792-5.955,1.274.8.574,1.1.975,1.423.987a30.557,30.557,0,0,0,3.075-.057C781.276,66.547,781.437,65.7,781.471,64.413Z" transform="translate(-449.314 -26.138)" fill="#311d47"/>
        <path id="Trazado_945954" data-name="Trazado 945954" d="M785.872,52.092c-2.777.906-5.14-.149-7.561.6.034-1.618.838-1.882,1.721-1.893C781.9,50.761,783.932,50.141,785.872,52.092Z" transform="translate(-448.78 -28.056)" fill="#311d47"/>
        <path id="Trazado_945955" data-name="Trazado 945955" d="M655.413,71.926a22.328,22.328,0,0,1-2.306.2c-1.4-.023-1.71-.448-1.916-2.811,1.538,1,2.834,1.836,4.142,2.673C655.332,71.972,655.413,71.926,655.413,71.926Z" transform="translate(-467.519 -25.309)" fill="#fff"/>
        <path id="Trazado_945956" data-name="Trazado 945956" d="M781.364,64.32c-.034,1.285-.2,2.134-1.446,2.2a27.505,27.505,0,0,1-3.075.057c-.321-.023-.62-.413-1.423-.987C777.657,65.112,779.413,64.745,781.364,64.32Z" transform="translate(-449.206 -26.045)" fill="#fff"/>
        <path id="Trazado_945957" data-name="Trazado 945957" d="M244.836,95.111c-.239-.425-1.165-1.7-1.165-1.7l.2-1.306.438-2.427v-1.7l-.637-1.555-1.355-.684-1.574-1.97" transform="translate(0.162 -0.056)" fill="none" stroke="#311d47" stroke-linecap="round" stroke-linejoin="round" stroke-width="0.7"/>
      </g>
    </g>
  </g>
</svg>
