<svg xmlns="http://www.w3.org/2000/svg" xmlns:xlink="http://www.w3.org/1999/xlink" width="103" height="103" viewBox="0 0 103 103">
  <defs>
    <filter id="Elipse_4743" x="0" y="0" width="103" height="103" filterUnits="userSpaceOnUse">
      <feOffset dy="3" input="SourceAlpha"/>
      <feGaussianBlur stdDeviation="3" result="blur"/>
      <feFlood flood-opacity="0.161"/>
      <feComposite operator="in" in2="blur"/>
      <feComposite in="SourceGraphic"/>
    </filter>
  </defs>
  <g id="Grupo_1142395" data-name="Grupo 1142395" transform="translate(-805.818 -1436.158)">
    <g id="Grupo_1110588" data-name="Grupo 1110588" transform="translate(814.818 1442.158)">
      <g transform="matrix(1, 0, 0, 1, -9, -6)" filter="url(#Elipse_4743)">
        <circle id="Elipse_4743-2" data-name="Elipse 4743" cx="42.5" cy="42.5" r="42.5" transform="translate(9 6)" fill="#3c1c74"/>
      </g>
    </g>
    <g id="economic-growth_14277640" transform="translate(830.871 1431.845)">
      <path id="Trazado_938631" data-name="Trazado 938631" d="M11,445.537H54.649V447.9H11Z" transform="translate(-6.377 -375.84)" fill="#909cd1"/>
      <path id="Trazado_938632" data-name="Trazado 938632" d="M416.863,39.935h5.123V76.066h-5.123Z" transform="translate(-376.086 -6.369)" fill="#43f043"/>
      <path id="Trazado_938633" data-name="Trazado 938633" d="M132.436,250.535h5.123v17.371h-5.123Z" transform="translate(-116.996 -198.209)" fill="#fcdb35"/>
      <path id="Trazado_938634" data-name="Trazado 938634" d="M227.245,180.335h5.123v23.624h-5.123Z" transform="translate(-203.359 -134.262)" fill="#78eaff"/>
      <path id="Trazado_938635" data-name="Trazado 938635" d="M322.054,110.136h5.123v29.878h-5.123Z" transform="translate(-289.723 -70.317)" fill="#85caff"/>
      <path id="Trazado_938636" data-name="Trazado 938636" d="M37.626,320.736h5.123v11.117H37.626Z" transform="translate(-30.631 -262.156)" fill="#ff5471"/>
      <path id="Trazado_938637" data-name="Trazado 938637" d="M78.911,320.736h1.446v11.117H78.911Z" transform="translate(-68.239 -262.156)" fill="#f23353"/>
      <path id="Trazado_938638" data-name="Trazado 938638" d="M173.72,250.535h1.446v17.371H173.72Z" transform="translate(-154.602 -198.209)" fill="#fdc72e"/>
      <path id="Trazado_938639" data-name="Trazado 938639" d="M268.529,180.335h1.446v23.624h-1.446Z" transform="translate(-240.966 -134.262)" fill="#2dcffc"/>
      <path id="Trazado_938640" data-name="Trazado 938640" d="M363.338,110.135h1.445v29.878h-1.445Z" transform="translate(-327.329 -70.316)" fill="#4eb1fc"/>
      <path id="Trazado_938641" data-name="Trazado 938641" d="M458.148,39.935h1.446V76.066h-1.446Z" transform="translate(-413.693 -6.369)" fill="#2dd62d"/>
      <path id="Trazado_938642" data-name="Trazado 938642" d="M112.4,169.424c-4.82,6.809-15.32,13.963-27.981,11.04A32.8,32.8,0,0,0,108.626,167l-1.707-1.1a.38.38,0,0,1,.056-.668l7.209-3.081a.38.38,0,0,1,.529.336l.272,7.9a.38.38,0,0,1-.585.332l-2-1.29Z" transform="translate(-73.253 -117.668)" fill="#fdb0a0" fill-rule="evenodd"/>
      <path id="Trazado_938643" data-name="Trazado 938643" d="M84.416,182.782a32.8,32.8,0,0,0,24.21-13.467L107.2,168.4l-.287-.185a.38.38,0,0,1,.059-.667l6.753-2.886.255,7.391a.38.38,0,0,1-.585.332l-1-.645-1-.645c-4.82,6.809-14.318,14.608-26.979,11.685Z" transform="translate(-73.253 -119.986)" fill="#ffcec0" fill-rule="evenodd"/>
      <path id="Trazado_938644" data-name="Trazado 938644" d="M486.913,445.537h1.255V447.9h-1.255Z" transform="translate(-439.896 -375.84)" fill="#7986bf"/>
      <path id="Trazado_938645" data-name="Trazado 938645" d="M6.371,39.572v-1.54a.624.624,0,0,1,1.247,0v1.54a.624.624,0,0,1-1.247,0Zm0-4.465v-1.54a.623.623,0,0,1,.623-.623H8.534a.623.623,0,1,1,0,1.247H7.619v.916a.624.624,0,0,1-1.247,0Zm0,8.93V42.5a.624.624,0,0,1,1.247,0v1.54a.624.624,0,1,1-1.247,0Zm0,8.931v-1.54a.624.624,0,0,1,1.247,0v1.54a.624.624,0,1,1-1.247,0Zm0-4.465v-1.54a.624.624,0,0,1,1.247,0V48.5a.624.624,0,1,1-1.247,0ZM28.7,33.566a.624.624,0,0,1,.623-.623h1.54a.623.623,0,1,1,0,1.247h-1.54A.624.624,0,0,1,28.7,33.566Zm-4.465,0a.623.623,0,0,1,.623-.623H26.4a.623.623,0,1,1,0,1.247h-1.54A.623.623,0,0,1,24.233,33.566Zm8.93,0a.624.624,0,0,1,.623-.623h1.54a.623.623,0,0,1,0,1.247h-1.54A.624.624,0,0,1,33.163,33.566Zm-13.4,0a.623.623,0,0,1,.623-.623H21.93a.623.623,0,1,1,0,1.247H20.391A.623.623,0,0,1,19.767,33.566Zm-4.466,0a.624.624,0,0,1,.624-.623h1.54a.623.623,0,1,1,0,1.247h-1.54A.624.624,0,0,1,15.3,33.566Zm-4.465,0a.624.624,0,0,1,.623-.623H13a.623.623,0,1,1,0,1.247h-1.54A.624.624,0,0,1,10.836,33.566Zm36.813,37.87H5.246V70.321h42.4v1.115ZM7.619,59.2h3.876v2.934c-.129.012-.257.026-.387.038a.623.623,0,0,0-.085,1.228c.157.037.314.071.472.1v5.566H7.619V59.2ZM14.817,64v5.078H12.741V63.742q1.036.169,2.076.255ZM16.064,52.95H19.94v7.281a33.492,33.492,0,0,1-3.876,1.153ZM24.509,46.7h3.877v8.93a32.129,32.129,0,0,1-3.877,2.523Zm12.322-6.254v5.113l-3.355,1.433a1,1,0,0,0-.522.519V40.443h3.877Zm1.247,13.673c.429-.5.839-1,1.223-1.517l.852.549V69.074H38.078ZM32.954,58.77a30.47,30.47,0,0,0,3.877-3.308V69.074H32.954Zm-3.322,2.077q1.057-.567,2.075-1.227v9.454H29.633V60.846Zm-5.124,2.124a27.475,27.475,0,0,0,3.85-1.481l.027-.012v7.6H24.509Zm-3.322.769q1.042-.171,2.075-.428v5.763H21.187Zm-4.225.346a25.95,25.95,0,0,0,2.978-.171v5.161H16.064V64.069Q16.513,64.084,16.962,64.085Zm15.992-12.69V48.317a1,1,0,0,0,.374.439l1.158.745c-.381.52-.891,1.168-1.532,1.894Zm-6.349,6.981a34.233,34.233,0,0,1-11.131,4.417c9.968.59,18.605-4.962,23.16-11.4a.623.623,0,0,1,.846-.164l1.612,1.037L40.849,45.2l-6.459,2.76,1.32.85a.624.624,0,0,1,.177.878,31.071,31.071,0,0,1-9.28,8.693ZM45.276,34.19V69.074H41.4V53.727a1,1,0,0,0,.955-1.035l-.273-7.9a.991.991,0,0,0-.464-.812,1.013,1.013,0,0,0-.219-.1V34.19Zm3,34.884H46.523V33.566a.624.624,0,0,0-.624-.623H40.777a.624.624,0,0,0-.623.623v10.57l-2.075.887v-5.2a.624.624,0,0,0-.623-.623H32.331a.624.624,0,0,0-.623.623v12.9c-.61.614-1.3,1.257-2.075,1.907V46.073a.624.624,0,0,0-.623-.623H23.885a.624.624,0,0,0-.623.623V58.8q-.993.495-2.075.943V52.327a.624.624,0,0,0-.624-.623H15.44a.623.623,0,0,0-.623.623v9.326q-1.011.2-2.076.34V58.58a.624.624,0,0,0-.623-.623H6.995a.623.623,0,0,0-.623.623V69.074H4.622A.623.623,0,0,0,4,69.7V72.06a.623.623,0,0,0,.623.623H48.272a.623.623,0,0,0,.624-.623V69.7a.623.623,0,0,0-.624-.623Z" transform="translate(0 0)" fill-rule="evenodd"/>
    </g>
  </g>
</svg>
