<svg xmlns="http://www.w3.org/2000/svg" width="53.572" height="68.61" viewBox="0 0 53.572 68.61">
  <g id="Grupo_1142390" data-name="Grupo 1142390" transform="translate(-217 -13189.99)">
    <circle id="Elipse_9797" data-name="Elipse 9797" cx="26" cy="26" r="26" transform="translate(217 13198)" fill="#423755"/>
    <g id="doctor_921059" transform="translate(160.887 13189.99)">
      <path id="Trazado_916489" data-name="Trazado 916489" d="M110.549,342.563l-11.321-3.33H79.562l-11.321,3.33a6.445,6.445,0,0,0-4.627,6.183V361.38h51.561V348.746A6.445,6.445,0,0,0,110.549,342.563Z" transform="translate(-6.496 -293.774)" fill="#edebed"/>
      <path id="Trazado_916490" data-name="Trazado 916490" d="M212.778,365.661H202.036l-2.148-21.484h15.039Z" transform="translate(-124.509 -298.056)" fill="#a5cdff"/>
      <path id="Trazado_916491" data-name="Trazado 916491" d="M200.377,349.064a10.7,10.7,0,0,0,14.062,0l.489-4.887H199.888Z" transform="translate(-124.509 -298.056)" fill="#8cb4eb"/>
      <path id="Trazado_916492" data-name="Trazado 916492" d="M207.407,279.055h0a7.519,7.519,0,0,1-7.519-7.519v-7.519h15.039v7.519A7.519,7.519,0,0,1,207.407,279.055Z" transform="translate(-124.509 -228.637)" fill="#c17c46"/>
      <path id="Trazado_916493" data-name="Trazado 916493" d="M199.888,269.635a15.827,15.827,0,0,0,15.039,0v-5.619H199.888Z" transform="translate(-124.509 -228.637)" fill="#a16131"/>
      <path id="Trazado_916494" data-name="Trazado 916494" d="M153.565,90.387h-1.611V79.645H124.025V90.387h-1.611a2.685,2.685,0,1,0,0,5.371h1.666a13.951,13.951,0,0,0,27.821,0h1.665a2.685,2.685,0,1,0,0-5.371Z" transform="translate(-55.09 -68.972)" fill="#c17c46"/>
      <path id="Trazado_916495" data-name="Trazado 916495" d="M124.116,79.645V90.387h-1.5a2.747,2.747,0,0,0-2.682,1.956,2.694,2.694,0,0,0,2.588,3.415h1.651a13.866,13.866,0,0,0,16.065,12.709,13.955,13.955,0,0,1-11.823-13.784V87.933a3.216,3.216,0,0,1,3.64-3.167,27.212,27.212,0,0,0,3.222.185,42.351,42.351,0,0,0,10.61-1.513,8.288,8.288,0,0,0,5-3.794Z" transform="translate(-55.181 -68.972)" fill="#a16131"/>
      <path id="Trazado_916496" data-name="Trazado 916496" d="M143.144,47.533l.134,4.3a11.862,11.862,0,0,0-3.223,7.519v1.326a2.148,2.148,0,0,1-1.882,2.132l-2.415.3V53.978C135.759,50.418,139.116,47.354,143.144,47.533Z" transform="translate(-68.973 -41.157)" fill="#365e7d"/>
      <path id="Trazado_916497" data-name="Trazado 916497" d="M268.871,321.759l-2.128-2.128,2.277-3.036a1.315,1.315,0,0,0-.464-1.966l-5.036-2.518L256,337.893h6.445l6.827-13.654A2.148,2.148,0,0,0,268.871,321.759Z" transform="translate(-173.102 -270.288)" fill="#dbd9dc"/>
      <path id="Trazado_916498" data-name="Trazado 916498" d="M320.264,23.484,320.13,31a11.862,11.862,0,0,1,3.223,7.519v1.326a2.148,2.148,0,0,0,1.882,2.132l2.415.3V29.929C327.649,26.369,324.293,23.3,320.264,23.484Z" transform="translate(-228.638 -20.33)" fill="#365e7d"/>
      <path id="Trazado_916499" data-name="Trazado 916499" d="M155.9,321.759l2.128-2.128-2.277-3.036a1.315,1.315,0,0,1,.464-1.966l5.036-2.518,7.519,25.781H162.32l-6.827-13.654A2.148,2.148,0,0,1,155.9,321.759Z" transform="translate(-85.866 -270.288)" fill="#dbd9dc"/>
      <path id="Trazado_916500" data-name="Trazado 916500" d="M154.448,7.5c-8.962,0-10.68,2.724-17.581,4.923a.752.752,0,0,0-.42,1.12c1.5,2.342,7.071,8.448,22.906,4.3a5.018,5.018,0,0,0,3.656-3.86h0a5.022,5.022,0,0,0-2.878-5.32A13.228,13.228,0,0,0,154.448,7.5Z" transform="translate(-69.468 -6.495)" fill="#284c68"/>
      <rect id="Rectángulo_404467" data-name="Rectángulo 404467" width="10.742" height="6.446" transform="translate(62.489 61.16)" fill="#a5cdff"/>
      <path id="Trazado_916501" data-name="Trazado 916501" d="M201.41,160.322a1,1,0,0,0-1.005,1.005V162.4a1.005,1.005,0,0,0,2.01,0v-1.074A1,1,0,0,0,201.41,160.322Z" transform="translate(-124.956 -138.838)"/>
      <path id="Trazado_916502" data-name="Trazado 916502" d="M297.6,160.322a1,1,0,0,0-1.005,1.005V162.4a1.005,1.005,0,1,0,2.01,0v-1.074A1,1,0,0,0,297.6,160.322Z" transform="translate(-208.259 -138.838)"/>
      <path id="Trazado_916503" data-name="Trazado 916503" d="M232.61,218.155a1,1,0,1,0-1.411-1.431,4.43,4.43,0,0,1-5.034,0,1,1,0,1,0-1.412,1.431,6.34,6.34,0,0,0,7.857,0Z" transform="translate(-145.783 -187.432)"/>
      <path id="Trazado_916504" data-name="Trazado 916504" d="M195.542,136.274h-2.148a1.005,1.005,0,1,0,0,2.01h2.148a1.005,1.005,0,1,0,0-2.01Z" transform="translate(-118.014 -118.013)"/>
      <path id="Trazado_916505" data-name="Trazado 916505" d="M289.587,138.284h2.148a1.005,1.005,0,0,0,0-2.01h-2.148a1.005,1.005,0,0,0,0,2.01Z" transform="translate(-201.317 -118.013)"/>
      <path id="Trazado_916506" data-name="Trazado 916506" d="M104.424,47.872,97.18,45.644a2.3,2.3,0,0,0-1.276-2.2l-4.48-2.24V38.009a14.992,14.992,0,0,0,6.3-10.218h.6a3.808,3.808,0,0,0,3.825-3.314,3.685,3.685,0,0,0-2.129-3.728V9.6a7.459,7.459,0,0,0-7.45-7.45H92.4A12.67,12.67,0,0,0,84.98,0a25.623,25.623,0,0,0-12.5,2.822,43.588,43.588,0,0,1-6.243,2.41,1.005,1.005,0,0,0-.645,1.352,9.118,9.118,0,0,0,1.638,2.382c-.5.616-1.447,2.19-1.447,5.287v6.541a3.666,3.666,0,0,0,1.542,7h.75a14.987,14.987,0,0,0,6.3,10.22V41.2l-4.48,2.24a2.3,2.3,0,0,0-1.276,2.2l-7.244,2.227a7.413,7.413,0,0,0-5.261,7.121V67.605a1.005,1.005,0,0,0,2.01,0V54.993a5.413,5.413,0,0,1,3.842-5.2L69.5,47.476l1.33,1.773-1.511,1.511a3.149,3.149,0,0,0-.591,3.64L71.6,60.155h-2.74V59.012a1.005,1.005,0,1,0-2.01,0v1.143H62.489a1,1,0,0,0-1.005,1.005v6.445a1,1,0,0,0,1.005,1.005H73.231a1,1,0,0,0,1.005-1.005V65.417l1.319,2.637a1.005,1.005,0,0,0,1.8-.9L70.526,53.5a1.142,1.142,0,0,1,.214-1.32l2.128-2.128a1,1,0,0,0,.093-1.314L70.684,45.7a.31.31,0,0,1,.109-.464l3.958-1.979,2.795,9.581a1.005,1.005,0,1,0,1.93-.563l-.44-1.51a11.76,11.76,0,0,0,7.726,0L82.9,64.016,80.73,56.579a1.005,1.005,0,1,0-1.93.563l3.134,10.744a1.005,1.005,0,0,0,1.93,0l7.182-24.625L95,45.241a.31.31,0,0,1,.11.464l-2.277,3.036a1,1,0,0,0,.093,1.314l2.128,2.128a1.142,1.142,0,0,1,.214,1.32L88.445,67.156a1.005,1.005,0,1,0,1.8.9L97.07,54.4a3.15,3.15,0,0,0-.591-3.64L94.968,49.25l1.33-1.773,7.535,2.317a5.412,5.412,0,0,1,3.841,5.2V67.605a1.005,1.005,0,0,0,2.01,0V54.993A7.413,7.413,0,0,0,104.424,47.872ZM72.226,66.6H63.494V62.165h3.361v.069a1.005,1.005,0,1,0,2.01,0v-.069h3.361V66.6ZM73.309,4.653A23.672,23.672,0,0,1,84.98,2.01c3.708,0,7.021,1.552,7.707,3.61a1.005,1.005,0,0,0,1.907-.636,4.741,4.741,0,0,0-.2-.51A5.449,5.449,0,0,1,98.007,9.6V20.41H96.863a1.145,1.145,0,0,1-1.143-1.143V18.192A12.8,12.8,0,0,0,92.2,9.962a1.006,1.006,0,0,0-1.013-.248c-5.579,1.762-13.446,3.247-19.237.317a10.812,10.812,0,0,1-3.918-3.253A49.435,49.435,0,0,0,73.309,4.653Zm16.1,37.028-1.919,6.581a9.751,9.751,0,0,1-9.189,0l-1.92-6.582V39.188a14.947,14.947,0,0,0,13.029,0ZM82.9,38.671A12.974,12.974,0,0,1,69.94,25.712a1.005,1.005,0,1,0-2.01,0v.069h-.606a1.681,1.681,0,0,1-1.671-1.857,1.783,1.783,0,0,1,1.825-1.5h1.458a3.157,3.157,0,0,0,3.153-3.153V15.473a1.005,1.005,0,0,0-2.01,0v3.793a1.145,1.145,0,0,1-1.143,1.143H67.791V14.253a6.774,6.774,0,0,1,.919-3.914,13.814,13.814,0,0,0,2.177,1.4A18.762,18.762,0,0,0,78.944,13.7a38.038,38.038,0,0,0,12.227-1.872,10.592,10.592,0,0,1,2.54,6.368v1.074a3.157,3.157,0,0,0,3.153,3.153h1.611a1.681,1.681,0,0,1,1.671,1.857,1.783,1.783,0,0,1-1.825,1.5h-.453v-.059a1,1,0,0,0-1-1.005h0a1,1,0,0,0-1.005,1A12.976,12.976,0,0,1,82.9,38.671Z"/>
      <path id="Trazado_916507" data-name="Trazado 916507" d="M367.1,435.556h-1.68v-1.68a1.005,1.005,0,0,0-2.01,0v1.68h-1.681a1.005,1.005,0,0,0,0,2.01h1.681v1.68a1.005,1.005,0,0,0,2.01,0v-1.68h1.68a1.005,1.005,0,0,0,0-2.01Z" transform="translate(-263.794 -374.864)"/>
    </g>
  </g>
</svg>
