<svg xmlns="http://www.w3.org/2000/svg" xmlns:xlink="http://www.w3.org/1999/xlink" width="103" height="103" viewBox="0 0 103 103">
  <defs>
    <filter id="Elipse_5246" x="0" y="0" width="103" height="103" filterUnits="userSpaceOnUse">
      <feOffset dy="3" input="SourceAlpha"/>
      <feGaussianBlur stdDeviation="3" result="blur"/>
      <feFlood flood-opacity="0.161"/>
      <feComposite operator="in" in2="blur"/>
      <feComposite in="SourceGraphic"/>
    </filter>
  </defs>
  <g id="Grupo_1142394" data-name="Grupo 1142394" transform="translate(-269.25 -1565.488)">
    <g id="Grupo_1110590" data-name="Grupo 1110590" transform="translate(278.25 1571.488)">
      <g transform="matrix(1, 0, 0, 1, -9, -6)" filter="url(#Elipse_5246)">
        <circle id="Elipse_5246-2" data-name="Elipse 5246" cx="42.5" cy="42.5" r="42.5" transform="translate(9 6)" fill="#3c1c74"/>
      </g>
    </g>
    <g id="graphic_1406578" transform="translate(296.317 1587.926)">
      <path id="Trazado_938583" data-name="Trazado 938583" d="M88.1,248.051H96.24v22.8H88.1Zm0,0" transform="translate(-79.131 -222.809)" fill="#dd3e46"/>
      <path id="Trazado_938584" data-name="Trazado 938584" d="M200.1,208.051h8.143v26.87H200.1Zm0,0" transform="translate(-179.732 -186.88)" fill="#e97424"/>
      <path id="Trazado_938585" data-name="Trazado 938585" d="M312.1,152.051h8.143v32.57H312.1Zm0,0" transform="translate(-280.332 -136.58)" fill="#7fcac9"/>
      <g id="Grupo_1134642" data-name="Grupo 1134642" transform="translate(0.01 0)">
        <path id="Trazado_938586" data-name="Trazado 938586" d="M32.1,464.051H77.7v1.629H32.1Zm0,0" transform="translate(-28.841 -416.824)" fill="#dd3e46"/>
        <path id="Trazado_938587" data-name="Trazado 938587" d="M.1,464.051H1.726v1.629H.1Zm0,0" transform="translate(-0.098 -416.824)" fill="#dd3e46"/>
        <path id="Trazado_938588" data-name="Trazado 938588" d="M.914,227.4a.814.814,0,0,1-.576-1.39l1.629-1.629a.814.814,0,0,1,1.151,1.151L1.49,227.158a.816.816,0,0,1-.576.239Zm0,0" transform="translate(-0.1 -201.34)" fill="#dd3e46"/>
        <path id="Trazado_938589" data-name="Trazado 938589" d="M68.764.05a.814.814,0,1,0,0,1.629h6.957L62.266,14.385,55.752,7.871l-13.4,12.759a.814.814,0,1,0,1.122,1.18l12.25-11.664,6.514,6.514L76.907,2.8V9.822a.814.814,0,1,0,1.629,0V.05Zm0,0" transform="translate(-37.822 -0.05)" fill="#dd3e46"/>
      </g>
      <path id="Trazado_938590" data-name="Trazado 938590" d="M112.1,272.051h3.257v1.629H112.1Zm0,0" transform="translate(-100.688 -244.366)" fill="#fff"/>
      <path id="Trazado_938591" data-name="Trazado 938591" d="M224.1,232.051h3.257v1.629H224.1Zm0,0" transform="translate(-201.289 -208.437)" fill="#fff"/>
      <path id="Trazado_938592" data-name="Trazado 938592" d="M336.1,176.051h3.257v1.629H336.1Zm0,0" transform="translate(-301.889 -158.137)" fill="#fff"/>
      <path id="Trazado_938593" data-name="Trazado 938593" d="M69.554,144.865a.814.814,0,0,0-.814-.814H60.6a.814.814,0,0,0-.814.814v31.756H58.154V150.565a.814.814,0,0,0-.814-.814H49.2a.814.814,0,0,0-.814.814v26.056H46.755V154.636a.814.814,0,0,0-.814-.814H37.8a.814.814,0,0,0-.814.814v21.985H32.1v1.628H77.7v-1.628H69.554ZM38.612,176.621V155.451h6.514v21.171Zm11.4,0V151.379h6.514v25.242Zm11.4,0V145.68h6.514v30.942Zm0,0" transform="translate(-28.831 -129.394)"/>
      <path id="Trazado_938594" data-name="Trazado 938594" d="M.1,464.051H1.726v1.629H.1Zm0,0" transform="translate(-0.088 -416.824)"/>
      <path id="Trazado_938595" data-name="Trazado 938595" d="M55.743,7.867l-13.4,12.764a.815.815,0,1,0,1.123,1.18l12.25-11.664,6.514,6.514L76.9,2.8V9.821a.814.814,0,1,0,1.629,0V.05H68.757a.814.814,0,1,0,0,1.629h6.957L62.258,14.385Zm0,0" transform="translate(-37.805 -0.05)" fill="#fff"/>
      <path id="Trazado_938596" data-name="Trazado 938596" d="M1.4,227.158l1.629-1.629a.814.814,0,0,0-1.151-1.151L.248,226.006A.814.814,0,1,0,1.4,227.158Zm0,0" transform="translate(0 -201.34)" fill="#fff"/>
      <path id="Trazado_938597" data-name="Trazado 938597" d="M112.1,272.051h3.257v1.629H112.1Zm0,0" transform="translate(-100.688 -244.366)"/>
      <path id="Trazado_938598" data-name="Trazado 938598" d="M224.1,232.051h3.257v1.629H224.1Zm0,0" transform="translate(-201.289 -208.437)"/>
      <path id="Trazado_938599" data-name="Trazado 938599" d="M336.1,176.051h3.257v1.629H336.1Zm0,0" transform="translate(-301.889 -158.137)"/>
    </g>
  </g>
</svg>
