<svg xmlns="http://www.w3.org/2000/svg" xmlns:xlink="http://www.w3.org/1999/xlink" width="1600" height="3318" viewBox="0 0 1600 3318">
  <defs>
    <clipPath id="clip-path">
      <rect id="Rectángulo_417385" data-name="Rectángulo 417385" width="1600" height="3318" transform="translate(0 17160)" fill="none"/>
    </clipPath>
    <clipPath id="clip-path-2">
      <rect id="Placeholder" width="1600" height="960.07" fill="#12263f" opacity="0.6"/>
    </clipPath>
    <clipPath id="clip-path-3">
      <path id="Placeholder-2" data-name="Placeholder" d="M0-650H1600V171.832H0Z" transform="translate(0 650)" fill="#e8f0ff"/>
    </clipPath>
    <clipPath id="clip-path-4">
      <path id="Trazado_914085" data-name="Trazado 914085" d="M0-804H1600V1036.842s-185.948,37.339-313.807,33.48c-126.358-3.859-369.308-47.726-490.741-67.113-119.928-19.389-318.815-44.59-402.274-44.919C309.718,959.334,107.855,967.38,0,1021.512.389,1007.286,0-804,0-804Z" transform="translate(0 804.001)" fill="#f2f6ff" clip-rule="evenodd"/>
    </clipPath>
    <linearGradient id="linear-gradient" x1="0.049" y1="0.524" x2="1" y2="0.485" gradientUnits="objectBoundingBox">
      <stop offset="0" stop-color="#a57af0"/>
      <stop offset="1" stop-color="aqua"/>
    </linearGradient>
    <linearGradient id="linear-gradient-2" x1="0.5" x2="0.5" y2="0.905" gradientUnits="objectBoundingBox">
      <stop offset="0" stop-color="#fff"/>
      <stop offset="1" stop-color="#fff" stop-opacity="0"/>
    </linearGradient>
  </defs>
  <g id="Enmascarar_grupo_1079222" data-name="Enmascarar grupo 1079222" transform="translate(0 -17160)" clip-path="url(#clip-path)">
    <g id="Grupo_1110584" data-name="Grupo 1110584" transform="translate(-3235.504 28368.016)">
      <g id="Grupo_1110582" data-name="Grupo 1110582" transform="translate(3085.088 -10382.737)">
        <g id="Grupo_1073156" data-name="Grupo 1073156" transform="translate(0.724 0)">
          <path id="Trazado_773705" data-name="Trazado 773705" d="M39.737,308.787c-.234.106-.468.234-.7.34a10.234,10.234,0,0,1,1.636-1.275c-1.785,1.02-3.676,2.083-5.589,3.23-1.891,1.148-3.8,2.423-5.631,3.719a113.073,113.073,0,0,0-9.775,7.2c-2.1,1.148-3.8,2.486-3.783,3s1.764-.021,3.91-1.19c.489-.213,1.063-.489,1.424-.616a88.336,88.336,0,0,0,11.582-5.185c-.85.425-1.743.786-2.593,1.148a29.751,29.751,0,0,0,3.761-2.125c-.191.021-.383.064-.6.085a54.224,54.224,0,0,0,6.822-4.1,33.5,33.5,0,0,0,5.164-4.739c2.21-2.72.51-2.911-3.74-.531l-1.891,1.041Z" transform="translate(176.772 -298.723)" fill="#bad1ff"/>
          <path id="Trazado_773706" data-name="Trazado 773706" d="M19.308,318.927c2.508-1.318,4.973-2.465,7.374-3.783l.531-.191-.553-.468v.064c-1.743,2-5.164,4.4-8.288,6.694l-1.105.829a2.328,2.328,0,0,0-.85.956c-.106.425,1.105.149,2.635-.808l1.785-1.084A60.666,60.666,0,0,0,28.3,316.4a23.823,23.823,0,0,0,5.228-5.058c.361-.6-.319-.531-.616-.7-.128-.489-1.913.34-3.974,1.828s-3.613,3.081-3.528,3.528c-.383.213-.765.425-1.126.637l.744-.7c-.361.723-2.231,2.061-3.549,3.188l-2.083,1.509,1.806.106,1.041-.85a1.052,1.052,0,0,0-.3.064c1.955-1.7,3.846-3.1,5.993-4.994l2.635-2.423c.659-.744.383-.914-.553-.446l-1.4.744c.213-.106.425-.213.659-.319-1.53.956-3.06,2.04-4.633,2.954s-3.145,1.806-4.7,2.7a4.859,4.859,0,0,0-1.233.914c-.149.234.106.191.616-.085Z" transform="translate(188.382 -306.122)" fill="#bad1ff"/>
          <g id="Grupo_1073155" data-name="Grupo 1073155" transform="translate(0)">
            <path id="Trazado_773707" data-name="Trazado 773707" d="M17.42,317.289a11.079,11.079,0,0,0,1.679-1.063c.128-.149.191-.234.234-.276-.276.149-.659.34-1.02.531-.744.382-1.02.7-.893.808Z" transform="translate(200.598 -311.773)" fill="#bad1ff"/>
            <path id="Trazado_773708" data-name="Trazado 773708" d="M17.19,316.793l.425-.212c-.106.042-.213.064-.319.106l-.064.064-.043.042Z" transform="translate(202.74 -312.616)" fill="#bad1ff"/>
            <path id="Trazado_773709" data-name="Trazado 773709" d="M106.459,271.716C97.151,277.049,87.8,282.4,78.493,287.739c-.319.17-.553.383-.531.446,0,.064.276-.021.574-.191,9.329-5.334,18.616-10.668,27.945-16a1.449,1.449,0,0,0,.553-.467c0-.064-.255,0-.553.17Z" transform="translate(-15.819 -188.23)" fill="#bad1ff"/>
            <path id="Trazado_773710" data-name="Trazado 773710" d="M113.419,263.018c.191-.17.149-.234-.106-.149a2.491,2.491,0,0,0-.765.425c-.17.149-.128.213.106.128a3.263,3.263,0,0,0,.765-.425Z" transform="translate(-95.606 -145.064)" fill="#bad1ff"/>
            <path id="Trazado_773711" data-name="Trazado 773711" d="M33.894,368.24c1.275-.808,2.465-1.594,3.485-2.359a4.443,4.443,0,0,1,.616-.34c-.128-.042.064-.276.531-.574,4.42-2.954,9.138-5.823,13.856-8.819,4.718-3.039,9.478-6.12,14.217-9.18,0-.106.106-.255.276-.468a12.961,12.961,0,0,1,3.23-2.316l1.084-.553c4.335-2.38,8.649-4.739,12.984-7.119a32.8,32.8,0,0,1,2.848-1.934c3.485-2.465,6.992-4.951,10.6-7.417-.276.085-.468.085-.51,0-.042-.234.723-.914,1.743-1.509l1.53-.935L95.9,327.2c-.213.128-.425.234-.6.319-1.594.977-3.23,1.955-4.866,2.954-14.323,8.734-27.456,17.447-40.462,26.245a3.065,3.065,0,0,1-.786.4c-.17.021-.17-.064.064-.212C57.228,350.984,63.773,345.289,73,339c10.965-7.438,21.825-14.9,33.215-22.441,12.2-7.4,23.27-14.578,35.616-22.313,8.352-5.249,16.406-10.158,24.736-15.258,8.373-4.951,16.852-9.563,25.1-14.132,6.12-3.613,12.156-5.929,13.6-5.249.871.446-.042,1.955-2.338,3.846l1.509-.829,2.423-1.233a27.118,27.118,0,0,1,5.759-2.338l1.934-.489c2.678-.446,6.588-1.934,8.989-2.125l-.149.616.489-.17c1.551-.637,2.614-1,3.188-.85l.17.51a4.775,4.775,0,0,1-1.063,2.848c.17.149.149.425,0,.786,1.254-.17,2-.064,1.615.978.638-.276.7,0,.085.553a7.993,7.993,0,0,1-.765.595h0c.4-.106.51-.128,1.02-.276.6-.361.935-.574.935-.574q1.53-1.02,2.869-1.891a18.116,18.116,0,0,1,2.061-.978c1.785-.17,1.806-.17,1.849.3l-.17.276c1.063-.616,1.148-.659,1.445-.829a5.971,5.971,0,0,1,.574-.234.444.444,0,0,0,.4.064.221.221,0,0,1,.149.106,2.338,2.338,0,0,0-.383.659,2.406,2.406,0,0,1-.234.319c-.616.531-.85.765-.956.85l-1.743.6-.191.383-.489.042.319.042-.786.4.935-.425q-1.721,1.169-2.4,1.658a12.26,12.26,0,0,0-1.339,1.041c.106,0,.128.064.128.064-1.849,1.233-1.87,1.169-3.719,2.274-.191.064-.361.106-.51.149a3.292,3.292,0,0,1-.829.638l-.956.574-.191.17h0c-.3.255-.51.425-.744.616l-.149.128h0c-.51.4-1.233,1.084-3.209,2.614-.574.3-1.126.6-1.658.871l.51-.191c.34-.106.17.234.34.149,2.125-.977,4.271-2.253,6.439-3.506,2.168-1.3,4.4-2.529,6.524-4.016a4.1,4.1,0,0,1,1.7-.935c.191.064-.234.574-1,1.169-7.863,7.013-18.85,13.388-28.306,17.6-2.423,1.233-4.845,2.444-7.289,3.676l.383-.106-1.934.871-.213.106,1.594-.446,1.02-.446c5.61-2.89,10.965-5.228,16.533-8.012,3-1.573,5.653-2.741,8.543-4.165.7-.446,1.275-.638,1.275-.468s-.6.7-1.3,1.126c-9.01,5.886-19.615,11.433-27.477,14.281a34.78,34.78,0,0,1-4.7,2.189l-.085.042c.383-.085.765-.191,1.169-.276-1.275.6-2.04.744-3.209,1.254l.616.149c-6.184,3.081-12.5,6.8-18.233,9.563-.234.128-.425.234-.638.34a81.024,81.024,0,0,1-7.268,5.015c.978-.531,1.934-1.041,2.911-1.551-1.955,1.36-3.931,2.678-6.142,3.953-5.971,3.464-12.963,6.822-16.682,7.714-11.475,6.864-22.887,13.919-34.193,21.017a3.131,3.131,0,0,1-1.339.574c-.128-.064.191-.4.786-.786,7.99-5.313,16.172-10.54,24.439-15.7-7.1,3.974-14.2,8.033-21.378,12.283-.893.553-1.806,1.126-2.72,1.7-.893.553-1.806,1.063-2.741,1.573-4.569,2.741-9.01,5.419-13.494,8.1-4.505,2.678-9.01,5.4-13.622,8.288C72.082,359,65.2,363.373,57.4,368.41c-11.178,6.779-21.357,13.005-32.705,19.232-1.488.871-3,1.424-3.315,1.233-.34-.191.616-1.063,2.125-1.913,11.56-6.928,23.036-13.792,34.6-20.7,11.39-7.162,22.972-14.281,35.085-21.315,2.593-1.53,5.143-3.039,7.693-4.548a.143.143,0,0,1-.128-.085c-.085-.149.064-.446.4-.808-2.89,1.679-5.823,3.379-8.8,5.015-7.948,5.1-15.917,10.222-24.715,15.152-6.035,3.379-11.582,6.29-17.426,8.989q-10.519,6.12-21.123,12.3a2.114,2.114,0,0,1-.723.319c-.128,0,0-.149.276-.319,4.76-3.06,9.669-6.12,14.663-9.159-.914.255-1.509.3-1.594,0s.4-.871,1.275-1.551L39.5,372.15c-.723.383-1.339.6-1.381.446-.064-.149.446-.553,1.126-.935q7.108-3.857,14.174-7.693c5.5-3.379,10.965-6.737,16.469-10.115a4.572,4.572,0,0,1-1.976.319h0l-2.571,1.53c-3.825,2.486-7.672,4.994-11.582,7.438l-11.985,7.013c-8.054,4.654-16.257,9.223-24.545,13.686-.319.17-.616.276-.659.212s.191-.255.489-.4q7.523-4.048,14.9-8.182h-.021c-.212.085-.3.042-.106-.128a2.705,2.705,0,0,1,.765-.425c.255-.085.276,0,.106.128q6.885-3.857,13.643-7.82c4.526-2.614,8.989-5.27,13.282-8.1-2.061,1.211-4.1,2.465-6.184,3.655l-6.29,3.464-12.623,6.822c-.871.574-1.743,1.148-2.635,1.743a2.239,2.239,0,0,1-.723.3c-.106,0,.064-.17.3-.34l.744-.489c-1.594.85-2.954,1.275-3.1.935-.085-.361,1.148-1.36,2.805-2.253q6.6-3.7,13.154-7.353l1.4-.829,1.36-.935c-6.907,3.591-13.813,7.2-20.677,10.774-.574.319-1.126.51-1.19.4s.34-.446.935-.786q8.83-5.2,17.7-10.434c2.954-1.743,5.971-3.421,8.925-5.206l8.84-5.419c3.655-2.784,7.31-5.568,11.029-8.373-.51.3-1.02.6-1.53.871-6.482,3.8-12.283,7.672-18.021,11.539-5.759,3.8-11.56,7.417-17.851,11.072-.319.191-.6.3-.68.255-.064-.042.128-.213.446-.383,6.12-3.634,11.582-7.14,17.511-10.944,4.888-3.23,9.52-6.29,14-9.393-4.739,2.869-9.329,5.8-13.9,8.755-4.569,2.911-9.223,5.631-13.962,8.437a5.023,5.023,0,0,1-1.148.552c0,.042-.085.128-.191.213-1.126.808-2.38,1.636-3.655,2.465a2.047,2.047,0,0,1-.744.34c-.17.021-.043-.106.234-.3Zm170.878-90.72c.106-.021.191-.042.276-.064-.276.106-.574.234-.914.361l-1.445.234S203.732,277.8,204.773,277.52Zm13.856-10.307h0c.489-.085.829-.149.829-.149C219.117,267.128,218.862,267.171,218.628,267.213ZM126.8,325.589c5.015-3.018,10.073-5.823,15.216-8.5l-3.591,2.21q-5.77,3.124-11.6,6.269Zm88.956-52.171a28.911,28.911,0,0,1-3.868,1.211c-.85.553-1.785,1.105-2.72,1.615-2.55,1.381-5.036,2.763-7.523,4,.4,0-.191.3-.468.467l-.893.531c2.656-1.318,5.313-2.656,8.033-4.016,2.444-1.254,5.036-2.593,7.438-3.846Zm17.277-12.134s.17-.064.255-.106l-.3.553a3.01,3.01,0,0,1,.043-.446Zm.446-.893c-.128.064-.234.149-.383.234A.356.356,0,0,1,233.483,260.392Zm-3.421,2.083a3.426,3.426,0,0,0,.531-.213Zm-6.822-5.015-.489,1.934.638-1.976h-.149Z" transform="translate(-16.57 -256.002)" fill="#bad1ff"/>
          </g>
        </g>
        <g id="Grupo_1073154" data-name="Grupo 1073154" transform="translate(0 37.081)">
          <path id="Trazado_773698" data-name="Trazado 773698" d="M45.411,270.992c-.319.085-.659.17-.978.255a7.8,7.8,0,0,1,2.21-1.381C36.655,273.075,25.6,281,19.187,287.313c-2.741,1.509-4.866,3.464-4.7,4.4.191.935,2.656.489,5.419-1.041.659-.255,1.4-.6,1.913-.722a92.809,92.809,0,0,0,15.513-5.419c-1.148.361-2.338.744-3.485,1.105A44.913,44.913,0,0,0,38.8,283.3c-.276-.021-.553-.064-.829-.085,5.844-2,12.814-6.524,15.577-10.115,2.784-3.613.319-4.93-5.525-2.933l-2.614.85Z" transform="translate(249.439 -248.482)" fill="#bad1ff"/>
          <path id="Trazado_773699" data-name="Trazado 773699" d="M18.693,284.475c3.443-1.3,6.779-2.486,10.115-3.676l.744-.085-.893-1.084v.106c-2.274,2.656-6.694,5.759-10.817,8.543l-1.424,1.063a2.561,2.561,0,0,0-1,1.445c-.021.786,1.636.553,3.676-.51l2.359-1.233c6.014-2.55,14.876-7.65,16.831-11.5.425-.893-.531-1.126-1-1.594-.234-.914-2.763-.4-5.589,1.169-2.848,1.573-4.909,3.57-4.654,4.484-.51.213-1.041.446-1.53.659l.956-.935c-.4,1.148-2.869,2.805-4.548,4.271l-2.741,1.849,2.678.935L23.2,287.28a1.859,1.859,0,0,1-.425-.021c2.529-2.146,4.909-4.208,7.82-6.312l3.506-2.933c.85-.956.446-1.445-.893-1.084l-1.955.6c.319-.064.616-.149.914-.213-4.229,1.891-8.585,4.059-12.793,5.908a3.829,3.829,0,0,0-1.615,1.169c-.17.34.213.4.914.106Z" transform="translate(263.747 -260.86)" fill="#bad1ff"/>
          <g id="Grupo_1073153" data-name="Grupo 1073153" transform="translate(0)">
            <path id="Trazado_773700" data-name="Trazado 773700" d="M16.958,284.021a9.5,9.5,0,0,0,2.338-1c.17-.213.255-.319.3-.383l-1.445.4C17.107,283.341,16.746,283.788,16.958,284.021Z" transform="translate(279.401 -268.8)" fill="#bad1ff"/>
            <path id="Trazado_773701" data-name="Trazado 773701" d="M16.61,283.47c.361-.106.6-.17.6-.17a3.131,3.131,0,0,0-.446.021c-.085.064-.085.085-.085.085l-.064.064Z" transform="translate(282.405 -269.652)" fill="#bad1ff"/>
            <path id="Trazado_773702" data-name="Trazado 773702" d="M138.127,226.745c-12.963,6.184-25.65,12.538-38.422,18.977-.425.213-.744.489-.7.616.042.106.425.043.808-.149,12.793-6.418,25.395-12.729,38.358-18.913.425-.213.744-.489.744-.638-.042-.127-.4-.085-.808.106Z" transform="translate(-14.389 -112.007)" fill="#bad1ff"/>
            <path id="Trazado_773703" data-name="Trazado 773703" d="M147.824,217.664c.255-.255.17-.361-.191-.276a2.867,2.867,0,0,0-1.02.574c-.213.213-.106.361.191.276A2.51,2.51,0,0,0,147.824,217.664Z" transform="translate(-124.39 -64.312)" fill="#bad1ff"/>
            <path id="Trazado_773704" data-name="Trazado 773704" d="M36.8,349.157a52.328,52.328,0,0,0,4.526-3.421,2.646,2.646,0,0,1,.829-.446c-.213-.128.043-.489.616-.914,5.8-4.293,11.986-8.458,18.3-12.623,6.375-4.016,12.942-7.863,19.4-11.815a1.316,1.316,0,0,1,.34-.744,12.135,12.135,0,0,1,4.378-3.1l1.509-.638q9.021-4.24,18.021-8.437a30.1,30.1,0,0,1,3.889-2.55c4.76-3.251,9.52-6.46,14.472-9.563-.4.043-.68,0-.765-.191-.106-.468.935-1.4,2.338-2.1l2.1-1.126-6.227,2.826a5.446,5.446,0,0,1-.85.34c-2.231,1.148-4.463,2.3-6.737,3.528-19.763,10.88-37.784,22.122-55.337,33.9a2.509,2.509,0,0,1-1.063.531c-.234,0-.276-.149.043-.383,5.228-4.356,10.115-8.267,15.173-12.368,5.079-4.08,10.413-8.16,16.7-12.325,7.48-4.951,14.961-9.818,22.526-14.642,7.523-4.76,15.109-9.457,22.908-14.174,8.437-4.378,16.406-8.819,24.4-13.388,2-1.148,3.974-2.3,5.993-3.443,1.955-1.19,3.931-2.38,5.929-3.591q5.961-3.6,12.134-7.332c11.157-6.715,22.1-13.048,33.045-19.211,10.859-6.312,21.676-12.538,32.726-18.828,8.1-4.951,16.7-7.693,19.147-5.971,1.466,1.063.361,3.528-2.55,6.439.68-.383,1.36-.765,2.061-1.148l3.379-1.573a25.932,25.932,0,0,1,8.267-2.55l2.826-.319c4.08.149,9.86-1.063,13.452-.51l-.128,1.063.7-.128c2.231-.552,3.931-.595,4.8-.085l.34,1a7.371,7.371,0,0,1-1.233,4.59,1.483,1.483,0,0,1,.106,1.424c1.849.17,3.018.786,2.593,2.444.935-.191,1.041.276.234,1.041a7.377,7.377,0,0,1-1.041.786h0a9.7,9.7,0,0,0,1.466-.106l1.318-.574q2.189-1.041,4.08-1.934a15.75,15.75,0,0,1,2.954-.7q2.635.616,2.784,1.466a3.44,3.44,0,0,1-.213.383c1.509-.553,1.615-.6,2.019-.744a4.034,4.034,0,0,1,.808-.106.776.776,0,0,0,.6.34.68.68,0,0,1,.213.255q-.531.871-.489,1a4.5,4.5,0,0,1-.319.446c-.829.637-1.148.914-1.3,1.02l-2.486.149-.234.574-.7-.191.489.255-1.126.319,1.318-.276q-2.4,1.19-3.315,1.743a13.515,13.515,0,0,0-1.849,1.148.736.736,0,0,1,.213.17q-2.571,1.254-5.058,2.486c-.276.042-.51.042-.723.064a3.181,3.181,0,0,1-1.084.829l-1.3.659s-.17.149-.234.213v.021c-.383.319-.659.553-.956.808l-.191.17h0c-.659.553-1.615,1.36-4.144,3.506-.786.382-1.509.722-2.21,1.02.255-.064.489-.106.723-.17.468-.106.319.468.553.383,5.716-2.3,11.624-5.291,17.532-8.16,1-.637,2.061-.977,2.38-.765.3.213-.276.914-1.3,1.551-10.413,8.543-24.524,16.491-37.359,21.7q-4.877,2.423-9.775,4.845l.553-.085L262.1,254.23l-.276.128,2.231-.4,1.4-.531c7.5-3.889,14.833-6.63,22.186-10.052,3.974-1.828,7.565-3.081,11.39-4.675.935-.489,1.7-.637,1.743-.3.043.319-.7,1-1.615,1.488-5.823,3.655-12.134,7.353-18.446,10.519a117.925,117.925,0,0,1-18.063,7.416,32.233,32.233,0,0,1-6.418,2.826l-.106.042c.553-.064,1.105-.149,1.658-.213-1.721.786-2.848.829-4.463,1.488l.978.425c-8.394,4.123-17.043,9.329-25.267,12.3-.319.149-.616.276-.914.4a79.389,79.389,0,0,1-9.839,6.779l4.038-1.891a76.725,76.725,0,0,1-8.33,5.185c-8.2,4.356-17.957,8.16-23.312,8.522-7.8,4.484-15.726,8.607-23.61,12.9-7.884,4.271-15.726,8.543-23.525,12.9a2.766,2.766,0,0,1-1.891.531c-.191-.17.234-.68,1.02-1.126,10.965-6.694,22.271-13.091,33.661-19.445-9.86,4.611-19.763,9.287-29.709,14.344-1.254.68-2.486,1.381-3.74,2.061a41.661,41.661,0,0,1-3.8,1.828c-12.687,6.545-24.609,12.665-37.125,19.933-10.647,6.248-20.018,11.667-30.389,18.233-14.408,9.372-27.456,17.978-42.183,26.266-1.913,1.169-3.974,1.785-4.548,1.339-.574-.425.553-1.743,2.486-2.911,14.9-9.5,29.624-19.062,44.691-28.455,15.343-9.053,31.111-17.872,47.666-26.372,3.591-1.828,7.1-3.613,10.6-5.419-.085-.064-.17-.106-.213-.191-.17-.319,0-.786.446-1.318-4.016,1.934-8.075,3.91-12.156,5.865C107.585,331.137,96.811,337.64,84.8,343.5c-4.123,2.019-8.118,3.8-12.07,5.525-3.889,1.764-7.714,3.528-11.582,5.27-9.138,5.61-18.276,11.22-27.5,16.873a1.855,1.855,0,0,1-.978.383c-.191-.043-.064-.255.3-.51,6.1-4.335,12.453-8.607,18.913-12.857-1.254.234-2.146.128-2.338-.425-.213-.574.361-1.509,1.424-2.529l-4.611,2.529c-.956.51-1.806.723-1.934.446-.128-.3.51-.914,1.4-1.4q9.372-5.2,18.743-10.37c3.634-2.274,7.353-4.4,11.093-6.5s7.48-4.208,11.22-6.333a5.139,5.139,0,0,1-2.869-.106h0c-1.169.616-2.338,1.254-3.506,1.87q-15.588,9.595-31.388,19.317c-10.583,6.4-21.378,12.623-32.365,18.594-.425.234-.829.34-.914.234s.191-.4.574-.6q9.945-5.419,19.7-11.072H36.1c-.3.085-.425,0-.191-.276a2.7,2.7,0,0,1,1.02-.574c.361-.085.4.064.191.276q9.053-5.291,17.936-10.753c2.954-1.828,5.887-3.676,8.819-5.5l4.378-2.763,4.42-2.656c-5.674,2.954-11.114,6.269-16.7,9.35q-8.32,4.686-16.746,9.2c-1.126.829-2.253,1.658-3.4,2.486a2.123,2.123,0,0,1-1,.361c-.149-.043.021-.3.361-.531l.956-.68c-2.125,1.126-4.038,1.551-4.356.914-.255-.7,1.275-2.21,3.485-3.4q8.7-5.1,17.426-10.052l1.828-1.169,1.743-1.36Q42.4,351.92,28.6,359.1c-.765.446-1.53.638-1.679.425s.383-.744,1.148-1.19q11.539-7.363,23.355-14.6l11.858-7.2c4-2.359,8.054-4.569,12.092-6.822q7.332-5.674,14.769-11.454c-.7.361-1.4.723-2.1,1.063-8.925,4.7-16.831,9.69-24.587,14.748-7.672,5.291-15.216,10.6-23.567,15.662a1.3,1.3,0,0,1-.935.3c-.106-.085.128-.361.552-.6,8.118-5.036,15.194-10.243,23.1-15.534,6.609-4.229,12.963-8.16,19.02-12.283-6.524,3.591-12.793,7.332-19,11.114-6.141,3.974-12.262,7.948-18.552,11.837a4.746,4.746,0,0,1-1.551.723c0,.085-.085.191-.234.34-1.445,1.211-3.081,2.423-4.76,3.613a1.948,1.948,0,0,1-1.02.425c-.234,0-.085-.213.255-.51ZM271.642,239.631c.149,0,.276-.042.4-.042-.383.128-.808.255-1.275.425h-2.1s1.466-.191,2.954-.361Zm17.808-14.642ZM166.323,303.213c6.949-3.634,13.983-6.822,21.06-10.03l-4.909,2.869c-5.334,2.444-10.732,4.824-16.151,7.183ZM286.794,235.4a32.477,32.477,0,0,1-5.419.956,34.533,34.533,0,0,1-3.549,2.21c-3.379,1.849-6.737,3.57-10.052,5.228.6.085-.191.468-.574.744l-1.169.765c3.57-1.7,7.162-3.4,10.817-5.121,3.273-1.573,6.737-3.4,9.924-4.76Zm23.057-14.939a2.148,2.148,0,0,0,.361-.064l-.361.829v-.786Zm.553-1.381c-.17.064-.34.149-.531.213C309.936,219.017,310.149,219,310.4,219.081Zm-4.8,2a3.912,3.912,0,0,0,.786-.106Zm-11.114-12.028-.383,3.358.6-3.358Z" transform="translate(-15.83 -206.431)" fill="#bad1ff"/>
          </g>
        </g>
      </g>
      <g id="Grupo_1110583" data-name="Grupo 1110583" transform="translate(4693.371 -11110.204)">
        <g id="Grupo_1073156-2" data-name="Grupo 1073156" transform="translate(80.3 0)">
          <path id="Trazado_773705-2" data-name="Trazado 773705" d="M22.5,308.787c.234.106.468.234.7.34a10.234,10.234,0,0,0-1.636-1.275c1.785,1.02,3.676,2.083,5.589,3.23,1.891,1.148,3.8,2.423,5.631,3.719a113.073,113.073,0,0,1,9.775,7.2c2.1,1.148,3.8,2.486,3.783,3s-1.764-.021-3.91-1.19c-.489-.213-1.063-.489-1.424-.616a88.336,88.336,0,0,1-11.582-5.185c.85.425,1.743.786,2.593,1.148a29.751,29.751,0,0,1-3.761-2.125c.191.021.383.064.6.085a54.224,54.224,0,0,1-6.822-4.1,33.5,33.5,0,0,1-5.164-4.739c-2.21-2.72-.51-2.911,3.74-.531l1.891,1.041Z" transform="translate(-15.894 -298.723)" fill="#d5e3ff"/>
          <path id="Trazado_773706-2" data-name="Trazado 773706" d="M30.731,318.927c-2.508-1.318-4.973-2.465-7.374-3.783l-.531-.191.553-.468v.064c1.743,2,5.164,4.4,8.288,6.694l1.105.829a2.328,2.328,0,0,1,.85.956c.106.425-1.105.149-2.635-.808L29.2,321.137a60.666,60.666,0,0,1-7.459-4.739,23.823,23.823,0,0,1-5.228-5.058c-.361-.6.319-.531.616-.7.128-.489,1.913.34,3.974,1.828s3.613,3.081,3.528,3.528c.383.213.765.425,1.126.637l-.744-.7c.361.723,2.231,2.061,3.549,3.188l2.083,1.509-1.806.106-1.041-.85a1.052,1.052,0,0,1,.3.064c-1.955-1.7-3.846-3.1-5.993-4.994l-2.635-2.423c-.659-.744-.383-.914.553-.446l1.4.744c-.213-.106-.425-.213-.659-.319,1.53.956,3.06,2.04,4.633,2.954s3.145,1.806,4.7,2.7a4.859,4.859,0,0,1,1.233.914c.149.234-.106.191-.616-.085Z" transform="translate(-15.311 -306.122)" fill="#d5e3ff"/>
          <g id="Grupo_1073155-2" data-name="Grupo 1073155" transform="translate(1.438)">
            <path id="Trazado_773707-2" data-name="Trazado 773707" d="M19.3,317.289a11.079,11.079,0,0,1-1.679-1.063c-.128-.149-.191-.234-.234-.276.276.149.659.34,1.02.531.744.382,1.02.7.893.808Z" transform="translate(-15.647 -311.773)" fill="#d5e3ff"/>
            <path id="Trazado_773708-2" data-name="Trazado 773708" d="M17.615,316.793l-.425-.212c.106.042.213.064.319.106l.064.064.043.042Z" transform="translate(-15.872 -312.616)" fill="#d5e3ff"/>
            <path id="Trazado_773709-2" data-name="Trazado 773709" d="M78.534,271.716c9.308,5.334,18.658,10.689,27.966,16.023.319.17.553.383.531.446,0,.064-.276-.021-.574-.191-9.329-5.334-18.616-10.668-27.945-16a1.449,1.449,0,0,1-.553-.467c0-.064.255,0,.553.17Z" transform="translate(52.499 -188.23)" fill="#d5e3ff"/>
            <path id="Trazado_773710-2" data-name="Trazado 773710" d="M112.563,263.018c-.191-.17-.149-.234.106-.149a2.491,2.491,0,0,1,.765.425c.17.149.128.213-.106.128a3.263,3.263,0,0,1-.765-.425Z" transform="translate(91.297 -145.064)" fill="#d5e3ff"/>
            <path id="Trazado_773711-2" data-name="Trazado 773711" d="M220.919,368.24c-1.275-.808-2.465-1.594-3.485-2.359a4.443,4.443,0,0,0-.616-.34c.128-.042-.064-.276-.531-.574-4.42-2.954-9.138-5.823-13.856-8.819-4.718-3.039-9.478-6.12-14.217-9.18,0-.106-.106-.255-.276-.468a12.961,12.961,0,0,0-3.23-2.316l-1.084-.553c-4.335-2.38-8.649-4.739-12.984-7.119a32.8,32.8,0,0,0-2.848-1.934c-3.485-2.465-6.992-4.951-10.6-7.417.276.085.468.085.51,0,.042-.234-.723-.914-1.743-1.509l-1.53-.935,4.484,2.486c.213.128.425.234.6.319,1.594.977,3.23,1.955,4.866,2.954,14.323,8.734,27.456,17.447,40.462,26.245a3.065,3.065,0,0,0,.786.4c.17.021.17-.064-.064-.212-7.969-5.929-14.514-11.624-23.737-17.914-10.965-7.438-21.825-14.9-33.215-22.441-12.2-7.4-23.27-14.578-35.616-22.313C104.634,289,96.58,284.087,88.249,278.986c-8.373-4.951-16.852-9.563-25.1-14.132-6.12-3.613-12.156-5.929-13.6-5.249-.871.446.042,1.955,2.338,3.846l-1.509-.829-2.423-1.233a27.118,27.118,0,0,0-5.759-2.338l-1.934-.489c-2.678-.446-6.588-1.934-8.989-2.125l.149.616-.489-.17c-1.551-.637-2.614-1-3.188-.85l-.17.51a4.775,4.775,0,0,0,1.063,2.848c-.17.149-.149.425,0,.786-1.254-.17-2-.064-1.615.978-.638-.276-.7,0-.085.553a7.993,7.993,0,0,0,.765.595h0c-.4-.106-.51-.128-1.02-.276-.6-.361-.935-.574-.935-.574q-1.53-1.02-2.869-1.891a18.116,18.116,0,0,0-2.061-.978c-1.785-.17-1.806-.17-1.849.3l.17.276c-1.063-.616-1.148-.659-1.445-.829a5.971,5.971,0,0,0-.574-.234.444.444,0,0,1-.4.064.221.221,0,0,0-.149.106,2.338,2.338,0,0,1,.383.659,2.406,2.406,0,0,0,.234.319c.616.531.85.765.956.85l1.743.6.191.383.489.042-.319.042.786.4-.935-.425q1.721,1.169,2.4,1.658a12.26,12.26,0,0,1,1.339,1.041c-.106,0-.128.064-.128.064,1.849,1.233,1.87,1.169,3.719,2.274.191.064.361.106.51.149a3.292,3.292,0,0,0,.829.638l.956.574.191.17h0c.3.255.51.425.744.616l.149.128h0c.51.4,1.233,1.084,3.209,2.614.574.3,1.126.6,1.658.871l-.51-.191c-.34-.106-.17.234-.34.149-2.125-.977-4.271-2.253-6.439-3.506-2.168-1.3-4.4-2.529-6.524-4.016a4.1,4.1,0,0,0-1.7-.935c-.191.064.234.574,1,1.169,7.863,7.013,18.85,13.388,28.306,17.6,2.423,1.233,4.845,2.444,7.289,3.676l-.383-.106,1.934.871.213.106-1.594-.446-1.02-.446c-5.61-2.89-10.965-5.228-16.533-8.012-3-1.573-5.653-2.741-8.543-4.165-.7-.446-1.275-.638-1.275-.468s.6.7,1.3,1.126c9.01,5.886,19.615,11.433,27.477,14.281a34.78,34.78,0,0,0,4.7,2.189l.085.042c-.383-.085-.765-.191-1.169-.276,1.275.6,2.04.744,3.209,1.254l-.616.149c6.184,3.081,12.5,6.8,18.233,9.563.234.128.425.234.638.34a81.024,81.024,0,0,0,7.268,5.015c-.978-.531-1.934-1.041-2.911-1.551,1.955,1.36,3.931,2.678,6.142,3.953,5.971,3.464,12.963,6.822,16.682,7.714,11.475,6.864,22.887,13.919,34.193,21.017a3.131,3.131,0,0,0,1.339.574c.128-.064-.191-.4-.786-.786-7.99-5.313-16.172-10.54-24.439-15.7,7.1,3.974,14.2,8.033,21.378,12.283.893.553,1.806,1.126,2.72,1.7.893.553,1.806,1.063,2.741,1.573,4.569,2.741,9.01,5.419,13.494,8.1,4.505,2.678,9.01,5.4,13.622,8.288,7.884,4.951,14.769,9.329,22.568,14.366,11.178,6.779,21.357,13.005,32.705,19.232,1.488.871,3,1.424,3.315,1.233.34-.191-.616-1.063-2.125-1.913-11.56-6.928-23.036-13.792-34.6-20.7-11.39-7.162-22.972-14.281-35.085-21.315-2.593-1.53-5.143-3.039-7.693-4.548a.143.143,0,0,0,.128-.085c.085-.149-.064-.446-.4-.808,2.89,1.679,5.823,3.379,8.8,5.015,7.948,5.1,15.917,10.222,24.715,15.152,6.035,3.379,11.582,6.29,17.426,8.989q10.519,6.12,21.123,12.3a2.114,2.114,0,0,0,.723.319c.128,0,0-.149-.276-.319-4.76-3.06-9.669-6.12-14.663-9.159.914.255,1.509.3,1.594,0s-.4-.871-1.275-1.551l3.485,1.891c.723.383,1.339.6,1.381.446.064-.149-.446-.553-1.126-.935q-7.108-3.857-14.174-7.693c-5.5-3.379-10.965-6.737-16.469-10.115a4.572,4.572,0,0,0,1.976.319h0l2.571,1.53c3.825,2.486,7.672,4.994,11.582,7.438l11.985,7.013c8.054,4.654,16.257,9.223,24.545,13.686.319.17.616.276.659.212s-.191-.255-.489-.4q-7.523-4.048-14.9-8.182h.021c.212.085.3.042.106-.128a2.705,2.705,0,0,0-.765-.425c-.255-.085-.276,0-.106.128q-6.885-3.857-13.643-7.82c-4.526-2.614-8.989-5.27-13.282-8.1,2.061,1.211,4.1,2.465,6.184,3.655l6.29,3.464,12.623,6.822c.871.574,1.743,1.148,2.635,1.743a2.239,2.239,0,0,0,.723.3c.106,0-.064-.17-.3-.34l-.744-.489c1.594.85,2.954,1.275,3.1.935.085-.361-1.148-1.36-2.805-2.253q-6.6-3.7-13.154-7.353l-1.4-.829-1.36-.935c6.907,3.591,13.813,7.2,20.677,10.774.574.319,1.126.51,1.19.4s-.34-.446-.935-.786q-8.83-5.2-17.7-10.434c-2.954-1.743-5.971-3.421-8.925-5.206l-8.84-5.419c-3.655-2.784-7.31-5.568-11.029-8.373.51.3,1.02.6,1.53.871,6.482,3.8,12.283,7.672,18.021,11.539,5.759,3.8,11.56,7.417,17.851,11.072.319.191.6.3.68.255.064-.042-.128-.213-.446-.383-6.12-3.634-11.582-7.14-17.511-10.944-4.888-3.23-9.52-6.29-14-9.393,4.739,2.869,9.329,5.8,13.9,8.755,4.569,2.911,9.223,5.631,13.962,8.437a5.023,5.023,0,0,0,1.148.552c0,.042.085.128.191.213,1.126.808,2.38,1.636,3.655,2.465a2.047,2.047,0,0,0,.744.34c.17.021.043-.106-.234-.3ZM50.04,277.52c-.106-.021-.191-.042-.276-.064.276.106.574.234.914.361l1.445.234S51.081,277.8,50.04,277.52ZM36.185,267.213h0c-.489-.085-.829-.149-.829-.149C35.7,267.128,35.951,267.171,36.185,267.213Zm91.825,58.376c-5.015-3.018-10.073-5.823-15.216-8.5l3.591,2.21q5.77,3.124,11.6,6.269ZM39.053,273.419a28.911,28.911,0,0,0,3.868,1.211c.85.553,1.785,1.105,2.72,1.615,2.55,1.381,5.036,2.763,7.523,4-.4,0,.191.3.468.467l.893.531c-2.656-1.318-5.313-2.656-8.033-4.016-2.444-1.254-5.036-2.593-7.438-3.846ZM21.776,261.284s-.17-.064-.255-.106l.3.553a3.01,3.01,0,0,0-.043-.446Zm-.446-.893c.128.064.234.149.383.234A.356.356,0,0,0,21.33,260.392Zm3.421,2.083a3.426,3.426,0,0,1-.531-.213Zm6.822-5.015.489,1.934-.638-1.976h.149Z" transform="translate(-16.57 -256.002)" fill="#d5e3ff"/>
          </g>
        </g>
        <g id="Grupo_1073154-2" data-name="Grupo 1073154" transform="translate(0 37.081)">
          <path id="Trazado_773698-2" data-name="Trazado 773698" d="M23.765,270.992c.319.085.659.17.978.255a7.8,7.8,0,0,0-2.21-1.381c9.988,3.209,21.038,11.135,27.456,17.447,2.741,1.509,4.866,3.464,4.7,4.4-.191.935-2.656.489-5.419-1.041-.659-.255-1.4-.6-1.913-.722a92.809,92.809,0,0,1-15.513-5.419c1.148.361,2.338.744,3.485,1.105a44.913,44.913,0,0,1-4.951-2.338c.276-.021.553-.064.829-.085-5.844-2-12.814-6.524-15.577-10.115-2.784-3.613-.319-4.93,5.525-2.933l2.614.85Z" transform="translate(-14.481 -248.482)" fill="#d5e3ff"/>
          <path id="Trazado_773699-2" data-name="Trazado 773699" d="M35.12,284.475c-3.443-1.3-6.779-2.486-10.115-3.676l-.744-.085.893-1.084v.106c2.274,2.656,6.694,5.759,10.817,8.543l1.424,1.063a2.561,2.561,0,0,1,1,1.445c.021.786-1.636.553-3.676-.51l-2.359-1.233c-6.014-2.55-14.876-7.65-16.831-11.5-.425-.893.531-1.126,1-1.594.234-.914,2.763-.4,5.589,1.169,2.848,1.573,4.909,3.57,4.654,4.484.51.213,1.041.446,1.53.659l-.956-.935c.4,1.148,2.869,2.805,4.548,4.271l2.741,1.849-2.678.935-1.339-1.105a1.859,1.859,0,0,0,.425-.021c-2.529-2.146-4.909-4.208-7.82-6.312l-3.506-2.933c-.85-.956-.446-1.445.893-1.084l1.955.6c-.319-.064-.616-.149-.914-.213,4.229,1.891,8.585,4.059,12.793,5.908a3.829,3.829,0,0,1,1.615,1.169c.17.34-.213.4-.914.106Z" transform="translate(-13.425 -260.86)" fill="#d5e3ff"/>
          <g id="Grupo_1073153-2" data-name="Grupo 1073153" transform="translate(2.866)">
            <path id="Trazado_773700-2" data-name="Trazado 773700" d="M19.535,284.021a9.5,9.5,0,0,1-2.338-1c-.17-.213-.255-.319-.3-.383l1.445.4C19.386,283.341,19.748,283.788,19.535,284.021Z" transform="translate(-14.626 -268.8)" fill="#d5e3ff"/>
            <path id="Trazado_773701-2" data-name="Trazado 773701" d="M17.205,283.47c-.361-.106-.6-.17-.6-.17a3.131,3.131,0,0,1,.446.021c.085.064.085.085.085.085l.064.064Z" transform="translate(-14.952 -269.651)" fill="#d5e3ff"/>
            <path id="Trazado_773702-2" data-name="Trazado 773702" d="M99.786,226.745c12.963,6.184,25.65,12.538,38.422,18.977.425.213.744.489.7.616-.042.106-.425.043-.808-.149-12.793-6.418-25.395-12.729-38.358-18.913-.425-.213-.744-.489-.744-.638.042-.127.4-.085.808.106Z" transform="translate(77.744 -112.007)" fill="#d5e3ff"/>
            <path id="Trazado_773703-2" data-name="Trazado 773703" d="M146.648,217.664c-.255-.255-.17-.361.191-.276a2.867,2.867,0,0,1,1.02.574c.213.213.106.361-.191.276A2.51,2.51,0,0,1,146.648,217.664Z" transform="translate(131.186 -64.312)" fill="#d5e3ff"/>
            <path id="Trazado_773704-2" data-name="Trazado 773704" d="M296.129,349.157a52.328,52.328,0,0,1-4.526-3.421,2.646,2.646,0,0,0-.829-.446c.213-.128-.043-.489-.616-.914-5.8-4.293-11.986-8.458-18.3-12.623-6.375-4.016-12.942-7.863-19.4-11.815a1.316,1.316,0,0,0-.34-.744,12.135,12.135,0,0,0-4.378-3.1l-1.509-.638q-9.021-4.24-18.021-8.437a30.1,30.1,0,0,0-3.889-2.55c-4.76-3.251-9.52-6.46-14.472-9.563.4.043.68,0,.765-.191.106-.468-.935-1.4-2.338-2.1l-2.1-1.126,6.227,2.826a5.446,5.446,0,0,0,.85.34c2.231,1.148,4.463,2.3,6.737,3.528,19.763,10.88,37.784,22.122,55.337,33.9a2.509,2.509,0,0,0,1.063.531c.234,0,.276-.149-.043-.383-5.228-4.356-10.115-8.267-15.173-12.368-5.079-4.08-10.413-8.16-16.7-12.325-7.48-4.951-14.961-9.818-22.526-14.642-7.523-4.76-15.109-9.457-22.908-14.174-8.437-4.378-16.406-8.819-24.4-13.388-2-1.148-3.974-2.3-5.993-3.443-1.955-1.19-3.931-2.38-5.929-3.591q-5.961-3.6-12.134-7.332c-11.157-6.715-22.1-13.048-33.045-19.211-10.859-6.312-21.676-12.538-32.726-18.828-8.1-4.951-16.7-7.693-19.147-5.971-1.466,1.063-.361,3.528,2.55,6.439-.68-.383-1.36-.765-2.061-1.148l-3.379-1.573a25.932,25.932,0,0,0-8.267-2.55L51.68,207.8c-4.08.149-9.86-1.063-13.452-.51l.128,1.063-.7-.128c-2.231-.552-3.931-.595-4.8-.085l-.34,1a7.371,7.371,0,0,0,1.233,4.59,1.483,1.483,0,0,0-.106,1.424c-1.849.17-3.018.786-2.593,2.444-.935-.191-1.041.276-.234,1.041a7.377,7.377,0,0,0,1.041.786h0a9.7,9.7,0,0,1-1.466-.106l-1.318-.574q-2.189-1.041-4.08-1.934a15.75,15.75,0,0,0-2.954-.7q-2.635.616-2.784,1.466a3.44,3.44,0,0,0,.213.383c-1.509-.553-1.615-.6-2.019-.744a4.034,4.034,0,0,0-.808-.106.776.776,0,0,1-.6.34.68.68,0,0,0-.213.255q.531.871.489,1a4.5,4.5,0,0,0,.319.446c.829.637,1.148.914,1.3,1.02l2.486.149.234.574.7-.191-.489.255,1.126.319-1.318-.276q2.4,1.19,3.315,1.743a13.515,13.515,0,0,1,1.849,1.148.736.736,0,0,0-.213.17q2.571,1.254,5.058,2.486c.276.042.51.042.723.064a3.181,3.181,0,0,0,1.084.829l1.3.659s.17.149.234.213v.021c.383.319.659.553.956.808l.191.17h0c.659.553,1.615,1.36,4.144,3.506.786.382,1.509.722,2.21,1.02-.255-.064-.489-.106-.723-.17-.468-.106-.319.468-.553.383-5.716-2.3-11.624-5.291-17.532-8.16-1-.637-2.061-.977-2.38-.765-.3.213.276.914,1.3,1.551,10.413,8.543,24.524,16.491,37.359,21.7q4.877,2.423,9.775,4.845l-.553-.085,2.614,1.105.276.128-2.231-.4-1.4-.531c-7.5-3.889-14.833-6.63-22.186-10.052-3.974-1.828-7.565-3.081-11.39-4.675-.935-.489-1.7-.637-1.743-.3-.043.319.7,1,1.615,1.488,5.823,3.655,12.134,7.353,18.446,10.519a117.924,117.924,0,0,0,18.063,7.416,32.233,32.233,0,0,0,6.418,2.826l.106.042c-.553-.064-1.105-.149-1.658-.213,1.721.786,2.848.829,4.463,1.488l-.978.425c8.394,4.123,17.043,9.329,25.267,12.3.319.149.616.276.914.4a79.389,79.389,0,0,0,9.839,6.779l-4.038-1.891a76.725,76.725,0,0,0,8.33,5.185c8.2,4.356,17.957,8.16,23.312,8.522,7.8,4.484,15.726,8.607,23.61,12.9,7.884,4.271,15.726,8.543,23.525,12.9a2.766,2.766,0,0,0,1.891.531c.191-.17-.234-.68-1.02-1.126-10.965-6.694-22.271-13.091-33.661-19.445,9.86,4.611,19.763,9.287,29.709,14.344,1.254.68,2.486,1.381,3.74,2.061a41.661,41.661,0,0,0,3.8,1.828c12.687,6.545,24.609,12.665,37.125,19.933,10.647,6.248,20.018,11.667,30.389,18.233,14.408,9.372,27.456,17.978,42.183,26.266,1.913,1.169,3.974,1.785,4.548,1.339.574-.425-.553-1.743-2.486-2.911-14.9-9.5-29.624-19.062-44.691-28.455-15.343-9.053-31.111-17.872-47.666-26.372-3.591-1.828-7.1-3.613-10.6-5.419.085-.064.17-.106.213-.191.17-.319,0-.786-.446-1.318,4.016,1.934,8.075,3.91,12.156,5.865,10.774,6.481,21.548,12.984,33.555,18.849,4.123,2.019,8.118,3.8,12.07,5.525,3.889,1.764,7.714,3.528,11.582,5.27,9.138,5.61,18.276,11.22,27.5,16.873a1.855,1.855,0,0,0,.978.383c.191-.043.064-.255-.3-.51-6.1-4.335-12.453-8.607-18.913-12.857,1.254.234,2.146.128,2.338-.425.213-.574-.361-1.509-1.424-2.529l4.611,2.529c.956.51,1.806.723,1.934.446.128-.3-.51-.914-1.4-1.4q-9.372-5.2-18.743-10.37c-3.634-2.274-7.353-4.4-11.093-6.5s-7.48-4.208-11.22-6.333a5.139,5.139,0,0,0,2.869-.106h0c1.169.616,2.338,1.254,3.506,1.87Q268,344.96,283.8,354.683c10.583,6.4,21.378,12.623,32.365,18.594.425.234.829.34.914.234s-.191-.4-.574-.6q-9.945-5.419-19.7-11.072h.021c.3.085.425,0,.191-.276a2.7,2.7,0,0,0-1.02-.574c-.361-.085-.4.064-.191.276q-9.053-5.291-17.936-10.753c-2.954-1.828-5.887-3.676-8.819-5.5l-4.378-2.763-4.42-2.656c5.674,2.954,11.114,6.269,16.7,9.35q8.32,4.686,16.746,9.2c1.126.829,2.253,1.658,3.4,2.486a2.123,2.123,0,0,0,1,.361c.149-.043-.021-.3-.361-.531l-.956-.68c2.125,1.126,4.038,1.551,4.356.914.255-.7-1.275-2.21-3.485-3.4q-8.7-5.1-17.426-10.052l-1.828-1.169-1.743-1.36q13.866,7.2,27.669,14.387c.765.446,1.53.638,1.679.425s-.383-.744-1.148-1.19q-11.539-7.363-23.355-14.6l-11.858-7.2c-4-2.359-8.054-4.569-12.092-6.822q-7.332-5.674-14.769-11.454c.7.361,1.4.723,2.1,1.063,8.925,4.7,16.831,9.69,24.587,14.748,7.672,5.291,15.216,10.6,23.567,15.662a1.3,1.3,0,0,0,.935.3c.106-.085-.128-.361-.552-.6-8.118-5.036-15.194-10.243-23.1-15.534-6.609-4.229-12.963-8.16-19.02-12.283,6.524,3.591,12.793,7.332,19,11.114,6.141,3.974,12.262,7.948,18.552,11.837a4.746,4.746,0,0,0,1.551.723c0,.085.085.191.234.34,1.445,1.211,3.081,2.423,4.76,3.613a1.948,1.948,0,0,0,1.02.425c.234,0,.085-.213-.255-.51ZM61.286,239.631c-.149,0-.276-.042-.4-.042.383.128.808.255,1.275.425h2.1s-1.466-.191-2.954-.361ZM43.477,224.989Zm123.128,78.224c-6.949-3.634-13.983-6.822-21.06-10.03l4.909,2.869c5.334,2.444,10.732,4.824,16.151,7.183ZM46.134,235.4a32.477,32.477,0,0,0,5.419.956,34.533,34.533,0,0,0,3.549,2.21c3.379,1.849,6.737,3.57,10.052,5.228-.6.085.191.468.574.744l1.169.765c-3.57-1.7-7.162-3.4-10.817-5.121-3.273-1.573-6.737-3.4-9.924-4.76ZM23.077,220.462a2.148,2.148,0,0,1-.361-.064l.361.829v-.786Zm-.553-1.381c.17.064.34.149.531.213C22.992,219.017,22.779,219,22.524,219.081Zm4.8,2a3.912,3.912,0,0,1-.786-.106Zm11.114-12.028.383,3.358-.6-3.358Z" transform="translate(-15.83 -206.431)" fill="#d5e3ff"/>
          </g>
        </g>
      </g>
    </g>
    <g id="Enmascarar_grupo_1078941" data-name="Enmascarar grupo 1078941" transform="translate(0 17515.996)" clip-path="url(#clip-path-2)">
      <g id="Grupo_1097393" data-name="Grupo 1097393" transform="translate(-135.779 408.859)">
        <g id="Grupo_1097392" data-name="Grupo 1097392" transform="translate(1594.573 -83)">
          <path id="Trazado_863564" data-name="Trazado 863564" d="M-.033,24.056A6.188,6.188,0,0,1,5.8,18.227l11.958-.48L18.237,5.8A6.188,6.188,0,0,1,24.07-.033a5.1,5.1,0,0,1,5.384,5.38L28.974,17.3l11.954-.48a5.1,5.1,0,0,1,5.383,5.38,6.187,6.187,0,0,1-5.833,5.83l-11.954.48-.479,11.951a6.189,6.189,0,0,1-5.833,5.83,5.1,5.1,0,0,1-5.383-5.38l.479-11.951-11.958.48A5.1,5.1,0,0,1-.033,24.056ZM18.318,27.05a.849.849,0,0,1,.9.9L18.7,40.832a3.4,3.4,0,0,0,3.588,3.586,4.125,4.125,0,0,0,3.889-3.886l.517-12.884a1.03,1.03,0,0,1,.972-.972l12.889-.517a4.125,4.125,0,0,0,3.889-3.886,3.4,3.4,0,0,0-3.589-3.586L27.964,19.2a.849.849,0,0,1-.9-.9l.517-12.884A3.4,3.4,0,0,0,24,1.835a4.125,4.125,0,0,0-3.888,3.886L19.59,18.606a1.03,1.03,0,0,1-.972.972l-12.893.517a4.125,4.125,0,0,0-3.889,3.886,3.4,3.4,0,0,0,3.589,3.586Z" transform="translate(-15.564 459.18) rotate(-45)" fill="#bad1ff" fill-rule="evenodd"/>
          <path id="Trazado_865562" data-name="Trazado 865562" d="M460.225,82.728a57.17,57.17,0,0,0,8.631,4.8c.643.31,1.251.542,1.894.813.643.29,1.269.542,1.841.755,1.412.581,2.895,1.181,4.557,1.859l4.664-.407c7.541,3.544,2.895,2.9,8.077,5.964,3.628.716,8.845,2.653,13.474,4.279a96.787,96.787,0,0,0,10.221,3.214c2.252-.445-2.341-1.781-3.252-2.692,2.019.755,3.413,1.239,4.61,1.82,1.179.484,2.109.968,3.127,1.452a19.97,19.97,0,0,0,9.078,1.723l.143-.542a19.4,19.4,0,0,0,2.144.116l1.09.039h.5l.25.039,1.054.058h.715a2.56,2.56,0,0,0,2.52-1.723,4.423,4.423,0,0,0,.143-1.82,6.033,6.033,0,0,0-.143-.968c-.036-.194-.143-.484-.2-.736-.089-.31-.107-.426-.268-.871a112.707,112.707,0,0,0-4.682-10.863c-3.627-7.668-7.952-15.568-11.061-25.192-.393-1.181-.75-2.459-1.054-3.757-.339-1.239-.572-2.672-.822-4.028a42.412,42.412,0,0,1-.447-4.376,31.388,31.388,0,0,1,.214-4.8c.125-.833.214-1.723.411-2.556.214-.813.465-1.646.715-2.44a13.385,13.385,0,0,1,.947-2.4,20.716,20.716,0,0,1,1.019-1.975,24.558,24.558,0,0,1,5.915-7.145c-2.43,2.382-1.465,2.188-2.055,3.389a20.278,20.278,0,0,1,6.236-5,20.732,20.732,0,0,1,7.309-2.169,34.489,34.489,0,0,1,12.938,1.375c7.827,2.227,14.635,5.693,21.229,9q4.825,2.5,9.578,4.957c3.61,1.781,4.914,2.537,7.148,3.5a20.283,20.283,0,0,0,6.88,1.859,7.55,7.55,0,0,0,3.574-.7,8.02,8.02,0,0,0,2.7-2.42,7.343,7.343,0,0,0,1.573-4.957,16.447,16.447,0,0,0-1.179-4.88,22.927,22.927,0,0,1,2.395,5.112,9.36,9.36,0,0,1-.357,6.332,8.233,8.233,0,0,1-3.842,4.609,11.031,11.031,0,0,1-5.986.833,44.964,44.964,0,0,1-12.473-3.718,176.712,176.712,0,0,1-22.873-12.257c-3.413-.62-7.487-2.246-11.347-3.156-3.824-.949-7.505-.949-8.881.252a16.119,16.119,0,0,0-8.845,3.931,20.856,20.856,0,0,0-5,7.377,21.988,21.988,0,0,0-1.251,8.326,41.52,41.52,0,0,0,1.054,7.726c2.323,9.875,6.5,18.744,12.223,30.343,1.876,3.156,1.912,1.1,3.163,1.646,0,0-1.984-4.783-4.217-9.546-1.09-2.382-2.18-4.783-3-6.584-.8-1.8-1.34-3.021-1.34-3.021s1.555,2.788,3.181,5.538l3.234,5.48c-.876-2.672-3.038-6.913-4.753-10.785-1.751-3.873-2.948-7.436-2.484-8.5a99.418,99.418,0,0,0,5.736,14.232c2.377,5.035,5.093,10.263,7.255,15.723a40.143,40.143,0,0,1,2.52,8.5,13.519,13.519,0,0,1-.84,8.249,9.553,9.553,0,0,1-5.575,4.512c-.536.155-1.054.31-1.573.465a15.035,15.035,0,0,1-1.555.232c-.5.058-.983.116-1.465.174-.482,0-.947,0-1.412-.019a19.15,19.15,0,0,0,2.466-.62,15.3,15.3,0,0,0,2.5-.852,10.414,10.414,0,0,0,4.557-3.272,9.151,9.151,0,0,0,1.751-5.828,21.981,21.981,0,0,0-1.126-6.2c-1.537-3.292-4.539-8.559-5.164-7.726a82.119,82.119,0,0,1,2.448,8.229,15.555,15.555,0,0,1,.286,6.39,6.622,6.622,0,0,1-3.52,4.55,5.464,5.464,0,0,1-1.287.562,6.542,6.542,0,0,1-1.322.407l-1.34.31-1.5.194c-.876.155-2.323.213-3.538.329-1.269.136-2.52.039-3.806.077-1.269,0-2.573-.155-3.86-.232-1.3-.116-2.609-.329-3.931-.5a89,89,0,0,1-16.351-4.473c-5.647-2.072-13.474-4.938-14.724-4.4,3.681,1.743.59,1.414,3.556,3.021-7.934-3.853.3-3.563-11.758-7.707l.536,3.7a9.628,9.628,0,0,0-4.021-2.963c-.858-.368-1.769-.7-2.752-1.007-.929-.29-1.894-.581-2.877-.891-4-1.239-8.577-2.885-12.312-5.751-3.449-.194,1.733,3.156,7.952,6.08-7.362-2.692-7.237-4.88-13.063-7.474l4.414,5.131C451,90.066,444.857,90.86,441.1,90.512c-.107-.407.822-.813.786-1.472,0-.329-.286-.7-1.054-1.162a15.023,15.023,0,0,0-4.128-1.51c-3.645-.523-1.948.639-2.859.833a4.609,4.609,0,0,0-2.412-1.7,12.416,12.416,0,0,0-2.752-.852c-.554-.1-1.144-.194-1.787-.271-.643-.058-1.34-.039-2.073-.039-.518.484.465.813,1.59,1.142,1.108.368,2.359.852,2.5,1.336a33.01,33.01,0,0,0-5.129-.1h.018a11.318,11.318,0,0,0,1.7,5.712c1.072,3.757.679,3.331.071,2.827-.59-.581-1.34-1.317-.965.407,2.859,4.725,4.271,5.693,5.111,5.751.84.1,1.608-.755,3.735,1.956a76.824,76.824,0,0,0-2.537-8c-.625-1.627-1.287-3.369-1.894-5.093-.2-.813-.375-1.607-.572-2.4.036-.426.054-.833.054-1.239-1.519,1.762-3.02,3.544-4.36,5.093a24.731,24.731,0,0,1,7.9,1.452,32.67,32.67,0,0,0-7.863-.968l4.771-5.577V87.8l.643,2.343c.679,1.685,1.376,3.369,2.109,5.015.322-.6,2.806,3.524,4.217,6.041.715,1.239,1.287,2.227,1.537,2.227.143.019.2-.213.125-.794a15.112,15.112,0,0,0-.679-3.021,46.1,46.1,0,0,1,3.735,13.245,35.706,35.706,0,0,1,.268,7.126l-.071,1.046c-.036.329-.2.29-.286.465-.232.232-.447.465-.679.736-.465.484-.929,1.142-1.412,1.743-7.237-2.3-14.617-4.628-21.837-7.242-3.556-1.259-7.094-2.5-10.275-3.524-1.215-.407-2.412-.794-3.61-1.181-1.036-.329-2.055-.639-3.056-.949,2.126.116,4.861.6,4.575-.194-7.469-2.595-6.88-.891-8.542-.465a10.78,10.78,0,0,1-4.682-2.653,10.705,10.705,0,0,0-3.163-2.692c-.733.039-1.412.077-2.073.136-.625.039-1.054.116-1.537.174-.929.116-1.715.271-2.43.407a15.092,15.092,0,0,0-3.574,1.181,5.845,5.845,0,0,0-2.466,2.4,6.124,6.124,0,0,0-.107,4.686s-.5-.252-1.019-.5c-.5-.271-1-.562-1-.562.286,1.549.679,2.595.876,3.485.232.891.34,1.646.482,2.44a12.016,12.016,0,0,0,.786,2.614,17.1,17.1,0,0,0,2.538,3.815c.268.077.089-.62-.268-1.607-.179-.484-.393-1.065-.625-1.665-.2-.542-.268-.891-.393-1.336a13.209,13.209,0,0,0,1.769,3.04,17.618,17.618,0,0,0,1.823,1.936A19.48,19.48,0,0,1,384.815,131l-.858-2.924-.768-2.885c2.984,4.512,7.648,11.657,7.166,8.152a74.658,74.658,0,0,0,4.467,7.842c1.8,2.9,3.9,5.983,5.951,9.7a34.819,34.819,0,0,1,2.948,6.758,16.371,16.371,0,0,1,.7,5.732,10.7,10.7,0,0,1-.3,1.994,9.3,9.3,0,0,1-.733,2.111,10.616,10.616,0,0,1-2.573,3.544,11.446,11.446,0,0,1-5.236,2.633,18.054,18.054,0,0,1-3.717.387,27.017,27.017,0,0,1-5.682-.62l.768,1.743c-3.574-1.317-9.489-2.517-15.1-4.086-.7-.194-1.394-.407-2.091-.6l-1.019-.31c-.357-.1-1-.329-1.34-.445-1.5-.581-2.716-1.123-3.86-1.685a19.636,19.636,0,0,1-5.093-3.311l-1.072.271-10.7-6.893c-5.254-1.936-4.289,1.123-4.485.31-11.168-5-20.21-8.288-27.609-9.411-.232-1.181-2.412-2.575-5.861-3.582a20.441,20.441,0,0,0-5.736-.852,7.609,7.609,0,0,0-3,.562,3.936,3.936,0,0,0-2.144,2.053,7.1,7.1,0,0,0,.125,3.718,18.343,18.343,0,0,0,1.34,3.466,31.334,31.334,0,0,0,1.769,3.176l2.019,2.943,1,1.472c.357.523.59.91,1.126,1.588l2.877,3.757c1.841,2.537,3.967,4.976,6.058,7.455A298.55,298.55,0,0,0,341.463,202.3c19.21,17.253,39.456,32.8,57.594,48.176a66.75,66.75,0,0,1,6.326,5.906c2.162,2.3,4.378,4.822,6.63,7.319l1.019-3.33c-1.894-.387-3.842-2.014-7.148-2.42a20.984,20.984,0,0,1,2.716.252c.7.155,1.34.31,1.966.445.5.1,1.072.29,1.43.31.375.039.715.1,1.036.155-.608,1.956-1.2,3.911-1.715,5.6-3.663-3.059-5.432-5.267-11.383-9.8-6.63-4.376-10.2-4.221-16.44-7.165l3.77.542c-7.863-7.687-6.469-3.6-12.33-10.263l-1.3,2.711c-1.608-3.059-8.309-6.564-11.222-7.784l-1.126-3.427c-6.058-3.195-9.828-5.577-12.509-5.344l1.573-1.142a20.421,20.421,0,0,1-4.289-2.73c-1.966-1.53-4.324-3.35-6.415-4.957-4.2-3.214-7.452-5.519-5.254-1.51-1.287-1.685-2.144-3.621-5.593-6.39l-1.626,1.026c-2.234-2.382-4.664-4.822-6.719-6.816-2.037-2.033-3.788-3.5-4.789-3.757a12.031,12.031,0,0,1,2.913,5.732c-2.52-2.4-4.414-4.357-5.826-5.945a25.707,25.707,0,0,1-2.895-3.95c-1.179-2.072-1.09-3.1-.929-4.066a4.981,4.981,0,0,0-.429-3.64c-.786-1.859-2.609-4.55-6.5-9.391l-.7,1.046-2.966-6s-.322-.271-.822-.7c-.25-.213-.536-.465-.84-.716a7.317,7.317,0,0,1-1.019-.988l-3.091-3.66a29.689,29.689,0,0,0-1.948-5.286A37.9,37.9,0,0,1,288.1,154a31.71,31.71,0,0,1-1.5-7.261,12.37,12.37,0,0,1,1.662-7.881,12.594,12.594,0,0,1,6.362-4.609,23.939,23.939,0,0,1,8.023-1.22,39.353,39.353,0,0,1,8.631,1.084c1.394.31,2.77.716,4.056,1.1q.965.32,1.876.639a11.83,11.83,0,0,1,1.376.581c5.325,1.84,12.991,1.743,22.748,5.828L340.1,143.82c4.253.581,13.777,3.64,23.159,6.467,2.341.7,4.682,1.375,6.826,1.917.518.116,1.036.232,1.537.349a4.675,4.675,0,0,0,1.161.155,1.721,1.721,0,0,1,.59.039l.768.077c.518.039,1.019.1,1.5.136,3.931.29,7.112.058,8.9-.716,6.111,2.517-.661.329-.876,1.762a21.866,21.866,0,0,0,6.915,1.549,3,3,0,0,0,.733-.1.48.48,0,0,0,.2-.077c.036.077-.089-.484.179.852a15.69,15.69,0,0,0,2.162,6.1c.608.813.768.523-.107.349a10.172,10.172,0,0,0-4.592.426,31.113,31.113,0,0,0-3.913,1.239c-.071.058-.2,0-.322-.058a5.187,5.187,0,0,1-1-.988c-.59-1.53-.893-2.246-.7-2.188a6.424,6.424,0,0,1,1.215,1.394c1.072,1.472,1.5,2.014,1.787.871-.715-1.046-1.3-1.936-1.841-2.711-.608-.929-1.179-1.82-1.662-2.653-.983-1.665-1.662-3.1-2.43-4.628-1.537-3.137-3.431-6.448-9.578-13.942-1.912-.91,2.394,4.57,3.056,6.525-1.644-3-3.878-6.467-6.451-10.631-.643-1.065-1.3-2.169-1.966-3.292-.375-.658-.751-1.3-1.126-1.975-.518-.929-.983-1.859-1.483-2.788a37.215,37.215,0,0,1-3.913-12.063,22.506,22.506,0,0,1,.107-6.293,21.964,21.964,0,0,1,1.662-6.1l.661-1.433c.268-.445.554-.891.84-1.317a18.857,18.857,0,0,1,1.912-2.44,29.624,29.624,0,0,1,2.216-2.111c.822-.6,1.68-1.142,2.52-1.685A26.754,26.754,0,0,1,380.6,90.57a28.308,28.308,0,0,1,3.145-.1c.983,0,2.252,0,2.859.058,1.412.1,2.77.232,4.056.407a94.354,94.354,0,0,1,9.864,1.162c1.662.29,3.377.6,5.075.968.858.174,1.715.368,2.573.562l1.161.252.322.039a19.965,19.965,0,0,0,3.038.1.713.713,0,0,0,.3-.077s.054,0,.054-.039l-.054-.194a3.4,3.4,0,0,0-.143-.387,4.568,4.568,0,0,0-.858-1.2c-.3-.329-.572-.6-.786-.794l-.3-.271s-.143-.349-.2-.5a5.363,5.363,0,0,1-.089-.736l-.107-1.046-.161-2.091-.983-13.148,13.277-1.239a52.857,52.857,0,0,1,6.648-.31l.572.736c7-.31,13.4,1.723,19.281,4.105,5.808,2.44,11.294,5.364,16.708,7.455l-5.682-1.568Z" transform="translate(-286.55 -26.44)" fill="#ffb6c8"/>
        </g>
        <g id="Grupo_1097391" data-name="Grupo 1097391" transform="translate(8 -382.065)">
          <path id="Trazado_863566" data-name="Trazado 863566" d="M-.033,24.056A6.188,6.188,0,0,1,5.8,18.227l11.958-.48L18.237,5.8A6.188,6.188,0,0,1,24.07-.033a5.1,5.1,0,0,1,5.384,5.38L28.974,17.3l11.954-.48a5.1,5.1,0,0,1,5.383,5.38,6.187,6.187,0,0,1-5.833,5.83l-11.954.48-.479,11.951a6.189,6.189,0,0,1-5.833,5.83,5.1,5.1,0,0,1-5.383-5.38l.479-11.951-11.958.48A5.1,5.1,0,0,1-.033,24.056ZM18.318,27.05a.849.849,0,0,1,.9.9L18.7,40.832a3.4,3.4,0,0,0,3.588,3.586,4.125,4.125,0,0,0,3.889-3.886l.517-12.884a1.03,1.03,0,0,1,.972-.972l12.889-.517a4.125,4.125,0,0,0,3.889-3.886,3.4,3.4,0,0,0-3.589-3.586L27.964,19.2a.849.849,0,0,1-.9-.9l.517-12.884A3.4,3.4,0,0,0,24,1.835a4.125,4.125,0,0,0-3.888,3.886L19.59,18.606a1.03,1.03,0,0,1-.972.972l-12.893.517a4.125,4.125,0,0,0-3.889,3.886,3.4,3.4,0,0,0,3.589,3.586Z" transform="translate(176.57 242.826) rotate(-45)" fill="#bad1ff" fill-rule="evenodd"/>
        </g>
      </g>
    </g>
    <g id="Grupo_1110610" data-name="Grupo 1110610" transform="translate(1486.494 19549.141)">
      <g id="Grupo_1110607" data-name="Grupo 1110607" transform="translate(80.3 0)">
        <path id="Trazado_914092" data-name="Trazado 914092" d="M22.5,308.787c.234.106.468.234.7.34a10.234,10.234,0,0,0-1.636-1.275c1.785,1.02,3.676,2.083,5.589,3.23,1.891,1.148,3.8,2.423,5.631,3.719a113.073,113.073,0,0,1,9.775,7.2c2.1,1.148,3.8,2.486,3.783,3s-1.764-.021-3.91-1.19c-.489-.213-1.063-.489-1.424-.616a88.336,88.336,0,0,1-11.582-5.185c.85.425,1.743.786,2.593,1.148a29.751,29.751,0,0,1-3.761-2.125c.191.021.383.064.6.085a54.224,54.224,0,0,1-6.822-4.1,33.5,33.5,0,0,1-5.164-4.739c-2.21-2.72-.51-2.911,3.74-.531l1.891,1.041Z" transform="translate(-15.893 -298.723)" fill="#a7f7dd"/>
        <path id="Trazado_914093" data-name="Trazado 914093" d="M30.731,318.927c-2.508-1.318-4.973-2.465-7.374-3.783l-.531-.191.553-.468v.064c1.743,2,5.164,4.4,8.288,6.694l1.105.829a2.328,2.328,0,0,1,.85.956c.106.425-1.105.149-2.635-.808L29.2,321.137a60.666,60.666,0,0,1-7.459-4.739,23.823,23.823,0,0,1-5.228-5.058c-.361-.6.319-.531.616-.7.128-.489,1.913.34,3.974,1.828s3.613,3.081,3.528,3.528c.383.213.765.425,1.126.637l-.744-.7c.361.723,2.231,2.061,3.549,3.188l2.083,1.509-1.806.106-1.041-.85a1.052,1.052,0,0,1,.3.064c-1.955-1.7-3.846-3.1-5.993-4.994l-2.635-2.423c-.659-.744-.383-.914.553-.446l1.4.744c-.213-.106-.425-.213-.659-.319,1.53.956,3.06,2.04,4.633,2.954s3.145,1.806,4.7,2.7a4.859,4.859,0,0,1,1.233.914c.149.234-.106.191-.616-.085Z" transform="translate(-15.311 -306.122)" fill="#a7f7dd"/>
        <g id="Grupo_1110606" data-name="Grupo 1110606" transform="translate(1.438)">
          <path id="Trazado_914094" data-name="Trazado 914094" d="M19.3,317.289a11.079,11.079,0,0,1-1.679-1.063c-.128-.149-.191-.234-.234-.276.276.149.659.34,1.02.531.744.382,1.02.7.893.808Z" transform="translate(-15.647 -311.773)" fill="#a7f7dd"/>
          <path id="Trazado_914095" data-name="Trazado 914095" d="M17.615,316.793l-.425-.212c.106.042.213.064.319.106l.064.064.043.042Z" transform="translate(-15.872 -312.616)" fill="#a7f7dd"/>
          <path id="Trazado_914096" data-name="Trazado 914096" d="M78.534,271.716c9.308,5.334,18.658,10.689,27.966,16.023.319.17.553.383.531.446,0,.064-.276-.021-.574-.191-9.329-5.334-18.616-10.668-27.945-16a1.449,1.449,0,0,1-.553-.467c0-.064.255,0,.553.17Z" transform="translate(52.499 -188.23)" fill="#a7f7dd"/>
          <path id="Trazado_914097" data-name="Trazado 914097" d="M112.563,263.018c-.191-.17-.149-.234.106-.149a2.491,2.491,0,0,1,.765.425c.17.149.128.213-.106.128a3.263,3.263,0,0,1-.765-.425Z" transform="translate(91.297 -145.064)" fill="#a7f7dd"/>
          <path id="Trazado_914098" data-name="Trazado 914098" d="M220.919,368.24c-1.275-.808-2.465-1.594-3.485-2.359a4.443,4.443,0,0,0-.616-.34c.128-.042-.064-.276-.531-.574-4.42-2.954-9.138-5.823-13.856-8.819-4.718-3.039-9.478-6.12-14.217-9.18,0-.106-.106-.255-.276-.468a12.961,12.961,0,0,0-3.23-2.316l-1.084-.553c-4.335-2.38-8.649-4.739-12.984-7.119a32.8,32.8,0,0,0-2.848-1.934c-3.485-2.465-6.992-4.951-10.6-7.417.276.085.468.085.51,0,.042-.234-.723-.914-1.743-1.509l-1.53-.935,4.484,2.486c.213.128.425.234.6.319,1.594.977,3.23,1.955,4.866,2.954,14.323,8.734,27.456,17.447,40.462,26.245a3.065,3.065,0,0,0,.786.4c.17.021.17-.064-.064-.212-7.969-5.929-14.514-11.624-23.737-17.914-10.965-7.438-21.825-14.9-33.215-22.441-12.2-7.4-23.27-14.578-35.616-22.313C104.634,289,96.58,284.087,88.249,278.986c-8.373-4.951-16.852-9.563-25.1-14.132-6.12-3.613-12.156-5.929-13.6-5.249-.871.446.042,1.955,2.338,3.846l-1.509-.829-2.423-1.233a27.118,27.118,0,0,0-5.759-2.338l-1.934-.489c-2.678-.446-6.588-1.934-8.989-2.125l.149.616-.489-.17c-1.551-.637-2.614-1-3.188-.85l-.17.51a4.775,4.775,0,0,0,1.063,2.848c-.17.149-.149.425,0,.786-1.254-.17-2-.064-1.615.978-.638-.276-.7,0-.085.553a7.993,7.993,0,0,0,.765.595h0c-.4-.106-.51-.128-1.02-.276-.6-.361-.935-.574-.935-.574q-1.53-1.02-2.869-1.891a18.116,18.116,0,0,0-2.061-.978c-1.785-.17-1.806-.17-1.849.3l.17.276c-1.063-.616-1.148-.659-1.445-.829a5.971,5.971,0,0,0-.574-.234.444.444,0,0,1-.4.064.221.221,0,0,0-.149.106,2.338,2.338,0,0,1,.383.659,2.406,2.406,0,0,0,.234.319c.616.531.85.765.956.85l1.743.6.191.383.489.042-.319.042.786.4-.935-.425q1.721,1.169,2.4,1.658a12.26,12.26,0,0,1,1.339,1.041c-.106,0-.128.064-.128.064,1.849,1.233,1.87,1.169,3.719,2.274.191.064.361.106.51.149a3.292,3.292,0,0,0,.829.638l.956.574.191.17h0c.3.255.51.425.744.616l.149.128h0c.51.4,1.233,1.084,3.209,2.614.574.3,1.126.6,1.658.871l-.51-.191c-.34-.106-.17.234-.34.149-2.125-.977-4.271-2.253-6.439-3.506-2.168-1.3-4.4-2.529-6.524-4.016a4.1,4.1,0,0,0-1.7-.935c-.191.064.234.574,1,1.169,7.863,7.013,18.85,13.388,28.306,17.6,2.423,1.233,4.845,2.444,7.289,3.676l-.383-.106,1.934.871.213.106-1.594-.446-1.02-.446c-5.61-2.89-10.965-5.228-16.533-8.012-3-1.573-5.653-2.741-8.543-4.165-.7-.446-1.275-.638-1.275-.468s.6.7,1.3,1.126c9.01,5.886,19.615,11.433,27.477,14.281a34.78,34.78,0,0,0,4.7,2.189l.085.042c-.383-.085-.765-.191-1.169-.276,1.275.6,2.04.744,3.209,1.254l-.616.149c6.184,3.081,12.5,6.8,18.233,9.563.234.128.425.234.638.34a81.024,81.024,0,0,0,7.268,5.015c-.978-.531-1.934-1.041-2.911-1.551,1.955,1.36,3.931,2.678,6.142,3.953,5.971,3.464,12.963,6.822,16.682,7.714,11.475,6.864,22.887,13.919,34.193,21.017a3.131,3.131,0,0,0,1.339.574c.128-.064-.191-.4-.786-.786-7.99-5.313-16.172-10.54-24.439-15.7,7.1,3.974,14.2,8.033,21.378,12.283.893.553,1.806,1.126,2.72,1.7.893.553,1.806,1.063,2.741,1.573,4.569,2.741,9.01,5.419,13.494,8.1,4.505,2.678,9.01,5.4,13.622,8.288,7.884,4.951,14.769,9.329,22.568,14.366,11.178,6.779,21.357,13.005,32.705,19.232,1.488.871,3,1.424,3.315,1.233.34-.191-.616-1.063-2.125-1.913-11.56-6.928-23.036-13.792-34.6-20.7-11.39-7.162-22.972-14.281-35.085-21.315-2.593-1.53-5.143-3.039-7.693-4.548a.143.143,0,0,0,.128-.085c.085-.149-.064-.446-.4-.808,2.89,1.679,5.823,3.379,8.8,5.015,7.948,5.1,15.917,10.222,24.715,15.152,6.035,3.379,11.582,6.29,17.426,8.989q10.519,6.12,21.123,12.3a2.114,2.114,0,0,0,.723.319c.128,0,0-.149-.276-.319-4.76-3.06-9.669-6.12-14.663-9.159.914.255,1.509.3,1.594,0s-.4-.871-1.275-1.551l3.485,1.891c.723.383,1.339.6,1.381.446.064-.149-.446-.553-1.126-.935q-7.108-3.857-14.174-7.693c-5.5-3.379-10.965-6.737-16.469-10.115a4.572,4.572,0,0,0,1.976.319h0l2.571,1.53c3.825,2.486,7.672,4.994,11.582,7.438l11.985,7.013c8.054,4.654,16.257,9.223,24.545,13.686.319.17.616.276.659.212s-.191-.255-.489-.4q-7.523-4.048-14.9-8.182h.021c.212.085.3.042.106-.128a2.705,2.705,0,0,0-.765-.425c-.255-.085-.276,0-.106.128q-6.885-3.857-13.643-7.82c-4.526-2.614-8.989-5.27-13.282-8.1,2.061,1.211,4.1,2.465,6.184,3.655l6.29,3.464,12.623,6.822c.871.574,1.743,1.148,2.635,1.743a2.239,2.239,0,0,0,.723.3c.106,0-.064-.17-.3-.34l-.744-.489c1.594.85,2.954,1.275,3.1.935.085-.361-1.148-1.36-2.805-2.253q-6.6-3.7-13.154-7.353l-1.4-.829-1.36-.935c6.907,3.591,13.813,7.2,20.677,10.774.574.319,1.126.51,1.19.4s-.34-.446-.935-.786q-8.83-5.2-17.7-10.434c-2.954-1.743-5.971-3.421-8.925-5.206l-8.84-5.419c-3.655-2.784-7.31-5.568-11.029-8.373.51.3,1.02.6,1.53.871,6.482,3.8,12.283,7.672,18.021,11.539,5.759,3.8,11.56,7.417,17.851,11.072.319.191.6.3.68.255.064-.042-.128-.213-.446-.383-6.12-3.634-11.582-7.14-17.511-10.944-4.888-3.23-9.52-6.29-14-9.393,4.739,2.869,9.329,5.8,13.9,8.755,4.569,2.911,9.223,5.631,13.962,8.437a5.023,5.023,0,0,0,1.148.552c0,.042.085.128.191.213,1.126.808,2.38,1.636,3.655,2.465a2.047,2.047,0,0,0,.744.34c.17.021.043-.106-.234-.3ZM50.04,277.52c-.106-.021-.191-.042-.276-.064.276.106.574.234.914.361l1.445.234S51.081,277.8,50.04,277.52ZM36.185,267.213h0c-.489-.085-.829-.149-.829-.149C35.7,267.128,35.951,267.171,36.185,267.213Zm91.825,58.376c-5.015-3.018-10.073-5.823-15.216-8.5l3.591,2.21q5.77,3.124,11.6,6.269ZM39.053,273.419a28.911,28.911,0,0,0,3.868,1.211c.85.553,1.785,1.105,2.72,1.615,2.55,1.381,5.036,2.763,7.523,4-.4,0,.191.3.468.467l.893.531c-2.656-1.318-5.313-2.656-8.033-4.016-2.444-1.254-5.036-2.593-7.438-3.846ZM21.776,261.284s-.17-.064-.255-.106l.3.553a3.01,3.01,0,0,0-.043-.446Zm-.446-.893c.128.064.234.149.383.234A.356.356,0,0,0,21.33,260.392Zm3.421,2.083a3.426,3.426,0,0,1-.531-.213Zm6.822-5.015.489,1.934-.638-1.976h.149Z" transform="translate(-16.57 -256.002)" fill="#a7f7dd"/>
        </g>
      </g>
      <g id="Grupo_1110609" data-name="Grupo 1110609" transform="translate(0 37.081)">
        <path id="Trazado_914099" data-name="Trazado 914099" d="M23.765,270.992c.319.085.659.17.978.255a7.8,7.8,0,0,0-2.21-1.381c9.988,3.209,21.038,11.135,27.456,17.447,2.741,1.509,4.866,3.464,4.7,4.4-.191.935-2.656.489-5.419-1.041-.659-.255-1.4-.6-1.913-.722a92.809,92.809,0,0,1-15.513-5.419c1.148.361,2.338.744,3.485,1.105a44.913,44.913,0,0,1-4.951-2.338c.276-.021.553-.064.829-.085-5.844-2-12.814-6.524-15.577-10.115-2.784-3.613-.319-4.93,5.525-2.933l2.614.85Z" transform="translate(-14.481 -248.482)" fill="#a7f7dd"/>
        <path id="Trazado_914100" data-name="Trazado 914100" d="M35.12,284.475c-3.443-1.3-6.779-2.486-10.115-3.676l-.744-.085.893-1.084v.106c2.274,2.656,6.694,5.759,10.817,8.543l1.424,1.063a2.561,2.561,0,0,1,1,1.445c.021.786-1.636.553-3.676-.51l-2.359-1.233c-6.014-2.55-14.876-7.65-16.831-11.5-.425-.893.531-1.126,1-1.594.234-.914,2.763-.4,5.589,1.169,2.848,1.573,4.909,3.57,4.654,4.484.51.213,1.041.446,1.53.659l-.956-.935c.4,1.148,2.869,2.805,4.548,4.271l2.741,1.849-2.678.935-1.339-1.105a1.859,1.859,0,0,0,.425-.021c-2.529-2.146-4.909-4.208-7.82-6.312l-3.506-2.933c-.85-.956-.446-1.445.893-1.084l1.955.6c-.319-.064-.616-.149-.914-.213,4.229,1.891,8.585,4.059,12.793,5.908a3.829,3.829,0,0,1,1.615,1.169c.17.34-.213.4-.914.106Z" transform="translate(-13.425 -260.86)" fill="#a7f7dd"/>
        <g id="Grupo_1110608" data-name="Grupo 1110608" transform="translate(2.866)">
          <path id="Trazado_914101" data-name="Trazado 914101" d="M19.535,284.021a9.5,9.5,0,0,1-2.338-1c-.17-.213-.255-.319-.3-.383l1.445.4C19.386,283.341,19.748,283.788,19.535,284.021Z" transform="translate(-14.626 -268.8)" fill="#a7f7dd"/>
          <path id="Trazado_914102" data-name="Trazado 914102" d="M17.205,283.47c-.361-.106-.6-.17-.6-.17a3.131,3.131,0,0,1,.446.021c.085.064.085.085.085.085l.064.064Z" transform="translate(-14.952 -269.652)" fill="#a7f7dd"/>
          <path id="Trazado_914103" data-name="Trazado 914103" d="M99.786,226.745c12.963,6.184,25.65,12.538,38.422,18.977.425.213.744.489.7.616-.042.106-.425.043-.808-.149-12.793-6.418-25.395-12.729-38.358-18.913-.425-.213-.744-.489-.744-.638.042-.127.4-.085.808.106Z" transform="translate(77.744 -112.007)" fill="#a7f7dd"/>
          <path id="Trazado_914104" data-name="Trazado 914104" d="M146.648,217.664c-.255-.255-.17-.361.191-.276a2.867,2.867,0,0,1,1.02.574c.213.213.106.361-.191.276A2.51,2.51,0,0,1,146.648,217.664Z" transform="translate(131.186 -64.312)" fill="#a7f7dd"/>
          <path id="Trazado_914105" data-name="Trazado 914105" d="M296.129,349.157a52.328,52.328,0,0,1-4.526-3.421,2.646,2.646,0,0,0-.829-.446c.213-.128-.043-.489-.616-.914-5.8-4.293-11.986-8.458-18.3-12.623-6.375-4.016-12.942-7.863-19.4-11.815a1.316,1.316,0,0,0-.34-.744,12.135,12.135,0,0,0-4.378-3.1l-1.509-.638q-9.021-4.24-18.021-8.437a30.1,30.1,0,0,0-3.889-2.55c-4.76-3.251-9.52-6.46-14.472-9.563.4.043.68,0,.765-.191.106-.468-.935-1.4-2.338-2.1l-2.1-1.126,6.227,2.826a5.446,5.446,0,0,0,.85.34c2.231,1.148,4.463,2.3,6.737,3.528,19.763,10.88,37.784,22.122,55.337,33.9a2.509,2.509,0,0,0,1.063.531c.234,0,.276-.149-.043-.383-5.228-4.356-10.115-8.267-15.173-12.368-5.079-4.08-10.413-8.16-16.7-12.325-7.48-4.951-14.961-9.818-22.526-14.642-7.523-4.76-15.109-9.457-22.908-14.174-8.437-4.378-16.406-8.819-24.4-13.388-2-1.148-3.974-2.3-5.993-3.443-1.955-1.19-3.931-2.38-5.929-3.591q-5.961-3.6-12.134-7.332c-11.157-6.715-22.1-13.048-33.045-19.211-10.859-6.312-21.676-12.538-32.726-18.828-8.1-4.951-16.7-7.693-19.147-5.971-1.466,1.063-.361,3.528,2.55,6.439-.68-.383-1.36-.765-2.061-1.148l-3.379-1.573a25.932,25.932,0,0,0-8.267-2.55L51.68,207.8c-4.08.149-9.86-1.063-13.452-.51l.128,1.063-.7-.128c-2.231-.552-3.931-.595-4.8-.085l-.34,1a7.371,7.371,0,0,0,1.233,4.59,1.483,1.483,0,0,0-.106,1.424c-1.849.17-3.018.786-2.593,2.444-.935-.191-1.041.276-.234,1.041a7.377,7.377,0,0,0,1.041.786h0a9.7,9.7,0,0,1-1.466-.106l-1.318-.574q-2.189-1.041-4.08-1.934a15.75,15.75,0,0,0-2.954-.7q-2.635.616-2.784,1.466a3.44,3.44,0,0,0,.213.383c-1.509-.553-1.615-.6-2.019-.744a4.034,4.034,0,0,0-.808-.106.776.776,0,0,1-.6.34.68.68,0,0,0-.213.255q.531.871.489,1a4.5,4.5,0,0,0,.319.446c.829.637,1.148.914,1.3,1.02l2.486.149.234.574.7-.191-.489.255,1.126.319-1.318-.276q2.4,1.19,3.315,1.743a13.515,13.515,0,0,1,1.849,1.148.736.736,0,0,0-.213.17q2.571,1.254,5.058,2.486c.276.042.51.042.723.064a3.181,3.181,0,0,0,1.084.829l1.3.659s.17.149.234.213v.021c.383.319.659.553.956.808l.191.17h0c.659.553,1.615,1.36,4.144,3.506.786.382,1.509.722,2.21,1.02-.255-.064-.489-.106-.723-.17-.468-.106-.319.468-.553.383-5.716-2.3-11.624-5.291-17.532-8.16-1-.637-2.061-.977-2.38-.765-.3.213.276.914,1.3,1.551,10.413,8.543,24.524,16.491,37.359,21.7q4.877,2.423,9.775,4.845l-.553-.085,2.614,1.105.276.128-2.231-.4-1.4-.531c-7.5-3.889-14.833-6.63-22.186-10.052-3.974-1.828-7.565-3.081-11.39-4.675-.935-.489-1.7-.637-1.743-.3-.043.319.7,1,1.615,1.488,5.823,3.655,12.134,7.353,18.446,10.519a117.925,117.925,0,0,0,18.063,7.416,32.233,32.233,0,0,0,6.418,2.826l.106.042c-.553-.064-1.105-.149-1.658-.213,1.721.786,2.848.829,4.463,1.488l-.978.425c8.394,4.123,17.043,9.329,25.267,12.3.319.149.616.276.914.4a79.389,79.389,0,0,0,9.839,6.779l-4.038-1.891a76.725,76.725,0,0,0,8.33,5.185c8.2,4.356,17.957,8.16,23.312,8.522,7.8,4.484,15.726,8.607,23.61,12.9,7.884,4.271,15.726,8.543,23.525,12.9a2.766,2.766,0,0,0,1.891.531c.191-.17-.234-.68-1.02-1.126-10.965-6.694-22.271-13.091-33.661-19.445,9.86,4.611,19.763,9.287,29.709,14.344,1.254.68,2.486,1.381,3.74,2.061a41.661,41.661,0,0,0,3.8,1.828c12.687,6.545,24.609,12.665,37.125,19.933,10.647,6.248,20.018,11.667,30.389,18.233,14.408,9.372,27.456,17.978,42.183,26.266,1.913,1.169,3.974,1.785,4.548,1.339.574-.425-.553-1.743-2.486-2.911-14.9-9.5-29.624-19.062-44.691-28.455-15.343-9.053-31.111-17.872-47.666-26.372-3.591-1.828-7.1-3.613-10.6-5.419.085-.064.17-.106.213-.191.17-.319,0-.786-.446-1.318,4.016,1.934,8.075,3.91,12.156,5.865,10.774,6.481,21.548,12.984,33.555,18.849,4.123,2.019,8.118,3.8,12.07,5.525,3.889,1.764,7.714,3.528,11.582,5.27,9.138,5.61,18.276,11.22,27.5,16.873a1.855,1.855,0,0,0,.978.383c.191-.043.064-.255-.3-.51-6.1-4.335-12.453-8.607-18.913-12.857,1.254.234,2.146.128,2.338-.425.213-.574-.361-1.509-1.424-2.529l4.611,2.529c.956.51,1.806.723,1.934.446.128-.3-.51-.914-1.4-1.4q-9.372-5.2-18.743-10.37c-3.634-2.274-7.353-4.4-11.093-6.5s-7.48-4.208-11.22-6.333a5.139,5.139,0,0,0,2.869-.106h0c1.169.616,2.338,1.254,3.506,1.87Q268,344.96,283.8,354.683c10.583,6.4,21.378,12.623,32.365,18.594.425.234.829.34.914.234s-.191-.4-.574-.6q-9.945-5.419-19.7-11.072h.021c.3.085.425,0,.191-.276a2.7,2.7,0,0,0-1.02-.574c-.361-.085-.4.064-.191.276q-9.053-5.291-17.936-10.753c-2.954-1.828-5.887-3.676-8.819-5.5l-4.378-2.763-4.42-2.656c5.674,2.954,11.114,6.269,16.7,9.35q8.32,4.686,16.746,9.2c1.126.829,2.253,1.658,3.4,2.486a2.123,2.123,0,0,0,1,.361c.149-.043-.021-.3-.361-.531l-.956-.68c2.125,1.126,4.038,1.551,4.356.914.255-.7-1.275-2.21-3.485-3.4q-8.7-5.1-17.426-10.052l-1.828-1.169-1.743-1.36q13.866,7.2,27.669,14.387c.765.446,1.53.638,1.679.425s-.383-.744-1.148-1.19q-11.539-7.363-23.355-14.6l-11.858-7.2c-4-2.359-8.054-4.569-12.092-6.822q-7.332-5.674-14.769-11.454c.7.361,1.4.723,2.1,1.063,8.925,4.7,16.831,9.69,24.587,14.748,7.672,5.291,15.216,10.6,23.567,15.662a1.3,1.3,0,0,0,.935.3c.106-.085-.128-.361-.552-.6-8.118-5.036-15.194-10.243-23.1-15.534-6.609-4.229-12.963-8.16-19.02-12.283,6.524,3.591,12.793,7.332,19,11.114,6.141,3.974,12.262,7.948,18.552,11.837a4.746,4.746,0,0,0,1.551.723c0,.085.085.191.234.34,1.445,1.211,3.081,2.423,4.76,3.613a1.948,1.948,0,0,0,1.02.425c.234,0,.085-.213-.255-.51ZM61.286,239.631c-.149,0-.276-.042-.4-.042.383.128.808.255,1.275.425h2.1s-1.466-.191-2.954-.361ZM43.477,224.989Zm123.128,78.224c-6.949-3.634-13.983-6.822-21.06-10.03l4.909,2.869c5.334,2.444,10.732,4.824,16.151,7.183ZM46.134,235.4a32.477,32.477,0,0,0,5.419.956,34.533,34.533,0,0,0,3.549,2.21c3.379,1.849,6.737,3.57,10.052,5.228-.6.085.191.468.574.744l1.169.765c-3.57-1.7-7.162-3.4-10.817-5.121-3.273-1.573-6.737-3.4-9.924-4.76ZM23.077,220.462a2.148,2.148,0,0,1-.361-.064l.361.829v-.786Zm-.553-1.381c.17.064.34.149.531.213C22.992,219.017,22.779,219,22.524,219.081Zm4.8,2a3.912,3.912,0,0,1-.786-.106Zm11.114-12.028.383,3.358-.6-3.358Z" transform="translate(-15.83 -206.431)" fill="#a7f7dd"/>
        </g>
      </g>
    </g>
    <g id="Enmascarar_grupo_1079088" data-name="Enmascarar grupo 1079088" transform="translate(0 19656.266)" clip-path="url(#clip-path-3)">
      <g id="Grupo_1110605" data-name="Grupo 1110605" transform="translate(0 0)">
        <g id="Enmascarar_grupo_1079087" data-name="Enmascarar grupo 1079087" clip-path="url(#clip-path-4)">
          <path id="Placeholder-3" data-name="Placeholder" d="M0-650H1600V226.084H0Z" transform="translate(0 625.998)" opacity="0.13" fill="url(#linear-gradient)"/>
        </g>
        <rect id="Rectángulo_407255" data-name="Rectángulo 407255" width="1600" height="100" fill="url(#linear-gradient-2)"/>
      </g>
      <path id="Trazado_914086" data-name="Trazado 914086" d="M431.286,78.385a58.741,58.741,0,0,1-8.631,4.432c-.643.286-1.251.5-1.894.751-.643.268-1.269.5-1.841.7-1.412.536-2.895,1.09-4.557,1.715L409.7,85.6c-7.541,3.27-2.895,2.68-8.077,5.5a124.877,124.877,0,0,0-13.474,3.949,102.84,102.84,0,0,1-10.221,2.966c-2.252-.411,2.341-1.644,3.252-2.484-2.019.7-3.413,1.144-4.61,1.68-1.179.447-2.109.893-3.127,1.34a21.4,21.4,0,0,1-9.078,1.59l-.143-.5a21,21,0,0,1-2.144.107l-1.09.036h-.5l-.25.036-1.054.054h-.715a2.567,2.567,0,0,1-2.52-1.59,3.78,3.78,0,0,1-.143-1.68,5.168,5.168,0,0,1,.143-.893c.036-.179.143-.447.2-.679a8.367,8.367,0,0,1,.268-.8,99.937,99.937,0,0,1,4.682-10.025c3.627-7.076,7.952-14.367,11.061-23.248.393-1.09.75-2.269,1.054-3.467.339-1.144.572-2.466.822-3.717a36.222,36.222,0,0,0,.447-4.039,26.752,26.752,0,0,0-.214-4.432c-.125-.768-.214-1.59-.411-2.359-.214-.751-.465-1.519-.715-2.252a11.805,11.805,0,0,0-.947-2.216,18.622,18.622,0,0,0-1.019-1.823,23.176,23.176,0,0,0-5.915-6.594c2.43,2.2,1.465,2.019,2.055,3.127a20.083,20.083,0,0,0-6.236-4.61,22.042,22.042,0,0,0-7.309-2,37.226,37.226,0,0,0-12.938,1.269C333,29.9,326.2,33.1,319.6,36.159q-4.825,2.305-9.578,4.575c-3.61,1.644-4.914,2.341-7.148,3.234A21.623,21.623,0,0,1,296,45.684a8.1,8.1,0,0,1-3.574-.643,7.839,7.839,0,0,1-2.7-2.234,6.429,6.429,0,0,1-1.573-4.575,14.222,14.222,0,0,1,1.179-4.5,20.466,20.466,0,0,0-2.395,4.718,8.018,8.018,0,0,0,.357,5.843,7.782,7.782,0,0,0,3.842,4.253,11.869,11.869,0,0,0,5.986.768,47.813,47.813,0,0,0,12.473-3.431,181.988,181.988,0,0,0,22.873-11.311c3.413-.572,7.487-2.073,11.347-2.913,3.824-.876,7.505-.876,8.881.232a16.781,16.781,0,0,1,8.845,3.628,19.249,19.249,0,0,1,5,6.808,18.861,18.861,0,0,1,1.251,7.684,35.543,35.543,0,0,1-1.054,7.13c-2.323,9.113-6.5,17.3-12.223,28-1.876,2.913-1.912,1.019-3.163,1.519,0,0,1.984-4.414,4.217-8.81,1.09-2.2,2.18-4.414,3-6.076.8-1.662,1.34-2.788,1.34-2.788s-1.555,2.573-3.181,5.111L353.5,79.153c.876-2.466,3.038-6.379,4.753-9.953,1.751-3.574,2.948-6.862,2.484-7.845A87.776,87.776,0,0,1,355,74.489c-2.377,4.646-5.093,9.471-7.255,14.51a34.927,34.927,0,0,0-2.52,7.845,11.593,11.593,0,0,0,.84,7.612,9.448,9.448,0,0,0,5.575,4.164c.536.143,1.054.286,1.573.429.518.125,1.054.143,1.555.214.5.054.983.107,1.465.161.482,0,.947,0,1.412-.018a20.472,20.472,0,0,1-2.466-.572,16.2,16.2,0,0,1-2.5-.786,10.434,10.434,0,0,1-4.557-3.02,8,8,0,0,1-1.751-5.379,18.893,18.893,0,0,1,1.126-5.718c1.537-3.038,4.539-7.9,5.164-7.13a71.425,71.425,0,0,0-2.448,7.595,13.279,13.279,0,0,0-.286,5.9,6.214,6.214,0,0,0,3.52,4.2,5.71,5.71,0,0,0,1.287.518,6.951,6.951,0,0,0,1.322.375l1.34.286,1.5.179c.876.143,2.323.2,3.538.3,1.269.125,2.52.036,3.806.072,1.269,0,2.573-.143,3.86-.214,1.3-.107,2.609-.3,3.931-.465a94.93,94.93,0,0,0,16.351-4.128c5.647-1.912,13.474-4.557,14.724-4.056-3.681,1.608-.59,1.3-3.556,2.788,7.934-3.556-.3-3.288,11.758-7.112l-.536,3.413a9.609,9.609,0,0,1,4.021-2.734c.858-.34,1.769-.643,2.752-.929.929-.268,1.894-.536,2.877-.822,4-1.144,8.577-2.663,12.312-5.307,3.449-.179-1.733,2.913-7.952,5.611,7.362-2.484,7.237-4.5,13.063-6.9l-4.414,4.735c5.075-4.95,11.222-4.217,14.975-4.539.107-.375-.822-.75-.786-1.358,0-.3.286-.643,1.054-1.072a15.819,15.819,0,0,1,4.128-1.394c3.645-.482,1.948.59,2.859.768a4.589,4.589,0,0,1,2.412-1.573,13.182,13.182,0,0,1,2.752-.786c.554-.089,1.144-.179,1.787-.25.643-.054,1.34-.036,2.073-.036.518.447-.465.751-1.59,1.054-1.108.34-2.359.786-2.5,1.233a35.762,35.762,0,0,1,5.129-.089H467.7a9.868,9.868,0,0,1-1.7,5.272c-1.072,3.467-.679,3.074-.071,2.609.59-.536,1.34-1.215.965.375-2.859,4.36-4.271,5.254-5.111,5.307-.84.089-1.608-.7-3.735,1.8a66.981,66.981,0,0,1,2.537-7.38c.625-1.5,1.287-3.109,1.894-4.7.2-.751.375-1.483.572-2.216-.036-.393-.054-.768-.054-1.144,1.519,1.626,3.02,3.27,4.36,4.7a26.563,26.563,0,0,0-7.9,1.34,35.266,35.266,0,0,1,7.863-.893l-4.771-5.146v1.072l-.643,2.162c-.679,1.555-1.376,3.109-2.109,4.628-.322-.554-2.805,3.252-4.217,5.575-.715,1.144-1.287,2.055-1.537,2.055-.143.018-.2-.2-.125-.733a13.025,13.025,0,0,1,.679-2.788,40.021,40.021,0,0,0-3.735,12.223,30.435,30.435,0,0,0-.268,6.576l.071.965c.036.3.2.268.286.429.232.214.447.429.679.679.465.447.929,1.054,1.412,1.608,7.237-2.126,14.617-4.271,21.837-6.683,3.556-1.161,7.094-2.305,10.275-3.252,1.215-.375,2.412-.733,3.61-1.09,1.036-.3,2.055-.59,3.056-.876-2.126.107-4.861.554-4.575-.179,7.469-2.395,6.88-.822,8.542-.429a11,11,0,0,0,4.682-2.448,10.512,10.512,0,0,1,3.163-2.484c.733.036,1.412.071,2.073.125.625.036,1.054.107,1.537.161.929.107,1.715.25,2.43.375a15.984,15.984,0,0,1,3.574,1.09,5.661,5.661,0,0,1,2.466,2.216,5.252,5.252,0,0,1,.107,4.324s.5-.232,1.019-.465c.5-.25,1-.518,1-.518-.286,1.43-.679,2.395-.875,3.217-.232.822-.34,1.519-.483,2.252a10.454,10.454,0,0,1-.786,2.412,15.72,15.72,0,0,1-2.537,3.52c-.268.071-.089-.572.268-1.483.179-.447.393-.983.625-1.537.2-.5.268-.822.393-1.233a12.006,12.006,0,0,1-1.769,2.806,16.89,16.89,0,0,1-1.823,1.787,18.334,18.334,0,0,0-4.164,4.878l.858-2.7.768-2.663c-2.984,4.164-7.648,10.758-7.166,7.523a67.682,67.682,0,0,1-4.467,7.237c-1.8,2.68-3.9,5.522-5.951,8.953a30.927,30.927,0,0,0-2.948,6.236,14.02,14.02,0,0,0-.7,5.289,9.172,9.172,0,0,0,.3,1.841,8.148,8.148,0,0,0,.733,1.948,9.879,9.879,0,0,0,2.573,3.27,11.856,11.856,0,0,0,5.236,2.43,19.51,19.51,0,0,0,3.717.357,29.185,29.185,0,0,0,5.682-.572l-.768,1.608c3.574-1.215,9.489-2.323,15.1-3.77.7-.179,1.394-.375,2.091-.554l1.019-.286c.357-.089,1-.3,1.34-.411,1.5-.536,2.716-1.036,3.86-1.555a19.851,19.851,0,0,0,5.093-3.056l1.072.25,10.7-6.362c5.254-1.787,4.289,1.036,4.485.286,11.168-4.61,20.21-7.648,27.608-8.685.232-1.09,2.412-2.377,5.861-3.306a22.024,22.024,0,0,1,5.736-.786,8.171,8.171,0,0,1,3,.518,3.816,3.816,0,0,1,2.144,1.894,6.071,6.071,0,0,1-.125,3.431,16.161,16.161,0,0,1-1.34,3.2,28.365,28.365,0,0,1-1.769,2.931l-2.019,2.716-1,1.358c-.357.482-.59.84-1.126,1.465l-2.877,3.467c-1.841,2.341-3.967,4.592-6.058,6.88a287.917,287.917,0,0,1-27.323,25.411c-19.21,15.922-39.456,30.271-57.594,44.46a64.98,64.98,0,0,0-6.326,5.45c-2.162,2.126-4.378,4.45-6.63,6.755l-1.019-3.074c1.894-.357,3.842-1.858,7.148-2.234a22.691,22.691,0,0,0-2.716.232c-.7.143-1.34.286-1.966.411-.5.089-1.072.268-1.43.286-.375.036-.715.089-1.036.143.608,1.8,1.2,3.61,1.715,5.164,3.663-2.823,5.432-4.861,11.383-9.042,6.63-4.039,10.2-3.9,16.44-6.612l-3.77.5c7.863-7.094,6.469-3.324,12.33-9.471l1.3,2.5c1.608-2.823,8.309-6.058,11.222-7.184l1.126-3.163c6.058-2.948,9.828-5.146,12.509-4.932l-1.573-1.054a20.766,20.766,0,0,0,4.289-2.52c1.966-1.412,4.324-3.091,6.415-4.575,4.2-2.966,7.452-5.093,5.254-1.394,1.287-1.555,2.144-3.342,5.593-5.9l1.626.947c2.234-2.2,4.664-4.45,6.719-6.29,2.037-1.876,3.788-3.234,4.789-3.467-2.252,2.609-2.591,3.949-2.913,5.289,2.52-2.216,4.414-4.021,5.826-5.486a23.9,23.9,0,0,0,2.895-3.645c1.179-1.912,1.09-2.859.929-3.753a4.278,4.278,0,0,1,.429-3.359c.786-1.715,2.609-4.2,6.5-8.667l.7.965,2.966-5.54s.322-.25.822-.643c.25-.2.536-.429.84-.661a7.1,7.1,0,0,0,1.019-.911l3.091-3.377a26.078,26.078,0,0,1,1.948-4.878,33.433,33.433,0,0,0,2.5-5.843,27.312,27.312,0,0,0,1.5-6.7,10.694,10.694,0,0,0-1.662-7.273,12.6,12.6,0,0,0-6.362-4.253,25.78,25.78,0,0,0-8.023-1.126,42.475,42.475,0,0,0-8.631,1c-1.394.286-2.77.661-4.056,1.019q-.965.295-1.876.59a12.385,12.385,0,0,0-1.376.536c-5.325,1.7-12.991,1.608-22.748,5.379l1.233,1.43c-4.253.536-13.777,3.359-23.159,5.968-2.341.643-4.682,1.269-6.826,1.769-.518.107-1.036.214-1.537.322a5.046,5.046,0,0,1-1.161.143,1.861,1.861,0,0,0-.59.036l-.768.071c-.518.036-1.019.089-1.5.125-3.931.268-7.112.054-8.9-.661-6.111,2.323.661.3.876,1.626a23.446,23.446,0,0,1-6.915,1.43,3.234,3.234,0,0,1-.733-.089.5.5,0,0,1-.2-.071c-.036.071.089-.447-.179.786a13.816,13.816,0,0,1-2.162,5.629c-.608.751-.768.482.107.322a10.987,10.987,0,0,1,4.592.393,33.033,33.033,0,0,1,3.913,1.144c.071.054.2,0,.322-.054a5.026,5.026,0,0,0,1-.911c.59-1.412.893-2.073.7-2.019a6.121,6.121,0,0,0-1.215,1.287c-1.072,1.358-1.5,1.858-1.787.8.715-.965,1.3-1.787,1.841-2.5.608-.858,1.179-1.68,1.662-2.448.983-1.537,1.662-2.859,2.43-4.271,1.537-2.895,3.431-5.951,9.578-12.866,1.912-.84-2.394,4.217-3.056,6.022,1.644-2.77,3.878-5.968,6.451-9.81.643-.983,1.3-2,1.966-3.038.375-.608.751-1.2,1.126-1.823.518-.858.983-1.715,1.483-2.573a32.518,32.518,0,0,0,3.913-11.133,21.8,21.8,0,0,0-1.769-11.437l-.661-1.322c-.268-.411-.554-.822-.84-1.215a17.683,17.683,0,0,0-1.912-2.252A28.764,28.764,0,0,0,525.28,90.2c-.822-.554-1.68-1.054-2.52-1.555a28.481,28.481,0,0,0-11.848-3.02,30.666,30.666,0,0,0-3.145-.089c-.983,0-2.252,0-2.859.054-1.412.089-2.77.214-4.056.375-3.217.179-6.5.554-9.864,1.072-1.662.268-3.377.554-5.075.894-.858.161-1.715.34-2.573.518l-1.161.232-.322.036a21.626,21.626,0,0,1-3.038.089.76.76,0,0,1-.3-.071s-.054,0-.054-.036l.054-.179a2.987,2.987,0,0,1,.143-.357,4.242,4.242,0,0,1,.858-1.108c.3-.3.572-.554.786-.733l.3-.25s.143-.322.2-.465a4.588,4.588,0,0,0,.089-.679L481,83.96l.161-1.93.983-12.133-13.277-1.144a57.24,57.24,0,0,0-6.648-.286l-.572.679c-7-.286-13.4,1.59-19.281,3.788-5.808,2.252-11.294,4.95-16.708,6.88l5.682-1.447Z" transform="translate(-420.144 17.925)" fill="#bad1ff"/>
      <path id="Trazado_914087" data-name="Trazado 914087" d="M0,22.231a5.387,5.387,0,0,0,5.383,5.38H16.861V39.081a5.383,5.383,0,0,0,10.766,0V27.61H39.1a5.38,5.38,0,1,0,0-10.759H27.628V5.38a5.383,5.383,0,0,0-10.766,0V16.851H5.383A5.387,5.387,0,0,0,0,22.231Zm17.759-3.586a.9.9,0,0,0,.9-.9V5.38a3.589,3.589,0,0,1,7.177,0V17.747a.9.9,0,0,0,.9.9H39.1a3.586,3.586,0,1,1,0,7.173H26.73a.9.9,0,0,0-.9.9V39.081a3.589,3.589,0,0,1-7.177,0V26.714a.9.9,0,0,0-.9-.9H5.383a3.586,3.586,0,1,1,0-7.173Z" transform="translate(1520.497 201.354) rotate(45)" fill="#5b92fe" fill-rule="evenodd"/>
      <path id="Trazado_914088" data-name="Trazado 914088" d="M0,22.231a5.387,5.387,0,0,0,5.383,5.38H16.861V39.081a5.383,5.383,0,0,0,10.766,0V27.61H39.1a5.38,5.38,0,1,0,0-10.759H27.628V5.38a5.383,5.383,0,0,0-10.766,0V16.851H5.383A5.387,5.387,0,0,0,0,22.231Zm17.759-3.586a.9.9,0,0,0,.9-.9V5.38a3.589,3.589,0,0,1,7.177,0V17.747a.9.9,0,0,0,.9.9H39.1a3.586,3.586,0,1,1,0,7.173H26.73a.9.9,0,0,0-.9.9V39.081a3.589,3.589,0,0,1-7.177,0V26.714a.9.9,0,0,0-.9-.9H5.383a3.586,3.586,0,1,1,0-7.173Z" transform="translate(57.049 542.354) rotate(45)" fill="#5b92fe" fill-rule="evenodd"/>
      <path id="Trazado_914089" data-name="Trazado 914089" d="M460.225,194.379a58.738,58.738,0,0,1,8.631-4.432c.643-.286,1.251-.5,1.894-.751.643-.268,1.269-.5,1.841-.7,1.412-.536,2.895-1.09,4.557-1.715l4.664.375c7.541-3.27,2.895-2.68,8.077-5.5a124.879,124.879,0,0,0,13.474-3.949,102.838,102.838,0,0,1,10.221-2.966c2.252.411-2.341,1.644-3.252,2.484,2.019-.7,3.413-1.144,4.61-1.68,1.179-.447,2.109-.893,3.127-1.34a21.4,21.4,0,0,1,9.078-1.59l.143.5a21,21,0,0,1,2.144-.107l1.09-.036h.5l.25-.036,1.054-.054h.715a2.567,2.567,0,0,1,2.52,1.59,3.78,3.78,0,0,1,.143,1.68,5.168,5.168,0,0,1-.143.893c-.036.179-.143.447-.2.679a8.367,8.367,0,0,1-.268.8,99.937,99.937,0,0,1-4.682,10.025c-3.627,7.076-7.952,14.367-11.061,23.248-.393,1.09-.75,2.269-1.054,3.467-.339,1.144-.572,2.466-.822,3.717a36.222,36.222,0,0,0-.447,4.039,26.752,26.752,0,0,0,.214,4.432c.125.768.214,1.59.411,2.359.214.751.465,1.519.715,2.252a11.8,11.8,0,0,0,.947,2.216,18.619,18.619,0,0,0,1.019,1.823,23.176,23.176,0,0,0,5.915,6.594c-2.43-2.2-1.465-2.019-2.055-3.127a20.084,20.084,0,0,0,6.236,4.61,22.042,22.042,0,0,0,7.309,2,37.226,37.226,0,0,0,12.938-1.269c7.827-2.055,14.635-5.254,21.229-8.309q4.825-2.305,9.578-4.575c3.61-1.644,4.914-2.341,7.148-3.234a21.623,21.623,0,0,1,6.88-1.715,8.1,8.1,0,0,1,3.574.643,7.839,7.839,0,0,1,2.7,2.234,6.429,6.429,0,0,1,1.573,4.575,14.222,14.222,0,0,1-1.179,4.5,20.466,20.466,0,0,0,2.395-4.718,8.018,8.018,0,0,0-.357-5.843,7.782,7.782,0,0,0-3.842-4.253,11.87,11.87,0,0,0-5.986-.768,47.814,47.814,0,0,0-12.473,3.431,181.988,181.988,0,0,0-22.873,11.311c-3.413.572-7.487,2.073-11.347,2.913-3.824.876-7.505.876-8.881-.232a16.781,16.781,0,0,1-8.845-3.628,19.249,19.249,0,0,1-5-6.808,18.861,18.861,0,0,1-1.251-7.684,35.543,35.543,0,0,1,1.054-7.13c2.323-9.113,6.5-17.3,12.223-28,1.876-2.913,1.912-1.019,3.163-1.519,0,0-1.984,4.414-4.217,8.81-1.09,2.2-2.18,4.414-3,6.076-.8,1.662-1.34,2.788-1.34,2.788s1.555-2.573,3.181-5.111l3.234-5.057c-.876,2.466-3.038,6.379-4.753,9.953-1.751,3.574-2.948,6.862-2.484,7.845a87.776,87.776,0,0,1,5.736-13.134c2.377-4.646,5.093-9.471,7.255-14.51a34.927,34.927,0,0,0,2.52-7.845,11.593,11.593,0,0,0-.84-7.612,9.448,9.448,0,0,0-5.575-4.164c-.536-.143-1.054-.286-1.573-.429-.518-.125-1.054-.143-1.555-.214-.5-.054-.983-.107-1.465-.161-.482,0-.947,0-1.412.018a20.472,20.472,0,0,1,2.466.572,16.2,16.2,0,0,1,2.5.786,10.434,10.434,0,0,1,4.557,3.02,8,8,0,0,1,1.751,5.379,18.893,18.893,0,0,1-1.126,5.718c-1.537,3.038-4.539,7.9-5.164,7.13a71.425,71.425,0,0,0,2.448-7.595,13.279,13.279,0,0,0,.286-5.9,6.214,6.214,0,0,0-3.52-4.2,5.71,5.71,0,0,0-1.287-.518,6.951,6.951,0,0,0-1.322-.375l-1.34-.286-1.5-.179c-.876-.143-2.323-.2-3.538-.3-1.269-.125-2.52-.036-3.806-.072-1.269,0-2.573.143-3.86.214-1.3.107-2.609.3-3.931.465a94.931,94.931,0,0,0-16.351,4.128c-5.647,1.912-13.474,4.557-14.724,4.056,3.681-1.608.59-1.3,3.556-2.788-7.934,3.556.3,3.288-11.758,7.112l.536-3.413a9.609,9.609,0,0,1-4.021,2.734c-.858.34-1.769.643-2.752.929-.929.268-1.894.536-2.877.822-4,1.144-8.577,2.663-12.312,5.307-3.449.179,1.733-2.913,7.952-5.611-7.362,2.484-7.237,4.5-13.063,6.9l4.414-4.735c-5.075,4.95-11.222,4.217-14.975,4.539-.107.375.822.75.786,1.358,0,.3-.286.643-1.054,1.072a15.819,15.819,0,0,1-4.128,1.394c-3.645.482-1.948-.59-2.859-.768a4.589,4.589,0,0,1-2.412,1.573,13.182,13.182,0,0,1-2.752.786c-.554.089-1.144.179-1.787.25-.643.054-1.34.036-2.073.036-.518-.447.465-.751,1.59-1.054,1.108-.34,2.359-.786,2.5-1.233a35.762,35.762,0,0,1-5.129.089h.018a9.868,9.868,0,0,1,1.7-5.272c1.072-3.467.679-3.074.071-2.609-.59.536-1.34,1.215-.965-.375,2.859-4.36,4.271-5.254,5.111-5.307.84-.089,1.608.7,3.735-1.8a66.982,66.982,0,0,1-2.537,7.38c-.625,1.5-1.287,3.109-1.894,4.7-.2.751-.375,1.483-.572,2.216.036.393.054.768.054,1.144-1.519-1.626-3.02-3.27-4.36-4.7a26.563,26.563,0,0,0,7.9-1.34,35.266,35.266,0,0,1-7.863.893l4.771,5.146V189.7l.643-2.162c.679-1.555,1.376-3.109,2.109-4.628.322.554,2.806-3.252,4.217-5.575.715-1.144,1.287-2.055,1.537-2.055.143-.018.2.2.125.733a13.025,13.025,0,0,1-.679,2.788,40.021,40.021,0,0,0,3.735-12.223,30.435,30.435,0,0,0,.268-6.576l-.071-.965c-.036-.3-.2-.268-.286-.429-.232-.214-.447-.429-.679-.679-.465-.447-.929-1.054-1.412-1.608-7.237,2.126-14.617,4.271-21.837,6.683-3.556,1.161-7.094,2.305-10.275,3.252-1.215.375-2.412.733-3.61,1.09-1.036.3-2.055.59-3.056.876,2.126-.107,4.861-.554,4.575.179-7.469,2.395-6.88.822-8.542.429a11,11,0,0,0-4.682,2.448,10.512,10.512,0,0,1-3.163,2.484c-.733-.036-1.412-.071-2.073-.125-.625-.036-1.054-.107-1.537-.161-.929-.107-1.715-.25-2.43-.375a15.983,15.983,0,0,1-3.574-1.09,5.662,5.662,0,0,1-2.466-2.216,5.252,5.252,0,0,1-.107-4.324s-.5.232-1.019.465c-.5.25-1,.518-1,.518.286-1.43.679-2.395.876-3.217.232-.822.34-1.519.482-2.252a10.457,10.457,0,0,1,.786-2.412,15.718,15.718,0,0,1,2.538-3.52c.268-.071.089.572-.268,1.483-.179.447-.393.983-.625,1.537-.2.5-.268.822-.393,1.233a12.006,12.006,0,0,1,1.769-2.806,16.89,16.89,0,0,1,1.823-1.787,18.334,18.334,0,0,0,4.164-4.878l-.858,2.7-.768,2.663c2.984-4.164,7.648-10.758,7.166-7.523a67.682,67.682,0,0,1,4.467-7.237c1.8-2.68,3.9-5.522,5.951-8.953a30.927,30.927,0,0,0,2.948-6.236,14.02,14.02,0,0,0,.7-5.289,9.172,9.172,0,0,0-.3-1.841,8.148,8.148,0,0,0-.733-1.948,9.879,9.879,0,0,0-2.573-3.27,11.856,11.856,0,0,0-5.236-2.43,19.51,19.51,0,0,0-3.717-.357,29.185,29.185,0,0,0-5.682.572l.768-1.608c-3.574,1.215-9.489,2.323-15.1,3.77-.7.179-1.394.375-2.091.554l-1.019.286c-.357.089-1,.3-1.34.411-1.5.536-2.716,1.036-3.86,1.555a19.851,19.851,0,0,0-5.093,3.056l-1.072-.25-10.7,6.362c-5.254,1.787-4.289-1.036-4.485-.286-11.168,4.61-20.21,7.648-27.609,8.685-.232,1.09-2.412,2.377-5.861,3.306a22.025,22.025,0,0,1-5.736.786,8.171,8.171,0,0,1-3-.518,3.816,3.816,0,0,1-2.144-1.894,6.071,6.071,0,0,1,.125-3.431,16.161,16.161,0,0,1,1.34-3.2,28.355,28.355,0,0,1,1.769-2.931l2.019-2.716,1-1.358c.357-.482.59-.84,1.126-1.465l2.877-3.467c1.841-2.341,3.967-4.592,6.058-6.88a287.918,287.918,0,0,1,27.323-25.411c19.21-15.922,39.456-30.271,57.594-44.46a64.98,64.98,0,0,0,6.326-5.45c2.162-2.126,4.378-4.45,6.63-6.755l1.019,3.074c-1.894.357-3.842,1.858-7.148,2.234a22.7,22.7,0,0,0,2.716-.232c.7-.143,1.34-.286,1.966-.411.5-.089,1.072-.268,1.43-.286.375-.036.715-.089,1.036-.143-.608-1.8-1.2-3.61-1.715-5.164-3.663,2.823-5.432,4.861-11.383,9.042-6.63,4.039-10.2,3.9-16.44,6.612l3.77-.5c-7.863,7.094-6.469,3.324-12.33,9.471l-1.3-2.5c-1.608,2.823-8.309,6.058-11.222,7.184l-1.126,3.163c-6.058,2.948-9.828,5.146-12.509,4.932l1.573,1.054a20.766,20.766,0,0,0-4.289,2.52c-1.966,1.412-4.324,3.091-6.415,4.575-4.2,2.966-7.452,5.093-5.254,1.394-1.287,1.555-2.144,3.342-5.593,5.9l-1.626-.947c-2.234,2.2-4.664,4.45-6.719,6.29-2.037,1.876-3.788,3.234-4.789,3.467,2.252-2.609,2.591-3.949,2.913-5.289-2.52,2.216-4.414,4.021-5.826,5.486a23.9,23.9,0,0,0-2.895,3.645c-1.179,1.912-1.09,2.859-.929,3.753a4.278,4.278,0,0,1-.429,3.359c-.786,1.715-2.609,4.2-6.5,8.667l-.7-.965-2.966,5.54s-.322.25-.822.643c-.25.2-.536.429-.84.661a7.1,7.1,0,0,0-1.019.911l-3.091,3.377a26.078,26.078,0,0,1-1.948,4.878,33.433,33.433,0,0,0-2.5,5.843,27.312,27.312,0,0,0-1.5,6.7,10.694,10.694,0,0,0,1.662,7.273,12.6,12.6,0,0,0,6.362,4.253,25.78,25.78,0,0,0,8.023,1.126,42.476,42.476,0,0,0,8.631-1c1.394-.286,2.77-.661,4.056-1.019q.965-.295,1.876-.59a12.385,12.385,0,0,0,1.376-.536c5.325-1.7,12.991-1.608,22.748-5.379L340.1,138c4.253-.536,13.777-3.359,23.159-5.968,2.341-.643,4.682-1.269,6.826-1.769.518-.107,1.036-.214,1.537-.322a5.046,5.046,0,0,1,1.161-.143,1.861,1.861,0,0,0,.59-.036l.768-.071c.518-.036,1.019-.089,1.5-.125,3.931-.268,7.112-.054,8.9.661,6.111-2.323-.661-.3-.876-1.626a23.446,23.446,0,0,1,6.915-1.43,3.234,3.234,0,0,1,.733.089.5.5,0,0,1,.2.071c.036-.071-.089.447.179-.786a13.816,13.816,0,0,1,2.162-5.629c.608-.751.768-.482-.107-.322a10.987,10.987,0,0,1-4.592-.393,33.033,33.033,0,0,1-3.913-1.144c-.071-.054-.2,0-.322.054a5.026,5.026,0,0,0-1,.911c-.59,1.412-.893,2.073-.7,2.019a6.121,6.121,0,0,0,1.215-1.287c1.072-1.358,1.5-1.858,1.787-.8-.715.965-1.3,1.787-1.841,2.5-.608.858-1.179,1.68-1.662,2.448-.983,1.537-1.662,2.859-2.43,4.271-1.537,2.895-3.431,5.951-9.578,12.866-1.912.84,2.394-4.217,3.056-6.022-1.644,2.77-3.878,5.968-6.451,9.81-.643.983-1.3,2-1.966,3.038-.375.608-.751,1.2-1.126,1.823-.518.858-.983,1.715-1.483,2.573a32.517,32.517,0,0,0-3.913,11.133A21.8,21.8,0,0,0,360.6,175.83l.661,1.322c.268.411.554.822.84,1.215a17.683,17.683,0,0,0,1.912,2.252,28.764,28.764,0,0,0,2.216,1.948c.822.554,1.68,1.054,2.52,1.555a28.481,28.481,0,0,0,11.848,3.02,30.666,30.666,0,0,0,3.145.089c.983,0,2.252,0,2.859-.054,1.412-.089,2.77-.214,4.056-.375,3.217-.179,6.5-.554,9.864-1.072,1.662-.268,3.377-.554,5.075-.894.858-.161,1.715-.34,2.573-.518l1.161-.232.322-.036a21.626,21.626,0,0,1,3.038-.089.76.76,0,0,1,.3.071s.054,0,.054.036l-.054.179a2.987,2.987,0,0,1-.143.357,4.242,4.242,0,0,1-.858,1.108c-.3.3-.572.554-.786.733l-.3.25s-.143.322-.2.465a4.588,4.588,0,0,0-.089.679l-.107.965-.161,1.93-.983,12.133,13.277,1.144a57.24,57.24,0,0,0,6.648.286l.572-.679c7,.286,13.4-1.59,19.281-3.788,5.808-2.252,11.294-4.95,16.708-6.88L460.17,194.4Z" transform="translate(1196.245 729.979)" fill="#ffb6c8"/>
    </g>
  </g>
</svg>
