<svg xmlns="http://www.w3.org/2000/svg" width="47.026" height="45.663" viewBox="0 0 47.026 45.663">
  <g id="Grupo_1132666" data-name="Grupo 1132666" transform="translate(10557.082 9336.663)">
    <path id="Trazado_933206" data-name="Trazado 933206" d="M266.852,116.667c-.317,0-.631.012-.941.037L256,160.531c10.583-8.362,22.613-20.182,22.613-32.1A11.763,11.763,0,0,0,266.852,116.667Z" transform="translate(-10789.569 -9452.43)" fill="#e0230d"/>
    <path id="Trazado_933207" data-name="Trazado 933207" d="M99.935,116.7c5.094.476,9.1,5.545,9.1,11.725,0,11.92-10.115,23.74-19.014,32.1-10.583-8.362-22.613-20.182-22.613-32.1a11.763,11.763,0,0,1,22.613-4.543A11.767,11.767,0,0,1,99.935,116.7Z" transform="translate(-10623.591 -9452.429)" fill="#ff5440"/>
    <path id="Trazado_933214" data-name="Trazado 933214" d="M94.272,109.164A12.633,12.633,0,0,0,83.42,115.3a12.664,12.664,0,0,0-23.513,6.53c0,5.425,2.4,11.3,7.148,17.45a.9.9,0,1,0,1.425-1.1c-4.495-5.832-6.774-11.333-6.774-16.352a10.864,10.864,0,0,1,20.884-4.2.9.9,0,0,0,1.66,0,10.864,10.864,0,0,1,20.884,4.2c0,9.042-7.3,19.453-21.714,30.953a98.13,98.13,0,0,1-12.678-11.85.9.9,0,0,0-1.356,1.183,101.276,101.276,0,0,0,13.476,12.522.9.9,0,0,0,1.115,0A93.554,93.554,0,0,0,99.4,139.768c5-6.336,7.531-12.373,7.531-17.942A12.676,12.676,0,0,0,94.272,109.164Z" transform="translate(-10616.989 -9445.827)"/>
  </g>
</svg>
