<svg xmlns="http://www.w3.org/2000/svg" width="149" height="149" viewBox="0 0 149 149">
  <g id="Grupo_1134305" data-name="Grupo 1134305" transform="translate(-1146.177 -22842.877)">
    <g id="Grupo_1134302" data-name="Grupo 1134302" transform="translate(1146.177 22842.877)">
      <g id="Grupo_1132942" data-name="Grupo 1132942" transform="translate(0 0)">
        <g id="Grupo_1132682" data-name="Grupo 1132682">
          <circle id="Elipse_5796" data-name="Elipse 5796" cx="74.5" cy="74.5" r="74.5" fill="#bad1ff"/>
        </g>
      </g>
    </g>
    <g id="world-pride-day_4336801" transform="translate(1182.622 22882.734)">
      <g id="Grupo_1134304" data-name="Grupo 1134304" transform="translate(1.27 1.183)">
        <path id="Trazado_938265" data-name="Trazado 938265" d="M179.39,252.429H131.453v13.088h48.042l.848-.963V253.245Z" transform="translate(-114.307 -213.807)" fill="#00f4a8"/>
        <path id="Trazado_938266" data-name="Trazado 938266" d="M82.372,252.429H72.7l-1.077.816v11.309l2.023.963h8.725Z" transform="translate(-63.912 -213.807)" fill="#00d391"/>
        <path id="Trazado_938267" data-name="Trazado 938267" d="M179.495,109.429H131.453v12.72h48.042l.848-.664V110.176Z" transform="translate(-114.307 -93.356)" fill="#ffa90f"/>
        <path id="Trazado_938268" data-name="Trazado 938268" d="M82.372,109.429H72.754l-1.13.747v11.309l1.182.664h9.566Z" transform="translate(-63.912 -93.356)" fill="#ff9b00"/>
        <path id="Trazado_938269" data-name="Trazado 938269" d="M131.453,406.468l1.314,1.682,18.414-10.995-1.331-.727h-18.4Z" transform="translate(-114.307 -335.1)" fill="#8479c2"/>
        <path id="Trazado_938270" data-name="Trazado 938270" d="M82.372,396.429H72.385l-.762.727v14.868a1.444,1.444,0,0,0,2.184,1.24l8.564-5.113V396.429Z" transform="translate(-63.911 -335.1)" fill="#6e60b8"/>
        <path id="Trazado_938271" data-name="Trazado 938271" d="M284.034,396.429H257.805l-1.244.727,26.978,16.108a1.444,1.444,0,0,0,2.184-1.24V397.156Z" transform="translate(-219.687 -335.1)" fill="#8479c2"/>
        <path id="Trazado_938272" data-name="Trazado 938272" d="M24.852,13.011H30.43l.656-.516V8l-.656-.5H24.852a2.134,2.134,0,0,0-2.134,2.134v1.244A2.134,2.134,0,0,0,24.852,13.011Z" transform="translate(-22.718 -7.5)" fill="#b5dcff"/>
        <path id="Trazado_938273" data-name="Trazado 938273" d="M444.372,7.5h-5.578l-.507.514V12.3l.507.713h5.578a2.134,2.134,0,0,0,2.134-2.134V9.634A2.134,2.134,0,0,0,444.372,7.5Z" transform="translate(-372.758 -7.5)" fill="#b5dcff"/>
        <path id="Trazado_938274" data-name="Trazado 938274" d="M131.453,41.263h48.89v11.5h-48.89Z" transform="translate(-114.307 -35.939)" fill="#f27182"/>
        <path id="Trazado_938275" data-name="Trazado 938275" d="M71.624,41.263H82.372v11.5H71.624Z" transform="translate(-63.912 -35.939)" fill="#ed5469"/>
        <path id="Trazado_938276" data-name="Trazado 938276" d="M131.453,329.322h48.89v11.309h-48.89Z" transform="translate(-114.307 -278.575)" fill="#60b9fe"/>
        <path id="Trazado_938277" data-name="Trazado 938277" d="M71.624,329.322H82.372v11.309H71.624Z" transform="translate(-63.912 -278.575)" fill="#1ca8ff"/>
        <path id="Trazado_938278" data-name="Trazado 938278" d="M334.231,185.885l-.589,1.663-.841,5.572-2.681,3.259.331.816h17.232V185.885Z" transform="translate(-281.647 -157.756)" fill="#ffdda8"/>
        <path id="Trazado_938279" data-name="Trazado 938279" d="M135.973,191.122l.473-4.468-.975-.769h-4.018v11.309h7.79v-1.657Z" transform="translate(-114.307 -157.756)" fill="#ffdda8"/>
        <path id="Trazado_938280" data-name="Trazado 938280" d="M71.624,185.885H82.372v11.309H71.624Z" transform="translate(-63.912 -157.756)" fill="#ffc365"/>
        <path id="Trazado_938281" data-name="Trazado 938281" d="M216.758,154.342a8.844,8.844,0,0,0-12.585.018l-.637.609a1,1,0,0,1-1.385,0l-.637-.609a9,9,0,0,0-1.625-1.285h-1.268l-5.834,9.688,13.3,12.618,1.446.292,9.108-9.124A8.717,8.717,0,0,0,216.758,154.342Z" transform="translate(-165.97 -128.98)" fill="#f27182"/>
        <g id="Grupo_1134303" data-name="Grupo 1134303" transform="translate(20.525 22.743)">
          <path id="Trazado_938282" data-name="Trazado 938282" d="M164.847,166.558a8.717,8.717,0,0,1-.118-12.207,8.5,8.5,0,0,1,1.548-1.267,8.7,8.7,0,0,0-10.842,13.474l12.631,12.7a1.607,1.607,0,0,0,2.276,0l3.576-3.582Z" transform="translate(-152.882 -151.732)" fill="#ed5469"/>
        </g>
        <path id="Trazado_938283" data-name="Trazado 938283" d="M132.767,7.5l-1.314,1.671v3.84h48.89V7.5Z" transform="translate(-114.307 -7.5)" fill="#f78b98"/>
        <path id="Trazado_938284" data-name="Trazado 938284" d="M71.624,7.5H82.372v5.511H71.624Z" transform="translate(-63.912 -7.5)" fill="#f27182"/>
      </g>
      <path id="Trazado_938285" data-name="Trazado 938285" d="M81.883,69.819a1.183,1.183,0,0,0,1.183-1.183V7.876h4.4A3.32,3.32,0,0,0,90.777,4.56V3.316A3.32,3.32,0,0,0,87.461,0H55.48a1.183,1.183,0,1,0,0,2.365H80.7V5.511H24.741V2.365h25.22a1.183,1.183,0,0,0,0-2.365H17.98a3.32,3.32,0,0,0-3.316,3.316V4.56A3.32,3.32,0,0,0,17.98,7.876h4.4v70.23a2.626,2.626,0,0,0,3.973,2.255L52.72,64.616,79.092,80.362a2.626,2.626,0,0,0,3.973-2.255V74.155a1.183,1.183,0,0,0-2.365,0v3.951a.26.26,0,0,1-.4.224l-23.3-13.91H80.7v4.215a1.183,1.183,0,0,0,1.183,1.183ZM83.065,2.365h4.4a.952.952,0,0,1,.951.951V4.56a.952.952,0,0,1-.951.951h-4.4ZM22.376,5.511h-4.4a.952.952,0,0,1-.951-.951V3.316a.952.952,0,0,1,.951-.951h4.4ZM80.7,50.747H56.213L65.141,41.8H80.7ZM54.23,28.027l.637-.609A7.763,7.763,0,0,1,63.986,26a7.542,7.542,0,0,1,1.989,11.6c-.24.268.876-.859-12.955,13l-.025.025a.422.422,0,0,1-.3.125h0a.422.422,0,0,1-.3-.125c-13.472-13.55-12.8-12.854-13.15-13.28a7.493,7.493,0,0,1,5.778-12.235A7.871,7.871,0,0,1,50.555,27.4l0,0c.135.137.654.63.654.63a2.18,2.18,0,0,0,3.019,0ZM80.7,39.438H67.5a9.9,9.9,0,0,0,2.529-8.944H80.7ZM24.741,7.876H80.7V16.82H24.741Zm0,11.309H80.7v8.944H69.194a9.967,9.967,0,0,0-15.971-2.411l-.5.481c-.745-.713-.866-.842-1.248-1.153a10.221,10.221,0,0,0-6.281-2.3,9.755,9.755,0,0,0-8.945,5.383H24.741Zm0,11.309H35.412a9.887,9.887,0,0,0,2.529,8.944h-13.2Zm0,11.309h15.55l8.892,8.944H24.741Zm.4,36.528a.26.26,0,0,1-.4-.224V64.421H48.433ZM52.721,62.056H24.741V53.112H80.7v8.944Z" transform="translate(-14.664 0)"/>
    </g>
  </g>
</svg>
