<svg xmlns="http://www.w3.org/2000/svg" width="149" height="149" viewBox="0 0 149 149">
  <g id="Grupo_1143301" data-name="Grupo 1143301" transform="translate(-1146.177 -22842.877)">
    <g id="Grupo_1134302" data-name="Grupo 1134302" transform="translate(1146.177 22842.877)">
      <g id="Grupo_1132942" data-name="Grupo 1132942" transform="translate(0 0)">
        <g id="Grupo_1132682" data-name="Grupo 1132682">
          <circle id="Elipse_5796" data-name="Elipse 5796" cx="74.5" cy="74.5" r="74.5" fill="#bad1ff"/>
        </g>
      </g>
    </g>
    <g id="healthcare_7457178" transform="translate(1180.088 22876.789)">
      <path id="Trazado_945648" data-name="Trazado 945648" d="M39.532,23.516A16.016,16.016,0,1,0,23.516,39.532l8.908,4.152V36.827A16,16,0,0,0,39.532,23.516Z" transform="translate(-6.311 -6.311)" fill="#fd8087"/>
      <path id="Trazado_945649" data-name="Trazado 945649" d="M65.491,22.808A18.1,18.1,0,0,1,49.447,49.264a18.255,18.255,0,0,1-2.139-.127,15.945,15.945,0,0,0,9.7,3.275l8.908,4.152V49.708a16.018,16.018,0,0,0-.429-26.9Z" transform="translate(-39.807 -19.192)" fill="#fe646f"/>
      <path id="Trazado_945650" data-name="Trazado 945650" d="M208.719,209.533h28.125v19.2H208.719Z" transform="translate(-175.627 -176.312)" fill="#feb237"/>
      <g id="Grupo_1143299" data-name="Grupo 1143299" transform="translate(27.936 8.717)">
        <path id="Trazado_945651" data-name="Trazado 945651" d="M183.886,310.45h23.06a5.125,5.125,0,0,1,5.019,4.087l2.67,12.906H176.2l2.67-12.906a5.125,5.125,0,0,1,5.019-4.087Z" transform="translate(-176.197 -269.945)" fill="#99e6fc"/>
        <path id="Trazado_945652" data-name="Trazado 945652" d="M211.965,329.92a5.127,5.127,0,0,0-.4-1.188h-5.887a9.015,9.015,0,0,0-7.113,3.524H188.514a8.427,8.427,0,0,0-8.109,6.086h-3.28l-.928,4.485h38.438Z" transform="translate(-176.197 -285.329)" fill="#62dbfb"/>
        <path id="Trazado_945653" data-name="Trazado 945653" d="M277.514,292.624a3.75,3.75,0,0,1-3.75-3.75v-4.762h7.5v4.762A3.75,3.75,0,0,1,277.514,292.624Z" transform="translate(-258.295 -247.783)" fill="#f6a96c"/>
        <path id="Trazado_945654" data-name="Trazado 945654" d="M241.441,161.884a10.547,10.547,0,0,1-10.547-10.547V137.461h21.094v13.876A10.547,10.547,0,0,1,241.441,161.884Z" transform="translate(-222.222 -124.383)" fill="#fed2a4"/>
        <path id="Trazado_945655" data-name="Trazado 945655" d="M294.262,137.46v13.876a10.55,10.55,0,0,1-8.672,10.381,10.556,10.556,0,0,0,12.422-10.381V137.46Z" transform="translate(-268.246 -124.383)" fill="#ffbd86"/>
        <path id="Trazado_945656" data-name="Trazado 945656" d="M204.338,185.176h1.055v-7.5h-1.055a3.75,3.75,0,1,0,0,7.5Z" transform="translate(-196.721 -158.222)" fill="#f6a96c"/>
        <path id="Trazado_945657" data-name="Trazado 945657" d="M364.995,185.176H363.94v-7.5h1.055a3.75,3.75,0,1,1,0,7.5Z" transform="translate(-334.174 -158.222)" fill="#f6a96c"/>
        <path id="Trazado_945658" data-name="Trazado 945658" d="M236.845,74.431V69.04a14.063,14.063,0,1,0-28.125,0v5.391h7.335a13.63,13.63,0,0,0,8.614-3.067l4.057-3.309s.854,5.425,4.6,6.376Z" transform="translate(-203.564 -54.977)" fill="#ffc344"/>
        <path id="Trazado_945659" data-name="Trazado 945659" d="M327.147,60.09a14.852,14.852,0,0,1,1.82,14.368c.621,1.636,1.822,3.719,4.014,4.274H336.5V73.342a14.067,14.067,0,0,0-9.349-13.252Z" transform="translate(-303.214 -59.279)" fill="#feb237"/>
      </g>
      <path id="Trazado_945660" data-name="Trazado 945660" d="M61.927,351.566a3.844,3.844,0,0,1,5.436,0l9.526,9.526H88.2a3.825,3.825,0,0,1-.723-2.254,3.9,3.9,0,0,1,3.935-3.832h12.781a4.484,4.484,0,0,1,4.38-3.524h8.1a4.485,4.485,0,0,1,4.423,3.747l.443,2.659h4.8v16.977h-19.7a19.212,19.212,0,0,1-3.694-.358l-26.94-5.277a7.688,7.688,0,0,1-3.958-2.108L61.927,357a3.844,3.844,0,0,1,0-5.436Z" transform="translate(-51.161 -294.879)" fill="#fed2a4"/>
      <path id="Trazado_945661" data-name="Trazado 945661" d="M365.351,363.618l-.443-2.659a4.484,4.484,0,0,0-3.855-3.71,31.978,31.978,0,0,1-10.5,23.347h19.6V363.618Z" transform="translate(-294.974 -300.607)" fill="#ffbd86"/>
      <path id="Trazado_945662" data-name="Trazado 945662" d="M474.2,377.22H479V397.4h-4.8Z" transform="translate(-399.012 -317.413)" fill="#0573ce"/>
      <path id="Trazado_945663" data-name="Trazado 945663" d="M63.085,51.714H56.839a.32.32,0,0,1-.32-.32V45.147a1.281,1.281,0,0,0-1.281-1.281H53a1.281,1.281,0,0,0-1.281,1.281v6.246a.32.32,0,0,1-.32.32H45.147a1.281,1.281,0,0,0-1.281,1.281v2.242a1.281,1.281,0,0,0,1.281,1.281h6.246a.32.32,0,0,1,.32.32v6.246a1.281,1.281,0,0,0,1.281,1.281h2.242a1.281,1.281,0,0,0,1.281-1.281V56.839a.32.32,0,0,1,.32-.32h6.246a1.281,1.281,0,0,0,1.281-1.281V52.995A1.281,1.281,0,0,0,63.085,51.714Z" transform="translate(-36.911 -36.911)" fill="#dff6fd"/>
      <g id="Grupo_1143300" data-name="Grupo 1143300" transform="translate(0 0)">
        <path id="Trazado_945664" data-name="Trazado 945664" d="M79.987,58.618h-4.8a1.189,1.189,0,0,0-1.189,1.189v2.014H71.385l-.278-1.666a5.656,5.656,0,0,0-5.6-4.741h-.158l-.486-2.347a6.311,6.311,0,0,0-2.461-3.813V45.045a1.189,1.189,0,0,0-2.378,0v3.133a6.254,6.254,0,0,0-1.342-.146H52.094V46.313a11.761,11.761,0,0,0,6.737-9.455,4.931,4.931,0,0,0,1.2-.165v2.8a1.189,1.189,0,0,0,2.378,0V35.245a4.928,4.928,0,0,0-.057-6.709,1.186,1.186,0,0,0,.058-.366V22.78A15.248,15.248,0,0,0,34.226,14.7,17.205,17.205,0,1,0,2.132,25.5a1.189,1.189,0,0,0,2.082-1.15,14.827,14.827,0,1,1,21.238,5.175,1.189,1.189,0,0,0-.527.988v4.991l-7.216-3.364a1.19,1.19,0,0,0-.5-.111,14.8,14.8,0,0,1-9.783-3.686,1.189,1.189,0,0,0-1.571,1.786,17.178,17.178,0,0,0,11.086,4.277l8.673,4.043A1.189,1.189,0,0,0,27.3,37.373V31.136a17.213,17.213,0,0,0,4.6-4.986v2.02a1.185,1.185,0,0,0,.058.365,4.928,4.928,0,0,0-.057,6.709v14.01a6.312,6.312,0,0,0-2.462,3.812L26.968,65.024h-.747l-9.178-9.178a5.033,5.033,0,1,0-7.118,7.118l10.12,10.12a8.844,8.844,0,0,0,4.57,2.434L51.556,80.8a20.451,20.451,0,0,0,3.923.381H79.987a1.189,1.189,0,0,0,1.189-1.189V59.807a1.189,1.189,0,0,0-1.189-1.189ZM49.716,49.807a2.561,2.561,0,0,1-5.122,0V47.122a11.655,11.655,0,0,0,5.122,0Zm-2.561-4.779A9.369,9.369,0,0,1,37.8,35.67V29.359h2.63a14.86,14.86,0,0,0,9.366-3.335l2.626-2.142c.585,1.713,1.787,4.107,4.094,5.129V35.67A9.368,9.368,0,0,1,47.155,45.028ZM32.992,31.92a2.564,2.564,0,0,1,2.427-2.558v5.115A2.564,2.564,0,0,1,32.992,31.92Zm25.9-2.558a2.561,2.561,0,0,1,0,5.115ZM47.155,9.906A12.888,12.888,0,0,1,60.028,22.779v4.2H57.862c-2.828-.847-3.583-5.328-3.59-5.372a1.189,1.189,0,0,0-1.926-.737l-4.057,3.309a12.475,12.475,0,0,1-7.863,2.8H34.281v-4.2A12.888,12.888,0,0,1,47.155,9.906ZM34.282,36.693a4.93,4.93,0,0,0,1.2.165,11.761,11.761,0,0,0,6.737,9.455v1.719H35.625a6.258,6.258,0,0,0-1.343.146V36.693ZM31.77,53.549a3.951,3.951,0,0,1,3.854-3.139h6.629a4.938,4.938,0,0,0,9.8,0h6.63a3.95,3.95,0,0,1,3.853,3.139l.386,1.866H57.413a5.714,5.714,0,0,0-5.249,3.524H40.252a5.039,5.039,0,0,0-5.014,6.086H29.4ZM78.8,78.8H76.372V73.742a1.189,1.189,0,0,0-2.378,0V78.8H55.479a18.058,18.058,0,0,1-3.466-.336L25.073,73.185A6.475,6.475,0,0,1,21.727,71.4l-10.12-10.12a2.655,2.655,0,1,1,3.754-3.754l9.526,9.526a1.189,1.189,0,0,0,.841.348H36.486c.04.042.077.087.118.128A5.005,5.005,0,0,0,40.161,69H53.122l1.253,1.253a1.189,1.189,0,0,0,1.682-1.682l-1.6-1.6a1.189,1.189,0,0,0-.841-.348H40.161a2.67,2.67,0,0,1-2.655-2.663,2.706,2.706,0,0,1,2.746-2.646H53.033a1.189,1.189,0,0,0,1.162-.935,3.314,3.314,0,0,1,3.218-2.589h8.1a3.285,3.285,0,0,1,3.251,2.754l.443,2.659a1.189,1.189,0,0,0,1.173.994h3.616v3.993a1.189,1.189,0,0,0,2.378,0V61H78.8Z" transform="translate(0 0)"/>
        <path id="Trazado_945665" data-name="Trazado 945665" d="M48.926,36.366H46.684a2.473,2.473,0,0,0-2.47,2.47v5.377H38.836a2.473,2.473,0,0,0-2.47,2.47v2.242a2.473,2.473,0,0,0,2.47,2.47h5.377v5.377a2.473,2.473,0,0,0,2.47,2.47h2.242a2.473,2.473,0,0,0,2.47-2.47V51.4h5.377a2.473,2.473,0,0,0,2.47-2.47V46.684a2.473,2.473,0,0,0-2.47-2.47H51.4V38.836a2.473,2.473,0,0,0-2.47-2.47Zm7.848,10.226a.092.092,0,0,1,.092.092v2.242a.092.092,0,0,1-.092.092H50.528a1.511,1.511,0,0,0-1.51,1.51v6.246a.092.092,0,0,1-.092.092H46.684a.092.092,0,0,1-.092-.092V50.528a1.511,1.511,0,0,0-1.51-1.51H38.836a.092.092,0,0,1-.092-.092V46.684a.092.092,0,0,1,.092-.092h6.246a1.511,1.511,0,0,0,1.51-1.51V38.836a.092.092,0,0,1,.092-.092h2.242a.092.092,0,0,1,.092.092v6.246a1.511,1.511,0,0,0,1.51,1.51Z" transform="translate(-30.6 -30.6)"/>
      </g>
    </g>
  </g>
</svg>
