<svg xmlns="http://www.w3.org/2000/svg" width="148.999" height="148.999" viewBox="0 0 148.999 148.999">
  <g id="Grupo_1136723" data-name="Grupo 1136723" transform="translate(10727.092 -11100.426)">
    <g id="Grupo_1134306" data-name="Grupo 1134306" transform="translate(-10727.092 11100.426)">
      <g id="Grupo_1134302" data-name="Grupo 1134302" transform="translate(0 0)">
        <g id="Grupo_1132942" data-name="Grupo 1132942" transform="translate(0 0)">
          <g id="Grupo_1132682" data-name="Grupo 1132682" transform="translate(0 0)">
            <circle id="Elipse_5796" data-name="Elipse 5796" cx="74.499" cy="74.499" r="74.499" fill="#bad1ff"/>
          </g>
        </g>
      </g>
    </g>
    <g id="cardiologist_3461634" transform="translate(-10692.079 11127.625)">
      <path id="Trazado_938286" data-name="Trazado 938286" d="M130.316,32.995h3.029V28.479a5.115,5.115,0,0,1,5.109-5.109H162.93a5.115,5.115,0,0,1,5.109,5.109v4.516h3.029a5.687,5.687,0,0,1,2.582.617V21.358A13.858,13.858,0,0,0,159.793,7.5H128.658a.924.924,0,0,0-.924.924V33.612A5.687,5.687,0,0,1,130.316,32.995Z" transform="translate(-111.947 -6.114)" fill="#fed402"/>
      <g id="Grupo_1134307" data-name="Grupo 1134307" transform="translate(15.787 1.386)">
        <path id="Trazado_938287" data-name="Trazado 938287" d="M128.658,7.5a.924.924,0,0,0-.924.924V25.7h6.215a5.326,5.326,0,0,1,1.5-1.578V8.424a.924.924,0,0,1,.924-.924Z" transform="translate(-127.734 -7.5)" fill="#fac600"/>
      </g>
      <g id="Grupo_1134308" data-name="Grupo 1134308" transform="translate(15.787 19.585)">
        <path id="Trazado_938288" data-name="Trazado 938288" d="M343.4,108.779V113.3h2.845a5.687,5.687,0,0,1,2.582.617V106h-6.215A5.267,5.267,0,0,1,343.4,108.779Z" transform="translate(-302.906 -106)" fill="#b5adb6"/>
        <path id="Trazado_938289" data-name="Trazado 938289" d="M130.316,113.3h2.845v-4.516a5.269,5.269,0,0,1,.788-2.779h-6.215v7.912A5.687,5.687,0,0,1,130.316,113.3Z" transform="translate(-127.734 -106)" fill="#b5adb6"/>
      </g>
      <g id="Grupo_1134324" data-name="Grupo 1134324" transform="translate(0 0)">
        <g id="Grupo_1134317" data-name="Grupo 1134317" transform="translate(1.386 17.071)">
          <g id="Grupo_1134309" data-name="Grupo 1134309" transform="translate(0 39.281)">
            <path id="Trazado_938290" data-name="Trazado 938290" d="M122.664,341.854H51.64a1.848,1.848,0,0,1-1.848-1.848v-26.7a8.315,8.315,0,0,1,8.315-8.315H116.2a8.315,8.315,0,0,1,8.315,8.315v26.7A1.848,1.848,0,0,1,122.664,341.854Z" transform="translate(-49.792 -304.991)" fill="#f3f0f3"/>
          </g>
          <g id="Grupo_1134310" data-name="Grupo 1134310" transform="translate(0 39.281)">
            <path id="Trazado_938291" data-name="Trazado 938291" d="M57.518,340.006v-26.7a8.315,8.315,0,0,1,8.315-8.315H58.107a8.315,8.315,0,0,0-8.315,8.315v26.7a1.848,1.848,0,0,0,1.848,1.848h7.726A1.848,1.848,0,0,1,57.518,340.006Z" transform="translate(-49.792 -304.991)" fill="#e2dee2"/>
          </g>
          <g id="Grupo_1134311" data-name="Grupo 1134311" transform="translate(19.029 32.542)">
            <path id="Trazado_938292" data-name="Trazado 938292" d="M301.481,268.711a13.6,13.6,0,0,1-3.176,1.664v11.136h0v2.648a7.539,7.539,0,0,1,.586-.662,7.414,7.414,0,0,1,8.6-1.364Z" transform="translate(-271.417 -268.675)" fill="#e2dee2"/>
            <path id="Trazado_938293" data-name="Trazado 938293" d="M159.327,268.517l-6.5,14.26a.554.554,0,0,0,.194.689l4.456,3.017,5.073-2.952V270.217A13.6,13.6,0,0,1,159.327,268.517Z" transform="translate(-152.781 -268.517)" fill="#e2dee2"/>
          </g>
          <g id="Grupo_1134312" data-name="Grupo 1134312" transform="translate(19.035 47.556)">
            <path id="Trazado_938294" data-name="Trazado 938294" d="M153.09,355.295a.554.554,0,0,0-.23.7l9.721,22.367V349.773Z" transform="translate(-152.814 -349.773)" fill="#fff"/>
            <path id="Trazado_938295" data-name="Trazado 938295" d="M298.892,402.517a7.516,7.516,0,0,1-.586-.662V420.82l5.649-13.24Z" transform="translate(-271.424 -392.232)" fill="#fff"/>
          </g>
          <path id="Trazado_938296" data-name="Trazado 938296" d="M221.205,317.313a7.349,7.349,0,0,1,1.584-4.576V310.09h0l-6.2-6.324-2.354,4.474-2.354-4.474-6.2,6.324v30.765h17.115V321.889A7.352,7.352,0,0,1,221.205,317.313Z" transform="translate(-176.872 -264.711)" fill="#b5adb6"/>
          <path id="Trazado_938297" data-name="Trazado 938297" d="M205.674,277.719v41.9H209.5V278.511A13.589,13.589,0,0,1,205.674,277.719Z" transform="translate(-176.872 -243.477)" fill="#a79ba7"/>
          <g id="Grupo_1134313" data-name="Grupo 1134313" transform="translate(28.802 34.242)">
            <path id="Trazado_938298" data-name="Trazado 938298" d="M209.773,278.528a13.6,13.6,0,0,1-4.1-.809v11.137l6.2-6.324Z" transform="translate(-205.675 -277.719)" fill="#fff"/>
            <path id="Trazado_938299" data-name="Trazado 938299" d="M266.835,278.528l-2.106,4,6.2,6.324V277.719A13.6,13.6,0,0,1,266.835,278.528Z" transform="translate(-253.818 -277.719)" fill="#fff"/>
          </g>
          <path id="Trazado_938300" data-name="Trazado 938300" d="M236.193,282.1h-7.771c-.193,0-.384-.007-.575-.015l4.461,8.48,4.461-8.48C236.577,282.093,236.386,282.1,236.193,282.1Z" transform="translate(-194.947 -247.036)" fill="#ea9b58"/>
          <g id="Grupo_1134314" data-name="Grupo 1134314" transform="translate(11.271 9.81)">
            <path id="Trazado_938301" data-name="Trazado 938301" d="M119.348,157.091V145.483H116.5a5.712,5.712,0,0,0-5.712,5.712v1.724a5.712,5.712,0,0,0,5.712,5.712h2.934A13.728,13.728,0,0,1,119.348,157.091Z" transform="translate(-110.791 -145.483)" fill="#ea9b58"/>
            <path id="Trazado_938302" data-name="Trazado 938302" d="M349.33,145.483h-2.845v11.608a13.823,13.823,0,0,1-.089,1.541h2.934a5.712,5.712,0,0,0,5.712-5.712V151.2A5.713,5.713,0,0,0,349.33,145.483Z" transform="translate(-302.864 -145.483)" fill="#ea9b58"/>
          </g>
          <g id="Grupo_1134315" data-name="Grupo 1134315" transform="translate(19.828)">
            <path id="Trazado_938303" data-name="Trazado 938303" d="M178.522,127.456H170.75A13.646,13.646,0,0,1,157.1,113.81V97.686a5.294,5.294,0,0,1,5.294-5.294h24.476a5.294,5.294,0,0,1,5.294,5.294V113.81A13.646,13.646,0,0,1,178.522,127.456Z" transform="translate(-157.104 -92.392)" fill="#f6a96c"/>
          </g>
          <g id="Grupo_1134316" data-name="Grupo 1134316" transform="translate(19.828)">
            <path id="Trazado_938304" data-name="Trazado 938304" d="M162.854,113.81V97.686a5.294,5.294,0,0,1,5.294-5.294H162.4a5.294,5.294,0,0,0-5.294,5.294V113.81a13.646,13.646,0,0,0,13.646,13.646H176.5A13.646,13.646,0,0,1,162.854,113.81Z" transform="translate(-157.103 -92.392)" fill="#ea9b58"/>
          </g>
        </g>
        <g id="Grupo_1134323" data-name="Grupo 1134323">
          <g id="Grupo_1134319" data-name="Grupo 1134319" transform="translate(45.719 62.267)">
            <g id="Grupo_1134318" data-name="Grupo 1134318">
              <path id="Trazado_938305" data-name="Trazado 938305" d="M305.667,363.053a.857.857,0,0,1-.609-.253L291.9,349.646a7.407,7.407,0,0,1,10.475-10.476l3.289,3.289,3.288-3.289a7.408,7.408,0,0,1,10.476,10.476L306.276,362.8A.857.857,0,0,1,305.667,363.053Z" transform="translate(-289.733 -337.001)" fill="#fe646f"/>
            </g>
          </g>
          <g id="Grupo_1134321" data-name="Grupo 1134321" transform="translate(45.719 62.267)">
            <g id="Grupo_1134320" data-name="Grupo 1134320">
              <path id="Trazado_938306" data-name="Trazado 938306" d="M297.68,347.8a7.407,7.407,0,0,1,0-10.476c.094-.094.191-.185.29-.274a7.533,7.533,0,0,0-.83-.047,7.407,7.407,0,0,0-5.237,12.645L305.058,362.8a.86.86,0,0,0,1.217,0l3.2-3.2Z" transform="translate(-289.733 -337)" fill="#fd4755"/>
            </g>
          </g>
          <g id="Grupo_1134322" data-name="Grupo 1134322">
            <path id="Trazado_938307" data-name="Trazado 938307" d="M200.876,157.146a1.386,1.386,0,0,0,1.386-1.386v-3.965a1.386,1.386,0,0,0-2.771,0v3.965A1.386,1.386,0,0,0,200.876,157.146Z" transform="translate(-170.445 -122.618)"/>
            <path id="Trazado_938308" data-name="Trazado 938308" d="M290.876,157.146a1.386,1.386,0,0,0,1.386-1.386v-3.965a1.386,1.386,0,0,0-2.772,0v3.965A1.386,1.386,0,0,0,290.876,157.146Z" transform="translate(-243.816 -122.618)"/>
            <path id="Trazado_938309" data-name="Trazado 938309" d="M235.171,165.356a1.386,1.386,0,0,0,1.858-2.056l-1.464-1.323,1.8-3.964a1.386,1.386,0,0,0-2.524-1.145l-2.215,4.886a1.385,1.385,0,0,0,.333,1.6Z" transform="translate(-197.355 -127.22)"/>
            <path id="Trazado_938310" data-name="Trazado 938310" d="M209.922,222.866a10.519,10.519,0,0,0,14.884,0,1.386,1.386,0,1,0-1.96-1.96,7.762,7.762,0,0,1-10.964,0,1.386,1.386,0,0,0-1.96,1.96Z" transform="translate(-178.619 -179.759)"/>
            <path id="Trazado_938311" data-name="Trazado 938311" d="M119.783,64.785v-.118a9.711,9.711,0,0,0-9.7-9.7H96.67l-2.188-4.886a15.045,15.045,0,0,0,5.186-8.666h1.745a7.106,7.106,0,0,0,7.1-7.1V32.593a7.1,7.1,0,0,0-3.131-5.883V15.243A15.261,15.261,0,0,0,90.138,0H59a2.312,2.312,0,0,0-2.31,2.31v24.4a7.1,7.1,0,0,0-3.131,5.883v1.724a7.106,7.106,0,0,0,7.1,7.1h1.746a15.046,15.046,0,0,0,5.132,8.619l-2.247,4.932h-13.3a9.711,9.711,0,0,0-9.7,9.7v26.7A3.237,3.237,0,0,0,45.525,94.6H57.2a1.386,1.386,0,1,0,0-2.772H45.525a.463.463,0,0,1-.462-.462v-26.7a6.937,6.937,0,0,1,6.929-6.929h2.339V67.955a7.116,7.116,0,0,0-5.719,6.968V87.58A1.386,1.386,0,0,0,50,88.966h2.652a1.386,1.386,0,0,0,0-2.772H51.384V74.923a4.333,4.333,0,1,1,8.667,0V86.194H58.784a1.386,1.386,0,1,0,0,2.772h2.652a1.386,1.386,0,0,0,1.386-1.386V74.923c0-.167-.008-.333-.019-.5l7.564,17.4h-6.7a1.386,1.386,0,1,0,0,2.772h52.878a3.237,3.237,0,0,0,3.233-3.233v-16.8a8.806,8.806,0,0,0,0-9.778Zm-9.7-7.046a6.934,6.934,0,0,1,6.3,4.059,8.8,8.8,0,0,0-10.131,1.659l-2.308,2.309-2.309-2.309a8.832,8.832,0,0,0-1.781-1.376l-1.944-4.342h12.171ZM96.3,60.925q-.438-.043-.884-.044a8.741,8.741,0,0,0-4.438,1.2V52.241c.4-.177.792-.369,1.173-.579Zm3.506-39.954h2.8V25.6a7.111,7.111,0,0,0-1.2-.1H99.955v-3.13A6.664,6.664,0,0,0,99.808,20.971Zm5.933,11.622v1.724a4.332,4.332,0,0,1-4.327,4.327H99.953c0-.052,0-.1,0-.155V28.267h1.459a4.331,4.331,0,0,1,4.327,4.327Zm-45.08,6.051a4.332,4.332,0,0,1-4.327-4.327V32.593a4.332,4.332,0,0,1,4.327-4.327H62.12V38.489c0,.052,0,.1,0,.155ZM62.12,22.365v3.13H60.661a7.109,7.109,0,0,0-1.2.1V20.971h2.8A6.664,6.664,0,0,0,62.12,22.365Zm2.772,16.124V22.365A3.912,3.912,0,0,1,68.8,18.457H85.843a1.386,1.386,0,1,0,0-2.772h-3.68a5.829,5.829,0,0,1-3.988-5.523,1.386,1.386,0,1,0-2.772,0,8.55,8.55,0,0,0,2.018,5.523H73.849a5.829,5.829,0,0,1-3.988-5.523,1.386,1.386,0,1,0-2.772,0,8.55,8.55,0,0,0,2.018,5.523H68.8A6.669,6.669,0,0,0,63.583,18.2H59.465V2.772H90.138A12.486,12.486,0,0,1,102.61,15.243V18.2H98.492a6.669,6.669,0,0,0-5.216-2.514H92.31a1.386,1.386,0,1,0,0,2.772h.966a3.912,3.912,0,0,1,3.908,3.908V38.489a12.274,12.274,0,0,1-12.26,12.26H77.152a12.274,12.274,0,0,1-12.26-12.26Zm12.1,17.388-3.121,3.182v-5.9a14.964,14.964,0,0,0,1.845.3Zm-14.7,13.074a1.939,1.939,0,0,0-.962,1.623A7.115,7.115,0,0,0,57.1,67.957V57.738h6.926L61.5,63.3a1.935,1.935,0,0,0,.678,2.411l2.63,1.78Zm8.8,17.6-6.77-15.576,6.77-3.938Zm0-24.1v1.38l-3.632,2.113-3.153-2.135,5.55-12.181q.6.335,1.235.615Zm8.558,29.38H73.866V63.016l4.477-4.563,1.31,2.49V91.83Zm-.773-38.309H83.2l-2.159,4.1Zm9.33,11.119a8.726,8.726,0,0,0-1.584,5.034,8.874,8.874,0,0,0,.163,1.7H86.4a1.386,1.386,0,0,0,0,2.772h1.444c.114.193.238.38.368.565V91.83H82.423V60.943l1.31-2.49,4.476,4.563Zm0-5.581-3.121-3.182,1.277-2.427a14.937,14.937,0,0,0,1.845-.3Zm26,19.353a1.386,1.386,0,0,0,1.96,0l.842-.842v13.8a.462.462,0,0,1-.462.462H91.693L95.714,82.4l6.641,6.64a2.246,2.246,0,0,0,3.179,0l6.063-6.062a1.386,1.386,0,1,0-1.959-1.96l-5.691,5.691L91.37,74.141h3.342a1.386,1.386,0,0,0,.969-.4l1.754-1.716v6.313a1.386,1.386,0,0,0,2.407.937l4.712-5.138h5.6a1.386,1.386,0,0,0,0-2.772h-6.209a1.386,1.386,0,0,0-1.021.449l-2.717,2.963V68.734a1.386,1.386,0,0,0-2.355-.991l-3.7,3.626H89.639a6.023,6.023,0,0,1,10.038-5.953l3.289,3.289a1.386,1.386,0,0,0,1.96,0l3.288-3.289a6.022,6.022,0,1,1,8.516,8.516l-2.52,2.52a1.386,1.386,0,0,0,0,1.96ZM90.981,86.436V77.671L93.6,80.293Z" transform="translate(-42.292 0)"/>
          </g>
        </g>
      </g>
    </g>
  </g>
</svg>
