<svg xmlns="http://www.w3.org/2000/svg" width="148.999" height="148.999" viewBox="0 0 148.999 148.999">
  <g id="Grupo_1134331" data-name="Grupo 1134331" transform="translate(10727.092 -11513.007)">
    <g id="Grupo_1134326" data-name="Grupo 1134326" transform="translate(-10727.092 11513.007)">
      <g id="Grupo_1134306" data-name="Grupo 1134306" transform="translate(0 0)">
        <g id="Grupo_1134302" data-name="Grupo 1134302" transform="translate(0 0)">
          <g id="Grupo_1132942" data-name="Grupo 1132942" transform="translate(0)">
            <g id="Grupo_1132682" data-name="Grupo 1132682" transform="translate(0 0)">
              <circle id="Elipse_5796" data-name="Elipse 5796" cx="74.499" cy="74.499" r="74.499" fill="#bad1ff"/>
            </g>
          </g>
        </g>
      </g>
    </g>
    <g id="bigender_7407365" transform="translate(-10692.056 11537.39)">
      <g id="Grupo_1134329" data-name="Grupo 1134329" transform="translate(1.415 1.416)">
        <g id="Grupo_1134328" data-name="Grupo 1134328" transform="translate(0)">
          <path id="Trazado_938312" data-name="Trazado 938312" d="M110.679,309.289a9.6,9.6,0,0,1,7.052,6.815c2.378,8.823,8.544,12.758,8.844,17.013a1.926,1.926,0,0,1-1.921,2.062l-33.747,3.426h-18.5l-1.416-1.887-1.416,1.887H56.147a1.926,1.926,0,0,1-1.921-2.062,132.443,132.443,0,0,1,3.593-23.174,9.6,9.6,0,0,1,7.052-6.815l17.942-4.28L92.3,300.01Z" transform="translate(-54.22 -244.802)" fill="#a6e7f0"/>
          <path id="Trazado_938313" data-name="Trazado 938313" d="M190.544,77.312H167.7V43.3L148.32,39.647l9.42-23.772c-.2-1.707,10.618-8.375,12.337-8.375h8.7a6.424,6.424,0,0,1,6.424,6.424h1.887c0,.528-1.459.957-.931.957h1.887c2.422,0,2.5,1.964,2.5,4.386V77.312Z" transform="translate(-130.56 -7.5)" fill="#fee97d"/>
          <path id="Trazado_938314" data-name="Trazado 938314" d="M301.459,77.312h5.662V19.266a4.386,4.386,0,0,0-4.386-4.386.957.957,0,0,1-.957-.956A6.424,6.424,0,0,0,295.355,7.5h-5.662a6.424,6.424,0,0,1,6.424,6.424.956.956,0,0,0,.957.956,4.386,4.386,0,0,1,4.386,4.386Z" transform="translate(-245.25 -7.5)" fill="#fee45a"/>
          <path id="Trazado_938315" data-name="Trazado 938315" d="M288.6,313.369c-.914-3.393-1.463-3.264-4.881-4.08L256,300.01h0l1.433,38.594h18.583l1.887-2.029.944,2.029H290.27a1.926,1.926,0,0,0,1.921-2.062,132.44,132.44,0,0,0-3.593-23.174Z" transform="translate(-217.916 -244.802)" fill="#feaee1"/>
          <path id="Trazado_938316" data-name="Trazado 938316" d="M380.918,357.258a132.452,132.452,0,0,0-3.593-23.174,9.6,9.6,0,0,0-7.052-6.815l-7.231-1.725a10.151,10.151,0,0,1,6.875,7.055v0q.206.764.4,1.54l.015.06q.195.787.376,1.581v0a149.225,149.225,0,0,1,3.015,21.35,2.04,2.04,0,0,1-2.034,2.184H379A1.926,1.926,0,0,0,380.918,357.258Z" transform="translate(-304.755 -265.517)" fill="#fe93d3"/>
          <path id="Trazado_938317" data-name="Trazado 938317" d="M247.831,295.134c-.914-3.393-1.747-5.622-5.164-6.437l-7.231-2.1-10.6-2.528v-6.534h-17.2l-1.887,11.817a9.545,9.545,0,0,0,9.545,9.545v5.634s15.546.735,28.65-3.62a37.853,37.853,0,0,0,6.143-2.953C249.855,296.943,248.1,296.125,247.831,295.134Z" transform="translate(-177.149 -226.567)" fill="#fed2a4"/>
          <g id="Grupo_1134327" data-name="Grupo 1134327" transform="translate(58.287 60.028)">
            <path id="Trazado_938318" data-name="Trazado 938318" d="M369.918,332.6v0q.206.764.4,1.54l.015.06q.195.787.376,1.581v0c.309,1.354.589,2.718.843,4.071a41.223,41.223,0,0,0,6.521-2.763c-.231-1.013-.479-2.02-.746-3.011a9.6,9.6,0,0,0-7.052-6.815l-7.231-1.725A10.152,10.152,0,0,1,369.918,332.6Z" transform="translate(-363.043 -325.545)" fill="#ffbd86"/>
          </g>
          <path id="Trazado_938319" data-name="Trazado 938319" d="M205.747,289.35a9.545,9.545,0,0,0,9.5,9.544V277.533h-9.5Z" transform="translate(-177.148 -226.567)" fill="#f6a96c"/>
          <path id="Trazado_938320" data-name="Trazado 938320" d="M153.77,60.771,152.354,7.5h-19.52a2.869,2.869,0,0,0-2.849,3.208l3.444,28.939L152.813,43.3V60.771h.957Z" transform="translate(-115.669 -7.5)" fill="#b5adb6"/>
          <path id="Trazado_938321" data-name="Trazado 938321" d="M338.68,147.794h-1.207l-1.913,11.3h3.12a5.651,5.651,0,0,0,0-11.3Z" transform="translate(-282.46 -121.315)" fill="#f6a96c"/>
          <path id="Trazado_938322" data-name="Trazado 938322" d="M135.8,159.1h3.12l-1.913-11.3H135.8a5.652,5.652,0,0,0,0,11.3Z" transform="translate(-115.819 -121.314)" fill="#ffbd86"/>
          <path id="Trazado_938323" data-name="Trazado 938323" d="M190.814,69.384c-.653.5-1.418.672-2.29,1.251a43.375,43.375,0,0,1-20.344,7.092.961.961,0,0,0-.838.655,17.311,17.311,0,0,0-.852,5.38v11.86a15.818,15.818,0,0,0,16.912,16.94c9.34,0,15-7.479,15-16.94V83.762c0-6.331-1.478-11.476-6.52-14.442a.956.956,0,0,0-1.066.064Z" transform="translate(-145.3 -57.545)" fill="#fed2a4"/>
          <path id="Trazado_938324" data-name="Trazado 938324" d="M251.172,67.357c-.653.5-1.419,1.054-2.291,1.632a17.179,17.179,0,0,1,6.051,13.128v11.86a17.073,17.073,0,0,1-14.042,16.884,16.819,16.819,0,0,0,2.869.247,17.022,17.022,0,0,0,16.911-17.131V82.117a17.164,17.164,0,0,0-8.433-14.825A.956.956,0,0,0,251.172,67.357Z" transform="translate(-205.658 -55.9)" fill="#ffbd86"/>
        </g>
      </g>
      <g id="Grupo_1134330" data-name="Grupo 1134330" transform="translate(0 0)">
        <path id="Trazado_938325" data-name="Trazado 938325" d="M207.612,161.03a1.416,1.416,0,0,0-1.416,1.416v2.207a1.416,1.416,0,1,0,2.831,0v-2.207A1.416,1.416,0,0,0,207.612,161.03Z" transform="translate(-176.097 -130.637)"/>
        <path id="Trazado_938326" data-name="Trazado 938326" d="M292.406,161.03a1.416,1.416,0,0,0-1.416,1.416v2.207a1.416,1.416,0,0,0,2.831,0v-2.207A1.416,1.416,0,0,0,292.406,161.03Z" transform="translate(-244.887 -130.637)"/>
        <path id="Trazado_938327" data-name="Trazado 938327" d="M125.711,93.057a143.439,143.439,0,0,0-2.869-20.331c0-.006,0-.012,0-.018-.237-1.041-.491-2.076-.765-3.094a11,11,0,0,0-8.09-7.823l-2.559-.61V52.458a1.416,1.416,0,1,0-2.831,0v8.047L97.242,57.8V54.314a18.6,18.6,0,0,0,7.289-13.706,7.027,7.027,0,0,0,4.062-1.41v6.92a1.416,1.416,0,1,0,2.831,0V13.182A5.809,5.809,0,0,0,106.069,7.4,7.849,7.849,0,0,0,98.241,0H65.3a4.285,4.285,0,0,0-4.255,4.791l.8,6.709a1.415,1.415,0,1,0,2.811-.335l-.8-6.709A1.454,1.454,0,0,1,65.3,2.831h19.52V16.519A41.525,41.525,0,0,1,70.9,20.187a2.372,2.372,0,0,0-2.068,1.627,18.674,18.674,0,0,0-.883,4.669,7.057,7.057,0,0,0-1.447.185L65.386,17.3a1.416,1.416,0,0,0-2.811.335L63.8,27.955a7.061,7.061,0,0,0,4.141,12.654A18.6,18.6,0,0,0,75.319,54.38v3.389l-7.85,1.872a1.416,1.416,0,1,0,.657,2.754l7.193-1.716V64.2a10.975,10.975,0,0,0,9.5,10.861V93.8h-18.5V84.244a1.416,1.416,0,1,0-2.831,0V93.8H50.062a.511.511,0,0,1-.509-.547,131.78,131.78,0,0,1,3.548-22.9,8.168,8.168,0,0,1,6.013-5.806l2.989-.713a1.416,1.416,0,0,0-.657-2.754l-2.989.713a11,11,0,0,0-8.09,7.823,134.669,134.669,0,0,0-3.638,23.443,3.342,3.342,0,0,0,3.333,3.577h72.315a3.342,3.342,0,0,0,3.334-3.577Zm-31.3-34.106A1.43,1.43,0,0,0,95.5,60.292l17.828,4.253a8.167,8.167,0,0,1,6.013,5.806q.252.936.481,1.89c-11.3,5.61-27.5,5.822-32.167,5.756V74.084a1.373,1.373,0,0,0,0-.682V57.984A18.021,18.021,0,0,0,94.41,56.09v2.826c0,.012,0,.024,0,.036Zm7.321-19.458A15.651,15.651,0,0,1,87.653,55.14V47.8a13.052,13.052,0,0,0,2.881-.733,1.416,1.416,0,0,0-1-2.65,10.517,10.517,0,0,1-1.885.522V18.294a44.464,44.464,0,0,0,6.608-4.108,15.827,15.827,0,0,1,7.473,13.447v11.86Zm2.831-1.716V29.315a4.236,4.236,0,0,1,0,8.461ZM87.653,2.831H98.241A5.014,5.014,0,0,1,103.25,7.84a2.375,2.375,0,0,0,2.372,2.372,2.974,2.974,0,0,1,2.97,2.97V27.893a7.028,7.028,0,0,0-4.064-1.41,18.656,18.656,0,0,0-9.094-14.9,2.361,2.361,0,0,0-2.645.161,40.97,40.97,0,0,1-5.135,3.345V2.831ZM63.883,33.546a4.241,4.241,0,0,1,4.028-4.231v8.461A4.241,4.241,0,0,1,63.883,33.546Zm6.859,5.947V27.633a15.9,15.9,0,0,1,.69-4.65,44.268,44.268,0,0,0,13.39-3.369V44.966a8.579,8.579,0,0,1-1.846-.529A1.416,1.416,0,0,0,81.9,47.056a11.274,11.274,0,0,0,2.92.766V55.14A15.651,15.651,0,0,1,70.742,39.493ZM78.151,64.2V56.133a18.02,18.02,0,0,0,6.671,1.852v14.21A8.142,8.142,0,0,1,78.151,64.2Zm44.6,29.443a.506.506,0,0,1-.373.162h-13.31V84.244a1.416,1.416,0,0,0-2.831,0V93.8H87.653V80.834c.418.007.915.013,1.487.013,6.1,0,20.435-.6,31.317-5.766a144.715,144.715,0,0,1,2.43,18.176A.508.508,0,0,1,122.75,93.641Z" transform="translate(-46.721 0)"/>
      </g>
    </g>
  </g>
</svg>
