<svg xmlns="http://www.w3.org/2000/svg" width="148.999" height="148.999" viewBox="0 0 148.999 148.999">
  <g id="Grupo_1134337" data-name="Grupo 1134337" transform="translate(10727.092 -11931.507)">
    <g id="Grupo_1134332" data-name="Grupo 1134332" transform="translate(-10727.092 11931.507)">
      <g id="Grupo_1134326" data-name="Grupo 1134326">
        <g id="Grupo_1134306" data-name="Grupo 1134306">
          <g id="Grupo_1134302" data-name="Grupo 1134302" transform="translate(0 0)">
            <g id="Grupo_1132942" data-name="Grupo 1132942" transform="translate(0 0)">
              <g id="Grupo_1132682" data-name="Grupo 1132682" transform="translate(0 0)">
                <circle id="Elipse_5796" data-name="Elipse 5796" cx="74.499" cy="74.499" r="74.499" fill="#bad1ff"/>
              </g>
            </g>
          </g>
        </g>
      </g>
    </g>
    <g id="medicine_647237" transform="translate(-10697.868 11962.242)">
      <path id="Trazado_938328" data-name="Trazado 938328" d="M277.735,110.95v44.075a5.869,5.869,0,0,1-5.868,5.867H234.88a5.871,5.871,0,0,1-5.868-5.866V110.95a5.931,5.931,0,0,1,2.747-4.968,12.574,12.574,0,0,0,5.131-6.638c.011-.03.019-.058.03-.088a16.324,16.324,0,0,0,.8-5.5h31.308a16.242,16.242,0,0,0,.829,5.585,12.564,12.564,0,0,0,5.131,6.638A5.926,5.926,0,0,1,277.735,110.95Z" transform="translate(-188.509 -78.689)" fill="#ffe2cc"/>
      <g id="Grupo_1134333" data-name="Grupo 1134333" transform="translate(40.503 15.068)">
        <path id="Trazado_938329" data-name="Trazado 938329" d="M242.909,130.672v49.086a5.838,5.838,0,0,1-5.831,5.831h-5.3a5.86,5.86,0,0,1-2.77-4.98V136.533a5.931,5.931,0,0,1,2.747-4.968,12.574,12.574,0,0,0,5.131-6.638c.011-.03.019-.058.03-.088h.157A5.838,5.838,0,0,1,242.909,130.672Z" transform="translate(-229.013 -119.34)" fill="#ffdbb1"/>
        <path id="Trazado_938330" data-name="Trazado 938330" d="M252.788,371.493a13.431,13.431,0,0,1-1.884,6.878h-16.02a5.868,5.868,0,0,1-5.868-5.866V362.67a13.541,13.541,0,0,1,3.345-2.815,13.219,13.219,0,0,1,1.226-.645c.23-.106.443-.2.653-.281a13.438,13.438,0,0,1,4.5-.955l.055,0c.155,0,.311-.007.468-.007a13.527,13.527,0,0,1,13.527,13.527Z" transform="translate(-229.015 -311.236)" fill="#ffdbb1"/>
        <path id="Trazado_938331" data-name="Trazado 938331" d="M273.553,99.334a16.265,16.265,0,0,0,.831-5.587h31.307a16.272,16.272,0,0,0,.831,5.587Z" transform="translate(-265.676 -93.747)" fill="#ffdbb1"/>
        <path id="Trazado_938332" data-name="Trazado 938332" d="M448.915,110.94v44.075a5.866,5.866,0,0,1-5.369,5.846,5.855,5.855,0,0,0,2.137-4.529V112.258a5.933,5.933,0,0,0-2.746-4.968c-5.626-3.642-6.028-9.865-5.96-12.224l0-1.317h3.228c-.067,2.359.335,8.582,5.961,12.224A5.931,5.931,0,0,1,448.915,110.94Z" transform="translate(-400.192 -93.748)" fill="#ffdbb1"/>
      </g>
      <rect id="Rectángulo_414696" data-name="Rectángulo 414696" width="39.333" height="16.46" transform="translate(45.198 1.327)" fill="#b5f2d9"/>
      <rect id="Rectángulo_414697" data-name="Rectángulo 414697" width="39.333" height="2.718" transform="translate(45.198 15.068)" fill="#20cfa2"/>
      <rect id="Rectángulo_414698" data-name="Rectángulo 414698" width="34.025" height="28.874" transform="translate(47.852 39.893)" fill="#ff547e"/>
      <rect id="Rectángulo_414699" data-name="Rectángulo 414699" width="6.543" height="28.874" transform="translate(47.852 39.893)" fill="#e2035a"/>
      <rect id="Rectángulo_414700" data-name="Rectángulo 414700" width="34.025" height="7.99" transform="translate(47.852 60.776)" fill="#b5f2d9"/>
      <g id="Grupo_1134334" data-name="Grupo 1134334" transform="translate(47.852 60.776)">
        <rect id="Rectángulo_414701" data-name="Rectángulo 414701" width="6.543" height="7.99" transform="translate(0)" fill="#20cfa2"/>
        <path id="Trazado_938333" data-name="Trazado 938333" d="M285.292,364.935H270.563v-6.658a13.652,13.652,0,0,1,2.375-.3l.055,0c.155,0,.311-.007.468-.007a13.45,13.45,0,0,1,11.473,6.361C285.059,364.527,285.179,364.731,285.292,364.935Z" transform="translate(-270.563 -356.945)" fill="#20cfa2"/>
      </g>
      <g id="Grupo_1134335" data-name="Grupo 1134335" transform="translate(1.328 23.221)">
        <path id="Trazado_938334" data-name="Trazado 938334" d="M343.653,266.665h-1.574v-1.574A2.089,2.089,0,0,0,339.99,263h0a2.089,2.089,0,0,0-2.089,2.089v1.574h-1.574a2.089,2.089,0,0,0-2.089,2.089h0a2.089,2.089,0,0,0,2.089,2.089H337.9v1.574a2.089,2.089,0,0,0,2.089,2.089h0a2.089,2.089,0,0,0,2.089-2.089v-1.574h1.574a2.089,2.089,0,0,0,2.089-2.089h0A2.089,2.089,0,0,0,343.653,266.665Z" transform="translate(-276.453 -241.22)" fill="#b5f2d9"/>
        <path id="Trazado_938335" data-name="Trazado 938335" d="M57.925,143.021v49.086a3.177,3.177,0,0,1-3.177,3.179H35.7a3.174,3.174,0,0,1-2.889-1.865,3.18,3.18,0,0,1-2.093,1.762,3.132,3.132,0,0,1-.8.1H10.682a3.177,3.177,0,0,1-3.175-3.179V143.021a3.177,3.177,0,0,1,3.175-3.179H29.918a3.178,3.178,0,0,1,2.891,1.863,3.175,3.175,0,0,1,2.889-1.863H54.748A3.178,3.178,0,0,1,57.925,143.021Z" transform="translate(-7.507 -139.842)" fill="#b5f2d9"/>
      </g>
      <g id="Grupo_1134336" data-name="Grupo 1134336" transform="translate(6.268 23.221)">
        <path id="Trazado_938336" data-name="Trazado 938336" d="M164.073,357.792v13.65a3.177,3.177,0,0,1-3.177,3.179h-19.05a3.174,3.174,0,0,1-2.889-1.865,3.18,3.18,0,0,1-2.093,1.762,13.527,13.527,0,0,1,19.707-15.1c.277-.153.553-.293.83-.42.23-.106.443-.2.653-.281a13.437,13.437,0,0,1,4.5-.955l.055,0c.155,0,.311-.007.468-.007Q163.578,357.755,164.073,357.792Z" transform="translate(-118.595 -319.177)" fill="#20cfa2"/>
        <path id="Trazado_938337" data-name="Trazado 938337" d="M266.789,143.021v49.087a3.177,3.177,0,0,1-3.176,3.178h-2.364a3.179,3.179,0,0,0,3.178-3.178V143.021a3.179,3.179,0,0,0-3.178-3.178h2.364A3.177,3.177,0,0,1,266.789,143.021Z" transform="translate(-221.312 -139.843)" fill="#20cfa2"/>
        <path id="Trazado_938338" data-name="Trazado 938338" d="M48.563,189a7.688,7.688,0,1,1,2.252-5.436A7.638,7.638,0,0,1,48.563,189Z" transform="translate(-35.439 -169.507)" fill="#20cfa2"/>
      </g>
      <circle id="Elipse_9718" data-name="Elipse 9718" cx="5.509" cy="5.509" r="5.509" transform="translate(8.446 31.774)" fill="#fead44"/>
      <path id="Trazado_938339" data-name="Trazado 938339" d="M48.563,285.518a7.688,7.688,0,1,1,2.252-5.436A7.638,7.638,0,0,1,48.563,285.518Z" transform="translate(-29.17 -225.73)" fill="#20cfa2"/>
      <circle id="Elipse_9719" data-name="Elipse 9719" cx="5.509" cy="5.509" r="5.509" transform="translate(8.446 48.843)" fill="#fead44"/>
      <path id="Trazado_938340" data-name="Trazado 938340" d="M190.826,189a7.688,7.688,0,1,1,2.252-5.436A7.638,7.638,0,0,1,190.826,189Z" transform="translate(-146.274 -146.286)" fill="#20cfa2"/>
      <circle id="Elipse_9720" data-name="Elipse 9720" cx="5.509" cy="5.509" r="5.509" transform="translate(33.608 31.774)" fill="#fead44"/>
      <path id="Trazado_938341" data-name="Trazado 938341" d="M190.826,285.517a7.688,7.688,0,1,1,2.252-5.437A7.638,7.638,0,0,1,190.826,285.517Z" transform="translate(-146.274 -225.729)" fill="#20cfa2"/>
      <circle id="Elipse_9721" data-name="Elipse 9721" cx="5.509" cy="5.509" r="5.509" transform="translate(33.608 48.843)" fill="#fead44"/>
      <path id="Trazado_938342" data-name="Trazado 938342" d="M247.2,383.822a10.887,10.887,0,0,1-15,10.071c-.175-.072-.348-.148-.519-.23a10.531,10.531,0,0,1-.977-.521,10.883,10.883,0,0,1,.065-18.679,10.188,10.188,0,0,1,.98-.516c.171-.079.346-.155.523-.224a10.8,10.8,0,0,1,3.625-.772c.14,0,.279-.007.42-.007A10.878,10.878,0,0,1,247.2,383.822Z" transform="translate(-185.571 -308.497)" fill="#50b8ff"/>
      <path id="Trazado_938343" data-name="Trazado 938343" d="M232.79,396.965c-.191.191-.387.376-.588.553-.175-.072-.348-.148-.519-.23a10.552,10.552,0,0,1-.977-.521,10.883,10.883,0,0,1,.065-18.68,10.181,10.181,0,0,1,.98-.516c.171-.079.346-.155.523-.224.175.157.348.32.516.487A13.544,13.544,0,0,1,232.79,396.965Z" transform="translate(-185.571 -312.122)" fill="#0095f2"/>
      <circle id="Elipse_9722" data-name="Elipse 9722" cx="10.878" cy="10.878" r="10.878" transform="translate(26.777 64.401)" fill="#a3e9fb"/>
      <path id="Trazado_938344" data-name="Trazado 938344" d="M425.1,244.037a1.327,1.327,0,0,0-1.326,1.326v33.36a4.547,4.547,0,0,1-4.542,4.542h-9.865a1.326,1.326,0,1,0,0,2.653h9.865a7.2,7.2,0,0,0,7.195-7.194v-33.36A1.327,1.327,0,0,0,425.1,244.037Z" transform="translate(-335.876 -202.389)"/>
      <path id="Trazado_938345" data-name="Trazado 938345" d="M67.879,89.425H61.612a12.169,12.169,0,0,0,.162-10.783h20.1A1.326,1.326,0,0,0,83.2,77.315V69.338s0-.009,0-.014,0-.009,0-.014V48.441a1.326,1.326,0,0,0-1.326-1.326H53.071V34.946a4.477,4.477,0,0,0-.318-1.66,1.319,1.319,0,0,0,.593.141H66.607a1.326,1.326,0,0,0,0-2.653H53.345a1.325,1.325,0,0,0-1.324,1.286A4.5,4.5,0,0,0,49.3,30.5a16.015,16.015,0,0,0,.863-2.844H79.558a14.182,14.182,0,0,0,6.2,9.293A4.6,4.6,0,0,1,87.9,40.809v5.1a1.326,1.326,0,0,0,2.653,0v-5.1A7.24,7.24,0,0,0,87.2,34.726a11.49,11.49,0,0,1-4.922-7.066h2.253a1.326,1.326,0,0,0,1.326-1.326V9.874a1.326,1.326,0,0,0-1.326-1.326H45.2a1.326,1.326,0,0,0-1.326,1.326v16.46A1.326,1.326,0,0,0,45.2,27.66h2.251a12.735,12.735,0,0,1-1.036,2.783H29.52A4.508,4.508,0,0,0,26.629,31.5a4.5,4.5,0,0,0-2.891-1.054H18.075a1.326,1.326,0,0,0,0,2.653h5.663A1.851,1.851,0,0,1,25.42,34.18a1.327,1.327,0,0,0,1.207.778h0a1.326,1.326,0,0,0,1.207-.776A1.857,1.857,0,0,1,29.52,33.1H48.568a1.852,1.852,0,0,1,1.85,1.85V71.674a12.079,12.079,0,0,0-6.181,1.874,12.211,12.211,0,0,0-18.181,6.474H8.5a1.326,1.326,0,1,0,0,2.653H25.5c-.035.38-.055.764-.055,1.151,0,.288.013.573.033.858-.022.038-.045.075-.063.115a1.852,1.852,0,0,1-1.682,1.084H4.5a1.852,1.852,0,0,1-1.85-1.85V34.946A1.852,1.852,0,0,1,4.5,33.1h7.959a1.326,1.326,0,1,0,0-2.653H4.5a4.508,4.508,0,0,0-4.5,4.5V84.034a4.508,4.508,0,0,0,4.5,4.5H23.738a4.5,4.5,0,0,0,2.388-.69,12.21,12.21,0,0,0,18.039,6.3,12.2,12.2,0,0,0,15.609-2.072h8.1a1.327,1.327,0,0,0,0-2.653Zm.206-64.417H61.644V11.2h6.441ZM70.738,11.2h6.441V25.008H70.738V11.2ZM58.991,25.007H52.55V11.2h6.441Zm24.214,0H79.832V11.2h3.373V25.007ZM46.524,11.2H49.9V25.008H46.524ZM60.055,75.988a12.209,12.209,0,0,0-6.984-4.1V70.651H80.549v5.337H60.055ZM80.55,49.767V68H53.071V49.767ZM30.9,90.58A9.485,9.485,0,0,1,28.3,85.744c0-.024-.01-.048-.015-.073a9.649,9.649,0,0,1-.178-1.845,9.551,9.551,0,1,1,2.8,6.754Zm19.848,2.843a9.466,9.466,0,0,1-4.376-1.06,12.133,12.133,0,0,0,2.605-3.987h5.35a1.326,1.326,0,0,0,0-2.653H49.7A12.194,12.194,0,0,0,46.43,75.35a9.552,9.552,0,1,1,4.318,18.073Z" transform="translate(0 -8.548)"/>
      <path id="Trazado_938346" data-name="Trazado 938346" d="M393.544,134.22a1.326,1.326,0,1,0,0,2.653h2.688a1.326,1.326,0,1,0,0-2.653Z" transform="translate(-322.851 -111.994)"/>
      <path id="Trazado_938347" data-name="Trazado 938347" d="M341,367.28H330.283a1.326,1.326,0,0,0,0,2.653H341a1.326,1.326,0,0,0,0-2.653Z" transform="translate(-270.778 -303.835)"/>
      <path id="Trazado_938348" data-name="Trazado 938348" d="M330.152,266h.248v.248a3.415,3.415,0,1,0,6.83,0V266h.248a3.415,3.415,0,0,0,0-6.83h-.248v-.248a3.415,3.415,0,1,0-6.83,0v.248h-.248a3.415,3.415,0,0,0,0,6.83Zm0-4.178h1.574a1.327,1.327,0,0,0,1.326-1.326v-1.574a.762.762,0,1,1,1.525,0v1.574a1.327,1.327,0,0,0,1.326,1.326h1.574a.762.762,0,0,1,0,1.525H335.9a1.326,1.326,0,0,0-1.326,1.326v1.574a.762.762,0,1,1-1.525,0v-1.574a1.327,1.327,0,0,0-1.326-1.326h-1.574a.762.762,0,1,1,0-1.525Z" transform="translate(-268.951 -211.828)"/>
      <path id="Trazado_938349" data-name="Trazado 938349" d="M145.719,198.435V164.456a1.326,1.326,0,0,0-2.653,0v33.978a1.326,1.326,0,0,0,2.653,0Z" transform="translate(-117.763 -135.791)"/>
      <path id="Trazado_938350" data-name="Trazado 938350" d="M41.869,388.832a1.326,1.326,0,0,0,0,2.653H45.6a1.326,1.326,0,0,0,0-2.653Z" transform="translate(-33.373 -321.575)"/>
      <path id="Trazado_938351" data-name="Trazado 938351" d="M47.1,180.705a6.835,6.835,0,1,0,6.835,6.835A6.842,6.842,0,0,0,47.1,180.705Zm0,11.017a4.182,4.182,0,1,1,4.182-4.182A4.187,4.187,0,0,1,47.1,191.722Z" transform="translate(-33.143 -150.257)"/>
      <path id="Trazado_938352" data-name="Trazado 938352" d="M62.918,208.769a1.326,1.326,0,0,0-1.326,1.326v1.09a1.326,1.326,0,1,0,2.653,0V210.1A1.326,1.326,0,0,0,62.918,208.769Z" transform="translate(-50.699 -173.358)"/>
      <path id="Trazado_938353" data-name="Trazado 938353" d="M53.933,284.053a6.835,6.835,0,1,0-6.835,6.835A6.842,6.842,0,0,0,53.933,284.053Zm-11.017,0a4.182,4.182,0,1,1,4.182,4.182A4.187,4.187,0,0,1,42.917,284.053Z" transform="translate(-33.143 -229.701)"/>
      <path id="Trazado_938354" data-name="Trazado 938354" d="M62.918,305.28a1.326,1.326,0,0,0-1.326,1.326v1.09a1.326,1.326,0,0,0,2.653,0v-1.09A1.326,1.326,0,0,0,62.918,305.28Z" transform="translate(-50.699 -252.8)"/>
      <path id="Trazado_938355" data-name="Trazado 938355" d="M189.362,194.376a6.835,6.835,0,1,0-6.835-6.835A6.842,6.842,0,0,0,189.362,194.376Zm0-11.017a4.182,4.182,0,1,1-4.182,4.182A4.187,4.187,0,0,1,189.362,183.36Z" transform="translate(-150.245 -150.259)"/>
      <path id="Trazado_938356" data-name="Trazado 938356" d="M205.179,212.512a1.326,1.326,0,0,0,1.326-1.326V210.1a1.326,1.326,0,1,0-2.653,0v1.09A1.326,1.326,0,0,0,205.179,212.512Z" transform="translate(-167.8 -173.358)"/>
      <path id="Trazado_938357" data-name="Trazado 938357" d="M189.362,290.887a6.835,6.835,0,1,0-6.835-6.835A6.842,6.842,0,0,0,189.362,290.887Zm0-11.017a4.182,4.182,0,1,1-4.182,4.182A4.187,4.187,0,0,1,189.362,279.871Z" transform="translate(-150.245 -229.701)"/>
      <path id="Trazado_938358" data-name="Trazado 938358" d="M205.179,309.024a1.326,1.326,0,0,0,1.326-1.326v-1.09a1.326,1.326,0,1,0-2.653,0v1.09A1.326,1.326,0,0,0,205.179,309.024Z" transform="translate(-167.8 -252.801)"/>
      <path id="Trazado_938359" data-name="Trazado 938359" d="M180.657,425.474a1.326,1.326,0,0,0-1.876,1.876l5.062,5.062a1.326,1.326,0,1,0,1.876-1.876Z" transform="translate(-146.842 -351.417)"/>
    </g>
  </g>
</svg>
