<svg xmlns="http://www.w3.org/2000/svg" width="148.999" height="148.999" viewBox="0 0 148.999 148.999">
  <g id="Grupo_1134344" data-name="Grupo 1134344" transform="translate(12040.092 -12573.78)">
    <g id="Grupo_1134343" data-name="Grupo 1134343" transform="translate(-12040.092 12573.78)">
      <g id="Grupo_1134332" data-name="Grupo 1134332" transform="translate(0 0)">
        <g id="Grupo_1134326" data-name="Grupo 1134326" transform="translate(0)">
          <g id="Grupo_1134306" data-name="Grupo 1134306" transform="translate(0 0)">
            <g id="Grupo_1134302" data-name="Grupo 1134302" transform="translate(0 0)">
              <g id="Grupo_1132942" data-name="Grupo 1132942" transform="translate(0 0)">
                <g id="Grupo_1132682" data-name="Grupo 1132682">
                  <circle id="Elipse_5796" data-name="Elipse 5796" cx="74.499" cy="74.499" r="74.499" fill="#bad1ff"/>
                </g>
              </g>
            </g>
          </g>
        </g>
      </g>
    </g>
    <g id="cancer-ribbon_8127405" transform="translate(-12003.379 12599.736)">
      <g id="Grupo_1134339" data-name="Grupo 1134339" transform="translate(10.709 4.243)">
        <path id="Trazado_938360" data-name="Trazado 938360" d="M80.055,82.323,64.3,96.7l-44.5-58.262a16.728,16.728,0,0,1-1.376-18.35L26.687,5.1V6.782c.306,3.976,2.141,8.716,5.046,14.068,9.634,16.974,30.584,40.064,48.322,61.473Z" transform="translate(-16.322 -5.1)" fill="#fb7d85"/>
      </g>
      <g id="Grupo_1134340" data-name="Grupo 1134340" transform="translate(21.227 1.032)">
        <path id="Trazado_938361" data-name="Trazado 938361" d="M56.383,6.211V8.046c-.306,3.823-2.141,8.563-5.046,13.916a73.1,73.1,0,0,0-23.091,0C25.188,16.61,23.353,11.869,23.2,7.893V6.211a44.467,44.467,0,0,1,33.183,0Z" transform="translate(-23.2 -3)" fill="#fa5d66"/>
      </g>
      <g id="Grupo_1134341" data-name="Grupo 1134341" transform="translate(1.042 4.243)">
        <path id="Trazado_938362" data-name="Trazado 938362" d="M70.25,38.436,25.751,96.7,10,82.323c17.738-21.408,38.688-44.5,48.169-61.473,2.905-5.352,4.893-10.093,5.046-13.916V5.1l8.258,14.986a16.388,16.388,0,0,1-1.223,18.35Z" transform="translate(-10 -5.1)" fill="#fb7d85"/>
      </g>
      <g id="Grupo_1134342" data-name="Grupo 1134342" transform="translate(0 0)">
        <path id="Trazado_938363" data-name="Trazado 938363" d="M70.814,62.922c-6.117-7.34-12.386-14.68-18.656-22.173a1.194,1.194,0,0,0-1.835,1.529C56.287,49.312,62.4,56.5,68.367,63.686L54.3,76.532,37.631,54.511A1.194,1.194,0,1,0,35.8,56.041L53.228,78.825a1.091,1.091,0,0,0,1.682.153L70.661,64.6A1.4,1.4,0,0,0,70.814,62.922Z" transform="translate(4.546 17.78)"/>
        <path id="Trazado_938364" data-name="Trazado 938364" d="M71.528,40.669A17.873,17.873,0,0,0,72.9,21.1L64.646,6.11c-.153-.153-.459-.459-.612-.459a45.367,45.367,0,0,0-34.1,0c-.153.153-.459.153-.612.459L21.065,21.1a17.606,17.606,0,0,0,1.529,19.573l7.493,9.787a1.194,1.194,0,0,0,1.835-1.529L24.429,39.14a15.522,15.522,0,0,1-1.223-17.127l6.423-11.622c.765,4.129,2.905,8.563,4.893,12.233v.153a107.985,107.985,0,0,0,7.952,12.233,1.1,1.1,0,0,0,1.835-1.223,109.947,109.947,0,0,1-6.881-10.551,68.853,68.853,0,0,1,19.421,0C47.061,40.057,26.57,62.689,9.6,83.027a1.022,1.022,0,0,0,.153,1.529L25.5,98.931a1.091,1.091,0,0,0,1.682-.153ZM36.2,20.943C31,11.462,31.616,7.486,31.616,7.333a43.031,43.031,0,0,1,30.889,0c0,.153.306,2.905-1.988,8.41a54.932,54.932,0,0,1-2.6,5.2,84.392,84.392,0,0,0-10.857-.765A84.392,84.392,0,0,0,36.2,20.943ZM25.958,96.484,11.89,83.639c21.867-26.3,49.545-56.274,52.6-73.095l6.423,11.622a15.837,15.837,0,0,1-1.223,17.127Z" transform="translate(-9.319 -2.325)"/>
      </g>
    </g>
  </g>
</svg>
