<svg xmlns="http://www.w3.org/2000/svg" width="148.999" height="148.999" viewBox="0 0 148.999 148.999">
  <g id="Grupo_1134357" data-name="Grupo 1134357" transform="translate(10727.092 -13247.311)">
    <g id="Grupo_1134346" data-name="Grupo 1134346" transform="translate(-10727.092 13247.312)">
      <g id="Grupo_1134343" data-name="Grupo 1134343" transform="translate(0)">
        <g id="Grupo_1134332" data-name="Grupo 1134332" transform="translate(0)">
          <g id="Grupo_1134326" data-name="Grupo 1134326">
            <g id="Grupo_1134306" data-name="Grupo 1134306">
              <g id="Grupo_1134302" data-name="Grupo 1134302" transform="translate(0 0)">
                <g id="Grupo_1132942" data-name="Grupo 1132942" transform="translate(0 0)">
                  <g id="Grupo_1132682" data-name="Grupo 1132682" transform="translate(0 0)">
                    <circle id="Elipse_5796" data-name="Elipse 5796" cx="74.499" cy="74.499" r="74.499" fill="#bad1ff"/>
                  </g>
                </g>
              </g>
            </g>
          </g>
        </g>
      </g>
    </g>
    <g id="mental-health_15192734" transform="translate(-10695.152 13280.843)">
      <g id="Grupo_1134353" data-name="Grupo 1134353" transform="translate(0.914 0.905)">
        <g id="Grupo_1134347" data-name="Grupo 1134347" transform="translate(0 0.514)">
          <path id="Trazado_938365" data-name="Trazado 938365" d="M40.435,82.479c3.285,3.569,4.363,7.692,5.2,11.879H83.89c-5.255-11.349-8.094-22.6-3.662-33.282C92.449,31.646,78.786,11.242,57.049,8.953c-12.6-1.324-31.5,3.569-36.709,16.57-2.324,5.79-1.932,12.58,1.824,18.992-5.878,8.991-13.688,14.119-2.451,19.61-3.289,3.388-3.128,5.03.142,7.265-1.667,2.917-1.706,4.814,2.554,5.55-5.951,16.158,14.07,8.187,18.026,5.54Z" transform="translate(-13.999 -8.744)" fill="#f7c5b8" fill-rule="evenodd"/>
        </g>
        <g id="Grupo_1134348" data-name="Grupo 1134348" transform="translate(10.924 6.414)">
          <path id="Trazado_938366" data-name="Trazado 938366" d="M132.123,67.317A8.571,8.571,0,0,1,129.3,73.7a9.4,9.4,0,0,1-5.83,7.971,18.37,18.37,0,0,1,4.088,12.059h-4.893c-3.125-8.912-10.622-5.088-12.715-11.691a11.567,11.567,0,0,1-.462-2.378h0c-.152.01-.3.014-.455.014a8.86,8.86,0,0,1-2.9-.484A8.864,8.864,0,0,1,92.3,76.132a.006.006,0,0,0,0-.005,10.161,10.161,0,0,1-2.3.728,10.522,10.522,0,0,1-9.91-17.269l-.01-.021,0,0a4.632,4.632,0,0,1,3-6.452.022.022,0,0,0,.01,0,6.85,6.85,0,0,1,6.849-6.6A6.98,6.98,0,0,1,91.9,46.8a8.917,8.917,0,0,1,13.409-1.323,4.614,4.614,0,0,1,8.461.751,9.991,9.991,0,0,1,1.932-.187A10.108,10.108,0,0,1,125.815,56.1a5.031,5.031,0,0,1,.668-.049,4.617,4.617,0,0,1,4.612,4.612,4.674,4.674,0,0,1-.4,1.892,8.6,8.6,0,0,1,1.43,4.756Z" transform="translate(-77.476 -43.03)" fill="#df646e" fill-rule="evenodd"/>
        </g>
        <g id="Grupo_1134349" data-name="Grupo 1134349" transform="translate(41.933 6.415)">
          <path id="Trazado_938367" data-name="Trazado 938367" d="M278.384,74.482,262.3,58.4a15.909,15.909,0,0,1-4.1-15.354c.118-.01.24-.015.358-.015a4.614,4.614,0,0,1,4.393,3.192,10.006,10.006,0,0,1,1.932-.186A10.109,10.109,0,0,1,275,56.108a5.022,5.022,0,0,1,.667-.049,4.618,4.618,0,0,1,4.613,4.613,4.676,4.676,0,0,1-.4,1.892,8.609,8.609,0,0,1-1.4,11.133C278.458,73.962,278.428,74.227,278.384,74.482Z" transform="translate(-257.667 -43.033)" fill="#d82f3c" fill-rule="evenodd"/>
        </g>
        <g id="Grupo_1134350" data-name="Grupo 1134350" transform="translate(47.254)">
          <path id="Trazado_938368" data-name="Trazado 938368" d="M291.668,8.838a10.593,10.593,0,0,1,14.938,0,10.563,10.563,0,0,1,14.938,14.938L306.606,38.714,291.668,23.776a10.593,10.593,0,0,1,0-14.938Z" transform="translate(-288.587 -5.757)" fill="#55d1f5" fill-rule="evenodd"/>
        </g>
        <g id="Grupo_1134351" data-name="Grupo 1134351" transform="translate(25.068 16.234)">
          <path id="Trazado_938369" data-name="Trazado 938369" d="M176.128,116.991h-.009a1.211,1.211,0,0,1-1.12-.775l-4.522-11.725-2.337,5.361a1.211,1.211,0,0,1-1.11.727h-6.153a1.211,1.211,0,0,1,0-2.422h5.359l3.2-7.337a1.211,1.211,0,0,1,2.24.048l4.48,11.614,1.44-3.567a1.211,1.211,0,0,1,1.123-.758h6.1a1.211,1.211,0,0,1,0,2.422h-5.282l-2.283,5.655A1.211,1.211,0,0,1,176.128,116.991Z" transform="translate(-159.666 -100.092)" fill="#fff"/>
        </g>
        <g id="Grupo_1134352" data-name="Grupo 1134352" transform="translate(63.11 0.022)">
          <path id="Trazado_938370" data-name="Trazado 938370" d="M391.046,5.885a10.549,10.549,0,0,1,6.785,18L382.893,38.819l-2.162-2.162,13.384-13.379a10.593,10.593,0,0,0,0-14.938,18.959,18.959,0,0,0-3.069-2.456Z" transform="translate(-380.731 -5.885)" fill="#3fc3e8" fill-rule="evenodd"/>
        </g>
      </g>
      <path id="Trazado_938371" data-name="Trazado 938371" d="M365.861,57.463h-4.221V53.242a1.2,1.2,0,1,0-2.4,0v4.221h-4.221a1.2,1.2,0,0,0,0,2.4h4.221v4.221a1.2,1.2,0,1,0,2.4,0v-4.22h4.221a1.2,1.2,0,1,0,0-2.4Z" transform="translate(-294.421 -43.171)"/>
      <path id="Trazado_938372" data-name="Trazado 938372" d="M90.387,3.919A11.707,11.707,0,0,0,74.7,3.148a11.738,11.738,0,0,0-14.424-.319,36.249,36.249,0,0,0-7.517-1.6A48.67,48.67,0,0,0,31.223,4.2C25.582,6.375,18.2,10.611,15.068,18.429a22.193,22.193,0,0,0,1.516,19.262c-1.03,1.525-2.1,2.927-3.139,4.287C10.551,45.77,8.052,49.045,8.829,52.33c.463,1.956,2,3.638,4.8,5.226A5.6,5.6,0,0,0,12,61.516a4.957,4.957,0,0,0,2.151,3.27,4.579,4.579,0,0,0-.4,3.914,4.381,4.381,0,0,0,2.919,2.118c-1.278,4.154-.859,7.1,1.25,8.758a7.561,7.561,0,0,0,4.745,1.348c4.714,0,10.579-2.478,13.222-3.936,2.611,3.214,3.523,6.93,4.225,10.48a1.2,1.2,0,0,0,1.179.969h38a1.2,1.2,0,0,0,1.091-1.708C74.2,73.391,73.088,63.5,76.763,54.646c3.71-8.94,5.214-17.362,4.475-25.046l9.148-9.148a11.7,11.7,0,0,0,0-16.534ZM74.542,53.724a31.186,31.186,0,0,0-1.87,16.912,60.06,60.06,0,0,0,4.754,15.4H42.276c-.811-3.866-2-7.87-5.253-11.407a1.2,1.2,0,0,0-1.554-.185,32.022,32.022,0,0,1-7.924,3.31c-3.859,1.051-6.749,1.028-8.136-.064-1.757-1.384-.993-4.751-.043-7.331a1.2,1.2,0,0,0-.924-1.6c-1.971-.34-2.416-.868-2.515-1.079-.144-.3-.118-1.012.818-2.65a1.2,1.2,0,0,0-.365-1.589c-1.278-.874-1.927-1.58-1.986-2.16-.07-.693.594-1.748,2.028-3.225a1.2,1.2,0,0,0-.335-1.918c-2.959-1.446-4.568-2.871-4.919-4.356-.515-2.178,1.56-4.9,4.187-8.339C16.5,41.937,17.8,40.236,19,38.4a1.2,1.2,0,0,0,.031-1.266c-3.4-5.8-4.012-12.125-1.732-17.809,2.81-7.016,9.593-10.878,14.788-12.882A46.145,46.145,0,0,1,52.51,3.623a34.314,34.314,0,0,1,5.774,1.1,11.547,11.547,0,0,0-2.03,3.6,5.794,5.794,0,0,0-8.107.43,10.061,10.061,0,0,0-13.561,1.71,8.01,8.01,0,0,0-9.415,6.739,5.8,5.8,0,0,0-3.225,7.1A11.658,11.658,0,0,0,34.892,42.456a10,10,0,0,0,14.551,2.859,9.839,9.839,0,0,0,2.026.334c.845,4.872,3.826,6.012,6.476,7.026,2.6.993,5.048,1.93,6.526,6.145a1.2,1.2,0,0,0,1.135.8h4.858a1.2,1.2,0,0,0,1.2-1.213,19.709,19.709,0,0,0-3.424-11.535,10.443,10.443,0,0,0,5.1-7.782,9.712,9.712,0,0,0,2.429-4.026l3.211-3.211c.278,6.742-1.21,14.084-4.441,21.868ZM60.6,39.991a9.748,9.748,0,0,0,9.685,1.173,8.184,8.184,0,0,1-4.336,4.167,1.2,1.2,0,0,0-.472,1.883,16.615,16.615,0,0,1,3.746,10H66.433c-1.9-4.6-5.061-5.808-7.63-6.79-2.4-.919-4.211-1.613-4.886-4.772a13.74,13.74,0,0,0,2.891-.37,1.2,1.2,0,1,0-.575-2.335,13.27,13.27,0,0,1-3.67.3c-.04,0-.08,0-.121,0-.124.008-.251.012-.375.012a7.456,7.456,0,0,1-2.478-.419,1.2,1.2,0,0,0-1.183.223A7.586,7.586,0,0,1,35.871,37.3s0,0,0-.006a7.469,7.469,0,0,1,.877-3.539,1.2,1.2,0,1,0-2.123-1.129A9.919,9.919,0,0,0,33.6,35.7a3.644,3.644,0,0,1-2.067-3.262,1.2,1.2,0,0,0-2.393.239,6.035,6.035,0,0,0,4.372,5.559,9.929,9.929,0,0,0,.4,2,9.247,9.247,0,0,1-10.67-13.565,7.214,7.214,0,0,0,2.218,1.865,1.2,1.2,0,1,0,1.151-2.111,4.926,4.926,0,0,1-2.186-2.407l-.01-.019,0-.012A3.39,3.39,0,0,1,26.6,19.252l0,0a1.206,1.206,0,0,0,.129-.041,3.689,3.689,0,0,1,3.245.314,1.2,1.2,0,0,0,1.479-1.9,5.719,5.719,0,0,0-3.683-1.046A5.58,5.58,0,0,1,33.1,12.733a5.686,5.686,0,0,1,1.62.237,1.2,1.2,0,0,0,1.324-.458A7.652,7.652,0,0,1,47.55,11.376a1.2,1.2,0,0,0,1.889-.308,3.38,3.38,0,0,1,6.185.518q-.015.3-.015.6a11.608,11.608,0,0,0,3.412,8.267L73.332,34.764a7.327,7.327,0,0,1-1.948,2.874h0a7.339,7.339,0,0,1-9.337.431A1.2,1.2,0,0,0,60.6,39.991ZM74.7,32.735,60.721,18.752A9.286,9.286,0,0,1,73.853,5.619a1.2,1.2,0,0,0,1.7,0A9.286,9.286,0,1,1,88.686,18.752Z" transform="translate(-8.686 -0.5)"/>
    </g>
  </g>
</svg>
