<svg xmlns="http://www.w3.org/2000/svg" width="148.999" height="148.999" viewBox="0 0 148.999 148.999">
  <g id="Grupo_1136724" data-name="Grupo 1136724" transform="translate(10727.092 -13247.311)">
    <g id="Grupo_1134354" data-name="Grupo 1134354" transform="translate(-10727.092 13247.312)">
      <g id="Grupo_1134346" data-name="Grupo 1134346">
        <g id="Grupo_1134343" data-name="Grupo 1134343" transform="translate(0)">
          <g id="Grupo_1134332" data-name="Grupo 1134332" transform="translate(0)">
            <g id="Grupo_1134326" data-name="Grupo 1134326">
              <g id="Grupo_1134306" data-name="Grupo 1134306">
                <g id="Grupo_1134302" data-name="Grupo 1134302" transform="translate(0 0)">
                  <g id="Grupo_1132942" data-name="Grupo 1132942" transform="translate(0 0)">
                    <g id="Grupo_1132682" data-name="Grupo 1132682" transform="translate(0 0)">
                      <circle id="Elipse_5796" data-name="Elipse 5796" cx="74.499" cy="74.499" r="74.499" fill="#bad1ff"/>
                    </g>
                  </g>
                </g>
              </g>
            </g>
          </g>
        </g>
      </g>
    </g>
    <g id="marketing_3135533" transform="translate(-10699.585 13280.998)">
      <path id="Trazado_938373" data-name="Trazado 938373" d="M90.683,41.167H15.549A8.049,8.049,0,0,0,7.5,49.216v5.907l4.008,5.507h83.05l4.174-5.507V49.216A8.049,8.049,0,0,0,90.683,41.167Z" transform="translate(-6.123 -39.79)" fill="#e27d47"/>
      <path id="Trazado_938374" data-name="Trazado 938374" d="M441.792,41.167h-4.24a8.049,8.049,0,0,1,8.049,8.049v9.578l4.24-3.671V49.216A8.049,8.049,0,0,0,441.792,41.167Z" transform="translate(-357.233 -39.79)" fill="#dd544f"/>
      <path id="Trazado_938375" data-name="Trazado 938375" d="M90.683,182.11H15.549A8.049,8.049,0,0,1,7.5,174.061V117.194H98.732v56.867A8.049,8.049,0,0,1,90.683,182.11Z" transform="translate(-6.123 -101.861)" fill="#ffe07d"/>
      <path id="Trazado_938376" data-name="Trazado 938376" d="M445.6,117.194v56.867a8.049,8.049,0,0,1-8.049,8.049h4.24a8.049,8.049,0,0,0,8.049-8.049V117.194Z" transform="translate(-357.233 -101.861)" fill="#ffd064"/>
      <g id="Grupo_1134355" data-name="Grupo 1134355" transform="translate(23.384 24.157)">
        <path id="Trazado_938377" data-name="Trazado 938377" d="M222.617,339.181,220.1,341.7l-3.788,3.787,5.8,5.8,5.822,5.823a2.283,2.283,0,0,0,3.228,0l.559-.559a2.283,2.283,0,0,0,0-3.228l-3.987-3.988a1.454,1.454,0,0,1-.339-1.523l.71-1.961a1.455,1.455,0,0,0-.339-1.523Z" transform="translate(-199.987 -307.256)" fill="#365e7d"/>
        <path id="Trazado_938378" data-name="Trazado 938378" d="M216.31,345.487l3.646,3.647,6.307-6.306-3.646-3.647L220.1,341.7Z" transform="translate(-199.987 -307.256)" fill="#2b4d66"/>
        <path id="Trazado_938379" data-name="Trazado 938379" d="M212.154,195.457l17.05-7.03-23.157-23.161-7.033,17.049-.89,3.828,9.388,9.39Z" transform="translate(-185.14 -165.266)" fill="#e27d47"/>
        <path id="Trazado_938380" data-name="Trazado 938380" d="M165.983,271.286l-10.531,10.529a2.525,2.525,0,0,1-3.571,0l-9.569-9.57a2.525,2.525,0,0,1,0-3.571l10.531-10.529Z" transform="translate(-138.969 -241.095)" fill="#f6f1f1"/>
        <path id="Trazado_938381" data-name="Trazado 938381" d="M0,0H3.042V18.583H0Z" transform="translate(11.714 19.194) rotate(-45)" fill="#dae4ea"/>
        <path id="Trazado_938382" data-name="Trazado 938382" d="M234.352,168.35,255.7,189.7l3.084-1.272-23.157-23.161Z" transform="translate(-214.717 -165.266)" fill="#dd544f"/>
        <path id="Trazado_938383" data-name="Trazado 938383" d="M136.138,351.523l3-3-7.25-7.251-3,3a5.127,5.127,0,1,0,7.25,7.251Z" transform="translate(-127.386 -308.963)" fill="#e27d47"/>
        <path id="Trazado_938384" data-name="Trazado 938384" d="M161.686,282.154l-2.406,2.405a2.26,2.26,0,0,1-3.2,0l-2.225-2.225,5.6-5.6,2.225,2.225A2.26,2.26,0,0,1,161.686,282.154Z" transform="translate(-149 -256.272)" fill="#e27d47"/>
        <path id="Trazado_938385" data-name="Trazado 938385" d="M173.705,278.693l2.225,2.225a2.26,2.26,0,0,1,0,3.2l1.959-1.959a2.26,2.26,0,0,0,0-3.2l-2.225-2.225Z" transform="translate(-165.202 -256.272)" fill="#dd544f"/>
      </g>
      <g id="Grupo_1134356" data-name="Grupo 1134356" transform="translate(0 0)">
        <path id="Trazado_938386" data-name="Trazado 938386" d="M52.612,71.681a1.377,1.377,0,1,0,0,2.753H54.5a1.377,1.377,0,0,0,0-2.753Z" transform="translate(-41.83 -64.703)"/>
        <path id="Trazado_938387" data-name="Trazado 938387" d="M103.527,71.681a1.377,1.377,0,0,0,0,2.753h1.892a1.377,1.377,0,1,0,0-2.753Z" transform="translate(-83.399 -64.703)"/>
        <path id="Trazado_938388" data-name="Trazado 938388" d="M156.334,74.434a1.377,1.377,0,0,0,0-2.753h-1.892a1.377,1.377,0,1,0,0,2.753Z" transform="translate(-124.968 -64.703)"/>
        <path id="Trazado_938389" data-name="Trazado 938389" d="M165.462,179.516a1.377,1.377,0,1,0,1.947-1.947L142.07,152.225a1.377,1.377,0,1,0-1.947,1.947l.442.442-3.061,7.422A1.376,1.376,0,0,0,135.7,164.1l.676.676-2.385,5.782-10.336,10.334a3.906,3.906,0,0,0,0,5.518l.186.186-.973.973,0,0a1.377,1.377,0,0,0-1.947,1.947l.091.091a6.5,6.5,0,0,0,9.021,9.023l.091.091a1.377,1.377,0,0,0,1.947-1.947l0,0,.973-.973.186.186a3.906,3.906,0,0,0,5.518,0l.191-.191,3.641,3.642a1.377,1.377,0,0,0,1.947-1.947l-3.641-3.642,4.36-4.359,2.849,2.849a.078.078,0,0,1,.018.081l-.71,1.961a2.842,2.842,0,0,0,.66,2.965l3.987,3.988a.907.907,0,0,1,0,1.281l-.559.559a.907.907,0,0,1-1.281,0l-1.791-1.791a1.377,1.377,0,0,0-1.947,1.947l1.791,1.791a3.664,3.664,0,0,0,5.175,0l.559-.559a3.664,3.664,0,0,0,0-5.175L150,195.4a.078.078,0,0,1-.018-.081l.71-1.961a2.842,2.842,0,0,0-.66-2.965l-2.849-2.849,1.891-1.891,5.782-2.384.676.676a1.376,1.376,0,0,0,2.067-1.807l7.422-3.06Zm-32.469-.317h0l-2.406,2.405a.882.882,0,0,1-1.249,0l-1.251-1.252,3.655-3.654,1.251,1.252A.882.882,0,0,1,132.993,179.2Zm-9.238,16.677a3.741,3.741,0,0,1-.736-4.254l4.988,4.989A3.753,3.753,0,0,1,123.755,195.876Zm7.331-2.027-.973.973-5.3-5.3.973-.973Zm4.08.186-9.569-9.57a1.15,1.15,0,0,1,0-1.624l.542-.542,1.252,1.252a3.636,3.636,0,0,0,5.143,0l2.406-2.405a3.634,3.634,0,0,0,0-5.143l-1.252-1.252,1.466-1.466,11.193,11.194-8.391,8.389,0,0,0,0-1.162,1.162A1.15,1.15,0,0,1,135.166,194.035Zm13.452-11.178-11.841-11.843,1.7-4.127,14.266,14.269Zm6.885-2.839L139.617,164.13l3.056-7.408,20.238,20.242Z" transform="translate(-97.896 -130.133)"/>
        <path id="Trazado_938390" data-name="Trazado 938390" d="M326.1,175.987l-3.689,3.689a1.377,1.377,0,0,0,1.947,1.947l3.689-3.689a1.377,1.377,0,1,0-1.947-1.947Z" transform="translate(-262.896 -149.533)"/>
        <path id="Trazado_938391" data-name="Trazado 938391" d="M285.47,146.619V141.4a1.377,1.377,0,1,0-2.754,0v5.217a1.377,1.377,0,1,0,2.754,0Z" transform="translate(-230.819 -120.502)"/>
        <path id="Trazado_938392" data-name="Trazado 938392" d="M348.694,236.57a1.377,1.377,0,0,0,1.377,1.377h5.217a1.377,1.377,0,0,0,0-2.753h-5.217A1.377,1.377,0,0,0,348.694,236.57Z" transform="translate(-284.686 -198.2)"/>
        <path id="Trazado_938393" data-name="Trazado 938393" d="M57.675,169.821a1.377,1.377,0,0,0-1.377-1.377H44.521a1.377,1.377,0,1,0,0,2.753H56.3A1.377,1.377,0,0,0,57.675,169.821Z" transform="translate(-35.224 -143.704)"/>
        <path id="Trazado_938394" data-name="Trazado 938394" d="M44.521,205.918a1.377,1.377,0,1,0,0,2.753h8.106a1.377,1.377,0,0,0,0-2.753Z" transform="translate(-35.224 -174.299)"/>
        <path id="Trazado_938395" data-name="Trazado 938395" d="M363.018,365.523h-19.54a1.377,1.377,0,0,0,0,2.754h19.54a1.377,1.377,0,0,0,0-2.754Z" transform="translate(-279.303 -304.606)"/>
        <path id="Trazado_938396" data-name="Trazado 938396" d="M395.675,398.567h-12.2a1.377,1.377,0,1,0,0,2.753h12.2a1.377,1.377,0,1,0,0-2.753Z" transform="translate(-311.961 -331.584)"/>
        <path id="Trazado_938397" data-name="Trazado 938397" d="M84.56,33.667H29.494a1.377,1.377,0,1,0,0,2.753H84.56a6.68,6.68,0,0,1,6.672,6.672v4.53H2.753v-4.53A6.68,6.68,0,0,1,9.426,36.42H23.989a1.377,1.377,0,0,0,0-2.753H9.426A9.436,9.436,0,0,0,0,43.093v62.774a9.436,9.436,0,0,0,9.426,9.426H84.56a9.436,9.436,0,0,0,9.426-9.426v-3.412a1.377,1.377,0,1,0-2.753,0v3.412a6.68,6.68,0,0,1-6.672,6.672H9.426a6.68,6.68,0,0,1-6.672-6.672V50.376H91.232V96.949a1.377,1.377,0,0,0,2.753,0V43.093A9.436,9.436,0,0,0,84.56,33.667Z" transform="translate(0 -33.667)"/>
      </g>
    </g>
  </g>
</svg>
