<svg xmlns="http://www.w3.org/2000/svg" width="50.61" height="50.611" viewBox="0 0 50.61 50.611">
  <g id="Grupo_1132605" data-name="Grupo 1132605" transform="translate(10833.103 9440)">
    <circle id="Elipse_9681" data-name="Elipse 9681" cx="23.991" cy="23.991" r="23.991" transform="translate(-10831.789 -9438.687)" fill="#ffd039"/>
    <path id="Trazado_933116" data-name="Trazado 933116" d="M244.661,8.134c-.739,0-1.469.035-2.191.1a23.99,23.99,0,0,1,0,47.78c.722.065,1.452.1,2.191.1a23.991,23.991,0,0,0,0-47.981Z" transform="translate(-11052.458 -9446.819)" fill="#ffae47"/>
    <path id="Trazado_933117" data-name="Trazado 933117" d="M189.129,110.22a3.015,3.015,0,0,1-2.131-.883l-6.854-6.854a3.014,3.014,0,0,1,4.262-4.262l4.723,4.723,11.578-11.578a3.014,3.014,0,1,1,4.262,4.262L191.26,109.337A3.012,3.012,0,0,1,189.129,110.22Z" transform="translate(-11000.354 -9514.703)" fill="#00b76c"/>
    <path id="Trazado_933118" data-name="Trazado 933118" d="M182.962,105.377a4.3,4.3,0,0,0,3.06-1.268L199.731,90.4a4.328,4.328,0,1,0-6.121-6.121L182.962,94.928l-3.794-3.794a4.328,4.328,0,0,0-6.121,6.121l6.854,6.854A4.3,4.3,0,0,0,182.962,105.377Zm-8.056-12.384a1.7,1.7,0,0,1,2.4,0l4.723,4.723a1.315,1.315,0,0,0,1.859,0l11.578-11.578a1.7,1.7,0,1,1,2.4,2.4L184.163,102.25a1.7,1.7,0,0,1-2.4,0L174.906,95.4A1.7,1.7,0,0,1,174.906,92.993Z" transform="translate(-10994.187 -9508.546)"/>
    <path id="Trazado_933119" data-name="Trazado 933119" d="M161.507,25.956a25.305,25.305,0,0,0-42.2-18.841,1.315,1.315,0,0,0,1.756,1.957,22.655,22.655,0,1,1-3.318,3.7,1.314,1.314,0,1,0-2.138-1.53,25.306,25.306,0,1,0,45.9,14.709Z" transform="translate(-10944 -9440.651)"/>
  </g>
</svg>
