<svg xmlns="http://www.w3.org/2000/svg" xmlns:xlink="http://www.w3.org/1999/xlink" width="400" height="233.592" viewBox="0 0 400 233.592">
  <defs>
    <clipPath id="clip-path">
      <rect id="Rectángulo_408281" data-name="Rectángulo 408281" width="400" height="233.593" transform="translate(157.158 3797.771)" fill="#3c1c74" opacity="0.42"/>
    </clipPath>
  </defs>
  <g id="Enmascarar_grupo_1079099" data-name="Enmascarar grupo 1079099" transform="translate(-157.158 -3797.771)" clip-path="url(#clip-path)">
    <path id="Trazado_915163" data-name="Trazado 915163" d="M319.822,112.7s33.35,2.586,45.575-23.774,17.955-80.783,1.982-64.978-31.123,42.04-33.574,24.967-40.26,45.329-14.409,62.339" transform="translate(-58.801 3796.067)" fill="#e7f2f0"/>
    <path id="Trazado_915164" data-name="Trazado 915164" d="M95.274,167.227s-20.116,42.494-40.817,25.606-28.786,11.2-16.1,18.553,53.674,18.868,63.076-9.932-6.155-34.227-6.155-34.227" transform="translate(357.743 3725.525)" fill="#e7f2f0"/>
    <path id="Trazado_915165" data-name="Trazado 915165" d="M244.852,246.8s-49.468-2.109-42.623-20.888,39.018-11.9,25.829-41.027-46.534-5.676-62.147-25.138,2.139-55.814,21.607-34.53,44.619-27.248,17.6-45.771-69.141-50.144-93.979-29.945S91.96,115.747,68.1,124.178s-50.562,12.745-47.542,42.9,39.374,36.4,37.928,53.628-43.869,25.816-43.869,25.816Z" transform="translate(226.479 3785.501)" fill="#e7f2f0"/>
    <g id="Grupo_1104316" data-name="Grupo 1104316" transform="translate(-147.005 2596.128)">
      <path id="Trazado_906516" data-name="Trazado 906516" d="M568.82,1230.39h-.04v.03l.01-.01C568.81,1230.4,568.81,1230.39,568.82,1230.39Z" fill="#e6007e"/>
      <path id="Trazado_906517" data-name="Trazado 906517" d="M589.71,1291.71c.06.12.12.25.18.37C590.02,1291.97,590.02,1291.84,589.71,1291.71Z" fill="#e6007e"/>
      <path id="Trazado_906518" data-name="Trazado 906518" d="M503.21,1255.85a1.393,1.393,0,0,0,.06-.19c.03-1.56-1.01-2.7-1.29-4.25a2.065,2.065,0,0,1-.26-1.38c.06-.79.2-1.57.25-2.36a62.393,62.393,0,0,1,1.66-10.16,1.406,1.406,0,0,0-.06-.41c-.29.53-.53.93-.74,1.36-2.38,4.81-6.55,7.26-11.5,8.61-1.42.39-2.91.46-4.37.72a7.552,7.552,0,0,0-4.51,2.29,1.077,1.077,0,0,1-.34.21c-.05.02-.13-.01-.25-.03a1.25,1.25,0,0,1,.46-1.6,7.427,7.427,0,0,1,2.12-1.23,37.036,37.036,0,0,1,5.2-1.22,18.972,18.972,0,0,0,9.04-3.98,10.242,10.242,0,0,0,2.06-2.42,26.725,26.725,0,0,0,3.31-7.63c.24-.83.47-1.65.7-2.48a27.815,27.815,0,0,1,6.2-10.83,3.253,3.253,0,0,1,.81-.61,1.583,1.583,0,0,0,.86-1.18c.24-1.27.57-2.53.88-3.87-.29.16-.55.28-.79.44a30.431,30.431,0,0,0-7.95,7.27,18.765,18.765,0,0,1-1.67,2.1c-.48.5-.5,1.32-1.21,1.66-.11.05-.1.38-.12.58a20.416,20.416,0,0,1-2.65,7.64,9.115,9.115,0,0,1-2.49,2.72,16.9,16.9,0,0,1-5.74,2.7c-2.25.61-4.49,1.29-6.69,2.04a16.5,16.5,0,0,0-6.43,4.19,12.237,12.237,0,0,0-3.04,6.43,2.912,2.912,0,0,1-.15.8c-.11.21-.41.5-.57.47-.25-.05-.6-.32-.63-.54a5.643,5.643,0,0,1-.01-1.74,11.081,11.081,0,0,1,3.04-6.19c.36-.36.74-.72,1.08-1.1a14.126,14.126,0,0,1,6.74-3.99c2.5-.74,4.99-1.53,7.45-2.39a13.4,13.4,0,0,0,5.67-3.63,7.2,7.2,0,0,0,1.08-1.61,20.716,20.716,0,0,0,1.83-11.16,21.863,21.863,0,0,0-2.2-8.11,11.252,11.252,0,0,0-3.39-4.22c-.49-.34-1.03-.61-1.55-.9-.06.06-.11.13-.17.19.42.69.83,1.38,1.25,2.06a12.1,12.1,0,0,1,1.85,7.37,9.514,9.514,0,0,1-8.66,9.22,30.131,30.131,0,0,1-6.58-.13,19.194,19.194,0,0,0-4.73.16,6.784,6.784,0,0,0-3,1.3,17.39,17.39,0,0,0-7.04,10.34,15.474,15.474,0,0,0,1.71,11.75,3.026,3.026,0,0,1,.45.92.616.616,0,0,1-.95.7,5.515,5.515,0,0,1-.9-.85,4.026,4.026,0,0,0-1.86.92,15.593,15.593,0,0,1-3.05,2.1,14.309,14.309,0,0,0-5.76,6.03,9.111,9.111,0,0,0-.88,5.92c.24,1.59.64,3.16.86,4.76a4.725,4.725,0,0,1-.27,1.8c-.4,1.53-.9,3.03-1.27,4.56a9.143,9.143,0,0,0,.47,5.07c.36,1.07.84,2.1,1.29,3.15a12.239,12.239,0,0,0,4.55,5.48,18.559,18.559,0,0,1,5.83,6.03c.49.82,1.11,1.53,1.55,2.41,1.54,3.09,1.44,6.32,1.05,9.59a13.856,13.856,0,0,0,.68,6.9c.22.54.48.89,1.09.91.5.01.88.15.71.78.89-.06.87-.06.92-.89a1.34,1.34,0,0,1,.25-.65,7.7,7.7,0,0,0,1.21-4.2,38.654,38.654,0,0,0-1.75-12.5c-.63-2.18-1.2-4.37-1.63-6.59a11.943,11.943,0,0,1,.8-7.17c.65-1.47,1.45-2.88,2.22-4.3.61-1.12,1.29-2.19,1.9-3.31.28-.5.47-1.05.75-1.7-.45-.14-.8-.26-1.15-.36a12.367,12.367,0,0,1-3.77-1.62,6.255,6.255,0,0,1-2.99-5.24,25.5,25.5,0,0,1,.12-3.81,9.71,9.71,0,0,1,1.97-4.49c.53-.72,1.08-1.43,1.66-2.1a10.792,10.792,0,0,1,9.03-3.85,10.983,10.983,0,0,1,6.37,2.34,41.638,41.638,0,0,0,4.59,2.95,10.957,10.957,0,0,0,5.85,1.38,5.968,5.968,0,0,0,4.99-2.85,5.344,5.344,0,0,0,.57-1.41v-.08A.33.33,0,0,1,503.21,1255.85Z" fill="#2d2e83"/>
      <path id="Trazado_906519" data-name="Trazado 906519" d="M503.27,1255.66c.55-1.71-.72-3.15-.94-4.78-.09.2-.19.4-.29.62a.547.547,0,0,0-.06-.08C502.26,1252.95,503.3,1254.09,503.27,1255.66Z" fill="#2d2e83"/>
      <path id="Trazado_906520" data-name="Trazado 906520" d="M599.56,1274.19a21.411,21.411,0,0,0-2.89-8.52,35.067,35.067,0,0,0-12.66-12.74,84.79,84.79,0,0,0-17.42-7.88,33.3,33.3,0,0,0-11.93-1.38,48.548,48.548,0,0,0-17.36,3.57c-2.69,1.13-5.38,2.25-8.1,3.33a12.74,12.74,0,0,1-5.6,1.16,10.028,10.028,0,0,1-2.51-.46,12.1,12.1,0,0,1-3.98-2.33,7.4,7.4,0,0,1-2.33-6.7c.07-.02.14-.03.22-.05a11.148,11.148,0,0,1,.16,1.16,7.093,7.093,0,0,0,3.85,6.05,9,9,0,0,0,7.72.83c1.36-.46,2.7-1.02,4.04-1.54,3.42-1.34,6.8-2.77,10.25-4.02a39.145,39.145,0,0,1,10.29-1.98,59.1,59.1,0,0,1,6.38-.2,33.1,33.1,0,0,1,12.45,2.51c1.7.74,3.41,1.45,5.11,2.19a1.155,1.155,0,0,0,1.25,0,1.794,1.794,0,0,1,.57-.23,9.827,9.827,0,0,0,5.38-4.25,17.815,17.815,0,0,0,3.05-8.76,9.816,9.816,0,0,0-.87-4.72,32.719,32.719,0,0,0-1.78-3.49c-2.16-3.57-5.45-5.08-9.53-5.05a11.212,11.212,0,0,0-6.37,2.38c-1.85,1.29-3.31,4.96-2.08,7.4a6.565,6.565,0,0,1,2.72-4.68,4.621,4.621,0,0,1,5.49.03,3.8,3.8,0,0,1,1.43,4.39,7.285,7.285,0,0,1-2.94,3.75,10.156,10.156,0,0,1-4.92,1.7,24.736,24.736,0,0,1-13.6-2.47,29.921,29.921,0,0,1-8.77-6.4c-1.88-2-3.93-3.85-6-5.66a18.2,18.2,0,0,0-7.87-4.12,13.79,13.79,0,0,0-7.31.36c-3.66,1.13-6.42,3.49-9.05,6.09a14.658,14.658,0,0,0-2.45,3.3,17.6,17.6,0,0,1-1.35,2.08,35.1,35.1,0,0,0-5.79,12.78l-1.56,6.3a5.536,5.536,0,0,0-.12.71,12.79,12.79,0,0,1-.19,1.53,3.861,3.861,0,0,1-.29.75c.22,1.63,1.5,3.08.94,4.78v.08c.07-.23.15-.47.23-.7a2.879,2.879,0,0,1,.13,1.58c.46.52.67,1.28,1.56,1.37a8.346,8.346,0,0,1,1.42-5.73c.54-.8,1.15-1.54,1.76-2.28.07-.09.28-.07.65-.16a9.611,9.611,0,0,1-.47,1.05c-.2.36-.45.69-.68,1.03a8.216,8.216,0,0,0-.77,8.33,22.326,22.326,0,0,0,5.33,7.65,39.048,39.048,0,0,0,13.9,8.06,21.687,21.687,0,0,0,6.09.95c2.23.12,4.47.1,6.71.08a26.311,26.311,0,0,0,9.62-2.03,123.736,123.736,0,0,0,11.84-5.55,38.506,38.506,0,0,1,5.67-2.67,29.586,29.586,0,0,1,6.12-1.27,27.506,27.506,0,0,1,10.33.75c5.31,1.44,9,4.69,10.59,9.99a16.068,16.068,0,0,1-1.34,12.3,3.184,3.184,0,0,1-.79.93c-.57.5-1.18.94-1.81,1.45.1.26.19.51.3.75.01.03.03.05.04.08.3.13.3.26.18.37.03.05.05.11.08.16a4.408,4.408,0,0,0,2.26-1c-.26.12-.52.23-.79.34a7.139,7.139,0,0,0,.73-.61c.18-.18.35-.37.52-.56.01-.04.03-.08.04-.13-.01.04-.03.08-.04.13q.435-.465.84-.96c.58-.72,1.15-1.46,1.67-2.23.89-1.31,1.79-2.61,2.59-3.97A14.365,14.365,0,0,0,599.56,1274.19Z" fill="#d10565"/>
      <path id="Trazado_906521" data-name="Trazado 906521" d="M587.84,1397.6a4.07,4.07,0,0,0-3.63.63,2.14,2.14,0,0,0,.15,3.75,3.365,3.365,0,0,0,2.27.49c.75-.11.94-.5.55-1.14a5.1,5.1,0,0,0-.51-.62,1.274,1.274,0,0,1,1.34,1.1.985.985,0,0,1-.13.67c.26,1.36-1.27,2.83-2.42,3.68a4.371,4.371,0,0,1-4.34,2.34,18.544,18.544,0,0,1-3.65-1.04,41.133,41.133,0,0,1-4.15-2.07,13.8,13.8,0,0,1-7.13-10.09,28.9,28.9,0,0,1,1.7-15.89,22.53,22.53,0,0,1,5.66-8.61c1.68-1.58,3.32-3.2,4.94-4.84a47.3,47.3,0,0,0,7.7-10.43,26.468,26.468,0,0,0,3.18-16.03,63.409,63.409,0,0,0-1.91-10.43,26.575,26.575,0,0,0-1.58-4.35c-1.38-2.88-2.86-5.72-4.36-8.54a20.714,20.714,0,0,0-1.84-2.73,69.589,69.589,0,0,0-22.22-19.08q-3.21-1.77-6.43-3.5a42.334,42.334,0,0,1-7.74-5.28,7.849,7.849,0,0,1-3.12-6.73,3.169,3.169,0,0,0-.05-.46c-.47,0-.91-.01-1.35,0-1.82.04-3.64.03-5.45-.06v.75c.03-.07.06-.16.09-.25a3.176,3.176,0,0,1,.34.77,11.323,11.323,0,0,0,3.6,7.65c.96.98,1.84,2.05,2.73,3.09a7.066,7.066,0,0,1,.71,1.01,6.024,6.024,0,0,1,.77,4.84,39.559,39.559,0,0,0-1.16,13.4c.53,7.67,2.84,14.68,7.86,20.65,1.07,1.27,2.16,2.54,3.31,3.75a46.22,46.22,0,0,0,3.53,3.47,45.607,45.607,0,0,1,8.16,9.54,29.963,29.963,0,0,1,4.49,11.11,11.966,11.966,0,0,1-1.26,8.49c-.8,1.39-1.76,2.71-2.68,4.02a23.732,23.732,0,0,1-1.63,2,18.887,18.887,0,0,0-4.45,10.15c-.21,1.56-.37,3.14-.46,4.72a17.261,17.261,0,0,0,1.84,8.79,31.557,31.557,0,0,0,8.49,10.78,21.886,21.886,0,0,0,14.55,4.89,8.124,8.124,0,0,0,6.87-3.75,12.933,12.933,0,0,0,2.08-5.01A4.685,4.685,0,0,0,587.84,1397.6Zm-29.33-92.16a6.747,6.747,0,0,1,1.72,1.61,7.631,7.631,0,0,1,.73.54,85.409,85.409,0,0,1,8.78,9.56,37.826,37.826,0,0,1,7.29,15.65,48.658,48.658,0,0,1,.64,11.81,30.531,30.531,0,0,1-1.33,7.38c.02-.28.03-.56.07-.84a61.1,61.1,0,0,0,.51-16.54,34.4,34.4,0,0,0-4-11.94,44.982,44.982,0,0,0-6.93-9.45c-1.7-1.85-3.47-3.63-5.2-5.44-.21-.22-.39-.46-.58-.7-.61-.49-1.22-.99-1.83-1.48C558.42,1305.55,558.47,1305.5,558.51,1305.44Zm-.55-.22c-.33-.28-.65-.57-1.04-.9C557.48,1304.46,557.48,1304.46,557.96,1305.22Zm-5.38-4.77c.19.19.37.38.56.57.03.01.05.03.08.04l1.02.84,1.03.82c.01.02.03.04.04.06.46.32.92.65,1.37.97-.04.06-.09.11-.13.17a3.386,3.386,0,0,1-1.24-1.14c-.02-.01-.04-.03-.06-.04l-1.03-.82c-.34-.28-.68-.56-1.02-.83l-.06-.06c-.24-.12-.47-.24-.71-.37Zm-.63-.2c-.32-.28-.65-.56-.97-.84A1.158,1.158,0,0,1,551.95,1300.25Zm-3.46-3.26c-.02-.01-.03-.02-.05-.03a.439.439,0,0,1-.06-.07,7.469,7.469,0,0,1-2.46-2.35c-.01,0-.02.01-.03.01-.01-.03-.02-.07-.03-.1-.16-.27-.32-.54-.48-.8.07-.03.15-.06.22-.09.08.3.17.6.25.89.02.03.03.05.05.08l.01.01c.06-.01.13-.04.15-.02l2.31,2.37a.351.351,0,0,1,.08.05.174.174,0,0,1,.04.05,5.629,5.629,0,0,1,1.9,1.73A7.459,7.459,0,0,1,548.49,1296.99Zm16.22,34.12a60.73,60.73,0,0,0-11.39-17.44c-1.02-1.12-2.1-2.18-3.14-3.27-.22-.23-.43-.48-.64-.72,10.43,9.42,17.46,20.77,19.64,34.84-.19-.71-.37-1.41-.56-2.12A88.088,88.088,0,0,0,564.71,1331.11Z" fill="#e6007e"/>
      <path id="Trazado_906522" data-name="Trazado 906522" d="M529.01,1277.94a20.682,20.682,0,0,1-6.2-1.82,45.777,45.777,0,0,1-10.14-6.08,25.247,25.247,0,0,1-6.02-7.53,13.247,13.247,0,0,1-1.4-4.08c-.02-.15-.04-.3-.05-.46a1.2,1.2,0,0,1-.57-.19,465.885,465.885,0,0,1-.74,68.17c.68-.02,1.36-.05,2.04-.1a13.566,13.566,0,0,0,5.1-1.09,3.56,3.56,0,0,1,1.05-.11,1.488,1.488,0,0,0,.18-2.11,3.126,3.126,0,0,0-.29-.42,18.229,18.229,0,0,1-3.88-8.97,34.714,34.714,0,0,1-.47-5.85c-.02-2.95.13-5.9.21-8.86,0-.08.08-.15.13-.23.05.01.11.01.16.02v1.73c-.01,1.58-.08,3.16,0,4.73.1,2.23.3,4.45.48,6.68a11.4,11.4,0,0,0,.28,1.83,22.476,22.476,0,0,0,3.62,8.02,6.7,6.7,0,0,1,.74,1.23,2.232,2.232,0,0,1-.44,2.75,10.683,10.683,0,0,1-6.82,3.48c-.72.05-1.43.16-2.15.22a1.476,1.476,0,0,1-.21.01c-.13,1.46-.27,2.92-.41,4.38a18.029,18.029,0,0,1-.32,3.1c.06-.03.12-.06.19-.09a3.612,3.612,0,0,0,2.2-2.04,1.918,1.918,0,0,1,2.23-1.25,20.562,20.562,0,0,1,2.92.54,42.446,42.446,0,0,0,9.76,1.42,7.067,7.067,0,0,0,4.5-1.16c.15-.1.42-.03.63-.03a1.627,1.627,0,0,1-.1.64,1.9,1.9,0,0,1-.6.56,8.01,8.01,0,0,0-2.5,2.8,14.91,14.91,0,0,1-1.48,1.97,44.746,44.746,0,0,1-3.5,3.78,21.983,21.983,0,0,1-10.13,5.25,11.119,11.119,0,0,1-4.8-.18.912.912,0,0,1-.85-.96c-.05-1.31-.1-2.62-.16-3.92-.06.25-.12.5-.17.75a46.06,46.06,0,0,0,2.14,22.92,16.306,16.306,0,0,0,7.37-2.11,7.229,7.229,0,0,1,.73-.38c3.38-1.36,6.29-3.51,9.29-5.51a4.547,4.547,0,0,0,.67-.48c1.9-1.74,3.8-3.48,5.67-5.25a6.6,6.6,0,0,0,.88-1.26c.93-1.44,1.89-2.87,2.77-4.34a34.736,34.736,0,0,0,2.18-3.96c1.3-3.03,2.46-6.12,3.71-9.17a55.192,55.192,0,0,0,2.68-9.93,15.984,15.984,0,0,1,1.41-4.61,1.6,1.6,0,0,0,.19-1.74,44.959,44.959,0,0,1-1.57-15.52,29.811,29.811,0,0,1,1.13-6.7,5.527,5.527,0,0,0-1.15-5.58c-1-1.18-2.03-2.34-3.06-3.49a10.48,10.48,0,0,1-2.85-5.83c-.07-.65-.07-1.3-.08-1.96a1.662,1.662,0,0,1,.16-.54v-.75A39.63,39.63,0,0,1,529.01,1277.94Zm6.39,22.68c.41-.49.73-1.07,1.09-1.6.07-.11.16-.21.36-.46.06,2.2-1.22,3.65-3.17,3.73-.78.03-1.57-.05-2.45-.09a12.778,12.778,0,0,1-7.9,2.82,26.98,26.98,0,0,1-5.75-.34,8.5,8.5,0,0,1-2.89-1.31c-.57-.37-1.16-.78-1.82-.12-.03.03-.13-.01-.19-.02-.17-.44-.33-.87-.49-1.3a.634.634,0,0,1-.05-.3,6.774,6.774,0,0,1,.44-1.95,23.334,23.334,0,0,1,2.87-4.51,10.356,10.356,0,0,1,9.26-3.53,6.814,6.814,0,0,1,4.19,2.46,15.218,15.218,0,0,1,2.83,4.76c.15.42.28.85.45,1.26A1.872,1.872,0,0,0,535.4,1300.62Zm-.93-6.35c.06.12.1.25.17.41-.07.11-.12.29-.21.31a.6.6,0,0,1-.46-.05,1.76,1.76,0,0,1-.37-.48c-.33-.52-.66-1.04-.98-1.57a5.619,5.619,0,0,0-2.06-1.96,13.347,13.347,0,0,0-4.1-1.86,13.062,13.062,0,0,0-7.57.75c-1.01.42-2.02.88-2.99,1.39a6.35,6.35,0,0,1-4.12.31,1.076,1.076,0,0,1-.57-.41.519.519,0,0,1-.04-.47.469.469,0,0,1,.43-.14,4.38,4.38,0,0,0,3.35-.6c1.08-.59,2.13-1.26,3.22-1.84a12.363,12.363,0,0,1,10.72-.8,6.378,6.378,0,0,1,3.13,2.6C532.9,1291.29,533.66,1292.8,534.47,1294.27Z" fill="#ee8fbb"/>
      <path id="Trazado_906523" data-name="Trazado 906523" d="M501.06,1344.51c.06-.25.11-.5.17-.75-.03-.68-.05-1.36-.08-2.04-.01-.2,0-.4,0-.64-1.09-.2-2.13-.39-3.17-.57a34.3,34.3,0,0,1-9.56-3.1,13.955,13.955,0,0,1-4.66-3.83c-.32-.39-.31-.41-.21-1.07a4.007,4.007,0,0,1,.64.22,3,3,0,0,1,.58.43c3.33,3.25,7.48,4.76,11.91,5.68,1.21.25,2.42.5,3.63.73.39.07.8.08,1.24.12.08-.72.18-1.37.22-2.01a1.136,1.136,0,0,1,.76-1.11c.13-.05.25-.11.37-.17a19.086,19.086,0,0,0,.32-3.1c.15-1.46.28-2.92.41-4.38a11.674,11.674,0,0,1-4.06-.53c-1.15-.34-2.34-.57-3.47-.95a16.657,16.657,0,0,1-2.9-1.27c-.93-.53-.99-1.01-.56-1.99a3.6,3.6,0,0,1,1.96-2.02c1.18-.46,2.39-.84,3.6-1.22.14-.05.35.1.53.16-.08.17-.11.42-.24.49-.48.26-.99.46-1.49.7-.77.37-1.55.73-2.3,1.14a1.587,1.587,0,0,0-.9,1.24,7.737,7.737,0,0,0,2.59.8,39.41,39.41,0,0,0,7.51.45,465.885,465.885,0,0,0,.74-68.17c-.44-.28-.65-.79-.98-1.18a3.385,3.385,0,0,1-.38,1.03,6.6,6.6,0,0,1-5.02,3.57,11.889,11.889,0,0,1-7.18-1.33,24.432,24.432,0,0,1-4.8-3.19c-2.68-2.3-5.8-2.61-9.12-2.03a3.666,3.666,0,0,0-1.16.42,9.209,9.209,0,0,0-3.58,3c-.55.91-1.22,1.75-1.75,2.67a10.316,10.316,0,0,0-.91,7.79,4.434,4.434,0,0,0,2.29,2.92,23.8,23.8,0,0,0,3.38,1.5c2.03.75,2.34,1.49,1.26,3.4-.69,1.23-1.47,2.41-2.19,3.62-.56.95-1.1,1.9-1.62,2.87a13.931,13.931,0,0,0-1.09,10.51c.73,2.72,1.57,5.41,2.24,8.15a24.323,24.323,0,0,1,.53,9.72,6.164,6.164,0,0,1-.61,1.95,2.731,2.731,0,0,0-.36,1.86,1.225,1.225,0,0,1-.32,1.17c-.72.88-1.37,1.81-2.09,2.68a5.932,5.932,0,0,0-1.22,5.14c.71,3.85,1.47,7.69,2.23,11.53a60.235,60.235,0,0,1,1.38,12.27,27.313,27.313,0,0,0,.4,5.03c.51,2.81,1.93,4.96,4.83,5.89,3.27,1.04,6.51,2.18,9.79,3.18a5.3,5.3,0,0,1,3.31,2.42,2.4,2.4,0,0,0,.99.84,23.983,23.983,0,0,0,8.53,2.18,15.98,15.98,0,0,0,1.82.07A45.455,45.455,0,0,1,501.06,1344.51Zm-23.79-47.52c-.45.49-.94.4-1.21-.22a3.758,3.758,0,0,1-.26-1.1,10.545,10.545,0,0,1,4.34-9.61,7.694,7.694,0,0,1,9.15-.02,48.426,48.426,0,0,1,4.32,3.49,23.978,23.978,0,0,0,4.28,3.02c1.51.86,2.69.25,2.97-1.49.07-.46.1-.93.16-1.4.09.03.15.03.16.05a7.948,7.948,0,0,1,.11,4.05,2,2,0,0,1-2.43,1.25,12.289,12.289,0,0,1-4.72-1.66c-1.49-.92-2.99-1.83-4.52-2.66a7.168,7.168,0,0,0-5.17-.8,6.175,6.175,0,0,0-3.65,2.16c-.97,1.24-1.85,2.56-2.77,3.84C477.76,1296.25,477.56,1296.66,477.27,1296.99Zm18.38,1.04a2.527,2.527,0,0,1-.22.13,14.22,14.22,0,0,1-.85-1.23,7.872,7.872,0,0,0-3.71-3.3,6.19,6.19,0,0,0-5.47.21,8.993,8.993,0,0,0-4.91,4.75,21.175,21.175,0,0,1-1.99,3.63,2.958,2.958,0,0,1,.17-.74c.74-1.51,1.46-3.03,2.27-4.5a9.017,9.017,0,0,1,8.85-4.07,7.662,7.662,0,0,1,4.48,2.92A24.661,24.661,0,0,1,495.65,1298.03Zm-16.13,6.74a6.331,6.331,0,0,1-.68,1.03.641.641,0,0,1-.53.19.625.625,0,0,1-.28-.47,2.584,2.584,0,0,1,.14-.91,16.61,16.61,0,0,1,.8-1.9c.47-.88.99-1.73,1.52-2.57a3.56,3.56,0,0,1,.65-.79,9.884,9.884,0,0,1,7.99-2.83c.88.11,1.77.24,2.65.4a6.115,6.115,0,0,1,2.68,1.25c.76.59,1.63,1.02,2.44,1.54.55.35.56.39.76,1.04-1.15.55-1.94-.15-2.71-.81-.08.03-.17.04-.19.08a4.851,4.851,0,0,1-2.57,2.8,13.419,13.419,0,0,1-3.35,1.55c-2.97.66-5.75.43-8.16-1.95C480.24,1303.29,479.9,1304.04,479.52,1304.77Z" fill="#a1d9f0"/>
      <path id="Trazado_906524" data-name="Trazado 906524" d="M548.38,1296.9a.439.439,0,0,1,.06.07c.02.01.03.02.05.03-.01-.02-.02-.03-.03-.05A.939.939,0,0,0,548.38,1296.9Z" fill="#e6007e"/>
      <path id="Trazado_906525" data-name="Trazado 906525" d="M554.23,1301.92l1.03.82c.02.01.04.03.06.04-.01-.02-.03-.04-.04-.06l-1.03-.82-1.02-.84c-.03-.01-.05-.03-.08-.04l.06.06Q553.7,1301.5,554.23,1301.92Z" fill="#e6007e"/>
      <path id="Trazado_906526" data-name="Trazado 906526" d="M545.86,1294.45c.01.03.02.07.03.1a.037.037,0,0,0,.03-.01l-.01-.01A.55.55,0,0,1,545.86,1294.45Z" fill="#e6007e"/>
      <path id="Trazado_906527" data-name="Trazado 906527" d="M486.93,1440.43H417.98c.01-.21.01-.41.04-.62.41-3.69.83-7.38,1.23-11.07.26-2.39.47-4.79.77-7.17.27-2.18.66-4.35.95-6.53a4.777,4.777,0,0,0-.04-2.03,15.429,15.429,0,0,0-1.27-2.41c-.22.13-.38.28-.43.25a8.709,8.709,0,0,1-2.29-1.92,4.1,4.1,0,0,1,2.96-2.07,1.975,1.975,0,0,1,1.53.2,1.174,1.174,0,0,0,1.39.21,1.717,1.717,0,0,1,1.55-.11.824.824,0,0,0,1.15-.46c.06-.15.3-.26.48-.32.48-.17.98-.33,1.47-.45a93.158,93.158,0,0,0,13.52-4.3c5.93-2.49,11.66-5.38,17.35-8.35.55-.28,1.13-.5,1.69-.76,1.49-.69,3.03-1.3,4.47-2.09,1.69-.92,3.3-1.97,4.94-2.98,1.83-1.14,3.64-2.3,5.46-3.45a6.22,6.22,0,0,0,.44.65c.21.23.47.4.7.61a8.037,8.037,0,0,1,.69.62,55.375,55.375,0,0,1,7.46,10.1c2.25,3.94,4.42,7.91,6.62,11.88a1.593,1.593,0,0,1,.21.67,12.652,12.652,0,0,0,2.19,6.14c.46.75.87,1.54,1.38,2.27a.825.825,0,0,1-.02,1.02,19.575,19.575,0,0,0-1.37,2.75c-.9,2.56-1.79,5.12-2.54,7.73-1.04,3.63-2.02,7.28-3.37,10.81C487.15,1439.63,487.05,1440.03,486.93,1440.43Z" fill="#1d71b8"/>
      <path id="Trazado_906528" data-name="Trazado 906528" d="M486.93,1440.43c.12-.39.22-.79.36-1.18,1.35-3.53,2.33-7.18,3.37-10.81.75-2.61,1.64-5.17,2.54-7.73a19.575,19.575,0,0,1,1.37-2.75.825.825,0,0,0,.02-1.02c-.5-.73-.91-1.52-1.38-2.27a12.551,12.551,0,0,1-2.19-6.14,1.6,1.6,0,0,0-.21-.67c-2.2-3.96-4.38-7.94-6.62-11.88a55.844,55.844,0,0,0-7.46-10.1,8.037,8.037,0,0,0-.69-.62,8.04,8.04,0,0,1-.7-.61,4.957,4.957,0,0,1-.44-.65c-1.82,1.15-3.63,2.31-5.46,3.45-1.63,1.02-3.25,2.07-4.94,2.98-1.44.78-2.98,1.4-4.47,2.09-.56.26-1.14.47-1.69.76-5.69,2.97-11.42,5.86-17.35,8.35a96.113,96.113,0,0,1-13.52,4.3q-.75.2-1.47.45c-.18.06-.43.17-.48.32a.824.824,0,0,1-1.15.46,1.715,1.715,0,0,0-1.55.11,1.159,1.159,0,0,1-1.39-.21,1.968,1.968,0,0,0-1.53-.2,4.076,4.076,0,0,0-2.96,2.07,8.712,8.712,0,0,0,2.29,1.92c.04.03.21-.12.43-.25a15.429,15.429,0,0,1,1.27,2.41,4.773,4.773,0,0,1,.04,2.03c-.28,2.18-.67,4.35-.95,6.53-.3,2.39-.51,4.78-.77,7.17l-1.23,11.07c-.02.2-.03.41-.04.62H415.3c0-.69.01-1.37,0-2.06a94.034,94.034,0,0,1,.44-12.78,57.623,57.623,0,0,1,1.73-9.11,8.412,8.412,0,0,0,.32-1.72,1.7,1.7,0,0,1,.84-1.65,11.628,11.628,0,0,0-.87-.93c-.57-.49-1.21-.92-1.76-1.43a2.321,2.321,0,0,1-.27-3.48,4.8,4.8,0,0,1,2.37-1.76c1.77-.57,3.36-1.54,5.08-2.2,2.88-1.12,5.8-2.13,8.73-3.1,2.64-.87,5.32-1.59,7.96-2.44,2.35-.76,4.66-1.64,7-2.44a12.061,12.061,0,0,1,1.59-.3,6.425,6.425,0,0,0,.89-.21c2.26-.8,4.53-1.61,6.78-2.43a9.493,9.493,0,0,0,1.23-.53c2.87-1.48,5.73-2.99,8.61-4.43a18.761,18.761,0,0,0,3.97-2.75,62.457,62.457,0,0,0,6.05-6.34,6.136,6.136,0,0,1,.88-1.01,3.878,3.878,0,0,0,1.38-3.44c-.03-2.61-.16-5.22-.29-7.83-.08-1.58-.23-3.15-.36-4.81-.27-.09-.58-.21-.9-.3a5.109,5.109,0,0,1-2.74-1.89,12.774,12.774,0,0,1-2.78-8.74,77.32,77.32,0,0,0-.66-12.45c-.07-.61-.13-1.23-.21-1.84a.856.856,0,0,0-.11-.21c-1.95.03-3.41-1.15-4.82-2.25a6.39,6.39,0,0,1-1.94-3.68,1.564,1.564,0,0,1-.05-.3c-.19-2.81-1.75-4.9-3.7-6.69a12.724,12.724,0,0,1-3.97-6.25c-.37-1.39-.94-2.73-1.27-4.13a13.785,13.785,0,0,1-.21-4.92,6.5,6.5,0,0,1,.93-2.6c.4-.64.82-1.28,1.27-1.88a4.133,4.133,0,0,1,5.68-1.05,6.9,6.9,0,0,1,2.32,2.3,25.024,25.024,0,0,0,2.05,2.94c-.06-.74-.15-1.48-.18-2.23-.08-1.96-.13-3.92-.18-5.88a2.714,2.714,0,0,0-.72-1.76c-.67-.78-1.25-1.64-1.85-2.48a5.374,5.374,0,0,0-2.48-1.93c-.92-.37-1.82-.81-2.7-1.27a9.551,9.551,0,0,1-3.81-3.54,17.423,17.423,0,0,1-2.91-9.74,14.65,14.65,0,0,1,.91-4.63,20.345,20.345,0,0,0,.82-2.76,6.44,6.44,0,0,0-.38-4.31,7.207,7.207,0,0,1,.35-7.1c.86-1.48,1.56-3.06,2.37-4.57.37-.69.84-1.34,1.27-2a9.983,9.983,0,0,1,6.47-4.42c.66-.15,1.32-.33,2.03-.52-.1-.3-.17-.53-.25-.75a17.683,17.683,0,0,1-.58-11.44,18.619,18.619,0,0,1,7.72-10.38c2.12-1.45,4.56-1.63,7.02-1.6,1.55.02,3.09.1,4.64.16a14.134,14.134,0,0,0,4.39-.48,7.593,7.593,0,0,0,5.7-6.03,10.5,10.5,0,0,0-1.14-7.77c-.34-.6-.69-1.19-1.01-1.8a4.512,4.512,0,0,1-.44-1.04,1.148,1.148,0,0,1,1.16-1.54,4.157,4.157,0,0,1,2.26.59,8.992,8.992,0,0,1,2.86,2.49,18.308,18.308,0,0,1,3.53,8.04c.37,1.99.53,4.01.79,6.05a4.408,4.408,0,0,0,.38-.43c.56-.78,1.14-1.56,1.67-2.36a26.182,26.182,0,0,1,9.19-8.12,17.007,17.007,0,0,1,1.69-.75.75.75,0,0,1,1.02.16c.27.36.06.65-.15.93-2,2.64-2.06,5.74-2.05,8.85,0,.05.07.11.15.22.21-.16.42-.31.62-.47.72-.59,1.43-1.18,2.15-1.77a19.4,19.4,0,0,1,6.95-3.24.994.994,0,0,1,.51-.05c1.56.35,3.13-.09,4.7.16a17.824,17.824,0,0,1,3.88.99,25.576,25.576,0,0,1,7.92,5.13c1.66,1.54,3.3,3.13,4.87,4.76a27.76,27.76,0,0,0,13.01,7.39,20.029,20.029,0,0,0,9.91.16,7.587,7.587,0,0,0,4.37-2.75,6.307,6.307,0,0,0,.47-.68,3.4,3.4,0,0,0-.13-4.22,3.979,3.979,0,0,0-4.4-1.14,4.836,4.836,0,0,0-3.05,3.98c-.2,1.2.48,1.55,1.57,1.18a11.238,11.238,0,0,0,1.83-1.08c-.28.38-.48.64-.69.93a1.225,1.225,0,0,0,.21.04c.03,0,.06-.03.09-.05l-.02-.02c0,.1.05.25,0,.28a4.193,4.193,0,0,1-3.33,1.05,1.658,1.658,0,0,1-1.24-1.12,5.867,5.867,0,0,1-.19-3.94,7.317,7.317,0,0,1,3.32-4.66,12.093,12.093,0,0,1,7.06-2.22,11.437,11.437,0,0,1,8.8,4.27,16.221,16.221,0,0,1,3.51,7.48,13.022,13.022,0,0,1-.29,5.31,20.528,20.528,0,0,1-3.45,7.43,10.676,10.676,0,0,1-5.13,3.9c.37.21.62.37.88.5a59.749,59.749,0,0,1,11.32,7.13,33.488,33.488,0,0,1,9.26,12.23,18.254,18.254,0,0,1,.94,13.18c-.85,2.74-2.62,4.96-4.32,7.22a9.91,9.91,0,0,1-4.48,3.15,7.139,7.139,0,0,0,.73-.61c.47-.49.94-.99,1.36-1.52.58-.72,1.15-1.46,1.67-2.23.89-1.31,1.79-2.61,2.59-3.97a14.632,14.632,0,0,0,1.75-9.06,21.553,21.553,0,0,0-2.88-8.52,35.067,35.067,0,0,0-12.66-12.74,84.79,84.79,0,0,0-17.42-7.88,33.3,33.3,0,0,0-11.93-1.38,48.548,48.548,0,0,0-17.36,3.57c-2.69,1.13-5.38,2.25-8.1,3.33a12.74,12.74,0,0,1-5.6,1.16,10.028,10.028,0,0,1-2.51-.46,12.1,12.1,0,0,1-3.98-2.33,7.4,7.4,0,0,1-2.33-6.7c.07-.02.14-.03.22-.05a11.148,11.148,0,0,1,.16,1.16,7.093,7.093,0,0,0,3.85,6.05,9,9,0,0,0,7.72.83c1.36-.46,2.7-1.02,4.04-1.54,3.42-1.34,6.8-2.77,10.25-4.02a39.145,39.145,0,0,1,10.29-1.98,59.1,59.1,0,0,1,6.38-.2,33.1,33.1,0,0,1,12.45,2.51c1.7.74,3.41,1.45,5.11,2.19a1.155,1.155,0,0,0,1.25,0,1.794,1.794,0,0,1,.57-.23,9.827,9.827,0,0,0,5.38-4.25,17.815,17.815,0,0,0,3.05-8.76,9.816,9.816,0,0,0-.87-4.72,32.719,32.719,0,0,0-1.78-3.49c-2.16-3.57-5.45-5.08-9.53-5.05a11.212,11.212,0,0,0-6.37,2.38c-1.85,1.29-3.31,4.96-2.08,7.4a6.565,6.565,0,0,1,2.72-4.68,4.621,4.621,0,0,1,5.49.03,3.8,3.8,0,0,1,1.43,4.39,7.285,7.285,0,0,1-2.94,3.75,10.156,10.156,0,0,1-4.92,1.7,24.736,24.736,0,0,1-13.6-2.47,29.921,29.921,0,0,1-8.77-6.4c-1.88-2-3.93-3.85-6-5.66a18.2,18.2,0,0,0-7.87-4.12,13.79,13.79,0,0,0-7.31.36c-3.66,1.13-6.42,3.49-9.05,6.09a14.658,14.658,0,0,0-2.45,3.3,18.883,18.883,0,0,1-1.34,2.08,35.1,35.1,0,0,0-5.79,12.78l-1.56,6.3a5.536,5.536,0,0,0-.12.71,12.79,12.79,0,0,1-.19,1.53,10.159,10.159,0,0,1-.58,1.37,2.077,2.077,0,0,1-.32-1.47c.06-.79.2-1.57.25-2.36a62.393,62.393,0,0,1,1.66-10.16,1.406,1.406,0,0,0-.06-.41c-.29.53-.53.93-.74,1.36-2.38,4.81-6.55,7.26-11.5,8.61-1.42.39-2.91.46-4.37.72a7.552,7.552,0,0,0-4.51,2.29,1.077,1.077,0,0,1-.34.21c-.05.02-.13-.01-.25-.03a1.25,1.25,0,0,1,.46-1.6,7.427,7.427,0,0,1,2.12-1.23,37.036,37.036,0,0,1,5.2-1.22,18.972,18.972,0,0,0,9.04-3.98,10.242,10.242,0,0,0,2.06-2.42,26.725,26.725,0,0,0,3.31-7.63c.24-.83.47-1.65.7-2.48a27.815,27.815,0,0,1,6.2-10.83,3.253,3.253,0,0,1,.81-.61,1.583,1.583,0,0,0,.86-1.18c.24-1.27.57-2.53.88-3.87-.29.16-.55.28-.79.44a30.431,30.431,0,0,0-7.95,7.27,18.765,18.765,0,0,1-1.67,2.1c-.48.5-.5,1.32-1.21,1.66-.11.05-.1.38-.12.58a20.416,20.416,0,0,1-2.65,7.64,9.115,9.115,0,0,1-2.49,2.72,16.9,16.9,0,0,1-5.74,2.7c-2.25.61-4.49,1.29-6.69,2.04a16.5,16.5,0,0,0-6.43,4.19,12.237,12.237,0,0,0-3.04,6.43,2.912,2.912,0,0,1-.15.8c-.11.21-.41.5-.57.47-.25-.05-.6-.32-.63-.54a5.643,5.643,0,0,1-.01-1.74,11.081,11.081,0,0,1,3.04-6.19c.36-.36.74-.72,1.08-1.1a14.126,14.126,0,0,1,6.74-3.99c2.5-.74,4.99-1.53,7.45-2.39a13.4,13.4,0,0,0,5.67-3.63,7.2,7.2,0,0,0,1.08-1.61,20.716,20.716,0,0,0,1.83-11.16,21.863,21.863,0,0,0-2.2-8.11,11.252,11.252,0,0,0-3.39-4.22c-.49-.34-1.03-.61-1.55-.9-.06.06-.11.13-.17.19.42.69.83,1.38,1.25,2.06a12.1,12.1,0,0,1,1.85,7.37,9.514,9.514,0,0,1-8.66,9.22,30.131,30.131,0,0,1-6.58-.13,19.194,19.194,0,0,0-4.73.16,6.784,6.784,0,0,0-3,1.3,17.39,17.39,0,0,0-7.04,10.34,15.474,15.474,0,0,0,1.71,11.75,3.026,3.026,0,0,1,.45.92.616.616,0,0,1-.95.7,5.515,5.515,0,0,1-.9-.85,4.026,4.026,0,0,0-1.86.92,15.593,15.593,0,0,1-3.05,2.1,14.309,14.309,0,0,0-5.76,6.03,9.111,9.111,0,0,0-.88,5.92c.24,1.59.64,3.16.86,4.76a4.725,4.725,0,0,1-.27,1.8c-.4,1.53-.9,3.03-1.27,4.56a9.143,9.143,0,0,0,.47,5.07c.36,1.07.84,2.1,1.29,3.15a12.239,12.239,0,0,0,4.55,5.48,18.559,18.559,0,0,1,5.83,6.03c.49.82,1.11,1.53,1.55,2.41,1.54,3.09,1.44,6.32,1.05,9.59a13.856,13.856,0,0,0,.68,6.9c.22.54.48.89,1.09.91.5.01.88.15.71.78.89-.06.87-.06.92-.89a1.34,1.34,0,0,1,.25-.65,7.7,7.7,0,0,0,1.21-4.2,38.654,38.654,0,0,0-1.75-12.5c-.63-2.18-1.2-4.37-1.63-6.59a11.943,11.943,0,0,1,.8-7.17c.65-1.47,1.45-2.88,2.22-4.3.61-1.12,1.29-2.19,1.9-3.31.28-.5.47-1.05.75-1.7-.45-.14-.8-.26-1.15-.36a12.367,12.367,0,0,1-3.77-1.62,6.255,6.255,0,0,1-2.99-5.24,25.5,25.5,0,0,1,.12-3.81,9.71,9.71,0,0,1,1.97-4.49c.53-.72,1.08-1.43,1.66-2.1a10.792,10.792,0,0,1,9.03-3.85,10.983,10.983,0,0,1,6.37,2.34,41.638,41.638,0,0,0,4.59,2.95,10.957,10.957,0,0,0,5.85,1.38,5.968,5.968,0,0,0,4.99-2.85,11.156,11.156,0,0,0,.81-2.11,3.058,3.058,0,0,1-.24,2.61,6.6,6.6,0,0,1-5.02,3.57,11.889,11.889,0,0,1-7.18-1.33,24.432,24.432,0,0,1-4.8-3.19c-2.68-2.3-5.8-2.61-9.12-2.03a3.666,3.666,0,0,0-1.16.42,9.209,9.209,0,0,0-3.58,3c-.55.91-1.22,1.75-1.75,2.67a10.316,10.316,0,0,0-.91,7.79,4.434,4.434,0,0,0,2.29,2.92,23.8,23.8,0,0,0,3.38,1.5c2.03.75,2.34,1.49,1.26,3.4-.69,1.23-1.47,2.41-2.19,3.62-.56.95-1.1,1.9-1.62,2.87a13.931,13.931,0,0,0-1.09,10.51c.73,2.72,1.57,5.41,2.24,8.15a24.323,24.323,0,0,1,.53,9.72,6.164,6.164,0,0,1-.61,1.95,2.731,2.731,0,0,0-.36,1.86,1.225,1.225,0,0,1-.32,1.17c-.72.88-1.37,1.81-2.09,2.68a5.932,5.932,0,0,0-1.22,5.14c.71,3.85,1.47,7.69,2.23,11.53a60.235,60.235,0,0,1,1.38,12.27,27.313,27.313,0,0,0,.4,5.03c.51,2.81,1.93,4.96,4.83,5.89,3.27,1.04,6.51,2.18,9.79,3.18a5.3,5.3,0,0,1,3.31,2.42,2.4,2.4,0,0,0,.99.84,23.983,23.983,0,0,0,8.53,2.18,15.686,15.686,0,0,0,9.19-2.05,7.229,7.229,0,0,1,.73-.38c3.38-1.36,6.29-3.51,9.29-5.51a4.547,4.547,0,0,0,.67-.48c1.9-1.74,3.8-3.48,5.67-5.25a6.6,6.6,0,0,0,.88-1.26c.93-1.44,1.89-2.87,2.77-4.34a34.736,34.736,0,0,0,2.18-3.96c1.3-3.03,2.46-6.12,3.71-9.17a55.192,55.192,0,0,0,2.68-9.93,15.984,15.984,0,0,1,1.41-4.61,1.6,1.6,0,0,0,.19-1.74,44.959,44.959,0,0,1-1.57-15.52,29.811,29.811,0,0,1,1.13-6.7,5.527,5.527,0,0,0-1.15-5.58c-1-1.18-2.03-2.34-3.06-3.49a10.48,10.48,0,0,1-2.85-5.83c-.07-.65-.07-1.3-.08-1.96a4.126,4.126,0,0,1,.24-.79,3.176,3.176,0,0,1,.34.77,11.323,11.323,0,0,0,3.6,7.65c.96.98,1.84,2.05,2.73,3.09a7.066,7.066,0,0,1,.71,1.01,6.024,6.024,0,0,1,.77,4.84,39.559,39.559,0,0,0-1.16,13.4c.53,7.67,2.84,14.68,7.86,20.65,1.07,1.27,2.16,2.54,3.31,3.75a46.22,46.22,0,0,0,3.53,3.47,45.607,45.607,0,0,1,8.16,9.54,29.963,29.963,0,0,1,4.49,11.11,11.966,11.966,0,0,1-1.26,8.49c-.8,1.39-1.76,2.71-2.68,4.02a23.732,23.732,0,0,1-1.63,2,18.887,18.887,0,0,0-4.45,10.15c-.21,1.56-.37,3.14-.46,4.72a17.261,17.261,0,0,0,1.84,8.79,31.678,31.678,0,0,0,8.49,10.78,21.886,21.886,0,0,0,14.55,4.89,8.124,8.124,0,0,0,6.87-3.75,12.933,12.933,0,0,0,2.08-5.01,4.681,4.681,0,0,0-3.27-5.57,4.07,4.07,0,0,0-3.63.63,2.14,2.14,0,0,0,.15,3.75,3.365,3.365,0,0,0,2.27.49c.75-.11.94-.5.55-1.14a5.1,5.1,0,0,0-.51-.62,1.274,1.274,0,0,1,1.34,1.1,1.172,1.172,0,0,1-.86,1.25,3.78,3.78,0,0,1-4.58-2.14,2.953,2.953,0,0,1,1.32-3.21,5.075,5.075,0,0,1,7.66,2.82,6.656,6.656,0,0,1-.1,4.07,20.9,20.9,0,0,1-1.42,3.42,8.928,8.928,0,0,1-8.36,4.91,23.525,23.525,0,0,1-16.76-6.8,3.36,3.36,0,0,0-.9-.75,2.365,2.365,0,0,0,.16.47,17.344,17.344,0,0,1,1.98,8.44,3.343,3.343,0,0,0,.54,1.82,63.2,63.2,0,0,1,6.27,13.87c.8,2.41,1.51,4.85,2.19,7.3a30,30,0,0,1,.53,3.15h-1.65c-.21-.83-.4-1.67-.62-2.49a111.9,111.9,0,0,0-4.55-13.68,43,43,0,0,0-11.98-16.8,16.6,16.6,0,0,0-6.83-3.68c-.32-.08-.65-.11-.98-.17-.08,1.36-.15,2.62-.24,3.88a21.047,21.047,0,0,1-2.84,8.75,7.033,7.033,0,0,1-4.21,3.28,15.572,15.572,0,0,1-4.99.61c-1.51-.02-3.02.01-4.53,0-2.29-.02-3.7,1.24-4.66,3.15a3.643,3.643,0,0,0,.25,3.88,3.463,3.463,0,0,0,4.42,1.21c.55-.33,1.06-.7,1.57-1.04-.1-.57-.38-.8-.81-.75a4.928,4.928,0,0,0-.97.3c-.29.09-.58.25-.85-.1a.923.923,0,0,1,.82-.78,9.8,9.8,0,0,1,1.63-.2,1.387,1.387,0,0,1,1.66,1.19,7.053,7.053,0,0,1,.2,2.86,3.432,3.432,0,0,1-2.4,2.94c-.77.28-1.54.58-2.31.88a5.71,5.71,0,0,1-3.53.33,17.21,17.21,0,0,1-5.35-2.36,4.876,4.876,0,0,1-1.28-1.32,8.266,8.266,0,0,1-.99-7.68,20.3,20.3,0,0,1,6.14-9.01c1.49-1.27,3.1-2.4,4.67-3.56a5.99,5.99,0,0,0,2.86-4.46,13.255,13.255,0,0,0-.07-3.67c-.07-.39-.15-.77-.23-1.16a3.253,3.253,0,0,1-1.63,2.08c-.7.44-1.35.95-2.05,1.38-1.34.83-2.66,1.71-4.06,2.43a17.125,17.125,0,0,1-7.32,1.91,13.75,13.75,0,0,1-5.73-1.08.859.859,0,0,0-1.1.17,35.263,35.263,0,0,0-5.96,7.99,2.208,2.208,0,0,0-.22,1.38c.2,1.57.44,3.14.51,4.71.26,5.53.45,11.06.66,16.59.03.69,0,1.37,0,2.06h-1.86c-.11-7.9-.37-15.8-.88-23.74-1.55-.06-3.02-.15-4.49-.14a4.736,4.736,0,0,0-1.59.38,1.086,1.086,0,0,0-.75,1.1,6.982,6.982,0,0,1-.45,2c-2.43,6.72-4.7,13.49-6.5,20.41C488.72,1440.43,487.83,1440.43,486.93,1440.43Zm60.3-35.96a7.619,7.619,0,0,0-.46-4.39c-.5-1.2-1.09-2.37-1.69-3.53a12.763,12.763,0,0,0-3.74-4.48c-.88-.66-1.83-1.21-2.75-1.82-.66-.44-1.35-.84-1.96-1.33a4.185,4.185,0,0,1-1.59-3.43,8.607,8.607,0,0,1,2.1-5.47,25.743,25.743,0,0,1,7.96-6.45c1.75-.94,3.55-1.8,5.32-2.72,1.09-.57,2.2-1.13,3.24-1.81a11.065,11.065,0,0,0,4.58-10.89,20.1,20.1,0,0,0-3.05-7.17,41.82,41.82,0,0,0-7.95-9.3c-.68-.58-1.29-1.24-1.94-1.85a5.986,5.986,0,0,0-.61-.43,3.426,3.426,0,0,0-.03.75c.25,1.28.47,2.56.79,3.83a33.738,33.738,0,0,1,1.33,10.28,11.817,11.817,0,0,1-1.02,4.5,8.036,8.036,0,0,1-1.38,2.02,1.872,1.872,0,0,1-2.84-.04,4.991,4.991,0,0,1-.95-1.56,5.648,5.648,0,0,1-.3-3.15c.31-1.65.6-3.32,1.07-4.92a60.314,60.314,0,0,0,2.22-11.6c-.58-.16-1.13-.36-1.69-.46-1.51-.28-2.83-.81-3.47-2.52-.87,2.08-1.74,3.98-2.47,5.94a45.028,45.028,0,0,1-6.29,11.66c-.04.05-.08.11-.12.17a19.428,19.428,0,0,1-3.72,4.12,48.06,48.06,0,0,1-6.59,4.95,1.333,1.333,0,0,0-.7,1.25,50.033,50.033,0,0,0,1.43,13.8,39.71,39.71,0,0,0,1.88,5.33c.9,2.26,1.85,4.51,2.87,6.72a20.406,20.406,0,0,0,2.56,3.93,6.143,6.143,0,0,0,.68-.05,3.81,3.81,0,0,1,3.35.94,13.89,13.89,0,0,1,1.12.91c1.62,1.58,3.04,3.31,3.33,5.66.11.92.04,1.85.09,2.78a5.827,5.827,0,0,1-2.61,5.2,53.1,53.1,0,0,1-4.39,3.07,20.429,20.429,0,0,0-6.74,6.97,12.016,12.016,0,0,0-1.4,3.3,7.187,7.187,0,0,0,5.22,8.85,12.141,12.141,0,0,0,3.99.24,5.9,5.9,0,0,0,4.05-1.7,2.481,2.481,0,0,0,.61-2.96,3.713,3.713,0,0,1-3.23,1.86c-.31.02-.62.02-.93.01a5.024,5.024,0,0,1-4.35-7.34,7.182,7.182,0,0,1,4.45-3.58,17.263,17.263,0,0,1,5.73-.34,31.291,31.291,0,0,0,4.11-.1,5.051,5.051,0,0,0,4.08-2.27,19.475,19.475,0,0,0,3.12-10.42A3.1,3.1,0,0,0,547.23,1404.47Zm-67.58-42.61c.03.39.05.79.11,1.18a48.25,48.25,0,0,1,.84,10.67,1.553,1.553,0,0,0,.84,1.69c4.15,1.98,8.28,4.01,12.42,6.01a63.221,63.221,0,0,1,7.25,3.68,6.667,6.667,0,0,1,.55.47c-.52.26-.94.47-1.33.66-1.3-.66-2.52-1.38-3.82-1.91-5.27-2.18-10.29-4.9-15.42-7.38-.24-.12-.48-.22-.79-.36-.87,2.24-1.71,4.4-2.54,6.51.63.78,1.27,1.5,1.82,2.28q2.67,3.8,5.29,7.62c.39.56.71,1.18,1.05,1.77,1.04,1.86,2.06,3.73,3.11,5.58q1.7,3.015,3.41,6a5.081,5.081,0,0,0,.42.56,26.822,26.822,0,0,0,2.13-5.24,57.135,57.135,0,0,1,4.38-10.43,8.841,8.841,0,0,0,1.39-3.93c.03-.82.87-1.42,1.9-1.49a3.7,3.7,0,0,1-.19.99,7.082,7.082,0,0,0-.4,3.94c.06.68.12,1.37.2,2.05a11.128,11.128,0,0,0,1.41,4.81c2.04,3.21,4.34,6.11,7.88,7.91a13.556,13.556,0,0,0,8.66,1.37,19.681,19.681,0,0,0,7.61-3.26c1.03-.68,2.08-1.34,3.11-2.02a8.4,8.4,0,0,0,.73-.62c-.39-.32-.68-.56-.96-.8a15.707,15.707,0,0,1-2.26-1.94,39.826,39.826,0,0,1-5.67-8.57c-.53-1.19-1-2.41-1.47-3.63-.79-2.01-1.71-3.99-2.32-6.06a41.23,41.23,0,0,1-1.34-13.68c.03-.58.07-1.15.11-1.77a1.615,1.615,0,0,0-.37.07c-1.57.7-3.12,1.44-4.7,2.11a22.192,22.192,0,0,1-8.19,2.07c-.07,0-.15-.02-.2.01-.29.15-.72.25-.82.49a1.379,1.379,0,0,1-1.29.87,12.815,12.815,0,0,1-6.07-.75c-.88-.38-1.76-.77-2.67-1.08a8.6,8.6,0,0,1-3.84-2.49,6.774,6.774,0,0,0-1.77-1.37,24.643,24.643,0,0,0-2.61-1.2,10.974,10.974,0,0,0-1.74-.63C482.23,1362.34,480.98,1362.13,479.65,1361.86Zm85.45,51.74a16.166,16.166,0,0,0-1.29-6.58,42.572,42.572,0,0,0-3.83-7.05,20.687,20.687,0,0,1-3.77-10.23,30.4,30.4,0,0,1,.32-6.47,21.836,21.836,0,0,1,5.33-12.18,35.1,35.1,0,0,0,2.57-3.36,12.3,12.3,0,0,0,1.84-10.6c-1.73-6.78-5.53-12.29-10.38-17.17-1.84-1.85-3.75-3.64-5.63-5.45a5.159,5.159,0,0,0-.43-.33c-1.03,2.1-2.07,4.09-4.42,4.94.19.22.3.39.45.53.53.49,1.04,1.01,1.61,1.45a40.091,40.091,0,0,1,7.95,8.75,25.466,25.466,0,0,1,3.38,6.58,11.612,11.612,0,0,1-4.88,13.58c-1.22.76-2.53,1.39-3.81,2.05-1.98,1.03-4.01,1.97-5.96,3.06a21.64,21.64,0,0,0-6.38,5.32,7.858,7.858,0,0,0-1.62,3.3,4.009,4.009,0,0,0,2.14,4.86c.65.38,1.33.71,2,1.07a15.067,15.067,0,0,1,7.13,7.85c.55,1.36.96,2.78,1.46,4.26.15.04.41.14.67.19a17.782,17.782,0,0,1,8,3.83,44.836,44.836,0,0,1,6.85,6.99C564.58,1413,564.76,1413.2,565.1,1413.6Zm-93.76-96.88a2.57,2.57,0,0,1-2.66-.88.771.771,0,0,0-.27-.14,3.3,3.3,0,0,1-1.68-2c-.25-.75-.47-1.51-.66-2.27a16.124,16.124,0,0,0-4.39-7.46,1.71,1.71,0,0,0-.83-.58c-1.67-.24-3.1-.21-3.68,1.97a7.123,7.123,0,0,0-.18.8,29.6,29.6,0,0,0-.12,7.1,11.756,11.756,0,0,0,.85,3.79,12.439,12.439,0,0,0,4.07,5.35,5.662,5.662,0,0,1,2.23,3.02c.59,1.86,1.22,3.72,1.73,5.6a2.713,2.713,0,0,0,1.86,2.01c.29.1.6.15.89.26a1.343,1.343,0,0,0,1.46-.23c-.35-2.79-.72-5.58-1.03-8.38-.31-2.83-.01-5.5,2.23-7.6C471.2,1317.06,471.21,1316.98,471.34,1316.72Zm37.9,89.26a22.357,22.357,0,0,1-6.38-6.79,11.612,11.612,0,0,1-1.92-5.48c-.07-.8-.16-1.59-.26-2.59-.21.35-.33.51-.42.69a56.615,56.615,0,0,0-3.83,9.21c-.36,1.18-.75,2.36-1.18,3.51a13.849,13.849,0,0,1-1.77,3.7,1.021,1.021,0,0,0,0,.84c.47,1.22.99,2.42,1.49,3.62.28.66.56,1.31.87,2.04.36-.24.64-.42.81-.53-.36-1.91-.71-3.7-1.03-5.49a4.741,4.741,0,0,1-.07-1.13c.01-.17.19-.48.28-.47a.814.814,0,0,1,.57.29,4.155,4.155,0,0,1,.43.93c.62,1.67,1.23,3.35,1.85,5.03a1.357,1.357,0,0,0,.23.31c.32-2.27.62-4.55.97-6.81a10.264,10.264,0,0,1,.47-1.79,2.5,2.5,0,0,1,.54-.86c.14-.14.41-.16.63-.23a1.978,1.978,0,0,1,.19.72c-.08.64-.31,1.27-.35,1.92-.11,1.89-.15,3.78-.22,5.66-.01.26.03.51.06,1C503.97,1410.77,506.55,1408.42,509.24,1405.98Zm32.91-83.25c-.14.17-.21.21-.22.27-.8,3.79-1.49,7.61-2.65,11.32a2.688,2.688,0,0,0,.73,2.66,3.034,3.034,0,0,0,4.06.2,16.136,16.136,0,0,0,3.65-4.56,5.875,5.875,0,0,0,.26-.72A38.091,38.091,0,0,1,542.15,1322.73Zm2.08,21.07c-.11.43-.16.62-.2.82-.62,2.49-1.27,4.98-1.84,7.48-.34,1.5-.62,3.02-.81,4.54a4.2,4.2,0,0,0,.61,2.96c.6.87,1.21.9,1.9.09a5.554,5.554,0,0,0,1.24-2.68,26.67,26.67,0,0,0,.44-3.87A40.1,40.1,0,0,0,544.23,1343.8Zm-39.2-110.37c1.28-1.86,2.63-3.8,3.97-5.75.68-.99,1.35-1.99,2.03-2.98a8.07,8.07,0,0,0,1.42-2.11,9.192,9.192,0,0,0-.07-2.66c-.02-.31-.03-.62-.04-.93C508.86,1223.4,506.09,1228.06,505.03,1233.43ZM469.96,1333.5c-.24.18-.43.33-.72.55C469.89,1334.02,469.89,1334.02,469.96,1333.5Z"/>
      <path id="Trazado_906529" data-name="Trazado 906529" d="M506.13,1440.43c0-.69.03-1.37,0-2.06-.21-5.53-.41-11.06-.66-16.59-.07-1.58-.31-3.15-.51-4.71a2.2,2.2,0,0,1,.22-1.38,35.043,35.043,0,0,1,5.96-7.99.859.859,0,0,1,1.1-.17,13.751,13.751,0,0,0,5.73,1.08,16.981,16.981,0,0,0,7.32-1.91c1.4-.72,2.72-1.6,4.06-2.43.7-.43,1.35-.94,2.05-1.38a3.223,3.223,0,0,0,1.63-2.08c.08.39.16.77.23,1.16a13.255,13.255,0,0,1,.07,3.67,5.982,5.982,0,0,1-2.86,4.46c-1.58,1.16-3.19,2.29-4.67,3.56a20.19,20.19,0,0,0-6.14,9.01,8.266,8.266,0,0,0,.99,7.68,5.027,5.027,0,0,0,1.28,1.32,17.342,17.342,0,0,0,5.35,2.36,5.71,5.71,0,0,0,3.53-.33c.76-.3,1.53-.6,2.31-.88a3.42,3.42,0,0,0,2.4-2.94,6.882,6.882,0,0,0-.2-2.86,1.387,1.387,0,0,0-1.66-1.19,9.818,9.818,0,0,0-1.63.2.923.923,0,0,0-.82.78c.28.35.57.2.85.1a4.938,4.938,0,0,1,.97-.3c.43-.05.71.17.81.75-.5.34-1.02.71-1.57,1.04a3.463,3.463,0,0,1-4.42-1.21,3.644,3.644,0,0,1-.25-3.88c.96-1.92,2.37-3.18,4.66-3.15,1.51.01,3.02-.02,4.53,0a15.572,15.572,0,0,0,4.99-.61,7,7,0,0,0,4.21-3.28,20.859,20.859,0,0,0,2.84-8.75c.09-1.26.16-2.53.24-3.88.33.06.66.09.98.17a16.6,16.6,0,0,1,6.83,3.68,42.859,42.859,0,0,1,11.98,16.8,111.887,111.887,0,0,1,4.55,13.68c.22.83.42,1.66.62,2.49Q540.1,1440.415,506.13,1440.43Z" fill="#e6007e"/>
      <path id="Trazado_906530" data-name="Trazado 906530" d="M489.62,1440.43c1.8-6.92,4.08-13.69,6.5-20.41a6.982,6.982,0,0,0,.45-2,1.091,1.091,0,0,1,.75-1.1,4.739,4.739,0,0,1,1.59-.38c1.47-.01,2.94.09,4.49.14.52,7.94.78,15.84.88,23.74Q496.945,1440.435,489.62,1440.43Z" fill="#951b81"/>
      <path id="Trazado_906531" data-name="Trazado 906531" d="M600.66,1326.18a44.289,44.289,0,0,0-1.98-10.82c-1.13-3.53-2.32-7.05-3.34-10.61a43.877,43.877,0,0,0-3.49-8.79c-.77-1.42-1.46-2.88-2.18-4.32-.12-.24-.2-.49-.3-.75.64-.5,1.25-.95,1.81-1.45a3.49,3.49,0,0,0,.79-.93,16.158,16.158,0,0,0,1.34-12.3c-1.6-5.3-5.28-8.55-10.59-9.99a27.288,27.288,0,0,0-10.33-.75,29.45,29.45,0,0,0-6.12,1.27,39.541,39.541,0,0,0-5.67,2.67,123.722,123.722,0,0,1-11.84,5.55,26.312,26.312,0,0,1-9.62,2.03c-2.24.02-4.47.04-6.71-.08a21.687,21.687,0,0,1-6.09-.95,38.984,38.984,0,0,1-13.9-8.06,22.326,22.326,0,0,1-5.33-7.65,8.193,8.193,0,0,1,.77-8.33c.23-.34.48-.68.68-1.03.16-.28.26-.59.47-1.05-.36.08-.57.06-.65.16-.6.75-1.22,1.49-1.76,2.28a8.294,8.294,0,0,0-1.37,6.18,12.742,12.742,0,0,0,1.4,4.08,25.248,25.248,0,0,0,6.02,7.53,46.162,46.162,0,0,0,10.14,6.08,20.763,20.763,0,0,0,6.2,1.82,63.945,63.945,0,0,0,9.78.45c.44-.01.88,0,1.35,0a3.468,3.468,0,0,1,.05.46,7.826,7.826,0,0,0,3.12,6.73,42.842,42.842,0,0,0,7.74,5.28q3.225,1.725,6.43,3.5a69.588,69.588,0,0,1,22.22,19.08,21.4,21.4,0,0,1,1.84,2.73c1.5,2.82,2.99,5.65,4.36,8.54a28.966,28.966,0,0,1,1.58,4.35,63.4,63.4,0,0,1,1.91,10.43,26.555,26.555,0,0,1-3.18,16.03,47.3,47.3,0,0,1-7.7,10.43c-1.62,1.64-3.26,3.26-4.94,4.84a22.451,22.451,0,0,0-5.66,8.61,29.1,29.1,0,0,0-1.7,15.89,13.8,13.8,0,0,0,7.13,10.09,45.818,45.818,0,0,0,4.15,2.07,18.349,18.349,0,0,0,3.65,1.04,4.293,4.293,0,0,0,4.53-2.84c-.12.08-.25.17-.37.25a3.153,3.153,0,0,0-.74,1.02,3.013,3.013,0,0,1,.74-1.02c-.44.3-.88.6-1.31.91a4.372,4.372,0,0,1-3.82.66,26.82,26.82,0,0,1-6.32-2.72,13.25,13.25,0,0,1-6.81-9.36,26.25,26.25,0,0,1,.33-11.76,20.287,20.287,0,0,1,1.39-4.13c.33.31.62.56.88.83a7.783,7.783,0,0,0,3.6,2.12c.63.17,1.26.34,1.9.48a17.135,17.135,0,0,0,6.33.51c1.02-.16,2.02-.4,3.03-.6a15.188,15.188,0,0,0,6.02-3.04,5.048,5.048,0,0,0,1.83-2.57,6.576,6.576,0,0,0,.28-2.02,2.2,2.2,0,0,0-1.24-1.9,4.292,4.292,0,0,0-2.26-.45c.91.94.56,1.84.11,2.69a3.627,3.627,0,0,1-2.54,1.79c-2.46.57-4.38-.58-4.89-2.6a6.524,6.524,0,0,1-.18-2.24,16.734,16.734,0,0,1,3.47-8.59,68.714,68.714,0,0,1,5.38-6.38,38.077,38.077,0,0,0,6.23-8.55,33.648,33.648,0,0,0,4.17-15.79C600.91,1330.86,600.81,1328.52,600.66,1326.18Zm-28.12-59.31a26,26,0,0,1,11.18,1.19,12.43,12.43,0,0,1,8.4,9.74,16.645,16.645,0,0,1-1,9.01c-.37,1.03-.86,2.01-1.32,3a4.011,4.011,0,0,1-.57.71,1.9,1.9,0,0,1-.25-.32,96.658,96.658,0,0,0-12.32-17.5,59.01,59.01,0,0,0-4.86-4.61c-.29-.27-.59-.54-1.04-.94C571.49,1267.04,572.01,1266.91,572.54,1266.87Zm27.1,68.13a29.37,29.37,0,0,1-3.1,11.78c-.98,1.89-2.02,3.76-3.18,5.54a25.164,25.164,0,0,1-2.92,3.59,79.908,79.908,0,0,0-6.18,7.46,19.075,19.075,0,0,0-3.51,8.49,6.934,6.934,0,0,0,.18,3.07,4.588,4.588,0,0,0,5.74,3.22,4.159,4.159,0,0,0,3.15-2.42,12.588,12.588,0,0,0,.47-2.37c1.86.13,2.26,1.86,1.85,3.17a5.716,5.716,0,0,1-1.78,2.6,12.113,12.113,0,0,1-6.4,2.61,23.686,23.686,0,0,1-7.7.06,10.06,10.06,0,0,1-6.11-2.9c-.25-.28-.5-.56-.78-.87a16.14,16.14,0,0,1,3.45-5.24c1.33-1.34,2.72-2.63,4.09-3.94a45.939,45.939,0,0,0,5.35-5.72c1.31-1.77,2.65-3.52,3.83-5.38a26.728,26.728,0,0,0,4.52-15.39,46.839,46.839,0,0,0-3.59-17.77,77.789,77.789,0,0,0-4.94-9.39,48.876,48.876,0,0,0-4.99-6.42,68.219,68.219,0,0,0-17.4-14.09c-2.67-1.56-5.41-3-8.14-4.43a44.715,44.715,0,0,1-8.21-5.49,7,7,0,0,1-2.76-6.42c.73-.1,1.5-.19,2.27-.3a37.773,37.773,0,0,0,9.21-2.89c3.35-1.43,6.62-3.03,9.82-4.77a30.8,30.8,0,0,1,7.03-2.89c.8-.2,1.45-.24,1.98.5a4.2,4.2,0,0,0,.74.72,51.581,51.581,0,0,1,8.49,9.52q2.7,3.72,5.26,7.52a25.974,25.974,0,0,1,3.04,5.7,26.215,26.215,0,0,0,1.94,3.71,48.119,48.119,0,0,1,4.27,10.8c.88,3.25,1.99,6.43,3,9.64a45.073,45.073,0,0,1,2.02,11.85A72.931,72.931,0,0,1,599.64,1335Z"/>
      <path id="Trazado_906532" data-name="Trazado 906532" d="M501.02,1289.66c.09.03.15.03.16.05a7.948,7.948,0,0,1,.11,4.05,2,2,0,0,1-2.43,1.25,12.289,12.289,0,0,1-4.72-1.66c-1.49-.92-2.99-1.83-4.52-2.66a7.168,7.168,0,0,0-5.17-.8,6.175,6.175,0,0,0-3.65,2.16c-.97,1.24-1.85,2.55-2.77,3.84a11.93,11.93,0,0,1-.76,1.1c-.45.49-.94.4-1.21-.22a3.758,3.758,0,0,1-.26-1.1,10.545,10.545,0,0,1,4.34-9.61,7.694,7.694,0,0,1,9.15-.02,48.426,48.426,0,0,1,4.32,3.49,23.978,23.978,0,0,0,4.28,3.02c1.51.86,2.69.25,2.97-1.49C500.94,1290.61,500.97,1290.14,501.02,1289.66Z"/>
      <path id="Trazado_906533" data-name="Trazado 906533" d="M501.54,1339.71c.08-.72.18-1.37.22-2.01a1.136,1.136,0,0,1,.76-1.11c.19-.07.37-.18.56-.26a3.612,3.612,0,0,0,2.2-2.04,1.918,1.918,0,0,1,2.23-1.25,20.562,20.562,0,0,1,2.92.54,42.447,42.447,0,0,0,9.76,1.42,7.067,7.067,0,0,0,4.5-1.16c.15-.1.42-.03.63-.03a1.627,1.627,0,0,1-.1.64,1.9,1.9,0,0,1-.6.56,8.01,8.01,0,0,0-2.5,2.8,14.91,14.91,0,0,1-1.48,1.97,44.746,44.746,0,0,1-3.5,3.78,21.983,21.983,0,0,1-10.13,5.25,11.119,11.119,0,0,1-4.8-.18.912.912,0,0,1-.85-.96c-.07-1.99-.16-3.98-.24-5.97-.01-.2,0-.4,0-.64-1.09-.2-2.13-.39-3.17-.57a34.3,34.3,0,0,1-9.56-3.1,13.955,13.955,0,0,1-4.66-3.83c-.32-.39-.31-.41-.21-1.07a4.007,4.007,0,0,1,.64.22,3,3,0,0,1,.58.43c3.33,3.25,7.48,4.76,11.91,5.68,1.21.25,2.42.5,3.63.73A7.37,7.37,0,0,0,501.54,1339.71Zm20.82-3.11c-.06-.07-.12-.13-.18-.2-.3.14-.6.3-.91.43-1.65.68-3.27,1.43-4.95,2.02-1.52.53-3.09.91-4.64,1.34-.66.19-1.32.37-1.99.52a26.615,26.615,0,0,1-6.36.43c-.54-.01-1.08,0-1.71,0a42.885,42.885,0,0,0,.11,6.53c1.29,0,2.46.03,3.62-.01a8.091,8.091,0,0,0,1.83-.27,23.772,23.772,0,0,0,10.51-5.86C519.31,1339.96,520.8,1338.25,522.36,1336.6Zm-20.08,3.28a4.1,4.1,0,0,1,.91-.26c.25.01.5.25.74.24a33.559,33.559,0,0,0,4.61-.31c2.66-.49,5.28-1.15,7.91-1.79a27.341,27.341,0,0,0,4.06-1.66c-1.69-.2-3.22-.33-4.72-.58-1.92-.32-3.83-.71-5.75-1.1-.8-.16-1.58-.45-2.39-.58-1.18-.2-1.34-.13-1.85.95a4.208,4.208,0,0,1-2.61,2.31,8.186,8.186,0,0,0-.91.41C502.28,1338.3,502.28,1339.01,502.28,1339.88Z"/>
      <path id="Trazado_906534" data-name="Trazado 906534" d="M536.85,1298.56c.06,2.2-1.22,3.65-3.17,3.73-.78.03-1.57-.05-2.45-.09a12.778,12.778,0,0,1-7.9,2.82,26.98,26.98,0,0,1-5.75-.34,8.5,8.5,0,0,1-2.89-1.31c-.57-.37-1.16-.78-1.82-.12-.03.03-.13-.01-.19-.02-.17-.44-.33-.87-.49-1.3a.634.634,0,0,1-.05-.3,6.774,6.774,0,0,1,.44-1.95,23.334,23.334,0,0,1,2.87-4.51,10.356,10.356,0,0,1,9.26-3.53,6.814,6.814,0,0,1,4.19,2.46,15.218,15.218,0,0,1,2.83,4.76c.15.42.28.85.45,1.26a1.883,1.883,0,0,0,3.23.51c.41-.49.73-1.07,1.09-1.6A3.755,3.755,0,0,1,536.85,1298.56Zm-5.26,2.16a15.192,15.192,0,0,0-3.44-6.54,6.621,6.621,0,0,0-5.42-2.25c-3.02.14-5.26,1.73-7.18,3.79a25.5,25.5,0,0,0-2.56,3.85,4.873,4.873,0,0,0-.29.83,16.911,16.911,0,0,0,1.37-1.13,10.332,10.332,0,0,1,3.79-2.42,8.614,8.614,0,0,1,4.41-.81,12.711,12.711,0,0,1,7.25,3.59A3.5,3.5,0,0,0,531.59,1300.72Zm-13.47-2.31c-2.01.38-4.26,2.28-4.51,3.73.66.33,1.29.66,1.94.95a11.59,11.59,0,0,0,2.56,1.02c3.91.67,7.73.52,11.27-1.57.33-.19.67-.38,1.17-.67-1.82-.65-2.92-2.06-4.6-2.65v.69a3,3,0,0,1-1.37,2.63,4.938,4.938,0,0,1-4.98.56,2.88,2.88,0,0,1-1.92-3.28A11.162,11.162,0,0,1,518.12,1298.41Zm2.56.59a6.915,6.915,0,0,0-1.07.49.655.655,0,0,0-.12,1.05,2.738,2.738,0,0,0,1.3.42,1.034,1.034,0,0,0,.96-.8C522,1299.51,521.63,1299,520.68,1299Z"/>
      <path id="Trazado_906535" data-name="Trazado 906535" d="M508.12,1298.26v1.73c-.01,1.58-.08,3.16,0,4.73.1,2.23.3,4.45.48,6.68a11.4,11.4,0,0,0,.28,1.83,22.476,22.476,0,0,0,3.62,8.02,6.7,6.7,0,0,1,.74,1.23,2.232,2.232,0,0,1-.44,2.75,10.683,10.683,0,0,1-6.82,3.48c-.72.05-1.43.16-2.15.22a11.657,11.657,0,0,1-4.27-.51c-1.15-.34-2.34-.57-3.47-.95a16.657,16.657,0,0,1-2.9-1.27c-.93-.53-.99-1.01-.56-1.99a3.6,3.6,0,0,1,1.96-2.02c1.18-.46,2.39-.84,3.6-1.22.14-.05.35.1.53.16-.08.17-.11.42-.24.49-.48.26-.99.46-1.49.7-.77.37-1.55.73-2.3,1.14a1.587,1.587,0,0,0-.9,1.24,7.737,7.737,0,0,0,2.59.8,41.35,41.35,0,0,0,9.56.35,13.566,13.566,0,0,0,5.1-1.09,3.56,3.56,0,0,1,1.05-.11,1.488,1.488,0,0,0,.18-2.11,3.126,3.126,0,0,0-.29-.42,18.229,18.229,0,0,1-3.88-8.97,34.714,34.714,0,0,1-.47-5.85c-.02-2.95.13-5.9.21-8.86,0-.08.08-.15.13-.23A.246.246,0,0,0,508.12,1298.26Z"/>
      <path id="Trazado_906536" data-name="Trazado 906536" d="M480.67,1302.41c-.43.88-.77,1.63-1.15,2.36a6.331,6.331,0,0,1-.68,1.03.641.641,0,0,1-.53.19.625.625,0,0,1-.28-.47,2.584,2.584,0,0,1,.14-.91,16.61,16.61,0,0,1,.8-1.9c.47-.88.99-1.73,1.52-2.57a3.56,3.56,0,0,1,.65-.79,9.884,9.884,0,0,1,7.99-2.83c.88.11,1.77.24,2.65.4a6.115,6.115,0,0,1,2.68,1.25c.76.59,1.63,1.02,2.44,1.54.55.35.56.39.76,1.04-1.15.55-1.94-.15-2.71-.81-.08.03-.17.04-.19.08a4.851,4.851,0,0,1-2.57,2.8,13.419,13.419,0,0,1-3.35,1.55C485.86,1305.02,483.08,1304.79,480.67,1302.41Zm.38-.52a6.113,6.113,0,0,0,4.07,2.09,11.408,11.408,0,0,0,6.92-1.58,4.614,4.614,0,0,0,2.46-2.9,3.236,3.236,0,0,0-2.57-1.34c-.01,2.21-.58,3.24-2.22,4.15a3.831,3.831,0,0,1-4.68-.93,1.938,1.938,0,0,1-.48-1.73c.04-.19.07-.39.15-.84C483.26,1299.74,481.93,1300.41,481.05,1301.89Zm6.99-2.53c-.1-.14-.24-.51-.44-.56-.22-.05-.52.18-.77.33a.646.646,0,0,0-.2.34.955.955,0,0,0,.55,1.16c.34.1.68-.21.8-.73A5.285,5.285,0,0,0,488.04,1299.36Z"/>
      <path id="Trazado_906537" data-name="Trazado 906537" d="M534.64,1294.68c-.07.11-.12.29-.21.31a.6.6,0,0,1-.46-.05,1.76,1.76,0,0,1-.37-.48c-.33-.52-.66-1.04-.98-1.57a5.619,5.619,0,0,0-2.06-1.96,13.347,13.347,0,0,0-4.1-1.86,13.062,13.062,0,0,0-7.57.75c-1.01.42-2.02.88-2.99,1.39a6.35,6.35,0,0,1-4.12.31,1.076,1.076,0,0,1-.57-.41.519.519,0,0,1-.04-.47.469.469,0,0,1,.43-.14,4.38,4.38,0,0,0,3.35-.6c1.08-.59,2.13-1.26,3.22-1.84a12.363,12.363,0,0,1,10.72-.8,6.378,6.378,0,0,1,3.13,2.6c.89,1.42,1.65,2.93,2.46,4.4C534.53,1294.39,534.57,1294.52,534.64,1294.68Z"/>
      <path id="Trazado_906538" data-name="Trazado 906538" d="M560.23,1307.05a7.631,7.631,0,0,1,.73.54,85.409,85.409,0,0,1,8.78,9.56,37.826,37.826,0,0,1,7.29,15.65,48.658,48.658,0,0,1,.64,11.81,30.531,30.531,0,0,1-1.33,7.38c.02-.28.03-.56.07-.84a61.1,61.1,0,0,0,.51-16.54,34.4,34.4,0,0,0-4-11.94,44.982,44.982,0,0,0-6.93-9.45c-1.7-1.85-3.47-3.63-5.2-5.44-.21-.22-.39-.46-.58-.7Z"/>
      <path id="Trazado_906539" data-name="Trazado 906539" d="M549.53,1309.68c10.43,9.42,17.46,20.77,19.64,34.84-.19-.71-.37-1.41-.56-2.12a86.531,86.531,0,0,0-3.9-11.29,60.73,60.73,0,0,0-11.39-17.44c-1.02-1.12-2.1-2.18-3.14-3.27C549.95,1310.17,549.74,1309.92,549.53,1309.68Z"/>
      <path id="Trazado_906540" data-name="Trazado 906540" d="M495.42,1298.16a14.22,14.22,0,0,1-.85-1.23,7.872,7.872,0,0,0-3.71-3.3,6.19,6.19,0,0,0-5.47.21,8.993,8.993,0,0,0-4.91,4.75,21.175,21.175,0,0,1-1.99,3.63,2.958,2.958,0,0,1,.17-.74c.74-1.51,1.46-3.03,2.27-4.5a9.017,9.017,0,0,1,8.85-4.07,7.662,7.662,0,0,1,4.48,2.92,20.944,20.944,0,0,1,1.38,2.21C495.57,1298.07,495.5,1298.12,495.42,1298.16Z"/>
      <path id="Trazado_906541" data-name="Trazado 906541" d="M545.88,1294.56c.06-.01.16-.06.18-.03.8.81,1.59,1.62,2.38,2.44l.02-.02a7.178,7.178,0,0,1-2.55-2.41Z"/>
      <path id="Trazado_906542" data-name="Trazado 906542" d="M548.44,1296.96a5.489,5.489,0,0,1,1.95,1.76,6.964,6.964,0,0,1-1.93-1.78Z"/>
      <path id="Trazado_906543" data-name="Trazado 906543" d="M560.2,1307.09c-.61-.49-1.22-.99-1.83-1.48.05-.05.09-.11.14-.16a6.747,6.747,0,0,1,1.72,1.61C560.23,1307.05,560.2,1307.09,560.2,1307.09Z"/>
      <path id="Trazado_906544" data-name="Trazado 906544" d="M555.26,1302.74c.48.34.96.68,1.43,1.02-.04.06-.09.11-.13.17a3.3,3.3,0,0,1-1.29-1.2Z"/>
      <path id="Trazado_906545" data-name="Trazado 906545" d="M557.96,1305.22c-.33-.28-.65-.57-1.04-.9C557.48,1304.46,557.48,1304.46,557.96,1305.22Z"/>
      <path id="Trazado_906546" data-name="Trazado 906546" d="M551.95,1300.25c-.32-.28-.65-.56-.97-.84A1.158,1.158,0,0,1,551.95,1300.25Z"/>
      <path id="Trazado_906547" data-name="Trazado 906547" d="M568.8,1230.4c.33-.25.65-.5.98-.76-.3.29-.37.89-.99.74C568.78,1230.38,568.8,1230.4,568.8,1230.4Z"/>
      <path id="Trazado_906548" data-name="Trazado 906548" d="M555.28,1302.72l-1.03-.82-.02.02,1.03.82Z"/>
      <path id="Trazado_906549" data-name="Trazado 906549" d="M553.2,1301.08c.34.28.68.56,1.02.83l.02-.02-1.02-.84Z"/>
      <path id="Trazado_906550" data-name="Trazado 906550" d="M545.91,1294.54c-.17-.29-.35-.59-.52-.89.07-.03.15-.06.22-.09.09.33.19.66.28.99C545.88,1294.56,545.91,1294.54,545.91,1294.54Z"/>
      <path id="Trazado_906551" data-name="Trazado 906551" d="M553.22,1301.06c-.26-.14-.53-.27-.79-.41.05-.07.1-.13.15-.2.21.21.41.42.62.63Z"/>
      <path id="Trazado_906552" data-name="Trazado 906552" d="M547.23,1404.47a3.231,3.231,0,0,1,.32.95,19.475,19.475,0,0,1-3.12,10.42,5.077,5.077,0,0,1-4.08,2.27,31.291,31.291,0,0,1-4.11.1,17.263,17.263,0,0,0-5.73.34,7.209,7.209,0,0,0-4.45,3.58,5.028,5.028,0,0,0,4.35,7.34c.31.01.62.01.93-.01a3.7,3.7,0,0,0,3.23-1.86,2.481,2.481,0,0,1-.61,2.96,5.9,5.9,0,0,1-4.05,1.7,11.9,11.9,0,0,1-3.99-.24,7.182,7.182,0,0,1-5.22-8.85,12.016,12.016,0,0,1,1.4-3.3,20.34,20.34,0,0,1,6.74-6.97,53.125,53.125,0,0,0,4.39-3.07,5.849,5.849,0,0,0,2.61-5.2c-.05-.93.03-1.86-.09-2.78-.29-2.35-1.71-4.07-3.33-5.66-.34-.33-.75-.61-1.12-.91a3.8,3.8,0,0,0-3.35-.94,6.143,6.143,0,0,1-.68.05,19.944,19.944,0,0,1-2.56-3.93c-1.02-2.21-1.97-4.46-2.87-6.72a39.71,39.71,0,0,1-1.88-5.33,50.033,50.033,0,0,1-1.43-13.8,1.354,1.354,0,0,1,.7-1.25,48.89,48.89,0,0,0,6.59-4.95,19.977,19.977,0,0,0,3.72-4.12c.04-.06.08-.12.12-.17a44.569,44.569,0,0,0,6.29-11.66c.73-1.96,1.6-3.87,2.47-5.94a4,4,0,0,0,3.47,2.52c.56.1,1.11.3,1.69.46a60.787,60.787,0,0,1-2.22,11.6c-.47,1.61-.76,3.27-1.07,4.92a5.657,5.657,0,0,0,.3,3.15,4.99,4.99,0,0,0,.95,1.56,1.865,1.865,0,0,0,2.84.04,7.779,7.779,0,0,0,1.38-2.02,11.818,11.818,0,0,0,1.02-4.5,33.738,33.738,0,0,0-1.33-10.28c-.31-1.26-.54-2.55-.79-3.83a3.426,3.426,0,0,1,.03-.75,4.729,4.729,0,0,1,.61.43c.65.61,1.26,1.27,1.94,1.85a41.6,41.6,0,0,1,7.95,9.3,20.1,20.1,0,0,1,3.05,7.17,11.073,11.073,0,0,1-4.58,10.89c-1.03.67-2.14,1.23-3.24,1.81-1.77.92-3.57,1.78-5.32,2.72a25.49,25.49,0,0,0-7.96,6.45,8.606,8.606,0,0,0-2.1,5.47,4.172,4.172,0,0,0,1.59,3.43c.61.49,1.3.89,1.96,1.33.92.61,1.87,1.16,2.75,1.82a12.675,12.675,0,0,1,3.74,4.48c.59,1.16,1.18,2.32,1.69,3.53A7.662,7.662,0,0,1,547.23,1404.47Zm.5-53.84a3.949,3.949,0,0,0,.19.47,18.063,18.063,0,0,1,1.86,6.18,11.537,11.537,0,0,1-3.08,10.07,20.328,20.328,0,0,1-2.33,2.02,50.758,50.758,0,0,1-8.02,4.63,25.332,25.332,0,0,0-4.76,3.05,11.353,11.353,0,0,0-3.85,6.07,9.892,9.892,0,0,0,1.57,8.33,2.065,2.065,0,0,0,.49.53,2.452,2.452,0,0,0,.7.21,11.2,11.2,0,0,1-2.05-4.64,8.885,8.885,0,0,1-.27-2.85,9.831,9.831,0,0,1,3.96-6.85,27.45,27.45,0,0,1,5.24-3.05,46.092,46.092,0,0,0,8.33-4.9,12.464,12.464,0,0,0,4.81-7A13.368,13.368,0,0,0,547.73,1350.63Zm-13.1,1.94c-.04-.02-.07-.03-.11-.05q-1.725,2.715-3.44,5.44a9.924,9.924,0,0,0-.7,1.38c-1.6,3.65-3.22,7.29-4.77,10.96a25.986,25.986,0,0,0-2.13,12.27,10.708,10.708,0,0,0,.68,3,8.931,8.931,0,0,0,1.39,2.01c.11.14.37.15.74.28a5.19,5.19,0,0,0-.38-.72,7.834,7.834,0,0,1-1.47-3.8,21.912,21.912,0,0,1,.17-6.16,29.365,29.365,0,0,1,2.67-8.41c1.05-2.24,2.07-4.49,3.11-6.74s2.08-4.48,3.1-6.73C533.89,1354.4,534.25,1353.48,534.63,1352.57Z" fill="#c50776"/>
      <path id="Trazado_906553" data-name="Trazado 906553" d="M503.73,1369.03a.537.537,0,0,0-.28.25,1.379,1.379,0,0,1-1.29.87,12.815,12.815,0,0,1-6.07-.75c-.88-.38-1.76-.77-2.67-1.08a8.6,8.6,0,0,1-3.84-2.49,6.774,6.774,0,0,0-1.77-1.37,24.643,24.643,0,0,0-2.61-1.2,10.974,10.974,0,0,0-1.74-.63c-1.23-.29-2.48-.51-3.81-.77.03.39.05.79.11,1.18a48.25,48.25,0,0,1,.84,10.67,1.553,1.553,0,0,0,.84,1.69c4.15,1.98,8.28,4.01,12.42,6.01a67.979,67.979,0,0,1,6.88,3.45,2.221,2.221,0,0,1,1.04.59C503.9,1380.25,505.67,1374.52,503.73,1369.03Z" fill="#87d0ec"/>
      <path id="Trazado_906554" data-name="Trazado 906554" d="M530.68,1400.18a15.707,15.707,0,0,1-2.26-1.94,39.826,39.826,0,0,1-5.67-8.57c-.53-1.19-1-2.41-1.47-3.63-.79-2.01-1.71-3.99-2.32-6.06a41.23,41.23,0,0,1-1.34-13.68c.03-.58.07-1.15.11-1.77a1.615,1.615,0,0,0-.37.07c-1.57.7-3.12,1.44-4.7,2.11a22.192,22.192,0,0,1-8.19,2.07c-.07,0-.15-.02-.2.01-.16.09-.37.16-.54.24,1.94,5.49.17,11.22-1.97,16.42a3.507,3.507,0,0,0,.59.38,4.269,4.269,0,0,1-.59-.38c-.1.24-.2.49-.3.73a2.569,2.569,0,0,1,1.18-.37,3.7,3.7,0,0,1-.19.99,7.082,7.082,0,0,0-.4,3.94c.06.68.12,1.37.2,2.05a11.128,11.128,0,0,0,1.41,4.81c2.04,3.21,4.34,6.11,7.88,7.91a13.556,13.556,0,0,0,8.66,1.37,19.681,19.681,0,0,0,7.61-3.26c1.03-.68,2.08-1.34,3.11-2.02a8.4,8.4,0,0,0,.73-.62C531.26,1400.66,530.97,1400.42,530.68,1400.18Z" fill="#ee8fbb"/>
      <path id="Trazado_906555" data-name="Trazado 906555" d="M500.73,1384.86c.12.08.25.15.37.23a6.667,6.667,0,0,1,.55.47c-.52.26-.94.47-1.33.66-1.3-.66-2.52-1.38-3.82-1.91-5.27-2.18-10.29-4.9-15.42-7.38-.24-.12-.48-.22-.79-.36-.87,2.24-1.71,4.4-2.54,6.51.63.78,1.27,1.5,1.82,2.28q2.67,3.8,5.29,7.62c.39.56.71,1.18,1.05,1.77,1.04,1.86,2.06,3.73,3.11,5.58q1.7,3.015,3.41,6a5.081,5.081,0,0,0,.42.56,26.822,26.822,0,0,0,2.13-5.24,57.135,57.135,0,0,1,4.38-10.43,8.841,8.841,0,0,0,1.39-3.93,1.427,1.427,0,0,1,.72-1.12c.1-.24.2-.48.3-.73A2.436,2.436,0,0,0,500.73,1384.86Z" fill="#1d71b8"/>
      <path id="Trazado_906556" data-name="Trazado 906556" d="M565.1,1413.6c-.34-.4-.52-.59-.68-.8a44.836,44.836,0,0,0-6.85-6.99,17.831,17.831,0,0,0-8-3.83,6.919,6.919,0,0,1-.67-.19c-.5-1.48-.91-2.9-1.46-4.26a15.144,15.144,0,0,0-7.13-7.85c-.67-.36-1.35-.69-2-1.07a4.009,4.009,0,0,1-2.14-4.86,7.859,7.859,0,0,1,1.62-3.3,21.218,21.218,0,0,1,6.38-5.32c1.95-1.09,3.98-2.03,5.96-3.06,1.28-.66,2.59-1.29,3.81-2.05a11.629,11.629,0,0,0,4.88-13.58,25.305,25.305,0,0,0-3.38-6.58,39.617,39.617,0,0,0-7.95-8.75c-.57-.44-1.08-.96-1.61-1.45a5.539,5.539,0,0,1-.45-.53c2.35-.86,3.39-2.85,4.42-4.94a5.159,5.159,0,0,1,.43.33c1.88,1.81,3.79,3.6,5.63,5.45,4.85,4.88,8.65,10.39,10.38,17.17a12.3,12.3,0,0,1-1.84,10.6,36.385,36.385,0,0,1-2.57,3.36,21.707,21.707,0,0,0-5.33,12.18,29.175,29.175,0,0,0-.32,6.47,20.556,20.556,0,0,0,3.77,10.23,42.165,42.165,0,0,1,3.83,7.05A16.346,16.346,0,0,1,565.1,1413.6Zm-4.14-52.89a39.757,39.757,0,0,1-.21,4.03,15.574,15.574,0,0,1-3.09,7.44c-1.39,1.79-2.79,3.58-4.3,5.27a13.771,13.771,0,0,0-3.49,6.78c-.17.91-.37,1.82-.51,2.73a11.849,11.849,0,0,0,2.5,9.78c1.48,1.76,3.18,3.33,4.78,4.99a6.169,6.169,0,0,0-1.42-2.07c-.75-.76-1.54-1.48-2.27-2.25a11.541,11.541,0,0,1-3.11-6.92,18.253,18.253,0,0,1,.48-5.21,14.4,14.4,0,0,1,3.97-7.87,32.979,32.979,0,0,0,4.73-6.1,13.815,13.815,0,0,0,2.2-8.73C561.14,1361.85,561.02,1361.14,560.96,1360.71Z" fill="#bf134b"/>
      <path id="Trazado_906557" data-name="Trazado 906557" d="M471.34,1316.72c-.13.27-.14.34-.18.39-2.24,2.09-2.54,4.77-2.23,7.6.31,2.8.68,5.59,1.03,8.38a1.36,1.36,0,0,1-1.46.23c-.29-.11-.6-.16-.89-.26a2.764,2.764,0,0,1-1.86-2.01c-.51-1.89-1.14-3.74-1.73-5.6a5.764,5.764,0,0,0-2.23-3.02,12.44,12.44,0,0,1-4.07-5.35,12.15,12.15,0,0,1-.85-3.79,29.6,29.6,0,0,1,.12-7.1,7.13,7.13,0,0,1,.18-.8c.58-2.18,2.01-2.21,3.68-1.97a1.757,1.757,0,0,1,.83.58,15.942,15.942,0,0,1,4.39,7.46c.19.77.41,1.53.66,2.27a3.334,3.334,0,0,0,1.68,2c.09.05.21.07.27.14A2.606,2.606,0,0,0,471.34,1316.72Zm-9.16.03c.75.33.76.33.87.83a6.234,6.234,0,0,0,1.29,2.88,3.156,3.156,0,0,0,4.01.71,1.847,1.847,0,0,0,.36-.38c-.31-.4-.61-.18-.9-.13a2.592,2.592,0,0,1-3.29-1.75,6.514,6.514,0,0,1-.52-1.98,33.274,33.274,0,0,0-1.65-7.84,6.364,6.364,0,0,0-.92-1.82,1.386,1.386,0,0,0-2.49.26,2.737,2.737,0,0,0-.26.67,15.792,15.792,0,0,0-.28,5.22c.05.41.2.76.64.82s.65-.26.85-.61c.46-.8.95-1.59,1.45-2.37a3.032,3.032,0,0,1,.51-.5,18.879,18.879,0,0,1,1,5.14,1.29,1.29,0,0,0-1.59.63,7.38,7.38,0,0,0-.7,1.81c-.16.69.1.88.92.82C461.7,1318.38,461.93,1317.6,462.18,1316.75Z" fill="#36a9e1"/>
      <path id="Trazado_906558" data-name="Trazado 906558" d="M509.24,1405.98c-2.68,2.44-5.27,4.79-8.02,7.29-.03-.48-.06-.74-.06-1,.06-1.89.11-3.78.22-5.66.04-.64.27-1.27.35-1.92a1.978,1.978,0,0,0-.19-.72c-.21.07-.49.09-.63.23a2.5,2.5,0,0,0-.54.86,10.033,10.033,0,0,0-.47,1.79c-.34,2.27-.65,4.54-.97,6.81a.977.977,0,0,1-.23-.31c-.62-1.67-1.23-3.35-1.85-5.03a4.373,4.373,0,0,0-.43-.93.814.814,0,0,0-.57-.29c-.09,0-.27.3-.28.47a4.774,4.774,0,0,0,.07,1.13c.32,1.79.67,3.57,1.03,5.49-.17.11-.45.29-.81.53-.31-.73-.59-1.38-.87-2.04-.5-1.2-1.02-2.4-1.49-3.62a1.062,1.062,0,0,1,0-.84,13.694,13.694,0,0,0,1.77-3.7c.43-1.16.82-2.33,1.18-3.51a56.618,56.618,0,0,1,3.83-9.21c.09-.17.2-.33.42-.69.1,1,.2,1.79.26,2.59a11.574,11.574,0,0,0,1.92,5.48A22.086,22.086,0,0,0,509.24,1405.98Z" fill="#951b81"/>
      <path id="Trazado_906559" data-name="Trazado 906559" d="M542.15,1322.73a38.37,38.37,0,0,0,5.82,9.17,6.539,6.539,0,0,1-.26.72,16.313,16.313,0,0,1-3.65,4.56,3.024,3.024,0,0,1-4.06-.2,2.687,2.687,0,0,1-.73-2.66c1.16-3.71,1.86-7.52,2.65-11.32C541.93,1322.94,542,1322.9,542.15,1322.73Z" fill="#e6007e"/>
      <path id="Trazado_906560" data-name="Trazado 906560" d="M544.23,1343.8a39.588,39.588,0,0,1,1.34,9.35,26.662,26.662,0,0,1-.44,3.87,5.6,5.6,0,0,1-1.24,2.68c-.69.81-1.3.78-1.9-.09a4.154,4.154,0,0,1-.61-2.96c.19-1.52.47-3.04.81-4.54.57-2.5,1.22-4.99,1.84-7.48C544.07,1344.42,544.12,1344.23,544.23,1343.8Z" fill="#e6007e"/>
      <path id="Trazado_906561" data-name="Trazado 906561" d="M505.03,1233.43c1.06-5.37,3.83-10.03,7.3-14.43.01.31.02.62.04.93a8.852,8.852,0,0,1,.07,2.66,7.988,7.988,0,0,1-1.42,2.11c-.68.99-1.35,1.99-2.03,2.98C507.65,1229.62,506.31,1231.57,505.03,1233.43Z" fill="#e6007e"/>
      <path id="Trazado_906562" data-name="Trazado 906562" d="M469.96,1333.5c-.07.52-.07.52-.72.55C469.53,1333.83,469.72,1333.69,469.96,1333.5Z" fill="#e6007e"/>
      <path id="Trazado_906563" data-name="Trazado 906563" d="M590.28,1373.37c1.86.13,2.26,1.86,1.85,3.17a5.716,5.716,0,0,1-1.78,2.6,12.113,12.113,0,0,1-6.4,2.61,23.686,23.686,0,0,1-7.7.06,10.06,10.06,0,0,1-6.11-2.9c-.25-.28-.5-.56-.78-.87a16.14,16.14,0,0,1,3.45-5.24c1.33-1.34,2.72-2.63,4.09-3.94a45.939,45.939,0,0,0,5.35-5.72c1.31-1.77,2.65-3.52,3.83-5.38a26.728,26.728,0,0,0,4.52-15.39,46.839,46.839,0,0,0-3.59-17.77,77.789,77.789,0,0,0-4.94-9.39,48.876,48.876,0,0,0-4.99-6.42,68.219,68.219,0,0,0-17.4-14.09c-2.67-1.56-5.41-3-8.14-4.43a44.715,44.715,0,0,1-8.21-5.49,7,7,0,0,1-2.76-6.42c.73-.1,1.5-.19,2.27-.3a37.773,37.773,0,0,0,9.21-2.89c3.35-1.43,6.62-3.03,9.82-4.77a30.8,30.8,0,0,1,7.03-2.89c.8-.2,1.45-.24,1.98.5a4.2,4.2,0,0,0,.74.72,51.581,51.581,0,0,1,8.49,9.52q2.7,3.72,5.26,7.52a25.974,25.974,0,0,1,3.04,5.7,26.215,26.215,0,0,0,1.94,3.71,48.119,48.119,0,0,1,4.27,10.8c.88,3.25,1.99,6.43,3,9.64a45.073,45.073,0,0,1,2.02,11.85,72.547,72.547,0,0,1-.01,7.52,29.37,29.37,0,0,1-3.1,11.78c-.98,1.89-2.02,3.76-3.18,5.54a25.164,25.164,0,0,1-2.92,3.59,79.908,79.908,0,0,0-6.18,7.46,19.075,19.075,0,0,0-3.51,8.49,6.934,6.934,0,0,0,.18,3.07,4.588,4.588,0,0,0,5.74,3.22,4.159,4.159,0,0,0,3.15-2.42A10.621,10.621,0,0,0,590.28,1373.37Z" fill="#e6007e"/>
      <path id="Trazado_906564" data-name="Trazado 906564" d="M589.24,1290.52a1.9,1.9,0,0,1-.25-.32,96.658,96.658,0,0,0-12.32-17.5,59.01,59.01,0,0,0-4.86-4.61c-.29-.27-.59-.54-1.04-.94.73-.12,1.25-.25,1.78-.29a26,26,0,0,1,11.18,1.19,12.43,12.43,0,0,1,8.4,9.74,16.645,16.645,0,0,1-1,9.01c-.37,1.03-.86,2.01-1.32,3A3.808,3.808,0,0,1,589.24,1290.52Z" fill="#b2115b"/>
      <path id="Trazado_906565" data-name="Trazado 906565" d="M522.36,1336.6c-1.55,1.65-3.04,3.36-4.67,4.93a23.968,23.968,0,0,1-10.51,5.86,8.091,8.091,0,0,1-1.83.27c-1.17.04-2.33.01-3.62.01a42.881,42.881,0,0,1-.11-6.53c.63,0,1.17-.01,1.71,0a26.568,26.568,0,0,0,6.36-.43c.67-.15,1.33-.34,1.99-.52,1.55-.44,3.13-.81,4.64-1.34,1.68-.59,3.31-1.34,4.95-2.02.31-.13.61-.28.91-.43C522.24,1336.47,522.3,1336.53,522.36,1336.6Z" fill="#e6007e"/>
      <path id="Trazado_906566" data-name="Trazado 906566" d="M502.28,1339.88v-2.36c.3-.14.6-.3.91-.41a4.208,4.208,0,0,0,2.61-2.31c.5-1.08.67-1.14,1.85-.95.81.13,1.59.42,2.39.58,1.91.39,3.82.79,5.75,1.1,1.51.25,3.03.38,4.72.58a27.354,27.354,0,0,1-4.06,1.66c-2.63.64-5.25,1.3-7.91,1.79a33.685,33.685,0,0,1-4.61.31c-.24.01-.49-.23-.74-.24A2.854,2.854,0,0,0,502.28,1339.88Z" fill="#e6007e"/>
      <path id="Trazado_906567" data-name="Trazado 906567" d="M531.59,1300.72a3.584,3.584,0,0,1-2.07-1.09,12.68,12.68,0,0,0-7.25-3.59,8.614,8.614,0,0,0-4.41.81,10.462,10.462,0,0,0-3.79,2.42,15.036,15.036,0,0,1-1.37,1.13,4.871,4.871,0,0,1,.29-.83,26.27,26.27,0,0,1,2.56-3.85c1.92-2.06,4.15-3.65,7.18-3.79a6.621,6.621,0,0,1,5.42,2.25A15.3,15.3,0,0,1,531.59,1300.72Z" fill="#e6007e"/>
      <path id="Trazado_906568" data-name="Trazado 906568" d="M518.12,1298.41a8.086,8.086,0,0,0-.43,1.42,2.89,2.89,0,0,0,1.92,3.28,4.938,4.938,0,0,0,4.98-.56,3.03,3.03,0,0,0,1.37-2.63v-.69c1.68.59,2.78,2,4.6,2.65-.5.29-.84.47-1.17.67-3.54,2.09-7.36,2.24-11.27,1.57a11.4,11.4,0,0,1-2.56-1.02c-.65-.29-1.28-.62-1.94-.95C513.86,1300.7,516.12,1298.79,518.12,1298.41Z" fill="#fff"/>
      <path id="Trazado_906569" data-name="Trazado 906569" d="M520.68,1299c.95.01,1.31.51,1.08,1.17a1.034,1.034,0,0,1-.96.8,2.738,2.738,0,0,1-1.3-.42.654.654,0,0,1,.12-1.05A5.826,5.826,0,0,1,520.68,1299Z" fill="#fff"/>
      <path id="Trazado_906570" data-name="Trazado 906570" d="M481.05,1301.89c.88-1.47,2.22-2.15,3.66-3.07-.08.45-.11.65-.15.84a1.938,1.938,0,0,0,.48,1.73,3.818,3.818,0,0,0,4.68.93c1.64-.91,2.21-1.94,2.22-4.15a3.237,3.237,0,0,1,2.57,1.34,4.585,4.585,0,0,1-2.46,2.9,11.407,11.407,0,0,1-6.92,1.58A6.17,6.17,0,0,1,481.05,1301.89Z" fill="#fff"/>
      <path id="Trazado_906571" data-name="Trazado 906571" d="M488.04,1299.36c-.03.28-.04.42-.06.55-.11.52-.46.83-.8.73a.959.959,0,0,1-.55-1.16.671.671,0,0,1,.2-.34c.24-.15.54-.38.77-.33C487.8,1298.85,487.94,1299.21,488.04,1299.36Z" fill="#fff"/>
      <path id="Trazado_906572" data-name="Trazado 906572" d="M547.73,1350.63a13.288,13.288,0,0,1,2.78,12.25,12.416,12.416,0,0,1-4.81,7,45.85,45.85,0,0,1-8.33,4.9,27.147,27.147,0,0,0-5.24,3.05,9.831,9.831,0,0,0-3.96,6.85,8.609,8.609,0,0,0,.27,2.85,11.332,11.332,0,0,0,2.05,4.64,2.563,2.563,0,0,1-.7-.21,1.913,1.913,0,0,1-.49-.53,9.893,9.893,0,0,1-1.57-8.33,11.375,11.375,0,0,1,3.85-6.07,26.391,26.391,0,0,1,4.76-3.05,50.761,50.761,0,0,0,8.02-4.63,19.512,19.512,0,0,0,2.33-2.02,11.528,11.528,0,0,0,3.08-10.07,18.13,18.13,0,0,0-1.86-6.18A3.1,3.1,0,0,1,547.73,1350.63Z"/>
      <path id="Trazado_906573" data-name="Trazado 906573" d="M534.63,1352.57c-.38.91-.74,1.83-1.14,2.72-1.02,2.25-2.07,4.49-3.1,6.73s-2.06,4.5-3.11,6.74a29.363,29.363,0,0,0-2.67,8.41,21.931,21.931,0,0,0-.17,6.16,7.934,7.934,0,0,0,1.47,3.8,5.881,5.881,0,0,1,.38.72c-.37-.13-.63-.15-.74-.28a8.933,8.933,0,0,1-1.39-2.01,10.552,10.552,0,0,1-.68-3,25.985,25.985,0,0,1,2.13-12.27c1.55-3.67,3.17-7.31,4.77-10.96a11.919,11.919,0,0,1,.7-1.38c1.13-1.82,2.29-3.63,3.44-5.44A.3.3,0,0,0,534.63,1352.57Z"/>
      <path id="Trazado_906574" data-name="Trazado 906574" d="M560.96,1360.71c.06.43.17,1.14.25,1.85a13.736,13.736,0,0,1-2.2,8.73,32.148,32.148,0,0,1-4.73,6.1,14.435,14.435,0,0,0-3.97,7.87,18.688,18.688,0,0,0-.48,5.21,11.542,11.542,0,0,0,3.11,6.92c.73.78,1.52,1.5,2.27,2.25a6.171,6.171,0,0,1,1.42,2.07c-1.6-1.66-3.3-3.24-4.78-4.99a11.831,11.831,0,0,1-2.5-9.78c.13-.92.34-1.82.51-2.73a13.856,13.856,0,0,1,3.49-6.78c1.5-1.69,2.91-3.48,4.3-5.27a15.534,15.534,0,0,0,3.09-7.44A36.636,36.636,0,0,0,560.96,1360.71Z"/>
      <path id="Trazado_906575" data-name="Trazado 906575" d="M462.18,1316.75c-.25.86-.48,1.63-.71,2.41-.81.06-1.08-.13-.92-.82a7.38,7.38,0,0,1,.7-1.81,1.276,1.276,0,0,1,1.59-.63,18.879,18.879,0,0,0-1-5.14,3.471,3.471,0,0,0-.51.5c-.5.78-.98,1.57-1.45,2.37-.2.35-.4.68-.85.61-.43-.07-.59-.41-.64-.82a15.778,15.778,0,0,1,.28-5.22,2.738,2.738,0,0,1,.26-.67,1.389,1.389,0,0,1,2.49-.26,6.367,6.367,0,0,1,.92,1.82,33.277,33.277,0,0,1,1.65,7.84,6.513,6.513,0,0,0,.52,1.98,2.588,2.588,0,0,0,3.29,1.75c.29-.05.58-.27.9.13-.11.12-.21.3-.36.38a3.154,3.154,0,0,1-4.01-.71,6.135,6.135,0,0,1-1.29-2.88C462.95,1317.07,462.93,1317.08,462.18,1316.75Z"/>
    </g>
  </g>
</svg>
