<svg xmlns="http://www.w3.org/2000/svg" xmlns:xlink="http://www.w3.org/1999/xlink" width="1600" height="2555" viewBox="0 0 1600 2555">
  <defs>
    <clipPath id="clip-path">
      <rect id="Rectángulo_417385" data-name="Rectángulo 417385" width="1600" height="2555" transform="translate(0 25303)" fill="none"/>
    </clipPath>
  </defs>
  <g id="Enmascarar_grupo_1079222" data-name="Enmascarar grupo 1079222" transform="translate(0 -25303)" clip-path="url(#clip-path)">
    <path id="Trazado_942653" data-name="Trazado 942653" d="M431.286,78.385a58.741,58.741,0,0,1-8.631,4.432c-.643.286-1.251.5-1.894.751-.643.268-1.269.5-1.841.7-1.412.536-2.895,1.09-4.557,1.715L409.7,85.6c-7.541,3.27-2.895,2.68-8.077,5.5a124.877,124.877,0,0,0-13.474,3.949,102.84,102.84,0,0,1-10.221,2.966c-2.252-.411,2.341-1.644,3.252-2.484-2.019.7-3.413,1.144-4.61,1.68-1.179.447-2.109.893-3.127,1.34a21.4,21.4,0,0,1-9.078,1.59l-.143-.5a21,21,0,0,1-2.144.107l-1.09.036h-.5l-.25.036-1.054.054h-.715a2.567,2.567,0,0,1-2.52-1.59,3.78,3.78,0,0,1-.143-1.68,5.168,5.168,0,0,1,.143-.893c.036-.179.143-.447.2-.679a8.367,8.367,0,0,1,.268-.8,99.937,99.937,0,0,1,4.682-10.025c3.627-7.076,7.952-14.367,11.061-23.248.393-1.09.75-2.269,1.054-3.467.339-1.144.572-2.466.822-3.717a36.222,36.222,0,0,0,.447-4.039,26.752,26.752,0,0,0-.214-4.432c-.125-.768-.214-1.59-.411-2.359-.214-.751-.465-1.519-.715-2.252a11.805,11.805,0,0,0-.947-2.216,18.622,18.622,0,0,0-1.019-1.823,23.176,23.176,0,0,0-5.915-6.594c2.43,2.2,1.465,2.019,2.055,3.127a20.083,20.083,0,0,0-6.236-4.61,22.042,22.042,0,0,0-7.309-2,37.226,37.226,0,0,0-12.938,1.269C333,29.9,326.2,33.1,319.6,36.159q-4.825,2.305-9.578,4.575c-3.61,1.644-4.914,2.341-7.148,3.234A21.623,21.623,0,0,1,296,45.684a8.1,8.1,0,0,1-3.574-.643,7.839,7.839,0,0,1-2.7-2.234,6.429,6.429,0,0,1-1.573-4.575,14.222,14.222,0,0,1,1.179-4.5,20.466,20.466,0,0,0-2.395,4.718,8.018,8.018,0,0,0,.357,5.843,7.782,7.782,0,0,0,3.842,4.253,11.869,11.869,0,0,0,5.986.768,47.813,47.813,0,0,0,12.473-3.431,181.988,181.988,0,0,0,22.873-11.311c3.413-.572,7.487-2.073,11.347-2.913,3.824-.876,7.505-.876,8.881.232a16.781,16.781,0,0,1,8.845,3.628,19.249,19.249,0,0,1,5,6.808,18.861,18.861,0,0,1,1.251,7.684,35.543,35.543,0,0,1-1.054,7.13c-2.323,9.113-6.5,17.3-12.223,28-1.876,2.913-1.912,1.019-3.163,1.519,0,0,1.984-4.414,4.217-8.81,1.09-2.2,2.18-4.414,3-6.076.8-1.662,1.34-2.788,1.34-2.788s-1.555,2.573-3.181,5.111L353.5,79.153c.876-2.466,3.038-6.379,4.753-9.953,1.751-3.574,2.948-6.862,2.484-7.845A87.776,87.776,0,0,1,355,74.489c-2.377,4.646-5.093,9.471-7.255,14.51a34.927,34.927,0,0,0-2.52,7.845,11.593,11.593,0,0,0,.84,7.612,9.448,9.448,0,0,0,5.575,4.164c.536.143,1.054.286,1.573.429.518.125,1.054.143,1.555.214.5.054.983.107,1.465.161.482,0,.947,0,1.412-.018a20.472,20.472,0,0,1-2.466-.572,16.2,16.2,0,0,1-2.5-.786,10.434,10.434,0,0,1-4.557-3.02,8,8,0,0,1-1.751-5.379,18.893,18.893,0,0,1,1.126-5.718c1.537-3.038,4.539-7.9,5.164-7.13a71.425,71.425,0,0,0-2.448,7.595,13.279,13.279,0,0,0-.286,5.9,6.214,6.214,0,0,0,3.52,4.2,5.71,5.71,0,0,0,1.287.518,6.951,6.951,0,0,0,1.322.375l1.34.286,1.5.179c.876.143,2.323.2,3.538.3,1.269.125,2.52.036,3.806.072,1.269,0,2.573-.143,3.86-.214,1.3-.107,2.609-.3,3.931-.465a94.93,94.93,0,0,0,16.351-4.128c5.647-1.912,13.474-4.557,14.724-4.056-3.681,1.608-.59,1.3-3.556,2.788,7.934-3.556-.3-3.288,11.758-7.112l-.536,3.413a9.609,9.609,0,0,1,4.021-2.734c.858-.34,1.769-.643,2.752-.929.929-.268,1.894-.536,2.877-.822,4-1.144,8.577-2.663,12.312-5.307,3.449-.179-1.733,2.913-7.952,5.611,7.362-2.484,7.237-4.5,13.063-6.9l-4.414,4.735c5.075-4.95,11.222-4.217,14.975-4.539.107-.375-.822-.75-.786-1.358,0-.3.286-.643,1.054-1.072a15.819,15.819,0,0,1,4.128-1.394c3.645-.482,1.948.59,2.859.768a4.589,4.589,0,0,1,2.412-1.573,13.182,13.182,0,0,1,2.752-.786c.554-.089,1.144-.179,1.787-.25.643-.054,1.34-.036,2.073-.036.518.447-.465.751-1.59,1.054-1.108.34-2.359.786-2.5,1.233a35.762,35.762,0,0,1,5.129-.089H467.7a9.868,9.868,0,0,1-1.7,5.272c-1.072,3.467-.679,3.074-.071,2.609.59-.536,1.34-1.215.965.375-2.859,4.36-4.271,5.254-5.111,5.307-.84.089-1.608-.7-3.735,1.8a66.981,66.981,0,0,1,2.537-7.38c.625-1.5,1.287-3.109,1.894-4.7.2-.751.375-1.483.572-2.216-.036-.393-.054-.768-.054-1.144,1.519,1.626,3.02,3.27,4.36,4.7a26.563,26.563,0,0,0-7.9,1.34,35.266,35.266,0,0,1,7.863-.893l-4.771-5.146v1.072l-.643,2.162c-.679,1.555-1.376,3.109-2.109,4.628-.322-.554-2.805,3.252-4.217,5.575-.715,1.144-1.287,2.055-1.537,2.055-.143.018-.2-.2-.125-.733a13.025,13.025,0,0,1,.679-2.788,40.021,40.021,0,0,0-3.735,12.223,30.435,30.435,0,0,0-.268,6.576l.071.965c.036.3.2.268.286.429.232.214.447.429.679.679.465.447.929,1.054,1.412,1.608,7.237-2.126,14.617-4.271,21.837-6.683,3.556-1.161,7.094-2.305,10.275-3.252,1.215-.375,2.412-.733,3.61-1.09,1.036-.3,2.055-.59,3.056-.876-2.126.107-4.861.554-4.575-.179,7.469-2.395,6.88-.822,8.542-.429a11,11,0,0,0,4.682-2.448,10.512,10.512,0,0,1,3.163-2.484c.733.036,1.412.071,2.073.125.625.036,1.054.107,1.537.161.929.107,1.715.25,2.43.375a15.984,15.984,0,0,1,3.574,1.09,5.661,5.661,0,0,1,2.466,2.216,5.252,5.252,0,0,1,.107,4.324s.5-.232,1.019-.465c.5-.25,1-.518,1-.518-.286,1.43-.679,2.395-.875,3.217-.232.822-.34,1.519-.483,2.252a10.454,10.454,0,0,1-.786,2.412,15.72,15.72,0,0,1-2.537,3.52c-.268.071-.089-.572.268-1.483.179-.447.393-.983.625-1.537.2-.5.268-.822.393-1.233a12.006,12.006,0,0,1-1.769,2.806,16.89,16.89,0,0,1-1.823,1.787,18.334,18.334,0,0,0-4.164,4.878l.858-2.7.768-2.663c-2.984,4.164-7.648,10.758-7.166,7.523a67.682,67.682,0,0,1-4.467,7.237c-1.8,2.68-3.9,5.522-5.951,8.953a30.927,30.927,0,0,0-2.948,6.236,14.02,14.02,0,0,0-.7,5.289,9.172,9.172,0,0,0,.3,1.841,8.148,8.148,0,0,0,.733,1.948,9.879,9.879,0,0,0,2.573,3.27,11.856,11.856,0,0,0,5.236,2.43,19.51,19.51,0,0,0,3.717.357,29.185,29.185,0,0,0,5.682-.572l-.768,1.608c3.574-1.215,9.489-2.323,15.1-3.77.7-.179,1.394-.375,2.091-.554l1.019-.286c.357-.089,1-.3,1.34-.411,1.5-.536,2.716-1.036,3.86-1.555a19.851,19.851,0,0,0,5.093-3.056l1.072.25,10.7-6.362c5.254-1.787,4.289,1.036,4.485.286,11.168-4.61,20.21-7.648,27.608-8.685.232-1.09,2.412-2.377,5.861-3.306a22.024,22.024,0,0,1,5.736-.786,8.171,8.171,0,0,1,3,.518,3.816,3.816,0,0,1,2.144,1.894,6.071,6.071,0,0,1-.125,3.431,16.161,16.161,0,0,1-1.34,3.2,28.365,28.365,0,0,1-1.769,2.931l-2.019,2.716-1,1.358c-.357.482-.59.84-1.126,1.465l-2.877,3.467c-1.841,2.341-3.967,4.592-6.058,6.88a287.917,287.917,0,0,1-27.323,25.411c-19.21,15.922-39.456,30.271-57.594,44.46a64.98,64.98,0,0,0-6.326,5.45c-2.162,2.126-4.378,4.45-6.63,6.755l-1.019-3.074c1.894-.357,3.842-1.858,7.148-2.234a22.691,22.691,0,0,0-2.716.232c-.7.143-1.34.286-1.966.411-.5.089-1.072.268-1.43.286-.375.036-.715.089-1.036.143.608,1.8,1.2,3.61,1.715,5.164,3.663-2.823,5.432-4.861,11.383-9.042,6.63-4.039,10.2-3.9,16.44-6.612l-3.77.5c7.863-7.094,6.469-3.324,12.33-9.471l1.3,2.5c1.608-2.823,8.309-6.058,11.222-7.184l1.126-3.163c6.058-2.948,9.828-5.146,12.509-4.932l-1.573-1.054a20.766,20.766,0,0,0,4.289-2.52c1.966-1.412,4.324-3.091,6.415-4.575,4.2-2.966,7.452-5.093,5.254-1.394,1.287-1.555,2.144-3.342,5.593-5.9l1.626.947c2.234-2.2,4.664-4.45,6.719-6.29,2.037-1.876,3.788-3.234,4.789-3.467-2.252,2.609-2.591,3.949-2.913,5.289,2.52-2.216,4.414-4.021,5.826-5.486a23.9,23.9,0,0,0,2.895-3.645c1.179-1.912,1.09-2.859.929-3.753a4.278,4.278,0,0,1,.429-3.359c.786-1.715,2.609-4.2,6.5-8.667l.7.965,2.966-5.54s.322-.25.822-.643c.25-.2.536-.429.84-.661a7.1,7.1,0,0,0,1.019-.911l3.091-3.377a26.078,26.078,0,0,1,1.948-4.878,33.433,33.433,0,0,0,2.5-5.843,27.312,27.312,0,0,0,1.5-6.7,10.694,10.694,0,0,0-1.662-7.273,12.6,12.6,0,0,0-6.362-4.253,25.78,25.78,0,0,0-8.023-1.126,42.475,42.475,0,0,0-8.631,1c-1.394.286-2.77.661-4.056,1.019q-.965.295-1.876.59a12.385,12.385,0,0,0-1.376.536c-5.325,1.7-12.991,1.608-22.748,5.379l1.233,1.43c-4.253.536-13.777,3.359-23.159,5.968-2.341.643-4.682,1.269-6.826,1.769-.518.107-1.036.214-1.537.322a5.046,5.046,0,0,1-1.161.143,1.861,1.861,0,0,0-.59.036l-.768.071c-.518.036-1.019.089-1.5.125-3.931.268-7.112.054-8.9-.661-6.111,2.323.661.3.876,1.626a23.446,23.446,0,0,1-6.915,1.43,3.234,3.234,0,0,1-.733-.089.5.5,0,0,1-.2-.071c-.036.071.089-.447-.179.786a13.816,13.816,0,0,1-2.162,5.629c-.608.751-.768.482.107.322a10.987,10.987,0,0,1,4.592.393,33.033,33.033,0,0,1,3.913,1.144c.071.054.2,0,.322-.054a5.026,5.026,0,0,0,1-.911c.59-1.412.893-2.073.7-2.019a6.121,6.121,0,0,0-1.215,1.287c-1.072,1.358-1.5,1.858-1.787.8.715-.965,1.3-1.787,1.841-2.5.608-.858,1.179-1.68,1.662-2.448.983-1.537,1.662-2.859,2.43-4.271,1.537-2.895,3.431-5.951,9.578-12.866,1.912-.84-2.394,4.217-3.056,6.022,1.644-2.77,3.878-5.968,6.451-9.81.643-.983,1.3-2,1.966-3.038.375-.608.751-1.2,1.126-1.823.518-.858.983-1.715,1.483-2.573a32.518,32.518,0,0,0,3.913-11.133,21.8,21.8,0,0,0-1.769-11.437l-.661-1.322c-.268-.411-.554-.822-.84-1.215a17.683,17.683,0,0,0-1.912-2.252A28.764,28.764,0,0,0,525.28,90.2c-.822-.554-1.68-1.054-2.52-1.555a28.481,28.481,0,0,0-11.848-3.02,30.666,30.666,0,0,0-3.145-.089c-.983,0-2.252,0-2.859.054-1.412.089-2.77.214-4.056.375-3.217.179-6.5.554-9.864,1.072-1.662.268-3.377.554-5.075.894-.858.161-1.715.34-2.573.518l-1.161.232-.322.036a21.626,21.626,0,0,1-3.038.089.76.76,0,0,1-.3-.071s-.054,0-.054-.036l.054-.179a2.987,2.987,0,0,1,.143-.357,4.242,4.242,0,0,1,.858-1.108c.3-.3.572-.554.786-.733l.3-.25s.143-.322.2-.465a4.588,4.588,0,0,0,.089-.679L481,83.96l.161-1.93.983-12.133-13.277-1.144a57.24,57.24,0,0,0-6.648-.286l-.572.679c-7-.286-13.4,1.59-19.281,3.788-5.808,2.252-11.294,4.95-16.708,6.88l5.682-1.447Z" transform="translate(-461.949 26086.986)" fill="#bad1ff"/>
    <path id="Trazado_942654" data-name="Trazado 942654" d="M460.225,194.379a58.738,58.738,0,0,1,8.631-4.432c.643-.286,1.251-.5,1.894-.751.643-.268,1.269-.5,1.841-.7,1.412-.536,2.895-1.09,4.557-1.715l4.664.375c7.541-3.27,2.895-2.68,8.077-5.5a124.879,124.879,0,0,0,13.474-3.949,102.838,102.838,0,0,1,10.221-2.966c2.252.411-2.341,1.644-3.252,2.484,2.019-.7,3.413-1.144,4.61-1.68,1.179-.447,2.109-.893,3.127-1.34a21.4,21.4,0,0,1,9.078-1.59l.143.5a21,21,0,0,1,2.144-.107l1.09-.036h.5l.25-.036,1.054-.054h.715a2.567,2.567,0,0,1,2.52,1.59,3.78,3.78,0,0,1,.143,1.68,5.168,5.168,0,0,1-.143.893c-.036.179-.143.447-.2.679a8.367,8.367,0,0,1-.268.8,99.937,99.937,0,0,1-4.682,10.025c-3.627,7.076-7.952,14.367-11.061,23.248-.393,1.09-.75,2.269-1.054,3.467-.339,1.144-.572,2.466-.822,3.717a36.222,36.222,0,0,0-.447,4.039,26.752,26.752,0,0,0,.214,4.432c.125.768.214,1.59.411,2.359.214.751.465,1.519.715,2.252a11.8,11.8,0,0,0,.947,2.216,18.619,18.619,0,0,0,1.019,1.823,23.176,23.176,0,0,0,5.915,6.594c-2.43-2.2-1.465-2.019-2.055-3.127a20.084,20.084,0,0,0,6.236,4.61,22.042,22.042,0,0,0,7.309,2,37.226,37.226,0,0,0,12.938-1.269c7.827-2.055,14.635-5.254,21.229-8.309q4.825-2.305,9.578-4.575c3.61-1.644,4.914-2.341,7.148-3.234a21.623,21.623,0,0,1,6.88-1.715,8.1,8.1,0,0,1,3.574.643,7.839,7.839,0,0,1,2.7,2.234,6.429,6.429,0,0,1,1.573,4.575,14.222,14.222,0,0,1-1.179,4.5,20.466,20.466,0,0,0,2.395-4.718,8.018,8.018,0,0,0-.357-5.843,7.782,7.782,0,0,0-3.842-4.253,11.87,11.87,0,0,0-5.986-.768,47.814,47.814,0,0,0-12.473,3.431,181.988,181.988,0,0,0-22.873,11.311c-3.413.572-7.487,2.073-11.347,2.913-3.824.876-7.505.876-8.881-.232a16.781,16.781,0,0,1-8.845-3.628,19.249,19.249,0,0,1-5-6.808,18.861,18.861,0,0,1-1.251-7.684,35.543,35.543,0,0,1,1.054-7.13c2.323-9.113,6.5-17.3,12.223-28,1.876-2.913,1.912-1.019,3.163-1.519,0,0-1.984,4.414-4.217,8.81-1.09,2.2-2.18,4.414-3,6.076-.8,1.662-1.34,2.788-1.34,2.788s1.555-2.573,3.181-5.111l3.234-5.057c-.876,2.466-3.038,6.379-4.753,9.953-1.751,3.574-2.948,6.862-2.484,7.845a87.776,87.776,0,0,1,5.736-13.134c2.377-4.646,5.093-9.471,7.255-14.51a34.927,34.927,0,0,0,2.52-7.845,11.593,11.593,0,0,0-.84-7.612,9.448,9.448,0,0,0-5.575-4.164c-.536-.143-1.054-.286-1.573-.429-.518-.125-1.054-.143-1.555-.214-.5-.054-.983-.107-1.465-.161-.482,0-.947,0-1.412.018a20.472,20.472,0,0,1,2.466.572,16.2,16.2,0,0,1,2.5.786,10.434,10.434,0,0,1,4.557,3.02,8,8,0,0,1,1.751,5.379,18.893,18.893,0,0,1-1.126,5.718c-1.537,3.038-4.539,7.9-5.164,7.13a71.425,71.425,0,0,0,2.448-7.595,13.279,13.279,0,0,0,.286-5.9,6.214,6.214,0,0,0-3.52-4.2,5.71,5.71,0,0,0-1.287-.518,6.951,6.951,0,0,0-1.322-.375l-1.34-.286-1.5-.179c-.876-.143-2.323-.2-3.538-.3-1.269-.125-2.52-.036-3.806-.072-1.269,0-2.573.143-3.86.214-1.3.107-2.609.3-3.931.465a94.931,94.931,0,0,0-16.351,4.128c-5.647,1.912-13.474,4.557-14.724,4.056,3.681-1.608.59-1.3,3.556-2.788-7.934,3.556.3,3.288-11.758,7.112l.536-3.413a9.609,9.609,0,0,1-4.021,2.734c-.858.34-1.769.643-2.752.929-.929.268-1.894.536-2.877.822-4,1.144-8.577,2.663-12.312,5.307-3.449.179,1.733-2.913,7.952-5.611-7.362,2.484-7.237,4.5-13.063,6.9l4.414-4.735c-5.075,4.95-11.222,4.217-14.975,4.539-.107.375.822.75.786,1.358,0,.3-.286.643-1.054,1.072a15.819,15.819,0,0,1-4.128,1.394c-3.645.482-1.948-.59-2.859-.768a4.589,4.589,0,0,1-2.412,1.573,13.182,13.182,0,0,1-2.752.786c-.554.089-1.144.179-1.787.25-.643.054-1.34.036-2.073.036-.518-.447.465-.751,1.59-1.054,1.108-.34,2.359-.786,2.5-1.233a35.762,35.762,0,0,1-5.129.089h.018a9.868,9.868,0,0,1,1.7-5.272c1.072-3.467.679-3.074.071-2.609-.59.536-1.34,1.215-.965-.375,2.859-4.36,4.271-5.254,5.111-5.307.84-.089,1.608.7,3.735-1.8a66.982,66.982,0,0,1-2.537,7.38c-.625,1.5-1.287,3.109-1.894,4.7-.2.751-.375,1.483-.572,2.216.036.393.054.768.054,1.144-1.519-1.626-3.02-3.27-4.36-4.7a26.563,26.563,0,0,0,7.9-1.34,35.266,35.266,0,0,1-7.863.893l4.771,5.146V189.7l.643-2.162c.679-1.555,1.376-3.109,2.109-4.628.322.554,2.806-3.252,4.217-5.575.715-1.144,1.287-2.055,1.537-2.055.143-.018.2.2.125.733a13.025,13.025,0,0,1-.679,2.788,40.021,40.021,0,0,0,3.735-12.223,30.435,30.435,0,0,0,.268-6.576l-.071-.965c-.036-.3-.2-.268-.286-.429-.232-.214-.447-.429-.679-.679-.465-.447-.929-1.054-1.412-1.608-7.237,2.126-14.617,4.271-21.837,6.683-3.556,1.161-7.094,2.305-10.275,3.252-1.215.375-2.412.733-3.61,1.09-1.036.3-2.055.59-3.056.876,2.126-.107,4.861-.554,4.575.179-7.469,2.395-6.88.822-8.542.429a11,11,0,0,0-4.682,2.448,10.512,10.512,0,0,1-3.163,2.484c-.733-.036-1.412-.071-2.073-.125-.625-.036-1.054-.107-1.537-.161-.929-.107-1.715-.25-2.43-.375a15.983,15.983,0,0,1-3.574-1.09,5.662,5.662,0,0,1-2.466-2.216,5.252,5.252,0,0,1-.107-4.324s-.5.232-1.019.465c-.5.25-1,.518-1,.518.286-1.43.679-2.395.876-3.217.232-.822.34-1.519.482-2.252a10.457,10.457,0,0,1,.786-2.412,15.718,15.718,0,0,1,2.538-3.52c.268-.071.089.572-.268,1.483-.179.447-.393.983-.625,1.537-.2.5-.268.822-.393,1.233a12.006,12.006,0,0,1,1.769-2.806,16.89,16.89,0,0,1,1.823-1.787,18.334,18.334,0,0,0,4.164-4.878l-.858,2.7-.768,2.663c2.984-4.164,7.648-10.758,7.166-7.523a67.682,67.682,0,0,1,4.467-7.237c1.8-2.68,3.9-5.522,5.951-8.953a30.927,30.927,0,0,0,2.948-6.236,14.02,14.02,0,0,0,.7-5.289,9.172,9.172,0,0,0-.3-1.841,8.148,8.148,0,0,0-.733-1.948,9.879,9.879,0,0,0-2.573-3.27,11.856,11.856,0,0,0-5.236-2.43,19.51,19.51,0,0,0-3.717-.357,29.185,29.185,0,0,0-5.682.572l.768-1.608c-3.574,1.215-9.489,2.323-15.1,3.77-.7.179-1.394.375-2.091.554l-1.019.286c-.357.089-1,.3-1.34.411-1.5.536-2.716,1.036-3.86,1.555a19.851,19.851,0,0,0-5.093,3.056l-1.072-.25-10.7,6.362c-5.254,1.787-4.289-1.036-4.485-.286-11.168,4.61-20.21,7.648-27.609,8.685-.232,1.09-2.412,2.377-5.861,3.306a22.025,22.025,0,0,1-5.736.786,8.171,8.171,0,0,1-3-.518,3.816,3.816,0,0,1-2.144-1.894,6.071,6.071,0,0,1,.125-3.431,16.161,16.161,0,0,1,1.34-3.2,28.355,28.355,0,0,1,1.769-2.931l2.019-2.716,1-1.358c.357-.482.59-.84,1.126-1.465l2.877-3.467c1.841-2.341,3.967-4.592,6.058-6.88a287.918,287.918,0,0,1,27.323-25.411c19.21-15.922,39.456-30.271,57.594-44.46a64.98,64.98,0,0,0,6.326-5.45c2.162-2.126,4.378-4.45,6.63-6.755l1.019,3.074c-1.894.357-3.842,1.858-7.148,2.234a22.7,22.7,0,0,0,2.716-.232c.7-.143,1.34-.286,1.966-.411.5-.089,1.072-.268,1.43-.286.375-.036.715-.089,1.036-.143-.608-1.8-1.2-3.61-1.715-5.164-3.663,2.823-5.432,4.861-11.383,9.042-6.63,4.039-10.2,3.9-16.44,6.612l3.77-.5c-7.863,7.094-6.469,3.324-12.33,9.471l-1.3-2.5c-1.608,2.823-8.309,6.058-11.222,7.184l-1.126,3.163c-6.058,2.948-9.828,5.146-12.509,4.932l1.573,1.054a20.766,20.766,0,0,0-4.289,2.52c-1.966,1.412-4.324,3.091-6.415,4.575-4.2,2.966-7.452,5.093-5.254,1.394-1.287,1.555-2.144,3.342-5.593,5.9l-1.626-.947c-2.234,2.2-4.664,4.45-6.719,6.29-2.037,1.876-3.788,3.234-4.789,3.467,2.252-2.609,2.591-3.949,2.913-5.289-2.52,2.216-4.414,4.021-5.826,5.486a23.9,23.9,0,0,0-2.895,3.645c-1.179,1.912-1.09,2.859-.929,3.753a4.278,4.278,0,0,1-.429,3.359c-.786,1.715-2.609,4.2-6.5,8.667l-.7-.965-2.966,5.54s-.322.25-.822.643c-.25.2-.536.429-.84.661a7.1,7.1,0,0,0-1.019.911l-3.091,3.377a26.078,26.078,0,0,1-1.948,4.878,33.433,33.433,0,0,0-2.5,5.843,27.312,27.312,0,0,0-1.5,6.7,10.694,10.694,0,0,0,1.662,7.273,12.6,12.6,0,0,0,6.362,4.253,25.78,25.78,0,0,0,8.023,1.126,42.476,42.476,0,0,0,8.631-1c1.394-.286,2.77-.661,4.056-1.019q.965-.295,1.876-.59a12.385,12.385,0,0,0,1.376-.536c5.325-1.7,12.991-1.608,22.748-5.379L340.1,138c4.253-.536,13.777-3.359,23.159-5.968,2.341-.643,4.682-1.269,6.826-1.769.518-.107,1.036-.214,1.537-.322a5.046,5.046,0,0,1,1.161-.143,1.861,1.861,0,0,0,.59-.036l.768-.071c.518-.036,1.019-.089,1.5-.125,3.931-.268,7.112-.054,8.9.661,6.111-2.323-.661-.3-.876-1.626a23.446,23.446,0,0,1,6.915-1.43,3.234,3.234,0,0,1,.733.089.5.5,0,0,1,.2.071c.036-.071-.089.447.179-.786a13.816,13.816,0,0,1,2.162-5.629c.608-.751.768-.482-.107-.322a10.987,10.987,0,0,1-4.592-.393,33.033,33.033,0,0,1-3.913-1.144c-.071-.054-.2,0-.322.054a5.026,5.026,0,0,0-1,.911c-.59,1.412-.893,2.073-.7,2.019a6.121,6.121,0,0,0,1.215-1.287c1.072-1.358,1.5-1.858,1.787-.8-.715.965-1.3,1.787-1.841,2.5-.608.858-1.179,1.68-1.662,2.448-.983,1.537-1.662,2.859-2.43,4.271-1.537,2.895-3.431,5.951-9.578,12.866-1.912.84,2.394-4.217,3.056-6.022-1.644,2.77-3.878,5.968-6.451,9.81-.643.983-1.3,2-1.966,3.038-.375.608-.751,1.2-1.126,1.823-.518.858-.983,1.715-1.483,2.573a32.517,32.517,0,0,0-3.913,11.133A21.8,21.8,0,0,0,360.6,175.83l.661,1.322c.268.411.554.822.84,1.215a17.683,17.683,0,0,0,1.912,2.252,28.764,28.764,0,0,0,2.216,1.948c.822.554,1.68,1.054,2.52,1.555a28.481,28.481,0,0,0,11.848,3.02,30.666,30.666,0,0,0,3.145.089c.983,0,2.252,0,2.859-.054,1.412-.089,2.77-.214,4.056-.375,3.217-.179,6.5-.554,9.864-1.072,1.662-.268,3.377-.554,5.075-.894.858-.161,1.715-.34,2.573-.518l1.161-.232.322-.036a21.626,21.626,0,0,1,3.038-.089.76.76,0,0,1,.3.071s.054,0,.054.036l-.054.179a2.987,2.987,0,0,1-.143.357,4.242,4.242,0,0,1-.858,1.108c-.3.3-.572.554-.786.733l-.3.25s-.143.322-.2.465a4.588,4.588,0,0,0-.089.679l-.107.965-.161,1.93-.983,12.133,13.277,1.144a57.24,57.24,0,0,0,6.648.286l.572-.679c7,.286,13.4-1.59,19.281-3.788,5.808-2.252,11.294-4.95,16.708-6.88L460.17,194.4Z" transform="translate(1200.438 26748.041)" fill="#ffb6c8"/>
    <g id="Grupo_1139420" data-name="Grupo 1139420" transform="translate(-157.779 27199.775)">
      <g id="Grupo_1104405" data-name="Grupo 1104405" transform="translate(0 0)">
        <path id="Trazado_906687" data-name="Trazado 906687" d="M495.353,49.439c-.32-.038-.678-.056-1-.094a6.082,6.082,0,0,1,2.412-.865,43.339,43.339,0,0,0-7.689.846,21.086,21.086,0,0,0-6.219,2.144,50.362,50.362,0,0,0-11.515,7.768c-2.563.865-4.485,2.558-4.3,3.781s2.412,1.5,4.976.64a10.726,10.726,0,0,1,1.753-.207,54.194,54.194,0,0,0,14.172-1.091c-1.036.038-2.13.056-3.166.094.754-.132,1.489-.263,2.243-.433q.566-.113,1.131-.282c.339-.094.867-.282,1-.3a1.443,1.443,0,0,0-.6-.489c1.244.414,4.353-.226,7.256-1.317a29.986,29.986,0,0,0,4.391-2.069c.735-.414,1.282-.79,2.017-1.279a17.872,17.872,0,0,0,1.866-1.448c.264-.245.509-.489.716-.715l.773-.771a4.876,4.876,0,0,0,.961-1.392,1.315,1.315,0,0,0-.6-1.843,4.585,4.585,0,0,0-1.432-.451c-.584-.094-1.338-.113-1.885-.226a17.54,17.54,0,0,0-2.092-.113c-.735.019-1.527.038-2.356.056,0,0-2.884.113-2.827.075Z" transform="translate(-219.126 -3.847)" fill="#a7f7dd"/>
        <path id="Trazado_906688" data-name="Trazado 906688" d="M477.508,48.982c1.131.056,2.808-.019,4.335-.038,1.659-.038,3.3-.075,4.938-.132l.735.207-.735-1.712v.132a23.038,23.038,0,0,1-4.9,3.235c-1.64.846-3.392,1.73-5.07,2.577l-1.338.809a2.1,2.1,0,0,0-.942,1.43c-.038.959,1.489,1.279,3.392.7l1.093-.339a6.3,6.3,0,0,1,.81-.169,21.234,21.234,0,0,0,4.014-.621c.829-.188,1.677-.414,2.525-.658.886-.263,1.772-.564,2.62-.884a31.231,31.231,0,0,0,5.126-2.464,18.228,18.228,0,0,0,4.316-3.536c.132-.15.151-.263.264-.414a1.194,1.194,0,0,0,.207-.414.521.521,0,0,0-.32-.545,3.24,3.24,0,0,1-1.225-.865c-.075-.621-1.036-.846-2.507-.734-.358.019-.773.075-1.169.132a7.6,7.6,0,0,0-1.074.132,18.425,18.425,0,0,0-2.412.564c-3.166.9-5.3,2.483-5.164,3.743-.49.056-1.018.113-1.508.169l.98-.752c-.49,1.26-2.978,2.238-4.486,3.273-.188.056-1.866.884-1.941.922.056-.019,1.979,2.389,1.979,2.389l.415-.339c.245-.169.6-.376.584-.376-.132-.094-.4-.207-.377-.207a60.073,60.073,0,0,1,7.878-4.5l4.165-2.426c1.131-.959.716-1.674-.848-1.674,0,0-.565.038-1.15.056h-1.055c.339.019.641.056.98.075-2.205.376-4.467.771-6.709,1.166-2.092.339-4.2.677-5.937.846a1.348,1.348,0,0,0-1.187.658c-.113.32.188.583.7.564Z" transform="translate(-212.494 -7.34)" fill="#a7f7dd"/>
        <g id="Grupo_1104404" data-name="Grupo 1104404">
          <path id="Trazado_906689" data-name="Trazado 906689" d="M483.459,44.933c.415-.019.829-.056,1.282-.113a6.153,6.153,0,0,0,1.621-.489c.283-.245.433-.376.509-.451a16.134,16.134,0,0,1-1.941.207c-1.206.038-1.658.489-1.47.846Z" transform="translate(-204.631 -7.899)" fill="#a7f7dd"/>
          <path id="Trazado_906690" data-name="Trazado 906690" d="M485.25,43.96c.509-.075.867-.113.867-.113a6.135,6.135,0,0,1-.622-.038.616.616,0,0,1-.151.075l-.094.075Z" transform="translate(-203.01 -7.961)" fill="#a7f7dd"/>
          <path id="Trazado_906691" data-name="Trazado 906691" d="M414.853,81.4q-9.159,2.793-18.3,5.718L378.441,93c-.4.132-.7.376-.66.545.038.15.4.188.773.056l18.093-5.869q9.131-2.906,18.281-5.7c.415-.132.7-.376.7-.564-.038-.169-.377-.226-.754-.113Z" transform="translate(-298.085 25.065)" fill="#a7f7dd"/>
          <path id="Trazado_906692" data-name="Trazado 906692" d="M347.646,90.214c.226-.245.151-.414-.189-.414a1.631,1.631,0,0,0-.961.414c-.189.207-.094.414.188.395a1.457,1.457,0,0,0,.942-.414Z" transform="translate(-325.846 32.554)" fill="#a7f7dd"/>
          <path id="Trazado_906693" data-name="Trazado 906693" d="M354.56,133.637a31.367,31.367,0,0,0,4.3-2.8,1.963,1.963,0,0,1,.792-.3c-.207-.226.019-.6.584-.94,5.5-3.4,11.383-6.734,17.433-9.687,6.05-2.972,12.25-5.85,18.375-8.784a1.491,1.491,0,0,1,.3-.828,7.57,7.57,0,0,1,4.127-2.5l1.432-.32c5.692-1.618,11.364-3.216,17.037-4.834a18.478,18.478,0,0,1,3.656-1.956c4.448-2.539,8.933-5.022,13.569-7.373-.377-.075-.641-.226-.716-.47-.113-.621.848-1.448,2.186-1.9l1.979-.752-5.861,1.58a3.328,3.328,0,0,1-.792.169q-3.138,1.072-6.332,2.314c-9.235,3.593-18.206,7.561-26.856,11.7-8.669,4.157-17.113,8.69-25.443,13.167a1.715,1.715,0,0,1-1.018.32c-.226-.075-.264-.263.038-.47,9.989-6.941,18.319-14.483,30.173-20.8q10.6-5.727,21.165-11.1c7.049-3.593,14.229-7.072,21.353-10.571,7.784-2.878,15.209-5.944,22.333-9.367,7.162-3.386,14.418-6.79,21.711-10.646,5.013-2.558,9.819-4.947,14.889-7.392q7.915-3.781,15.812-7.373c10.592-4.759,20.882-9.593,32.209-13.806,8.2-3.687,16.773-4.213,19.092-1.223,1.376,1.825.226,4.5-2.676,7.129l2.035-.734,3.336-.809a17.421,17.421,0,0,1,8.066-.339l2.733.583a24.064,24.064,0,0,0,3.223,1.035c1.3.3,2.808.508,3.92.884a22.878,22.878,0,0,1,6.182,2.577l-.226,1.26.66.15c2.073.263,3.656.94,4.391,1.919l.226,1.373a8.877,8.877,0,0,1-1.546,5.116,2.354,2.354,0,0,1-.038,1.787c1.7.978,2.752,2.22,2.167,4.082.9.15.942.771.113,1.392a4.255,4.255,0,0,1-1.055.527h0a9.029,9.029,0,0,0,1.395.489c.829-.113,1.3-.169,1.3-.169l4.146-.771a13.81,13.81,0,0,1,3.129.169c2.978,1.524,3.129,1.43,3.129,2.577a5.708,5.708,0,0,1-.339.47c1.018-.226,1.583-.339,1.941-.414.584-.226.886-.32,1.338-.489,1-.3,1.715-.47,1.715-.47.434.414.434.414,1.112.245a.52.52,0,0,1,.377.282c-1.508,1.636-1.583,1.618-1.527,1.825a11.037,11.037,0,0,1-.98.865c-1.508.865-2.111,1.2-2.356,1.354-.848-.075-1.47-.132-1.941-.169-.4-.094-.66-.15-.829-.188-.339-.075-.358-.075-.358-.075l-.32.658-.754-.47.509.489L613,60.863l1.489.075c-1.357.339-2.035.508-2.507.621a11.871,11.871,0,0,0-1.187.357,10.01,10.01,0,0,0-1.96.7,1.53,1.53,0,0,1,.188.3c-2.62.527-2.582.508-5.051.959a4.423,4.423,0,0,1-.66-.245,1.688,1.688,0,0,1-1.018.527l-1.206.245-.17.15v.038c-.283.207-.49.357-.7.527-.132.113-.151.113-.151.113h0c-.6.433-1.451,1.072-3.75,2.746a19.769,19.769,0,0,1-2.054.47c.226,0,.452.038.66.038.434.056.283.7.49.658q2.007-.31,4.014-.734l1.018-.226.773-.075c.528-.056.961-.113,1.7-.245,2.582-.414,5.6-1,8.707-1.618,1.112-.414,2.262-.433,2.563-.056.283.4-.4,1.035-1.545,1.448a87.749,87.749,0,0,1-8.575,4.232c-1.168.527-2.356,1.072-3.543,1.6-1.451.64-2.921,1.26-4.41,1.825A98.056,98.056,0,0,1,578,80.237q-4.467,1.3-8.99,2.633l.528.094-2.412.47-.245.075,2.092.282,1.3-.188c6.9-2.2,13.569-3.1,20.392-4.665,3.675-.846,6.992-1.091,10.5-1.693.867-.282,1.564-.169,1.6.263.038.414-.66.978-1.508,1.241-10.7,4.89-23.351,9.066-33.453,9.273a22.6,22.6,0,0,1-5.9,1.43h-.094c.528.113,1.036.188,1.564.263-1.583.451-2.657.15-4.127.47l.942.828c-7.689,2.52-15.586,6.264-23.125,7.712-.283.094-.565.169-.829.245a46.01,46.01,0,0,1-8.82,5.605c1.263-.395,2.469-.79,3.732-1.2a45.737,45.737,0,0,1-7.765,4.176c-7.859,3.216-17.245,5.455-22.484,4.289l-22.5,9.386q-11.223,4.458-22.371,9.123c-.754.32-1.527.339-1.79.075-.188-.282.207-.771.961-1.091,5.2-2.52,10.5-4.966,15.812-7.336l8.029-3.5,8.085-3.63c-9.386,3.16-18.79,5.869-28.232,9.254l-3.562,1.467a22.037,22.037,0,0,1-3.6,1.091c-11.968,4.251-23.37,8.126-35.149,13.242-10.139,4.345-18.677,8.445-28.477,13.148-6.785,3.4-13.155,6.753-19.619,9.875-3.26,1.524-6.389,3.179-9.593,4.721-3.2,1.561-6.464,3.066-9.838,4.514-1.753.865-3.656,1-4.222.3s.415-1.975,2.167-2.84c26.932-14.859,54.919-28.271,86.336-38.992,3.392-1.166,6.747-2.295,10.064-3.442a1.074,1.074,0,0,1-.207-.3,1.641,1.641,0,0,1,.415-1.5c-3.788,1.241-7.652,2.408-11.534,3.536a280.184,280.184,0,0,1-31.643,12.96c-7.708,2.5-15.039,3.95-22.3,5.869-8.594,3.988-17.188,7.938-25.65,12.207a1.09,1.09,0,0,1-.9.188c-.189-.094-.075-.339.264-.545,2.789-1.787,5.635-3.517,8.537-5.229,2.959-1.636,5.974-3.216,8.99-4.8-1.206-.113-2.054-.527-2.262-1.26-.226-.771.3-1.73,1.3-2.671l-4.353,1.655c-.9.32-1.715.32-1.847-.056-.151-.414.452-.959,1.3-1.3q8.877-3.386,17.716-6.771,10.46-4.571,21.014-8.953a4.787,4.787,0,0,1-2.714-1.016h0c-1.112.414-2.205.846-3.3,1.26q-7.293,3.583-14.738,7c-4.919,2.351-9.876,4.684-14.87,6.941-2.507,1.11-5.013,2.22-7.539,3.31-2.507,1.129-4.994,2.276-7.5,3.4q-7.52,3.386-15.209,6.508c-.4.169-.792.188-.867,0-.075-.169.17-.433.528-.583q9.273-3.781,18.338-7.919h-.038c-.283,0-.415-.169-.188-.395a1.648,1.648,0,0,1,.961-.414c.339,0,.377.188.188.395,5.635-2.558,11.346-4.947,16.905-7.58q8.368-3.922,16.679-7.844l-7.934,3.047-7.878,3.141c-5.258,2.069-10.535,4.082-15.869,5.981-1.037.7-2.092,1.392-3.147,2.088a1.282,1.282,0,0,1-.942.15c-.151-.094,0-.376.32-.545l.886-.564c-2,.771-3.807.715-4.146-.15-.264-.94,1.131-2.351,3.2-3.2,5.428-2.5,10.969-4.665,16.491-6.922l1.734-.865,1.64-1.129c-8.745,3.085-17.6,5.85-26.215,9.16-.716.32-1.451.339-1.6.038s.32-.809,1.055-1.147c7.181-3.931,14.606-7.355,22.088-10.815,7.463-3.517,15.077-6.677,22.71-9.819,4.58-3.254,9.2-6.508,13.909-9.706-.66.226-1.338.451-2,.658-8.443,3.01-15.906,6.941-23.219,10.834-7.331,3.894-14.474,8.182-22.427,11.737-.4.207-.792.188-.9.056s.113-.414.509-.564c7.708-3.593,14.418-7.881,21.975-11.737,6.257-3.2,12.231-6.207,17.961-9.5-6.163,2.483-12.1,5.248-17.98,8.069-5.88,2.765-11.685,5.869-17.678,8.615a3,3,0,0,1-1.489.395.519.519,0,0,1-.207.339,43.576,43.576,0,0,1-4.523,2.934,1.144,1.144,0,0,1-.98.188c-.226-.075-.094-.3.245-.546Zm221.2-64.855c.151.019.264.056.377.075-.358.019-.754.056-1.187.094l-1.979-.715S574.367,68.519,575.761,68.782Zm16.905-11.888h0c.641.226,1.112.395,1.112.395-.452-.169-.81-.3-1.093-.395ZM477.59,116.822a184.894,184.894,0,0,1,20.053-6.564l-4.674,2.088C487.88,113.906,482.754,115.43,477.59,116.822Zm112.4-47.945a22.49,22.49,0,0,1-5.051-.734,20.826,20.826,0,0,1-3.355,1.486c-3.166,1.11-6.276,2.107-9.367,3.028.565.3-.17.527-.528.715s-.716.357-1.093.545q4.975-1.326,10.064-2.652c3.072-.79,6.332-1.825,9.31-2.389Zm21.994-9.348a2.426,2.426,0,0,1,.358.075l-.471.9s.038-.414.094-.978ZM612.738,58c-.188.038-.377.056-.584.094C612.267,57.779,612.474,57.816,612.738,58Zm-5.032.621a2.918,2.918,0,0,0,.754.188Zm-9.2-19.411-.7,3.969.886-3.875Z" transform="translate(-335.493 -24.751)" fill="#a7f7dd"/>
        </g>
      </g>
      <g id="Grupo_1104407" data-name="Grupo 1104407" transform="translate(64.072 95.53)">
        <path id="Trazado_906694" data-name="Trazado 906694" d="M374.24,110.734a4.906,4.906,0,0,1,.49.056,1.932,1.932,0,0,1-1,.545c4.825,0,9.687-3.517,12.326-6.865,1.263-.489,2.13-1.524,1.922-2.314s-1.413-1.016-2.676-.527a5.691,5.691,0,0,1-.9.094,22.528,22.528,0,0,0-7.444.376h1.7a9.81,9.81,0,0,0-2.318.6l.452.282c-2.808.094-5.918,1.919-6.954,4.063s.377,3.818,3.185,3.705h1.263Z" transform="translate(-369.49 -52.78)" fill="#a7f7dd"/>
        <path id="Trazado_906695" data-name="Trazado 906695" d="M379.8,109.811c-1.64.169-3.242.263-4.844.357l-.377-.132.584,1.091v-.094c.867-1.524,2.827-2.878,4.674-4.025l.622-.47a1.178,1.178,0,0,0,.358-.884c-.075-.621-.9-.846-1.866-.527l-1.093.376c-2.846.508-6.879,2.295-7.482,4.853-.132.583.4,1.016.7,1.5.226.79,1.47,1.016,2.77.489s2.167-1.58,1.922-2.389c.245-.038.49-.094.716-.132l-.4.508c.075-.809,1.187-1.486,1.9-2.22l1.225-.771-1.508-1.411-.584.545a1.406,1.406,0,0,1,.226.132A32.441,32.441,0,0,1,374,109.642l-1.489,1.448c-.339.545-.075,1.016.584,1.091h.961a3.666,3.666,0,0,1-.452-.038c2-.433,4.014-1.053,5.993-1.448a.921.921,0,0,0,.716-.508c.056-.226-.151-.376-.49-.32Z" transform="translate(-368.721 -49.6)" fill="#a7f7dd"/>
        <g id="Grupo_1104406" data-name="Grupo 1104406" transform="translate(2.658)">
          <path id="Trazado_906696" data-name="Trazado 906696" d="M372.595,109.21a2.237,2.237,0,0,0-1.112.207,2.265,2.265,0,0,0-.113.226c.189,0,.452.019.7.038.509.038.641-.226.509-.47Z" transform="translate(-370.484 -45.876)" fill="#a7f7dd"/>
          <path id="Trazado_906697" data-name="Trazado 906697" d="M371.512,109.44h-.3a1.483,1.483,0,0,1,.226.075l.038-.038.019-.038Z" transform="translate(-370.626 -45.673)" fill="#a7f7dd"/>
          <path id="Trazado_906698" data-name="Trazado 906698" d="M412.909,92.088q8.707-3.358,17.282-7.016c.189-.075.32-.226.283-.339-.038-.094-.226-.132-.4-.038-5.748,2.408-11.477,4.759-17.282,7-.189.075-.32.226-.283.339s.207.15.4.075Z" transform="translate(-334.093 -67.52)" fill="#a7f7dd"/>
          <path id="Trazado_906699" data-name="Trazado 906699" d="M437.721,84.036c-.094.15-.038.245.132.263a.626.626,0,0,0,.471-.226.167.167,0,0,0-.132-.263.562.562,0,0,0-.452.226Z" transform="translate(-311.827 -68.252)" fill="#a7f7dd"/>
          <path id="Trazado_906700" data-name="Trazado 906700" d="M499.471,100.313a13.9,13.9,0,0,0-1.922,1.636.759.759,0,0,1-.377.169c.132.15.057.376-.207.583-4.938,4.025-10.7,7.392-16.283,10.891a1.325,1.325,0,0,1-.057.527,2.9,2.9,0,0,1-1.828,1.542l-.7.188c-2.714.959-5.409,1.919-8.123,2.878a6.488,6.488,0,0,1-1.64,1.2c-2,1.58-4.014,3.122-6.125,4.571a.535.535,0,0,1,.415.32c.132.4-.283.922-.9,1.185l-.923.451,2.827-.959a1.015,1.015,0,0,1,.4-.094c1-.433,1.979-.9,2.978-1.411a178.035,178.035,0,0,0,23.841-15.1.587.587,0,0,1,.49-.169.169.169,0,0,1,.038.3c-4.335,4.27-7.689,8.822-13,12.753-6.314,4.7-12.646,9.123-19.393,13.374-7.463,3.48-14.078,7.524-21.523,11.7C427.421,152.472,417.6,157.1,407.406,161.8c-3.694,2.031-7.9,2.05-9.367.056-.886-1.223-.565-2.878.622-4.458l-.942.395-1.6.4a7.083,7.083,0,0,1-4.033-.056l-1.451-.47c-2.149-1.147-5.013-1.618-6.954-2.972l-.057-.809-.358-.075a3.641,3.641,0,0,1-2.488-1.129l-.283-.884a6.7,6.7,0,0,1,.132-3.329,1.964,1.964,0,0,1-.207-1.147,2.842,2.842,0,0,1-1.621-2.6c-.471-.094-.565-.489-.226-.884a1.726,1.726,0,0,1,.452-.357h0a7.847,7.847,0,0,0-.754-.3c-.4.075-.622.132-.622.132q-1.018.263-1.9.508a4.592,4.592,0,0,1-1.451-.188,4.461,4.461,0,0,1-1.6-1.862,2.233,2.233,0,0,1,.075-.263c-.716.056-.773.056-.98.075a2.249,2.249,0,0,1-.415-.113,1.012,1.012,0,0,0-.339-.414.752.752,0,0,1-.132-.245,1.636,1.636,0,0,0,.151-.658,1.26,1.26,0,0,1,.113-.282c.358-.3.509-.414.565-.47,1.263.508,1.282.508,1.282.508l.057-.395.377.32-.283-.339.547.038-.66-.113a11.335,11.335,0,0,0,1.527-.545,3.447,3.447,0,0,0,.829-.433.628.628,0,0,1-.132-.188q1.187-.357,2.356-.7a3.706,3.706,0,0,1,.358.132.759.759,0,0,1,.471-.376l.6-.188.094-.113v-.038c.17-.169.283-.263.415-.395l.075-.094h0c.283-.263.678-.677,1.772-1.73a7.482,7.482,0,0,1,1.036-.245l-.358-.038c-.226-.038-.207-.451-.32-.433a60.046,60.046,0,0,0-8.2,2.05c-.452.245-.961.245-1.15,0s.038-.658.49-.9c4.448-4.157,10.95-6.809,16.962-7.806l4.467-1.448-.283-.075,1.225-.245.132-.038-1.112-.226-.66.075c-3.411,1.241-6.841,1.636-10.29,2.483-1.866.451-3.581.527-5.39.828-.434.15-.81.075-.886-.207-.057-.263.264-.6.678-.771,5.22-2.859,11.553-5.267,16.811-5.135a7.271,7.271,0,0,1,2.978-.677h.057l-.829-.245a20.622,20.622,0,0,1,2.13-.094l-.565-.583c3.845-1.2,7.689-3.179,11.515-3.705.151-.056.283-.075.415-.113a17.456,17.456,0,0,1,4.184-3.122c-.622.188-1.225.376-1.828.564a16.3,16.3,0,0,1,3.619-2.2c3.656-1.58,8.2-2.332,10.95-1.392,6.917-3.367,13.89-6.79,20.712-10.5.358-.188.735-.207.9-.019.132.188,0,.489-.358.7-4.712,3.028-9.649,5.812-14.606,8.445,4.448-1.561,8.9-3.254,13.325-5.191l1.64-.865a8.979,8.979,0,0,1,1.715-.658c5.616-2.577,10.969-4.928,16.453-8.069,4.674-2.709,8.726-5.135,13.306-8.032,6.408-4.063,12.213-7.844,18.96-10.966.867-.47,1.866-.489,2.224,0,.339.47-.075,1.26-.942,1.73-13.324,8.126-26.234,16.458-41.048,23-1.6.7-3.166,1.392-4.749,2.069a.95.95,0,0,1,.094,1.147c1.79-.752,3.619-1.448,5.484-2.125A92.277,92.277,0,0,1,475.1,93.805a104.143,104.143,0,0,1,10.912-3.329c4.108-2.295,8.16-4.665,12.326-6.922a.452.452,0,0,1,.471-.075c.113.075.057.226-.094.339-2.657,2.013-5.447,3.894-8.311,5.756a1.5,1.5,0,0,1,1.282.884,1.829,1.829,0,0,1-.415,1.674l2.092-.922c.434-.188.867-.15.961.094.113.263-.151.6-.547.79-2.846,1.279-5.673,2.539-8.519,3.8q-4.891,2.737-9.838,5.38a2.686,2.686,0,0,1,1.508.7h0l1.545-.752a194.56,194.56,0,0,1,28.439-15.349c.188-.094.4-.075.452.038s-.057.263-.226.339c-3.016,1.3-5.993,2.69-8.914,4.138h0a.156.156,0,0,1,.132.263.63.63,0,0,1-.471.226c-.17,0-.207-.132-.132-.263-5.447,2.727-10.724,5.737-15.831,8.916,4.975-2.445,9.989-4.834,15.115-6.941l1.47-1.166a.541.541,0,0,1,.471-.056c.075.075.019.245-.113.339l-.415.32c.98-.4,1.922-.282,2.167.3.226.6-.4,1.448-1.395,1.881q-3.9,2-7.821,3.856l-.81.489-.735.677c4.2-1.674,8.424-3.292,12.627-4.872.339-.169.716-.132.829.056.094.207-.094.508-.452.677-6.785,4.138-13.8,8.032-20.92,11.775-2,1.975-4,3.988-6.012,5.981l.942-.395c7.916-3.668,13.494-9.273,20.92-13.336a.359.359,0,0,1,.452,0c.075.094,0,.263-.207.339-3.581,2.069-6.615,4.514-10.045,6.828-2.846,1.919-5.56,3.743-8.1,5.718,5.729-2.934,10.837-6.621,16.415-9.781a1.084,1.084,0,0,1,.716-.207.258.258,0,0,1,.075-.207,16.487,16.487,0,0,1,2.017-1.73.476.476,0,0,1,.49-.094c.113.056.075.188-.075.339ZM392.1,134.829s-.132-.038-.207-.056c.189,0,.377,0,.6-.019l1.093.508S392.856,135.054,392.1,134.829Zm-7.614,7.129h0c-.358-.169-.622-.282-.622-.282Q384.234,141.845,384.488,141.957Zm54-33.124a59,59,0,0,1-9.5,3.423l2.167-1.147C433.565,110.3,436.015,109.586,438.484,108.834ZM384.7,134.4a11.013,11.013,0,0,1,2.714.6,9.342,9.342,0,0,1,1.6-.865c1.545-.621,3.072-1.185,4.58-1.674-.32-.207.038-.339.207-.451l.509-.32c-1.64.47-3.3.94-4.994,1.43-1.527.414-3.129,1-4.636,1.279Zm-10.328,6.019-.189-.056.094-.564s.038.263.075.621Zm-.132.959.245-.038C374.481,141.544,374.368,141.506,374.236,141.374Zm2.28-.357a2.693,2.693,0,0,0-.4-.113Zm7.105,12.32-.17-2.558.056,2.5Z" transform="translate(-370.9 -75.539)" fill="#a7f7dd"/>
        </g>
      </g>
    </g>
  </g>
</svg>
