<svg xmlns="http://www.w3.org/2000/svg" width="58.527" height="45.66" viewBox="0 0 58.527 45.66">
  <g id="social-network_6432336" transform="translate(-1 -8.03)">
    <g id="Grupo_1132644" data-name="Grupo 1132644" transform="translate(1 8.03)">
      <g id="Grupo_1132624" data-name="Grupo 1132624">
        <g id="Grupo_1132606" data-name="Grupo 1132606" transform="translate(3.201 0.914)">
          <path id="Trazado_933120" data-name="Trazado 933120" d="M21.784,13.621a4.861,4.861,0,0,1-4.9,4.819h-7.1c-3.192,0-5.286-2.1-5.286-4.7V10.246A1.222,1.222,0,0,1,5.716,9.03H17.074a4.7,4.7,0,0,1,4.71,4.591Z" transform="translate(-4.5 -9.03)" fill="#5e7588"/>
        </g>
        <g id="Grupo_1132607" data-name="Grupo 1132607" transform="translate(7.426 0.924)">
          <path id="Trazado_933121" data-name="Trazado 933121" d="M20.807,10.412A4.693,4.693,0,0,0,17.478,9.04H9.12a5.8,5.8,0,0,0,5.8,5.8h7.115a4.412,4.412,0,0,0,.146-1.207,4.718,4.718,0,0,0-1.372-3.219Z" transform="translate(-9.12 -9.04)" fill="#5e7588"/>
        </g>
        <g id="Grupo_1132608" data-name="Grupo 1132608" transform="translate(7.426 0.924)" opacity="0.3">
          <path id="Trazado_933122" data-name="Trazado 933122" d="M20.807,10.412A4.693,4.693,0,0,0,17.478,9.04H9.12a5.8,5.8,0,0,0,5.8,5.8h7.115a4.412,4.412,0,0,0,.146-1.207,4.718,4.718,0,0,0-1.372-3.219Z" transform="translate(-9.12 -9.04)" fill="#fff"/>
        </g>
        <g id="Grupo_1132609" data-name="Grupo 1132609" transform="translate(7.435 0.924)" opacity="0.3">
          <path id="Trazado_933123" data-name="Trazado 933123" d="M22.18,13.631a4.412,4.412,0,0,1-.146,1.207,2.114,2.114,0,0,1-1.884-1.2,4.687,4.687,0,0,0-.878-1.225,4.739,4.739,0,0,0-3.329-1.381H11.2A2.035,2.035,0,0,1,9.13,9.058V9.04h8.358a4.685,4.685,0,0,1,4.691,4.591Z" transform="translate(-9.13 -9.04)" fill="#fff"/>
        </g>
        <g id="Grupo_1132610" data-name="Grupo 1132610" transform="translate(2.286)">
          <path id="Trazado_933124" data-name="Trazado 933124" d="M16.8,19.269H9.709c-3.539,0-6.209-2.414-6.209-5.615V10.161A2.133,2.133,0,0,1,5.631,8.03H16.989a5.607,5.607,0,0,1,5.624,5.478,5.479,5.479,0,0,1-1.591,3.969A5.919,5.919,0,0,1,16.8,19.269ZM5.631,9.868a.3.3,0,0,0-.3.3v3.493c0,2.195,1.838,3.786,4.38,3.786H16.8a4.115,4.115,0,0,0,2.917-1.235,3.638,3.638,0,0,0,1.07-2.643,3.818,3.818,0,0,0-1.107-2.588A3.778,3.778,0,0,0,17,9.877H5.631Z" transform="translate(-3.5 -8.03)"/>
        </g>
        <g id="Grupo_1132611" data-name="Grupo 1132611" transform="translate(0.914 20.576)">
          <path id="Trazado_933125" data-name="Trazado 933125" d="M23.865,35.075v9.547H2V35.075a3.21,3.21,0,0,1,2.369-3.091l5.4-1.454h6.319l5.4,1.454A3.2,3.2,0,0,1,23.865,35.075Z" transform="translate(-2 -30.53)" fill="#f95d68"/>
        </g>
        <g id="Grupo_1132612" data-name="Grupo 1132612" transform="translate(8.258 20.576)" opacity="0.3">
          <path id="Trazado_933126" data-name="Trazado 933126" d="M22.183,31.984l-5.4-1.454H10.46l-.43.119a9.9,9.9,0,0,0,9.9,9.9h4.618V35.075A3.2,3.2,0,0,0,22.183,31.984Z" transform="translate(-10.03 -30.53)" fill="#fff"/>
        </g>
        <g id="Grupo_1132613" data-name="Grupo 1132613" transform="translate(0 19.67)">
          <path id="Trazado_933127" data-name="Trazado 933127" d="M15.623,45.452H1.914A.917.917,0,0,1,1,44.537V34.99a4.111,4.111,0,0,1,3.045-3.969l5.4-1.454a1,1,0,0,1,.238-.027H16a1.054,1.054,0,0,1,.238.027l2.689.722a.918.918,0,0,1-.476,1.774l-2.57-.7H9.8L4.512,32.8A2.264,2.264,0,0,0,2.829,34.99v8.633H15.623a.914.914,0,1,1,0,1.829Z" transform="translate(-1 -29.54)"/>
        </g>
        <g id="Grupo_1132614" data-name="Grupo 1132614" transform="translate(8.541 17.668)">
          <path id="Trazado_933128" data-name="Trazado 933128" d="M16.952,27.359v3.877a3.306,3.306,0,0,1-6.612,0V27.35Z" transform="translate(-10.34 -27.35)" fill="#ffab03"/>
        </g>
        <g id="Grupo_1132615" data-name="Grupo 1132615" transform="translate(8.541 17.677)" opacity="0.3">
          <path id="Trazado_933129" data-name="Trazado 933129" d="M16.952,27.36v3.877a3.277,3.277,0,0,1-.283,1.344,3.206,3.206,0,0,1-1,.155,3.31,3.31,0,0,1-3.3-3.31V27.369l-2.03-.009Z" transform="translate(-10.34 -27.36)" fill="#fff"/>
        </g>
        <g id="Grupo_1132616" data-name="Grupo 1132616" transform="translate(7.627 16.753)">
          <path id="Trazado_933130" data-name="Trazado 933130" d="M13.556,35.367A4.215,4.215,0,0,1,9.34,31.151V27.274a.917.917,0,0,1,.914-.914l6.612-.009a.921.921,0,0,1,.649.265.905.905,0,0,1,.265.649v3.887a4.225,4.225,0,0,1-4.225,4.216Zm-2.387-7.179v2.963a2.35,2.35,0,0,0,.7,1.692,2.393,2.393,0,0,0,4.079-1.692V28.188Z" transform="translate(-9.34 -26.35)"/>
        </g>
        <g id="Grupo_1132617" data-name="Grupo 1132617" transform="translate(9.995 24.289)" opacity="0.3">
          <path id="Trazado_933131" data-name="Trazado 933131" d="M11.93,34.59a3.269,3.269,0,0,0,1.847.567A3.291,3.291,0,0,1,11.93,34.59Z" transform="translate(-11.93 -34.59)" fill="#fff"/>
        </g>
        <g id="Grupo_1132618" data-name="Grupo 1132618" transform="translate(5.752 5.816)">
          <path id="Trazado_933132" data-name="Trazado 933132" d="M19.48,17.005V21.56a6.1,6.1,0,0,1-12.19,0V14.39a8.9,8.9,0,0,0,6.3,2.615Z" transform="translate(-7.29 -14.39)" fill="#ffab03"/>
        </g>
        <g id="Grupo_1132619" data-name="Grupo 1132619" transform="translate(16.708 16.36)" opacity="0.3">
          <path id="Trazado_933133" data-name="Trazado 933133" d="M19.27,26.222c.073-.1.146-.2.21-.3C19.416,26.021,19.343,26.121,19.27,26.222Z" transform="translate(-19.27 -25.92)" fill="#fff"/>
        </g>
        <g id="Grupo_1132620" data-name="Grupo 1132620" transform="translate(8.55 7.718)" opacity="0.3">
          <path id="Trazado_933134" data-name="Trazado 933134" d="M19.742,21.747a6.044,6.044,0,0,1-1.024,3.374,5.986,5.986,0,0,1-2.286.439,6.073,6.073,0,0,1-6.081-6.1V16.47a8.873,8.873,0,0,0,3.512.722h5.889v4.554Z" transform="translate(-10.35 -16.47)" fill="#fff"/>
        </g>
        <g id="Grupo_1132621" data-name="Grupo 1132621" transform="translate(4.838 4.907)">
          <path id="Trazado_933135" data-name="Trazado 933135" d="M13.295,28.489a7.009,7.009,0,0,1-7-7.014V14.3a.9.9,0,0,1,.567-.841.92.92,0,0,1,1,.2,8.04,8.04,0,0,0,5.661,2.35H19.4a.917.917,0,0,1,.914.914v4.554a7.033,7.033,0,0,1-7.023,7ZM8.119,16.225v5.249a5.185,5.185,0,0,0,10.37,0v-3.64H13.514A9.948,9.948,0,0,1,8.119,16.225Z" transform="translate(-6.29 -13.396)"/>
        </g>
        <g id="Grupo_1132623" data-name="Grupo 1132623" transform="translate(4.646 29.455)">
          <g id="Grupo_1132622" data-name="Grupo 1132622">
            <path id="Trazado_933136" data-name="Trazado 933136" d="M6.994,46.367a.917.917,0,0,1-.914-.914v-4.3a.914.914,0,1,1,1.829,0v4.3A.911.911,0,0,1,6.994,46.367Z" transform="translate(-6.08 -40.24)"/>
          </g>
        </g>
      </g>
      <g id="Grupo_1132643" data-name="Grupo 1132643" transform="translate(35.747)">
        <g id="Grupo_1132625" data-name="Grupo 1132625" transform="translate(2.286 0.914)">
          <path id="Trazado_933137" data-name="Trazado 933137" d="M59.874,13.621a4.861,4.861,0,0,1-4.9,4.819h-7.1c-3.192,0-5.286-2.1-5.286-4.7V10.246A1.222,1.222,0,0,1,43.806,9.03H55.164a4.7,4.7,0,0,1,4.71,4.591Z" transform="translate(-42.59 -9.03)" fill="#5e7588"/>
        </g>
        <g id="Grupo_1132626" data-name="Grupo 1132626" transform="translate(6.511 0.924)">
          <path id="Trazado_933138" data-name="Trazado 933138" d="M58.9,10.412A4.693,4.693,0,0,0,55.568,9.04H47.21a5.8,5.8,0,0,0,5.8,5.8h7.115a4.412,4.412,0,0,0,.146-1.207A4.718,4.718,0,0,0,58.9,10.412Z" transform="translate(-47.21 -9.04)" fill="#5e7588"/>
        </g>
        <g id="Grupo_1132627" data-name="Grupo 1132627" transform="translate(6.511 0.924)" opacity="0.3">
          <path id="Trazado_933139" data-name="Trazado 933139" d="M58.9,10.412A4.693,4.693,0,0,0,55.568,9.04H47.21a5.8,5.8,0,0,0,5.8,5.8h7.115a4.412,4.412,0,0,0,.146-1.207A4.718,4.718,0,0,0,58.9,10.412Z" transform="translate(-47.21 -9.04)" fill="#fff"/>
        </g>
        <g id="Grupo_1132628" data-name="Grupo 1132628" transform="translate(6.529 0.924)" opacity="0.3">
          <path id="Trazado_933140" data-name="Trazado 933140" d="M60.28,13.631a4.412,4.412,0,0,1-.146,1.207,2.114,2.114,0,0,1-1.884-1.2,4.687,4.687,0,0,0-.878-1.225,4.739,4.739,0,0,0-3.329-1.381H49.3A2.035,2.035,0,0,1,47.23,9.058V9.04h8.358a4.717,4.717,0,0,1,3.329,1.381,4.794,4.794,0,0,1,1.363,3.21Z" transform="translate(-47.23 -9.04)" fill="#fff"/>
        </g>
        <g id="Grupo_1132629" data-name="Grupo 1132629" transform="translate(1.381)">
          <path id="Trazado_933141" data-name="Trazado 933141" d="M54.9,19.269H47.8c-3.539,0-6.2-2.414-6.2-5.615V10.161A2.133,2.133,0,0,1,43.731,8.03H55.089a5.607,5.607,0,0,1,5.624,5.478,5.479,5.479,0,0,1-1.591,3.969A5.935,5.935,0,0,1,54.9,19.269Zm-11.166-9.4a.3.3,0,0,0-.3.3v3.493c0,2.195,1.838,3.786,4.371,3.786h7.1a4.115,4.115,0,0,0,2.917-1.235,3.638,3.638,0,0,0,1.07-2.643,3.818,3.818,0,0,0-1.107-2.588A3.778,3.778,0,0,0,55.1,9.877H43.731Z" transform="translate(-41.6 -8.03)"/>
        </g>
        <g id="Grupo_1132630" data-name="Grupo 1132630" transform="translate(0 20.576)">
          <path id="Trazado_933142" data-name="Trazado 933142" d="M61.955,35.075v9.547H40.09V35.075a3.21,3.21,0,0,1,2.368-3.091l5.4-1.454h6.319l5.4,1.454A3.2,3.2,0,0,1,61.955,35.075Z" transform="translate(-40.09 -30.53)" fill="#9acff7"/>
        </g>
        <g id="Grupo_1132631" data-name="Grupo 1132631" transform="translate(7.352 20.576)" opacity="0.3">
          <path id="Trazado_933143" data-name="Trazado 933143" d="M60.274,31.984l-5.4-1.454H48.56l-.43.119a9.9,9.9,0,0,0,9.9,9.9h4.609V35.075A3.2,3.2,0,0,0,60.274,31.984Z" transform="translate(-48.13 -30.53)" fill="#fff"/>
        </g>
        <g id="Grupo_1132632" data-name="Grupo 1132632" transform="translate(1.536 19.661)">
          <path id="Trazado_933144" data-name="Trazado 933144" d="M62.1,45.451H42.684a.914.914,0,0,1,0-1.829h18.5V34.989a2.281,2.281,0,0,0-1.692-2.2l-5.286-1.427H48.126l-2.57.7a.923.923,0,0,1-1.125-.649.912.912,0,0,1,.649-1.125l2.689-.722a1,1,0,0,1,.238-.027h6.319a1,1,0,0,1,.238.027l5.4,1.454a4.13,4.13,0,0,1,3.045,3.978v9.547a.911.911,0,0,1-.914.914Z" transform="translate(-41.77 -29.53)"/>
        </g>
        <g id="Grupo_1132633" data-name="Grupo 1132633" transform="translate(7.627 17.668)">
          <path id="Trazado_933145" data-name="Trazado 933145" d="M55.042,27.359v3.877a3.306,3.306,0,0,1-6.612,0V27.35Z" transform="translate(-48.43 -27.35)" fill="#ffab03"/>
        </g>
        <g id="Grupo_1132634" data-name="Grupo 1132634" transform="translate(7.627 17.677)" opacity="0.3">
          <path id="Trazado_933146" data-name="Trazado 933146" d="M55.042,27.36v3.877a3.278,3.278,0,0,1-.283,1.344,3.206,3.206,0,0,1-1,.155,3.31,3.31,0,0,1-3.3-3.31V27.369l-2.03-.009Z" transform="translate(-48.43 -27.36)" fill="#fff"/>
        </g>
        <g id="Grupo_1132635" data-name="Grupo 1132635" transform="translate(9.081 24.289)" opacity="0.3">
          <path id="Trazado_933147" data-name="Trazado 933147" d="M50.02,34.59a3.269,3.269,0,0,0,1.847.567A3.291,3.291,0,0,1,50.02,34.59Z" transform="translate(-50.02 -34.59)" fill="#fff"/>
        </g>
        <g id="Grupo_1132636" data-name="Grupo 1132636" transform="translate(6.721 16.753)">
          <path id="Trazado_933148" data-name="Trazado 933148" d="M51.656,35.367h0a4.217,4.217,0,0,1-4.216-4.216V27.264a.944.944,0,0,1,.265-.649.89.89,0,0,1,.649-.265l6.612.009a.917.917,0,0,1,.914.914v3.877a4.215,4.215,0,0,1-4.225,4.216Zm-2.4-7.188v2.963a2.391,2.391,0,0,0,4.783,0V28.179Z" transform="translate(-47.44 -26.35)"/>
        </g>
        <g id="Grupo_1132637" data-name="Grupo 1132637" transform="translate(4.838 5.816)">
          <path id="Trazado_933149" data-name="Trazado 933149" d="M57.57,17.005V21.56a6.1,6.1,0,0,1-12.19,0V14.39a8.9,8.9,0,0,0,6.3,2.615Z" transform="translate(-45.38 -14.39)" fill="#ffab03"/>
        </g>
        <g id="Grupo_1132638" data-name="Grupo 1132638" transform="translate(15.793 16.36)" opacity="0.3">
          <path id="Trazado_933150" data-name="Trazado 933150" d="M57.36,26.222c.073-.1.146-.2.21-.3C57.506,26.021,57.433,26.121,57.36,26.222Z" transform="translate(-57.36 -25.92)" fill="#fff"/>
        </g>
        <g id="Grupo_1132639" data-name="Grupo 1132639" transform="translate(7.636 7.718)" opacity="0.3">
          <path id="Trazado_933151" data-name="Trazado 933151" d="M57.832,21.747a6.044,6.044,0,0,1-1.024,3.374,5.987,5.987,0,0,1-2.286.439,6.073,6.073,0,0,1-6.081-6.1V16.47a8.873,8.873,0,0,0,3.512.722h5.889v4.554Z" transform="translate(-48.44 -16.47)" fill="#fff"/>
        </g>
        <g id="Grupo_1132640" data-name="Grupo 1132640" transform="translate(3.923 4.907)">
          <path id="Trazado_933152" data-name="Trazado 933152" d="M51.385,28.489a7.009,7.009,0,0,1-7-7.014V14.3a.9.9,0,0,1,.567-.841.916.916,0,0,1,1,.2,8.04,8.04,0,0,0,5.661,2.35h5.889a.917.917,0,0,1,.914.914v4.554a7.033,7.033,0,0,1-7.023,7ZM46.209,16.225v5.249a5.185,5.185,0,1,0,10.37,0v-3.64H51.6A9.872,9.872,0,0,1,46.209,16.225Z" transform="translate(-44.38 -13.396)"/>
        </g>
        <g id="Grupo_1132642" data-name="Grupo 1132642" transform="translate(16.305 29.455)">
          <g id="Grupo_1132641" data-name="Grupo 1132641">
            <path id="Trazado_933153" data-name="Trazado 933153" d="M58.834,46.367a.917.917,0,0,1-.914-.914v-4.3a.914.914,0,1,1,1.829,0v4.3A.911.911,0,0,1,58.834,46.367Z" transform="translate(-57.92 -40.24)"/>
          </g>
        </g>
      </g>
    </g>
    <g id="Grupo_1132664" data-name="Grupo 1132664" transform="translate(17.369 13.57)">
      <g id="Grupo_1132648" data-name="Grupo 1132648" transform="translate(3.704)">
        <g id="Grupo_1132645" data-name="Grupo 1132645" transform="translate(0.914 0.905)">
          <path id="Trazado_933154" data-name="Trazado 933154" d="M40.5,23.356v11.55H23.95V23.575A8.42,8.42,0,0,1,31.641,15.1,8.278,8.278,0,0,1,40.5,23.356Z" transform="translate(-23.95 -15.078)" fill="#4e6575"/>
        </g>
        <g id="Grupo_1132646" data-name="Grupo 1132646" transform="translate(8.816 0.917)" opacity="0.3">
          <path id="Trazado_933155" data-name="Trazado 933155" d="M41.241,24.619V23.357A8.259,8.259,0,0,0,32.59,15.1v4.28a5.239,5.239,0,0,0,5.24,5.24Z" transform="translate(-32.59 -15.091)" fill="#fff"/>
        </g>
        <g id="Grupo_1132647" data-name="Grupo 1132647">
          <path id="Trazado_933156" data-name="Trazado 933156" d="M40.417,35.736H23.864a.917.917,0,0,1-.914-.914V23.5a9.188,9.188,0,0,1,15.683-6.721,9.153,9.153,0,0,1,2.689,6.5V34.83A.9.9,0,0,1,40.417,35.736ZM24.779,33.907H39.5V23.271a7.368,7.368,0,0,0-7.883-7.352,7.5,7.5,0,0,0-6.84,7.572Z" transform="translate(-22.95 -14.088)"/>
        </g>
      </g>
      <g id="Grupo_1132663" data-name="Grupo 1132663" transform="translate(0 9.042)">
        <g id="Grupo_1132649" data-name="Grupo 1132649" transform="translate(0.914 14.718)">
          <path id="Trazado_933157" data-name="Trazado 933157" d="M43.859,45.054V55.525H19.9V45.054a3.5,3.5,0,0,1,2.6-3.384l5.926-1.6h6.923l5.917,1.6A3.486,3.486,0,0,1,43.859,45.054Z" transform="translate(-19.9 -40.07)" fill="#98cb66"/>
        </g>
        <g id="Grupo_1132650" data-name="Grupo 1132650" transform="translate(8.971 14.718)" opacity="0.3">
          <path id="Trazado_933158" data-name="Trazado 933158" d="M42.016,41.67,36.1,40.07H29.176l-.466.128A10.856,10.856,0,0,0,39.565,51.053h5.057v-6a3.5,3.5,0,0,0-2.606-3.384Z" transform="translate(-28.71 -40.07)" fill="#fff"/>
        </g>
        <g id="Grupo_1132651" data-name="Grupo 1132651" transform="translate(0 13.804)">
          <path id="Trazado_933159" data-name="Trazado 933159" d="M43.774,56.345H19.814a.917.917,0,0,1-.914-.914V44.968A4.432,4.432,0,0,1,22.174,40.7L28.1,39.1a1,1,0,0,1,.238-.027H35.26a1,1,0,0,1,.238.027l5.917,1.6a.918.918,0,1,1-.476,1.774l-5.8-1.564H28.456l-5.807,1.555a2.593,2.593,0,0,0-1.92,2.506v9.556h22.13V47.931a.914.914,0,1,1,1.829,0v7.508a.9.9,0,0,1-.914.905Z" transform="translate(-18.9 -39.07)"/>
        </g>
        <g id="Grupo_1132652" data-name="Grupo 1132652" transform="translate(9.849 12.039)">
          <path id="Trazado_933160" data-name="Trazado 933160" d="M35.77,37.14v3.585a3.05,3.05,0,1,1-6.1,0V37.14Z" transform="translate(-29.67 -37.14)" fill="#ffab03"/>
        </g>
        <g id="Grupo_1132653" data-name="Grupo 1132653" transform="translate(9.849 12.03)" opacity="0.3">
          <path id="Trazado_933161" data-name="Trazado 933161" d="M35.77,37.139v3.576a3.042,3.042,0,0,1-.256,1.235,2.993,2.993,0,0,1-.914.146,3.06,3.06,0,0,1-3.054-3.054v-1.9L29.67,37.13Z" transform="translate(-29.67 -37.13)" fill="#fff"/>
        </g>
        <g id="Grupo_1132654" data-name="Grupo 1132654" transform="translate(11.184 18.147)" opacity="0.3">
          <path id="Trazado_933162" data-name="Trazado 933162" d="M31.13,43.82a3.1,3.1,0,0,0,1.7.53A3.046,3.046,0,0,1,31.13,43.82Z" transform="translate(-31.13 -43.82)" fill="#fff"/>
        </g>
        <g id="Grupo_1132655" data-name="Grupo 1132655" transform="translate(8.925 11.124)">
          <path id="Trazado_933163" data-name="Trazado 933163" d="M32.629,44.608a3.977,3.977,0,0,1-3.969-3.969V37.054a.944.944,0,0,1,.265-.649.89.89,0,0,1,.649-.265l6.109.009a.917.917,0,0,1,.914.914v3.585a3.95,3.95,0,0,1-3.969,3.96Zm-2.14-6.639v2.67a2.14,2.14,0,0,0,4.28.009v-2.67Z" transform="translate(-28.66 -36.14)"/>
        </g>
        <g id="Grupo_1132656" data-name="Grupo 1132656" transform="translate(7.261 0.91)">
          <path id="Trazado_933164" data-name="Trazado 933164" d="M38.106,27.832v3.941a5.633,5.633,0,1,1-11.266-.009V27.832a5.532,5.532,0,0,1,.786-2.862,7.625,7.625,0,0,0,4.847,1.555,7.671,7.671,0,0,0,4.856-1.555,5.588,5.588,0,0,1,.777,2.862Z" transform="translate(-26.84 -24.97)" fill="#ffab03"/>
        </g>
        <g id="Grupo_1132657" data-name="Grupo 1132657" transform="translate(11.358 0.91)" opacity="0.3">
          <path id="Trazado_933165" data-name="Trazado 933165" d="M37.712,24.97a7.671,7.671,0,0,1-4.856,1.555A9.328,9.328,0,0,1,31.32,26.4v2.176a4.449,4.449,0,0,0,4.444,4.444h2.579a5.577,5.577,0,0,0,.146-1.244V27.832a5.588,5.588,0,0,0-.777-2.862Z" transform="translate(-31.32 -24.97)" fill="#fff"/>
        </g>
        <g id="Grupo_1132658" data-name="Grupo 1132658" transform="translate(6.356)">
          <path id="Trazado_933166" data-name="Trazado 933166" d="M32.389,38.236a6.541,6.541,0,0,1-6.539-6.548V27.747a6.419,6.419,0,0,1,.914-3.329.915.915,0,0,1,1.372-.229A6.723,6.723,0,0,0,32.4,25.534a6.806,6.806,0,0,0,4.271-1.344.908.908,0,0,1,1.372.238,6.547,6.547,0,0,1,.905,3.329V31.7A6.57,6.57,0,0,1,32.389,38.236ZM27.917,26.248a4.812,4.812,0,0,0-.238,1.5v3.941a4.719,4.719,0,1,0,9.437,0V27.747a4.646,4.646,0,0,0-.247-1.5,9.608,9.608,0,0,1-8.953,0Z" transform="translate(-25.85 -23.975)"/>
        </g>
        <g id="Grupo_1132659" data-name="Grupo 1132659" transform="translate(17.384 10.822)" opacity="0.3">
          <path id="Trazado_933167" data-name="Trazado 933167" d="M37.91,36.093a3.078,3.078,0,0,0,.192-.283C38.047,35.911,37.974,35.993,37.91,36.093Z" transform="translate(-37.91 -35.81)" fill="#fff"/>
        </g>
        <g id="Grupo_1132662" data-name="Grupo 1132662" transform="translate(5.094 24.54)">
          <g id="Grupo_1132660" data-name="Grupo 1132660" transform="translate(13.772)">
            <path id="Trazado_933168" data-name="Trazado 933168" d="M40.444,57.349a.917.917,0,0,1-.914-.914v-4.71a.914.914,0,1,1,1.829,0v4.71A.911.911,0,0,1,40.444,57.349Z" transform="translate(-39.53 -50.81)"/>
          </g>
          <g id="Grupo_1132661" data-name="Grupo 1132661">
            <path id="Trazado_933169" data-name="Trazado 933169" d="M25.384,57.349a.917.917,0,0,1-.914-.914v-4.71a.914.914,0,0,1,1.829,0v4.71A.911.911,0,0,1,25.384,57.349Z" transform="translate(-24.47 -50.81)"/>
          </g>
        </g>
      </g>
    </g>
  </g>
</svg>
