<svg id="salud_8_" data-name="salud (8)" xmlns="http://www.w3.org/2000/svg" width="59.935" height="59.935" viewBox="0 0 59.935 59.935">
  <g id="Flat_8_" transform="translate(0.88 0.88)">
    <path id="Trazado_944653" data-name="Trazado 944653" d="M7.5,473.5H65.675v3.519H7.5Z" transform="translate(-7.5 -418.843)" fill="#ebfdc0"/>
    <path id="Trazado_944654" data-name="Trazado 944654" d="M75.626,408.869H20.5V403l20.956-2.675a5.864,5.864,0,0,1,6.607,5.817v0a5.865,5.865,0,0,1,6.607-5.817L75.626,403Z" transform="translate(-18.975 -354.212)" fill="#fff"/>
    <path id="Trazado_944655" data-name="Trazado 944655" d="M48.063,444.3a5.934,5.934,0,0,0-.055-.8H20.5v3.519H75.626V443.5H48.118A5.933,5.933,0,0,0,48.063,444.3Z" transform="translate(-18.975 -392.362)" fill="#e4e8ed"/>
    <path id="Trazado_944656" data-name="Trazado 944656" d="M114.266,114.226,98.446,98.345a10.107,10.107,0,0,1,14.322-14.266l1.5,1.5,1.5-1.5a10.107,10.107,0,0,1,14.322,14.266Z" transform="translate(-85.178 -72.471)" fill="#f88fa4"/>
    <path id="Trazado_944657" data-name="Trazado 944657" d="M130.092,155.409l-15.82,15.881-15.82-15.881a10.059,10.059,0,0,1-2.748-5.141,10.1,10.1,0,0,0,2.748,9.129l15.82,15.881,15.82-15.881a10.1,10.1,0,0,0,2.748-9.129A10.06,10.06,0,0,1,130.092,155.409Z" transform="translate(-85.185 -133.523)" fill="#f05475"/>
    <g id="Grupo_1142380" data-name="Grupo 1142380" transform="translate(3.753)">
      <path id="Trazado_944658" data-name="Trazado 944658" d="M51.229,282.019H47.71V278.5H43.019v3.519H39.5v4.692h3.519v3.519H47.71V286.71h3.519Z" transform="translate(-39.5 -246.715)" fill="#ebfdc0"/>
      <path id="Trazado_944659" data-name="Trazado 944659" d="M415.229,11.019H411.71V7.5h-4.692v3.519H403.5V15.71h3.519v3.519h4.692V15.71h3.519Z" transform="translate(-360.807 -7.5)" fill="#ebfdc0"/>
    </g>
  </g>
  <g id="Grupo_1142381" data-name="Grupo 1142381" transform="translate(14.954 12.433)">
    <path id="Trazado_944660" data-name="Trazado 944660" d="M157.5,106h1.759v1.759H157.5Z" transform="translate(-153.981 -106)" fill="#fff"/>
    <path id="Trazado_944661" data-name="Trazado 944661" d="M127.5,130h1.759v1.759H127.5Z" transform="translate(-127.5 -127.185)" fill="#fff"/>
  </g>
  <g id="Outline_8_" transform="translate(0)">
    <path id="Trazado_944662" data-name="Trazado 944662" d="M1.759,403.13H38.295v-1.759H30.847v-1.843a4.985,4.985,0,0,1,4.974-4.986,5.09,5.09,0,0,1,.642.041l2.746.351.223-1.745-2.746-.351a6.867,6.867,0,0,0-.865-.055,6.736,6.736,0,0,0-5.854,3.414,6.736,6.736,0,0,0-5.854-3.414,6.843,6.843,0,0,0-.865.055L1.525,395.611v5.759H0v5.278H6.861v-1.759h-5.1Zm1.525-5.97,20.187-2.577a5.1,5.1,0,0,1,.642-.041,4.985,4.985,0,0,1,4.974,4.986v1.843H3.284Z" transform="translate(0 -346.714)"/>
    <path id="Trazado_944663" data-name="Trazado 944663" d="M123.289,400.34l-17.233-2.2-.223,1.745,15.7,2v4.21h-16.6v1.759h18.121v1.759H73.5v1.759h51.314V406.1h-1.525Z" transform="translate(-64.879 -351.443)"/>
    <path id="Trazado_944664" data-name="Trazado 944664" d="M41.97,284.488V280.97h3.519v-6.451H41.97V271H35.519v3.519H32v6.451h3.519v3.519Zm-8.21-5.278v-2.932h3.519v-3.519H40.21v3.519h3.519v2.932H40.21v3.519H37.278V279.21Z" transform="translate(-28.247 -239.215)"/>
    <path id="Trazado_944665" data-name="Trazado 944665" d="M405.97,3.519V0h-6.451V3.519H396V9.97h3.519v3.519h6.451V9.97h3.519V3.519Zm1.759,4.692H404.21v3.519h-2.932V8.21h-3.519V5.278h3.519V1.759h2.932V5.278h3.519Z" transform="translate(-349.554)"/>
    <path id="Trazado_944666" data-name="Trazado 944666" d="M20.5,219h1.759v1.759H20.5Z" transform="translate(-18.096 -193.314)"/>
    <path id="Trazado_944667" data-name="Trazado 944667" d="M475.5,219h1.759v1.759H475.5Z" transform="translate(-419.729 -193.314)"/>
    <path id="Trazado_944668" data-name="Trazado 944668" d="M90.485,88.148a9.228,9.228,0,0,1,15.053-10.07l2.121,2.129,2.121-2.129a9.165,9.165,0,0,1,6.537-2.715c.306,0,.615.015.92.046l.174-1.751c-.362-.036-.73-.054-1.094-.054a10.913,10.913,0,0,0-7.784,3.233l-.875.878-.875-.878A10.988,10.988,0,0,0,88.861,88.825Z" transform="translate(-77.691 -64.97)"/>
    <path id="Trazado_944669" data-name="Trazado 944669" d="M357.335,87.654a9.2,9.2,0,0,1-.711,3.56l1.624.677a10.992,10.992,0,0,0-7.169-14.815l-.474,1.694a9.23,9.23,0,0,1,6.73,8.884Z" transform="translate(-309.483 -68.036)"/>
    <path id="Trazado_944670" data-name="Trazado 944670" d="M166.8,248.449l-1.246-1.242L153.208,259.6l-12.345-12.393-1.246,1.242,13.592,13.645Z" transform="translate(-123.241 -218.212)"/>
    <path id="Trazado_944671" data-name="Trazado 944671" d="M67.581,151.616l4.754,11.635,3.891-13.274,3.042,9.442,3.689-4.869H98.588V152.79H82.083l-2.176,2.872-3.76-11.67L72.062,157.93,67.9,147.749l-3.114,5.042H50.5v1.759H65.769Z" transform="translate(-44.577 -127.104)"/>
  </g>
</svg>
