<svg xmlns="http://www.w3.org/2000/svg" xmlns:xlink="http://www.w3.org/1999/xlink" width="1600" height="775.044" viewBox="0 0 1600 775.044">
  <defs>
    <clipPath id="clip-path">
      <rect id="Rectángulo_397220" data-name="Rectángulo 397220" width="1599" height="775.044" transform="translate(0 0)" fill="#12263f" stroke="#707070" stroke-width="1" opacity="0.62"/>
    </clipPath>
    <clipPath id="clip-path-2">
      <rect id="Rectángulo_397218" data-name="Rectángulo 397218" width="1600" height="930.865" fill="none"/>
    </clipPath>
    <clipPath id="clip-path-4">
      <rect id="Rectángulo_397221" data-name="Rectángulo 397221" width="115.052" height="84.299" fill="#fff"/>
    </clipPath>
    <clipPath id="clip-path-6">
      <rect id="Rectángulo_397223" data-name="Rectángulo 397223" width="1600" height="583" transform="translate(0 15493)" fill="#fff" stroke="#707070" stroke-width="1"/>
    </clipPath>
    <clipPath id="clip-path-7">
      <rect id="Rectángulo_397224" data-name="Rectángulo 397224" width="716" height="67" transform="translate(390 8327.152)" fill="#fff" stroke="#707070" stroke-width="1"/>
    </clipPath>
  </defs>
  <g id="bg-2" transform="translate(0 -14181.422)">
    <g id="Grupo_1088262" data-name="Grupo 1088262" transform="translate(1 -3265)">
      <g id="Enmascarar_grupo_1078767" data-name="Enmascarar grupo 1078767" transform="translate(0 17446.422)" clip-path="url(#clip-path)">
        <g id="BACKGROUND" transform="translate(0 0)">
          <rect id="Rectángulo_397217" data-name="Rectángulo 397217" width="1600" height="930.865" fill="#ebffee"/>
          <g id="Grupo_1088255" data-name="Grupo 1088255" clip-path="url(#clip-path-2)">
            <path id="Trazado_862399" data-name="Trazado 862399" d="M73.15,608.788c76.1,131.233,306.528,205.07,459.808,175.822s102.848-158.154,233.92-175.822,209.728,38.65,296.448-25.9c86.72-64.528,40.32-157.372,185.536-171.372s133.088-76.182,284.352-66.8,137.12,135.385,358.976,163.311c221.824,27.926,378.912-4.934,412.288-83.536s222.976-70.82,174.56-208.477S2202.75,25.564,1732.862,13.835C1263.006,2.125,343.39-37.772,135.678,108.9S2.558,487.087,73.15,608.788Z" transform="translate(-762.398 -304.135)" fill="#d6fcdb"/>
          </g>
          <g id="Grupo_1088257" data-name="Grupo 1088257" clip-path="url(#clip-path-2)">
            <g id="Grupo_1088256" data-name="Grupo 1088256" transform="translate(-121.892 37.742)">
              <path id="Trazado_862400" data-name="Trazado 862400" d="M568.254,380.753s-76.32-8.787-80.192-39.8c-4.48-35.708,60.96-36.676,47.648-61.977-20.16-38.445,12.608-57.639,70.368-56.168,48.736,1.247,89.824,23.458,115.872,4.375,28.1-20.591,80.7-35.782,132.736-23.048,52.032,12.753,44.384,54.176,80.352,62.982,36,8.806,74.944,32.022,68.672,64.137-5.888,30.123-53.664,50.155-97.888,49.839-21.7-.149-105.856.168-181.5,0-78.72-.168-156.1-.317-156.1-.317Z" transform="translate(432.743 -169.991)" fill="#fff"/>
              <path id="Trazado_862401" data-name="Trazado 862401" d="M272.163,345.934s-68.32-7.857-71.808-35.634c-4-31.966,54.56-32.841,42.656-55.5-18.048-34.4,11.3-51.607,63.008-50.267,43.616,1.117,80.416,21,103.744,3.91,25.152-18.431,72.224-32.04,118.816-20.628s39.712,48.5,71.936,56.373,67.1,28.671,61.472,57.416c-5.28,26.976-48.032,44.886-87.648,44.626-19.424-.13-94.784.149-162.5,0-70.464-.149-139.744-.3-139.744-.3Z" transform="translate(-200.159 -183.632)" fill="#fff"/>
              <path id="Trazado_862402" data-name="Trazado 862402" d="M714.458,506.795s-56.736-6.535-59.616-29.6c-3.328-26.548,45.312-27.274,35.424-46.078-15.008-28.577,9.376-42.857,52.32-41.759,36.224.931,66.784,17.426,86.144,3.239,20.9-15.3,60-26.6,98.688-17.128s32.992,40.269,59.744,46.822,55.744,23.812,51.072,47.679c-4.384,22.4-39.872,37.29-72.8,37.067-16.128-.112-78.72.13-134.944,0C771.963,506.906,714.458,506.795,714.458,506.795Z" transform="translate(799.786 -21.316)" fill="#fff"/>
              <path id="Trazado_862403" data-name="Trazado 862403" d="M339.624,625.563s-76.32-8.787-80.192-39.8c-4.48-35.708,60.96-36.676,47.648-61.977-20.16-38.445,12.608-57.639,70.368-56.168,48.736,1.247,89.824,23.458,115.872,4.375,28.1-20.591,80.7-35.782,132.736-23.048,52.032,12.753,44.384,54.176,80.352,62.982,36,8.806,74.944,32.022,68.672,64.137-5.888,30.123-53.664,50.155-97.888,49.839-21.7-.149-105.856.168-181.5,0-78.72-.168-156.1-.316-156.1-.316Z" transform="translate(-70.243 40.969)" fill="#fff"/>
            </g>
          </g>
        </g>
      </g>
      <g id="Grupo_1088259" data-name="Grupo 1088259" transform="translate(122.475 17576.367)">
        <g id="Grupo_1088258" data-name="Grupo 1088258" clip-path="url(#clip-path-4)">
          <path id="Trazado_862404" data-name="Trazado 862404" d="M74.181,2.6C45.755-5.4,12.812,5.908,3.592,24.927S3.322,70.677,25.555,79.064,98.4,88.34,109.971,62.078,114.852,6.585,74.181,2.6" transform="translate(0 0)" fill="#fff"/>
        </g>
      </g>
      <g id="Grupo_1088261" data-name="Grupo 1088261" transform="translate(983.475 17576.367)">
        <g id="Grupo_1088260" data-name="Grupo 1088260" clip-path="url(#clip-path-4)">
          <path id="Trazado_862405" data-name="Trazado 862405" d="M74.181,2.6C45.755-5.4,12.812,5.908,3.592,24.927S3.322,70.677,25.555,79.064,98.4,88.34,109.971,62.078,114.852,6.585,74.181,2.6" transform="translate(0 0)" fill="#fff"/>
        </g>
      </g>
      <path id="Trazado_862406" data-name="Trazado 862406" d="M302.461,385.159l12.159,4.131L302.786,393.1,298.33,405.58,293.549,393.1,282.04,389.29l12.159-4.131L298.33,373Z" transform="translate(231.96 17477.943)" fill="#c3eb6c"/>
      <path id="Trazado_862407" data-name="Trazado 862407" d="M596.863,248.609l12.159,4.131-11.816,3.806L592.75,269.03l-4.78-12.483L576.46,252.74l12.159-4.131,4.131-12.159Z" transform="translate(390.979 17393.041)" fill="#c3eb6c"/>
      <path id="Trazado_862408" data-name="Trazado 862408" d="M666.821,531.179l12.159,4.131L667.146,539.1l-4.456,12.484-4.78-12.484L646.4,535.31l12.159-4.131,4.131-12.159Z" transform="translate(189.521 17381.941)" fill="#c3eb6c"/>
      <path id="Trazado_862409" data-name="Trazado 862409" d="M662.419,528.558l9.538,3.241-9.283,2.972-3.5,9.793-3.75-9.793L646.4,531.8l9.538-3.241,3.241-9.538Z" transform="translate(81.032 17205.451)" fill="#bdf0c3"/>
      <path id="Trazado_862410" data-name="Trazado 862410" d="M662.419,528.558l9.538,3.241-9.283,2.972-3.5,9.793-3.75-9.793L646.4,531.8l9.538-3.241,3.241-9.538Z" transform="translate(714.032 17289.381)" fill="#bdf0c3"/>
      <path id="Trazado_862411" data-name="Trazado 862411" d="M666.821,531.179l12.159,4.131L667.146,539.1l-4.456,12.484-4.78-12.484L646.4,535.31l12.159-4.131,4.131-12.159Z" transform="translate(687.521 17559.941)" fill="#c3eb6c"/>
      <path id="Trazado_862412" data-name="Trazado 862412" d="M666.821,531.179l12.159,4.131L667.146,539.1l-4.456,12.484-4.78-12.484L646.4,535.31l12.159-4.131,4.131-12.159Z" transform="translate(-317.479 17143.051)" fill="#bdf0c3"/>
    </g>
    <g id="Enmascarar_grupo_1078768" data-name="Enmascarar grupo 1078768" transform="translate(0 -1120)" opacity="0.37" clip-path="url(#clip-path-6)">
      <g id="Grupo_1088287" data-name="Grupo 1088287" transform="translate(-322.396 15519.501)">
        <g id="Grupo_1088263" data-name="Grupo 1088263" transform="translate(50.086 263.319)">
          <path id="Trazado_862413" data-name="Trazado 862413" d="M549.286,609.073c-1.771-69.589,61.739-62.507,13.568-105.813-48.171-43.285-22.059-84.5,1.835-104C588.284,380,483.708,298.673,560.4,257.436l-.171-.6c.576-.064,1.109-.128,1.664-.171.491-.256.981-.512,1.493-.768l.171.6c86.677-8.213,44.736,117.461,75.072,120.405,30.7,2.987,75.285,22.805,59.2,85.525s32.853,21.632,69.952,80.533c37.12,58.9-33.173,104.725-33.173,104.725l-43.221,31.168.32,1.088-1.749-.064L688.55,680.9l-.32-1.088-53.248-1.984s-83.9.853-85.675-68.757Z" transform="translate(-531.818 -255.9)" fill="#0e8e7f"/>
          <path id="Trazado_862414" data-name="Trazado 862414" d="M591.358,609.073c-1.771-69.589,61.739-62.507,13.568-105.813-48.171-43.285-22.059-84.5,1.835-104C630.356,380,525.78,298.673,602.473,257.436l-.171-.6c.576-.064,1.109-.128,1.664-.171.491-.256.981-.512,1.493-.768l.171.6h.149L730.921,680.711l-.3.213-.32-1.088-53.248-1.984s-83.9.853-85.675-68.757Z" transform="translate(-573.89 -255.9)" fill="#0baa99"/>
          <path id="Trazado_862415" data-name="Trazado 862415" d="M561.67,270.19s8.384,28.8,20.992,72c12.5,43.221,29.141,100.864,45.8,158.507,16.491,57.685,32.981,115.371,45.355,158.656,12.267,43.307,20.459,72.171,20.459,72.171l9.643-2.88s-9-28.629-22.485-71.552c-13.4-42.965-31.253-100.245-49.131-157.525C614.6,442.243,596.913,384.9,583.643,341.913c-13.184-43.029-21.952-71.7-21.952-71.7Z" transform="translate(-520.82 -239.705)" fill="#005948"/>
          <path id="Trazado_862416" data-name="Trazado 862416" d="M686.317,333.15c-3.285,4.949-6.4,10.005-9.6,15.019-1.579,2.517-3.115,5.056-4.672,7.595l-4.651,7.595c-3.136,5.056-6.165,10.155-9.195,15.253-3.051,5.1-6.016,10.24-9.024,15.36l2.3-.576-16.725-10.24-8.405-5.056c-2.816-1.685-5.611-3.371-8.427-5.013l-16.96-9.877c-5.717-3.2-11.371-6.464-17.152-9.557,5.355,3.755,10.837,7.339,16.256,11.008l16.448,10.709c2.731,1.792,5.5,3.52,8.256,5.291l8.3,5.248,16.683,10.325,1.472.9.853-1.493c2.944-5.163,5.931-10.283,8.832-15.467,2.923-5.163,5.824-10.347,8.661-15.573l4.267-7.808c1.408-2.6,2.859-5.205,4.245-7.829,2.752-5.269,5.589-10.5,8.256-15.808Z" transform="translate(-550.469 -168.35)" fill="#005948"/>
          <path id="Trazado_862417" data-name="Trazado 862417" d="M655.6,279.081q-.864,2.912-1.664,5.824l-1.6,5.845L649.3,302.463q-2.912,11.744-5.589,23.552l1.749-.619c-5.141-4.011-10.3-8-15.552-11.883-2.624-1.941-5.227-3.925-7.872-5.824-2.667-1.9-5.291-3.819-8-5.675,2.411,2.2,4.907,4.309,7.381,6.443s4.992,4.2,7.488,6.293c4.992,4.2,10.069,8.3,15.189,12.352l1.344,1.067.405-1.685q2.784-11.776,5.227-23.637l2.368-11.861,1.088-5.952c.363-1.984.725-3.968,1.045-5.973Z" transform="translate(-584.219 -229.652)" fill="#005948"/>
          <path id="Trazado_862418" data-name="Trazado 862418" d="M700.977,392c-4.843,7.616-9.493,15.317-14.229,22.976l-13.931,23.147c-4.672,7.7-9.195,15.488-13.781,23.232l-13.611,23.339,2.3-.6L624.177,470.23c-7.893-4.544-15.723-9.195-23.659-13.675l-23.744-13.525c-7.979-4.395-15.893-8.9-23.915-13.227,7.637,4.971,15.381,9.749,23.083,14.635L599.2,458.773c7.744,4.8,15.573,9.451,23.36,14.187l23.467,13.995,1.451.875.853-1.472,13.44-23.424c4.437-7.851,8.917-15.637,13.269-23.531l13.12-23.616c4.267-7.936,8.64-15.808,12.821-23.787Z" transform="translate(-499.082 -101.653)" fill="#005948"/>
        </g>
        <g id="Grupo_1088279" data-name="Grupo 1088279">
          <g id="Grupo_1088266" data-name="Grupo 1088266" transform="translate(85.475 118.381)">
            <g id="Grupo_1088264" data-name="Grupo 1088264" transform="translate(7.552 5.824)">
              <path id="Trazado_862419" data-name="Trazado 862419" d="M566.816,213.82S684.384,318.5,640.416,616.7" transform="translate(-521.077 -164.476)" fill="none" stroke="#005948" stroke-linecap="round" stroke-linejoin="round" stroke-width="0.71"/>
              <path id="Trazado_862420" data-name="Trazado 862420" d="M649.552,190.69s21.461,30.293-3.8,49.877c-25.259,19.563-45.461-12.629-45.461-12.629" transform="translate(-600.293 -190.69)" fill="none" stroke="#005948" stroke-linecap="round" stroke-linejoin="round" stroke-width="0.71"/>
              <path id="Trazado_862421" data-name="Trazado 862421" d="M618.828,194.24s15.787,18.944,7.573,42.3L604.94,205.611" transform="translate(-580.918 -186.667)" fill="none" stroke="#005948" stroke-linecap="round" stroke-linejoin="round" stroke-width="0.71"/>
              <path id="Trazado_862422" data-name="Trazado 862422" d="M606.05,204s8.832,24.619,35.349,21.461" transform="translate(-595.917 -175.605)" fill="none" stroke="#005948" stroke-linecap="round" stroke-linejoin="round" stroke-width="0.71"/>
            </g>
            <g id="Grupo_1088265" data-name="Grupo 1088265" transform="translate(0)">
              <path id="Trazado_862423" data-name="Trazado 862423" d="M613.107,193.379a5.419,5.419,0,1,1-5.419-5.419A5.426,5.426,0,0,1,613.107,193.379Z" transform="translate(-552.009 -187.96)" fill="#e07e93"/>
              <ellipse id="Elipse_5507" data-name="Elipse 5507" cx="5.419" cy="5.419" rx="5.419" ry="5.419" transform="translate(36.864 4.715)" fill="#e07e93"/>
              <path id="Trazado_862424" data-name="Trazado 862424" d="M636.667,210.159a5.419,5.419,0,1,1-5.419-5.419A5.426,5.426,0,0,1,636.667,210.159Z" transform="translate(-625.83 -168.943)" fill="#e07e93"/>
              <path id="Trazado_862425" data-name="Trazado 862425" d="M631.927,205.419A5.419,5.419,0,1,1,626.509,200,5.426,5.426,0,0,1,631.927,205.419Z" transform="translate(-610.978 -174.315)" fill="#e07e93"/>
              <path id="Trazado_862426" data-name="Trazado 862426" d="M625.147,202.369a5.419,5.419,0,1,1-5.419-5.419A5.426,5.426,0,0,1,625.147,202.369Z" transform="translate(-589.734 -177.771)" fill="#e07e93"/>
            </g>
          </g>
          <g id="Grupo_1088269" data-name="Grupo 1088269" transform="translate(443.395 154.641)">
            <g id="Grupo_1088267" data-name="Grupo 1088267" transform="translate(0 5.681)">
              <path id="Trazado_862427" data-name="Trazado 862427" d="M524.5,230.81S396.8,322.885,409.939,624" transform="translate(-408.99 -181.338)" fill="none" stroke="#005948" stroke-linecap="round" stroke-linejoin="round" stroke-width="0.71"/>
              <path id="Trazado_862428" data-name="Trazado 862428" d="M398.375,207.62s-24.469,27.947-1.344,50.005c23.1,22.059,46.507-7.893,46.507-7.893" transform="translate(-281.309 -207.62)" fill="none" stroke="#005948" stroke-linecap="round" stroke-linejoin="round" stroke-width="0.71"/>
              <path id="Trazado_862429" data-name="Trazado 862429" d="M410.428,211.7s-17.643,17.216-11.883,41.3l24.533-28.565" transform="translate(-282.824 -202.996)" fill="none" stroke="#005948" stroke-linecap="round" stroke-linejoin="round" stroke-width="0.71"/>
              <path id="Trazado_862430" data-name="Trazado 862430" d="M428.756,222.75s-11.328,23.573-37.376,17.728" transform="translate(-275.679 -190.473)" fill="none" stroke="#005948" stroke-linecap="round" stroke-linejoin="round" stroke-width="0.71"/>
            </g>
            <g id="Grupo_1088268" data-name="Grupo 1088268" transform="translate(112.836)">
              <path id="Trazado_862431" data-name="Trazado 862431" d="M405.185,209.827a5.426,5.426,0,1,0,5.952-4.843A5.419,5.419,0,0,0,405.185,209.827Z" transform="translate(-405.157 -204.957)" fill="#e07e93"/>
              <path id="Trazado_862432" data-name="Trazado 862432" d="M399.175,212.657a5.426,5.426,0,1,0,5.952-4.843A5.419,5.419,0,0,0,399.175,212.657Z" transform="translate(-386.326 -201.75)" fill="#e07e93"/>
              <path id="Trazado_862433" data-name="Trazado 862433" d="M383.475,228.937a5.426,5.426,0,1,0,5.952-4.843A5.419,5.419,0,0,0,383.475,228.937Z" transform="translate(-337.132 -183.299)" fill="#e07e93"/>
              <path id="Trazado_862434" data-name="Trazado 862434" d="M387.7,223.727a5.426,5.426,0,1,0,5.952-4.843A5.419,5.419,0,0,0,387.7,223.727Z" transform="translate(-350.386 -189.204)" fill="#e07e93"/>
              <path id="Trazado_862435" data-name="Trazado 862435" d="M394.145,220a5.426,5.426,0,1,0,5.952-4.843A5.419,5.419,0,0,0,394.145,220Z" transform="translate(-370.565 -193.431)" fill="#e07e93"/>
            </g>
          </g>
          <g id="Grupo_1088272" data-name="Grupo 1088272" transform="translate(406.749)">
            <g id="Grupo_1088270" data-name="Grupo 1088270" transform="translate(0 5.911)">
              <path id="Trazado_862436" data-name="Trazado 862436" d="M512.582,158.12s-107.5,114.987-36.48,407.915" transform="translate(-451.84 -109.309)" fill="none" stroke="#005948" stroke-linecap="round" stroke-linejoin="round" stroke-width="0.71"/>
              <path id="Trazado_862437" data-name="Trazado 862437" d="M437.282,135.24s-18.6,32.128,8.32,49.323c26.944,17.173,44.117-16.725,44.117-16.725" transform="translate(-384.561 -135.24)" fill="none" stroke="#005948" stroke-linecap="round" stroke-linejoin="round" stroke-width="0.71"/>
              <path id="Trazado_862438" data-name="Trazado 862438" d="M450.468,138.29S436.474,158.6,446.8,181.106l18.539-32.768" transform="translate(-385.737 -131.783)" fill="none" stroke="#005948" stroke-linecap="round" stroke-linejoin="round" stroke-width="0.71"/>
              <path id="Trazado_862439" data-name="Trazado 862439" d="M469.347,146.82s-6.549,25.323-33.237,24.6" transform="translate(-375.048 -122.116)" fill="none" stroke="#005948" stroke-linecap="round" stroke-linejoin="round" stroke-width="0.71"/>
            </g>
            <g id="Grupo_1088271" data-name="Grupo 1088271" transform="translate(48.409)">
              <path id="Trazado_862440" data-name="Trazado 862440" d="M452.562,138.38a5.42,5.42,0,1,0,4.907-5.888A5.424,5.424,0,0,0,452.562,138.38Z" transform="translate(-452.539 -132.469)" fill="#e07e93"/>
              <path id="Trazado_862441" data-name="Trazado 862441" d="M446.113,140a5.42,5.42,0,1,0,4.907-5.888A5.424,5.424,0,0,0,446.113,140Z" transform="translate(-432.329 -130.633)" fill="#e07e93"/>
              <path id="Trazado_862442" data-name="Trazado 862442" d="M427.573,152.931a5.42,5.42,0,1,0,4.907-5.888A5.424,5.424,0,0,0,427.573,152.931Z" transform="translate(-374.237 -115.979)" fill="#e07e93"/>
              <path id="Trazado_862443" data-name="Trazado 862443" d="M432.733,148.641a5.42,5.42,0,1,0,4.907-5.888A5.424,5.424,0,0,0,432.733,148.641Z" transform="translate(-390.405 -120.841)" fill="#e07e93"/>
              <path id="Trazado_862444" data-name="Trazado 862444" d="M439.763,146.221a5.42,5.42,0,1,0,4.907-5.888A5.424,5.424,0,0,0,439.763,146.221Z" transform="translate(-412.433 -123.584)" fill="#e07e93"/>
            </g>
          </g>
          <g id="Grupo_1088275" data-name="Grupo 1088275" transform="translate(383.949 559.721)">
            <g id="Grupo_1088273" data-name="Grupo 1088273" transform="translate(0 5.551)">
              <path id="Trazado_862445" data-name="Trazado 862445" d="M572.668,420.43S436.327,499.107,418.94,800.014" transform="translate(-418.94 -371.385)" fill="none" stroke="#005948" stroke-linecap="round" stroke-linejoin="round" stroke-width="0.71"/>
              <path id="Trazado_862446" data-name="Trazado 862446" d="M411.026,397.44s-27.157,25.323-6.4,49.6,47.061-3.157,47.061-3.157" transform="translate(-250.749 -397.44)" fill="none" stroke="#005948" stroke-linecap="round" stroke-linejoin="round" stroke-width="0.71"/>
              <path id="Trazado_862447" data-name="Trazado 862447" d="M422.457,401.99s-19.285,15.339-16,39.872l27.285-25.941" transform="translate(-252.579 -392.283)" fill="none" stroke="#005948" stroke-linecap="round" stroke-linejoin="round" stroke-width="0.71"/>
              <path id="Trazado_862448" data-name="Trazado 862448" d="M439.576,414.2s-13.653,22.315-38.976,13.845" transform="translate(-246.723 -378.445)" fill="none" stroke="#005948" stroke-linecap="round" stroke-linejoin="round" stroke-width="0.71"/>
            </g>
            <g id="Grupo_1088274" data-name="Grupo 1088274" transform="translate(156.07 0)">
              <path id="Trazado_862449" data-name="Trazado 862449" d="M412.869,399.13a4.579,4.579,0,1,1,0,.021Z" transform="translate(-412.758 -394.838)" fill="#e07e93"/>
              <path id="Trazado_862450" data-name="Trazado 862450" d="M407.179,402.572a5.427,5.427,0,1,0,6.421-4.2A5.445,5.445,0,0,0,407.179,402.572Z" transform="translate(-394.929 -390.962)" fill="#e07e93"/>
              <path id="Trazado_862451" data-name="Trazado 862451" d="M393.209,420.352a5.427,5.427,0,1,0,6.421-4.2A5.445,5.445,0,0,0,393.209,420.352Z" transform="translate(-351.157 -370.811)" fill="#e07e93"/>
              <path id="Trazado_862452" data-name="Trazado 862452" d="M396.889,414.742a5.427,5.427,0,1,0,6.421-4.2A5.445,5.445,0,0,0,396.889,414.742Z" transform="translate(-362.687 -377.169)" fill="#e07e93"/>
              <path id="Trazado_862453" data-name="Trazado 862453" d="M402.909,410.382a6.991,6.991,0,1,1,.021,0Z" transform="translate(-381.55 -382.111)" fill="#e07e93"/>
            </g>
          </g>
          <g id="Grupo_1088278" data-name="Grupo 1088278" transform="translate(0 515.253)">
            <g id="Grupo_1088276" data-name="Grupo 1088276" transform="translate(7.821 5.646)">
              <path id="Trazado_862454" data-name="Trazado 862454" d="M583.939,399.77s131.435,86.656,130.88,388.075" transform="translate(-536.963 -350.426)" fill="none" stroke="#005948" stroke-linecap="round" stroke-linejoin="round" stroke-width="0.71"/>
              <path id="Trazado_862455" data-name="Trazado 862455" d="M684.506,376.64s25.6,26.9,3.435,49.9-46.805-5.952-46.805-5.952" transform="translate(-641.136 -376.64)" fill="none" stroke="#005948" stroke-linecap="round" stroke-linejoin="round" stroke-width="0.71"/>
              <path id="Trazado_862456" data-name="Trazado 862456" d="M657.118,380.92s18.347,16.469,13.589,40.768L645,394.168" transform="translate(-623.902 -371.789)" fill="none" stroke="#005948" stroke-linecap="round" stroke-linejoin="round" stroke-width="0.71"/>
              <path id="Trazado_862457" data-name="Trazado 862457" d="M645.37,392.46s12.288,23.083,38.08,16.149" transform="translate(-636.645 -358.711)" fill="none" stroke="#005948" stroke-linecap="round" stroke-linejoin="round" stroke-width="0.71"/>
            </g>
            <g id="Grupo_1088277" data-name="Grupo 1088277" transform="translate(0 0)">
              <path id="Trazado_862458" data-name="Trazado 862458" d="M655.791,378.637a5.422,5.422,0,1,1-6.144-4.587A5.42,5.42,0,0,1,655.791,378.637Z" transform="translate(-600.439 -373.994)" fill="#e07e93"/>
              <path id="Trazado_862459" data-name="Trazado 862459" d="M661.681,381.717a5.422,5.422,0,1,1-6.144-4.587A5.419,5.419,0,0,1,661.681,381.717Z" transform="translate(-618.894 -370.503)" fill="#e07e93"/>
              <path id="Trazado_862460" data-name="Trazado 862460" d="M676.681,398.637a5.422,5.422,0,1,1-6.144-4.587A5.419,5.419,0,0,1,676.681,398.637Z" transform="translate(-665.894 -351.327)" fill="#e07e93"/>
              <path id="Trazado_862461" data-name="Trazado 862461" d="M672.671,393.247a5.422,5.422,0,1,1-6.144-4.587A5.419,5.419,0,0,1,672.671,393.247Z" transform="translate(-653.329 -357.436)" fill="#e07e93"/>
              <path id="Trazado_862462" data-name="Trazado 862462" d="M666.4,389.257a5.422,5.422,0,1,1-6.144-4.587A5.42,5.42,0,0,1,666.4,389.257Z" transform="translate(-633.683 -361.958)" fill="#e07e93"/>
            </g>
          </g>
        </g>
        <g id="Grupo_1088286" data-name="Grupo 1088286" transform="translate(265.038 73.98)">
          <g id="Grupo_1088282" data-name="Grupo 1088282" transform="translate(0)">
            <g id="Grupo_1088280" data-name="Grupo 1088280">
              <path id="Trazado_862463" data-name="Trazado 862463" d="M430.386,469.447c42.048-62.187,93.333-16.171,78.208-84.331-15.147-68.16,33.579-87.957,66.773-90.112,32.789-2.112-8.021-139.008,85.1-127.125l.213-.64c.555.3,1.045.6,1.579.9.6.085,1.195.149,1.792.256l-.213.64c81.195,47.1-34.347,131.093-9.579,152.683,25.088,21.867,51.776,67.179-1.643,112.149s15.275,39.552,10.923,114.5-94.741,71.1-94.741,71.1l-57.451.277-.384,1.152-1.493-1.152h-1.877l.384-1.152-45.483-35.115s-74.155-51.84-32.107-114.005Z" transform="translate(-417.458 -167.147)" fill="#0e8e7f"/>
              <path id="Trazado_862464" data-name="Trazado 862464" d="M444.078,469.447c42.048-62.187,93.333-16.171,78.208-84.331-15.147-68.16,33.579-87.957,66.773-90.112,32.789-2.112-8.021-139.008,85.1-127.125l.213-.64c.555.3,1.045.6,1.579.9.6.085,1.195.149,1.792.256l-.213.64a1.268,1.268,0,0,0,.128.085L521.667,619.74h-.405l.384-1.152-45.483-35.115s-74.155-51.84-32.107-114.005Z" transform="translate(-431.15 -167.147)" fill="#0baa99"/>
            </g>
            <g id="Grupo_1088281" data-name="Grupo 1088281" transform="translate(60.479 33.819)">
              <path id="Trazado_862465" data-name="Trazado 862465" d="M608.983,183s-10.688,30.528-26.709,76.331c-16.128,45.76-37.632,106.773-59.115,167.787-21.675,60.949-43.349,121.9-59.605,167.616-16.363,45.675-27.264,76.139-27.264,76.139l10.261,3.52s10.048-30.741,25.088-76.864c15.168-46.08,35.371-107.541,55.595-168.981,20.395-61.4,40.789-122.773,56.085-168.832l25.664-76.672Z" transform="translate(-433.837 -183)" fill="#005948"/>
              <path id="Trazado_862466" data-name="Trazado 862466" d="M539.465,290.709c-5.995,2.283-11.883,4.779-17.835,7.168l-8.875,3.691-8.832,3.755c-5.888,2.5-11.755,5.077-17.621,7.659-5.867,2.539-11.691,5.227-17.536,7.829l2.389.939L462.9,302.272c-2.816-6.464-5.611-12.949-8.469-19.371q-4.288-9.664-8.7-19.285c-3.008-6.379-5.931-12.8-9.067-19.136,2.347,6.656,4.907,13.227,7.36,19.84q3.808,9.888,7.723,19.691c2.6,6.549,5.291,13.077,7.936,19.605l8.149,19.52.725,1.707,1.685-.768c5.8-2.688,11.648-5.291,17.429-8.043,5.8-2.709,11.605-5.419,17.365-8.213l8.64-4.181,8.619-4.245c5.717-2.9,11.477-5.7,17.131-8.7Z" transform="translate(-365.108 -113.323)" fill="#005948"/>
              <path id="Trazado_862467" data-name="Trazado 862467" d="M480.159,202.9c-1.728,1.344-3.413,2.688-5.12,4.075-1.685,1.365-3.392,2.731-5.077,4.117l-10.005,8.384c-6.613,5.653-13.184,11.371-19.648,17.173l1.92.555c-1.984-6.741-4.011-13.483-6.208-20.181-1.088-3.349-2.133-6.7-3.264-10.048-1.152-3.328-2.24-6.677-3.456-9.984.747,3.435,1.621,6.848,2.432,10.283.832,3.413,1.749,6.805,2.624,10.219,1.749,6.827,3.648,13.589,5.568,20.352l.512,1.792,1.408-1.237c6.549-5.739,12.992-11.563,19.392-17.451l9.515-8.939c1.579-1.493,3.136-3.029,4.693-4.544s3.115-3.029,4.651-4.587Z" transform="translate(-290.1 -167.145)" fill="#005948"/>
              <path id="Trazado_862468" data-name="Trazado 862468" d="M600.013,368.857c-9,3.648-17.92,7.488-26.88,11.243L546.4,391.683c-8.917,3.84-17.771,7.829-26.645,11.733L493.2,415.363l2.389.917-11.968-26.9c-4.075-8.939-8.043-17.92-12.181-26.816l-12.352-26.752c-4.245-8.853-8.363-17.771-12.715-26.581,3.584,9.152,7.381,18.2,11.072,27.307l11.435,27.157c3.776,9.067,7.744,18.048,11.605,27.072L492.3,417.753l.725,1.685,1.664-.768,26.475-12.139c8.789-4.1,17.621-8.128,26.389-12.331l26.3-12.5c8.725-4.288,17.493-8.448,26.155-12.843Z" transform="translate(-446.37 -39.939)" fill="#005948"/>
            </g>
          </g>
          <g id="Grupo_1088285" data-name="Grupo 1088285" transform="translate(31.943 250.394)">
            <g id="Grupo_1088283" data-name="Grupo 1088283">
              <path id="Trazado_862469" data-name="Trazado 862469" d="M411.866,503.593c48.64-45.355,83.8,4.523,84.245-57.323.427-61.867,46.421-69.312,75.52-64.576,28.715,4.672,20.608-121.621,98.667-92.928l.32-.512c.405.363.789.725,1.195,1.088.512.192,1,.363,1.493.576l-.32.512c60.779,56.768-55.637,106.411-38.528,129.941,17.323,23.851,31.381,68.267-23.637,96.512-55.04,28.245,5.355,37.184-13.248,101.035s-95.893,42.624-95.893,42.624l-49.664-11.136-.576.917-1.067-1.28-1.621-.363.576-.917-32.32-39.317s-53.76-59.456-5.12-104.811Z" transform="translate(-391.521 -284.52)" fill="#0e8e7f"/>
              <path id="Trazado_862470" data-name="Trazado 862470" d="M420.025,503.593c48.64-45.355,83.8,4.523,84.245-57.323.427-61.867,46.421-69.312,75.52-64.576,28.715,4.672,20.608-121.621,98.667-92.928l.32-.512c.405.363.789.725,1.195,1.088.512.192,1,.363,1.493.576l-.32.512.107.107-224,358.208-.341-.085.576-.917-32.32-39.317s-53.76-59.456-5.12-104.811Z" transform="translate(-399.68 -284.52)" fill="#0baa99"/>
            </g>
            <g id="Grupo_1088284" data-name="Grupo 1088284" transform="translate(20.024 31.34)">
              <path id="Trazado_862471" data-name="Trazado 862471" d="M652.974,299.231s-15.275,24.256-38.187,60.608c-23,36.309-53.653,84.736-84.309,133.163-30.805,48.341-61.589,96.683-84.693,132.928-23.189,36.2-38.635,60.331-38.635,60.331l8.171,5.077s14.763-24.555,36.907-61.419c22.229-36.8,51.861-85.845,81.493-134.912C563.5,446.026,593.262,397.066,615.6,360.33c22.421-36.672,37.355-61.12,37.355-61.12Z" transform="translate(-407.15 -299.21)" fill="#005948"/>
              <path id="Trazado_862472" data-name="Trazado 862472" d="M503.556,402.968c-5.632.789-11.221,1.771-16.811,2.645l-8.384,1.472-8.384,1.493c-5.589.96-11.157,2.027-16.725,3.093-5.568,1.045-11.136,2.2-16.7,3.285l1.877,1.28-3.264-18.453-1.728-9.216c-.576-3.072-1.131-6.144-1.771-9.195l-3.691-18.368c-1.344-6.1-2.581-12.224-4.032-18.325.7,6.208,1.621,12.395,2.432,18.6l2.773,18.539c.448,3.093.96,6.165,1.451,9.259l1.515,9.237,3.179,18.475.277,1.621,1.6-.341c5.547-1.173,11.115-2.261,16.661-3.5,5.547-1.195,11.093-2.389,16.619-3.669l8.3-1.9,8.3-1.92c5.5-1.365,11.029-2.645,16.533-4.117Z" transform="translate(-293.572 -249.944)" fill="#005948"/>
              <path id="Trazado_862473" data-name="Trazado 862473" d="M447.172,323.139c-1.749.811-3.5,1.643-5.227,2.5l-5.184,2.56-10.3,5.248q-10.24,5.344-20.373,10.923l1.557.853c-.384-6.229-.811-12.437-1.365-18.645-.277-3.115-.512-6.208-.832-9.323-.341-3.093-.619-6.208-1-9.3-.043,3.115.043,6.229.064,9.365.043,3.115.171,6.229.256,9.344.149,6.229.448,12.459.789,18.688l.085,1.643,1.451-.789q10.176-5.472,20.2-11.221l9.984-5.824,4.949-2.987c1.643-1,3.307-2.005,4.928-3.029Z" transform="translate(-195.546 -289.305)" fill="#005948"/>
              <path id="Trazado_862474" data-name="Trazado 862474" d="M567.253,473.892c-8.491,1.365-16.96,2.923-25.429,4.373l-25.365,4.715c-8.469,1.536-16.9,3.264-25.323,4.907l-25.323,4.992,1.877,1.259-5.056-25.6c-1.728-8.533-3.307-17.088-5.141-25.579l-5.376-25.536c-1.9-8.491-3.712-17-5.717-25.472,1.28,8.619,2.773,17.173,4.16,25.771l4.5,25.707c1.451,8.576,3.157,17.109,4.715,25.664l4.8,25.643.3,1.6,1.579-.341,25.259-5.291c8.405-1.771,16.853-3.477,25.237-5.376l25.195-5.568c8.384-1.963,16.768-3.84,25.131-5.909Z" transform="translate(-405.184 -194.105)" fill="#005948"/>
            </g>
          </g>
        </g>
      </g>
      <g id="Grupo_1088312" data-name="Grupo 1088312" transform="translate(1367 15493.05)">
        <g id="Grupo_1088288" data-name="Grupo 1088288" transform="translate(316.524 263.319)">
          <path id="Trazado_862475" data-name="Trazado 862475" d="M761.135,609.073c1.771-69.589-61.739-62.507-13.568-105.813,48.171-43.285,22.059-84.5-1.835-104C722.137,380,826.713,298.673,750.02,257.436l.171-.6c-.576-.064-1.109-.128-1.664-.171-.491-.256-.981-.512-1.493-.768l-.171.6c-86.677-8.213-44.736,117.461-75.072,120.405-30.7,2.987-75.285,22.805-59.2,85.525s-32.853,21.632-69.952,80.533c-37.12,58.9,33.173,104.725,33.173,104.725l43.221,31.168-.32,1.088,1.749-.064,1.408,1.024.32-1.088,53.248-1.984s83.9.853,85.675-68.757Z" transform="translate(-531.818 -255.9)" fill="#0e8e7f"/>
          <path id="Trazado_862476" data-name="Trazado 862476" d="M713.453,609.073c1.771-69.589-61.739-62.507-13.568-105.813,48.171-43.285,22.059-84.5-1.835-104C674.455,380,779.031,298.673,702.338,257.436l.171-.6c-.576-.064-1.109-.128-1.664-.171-.491-.256-.981-.512-1.493-.768l-.171.6h-.149L573.89,680.711l.3.213.32-1.088,53.248-1.984s83.9.853,85.675-68.757Z" transform="translate(-484.136 -255.9)" fill="#0baa99"/>
          <path id="Trazado_862477" data-name="Trazado 862477" d="M703.921,270.19s-8.384,28.8-20.992,72c-12.5,43.221-29.141,100.864-45.8,158.507-16.491,57.685-32.981,115.371-45.355,158.656-12.267,43.307-20.459,72.171-20.459,72.171l-9.643-2.88s9-28.629,22.485-71.552c13.4-42.965,31.253-100.245,49.131-157.525,17.707-57.323,35.392-114.667,48.661-157.653,13.184-43.029,21.952-71.7,21.952-71.7Z" transform="translate(-497.985 -239.705)" fill="#005948"/>
          <path id="Trazado_862478" data-name="Trazado 862478" d="M583.832,333.15c3.285,4.949,6.4,10.005,9.6,15.019,1.579,2.517,3.115,5.056,4.672,7.595l4.651,7.595c3.136,5.056,6.165,10.155,9.195,15.253,3.051,5.1,6.016,10.24,9.024,15.36l-2.3-.576,16.725-10.24L643.8,378.1c2.816-1.685,5.611-3.371,8.427-5.013l16.96-9.877c5.717-3.2,11.371-6.464,17.152-9.557-5.355,3.755-10.837,7.339-16.256,11.008l-16.448,10.709c-2.731,1.792-5.5,3.52-8.256,5.291l-8.3,5.248L620.4,396.233l-1.472.9-.853-1.493c-2.944-5.163-5.931-10.283-8.832-15.467-2.923-5.163-5.824-10.347-8.661-15.573l-4.267-7.808c-1.408-2.6-2.859-5.205-4.245-7.829-2.752-5.269-5.589-10.5-8.256-15.808Z" transform="translate(-472.893 -168.35)" fill="#005948"/>
          <path id="Trazado_862479" data-name="Trazado 862479" d="M614.04,279.081q.864,2.912,1.664,5.824l1.6,5.845,3.029,11.712q2.912,11.744,5.589,23.552l-1.749-.619c5.141-4.011,10.3-8,15.552-11.883,2.624-1.941,5.227-3.925,7.872-5.824,2.667-1.9,5.291-3.819,8-5.675-2.411,2.2-4.907,4.309-7.381,6.443s-4.992,4.2-7.488,6.293c-4.992,4.2-10.069,8.3-15.189,12.352l-1.344,1.067-.405-1.685q-2.784-11.776-5.227-23.637l-2.368-11.861-1.088-5.952c-.363-1.984-.725-3.968-1.045-5.973Z" transform="translate(-438.633 -229.652)" fill="#005948"/>
          <path id="Trazado_862480" data-name="Trazado 862480" d="M552.86,392c4.843,7.616,9.493,15.317,14.229,22.976l13.931,23.147c4.672,7.7,9.195,15.488,13.781,23.232l13.611,23.339-2.3-.6L629.66,470.23c7.893-4.544,15.723-9.195,23.659-13.675l23.744-13.525c7.979-4.395,15.893-8.9,23.915-13.227-7.637,4.971-15.381,9.749-23.083,14.635l-23.253,14.336c-7.744,4.8-15.573,9.451-23.36,14.187l-23.467,13.995-1.451.875-.853-1.472-13.44-23.424c-4.437-7.851-8.917-15.637-13.269-23.531l-13.12-23.616c-4.267-7.936-8.64-15.808-12.821-23.787Z" transform="translate(-507.97 -101.653)" fill="#005948"/>
        </g>
        <g id="Grupo_1088304" data-name="Grupo 1088304">
          <g id="Grupo_1088291" data-name="Grupo 1088291" transform="translate(391.186 118.381)">
            <g id="Grupo_1088289" data-name="Grupo 1088289" transform="translate(0 5.824)">
              <path id="Trazado_862481" data-name="Trazado 862481" d="M650.26,213.82S532.692,318.5,576.659,616.7" transform="translate(-566.816 -164.476)" fill="none" stroke="#005948" stroke-linecap="round" stroke-linejoin="round" stroke-width="0.71"/>
              <path id="Trazado_862482" data-name="Trazado 862482" d="M608.8,190.69s-21.461,30.293,3.8,49.877c25.259,19.563,45.461-12.629,45.461-12.629" transform="translate(-528.874 -190.69)" fill="none" stroke="#005948" stroke-linecap="round" stroke-linejoin="round" stroke-width="0.71"/>
              <path id="Trazado_862483" data-name="Trazado 862483" d="M614.882,194.24s-15.787,18.944-7.573,42.3l21.461-30.933" transform="translate(-523.608 -186.667)" fill="none" stroke="#005948" stroke-linecap="round" stroke-linejoin="round" stroke-width="0.71"/>
              <path id="Trazado_862484" data-name="Trazado 862484" d="M641.4,204s-8.832,24.619-35.349,21.461" transform="translate(-522.35 -175.605)" fill="none" stroke="#005948" stroke-linecap="round" stroke-linejoin="round" stroke-width="0.71"/>
            </g>
            <g id="Grupo_1088290" data-name="Grupo 1088290" transform="translate(75.636)">
              <path id="Trazado_862485" data-name="Trazado 862485" d="M602.27,193.379a5.419,5.419,0,1,0,5.419-5.419A5.426,5.426,0,0,0,602.27,193.379Z" transform="translate(-602.27 -187.96)" fill="#e07e93"/>
              <ellipse id="Elipse_5508" data-name="Elipse 5508" cx="5.419" cy="5.419" rx="5.419" ry="5.419" transform="translate(13.397 4.715)" fill="#e07e93"/>
              <path id="Trazado_862486" data-name="Trazado 862486" d="M625.83,210.159a5.419,5.419,0,1,0,5.419-5.419A5.426,5.426,0,0,0,625.83,210.159Z" transform="translate(-575.569 -168.943)" fill="#e07e93"/>
              <path id="Trazado_862487" data-name="Trazado 862487" d="M621.09,205.419A5.419,5.419,0,1,0,626.509,200,5.426,5.426,0,0,0,621.09,205.419Z" transform="translate(-580.941 -174.315)" fill="#e07e93"/>
              <path id="Trazado_862488" data-name="Trazado 862488" d="M614.31,202.369a5.419,5.419,0,1,0,5.419-5.419A5.426,5.426,0,0,0,614.31,202.369Z" transform="translate(-588.625 -177.771)" fill="#e07e93"/>
            </g>
          </g>
          <g id="Grupo_1088294" data-name="Grupo 1088294" transform="translate(0 154.641)">
            <g id="Grupo_1088292" data-name="Grupo 1088292" transform="translate(7.772 5.681)">
              <path id="Trazado_862489" data-name="Trazado 862489" d="M408.99,230.81S536.691,322.885,523.55,624" transform="translate(-362.27 -181.338)" fill="none" stroke="#005948" stroke-linecap="round" stroke-linejoin="round" stroke-width="0.71"/>
              <path id="Trazado_862490" data-name="Trazado 862490" d="M432.253,207.62s24.469,27.947,1.344,50.005c-23.1,22.059-46.507-7.893-46.507-7.893" transform="translate(-387.09 -207.62)" fill="none" stroke="#005948" stroke-linecap="round" stroke-linejoin="round" stroke-width="0.71"/>
              <path id="Trazado_862491" data-name="Trazado 862491" d="M410.041,211.7s17.643,17.216,11.883,41.3L397.39,224.436" transform="translate(-375.417 -202.996)" fill="none" stroke="#005948" stroke-linecap="round" stroke-linejoin="round" stroke-width="0.71"/>
              <path id="Trazado_862492" data-name="Trazado 862492" d="M391.38,222.75s11.328,23.573,37.376,17.728" transform="translate(-382.228 -190.473)" fill="none" stroke="#005948" stroke-linecap="round" stroke-linejoin="round" stroke-width="0.71"/>
            </g>
            <g id="Grupo_1088293" data-name="Grupo 1088293" transform="translate(0)">
              <path id="Trazado_862493" data-name="Trazado 862493" d="M415.979,209.827a5.426,5.426,0,1,1-5.952-4.843A5.419,5.419,0,0,1,415.979,209.827Z" transform="translate(-358.842 -204.957)" fill="#e07e93"/>
              <path id="Trazado_862494" data-name="Trazado 862494" d="M409.969,212.657a5.426,5.426,0,1,1-5.952-4.843A5.419,5.419,0,0,1,409.969,212.657Z" transform="translate(-365.654 -201.75)" fill="#e07e93"/>
              <path id="Trazado_862495" data-name="Trazado 862495" d="M394.269,228.937a5.426,5.426,0,1,1-5.952-4.843A5.419,5.419,0,0,1,394.269,228.937Z" transform="translate(-383.447 -183.299)" fill="#e07e93"/>
              <path id="Trazado_862496" data-name="Trazado 862496" d="M398.5,223.727a5.426,5.426,0,1,1-5.952-4.843A5.419,5.419,0,0,1,398.5,223.727Z" transform="translate(-378.653 -189.204)" fill="#e07e93"/>
              <path id="Trazado_862497" data-name="Trazado 862497" d="M404.939,220a5.426,5.426,0,1,1-5.952-4.843A5.419,5.419,0,0,1,404.939,220Z" transform="translate(-371.354 -193.431)" fill="#e07e93"/>
            </g>
          </g>
          <g id="Grupo_1088297" data-name="Grupo 1088297" transform="translate(94.084)">
            <g id="Grupo_1088295" data-name="Grupo 1088295" transform="translate(7.405 5.911)">
              <path id="Trazado_862498" data-name="Trazado 862498" d="M451.84,158.12s107.5,114.987,36.48,407.915" transform="translate(-407.424 -109.309)" fill="none" stroke="#005948" stroke-linecap="round" stroke-linejoin="round" stroke-width="0.71"/>
              <path id="Trazado_862499" data-name="Trazado 862499" d="M483.457,135.24s18.6,32.128-8.32,49.323c-26.944,17.173-44.117-16.725-44.117-16.725" transform="translate(-431.02 -135.24)" fill="none" stroke="#005948" stroke-linecap="round" stroke-linejoin="round" stroke-width="0.71"/>
              <path id="Trazado_862500" data-name="Trazado 862500" d="M457.869,138.29s13.995,20.309,3.669,42.816L443,148.338" transform="translate(-417.443 -131.783)" fill="none" stroke="#005948" stroke-linecap="round" stroke-linejoin="round" stroke-width="0.71"/>
              <path id="Trazado_862501" data-name="Trazado 862501" d="M436.11,146.82s6.549,25.323,33.237,24.6" transform="translate(-425.251 -122.116)" fill="none" stroke="#005948" stroke-linecap="round" stroke-linejoin="round" stroke-width="0.71"/>
            </g>
            <g id="Grupo_1088296" data-name="Grupo 1088296" transform="translate(0)">
              <path id="Trazado_862502" data-name="Trazado 862502" d="M463.357,138.38a5.42,5.42,0,1,1-4.907-5.888A5.424,5.424,0,0,1,463.357,138.38Z" transform="translate(-399.227 -132.469)" fill="#e07e93"/>
              <path id="Trazado_862503" data-name="Trazado 862503" d="M456.907,140A5.42,5.42,0,1,1,452,134.113,5.424,5.424,0,0,1,456.907,140Z" transform="translate(-406.537 -130.633)" fill="#e07e93"/>
              <path id="Trazado_862504" data-name="Trazado 862504" d="M438.367,152.931a5.42,5.42,0,1,1-4.907-5.888A5.424,5.424,0,0,1,438.367,152.931Z" transform="translate(-427.549 -115.979)" fill="#e07e93"/>
              <path id="Trazado_862505" data-name="Trazado 862505" d="M443.527,148.641a5.42,5.42,0,1,1-4.907-5.888A5.424,5.424,0,0,1,443.527,148.641Z" transform="translate(-421.701 -120.841)" fill="#e07e93"/>
              <path id="Trazado_862506" data-name="Trazado 862506" d="M450.557,146.221a5.42,5.42,0,1,1-4.907-5.888A5.424,5.424,0,0,1,450.557,146.221Z" transform="translate(-413.734 -123.584)" fill="#e07e93"/>
            </g>
          </g>
          <g id="Grupo_1088300" data-name="Grupo 1088300" transform="translate(20.589 559.721)">
            <g id="Grupo_1088298" data-name="Grupo 1088298" transform="translate(7.919 5.551)">
              <path id="Trazado_862507" data-name="Trazado 862507" d="M418.94,420.43s136.341,78.677,153.728,379.584" transform="translate(-371.729 -371.385)" fill="none" stroke="#005948" stroke-linecap="round" stroke-linejoin="round" stroke-width="0.71"/>
              <path id="Trazado_862508" data-name="Trazado 862508" d="M437.471,397.44s27.157,25.323,6.4,49.6-47.061-3.157-47.061-3.157" transform="translate(-396.81 -397.44)" fill="none" stroke="#005948" stroke-linecap="round" stroke-linejoin="round" stroke-width="0.71"/>
              <path id="Trazado_862509" data-name="Trazado 862509" d="M417.365,401.99s19.285,15.339,16,39.872L406.08,415.921" transform="translate(-386.304 -392.283)" fill="none" stroke="#005948" stroke-linecap="round" stroke-linejoin="round" stroke-width="0.71"/>
              <path id="Trazado_862510" data-name="Trazado 862510" d="M400.6,414.2s13.653,22.315,38.976,13.845" transform="translate(-392.515 -378.445)" fill="none" stroke="#005948" stroke-linecap="round" stroke-linejoin="round" stroke-width="0.71"/>
            </g>
            <g id="Grupo_1088299" data-name="Grupo 1088299" transform="translate(0 0)">
              <path id="Trazado_862511" data-name="Trazado 862511" d="M423.493,399.13a4.579,4.579,0,1,0,0,.021Z" transform="translate(-370.817 -394.838)" fill="#e07e93"/>
              <path id="Trazado_862512" data-name="Trazado 862512" d="M417.8,402.572a5.427,5.427,0,1,1-6.421-4.2A5.445,5.445,0,0,1,417.8,402.572Z" transform="translate(-377.265 -390.962)" fill="#e07e93"/>
              <path id="Trazado_862513" data-name="Trazado 862513" d="M403.833,420.352a5.427,5.427,0,1,1-6.421-4.2A5.445,5.445,0,0,1,403.833,420.352Z" transform="translate(-393.098 -370.811)" fill="#e07e93"/>
              <path id="Trazado_862514" data-name="Trazado 862514" d="M407.513,414.742a5.427,5.427,0,1,1-6.421-4.2A5.445,5.445,0,0,1,407.513,414.742Z" transform="translate(-388.927 -377.169)" fill="#e07e93"/>
              <path id="Trazado_862515" data-name="Trazado 862515" d="M413.533,410.382a6.991,6.991,0,1,0-.021,0Z" transform="translate(-382.105 -382.111)" fill="#e07e93"/>
            </g>
          </g>
          <g id="Grupo_1088303" data-name="Grupo 1088303" transform="translate(427.716 515.253)">
            <g id="Grupo_1088301" data-name="Grupo 1088301" transform="translate(0 5.646)">
              <path id="Trazado_862516" data-name="Trazado 862516" d="M714.821,399.77s-131.435,86.656-130.88,388.075" transform="translate(-583.939 -350.426)" fill="none" stroke="#005948" stroke-linecap="round" stroke-linejoin="round" stroke-width="0.71"/>
              <path id="Trazado_862517" data-name="Trazado 862517" d="M653.6,376.64s-25.6,26.9-3.435,49.9,46.805-5.952,46.805-5.952" transform="translate(-519.117 -376.64)" fill="none" stroke="#005948" stroke-linecap="round" stroke-linejoin="round" stroke-width="0.71"/>
              <path id="Trazado_862518" data-name="Trazado 862518" d="M659.378,380.92s-18.347,16.469-13.589,40.768l25.707-27.52" transform="translate(-514.736 -371.789)" fill="none" stroke="#005948" stroke-linecap="round" stroke-linejoin="round" stroke-width="0.71"/>
              <path id="Trazado_862519" data-name="Trazado 862519" d="M683.45,392.46s-12.288,23.083-38.08,16.149" transform="translate(-514.318 -358.711)" fill="none" stroke="#005948" stroke-linecap="round" stroke-linejoin="round" stroke-width="0.71"/>
            </g>
            <g id="Grupo_1088302" data-name="Grupo 1088302" transform="translate(130.271 0)">
              <path id="Trazado_862520" data-name="Trazado 862520" d="M645.06,378.637a5.422,5.422,0,1,0,6.144-4.587A5.42,5.42,0,0,0,645.06,378.637Z" transform="translate(-645.004 -373.994)" fill="#e07e93"/>
              <path id="Trazado_862521" data-name="Trazado 862521" d="M650.95,381.717a5.422,5.422,0,1,0,6.144-4.587A5.419,5.419,0,0,0,650.95,381.717Z" transform="translate(-638.328 -370.503)" fill="#e07e93"/>
              <path id="Trazado_862522" data-name="Trazado 862522" d="M665.95,398.637a5.422,5.422,0,1,0,6.144-4.587A5.419,5.419,0,0,0,665.95,398.637Z" transform="translate(-621.329 -351.327)" fill="#e07e93"/>
              <path id="Trazado_862523" data-name="Trazado 862523" d="M661.94,393.247a5.422,5.422,0,1,0,6.144-4.587A5.419,5.419,0,0,0,661.94,393.247Z" transform="translate(-625.873 -357.436)" fill="#e07e93"/>
              <path id="Trazado_862524" data-name="Trazado 862524" d="M655.67,389.257a5.422,5.422,0,1,0,6.144-4.587A5.42,5.42,0,0,0,655.67,389.257Z" transform="translate(-632.979 -361.958)" fill="#e07e93"/>
            </g>
          </g>
        </g>
        <g id="Grupo_1088311" data-name="Grupo 1088311" transform="translate(17.225 73.98)">
          <g id="Grupo_1088307" data-name="Grupo 1088307" transform="translate(55.378)">
            <g id="Grupo_1088305" data-name="Grupo 1088305">
              <path id="Trazado_862525" data-name="Trazado 862525" d="M680.307,469.446c-42.048-62.187-93.333-16.171-78.208-84.331,15.147-68.16-33.579-87.957-66.773-90.112-32.789-2.112,8.021-139.008-85.1-127.125l-.213-.64c-.555.3-1.045.6-1.579.9-.6.085-1.195.149-1.792.256l.213.64c-81.195,47.1,34.347,131.093,9.579,152.683-25.088,21.867-51.776,67.179,1.643,112.149s-15.275,39.552-10.923,114.5,94.741,71.1,94.741,71.1l57.451.277.384,1.152,1.493-1.152H603.1l-.384-1.152L648.2,583.473s74.155-51.84,32.107-114.005Z" transform="translate(-417.48 -167.148)" fill="#0e8e7f"/>
              <path id="Trazado_862526" data-name="Trazado 862526" d="M664.814,469.446c-42.048-62.187-93.333-16.171-78.208-84.331,15.147-68.16-33.579-87.957-66.773-90.112-32.789-2.112,8.021-139.008-85.1-127.125l-.213-.64c-.555.3-1.045.6-1.579.9-.6.085-1.195.149-1.792.256l.213.64a1.268,1.268,0,0,1-.128.085L587.225,619.74h.405l-.384-1.152,45.483-35.115s74.155-51.84,32.107-114.005Z" transform="translate(-401.986 -167.148)" fill="#0baa99"/>
            </g>
            <g id="Grupo_1088306" data-name="Grupo 1088306" transform="translate(25.217 33.819)">
              <path id="Trazado_862527" data-name="Trazado 862527" d="M436.29,183S446.978,213.528,463,259.331c16.128,45.76,37.632,106.773,59.115,167.787,21.675,60.949,43.349,121.9,59.605,167.616,16.363,45.675,27.264,76.139,27.264,76.139l-10.261,3.52s-10.048-30.741-25.088-76.864c-15.168-46.08-35.371-107.541-55.595-168.981-20.395-61.4-40.789-122.773-56.085-168.832L436.29,183.043Z" transform="translate(-421.378 -183)" fill="#005948"/>
              <path id="Trazado_862528" data-name="Trazado 862528" d="M436.66,290.709c5.995,2.283,11.883,4.779,17.835,7.168l8.875,3.691,8.832,3.755c5.888,2.5,11.755,5.077,17.621,7.659,5.867,2.539,11.691,5.227,17.536,7.829l-2.389.939,8.256-19.477c2.816-6.464,5.611-12.949,8.469-19.371q4.288-9.664,8.7-19.285c3.008-6.379,5.931-12.8,9.067-19.136-2.347,6.656-4.907,13.227-7.36,19.84q-3.808,9.888-7.723,19.691c-2.6,6.549-5.291,13.077-7.936,19.605l-8.149,19.52-.725,1.707-1.685-.768c-5.8-2.688-11.648-5.291-17.429-8.043-5.8-2.709-11.605-5.419-17.365-8.213l-8.64-4.181-8.619-4.245c-5.717-2.9-11.477-5.7-17.131-8.7Z" transform="translate(-420.959 -113.323)" fill="#005948"/>
              <path id="Trazado_862529" data-name="Trazado 862529" d="M429.3,202.9c1.728,1.344,3.413,2.688,5.12,4.075,1.685,1.365,3.392,2.731,5.077,4.117l10.005,8.384c6.613,5.653,13.184,11.371,19.648,17.173l-1.92.555c1.984-6.741,4.011-13.483,6.208-20.181,1.088-3.349,2.133-6.7,3.264-10.048,1.152-3.328,2.24-6.677,3.456-9.984-.747,3.435-1.621,6.848-2.432,10.283-.832,3.413-1.749,6.805-2.624,10.219-1.749,6.827-3.648,13.589-5.568,20.352l-.512,1.792-1.408-1.237c-6.549-5.739-12.992-11.563-19.392-17.451l-9.515-8.939c-1.579-1.493-3.136-3.029-4.693-4.544s-3.115-3.029-4.651-4.587Z" transform="translate(-429.3 -167.145)" fill="#005948"/>
              <path id="Trazado_862530" data-name="Trazado 862530" d="M446.37,368.857c9,3.648,17.92,7.488,26.88,11.243l26.731,11.584c8.917,3.84,17.771,7.829,26.645,11.733l26.56,11.947-2.389.917,11.968-26.9c4.075-8.939,8.043-17.92,12.181-26.816L587.3,335.811c4.245-8.853,8.363-17.771,12.715-26.581-3.584,9.152-7.381,18.2-11.072,27.307l-11.435,27.157c-3.776,9.067-7.744,18.048-11.605,27.072l-11.819,26.987-.725,1.685-1.664-.768-26.475-12.139c-8.789-4.1-17.621-8.128-26.389-12.331l-26.3-12.5c-8.725-4.288-17.493-8.448-26.155-12.843Z" transform="translate(-409.954 -39.939)" fill="#005948"/>
            </g>
          </g>
          <g id="Grupo_1088310" data-name="Grupo 1088310" transform="translate(0 250.394)">
            <g id="Grupo_1088308" data-name="Grupo 1088308">
              <path id="Trazado_862531" data-name="Trazado 862531" d="M670.366,503.593c-48.64-45.355-83.8,4.523-84.245-57.323-.427-61.867-46.421-69.312-75.52-64.576-28.715,4.672-20.608-121.621-98.667-92.928l-.32-.512c-.405.363-.789.725-1.195,1.088-.512.192-1,.363-1.493.576l.32.512c-60.779,56.768,55.637,106.411,38.528,129.941-17.323,23.851-31.381,68.267,23.637,96.512,55.04,28.245-5.355,37.184,13.248,101.035s95.893,42.624,95.893,42.624l49.664-11.136.576.917,1.067-1.28,1.621-.363-.576-.917,32.32-39.317s53.76-59.456,5.12-104.811Z" transform="translate(-391.521 -284.52)" fill="#0e8e7f"/>
              <path id="Trazado_862532" data-name="Trazado 862532" d="M661.12,503.593c-48.64-45.355-83.8,4.523-84.245-57.323-.427-61.867-46.421-69.312-75.52-64.576-28.715,4.672-20.608-121.621-98.667-92.928l-.32-.512c-.405.363-.789.725-1.195,1.088-.512.192-1,.363-1.493.576l.32.512-.107.107,224,358.208.341-.085-.576-.917,32.32-39.317s53.76-59.456,5.12-104.811Z" transform="translate(-382.275 -284.52)" fill="#0baa99"/>
            </g>
            <g id="Grupo_1088309" data-name="Grupo 1088309" transform="translate(27.539 31.34)">
              <path id="Trazado_862533" data-name="Trazado 862533" d="M407.15,299.231s15.275,24.256,38.187,60.608c23,36.309,53.653,84.736,84.309,133.163,30.805,48.341,61.589,96.683,84.693,132.928,23.189,36.2,38.635,60.331,38.635,60.331l-8.171,5.077s-14.763-24.555-36.907-61.419c-22.229-36.8-51.861-85.845-81.493-134.912-29.781-48.981-59.541-97.941-81.877-134.677-22.421-36.672-37.355-61.12-37.355-61.12Z" transform="translate(-401.347 -299.21)" fill="#005948"/>
              <path id="Trazado_862534" data-name="Trazado 862534" d="M423.961,402.968c5.632.789,11.221,1.771,16.811,2.645l8.384,1.472,8.384,1.493c5.589.96,11.157,2.027,16.725,3.093,5.568,1.045,11.136,2.2,16.7,3.285l-1.877,1.28,3.264-18.453,1.728-9.216c.576-3.072,1.131-6.144,1.771-9.195l3.691-18.368c1.344-6.1,2.581-12.224,4.032-18.325-.7,6.208-1.621,12.395-2.432,18.6l-2.773,18.539c-.448,3.093-.96,6.165-1.451,9.259l-1.515,9.237-3.179,18.475-.277,1.621-1.6-.341c-5.547-1.173-11.115-2.261-16.661-3.5-5.547-1.195-11.093-2.389-16.619-3.669l-8.3-1.9-8.3-1.92c-5.5-1.365-11.029-2.645-16.533-4.117Z" transform="translate(-382.319 -249.944)" fill="#005948"/>
              <path id="Trazado_862535" data-name="Trazado 862535" d="M404.43,323.139c1.749.811,3.5,1.643,5.227,2.5l5.184,2.56,10.3,5.248q10.24,5.344,20.373,10.923l-1.557.853c.384-6.229.811-12.437,1.365-18.645.277-3.115.512-6.208.832-9.323.341-3.093.619-6.208,1-9.3.043,3.115-.043,6.229-.064,9.365-.043,3.115-.171,6.229-.256,9.344-.149,6.229-.448,12.459-.789,18.688l-.085,1.643-1.451-.789q-10.176-5.472-20.2-11.221l-9.984-5.824-4.949-2.987c-1.643-1-3.307-2.005-4.928-3.029Z" transform="translate(-404.43 -289.305)" fill="#005948"/>
              <path id="Trazado_862536" data-name="Trazado 862536" d="M446.421,473.892c8.491,1.365,16.96,2.923,25.429,4.373l25.365,4.715c8.469,1.536,16.9,3.264,25.323,4.907l25.323,4.992-1.877,1.259,5.056-25.6c1.728-8.533,3.307-17.088,5.141-25.579l5.376-25.536c1.9-8.491,3.712-17,5.717-25.472-1.28,8.619-2.773,17.173-4.16,25.771l-4.5,25.707c-1.451,8.576-3.157,17.109-4.715,25.664l-4.8,25.643-.3,1.6-1.579-.341L521.963,490.7c-8.405-1.771-16.853-3.477-25.237-5.376l-25.195-5.568c-8.384-1.963-16.768-3.84-25.131-5.909Z" transform="translate(-356.864 -194.105)" fill="#005948"/>
            </g>
          </g>
        </g>
      </g>
    </g>
    <g id="Enmascarar_grupo_1078769" data-name="Enmascarar grupo 1078769" transform="translate(52 6561.848)" opacity="0.44" clip-path="url(#clip-path-7)">
      <g id="Grupo_1088327" data-name="Grupo 1088327" transform="translate(442.923 8327.03)">
        <g id="Grupo_1088326" data-name="Grupo 1088326" transform="translate(0 0)">
          <g id="Grupo_1088317" data-name="Grupo 1088317" transform="translate(405.394)">
            <g id="Grupo_1088314" data-name="Grupo 1088314" transform="translate(106.067)">
              <path id="Trazado_862537" data-name="Trazado 862537" d="M771.026,607.55c-.056.538-.1,1.066-.157,1.593-1.682,16.612-3.892,32.585-11.621,47.426-8.536,16.411-23.365,28.648-38.9,38.732-.168.112-.325.213-.494.325-13.1,8.458-26.349,15.334-38.923,24.105-.527.191-1.054.359-1.593.527a.693.693,0,0,1-.258.079c.437-.415.852-.841,1.267-1.268.09-.09.168-.168.236-.247,1.963-2,3.814-4.105,5.564-6.282.527-.639,1.032-1.279,1.537-1.929,18.25-23.6,26.786-53.842,46.349-76.377a99.7,99.7,0,0,1,36.41-26.416c.191-.1.393-.168.583-.258Z" transform="translate(-671.845 -603.041)" fill="#00988b"/>
              <path id="Trazado_862538" data-name="Trazado 862538" d="M772.111,607.867c-.325.449-.639.9-.965,1.357Q760.732,623.778,750,638.276c-10.555,14.279-21.3,28.458-32.137,42.378-7.874,10.14-15.109,19.159-23.8,26.932-2.019,1.806-4.139,3.578-6.2,5.283-2.356,1.952-4.745,3.926-7.022,6.023-.022,0-.056.034-.078.067a.556.556,0,0,0-.079.09c-.527.46-1.032.942-1.526,1.425-.752.236-1.5.471-2.266.684A100.6,100.6,0,0,1,685,713.8c.471-.4.942-.8,1.413-1.189.247-.191.494-.4.74-.606,2.042-1.694,4.173-3.466,6.181-5.25,8.6-7.706,15.816-16.7,23.657-26.8,11.239-14.459,22.4-29.187,33.359-44.038q10.331-13.965,20.37-28.042c.157-.224.325-.449.482-.673a.557.557,0,0,1,.785-.123.548.548,0,0,1,.123.785Z" transform="translate(-672.112 -603.111)" fill="#001e1a"/>
              <g id="Grupo_1088313" data-name="Grupo 1088313">
                <path id="Trazado_862539" data-name="Trazado 862539" d="M715.961,636.014c-.583,15.008-3.354,30.028-9.265,43.825-5.182,12.092-12.7,23.69-21.178,34.391-1.391,1.739-2.8,3.466-4.229,5.16a.564.564,0,0,0-.079.09.619.619,0,0,1-.078.1c-.336.393-.662.785-1.01,1.189a.692.692,0,0,1-.258.078.848.848,0,0,1-.179.067c-.751.236-1.5.471-2.266.684-.359.112-.718.224-1.077.314-.437.123-.864.247-1.3.348-.8.224-1.6.426-2.412.606,1.066-6.023.953-12.339.875-18.486-.157-12.35-.034-24.756,1.918-36.96s5.777-24.24,12.574-34.56c6.955-10.566,16.68-18.923,26.528-26.921.774-.617,1.537-1.245,2.311-1.873.224-.168.46-.359.684-.538-2.3,11.262-1.077,21.021-1.537,32.5Z" transform="translate(-672.63 -603.53)" fill="#b0eec5"/>
                <path id="Trazado_862540" data-name="Trazado 862540" d="M716.689,604.916c-2.871,2.647-4.722,6.259-6.371,9.725-10.365,21.727-16.758,45.429-22.961,68.345-3.309,12.294-6.753,24.98-10.757,37.252-.179.539-.348,1.077-.538,1.6-.437.123-.864.247-1.3.348.269-.752.538-1.526.785-2.311,3.993-12.238,7.414-24.935,10.735-37.207,6.214-22.961,12.619-46.708,23.029-68.525a38.65,38.65,0,0,1,4.935-8.278,18.022,18.022,0,0,1,1.683-1.784.548.548,0,0,1,.628-.09.444.444,0,0,1,.168.112.567.567,0,0,1-.034.8Z" transform="translate(-672.371 -603.481)" fill="#001e1a"/>
              </g>
            </g>
            <g id="Grupo_1088316" data-name="Grupo 1088316" transform="translate(0 15.143)">
              <path id="Trazado_862541" data-name="Trazado 862541" d="M578.831,635.95c.224.438.426.886.639,1.324,6.753,13.741,13.741,26.764,25.115,37.061,12.574,11.385,29.22,17.173,45.8,20.875.179.034.348.079.527.123,13.965,3.1,27.538,4.779,41.155,8.312.516,0,1.021-.034,1.537-.056a1.809,1.809,0,0,0,.247,0c-.5-.213-1-.449-1.492-.684-.1-.045-.2-.09-.292-.135q-3.483-1.649-6.786-3.623c-.662-.381-1.3-.774-1.941-1.167-23.219-14.47-40.2-37.734-64.206-50.869A91.406,91.406,0,0,0,579.4,636.017c-.191-.022-.393-.022-.583-.034Z" transform="translate(-577.98 -614.727)" fill="#00988b"/>
              <path id="Trazado_862542" data-name="Trazado 862542" d="M578.294,636.474c.426.28.841.572,1.268.852q13.595,9.187,27.437,18.228c13.629,8.906,27.392,17.656,41.144,26.181,10.006,6.2,19.1,11.654,29.052,15.558,2.311.909,4.7,1.75,7.011,2.557,2.647.92,5.328,1.862,7.953,2.939a.113.113,0,0,1,.09.034.7.7,0,0,0,.1.045c.595.224,1.189.471,1.772.74.729-.034,1.447-.078,2.176-.135a92.886,92.886,0,0,0-9.321-3.747c-.527-.2-1.065-.381-1.593-.572-.28-.09-.55-.191-.83-.292-2.3-.808-4.689-1.649-6.988-2.546-9.86-3.881-18.923-9.31-28.884-15.479C634.4,672,620.112,662.89,605.956,653.625q-13.343-8.716-26.45-17.6c-.213-.135-.426-.28-.628-.426a.532.532,0,0,0-.718.135.519.519,0,0,0,.135.718Z" transform="translate(-578.071 -614.781)" fill="#001e1a"/>
              <g id="Grupo_1088315" data-name="Grupo 1088315" transform="translate(46.112)">
                <path id="Trazado_862543" data-name="Trazado 862543" d="M630.857,644.478c5.283,12.72,12.462,24.745,21.94,34.717,8.312,8.738,18.474,16.321,29.176,22.8,1.75,1.043,3.511,2.086,5.283,3.085a.7.7,0,0,0,.1.045.294.294,0,0,0,.1.056c.415.236.819.471,1.245.7a1.809,1.809,0,0,0,.247,0h.179c.729-.034,1.447-.079,2.176-.135.348-.011.684-.045,1.032-.078.415-.034.819-.067,1.234-.112.763-.056,1.514-.146,2.266-.247-2.838-4.835-4.756-10.308-6.652-15.614-3.8-10.667-7.863-21.29-13.438-31.161s-12.709-18.99-21.828-25.7c-9.344-6.865-20.37-10.948-31.4-14.683-.864-.292-1.716-.572-2.58-.875-.247-.078-.5-.168-.763-.247,5.564,8.951,7.628,17.723,11.688,27.448Z" transform="translate(-619.18 -617.03)" fill="#b0eec5"/>
                <path id="Trazado_862544" data-name="Trazado 862544" d="M620.033,618.1c3.309,1.368,6.057,3.881,8.581,6.326,15.838,15.379,28.9,33.7,41.537,51.419,6.764,9.512,13.775,19.316,21.133,28.592.325.415.639.819.976,1.211.415-.034.819-.067,1.234-.112-.471-.561-.953-1.144-1.413-1.727-7.336-9.254-14.324-19.069-21.088-28.559-12.664-17.757-25.754-36.13-41.66-51.565a35.192,35.192,0,0,0-6.887-5.541,17.6,17.6,0,0,0-2.008-1,.513.513,0,0,0-.572.123.47.47,0,0,0-.1.157.511.511,0,0,0,.28.673Z" transform="translate(-619.114 -617.021)" fill="#001e1a"/>
              </g>
            </g>
          </g>
          <g id="Grupo_1088322" data-name="Grupo 1088322" transform="translate(0 3.096)">
            <g id="Grupo_1088319" data-name="Grupo 1088319" transform="translate(87.402 6.035)">
              <path id="Trazado_862545" data-name="Trazado 862545" d="M413.876,625.271c-.157.516-.314,1.032-.471,1.526-4.969,15.939-10.308,31.15-20.841,44.15-11.643,14.38-28.6,23.41-45.844,30.2-.191.067-.37.146-.55.213-14.526,5.676-28.873,9.77-42.95,15.872-.561.079-1.11.135-1.671.191a1.1,1.1,0,0,1-.269.034c.5-.325,1.01-.651,1.492-.987a1.385,1.385,0,0,0,.28-.2c2.322-1.57,4.565-3.264,6.708-5.048.639-.516,1.268-1.054,1.9-1.582,22.591-19.5,36.983-47.426,60.639-65.608a99.743,99.743,0,0,1,40.953-18.631c.2-.056.415-.09.628-.135Z" transform="translate(-293.765 -610.016)" fill="#00988b"/>
              <path id="Trazado_862546" data-name="Trazado 862546" d="M414.9,625.726c-.4.381-.808.752-1.223,1.133q-13.107,12.182-26.506,24.251c-13.191,11.89-26.551,23.634-39.944,35.12-9.736,8.368-18.62,15.76-28.693,21.649-2.333,1.368-4.767,2.681-7.134,3.937-2.692,1.436-5.429,2.905-8.076,4.509a.171.171,0,0,0-.09.045.786.786,0,0,0-.1.067c-.606.348-1.2.718-1.784,1.1-.785.09-1.57.157-2.367.224a103.414,103.414,0,0,1,9.411-5.6c.538-.3,1.088-.595,1.615-.886.28-.146.561-.3.841-.449,2.344-1.256,4.778-2.557,7.1-3.915,9.972-5.844,18.822-13.214,28.525-21.537,13.9-11.924,27.773-24.139,41.469-36.511q12.905-11.626,25.552-23.41c.2-.179.4-.381.606-.561a.566.566,0,0,1,.8.034.556.556,0,0,1-.034.8Z" transform="translate(-294.045 -610.078)" fill="#001e1a"/>
              <g id="Grupo_1088318" data-name="Grupo 1088318">
                <path id="Trazado_862547" data-name="Trazado 862547" d="M354.378,643.19c-3.556,14.593-9.265,28.749-17.813,41.1-7.493,10.813-17.162,20.684-27.605,29.478-1.7,1.425-3.432,2.838-5.171,4.206a.782.782,0,0,0-.1.067.788.788,0,0,1-.1.078c-.4.325-.808.639-1.223.965a1.105,1.105,0,0,1-.269.034.556.556,0,0,1-.191.022c-.785.09-1.57.157-2.367.224-.37.045-.752.067-1.122.09-.449.034-.9.067-1.346.09-.83.067-1.66.09-2.49.112,2.243-5.687,3.4-11.9,4.543-17.936,2.311-12.137,4.9-24.274,9.243-35.838s10.5-22.6,19.2-31.363c8.918-8.974,20.112-15.221,31.363-21.088.886-.449,1.75-.909,2.636-1.368.258-.123.516-.258.774-.393-4.5,10.578-5.25,20.381-7.987,31.542Z" transform="translate(-294.58 -611.67)" fill="#b0eec5"/>
                <path id="Trazado_862548" data-name="Trazado 862548" d="M361.263,612.942c-3.343,2.03-5.878,5.194-8.188,8.256-14.481,19.226-25.474,41.178-36.119,62.389-5.7,11.385-11.587,23.13-17.958,34.369-.28.494-.55.987-.841,1.469-.449.034-.9.067-1.346.09.415-.684.83-1.391,1.234-2.1,6.349-11.206,12.238-22.95,17.925-34.313,10.667-21.256,21.682-43.253,36.231-62.569a38.989,38.989,0,0,1,6.483-7.134,19.4,19.4,0,0,1,2-1.413.537.537,0,0,1,.628.045.421.421,0,0,1,.135.146.566.566,0,0,1-.191.774Z" transform="translate(-294.309 -611.641)" fill="#001e1a"/>
              </g>
            </g>
            <g id="Grupo_1088321" data-name="Grupo 1088321">
              <path id="Trazado_862549" data-name="Trazado 862549" d="M217.43,616.78c.123.471.247.953.37,1.425,3.881,14.818,8.132,28.962,17.229,41.324,10.05,13.662,25.216,22.647,40.718,29.591.168.079.325.146.494.224,13.068,5.81,26.035,10.174,38.665,16.343.5.1,1.01.179,1.526.247a1.593,1.593,0,0,0,.247.045c-.449-.314-.9-.639-1.324-.965-.09-.067-.179-.123-.258-.191a75.453,75.453,0,0,1-5.923-4.9c-.572-.5-1.122-1.021-1.671-1.537-19.877-18.811-31.879-44.992-52.776-62.647A91.155,91.155,0,0,0,237.172,624.1,89.85,89.85,0,0,0,218,616.948c-.191-.056-.381-.1-.572-.146Z" transform="translate(-216.568 -605.013)" fill="#00988b"/>
              <path id="Trazado_862550" data-name="Trazado 862550" d="M216.817,617.166c.359.359.707.729,1.066,1.088q11.492,11.711,23.253,23.331c11.587,11.441,23.32,22.771,35.1,33.853,8.57,8.076,16.4,15.221,25.362,21.043,2.086,1.357,4.262,2.647,6.36,3.915,2.412,1.436,4.846,2.894,7.213,4.464a.143.143,0,0,1,.079.045c.034.022.056.045.09.067.538.336,1.077.707,1.582,1.077q1.077.168,2.154.3a92.549,92.549,0,0,0-8.39-5.53c-.482-.3-.965-.583-1.447-.875-.258-.146-.5-.292-.752-.449-2.1-1.245-4.274-2.546-6.338-3.881-8.884-5.766-16.691-12.9-25.216-20.931-12.227-11.509-24.419-23.275-36.444-35.188q-11.34-11.189-22.412-22.524c-.179-.179-.359-.359-.527-.538a.515.515,0,0,0-.729,0,.5.5,0,0,0,0,.729Z" transform="translate(-216.661 -605.074)" fill="#001e1a"/>
              <g id="Grupo_1088320" data-name="Grupo 1088320" transform="translate(49.421)">
                <path id="Trazado_862551" data-name="Trazado 862551" d="M266.71,635.5c2.647,13.517,7.28,26.73,14.582,38.4,6.4,10.219,14.851,19.675,24.038,28.155,1.5,1.38,3.029,2.748,4.565,4.072.034.022.056.045.09.067a.64.64,0,0,0,.09.079c.359.314.718.617,1.077.931a1.587,1.587,0,0,0,.247.045.9.9,0,0,0,.168.034q1.077.168,2.154.3c.348.056.684.1,1.021.135.415.056.819.1,1.234.135.752.09,1.514.157,2.277.213-1.817-5.306-2.614-11.049-3.41-16.624-1.6-11.217-3.466-22.434-6.955-33.214s-8.66-21.144-16.276-29.534c-7.785-8.592-17.779-14.8-27.841-20.639-.785-.449-1.57-.909-2.356-1.368-.236-.123-.46-.258-.7-.393,3.668,9.882,3.948,18.89,5.99,29.22Z" transform="translate(-260.72 -606.29)" fill="#b0eec5"/>
                <path id="Trazado_862552" data-name="Trazado 862552" d="M261.374,607.482c2.973,2,5.16,5,7.145,7.908,12.462,18.228,21.6,38.788,30.454,58.665,4.734,10.667,9.647,21.682,15.008,32.238.236.471.471.931.718,1.38.415.056.819.1,1.234.135-.359-.639-.707-1.312-1.043-1.974-5.351-10.522-10.241-21.537-14.975-32.182-8.873-19.921-18.037-40.527-30.544-58.833a35.366,35.366,0,0,0-5.642-6.809,16.3,16.3,0,0,0-1.772-1.38.525.525,0,0,0-.583,0,.478.478,0,0,0-.135.123.521.521,0,0,0,.135.718Z" transform="translate(-260.668 -606.26)" fill="#001e1a"/>
              </g>
            </g>
          </g>
          <g id="Grupo_1088323" data-name="Grupo 1088323" transform="translate(491.285 10.286)">
            <path id="Trazado_862553" data-name="Trazado 862553" d="M658.128,645.577A28.189,28.189,0,0,0,681.706,612.7c-1.84,1.514-4.24,2.154-6.506,2.916-6.416,2.165-12.507,5.855-16.444,11.374s-5.429,13.012-2.782,19.248l2.154-.662Z" transform="translate(-654.643 -612.7)" fill="#00988b"/>
            <path id="Trazado_862554" data-name="Trazado 862554" d="M655.97,645.328s2.7-12.092,12.26-15.681,9.22-9.927,9.22-9.927" transform="translate(-654.482 -611.846)" fill="none" stroke="#001e1a" stroke-linecap="round" stroke-linejoin="round" stroke-width="1"/>
          </g>
          <g id="Grupo_1088324" data-name="Grupo 1088324" transform="translate(95.164 9.052)">
            <path id="Trazado_862555" data-name="Trazado 862555" d="M322.981,645.89A28.2,28.2,0,0,0,301.5,611.6c.707,2.288.381,4.734.236,7.123-.426,6.764.673,13.8,4.274,19.529s9.983,9.961,16.758,9.882l.213-2.243Z" transform="translate(-301.5 -611.6)" fill="#00988b"/>
            <path id="Trazado_862556" data-name="Trazado 862556" d="M322.156,647.241s-10.163-7.089-9.86-17.3-5.676-12.294-5.676-12.294" transform="translate(-300.877 -610.864)" fill="none" stroke="#001e1a" stroke-linecap="round" stroke-linejoin="round" stroke-width="1"/>
          </g>
          <g id="Grupo_1088325" data-name="Grupo 1088325" transform="translate(513.761 45.254)">
            <path id="Trazado_862557" data-name="Trazado 862557" d="M703.867,671.9a28.184,28.184,0,0,0-29.187-28.009c1.245,2.042,1.526,4.5,1.963,6.854,1.234,6.663,4.016,13.214,8.906,17.9s12.1,7.224,18.654,5.5l-.348-2.232Z" transform="translate(-674.68 -643.875)" fill="#00988b"/>
            <path id="Trazado_862558" data-name="Trazado 862558" d="M703.409,673.4s-11.587-4.4-13.786-14.369-8.514-10.544-8.514-10.544" transform="translate(-673.898 -643.313)" fill="none" stroke="#001e1a" stroke-linecap="round" stroke-linejoin="round" stroke-width="1"/>
          </g>
        </g>
      </g>
    </g>
  </g>
</svg>
