<svg xmlns="http://www.w3.org/2000/svg" xmlns:xlink="http://www.w3.org/1999/xlink" width="1600" height="925" viewBox="0 0 1600 925">
  <defs>
    <clipPath id="clip-path">
      <rect id="Rectángulo_357127" data-name="Rectángulo 357127" width="925" height="1600" transform="translate(0 925) rotate(-90)" fill="none"/>
    </clipPath>
    <linearGradient id="linear-gradient" x1="0.065" y1="0.399" x2="1.239" y2="0.45" gradientUnits="objectBoundingBox">
      <stop offset="0" stop-color="#d32c5e"/>
      <stop offset="0.2" stop-color="#222b83"/>
      <stop offset="0.4" stop-color="#e10079"/>
      <stop offset="0.6" stop-color="#e21b25"/>
      <stop offset="0.8" stop-color="#ffe800"/>
      <stop offset="1" stop-color="#009040"/>
    </linearGradient>
  </defs>
  <g id="bg-4" transform="translate(0 -15169)">
    <g id="BACKGROUND" transform="translate(0 15169)">
      <rect id="Rectángulo_357114" data-name="Rectángulo 357114" width="925" height="1600" transform="translate(0 925) rotate(-90)" fill="#fcf7f1"/>
    </g>
    <g id="Grupo_1074661" data-name="Grupo 1074661" transform="translate(0 15169)" clip-path="url(#clip-path)">
      <g id="Grupo_1074651" data-name="Grupo 1074651" transform="translate(-204.149 448.765)" opacity="0.09">
        <g id="Grupo_1074649" data-name="Grupo 1074649" transform="translate(0)">
          <path id="Trazado_779132" data-name="Trazado 779132" d="M107.487,414.441c37.76,31.765,81.28,50.731,130.112,57.451,12.075,1.664,24.235,2.773,36.779,4.181a3.178,3.178,0,0,0,.043.448l40.555-40.555c-3.541-3.093-8.661-4.715-15.723-5.056-15.275-.747-30.613-1.408-45.781-3.349-37.141-4.779-71.765-17-102.635-38.485-12.245-8.533-23.488-18.517-34.923-28.16-4.352-3.669-8.789-5.568-13.184-5.7v56.768c1.429.107,2.88.9,4.757,2.453Z" transform="translate(116.403 -355.212)" fill="#f5d835"/>
          <path id="Trazado_779133" data-name="Trazado 779133" d="M314.964,393.07l-40.555,40.555c.107,1.323.277,2.709.277,4.117-.128,36.523.875,73.109-.725,109.568-1.856,41.813-9.536,82.667-28.523,120.683-19.5,39.04-48.661,69.077-86.229,90.624-17.195,9.877-35.819,17.323-53.845,25.749a7.282,7.282,0,0,1-2.624.576V835.31h3.755c18.219-7.808,36.928-14.72,54.613-23.616,74.752-37.611,123.947-96.469,145.685-177.707,10.624-39.7,14.592-80.3,15.019-121.237.341-34.219-.448-68.437-.747-102.635-.064-8-2.048-13.483-6.1-17.024Z" transform="translate(116.414 -312.315)" fill="#73c6fd"/>
          <path id="Trazado_779134" data-name="Trazado 779134" d="M216.819,784.779c-34.539-12.715-66.6-29.739-94.037-54.677C88.051,698.529,67.1,659.169,56.5,613.814c-8.7-37.227-10.88-75.051-10.731-113.088.085-20.757.469-41.515.747-62.272,0-1.6.149-3.179.213-4.928.149,0,.277-.043.427-.043L6.622,392.95C2.59,396.193.264,401.014.264,407.222c-.107,43.221-.6,86.464.171,129.685a408.867,408.867,0,0,0,12.117,89.856C33.5,712.673,84.275,774.646,163.336,813.494c16.7,8.213,34.261,14.7,51.435,21.995h4.416V785.121a5.819,5.819,0,0,1-2.325-.277Z" transform="translate(-0.012 -312.451)" fill="#81e0a4"/>
          <path id="Trazado_779135" data-name="Trazado 779135" d="M85.265,471.043Q155.6,460.355,210.171,414.51c2.155-1.813,3.8-2.645,5.483-2.517V355.224c-4.672-.149-9.323,1.728-13.8,5.739-2.155,1.941-4.224,3.947-6.357,5.909-39.723,36.181-86.635,56.235-139.819,61.845-13.013,1.365-26.133,1.6-39.232,2.325-5.5.3-10.005,1.941-13.333,4.629l40.533,40.533c14.208-1.728,27.968-3.072,41.621-5.163Z" transform="translate(3.5 -355.216)" fill="#de5b3a"/>
        </g>
        <g id="Grupo_1074650" data-name="Grupo 1074650" transform="translate(107.666 150.109)">
          <path id="Trazado_779136" data-name="Trazado 779136" d="M145.523,453.527a27.947,27.947,0,0,0-55.893,0V509.1H145.5V453.527Z" transform="translate(-6.11 -425.58)" fill="#73c6fd"/>
          <path id="Trazado_779137" data-name="Trazado 779137" d="M89.63,546.5a27.947,27.947,0,0,0,55.893,0V490.93H89.651V546.5Z" transform="translate(-6.11 -351.517)" fill="#de5b3a"/>
          <path id="Trazado_779138" data-name="Trazado 779138" d="M78.427,464.73a27.947,27.947,0,0,0,0,55.893H134V464.751H78.427Z" transform="translate(-50.48 -381.21)" fill="#73c6fd"/>
          <path id="Trazado_779139" data-name="Trazado 779139" d="M171.4,464.741H115.83v55.872H171.4a27.947,27.947,0,0,0,0-55.893Z" transform="translate(23.583 -381.221)" fill="#de5b3a"/>
          <rect id="Rectángulo_357119" data-name="Rectángulo 357119" width="55.872" height="55.872" transform="translate(83.52 83.52)" fill="#2d3860"/>
        </g>
      </g>
      <g id="Grupo_1074655" data-name="Grupo 1074655" transform="translate(1372.352 -42.027)">
        <g id="Grupo_1074652" data-name="Grupo 1074652" transform="translate(4.075 0)" opacity="0.11">
          <path id="Trazado_779140" data-name="Trazado 779140" d="M744.295,52.96a34.795,34.795,0,1,0,0,69.589H813.5V52.981H744.295Z" transform="translate(-709.5 51.019)" fill="#f5d835"/>
          <path id="Trazado_779141" data-name="Trazado 779141" d="M860.055,122.549a34.795,34.795,0,1,0,0-69.589H790.85v69.568h69.205Z" transform="translate(-617.303 51.019)" fill="#de5b3a"/>
          <path id="Trazado_779142" data-name="Trazado 779142" d="M758.24,154.775a34.795,34.795,0,0,0,69.589,0V85.57H758.261v69.205Z" transform="translate(-654.261 87.977)" fill="#de5b3a"/>
          <path id="Trazado_779143" data-name="Trazado 779143" d="M758.251,39.015V108.22h69.568V39.015a34.795,34.795,0,0,0-69.589,0Z" transform="translate(-654.273 -4.22)" fill="#f5d835"/>
          <rect id="Rectángulo_357120" data-name="Rectángulo 357120" width="69.568" height="69.568" transform="translate(103.979 103.979)" fill="#2d3860"/>
        </g>
        <g id="Grupo_1074653" data-name="Grupo 1074653" transform="translate(0 263.765)" opacity="0.11">
          <path id="Trazado_779144" data-name="Trazado 779144" d="M716.379,140.16a8.789,8.789,0,0,0,0,17.579h17.472V140.181H716.379Z" transform="translate(-707.59 -113.92)" fill="#f5d835"/>
          <path id="Trazado_779145" data-name="Trazado 779145" d="M745.6,157.739a8.789,8.789,0,0,0,0-17.579H728.13v17.557H745.6Z" transform="translate(-684.311 -113.92)" fill="#de5b3a"/>
          <path id="Trazado_779146" data-name="Trazado 779146" d="M719.9,165.862a8.789,8.789,0,0,0,17.579,0V148.39H719.921v17.472Z" transform="translate(-693.639 -104.593)" fill="#de5b3a"/>
          <path id="Trazado_779147" data-name="Trazado 779147" d="M719.911,136.649v17.472h17.557V136.649a8.789,8.789,0,1,0-17.579,0Z" transform="translate(-693.65 -127.86)" fill="#f5d835"/>
          <rect id="Rectángulo_357121" data-name="Rectángulo 357121" width="17.557" height="17.557" transform="translate(26.261 26.24)" fill="#2d3860"/>
        </g>
        <g id="Grupo_1074654" data-name="Grupo 1074654" transform="translate(122.88 362.304)" opacity="0.11">
          <path id="Trazado_779148" data-name="Trazado 779148" d="M769.5,180.09a4.309,4.309,0,1,0,0,8.619h8.555V180.09H769.5Z" transform="translate(-765.19 -167.205)" fill="#f5d835"/>
          <path id="Trazado_779149" data-name="Trazado 779149" d="M783.825,188.709a4.309,4.309,0,1,0,0-8.619H775.27v8.619h8.555Z" transform="translate(-753.766 -167.205)" fill="#de5b3a"/>
          <path id="Trazado_779150" data-name="Trazado 779150" d="M771.22,192.685a4.309,4.309,0,0,0,8.619,0V184.13H771.22v8.555Z" transform="translate(-758.356 -162.626)" fill="#de5b3a"/>
          <path id="Trazado_779151" data-name="Trazado 779151" d="M771.22,178.359v8.555h8.619v-8.555a4.309,4.309,0,0,0-8.619,0Z" transform="translate(-758.356 -174.05)" fill="#f5d835"/>
          <rect id="Rectángulo_357122" data-name="Rectángulo 357122" width="8.619" height="8.619" transform="translate(12.864 12.885)" fill="#2d3860"/>
        </g>
        <g id="Grupo_1075906" data-name="Grupo 1075906" transform="translate(-108.12 71.304)" opacity="0.11">
          <path id="Trazado_779148-2" data-name="Trazado 779148" d="M769.5,180.09a4.309,4.309,0,1,0,0,8.619h8.555V180.09H769.5Z" transform="translate(-765.19 -167.205)" fill="#f5d835"/>
          <path id="Trazado_779149-2" data-name="Trazado 779149" d="M783.825,188.709a4.309,4.309,0,1,0,0-8.619H775.27v8.619h8.555Z" transform="translate(-753.766 -167.205)" fill="#de5b3a"/>
          <path id="Trazado_779150-2" data-name="Trazado 779150" d="M771.22,192.685a4.309,4.309,0,0,0,8.619,0V184.13H771.22v8.555Z" transform="translate(-758.356 -162.626)" fill="#de5b3a"/>
          <path id="Trazado_779151-2" data-name="Trazado 779151" d="M771.22,178.359v8.555h8.619v-8.555a4.309,4.309,0,0,0-8.619,0Z" transform="translate(-758.356 -174.05)" fill="#f5d835"/>
          <rect id="Rectángulo_357122-2" data-name="Rectángulo 357122" width="8.619" height="8.619" transform="translate(12.864 12.885)" fill="#2d3860"/>
        </g>
        <g id="Grupo_1075907" data-name="Grupo 1075907" transform="translate(7.88 851.304)" opacity="0.11">
          <path id="Trazado_779148-3" data-name="Trazado 779148" d="M769.5,180.09a4.309,4.309,0,1,0,0,8.619h8.555V180.09H769.5Z" transform="translate(-765.19 -167.205)" fill="#f5d835"/>
          <path id="Trazado_779149-3" data-name="Trazado 779149" d="M783.825,188.709a4.309,4.309,0,1,0,0-8.619H775.27v8.619h8.555Z" transform="translate(-753.766 -167.205)" fill="#de5b3a"/>
          <path id="Trazado_779150-3" data-name="Trazado 779150" d="M771.22,192.685a4.309,4.309,0,0,0,8.619,0V184.13H771.22v8.555Z" transform="translate(-758.356 -162.626)" fill="#de5b3a"/>
          <path id="Trazado_779151-3" data-name="Trazado 779151" d="M771.22,178.359v8.555h8.619v-8.555a4.309,4.309,0,0,0-8.619,0Z" transform="translate(-758.356 -174.05)" fill="#f5d835"/>
          <rect id="Rectángulo_357122-3" data-name="Rectángulo 357122" width="8.619" height="8.619" transform="translate(12.864 12.885)" fill="#2d3860"/>
        </g>
      </g>
      <g id="Grupo_1074660" data-name="Grupo 1074660" transform="translate(104.96 -42.56)">
        <g id="Grupo_1074656" data-name="Grupo 1074656" transform="translate(0 231.296)" opacity="0.2">
          <path id="Trazado_779152" data-name="Trazado 779152" d="M126.78,121.862a9.472,9.472,0,1,1,18.944,0V140.7H126.78Z" transform="translate(-98.449 -112.39)" fill="#f5d835"/>
          <path id="Trazado_779153" data-name="Trazado 779153" d="M145.724,153.377a9.472,9.472,0,1,1-18.944,0V134.54h18.944Z" transform="translate(-98.449 -87.287)" fill="#73c6fd"/>
          <path id="Trazado_779154" data-name="Trazado 779154" d="M154.5,125.66a9.472,9.472,0,0,1,0,18.944H135.66V125.66H154.5Z" transform="translate(-88.385 -97.351)" fill="#de5b3a"/>
          <path id="Trazado_779155" data-name="Trazado 779155" d="M122.972,125.66h18.837V144.6H122.972a9.472,9.472,0,0,1,0-18.944Z" transform="translate(-113.5 -97.351)" fill="#81e0a4"/>
          <rect id="Rectángulo_357123" data-name="Rectángulo 357123" width="18.944" height="18.944" transform="translate(28.331 28.309)" fill="#2d3860"/>
        </g>
        <g id="Grupo_1074657" data-name="Grupo 1074657" transform="translate(253.675 0)" opacity="0.2">
          <path id="Trazado_779156" data-name="Trazado 779156" d="M249.54,16.194a12.224,12.224,0,0,1,24.448,0v24.3H249.561v-24.3Z" transform="translate(-212.996 -3.97)" fill="#f5d835"/>
          <path id="Trazado_779157" data-name="Trazado 779157" d="M273.978,56.849a12.224,12.224,0,0,1-24.448,0V32.55h24.427v24.3Z" transform="translate(-213.007 28.421)" fill="#73c6fd"/>
          <path id="Trazado_779158" data-name="Trazado 779158" d="M285.289,21.09a12.224,12.224,0,1,1,0,24.448h-24.3V21.111h24.3Z" transform="translate(-200.019 15.433)" fill="#de5b3a"/>
          <path id="Trazado_779159" data-name="Trazado 779159" d="M244.634,21.1h24.3V45.528h-24.3a12.224,12.224,0,1,1,0-24.448Z" transform="translate(-232.41 15.421)" fill="#81e0a4"/>
          <rect id="Rectángulo_357124" data-name="Rectángulo 357124" width="24.427" height="24.427" transform="translate(36.544 36.523)" fill="#2d3860"/>
        </g>
        <g id="Grupo_1074658" data-name="Grupo 1074658" transform="translate(185.899 87.637)" opacity="0.3">
          <path id="Trazado_779160" data-name="Trazado 779160" d="M207.9,50.234a5.184,5.184,0,1,1,10.368,0v10.3H207.9v-10.3Z" transform="translate(-192.412 -45.05)" fill="#f5d835"/>
          <path id="Trazado_779161" data-name="Trazado 779161" d="M218.268,67.484a5.184,5.184,0,1,1-10.368,0V57.18h10.368v10.3Z" transform="translate(-192.412 -31.303)" fill="#f5d835"/>
          <path id="Trazado_779162" data-name="Trazado 779162" d="M223.064,52.31a5.184,5.184,0,0,1,0,10.368h-10.3V52.31Z" transform="translate(-186.904 -36.822)" fill="#81e0a4"/>
          <path id="Trazado_779163" data-name="Trazado 779163" d="M205.824,52.31h10.3V62.678h-10.3a5.184,5.184,0,0,1,0-10.368Z" transform="translate(-200.64 -36.822)" fill="#81e0a4"/>
          <rect id="Rectángulo_357125" data-name="Rectángulo 357125" width="10.368" height="10.368" transform="translate(15.488 15.488)" fill="#de5b3a"/>
        </g>
        <g id="Grupo_1074659" data-name="Grupo 1074659" transform="translate(481.067 116.352)" opacity="0.3">
          <path id="Trazado_779164" data-name="Trazado 779164" d="M341.91,60.579a2.069,2.069,0,0,1,4.139,0V64.7H341.91Z" transform="translate(-335.702 -58.51)" fill="#f5d835"/>
          <path id="Trazado_779165" data-name="Trazado 779165" d="M346.049,67.477a2.069,2.069,0,0,1-4.139,0V63.36h4.139Z" transform="translate(-335.702 -53.013)" fill="#f5d835"/>
          <path id="Trazado_779166" data-name="Trazado 779166" d="M347.967,61.42a2.069,2.069,0,0,1,0,4.139H343.85V61.42Z" transform="translate(-333.503 -55.212)" fill="#81e0a4"/>
          <path id="Trazado_779167" data-name="Trazado 779167" d="M341.069,61.42h4.117v4.139h-4.117a2.069,2.069,0,0,1,0-4.139Z" transform="translate(-339 -55.212)" fill="#81e0a4"/>
          <rect id="Rectángulo_357126" data-name="Rectángulo 357126" width="4.139" height="4.139" transform="translate(6.208 6.208)" fill="#de5b3a"/>
        </g>
      </g>
      <g id="Grupo_1075902" data-name="Grupo 1075902" transform="translate(1453.096 572.669)">
        <g id="Grupo_1074662" data-name="Grupo 1074662" transform="translate(112.299)">
          <path id="Trazado_779168" data-name="Trazado 779168" d="M790.34,386.256a4.48,4.48,0,0,1-8.96,0v-8.9h8.96v8.9Z" transform="translate(-768.004 -355.024)" fill="#f5d835"/>
          <path id="Trazado_779169" data-name="Trazado 779169" d="M781.38,371.37a4.48,4.48,0,1,1,8.96,0v8.9h-8.96v-8.9Z" transform="translate(-768.004 -366.89)" fill="#73c6fd"/>
          <path id="Trazado_779170" data-name="Trazado 779170" d="M779.59,382.12a4.48,4.48,0,0,1,0-8.96h8.9V382.1h-8.9Z" transform="translate(-775.11 -359.784)" fill="#de5b3a"/>
          <path id="Trazado_779171" data-name="Trazado 779171" d="M794.476,382.109h-8.9V373.17h8.9a4.48,4.48,0,0,1,0,8.96Z" transform="translate(-763.244 -359.773)" fill="#81e0a4"/>
        </g>
        <g id="Grupo_1074663" data-name="Grupo 1074663" transform="translate(0 74.176)">
          <path id="Trazado_779172" data-name="Trazado 779172" d="M754.861,442.884a9.525,9.525,0,1,1-19.051,0V423.94h19.051Z" transform="translate(-707.351 -376.409)" fill="#f5d835"/>
          <path id="Trazado_779173" data-name="Trazado 779173" d="M735.81,411.2a9.525,9.525,0,1,1,19.051,0V430.14H735.81Z" transform="translate(-707.351 -401.66)" fill="#73c6fd"/>
          <path id="Trazado_779174" data-name="Trazado 779174" d="M731.985,434.072a9.536,9.536,0,0,1,0-19.072h18.944v19.051H731.985Z" transform="translate(-722.47 -386.541)" fill="#de5b3a"/>
          <path id="Trazado_779175" data-name="Trazado 779175" d="M763.684,434.061H744.74V415.01h18.944a9.536,9.536,0,0,1,0,19.072Z" transform="translate(-697.23 -386.53)" fill="#81e0a4"/>
        </g>
        <g id="Grupo_1074664" data-name="Grupo 1074664" transform="translate(10.027 147.797)">
          <path id="Trazado_779176" data-name="Trazado 779176" d="M825.348,561.109a28.864,28.864,0,0,1-57.728,0V503.68h57.749v57.429Z" transform="translate(-681.327 -359.659)" fill="#f5d835"/>
          <path id="Trazado_779177" data-name="Trazado 779177" d="M767.621,465.034a28.864,28.864,0,0,1,57.728,0v57.429H767.6V465.034Z" transform="translate(-681.349 -436.17)" fill="#73c6fd"/>
          <path id="Trazado_779178" data-name="Trazado 779178" d="M756.034,534.348a28.864,28.864,0,1,1,0-57.728h57.429v57.749H756.034Z" transform="translate(-727.17 -390.327)" fill="#de5b3a"/>
          <path id="Trazado_779179" data-name="Trazado 779179" d="M852.1,534.359H794.67V476.61H852.1a28.864,28.864,0,1,1,0,57.728Z" transform="translate(-650.67 -390.338)" fill="#81e0a4"/>
        </g>
      </g>
      <g id="Grupo_1075903" data-name="Grupo 1075903" transform="translate(-19.968 -51.029)">
        <g id="Grupo_1074666" data-name="Grupo 1074666" transform="translate(0 152.811)">
          <path id="Trazado_779180" data-name="Trazado 779180" d="M74.04,85.262a13.632,13.632,0,0,1,27.264,0v27.093H74.061V85.262Z" transform="translate(-33.293 -71.63)" fill="#f5d835"/>
          <path id="Trazado_779181" data-name="Trazado 779181" d="M101.294,130.593a13.632,13.632,0,0,1-27.264,0V103.5h27.243v27.093Z" transform="translate(-33.305 -35.511)" fill="#73c6fd"/>
          <path id="Trazado_779182" data-name="Trazado 779182" d="M113.9,90.73a13.632,13.632,0,1,1,0,27.264H86.81V90.751H113.9Z" transform="translate(-18.821 -49.983)" fill="#de5b3a"/>
          <path id="Trazado_779183" data-name="Trazado 779183" d="M68.572,90.741H95.665v27.243H68.572a13.632,13.632,0,1,1,0-27.264Z" transform="translate(-54.94 -49.995)" fill="#81e0a4"/>
        </g>
        <g id="Grupo_1074667" data-name="Grupo 1074667" transform="translate(71.467 330.923)">
          <path id="Trazado_779184" data-name="Trazado 779184" d="M94.77,159.643a4.523,4.523,0,0,1,9.045,0v8.981H94.77v-8.981Z" transform="translate(-81.266 -155.12)" fill="#f5d835"/>
          <path id="Trazado_779185" data-name="Trazado 779185" d="M103.815,174.681a4.523,4.523,0,0,1-9.045,0V165.7h9.045v8.981Z" transform="translate(-81.266 -143.129)" fill="#73c6fd"/>
          <path id="Trazado_779186" data-name="Trazado 779186" d="M108,161.46a4.523,4.523,0,1,1,0,9.045H99V161.46h9Z" transform="translate(-76.472 -147.935)" fill="#de5b3a"/>
          <path id="Trazado_779187" data-name="Trazado 779187" d="M92.963,161.46h8.981v9.045H92.963a4.523,4.523,0,1,1,0-9.045Z" transform="translate(-88.44 -147.935)" fill="#81e0a4"/>
        </g>
        <g id="Grupo_1074668" data-name="Grupo 1074668" transform="translate(512.491 96)">
          <path id="Trazado_779188" data-name="Trazado 779188" d="M301.051,49.181a4.181,4.181,0,1,1,8.363,0v8.341H301.03V49.181Z" transform="translate(-288.529 -45)" fill="#f5d835"/>
          <path id="Trazado_779189" data-name="Trazado 779189" d="M309.413,63.131a4.181,4.181,0,1,1-8.363,0V54.79h8.384v8.341Z" transform="translate(-288.506 -33.905)" fill="#73c6fd"/>
          <path id="Trazado_779190" data-name="Trazado 779190" d="M313.3,50.881a4.181,4.181,0,1,1,0,8.363H304.96V50.86H313.3Z" transform="translate(-284.075 -38.359)" fill="#de5b3a"/>
          <path id="Trazado_779191" data-name="Trazado 779191" d="M299.351,50.87h8.341v8.384h-8.341a4.181,4.181,0,1,1,0-8.363Z" transform="translate(-295.17 -38.347)" fill="#81e0a4"/>
        </g>
        <g id="Grupo_1074669" data-name="Grupo 1074669" transform="translate(76.096)">
          <path id="Trazado_779192" data-name="Trazado 779192" d="M123.91,23.765a23.765,23.765,0,1,1,47.531,0V71.04H123.91Z" transform="translate(-52.87)" fill="#f5d835"/>
          <path id="Trazado_779193" data-name="Trazado 779193" d="M171.441,102.865a23.765,23.765,0,1,1-47.531,0V55.59h47.531Z" transform="translate(-52.87 63.002)" fill="#73c6fd"/>
          <path id="Trazado_779194" data-name="Trazado 779194" d="M193.475,33.3a23.765,23.765,0,0,1,0,47.531H146.2V33.3h47.275Z" transform="translate(-27.608 37.74)" fill="#de5b3a"/>
          <path id="Trazado_779195" data-name="Trazado 779195" d="M114.375,33.3H161.65V80.831H114.375a23.765,23.765,0,1,1,0-47.531Z" transform="translate(-90.61 37.74)" fill="#81e0a4"/>
        </g>
      </g>
      <path id="Trazado_830345" data-name="Trazado 830345" d="M143.622,453.469a.394.394,0,0,0,.146-.024,2.746,2.746,0,0,0,.559-.317c-2.95-3.645-5.888-7.3-8.884-10.907a15.48,15.48,0,0,0-3.723,7.7,1,1,0,0,0,.1.531,2.178,2.178,0,0,0,.341.513c.293.344.7.7,1.1,1.08a3.432,3.432,0,0,1,1.464,2.793l.657-.791c.629.594,1.023,1.067,1.451,1.53a8.432,8.432,0,0,0,1.672,1.393c.686-.9-.6-1.549.093-2.461a3.111,3.111,0,0,1,2.16.459c-1.714,1.207-.286,2.8-.969,4.162.43.721,2.543.373,3.351,1.484.991-1.113,1.984-1.752,2.381-2.911a2.628,2.628,0,0,0-.664-2.369,4.821,4.821,0,0,1-1.241-1.867Zm-.5,7.876a1.919,1.919,0,0,1,2.527.845c.066.709.364,1.432-.161,2.1a8.345,8.345,0,0,1-1.736.924,1.837,1.837,0,0,1-1.156.047c-.746-.864-1.746-1.155-1.024-2.63a2.567,2.567,0,0,1,1.55-1.281Zm19.557,13.266a2.3,2.3,0,0,0,.79,2c-1.059.705-.9,2.278-1.371,3.051a.8.8,0,0,0-.988-.292,4.91,4.91,0,0,0-.948.5,4.928,4.928,0,0,1-1.007.518,1.89,1.89,0,0,1-.234.06,3.184,3.184,0,0,1-1.115-.8,3.788,3.788,0,0,1-.777-1.26,3.632,3.632,0,0,1,.344-3.214c1.007-.362,1.952-1.706,2.832-1.992.427-.14.839-.029,1.235.564.381.407.575,1.025,1.237.866Zm-20.567,2.7c-1.185,1.63-3.924,1.98-4.538,2.856-.809-.584-.969-2.735-2.4-2.27a2.264,2.264,0,0,0-.467.222,2.758,2.758,0,0,1-1.051-3.493,2.53,2.53,0,0,1,1.159-.815,4.635,4.635,0,0,1,2.346.081,3.857,3.857,0,0,0,1.91.069,2.01,2.01,0,0,0,1.151-1.082c-.361.9.068,1.5,1.217,1.705l.668,2.724Zm31.242,6.887c-.655-.154-1.086-.975-1.874-1.175a1.676,1.676,0,0,1-.116-.456q.913.771,1.847,1.52Zm-8.7,12.561.952-1.386c.361.414.953.5.847,1.2a.9.9,0,0,1-.658.627c-.463.151-1.021.062-1.143-.442Zm116.026,35.555.129-.243a.4.4,0,0,1,.058-.027c.069-.023,0,.067.086.05C281,532.138,280.841,532.227,280.685,532.314ZM206.27,526.32a1.656,1.656,0,0,1,.418-.083,22.186,22.186,0,0,1-2.487,1.669c-.79.566-1.244,1.171-.455,1.962a2.7,2.7,0,0,1,1.628,2.705,5.02,5.02,0,0,0,.617,3.1,1.537,1.537,0,0,0-.312.068,1.512,1.512,0,0,0-.907,2.159,1.042,1.042,0,0,0,1.017.633c-.746.53-3.476,1.131-4.3,2.729-2.133.152-5.08.083-6.3.48l-.012,0c-.469.479.6.405-.026.965-.181-1.387-2.041-2.5-3.059-3.763l-.472.486c-1.648-.7-1.479-2.6-1.48-3.819-.231-.673-1.249-.093-1.552-.294.023-.362,2.464-1.54,1.6-2.862l-1.744-.463.065-.024a2.311,2.311,0,0,1,.986-.033,2.2,2.2,0,0,0,.928-.014,1.092,1.092,0,0,0,.626-.578,9.244,9.244,0,0,1,.064-1.686,1.719,1.719,0,0,0,.563-.084,2.173,2.173,0,0,0,.667-.371c.088-.069.174-.144.257-.224l.124-.123.061-.063.03-.032.007-.008v0h0c0-.015-.006-.018-.006-.019h0l0,0,.014-.017c.16-.174.315-.36.471-.545a3.725,3.725,0,0,1,1.559-1.274,1.9,1.9,0,0,1,.779-.081,1.59,1.59,0,0,0,.388.387,1.09,1.09,0,0,0,.2.106.812.812,0,0,0,.1.033h0s0,0,0,0v-.005l.012.032h0l.006,0,.013,0,.025.006.052.01a1.143,1.143,0,0,0,.523-.054,1.893,1.893,0,0,0,.294-.126,3.2,3.2,0,0,0,.4-.251c.066-.048.13-.1.193-.148l.047-.038.024-.019,0,0,0,.007-.007-.021c0-.011-.009-.021-.009-.021h0l.006,0,.012-.009.092-.079c.245-.211.47-.428.665-.591l-.084.208-.086.215-.006.014,0,.007v0l0,0,.006.014.009.023h0l-.012.03-.026.06c-.017.041-.035.081-.051.123l-.279.657a4.044,4.044,0,0,1,.829-.381,6.588,6.588,0,0,1,3.412.164l-.329.766a1.871,1.871,0,0,0,1.327.029,5.862,5.862,0,0,0,1.467-.834,5.692,5.692,0,0,1,1.4-.812Zm-2.795.157,1-.826c.093.391-.63.564-.883.864l-.116-.038Zm-9.043.065a.418.418,0,0,1-.237,0c.082-.206.166-.411.306-.458.088-.029.2,0,.343.139-.118.057-.223.254-.411.315Zm-68.122-27.32c-1.3.335-.431-.81-.516-1.264C126.487,498.013,126.994,498.615,126.31,499.223ZM192.2,528.59l-.093.22-.218-.423a.223.223,0,0,1,.033-.013c.14-.045.211.086.278.217Zm15.468,8.027c-.185-.172-.906,0-.486-.375C207.621,536.119,207.6,536.474,207.666,536.617Zm2.809,4.226c-.044.093-.115.261-.208.292a.087.087,0,0,1-.052,0l.076-.46a.269.269,0,0,1,.048-.02c.106-.035.073.068.138.187Zm-8.015,2.365-.278-.55c.232.058.35.09.373.337Zm1.217,11.346a1.258,1.258,0,0,1-.149-.087C203.617,554.485,203.672,554.515,203.677,554.554Zm-3.125-3.878c-.509,1.2,1.439.238,1.241,1.028,1.673-.173.594,1.984,1.736,2.762a1.979,1.979,0,0,0-.874.087c-.429.139-.795.429-.63.926.112.982,1.256.049.742,1.007-.327-.776-1.605-.764-2.32-.531a1.43,1.43,0,0,0-.34.155l.276.907c-.361-.3-.758-.592-1.133-.9a7.854,7.854,0,0,1-1.022-.99,2.447,2.447,0,0,1-.549-2.511,1.546,1.546,0,0,1,1-1c.147-.048.3-.08.455-.113a4.309,4.309,0,0,0,.469-.117,1.789,1.789,0,0,0,.951-.708Zm-23.587-5.007a.726.726,0,0,1-.553.82.743.743,0,0,1-.571-.031.679.679,0,0,1,.211-1.152.844.844,0,0,1,.912.362Zm34.116,9.664c-.017.3.083.806-.44.976a1.206,1.206,0,0,1-.236.048c-.77-.266-.5-.919.021-1.275a.734.734,0,0,0,.654.25ZM205.822,583a4.425,4.425,0,0,0,1.343.472,2.529,2.529,0,0,0,.651.006c-.115.061-.225.122-.333.175a2.1,2.1,0,0,1-.3.127.75.75,0,0,1-.185.038,2.787,2.787,0,0,1,.021,1.578,2.423,2.423,0,0,0,.605,2.471c-.769.576-1.388,1-2.005,1.511a13.792,13.792,0,0,0-1.972,1.994,3.035,3.035,0,0,0-2.912-.7c-.035.012-.071.024-.107.038l.049.522c-.585-.708-.9-1.323-1.33-1.725a1.733,1.733,0,0,0-.776-.434,3.255,3.255,0,0,0-1.215-.045l-.188.368c.1-.567.306-.634.581-.723l.02-.006a1.388,1.388,0,0,0,.75-.515c-.59-.211-.243-1.438-1.034-1.181a.043.043,0,0,0-.011,0c.4-1.491,1.414-2.862,1.035-4.444a1.27,1.27,0,0,0,1.589.489,6.155,6.155,0,0,0,1.2-.605,6.076,6.076,0,0,1,1.114-.585c.455-.149.814-.052,1,.61.037-.016.074-.029.112-.042.772-.252,1.5.206,2.3.607Zm2.491.366a2.6,2.6,0,0,1-.5.111,3.511,3.511,0,0,1,.515-.231,1.152,1.152,0,0,1,.422-.064,3.039,3.039,0,0,1-.441.184Zm-14.584-1a.909.909,0,0,1,.6-.678.922.922,0,0,1,.452-.029,1.194,1.194,0,0,1,0,1.149,1.309,1.309,0,0,1-.123.046c-.415.135-.941.092-.926-.49Zm15.008,5.437-.422.348-.06-.373ZM201.572,593l-.206-.405.232.15-.025.255Zm5.384,4.769a.519.519,0,0,0-.128.058c.309-.3.867-.418,1.227-.753.084.312-.08.452-.321.529a2.858,2.858,0,0,1-.4.086,2.829,2.829,0,0,0-.379.079Zm-.22.161a.224.224,0,0,1,.091-.1A.809.809,0,0,0,206.736,597.931Zm-5.811.6,0,0h0Zm2.927,19.536-.043-.572A.709.709,0,0,1,203.852,618.07Zm7.063-4.492a1.217,1.217,0,0,1-.9-.459,2.176,2.176,0,0,0-.666,1.519,2.656,2.656,0,0,0,.476,1.435,5.115,5.115,0,0,0-3.048-.068c-.3.074-.6.164-.906.262s-.61.207-.916.316-.615.217-.923.318l-.262.083.039.515a1.788,1.788,0,0,0-.509-.535c-.39-.3-.859-.568-1.01-.912a1.7,1.7,0,0,1-.375.182,1.3,1.3,0,0,1-.99-.082,2.977,2.977,0,0,1-.619-.412c-.2-.173-.4-.371-.593-.573-.787-.813-1.578-1.686-2.606-1.385a3.4,3.4,0,0,0-.571-2.7c-.12-.186-.245-.36-.384-.552-.146-.208-.3-.42-.446-.639a8.45,8.45,0,0,1-.817-1.465l-.132.129a6.658,6.658,0,0,1-.263-.722c-.036-.118-.067-.233-.094-.349a1.166,1.166,0,0,1-.05-.315,4.6,4.6,0,0,1,.113-1.052,9.377,9.377,0,0,1,.763-2.028l.492-.994.122-.248.03-.062,0-.008,0,0v0c-.162-.232-.2-.288-.2-.288l.016.024.017.024-.017-.024.007-.017.013-.035.052-.136c.07-.181.137-.363.2-.546a6.665,6.665,0,0,0,.418-2.249,1.659,1.659,0,0,0,1.213.057,4.877,4.877,0,0,0,.89-.443,4.229,4.229,0,0,1,.795-.381,2.068,2.068,0,0,1,.209-.057,1.86,1.86,0,0,1,.587-.036,2.109,2.109,0,0,1,.325.057c.056.014.113.032.173.051l.023.007.006,0-.03-.043s.041.061.084.12l.084.12,0,0h0l.011,0,.042.011.084.024.143-.228.033-.054.005-.007h0c.02.03.03.042.03.042l-.082-.117-.08-.114h0l0-.006.008-.014.018-.03c.024-.041.05-.084.074-.13.052-.089.107-.185.162-.281l.444-.763a.492.492,0,0,1,.239.434v.068h0l.135.192-.012-.015-.01-.016a.14.14,0,0,0,.01.017h0V598l0,.014,0,.03c0,.041-.013.081-.02.123-.017.083-.035.166-.051.25-.061.33-.043.628.6.67a.576.576,0,0,0,.163-.029c.388-.126.656-.647.818-1.07,0,.9.491.971,1.1.82.1-.024.2-.055.3-.088.217-.07.441-.157.658-.235a2.779,2.779,0,0,1,.9-.173,4.368,4.368,0,0,0,.739,1.593,7.122,7.122,0,0,0,.558.677c.2.213.4.394.618.587a17.487,17.487,0,0,1,2.477,2.374,3.179,3.179,0,0,0,.084,2.157,14.686,14.686,0,0,1,.869,2.535c-.278-.184-.473-.231-.61-.186-.478.156-.226,1.44-.207,1.951,1.243-.232,2.274.981,2.8,1.575,0,0-.382-.151-.758-.315l-.757-.323c-.719.593-1.847.548-2.044,1.625a.885.885,0,0,1,.679,1.009Zm.01-9.943c-.021-.029-.043-.057-.065-.086a2.853,2.853,0,0,1,.2-.431C211.054,603.24,211.172,603.49,210.924,603.635Zm-71.1-11.15.125.052-.245,1.265-.126-.049.244-1.269Zm9.547,4.2a.374.374,0,0,1-.189.126,1.068,1.068,0,0,1-.9-.2c0-.237.077-.355.2-.394.27-.088.74.215.89.471Zm65.451,15.561a.832.832,0,0,1,.574.354A1.41,1.41,0,0,1,214.824,612.245Zm.573.354c.509.192,1.063.271,1.118,1C216.007,613.667,215.749,613.023,215.4,612.6Zm-2.314,1.556-.394-.359.368-.038Zm11.222-.772a1.323,1.323,0,0,1,.553-.471c.165-.054.317,0,.395.26-.012.416-.121.6-.267.652-.217.07-.512-.173-.68-.442Zm-5.479,1.424.534.431-.906-.5.373.067Zm-5.693,19.447c1.03.664.732,1.813.54,2.833a1.106,1.106,0,0,1-.731.5l-.1.033-.1.032c-.433.141-.8.307-.592.961a21.079,21.079,0,0,1-1.673-1.3,2.533,2.533,0,0,1-.876-2.385,1.678,1.678,0,0,1,1.131-1.413,1.785,1.785,0,0,1,.337-.075A2.484,2.484,0,0,1,213.133,634.254Zm7.932.721a1.682,1.682,0,0,0-.244-.318A.822.822,0,0,1,221.064,634.974Zm6.826,7.305c-.6.189-1.461.094-2.1.3a1.2,1.2,0,0,0-.84,1.386,4.923,4.923,0,0,0-1.612-.981,1.492,1.492,0,0,0-.893-.058.8.8,0,0,0-.486.456c-.514-1.062-.958-1.853-1.341-2.679a13.174,13.174,0,0,1-.953-2.887c.079-.763,2-1.627,1.438-2.771a.446.446,0,0,0,.363.279c.057-.356.179-.505.328-.553a.787.787,0,0,1,.441.037.767.767,0,0,0,.391.053c.131-.043.2-.212.142-.679a2.95,2.95,0,0,1,2.126.692,3.217,3.217,0,0,0,2.566.517.881.881,0,0,0,.023,1.345.914.914,0,0,0,.877.311.56.56,0,0,0,.3-.235c-.521,2.211.049,3.563-.765,5.465Zm-81.99-1.412-.422-.6.151.216v-.008l0-.011,0-.021c-.01-.058-.02-.118-.028-.178a4.682,4.682,0,0,1,.07-1.554.877.877,0,0,1,.563-.481,3,3,0,0,1,.516-.1,2.983,2.983,0,0,0,.51-.1,1,1,0,0,0,.222-.1,1.585,1.585,0,0,1,.61.075,1.676,1.676,0,0,1,.275.119c.044.024.088.049.132.076l.064.042.015.011h0l.713,1.019-.06-.086h0l.006,0,.022.008a1.462,1.462,0,0,1,.585.456c.331.395.588.895,1.04,1.061-.063.239-.129.443-.2.631.009.3.017.57.025.853a14.778,14.778,0,0,0,.222,2.213.807.807,0,0,1-.288.168c-.448.146-.945-.172-1.442-.493a4.048,4.048,0,0,0-.9-.486.983.983,0,0,0-.43-.048,1.487,1.487,0,0,0-.374.234,6.5,6.5,0,0,1-1.1-1.627,1.754,1.754,0,0,1-.091-.4,1.863,1.863,0,0,1-.009-.214v-.055l0-.029h0l.011.014-.421-.6Zm3.27-1.765-.005-.006Zm0,0c.008.013.032.045.054.079h0Zm80.954-.816.593-.193.06.257Zm-45.11,13.86a3.016,3.016,0,0,1,1.434,1.435c.186.76.013,1.226.168,1.841a5.154,5.154,0,0,1-1.313.772c-.687.224-1.474.089-2.584-.941-.326-.779-1.525-1.6-1.2-2.675.385-.372.678-1.163,1.188-1.33a.645.645,0,0,1,.357-.012c.645.325,1.34.571,1.949.909Zm20.613,3.339c.542,1.528,1.221,1.995.953,3.511-.082.658-.311.968-.632,1.072a3.221,3.221,0,0,1-1.838-.405,3.227,3.227,0,0,0-2.017-.346,1.176,1.176,0,0,0-.235.106,13.6,13.6,0,0,1,.25-4.761l.079.286a1.583,1.583,0,0,1,.246-.106c1.026-.334,2.15.528,3.194.641Zm57.1-20.753a.834.834,0,0,1-.253.4l-.058-.651A.281.281,0,0,1,262.727,634.733ZM163.892,662.91c-.857-1.608-.109-2.819.84-3.175.5.231,1.094.4,1.622.665a2.323,2.323,0,0,1,1.24,1.315c.66,1.155.82,2.721-.062,3.009a1.246,1.246,0,0,1-.641.01c-1.136.2-2.061-1.055-3-1.823ZM237.9,654.98c.49.791,1.948.923,1.564,2.194a10.945,10.945,0,0,1-.991.465.9.9,0,0,1-1.2-.443c-.768-.827.431-1.573.627-2.216Zm-69.947-131.9c-1.528.972-.977,2.722-1.5,3.673,0,0-.006,0-.01,0-.146.048-.108-.625-.252-.882-1.214.8-3.428.683-3.3,2.463-2.639.6-6.538-1.209-9.472-2.207-.633-1.726-.843-3.691-1.353-5.5-.193.048-.444.083-.685.162a1.758,1.758,0,0,0-.294.125,7.558,7.558,0,0,0,1.6-3.239,5.052,5.052,0,0,0-.053-2.915.807.807,0,0,1,.389-.392c.174-.057.333.045.5.143a.679.679,0,0,0,.572.12,1.055,1.055,0,0,0,.457-.357c1.019-.409,1.043-1.442,1.564-2.169a38.241,38.241,0,0,0,3.848-1.013c.84-.274,1.695-.59,2.738-1-1.6,1.94,2.684.832,2.2,2.152.933.175,1.622.661,2.88.312-.207.549-1.191.833-.615,1.3,1.411,1.223,2.275,3.268,4.855,3.1-.661.144-1.458-.187-2.223.062a1.7,1.7,0,0,0-.566.313,3.365,3.365,0,0,0,.725,2.635.444.444,0,0,0-.422-.137c-.388.126-.5,1.061-.752,1.192a3.266,3.266,0,0,0,1.07,2.579,3.858,3.858,0,0,1,1.264,2.284,10.138,10.138,0,0,1-1.257-1.826,1.832,1.832,0,0,0-1.9-.972Zm112.9,121.755a10.052,10.052,0,0,0,2.064,3.931c0,.573-.08.792-.21.834s-.337-.112-.574-.257a.972.972,0,0,0-.807-.181.77.77,0,0,0-.15.069c-.024.6-1.15,1.688.082,1.547-1.09.5-1.5,1.455-2.457,2l.535,1.012c-.763.174-1.348.109-1.9.291a2.457,2.457,0,0,0-1.246,1.014.907.907,0,0,0,.438.43l-.015,0a4.308,4.308,0,0,0-.7-.158c-.237-.036-.473-.059-.715-.08a7.4,7.4,0,0,1-1.441-.223,3.068,3.068,0,0,1-.687-.292,2.565,2.565,0,0,1-.625-.5s-.054.309-.109.617c-.029.154-.055.309-.072.427s-.03.2-.03.2a3.624,3.624,0,0,1-.768-1.48,2.131,2.131,0,0,0-.185-.352l0,0v0h0l-.015-.01-.011-.006h0l-.007-.011-.015-.019-.029-.037c-.019-.024-.039-.048-.061-.07A.922.922,0,0,0,271,653.4a.943.943,0,0,0-.826-.078l-.162.651c-1.172-1.717-1.391-3.967-2.366-5.924-.71-3.07,1.55-4.448,2.992-6.49-.147.218-.019.277.018.394l3.241-2.1-.267.7c.919.033,1.666.087,2.432.167l2.559.287a8.361,8.361,0,0,1,2.234,3.833Zm-2.978,11.535a2.762,2.762,0,0,0-1.1-.792c.1.03.21.048.313.068A.886.886,0,0,1,277.879,656.369Zm-6.638-2.722.006,0h0Zm-39.94,9.194a1.329,1.329,0,0,1,.009,1.283,1.268,1.268,0,0,1-.364.193c-.6.2-1.11-.249-1.314-.892a.824.824,0,0,1,.559-.8A1.3,1.3,0,0,1,231.3,662.841Zm5.825-1.9c.353.286-.112.469-.193.642l-.026.01a.541.541,0,0,1-.4-.975.412.412,0,0,1,.13-.077c.218-.072.329.229.494.4Zm25.031-3.663c-.067.321-.2.482-.356.534-.305.1-.7-.212-.9-.568a2.1,2.1,0,0,1,.33-.143.846.846,0,0,1,.929.178Zm8.321-1.9.018.01a.015.015,0,0,1-.007,0h0v0l0,.007,0,.014.018.057c.024.075.047.145.065.206.038.12.063.2.063.2l-.165.648-.037-.3c-.011-.091-.024-.2-.038-.31-.008-.057-.014-.116-.022-.175l-.01-.091h0v0h0l-.018-.011a.11.11,0,0,1-.018-.011s0,0,.006,0V655.6l0-.023-.006-.045c-.064-.487-.13-.975-.13-.975l.212.65.039.121.01.03v0l.018.009Zm14.362-7.481a.261.261,0,0,1,.162,0,.636.636,0,0,1-.418.729c-.016.006-.033.01-.051.014a.607.607,0,0,1,.307-.741Zm-1.746,7.468a1.373,1.373,0,0,1-.435.263c-.36.118-.587-.106-.822-.374-.324-.361-.636-.81-1.361-.622l.115-.037.087-.028c.558-.182,1.219-.364,1.609.216-.482.738.6.408.809.584Zm-43.465,23c.491.658.05,1.282-.322,1.729-.9.1-1.2-.79-1.188-1.515a.673.673,0,0,1,.385-.317A2.228,2.228,0,0,1,239.628,678.361Zm22.464-6.847.079.241-.481-.307a.258.258,0,0,1,.111-.1c.1-.035.179.117.292.164Zm1.121,1.4c.242,0,.248.409.282.523l-.064.181-.22-.7Zm-3.952,6.752.016.01h0Zm2.079-1.349a2.951,2.951,0,0,0-.541.478,5.033,5.033,0,0,1-1.343,1.142.819.819,0,0,0-.059-.143c-.012-.022-.024-.043-.037-.063l0-.007,0,0v0h0l-.046-.025-.03-.017h0l-.012-.016-.024-.03a1.3,1.3,0,0,0-.224-.215c-.167-.131-.364-.243-.554-.381a1.729,1.729,0,0,1-.762-1.493,2.365,2.365,0,0,1,1.237-1.933,15.993,15.993,0,0,0,1.77.1,1.874,1.874,0,0,1,.2.036c.031.007.061.017.089.025l.042.015.02.009h0l.068.037,0,0,.01,0a.421.421,0,0,1,.214.186c.087.168.048.432-.187.845l.525.524.193.193.089.089.1.09.206.186c-.159.034-.312.068-.439.109a1.294,1.294,0,0,0-.127.049,2.8,2.8,0,0,0-.378.211Zm.44-2.219-.273.3-.032-.122.306-.178Zm3.075,9.47a1.231,1.231,0,0,1,.345.276c.125.5-.02.748-.266.828a.886.886,0,0,1-.513-.02c-.459-.141-.9-.582-.665-.993a1,1,0,0,1,.313-.168.968.968,0,0,1,.416-.042A1,1,0,0,1,264.856,685.568Zm3.163-.208a.477.477,0,0,1-.3.357.658.658,0,0,1-.542-.11.694.694,0,0,1-.3-.916,4.3,4.3,0,0,1,.693.154A.724.724,0,0,1,268.019,685.36Zm-2.908,3.725c-.084.193-.168.286-.25.313-.25.081-.49-.464-.753-.724.4.167.7-.431,1,.412Zm-5.232,8.755a7.4,7.4,0,0,1,.919.318,1.841,1.841,0,0,0-.974.069,4.7,4.7,0,0,0-.523.214,4.45,4.45,0,0,1-.482.2c-.439.143-.855.107-1.349-.555a3.536,3.536,0,0,1,.54-.229,2.986,2.986,0,0,1,1.048-.147A3.68,3.68,0,0,1,259.879,697.84Zm-1.034,1.658.558.065c-.03.023-.063.052-.1.081a.772.772,0,0,1-.215.141c-.109.036-.2-.014-.242-.287Zm.688.081-.13-.016a.276.276,0,0,1,.074-.044C259.509,699.508,259.529,699.523,259.533,699.579Zm1.29-.278.213.086-.695-.081.48,0Zm.338,1.109c.02.035.045.07.045.07l-.97.01.882-.15Zm8.819,2.979c.214-.07.548.1.9.132a.333.333,0,0,1-.2.454.7.7,0,0,1-.825-.5.262.262,0,0,1,.124-.085ZM93.945,13.3A5.932,5.932,0,0,1,92.253,11L92.3,9.059c1.627.99,3.661.85,4.816,2.764-.017.815-.465.9-.822,1.048s-.641.357-.364,1.388A3.537,3.537,0,0,1,93.945,13.3ZM33.067,1.741A1.553,1.553,0,0,1,32.615.236a.55.55,0,0,1,.271-.214c.348-.114.754.25,1.077.512C34.117,1.135,33.46,1.493,33.067,1.741Zm18.04,22.806a1.976,1.976,0,0,1-.478-2.221c.868-.995,1.605-2.117,2.706-2.476a2.84,2.84,0,0,1,1.975.142c1.661-.472.7,2.411,1.573,2.127a1.192,1.192,0,0,0,.341-.2,7.114,7.114,0,0,0,.288,1.884,7.17,7.17,0,0,1,.253,1.994,2.623,2.623,0,0,1-1.082.677C55.045,27,52.857,26,51.105,24.546ZM7.339,35.3c-1.034-1.026-2.05-1.9-2.07-2.738a22.6,22.6,0,0,1,.84-4.733c.246-.769.464-1.572.764-2.281a8.083,8.083,0,0,1,1.069-1.884,1.376,1.376,0,0,0,1.16.244c1-.328,1.265-2.279,1.97-2.641.342.185.525.641.721.937.127.189.25.31.426.253a.9.9,0,0,0,.357-.288c.48-1.978-1.921-1.39-.242-3.371a3.023,3.023,0,0,0,1.787-.052,8.29,8.29,0,0,0,2.508-1.587,8.013,8.013,0,0,1,2.289-1.516l.008,0c.058-.025.117-.048.173-.065a1.237,1.237,0,0,1,1.1.121,4.473,4.473,0,0,1,.9.954c.391.493.763.915,1.285.745a1.728,1.728,0,0,0,.679-.489c-.493-.609-.474-.795-.272-.86A1.578,1.578,0,0,1,23.133,16a1.667,1.667,0,0,0,.395-.059.422.422,0,0,0,.295-.272c.968.034,1.277.563,1.742,1.578l.81-.3c.151.637-1.2,1.28-.916,2.24l2.058.422c.165.555-.04.732-.321.823-.08.027-.165.045-.25.065s-.17.038-.249.063a.728.728,0,0,0-.134.056,9.019,9.019,0,0,1,.756.94,8.831,8.831,0,0,1,.536.9,14.889,14.889,0,0,1,.735,1.731,13.613,13.613,0,0,0,1.945,3.819l-1.911-.005c-.05,1.188,1,2.334.8,3.34a1.445,1.445,0,0,0-1.118-.264c-.35.115-.529.5-.665.967-.236.821-.343,1.912-.982,2.35-.4-.023-1.049.044-1.753.006a4.178,4.178,0,0,1-2.114-.613,3.977,3.977,0,0,1,.056.878,7.85,7.85,0,0,1-.115.982,17.8,17.8,0,0,1-.489,1.975l-.582-1.156c-.049.012-.1.024-.139.04-.831.27-.989,1.06-.547,1.847a.581.581,0,0,0-.752-.326,2.5,2.5,0,0,0-.554.3,2.437,2.437,0,0,1-.508.283.4.4,0,0,1-.212.019A8.887,8.887,0,0,0,20.58,41.2a4.6,4.6,0,0,1,1.033,3.118c-.279,1.38-1.294,2-2.242,3.214a4.084,4.084,0,0,0-2.1-1.454c-.765-.3-1.469-.531-1.744-1.025a5.339,5.339,0,0,0-.169-2.649,2.127,2.127,0,0,1,.676-2.376,3.7,3.7,0,0,0-2.437-.909,1.545,1.545,0,0,0,.133,1.51,1.566,1.566,0,0,1,.115,1.519c-.459-.376-.825-.719-1.151-1.041s-.605-.625-.875-.937c-.54-.622-1.034-1.283-1.819-2.114l-.6.882c-.024-1.385-1.048-2.6-2.066-3.637ZM42.326,52.629a2.111,2.111,0,0,1,1.654-2.179,1.223,1.223,0,0,1,1.5.727,8.164,8.164,0,0,1,.625,1.81c.274,1.007-.709,1.128-1.052,1.621a1.1,1.1,0,0,1-.431.286c-.957.312-1.826-1.436-2.3-2.263Zm-23.036.66c-.451-.623-.952-1.082-1.267-1.593a2.021,2.021,0,0,1-.135-1.932,1.985,1.985,0,0,1,1.291-1.248,2.4,2.4,0,0,1,.838-.115,2.5,2.5,0,0,1,2.268,1.62c.147.917.548,1.9.046,2.636a7.977,7.977,0,0,1-1.461.726,1.9,1.9,0,0,1-1.58-.093ZM73.081,72.214a1.508,1.508,0,0,1,.757-.012c1.286-.308,2.521,1.325,3.59,2.3,1.346,2.58-.869,2.717-1.913,4.016-.645-.6-1.072-.734-1.391-.63-.342.111-.553.5-.763.889s-.421.777-.759.888c-.28.092-.648-.008-1.179-.459a2.243,2.243,0,0,1-.574-2.313,1.516,1.516,0,0,0,.6-.055c.8-.261.837-1.3.858-2.326s.029-2.056.768-2.3ZM52.2,67.072a1.793,1.793,0,0,1,1.035-1.846.976.976,0,0,1,.638.009c1.061.224,1.176,1.169,1.737,1.968a1.968,1.968,0,0,1-1.141,1.985.912.912,0,0,1-.431.038c-.973.116-1.571-1.3-1.836-2.152ZM41.357,64.543l.9-1.353c.885.454,1.055,1.115,1.438,2.15-.115.718-.635.537-.986,1.021-.961-.024-1.034-1.256-1.356-1.82Zm10.109,4.8c.064-.021.131-.041.2-.061s.139-.042.211-.064a2.366,2.366,0,0,0,.553-.251,3.275,3.275,0,0,1,1.02,1.2,3.764,3.764,0,0,1,.167.373,3.627,3.627,0,0,1,.133.4,4.478,4.478,0,0,1,.148.809A2.669,2.669,0,0,1,52.41,73.18a2.183,2.183,0,0,1-.277.07,14.067,14.067,0,0,1-1.253-1.328,1.606,1.606,0,0,1-.157-1.731.933.933,0,0,1,.745-.845Zm-9.445.4a4.2,4.2,0,0,0,1.044,2.766c-1.073.688-.735,2.763-1.157,3.671a.989.989,0,0,0-1.258-.547,4.448,4.448,0,0,0-.8.4,4.554,4.554,0,0,1-.844.415,1.533,1.533,0,0,1-.448.081c-1.844-1.243-3.458-4.647-2.213-7.225.039-.009.077-.02.117-.032a4.068,4.068,0,0,0,1.351-.958,4.029,4.029,0,0,1,1.268-.93c.491-.16.99.029,1.523.966.451.611.72,1.455,1.418,1.392Zm-30-1.766A4.712,4.712,0,0,1,10.546,63.3a1.974,1.974,0,0,1,.968-.735,4.218,4.218,0,0,1,2.767.541,3.466,3.466,0,0,0,2.238.468,1.678,1.678,0,0,0,.984-1.094c-.3,1.071.214,1.943,1.486,2.456l1,3.669a4.4,4.4,0,0,1-2.577,1.666c-.123.041-.244.079-.364.115l-.344.11a2.41,2.41,0,0,0-1.361.773c-.975-.971-1.364-3.965-3.008-3.428a1.944,1.944,0,0,0-.318.14Zm37.848,9.76c.064-1.18-.191-2.931.885-3.608a1.045,1.045,0,0,1,.143-.058c.893-.291,2.119.6,2.3,1.809a7.159,7.159,0,0,1-.761,2.9,17.539,17.539,0,0,0-2.57-1.047Zm5.809,6.246a1.587,1.587,0,0,1-.5.288c-1.09.355-1.687-1.372-2.8-1.885a3.16,3.16,0,0,1-.027-2.274,2.2,2.2,0,0,1,.868-.578,1.986,1.986,0,0,1,1.528.2C55.9,81.042,54.958,82.526,55.677,83.983Zm17.037,11.98A2.428,2.428,0,0,1,71.451,93.7a1.3,1.3,0,0,1,.806-1.125C73,92.336,74,93,74.216,94.372c.185.89-.184,1.14-.64,1.289-.086.029-.175.052-.265.077s-.179.049-.264.078a1.435,1.435,0,0,0-.333.148ZM47.642,97.477c.447.609,1.1.828,1.081,1.733a.75.75,0,0,1-.556.7,1.058,1.058,0,0,1-1.353-.763l.828-1.672Zm132.96,67.26-.032-.615a.172.172,0,0,1,.034-.016c.115-.037.081.2.2.251.106.187-.05.287-.2.381ZM80.068,148.855l-1.492-.528a.822.822,0,0,1,.118-.048,2.038,2.038,0,0,1,.98.019,2.274,2.274,0,0,0,.851.055c-.126.135-.255.267-.38.405Zm1.061-1.125c.016-.045.031-.094.044-.145a15.566,15.566,0,0,1-.3-2.221,1.355,1.355,0,0,0,.5-.061c.665-.217,1.056-.953,1.454-1.692s.8-1.48,1.494-1.705a1.543,1.543,0,0,1,.729-.046c.521.714.993.858,1.416.721.66-.216,1.2-1.118,1.622-1.611l-.3,1.709a2.712,2.712,0,0,1,1.274-.6,28.9,28.9,0,0,0-7.935,5.66Zm2.578-6.271a.369.369,0,0,1-.233-.012c.045-.268.092-.536.236-.583.086-.027.206.022.38.2-.115.072-.186.333-.383.4ZM4.558,92.211c.777.261,1.428,1.231.764,1.9C3.934,94.235,4.721,92.864,4.558,92.211Zm77.184,52.1-.316-.565a.232.232,0,0,1,.04-.019c.132-.043.232.129.327.3l-.052.283ZM68.6,166.99c-.568-.671-.435-1.386-.008-1.525a.753.753,0,0,1,.689.2c-.023.051-.048.1-.069.154q-.264.6-.526,1.213a.583.583,0,0,1-.085-.04ZM46.458,225.2c0-.232.081-.349.2-.389.272-.088.737.214.885.471a.393.393,0,0,1-.186.123A1.071,1.071,0,0,1,46.458,225.2Zm-7.92,41.317c-1-2.015-1.651-2.995-.644-4.745a1.1,1.1,0,0,1,.481-.307,2.755,2.755,0,0,1,.667-.1,2.646,2.646,0,0,0,.658-.1l.073-.026c1.649-.013,1.675,2.107,2.63,2.9-.339,1.081-.672,1.417-1.06,2.785a1.413,1.413,0,0,1-.208.087,1.31,1.31,0,0,1-1.2-.291,1.186,1.186,0,0,0-1.4-.2Zm43.343,25.566a13.082,13.082,0,0,1,2.254-4.014l-.047.283c1.237,0,1.928,1.455,2.905,2.108-.16,1.6.246,2.359-.658,3.538a1.417,1.417,0,0,1-.676.594c-1.2.391-2.252-2.593-3.78-2.509Zm-33.4-11.752c.722.558,1.878.973,1.8,2.152.133.955-.232,2.072-.959,2.309a1.093,1.093,0,0,1-.827-.088c-1.083-.087-1.415-1.262-1.953-2.057a2.039,2.039,0,0,1,1.462-2.217,2.259,2.259,0,0,1,.473-.1ZM117.6,312.758a.974.974,0,0,1-.364.68c-.649-.232-2.01-.281-2.033-1.653a.856.856,0,0,1,.691-1.148c.056-.018.113-.033.169-.049q.766,1.085,1.537,2.169Zm-12.435-1.013a.8.8,0,0,1,.409-.336c.54-.176,1.175.437,1.4,1a1.19,1.19,0,0,1-.622,1.13,1.377,1.377,0,0,1-1.182-1.791Zm7.651,2.5c.413,0,.335.424.411.756.082.24.019.329-.091.365a.73.73,0,0,1-.2.025.712.712,0,0,0-.18.02.107.107,0,0,0-.029.013c-.466-.173-.592-.979-.074-1.148a.678.678,0,0,1,.158-.03ZM105.373,333.3a1.577,1.577,0,0,1-.267-2.217l.038-.014c.58-.188,1.1.588,1.425,1a.956.956,0,0,1-.734,1.121,3.212,3.212,0,0,1-.464.106Zm25.246,12.024-.056.282-.279-.711C130.571,344.845,130.515,345.13,130.619,345.322Zm.1,3.071.162-.851c.23.238.021.614-.006.751Zm-7.084,1.766c.191-.989-1.117-2.075-.277-3.583a1.411,1.411,0,0,1,.852-.622,1.687,1.687,0,0,1,1.317.06c.636.991,3.085,2.5,1.358,3.069l-.014,0,.446,1.982C125.6,349.977,125.439,350.829,123.639,350.159Zm3.833-1.3.382.142h-.416ZM270.721,403.8l-.721-.586.615.393ZM123.834,359.134c-.162-.391-.155-.837.2-.953h0a1.167,1.167,0,0,1,1.027,1.133.773.773,0,0,1-.412.441c-.323.1-.656-.23-.818-.622Zm3.206.479.032-.01c.334.425.693.71.45,1.227a.718.718,0,0,1-.139.066c-.335.109-.58-.16-.661-.483a.633.633,0,0,1,.319-.8Zm-4.57,1.013c.2.378.8.144.509.944a1.094,1.094,0,0,1-.115.044c-.605.2-.346-.54-.393-.989Zm-8.448,4.592c-.895-1.084-2.55-.337-2.483-2.126A3.7,3.7,0,0,1,114.022,365.218Zm-2.3-.24.374.38C111.885,365.349,111.446,365.41,111.727,364.978Zm.374.38c.089,0,.14.02.086.087Zm.856.379.359.283.1.186Zm-.83.749.745.421-.028.147-.719-.567Zm4.445,6.937c.284-.045.36.288.591.521a.473.473,0,0,1-.224.169c-.33.107-.66-.307-.366-.69Zm88.263,59.268a1,1,0,0,1,.376-.237c.884-.288,1.7,1.275,2.026,2.064l-.564,1.457c-1.494-.111-2.005-2.437-1.838-3.283ZM55.536,224.47h0l0,0h0Zm.728-.415-.494.278c.016-.011.034-.02.052-.031.136-.079.285-.162.442-.247Zm.081-.044-.082.044c.15-.083.286-.158.418-.23Zm-1.179.678.372-.222h0l.19-.113.041-.023-.6.356Zm2.434-1.336-.661.335C57.14,223.583,57.347,223.478,57.6,223.354Zm-.661.335-.257.137c.079-.043.157-.086.236-.126Zm4.252-46.147a1.52,1.52,0,0,1-.273,1.839,1.2,1.2,0,0,1-.417.242,1.247,1.247,0,0,1-1.27-.367.945.945,0,0,1-.355-1.111c.113-.377.363-.757.444-1.131a1.652,1.652,0,0,1,.236-.1,1.372,1.372,0,0,1,.763-.033,1.5,1.5,0,0,1,.874.659Zm11.933-20.9a.975.975,0,0,1,.556-1.448.988.988,0,0,1,.87.143s.082.326.172.715c-.242.357-.482.716-.719,1.077a1.193,1.193,0,0,1-.878-.487Zm-55.362,5.311.323-.132a12.888,12.888,0,0,0,1.053,2.892,6.067,6.067,0,0,1,.744,2.586c.36-.225.28-.39.17-.555s-.238-.329.049-.516a15.5,15.5,0,0,1,2.836.453,32.515,32.515,0,0,0,3.485.568,2.722,2.722,0,0,1,1.1-.736c.111-.045.227-.087.345-.125a9.056,9.056,0,0,1,1.053-.265c.952-.184,1.864-.274,2.289-.405a1.3,1.3,0,0,1-.556-.175c-.161-.1-.263-.22-.25-.343a.544.544,0,0,1,.071-.482.915.915,0,0,1,.434-.3l.065-.023a3.438,3.438,0,0,1,1.293-.082.544.544,0,0,1-.093-.143.212.212,0,0,1-.019-.116c0-.082.055-.117.116-.157a.063.063,0,0,1,.024-.013c.026-.008.06,0,.09-.011s.053-.006.081-.006l-.13-.023-.2-.037c-.131-.025-.261-.054-.392-.083l-.739-.168c-.235-.056-.485-.131-.708-.2s-.427-.119-.643-.193l-.317-.112c-.094-.03-.189-.062-.283-.1-.187-.067-.388-.151-.567-.228-.163-.062-.328-.132-.493-.213l-.447-.219c-.069-.036-.138-.074-.209-.115s-.145-.087-.193-.11a3.818,3.818,0,0,1-.333-.205l-.075-.051-.053-.033-.067-.045-.254-.213c-.005-.028-.01-.055-.013-.081a1.039,1.039,0,0,1-.01-.141.414.414,0,0,1,.033-.113,8.044,8.044,0,0,0-.312-1.447,5.468,5.468,0,0,0-.268-.657c-.1-.213-.223-.424-.338-.622s-.248-.4-.379-.6-.254-.387-.374-.589a3.022,3.022,0,0,1-.488-1.324.756.756,0,0,0-.256-.086,2.351,2.351,0,0,0-.33-.013h-.138l-.021.012.057-.032.056-.031h0l-.067.016-.278.062-.294.058-.075.013a.349.349,0,0,1-.049,0l-.1,0a1.714,1.714,0,0,1-.6-.491,1.521,1.521,0,0,1-.253-.652c-.042-.243-.049-.511-.07-.781a1.7,1.7,0,0,0-.175-.764s-.023.127-.056.317-.057.46-.073.709c-.007.125-.012.248-.013.361s0,.228,0,.323c.008.185.012.309.012.309a1.679,1.679,0,0,1-.2.209,1,1,0,0,1-.2.152,1.137,1.137,0,0,1-.183.078,1.867,1.867,0,0,1-.28.065,3.224,3.224,0,0,1-1.058-.106c-.361-.083-.719-.2-1.011-.275a1.168,1.168,0,0,0-.547-.059.19.19,0,0,0-.055.029c-.033.49,1.051.975.636,1.735a6.2,6.2,0,0,0-1.434,2.172,3.041,3.041,0,0,0,.271,2.8s.156-.073.319-.141Zm8.931.568c.014.044.026.081.036.113-.011-.036-.023-.074-.036-.113Zm.068.218-.029-.1C26.744,162.678,26.754,162.712,26.762,162.74Zm-.14-.427c-.01-.029-.02-.057-.031-.083s-.016-.045-.021-.064-.02-.059-.026-.076h0s0,.006,0,.01c.026.074.051.148.075.217Zm-.08-.228v0l0-.014c-.01-.026-.02-.056-.033-.089.013.033.026.068.038.1Zm-.424-.753Zm0,0Zm-2.534-5.521Zm2.942,4.764a1.816,1.816,0,0,1-.16-.758C26.548,160.061,26.692,160.307,26.526,160.575Zm88.562-22.7c.042-.018.083-.032.123-.045,1.307-.427,1.592,1.468,2.271,2.224C116.422,139.936,114.944,138.911,115.087,137.875ZM25.095,157.243l-.159-.136.141-.074a1.636,1.636,0,0,1,.151-.067c.061.187-.047.224-.133.278Zm8,7.458c.028-.01.068-.019.121-.031.462,0,.318.125.344.2-.115-.082-.715-.089-.466-.17Zm1.937,2.9a.133.133,0,0,1-.06.006s.036-.08.073-.158.076-.157.076-.157l.017-.006c.15-.049.084.026.134.11a.7.7,0,0,1-.24.2Zm-8.135,1.016c.225.08.338.119.331.353l-.119.193Zm2.357,13.458a1.564,1.564,0,0,1-.171-.106C29.176,181.994,29.239,182.031,29.249,182.079Zm-5.58.6a3.813,3.813,0,0,1-.945-3.122c.184-.772.521-1.028.909-1.156a3.406,3.406,0,0,1,.332-.083,4.975,4.975,0,0,0,.571-.132,1.513,1.513,0,0,0,.918-.8c-.365,1.4,1.533.343,1.424,1.266.889-.075,1.083.555,1.248,1.325.043.193.076.392.131.593a4.6,4.6,0,0,0,.2.591,1.888,1.888,0,0,0,.618.814,1.679,1.679,0,0,0-.807.066.79.79,0,0,0-.579,1.149c.285,1.2,1.307.07.939,1.238a1.994,1.994,0,0,0-2.391-.715,1.233,1.233,0,0,0-.428.221l.447,1.121A22.687,22.687,0,0,1,23.67,182.677ZM.052,162.314a5.252,5.252,0,0,1-.05-.857,3.687,3.687,0,0,1,.093-.719,1.324,1.324,0,0,1,.434-.812.324.324,0,0,1,.079-.037c.329-.107.667.4.8,1.7a1.518,1.518,0,0,1-.549,1.254.536.536,0,0,1-.086.038C.513,162.967.229,162.814.052,162.314Zm36.269,20.347c.224.179.446.356.722.276.038.37.244,1-.341,1.2a1.007,1.007,0,0,1-.169.039c-.838-.305-.689-1.081-.211-1.511Zm-4.8,41.114-.1.437c-.094-1.189.631-.534,1.089-1.525-.665-.2-.666-1.559-1.36-1.332a.819.819,0,0,0-.084.033c0-.878.174-1.729.244-2.6a4.964,4.964,0,0,0-.409-2.672,1.484,1.484,0,0,0,1.64.558,4.135,4.135,0,0,0,1.3-.86,3.987,3.987,0,0,1,1.137-.8l.057-.017c.374-.1.71.074,1.049.732a1.156,1.156,0,0,1,.234-.1c.727-.237,1.592.228,2.518.63a5.475,5.475,0,0,0,1.581.484,2.47,2.47,0,0,0,.7-.027l-.068.05a2.4,2.4,0,0,1-.594.368.554.554,0,0,1-.112.025A3.824,3.824,0,0,1,40.822,219a6.428,6.428,0,0,0,.333,1.56,2.462,2.462,0,0,0,1.031,1.28,15.564,15.564,0,0,0-3.31,4.234,3.636,3.636,0,0,0-3.1-.706,2.193,2.193,0,0,0-.316.131l.193.595c-.814-.777-1.318-1.462-1.882-1.9a2.246,2.246,0,0,0-.941-.446,3.234,3.234,0,0,0-1.309.025Zm9.884-7.138a2.244,2.244,0,0,1-.286.073,2.3,2.3,0,0,1,.607-.344.916.916,0,0,1,.315-.048A2.421,2.421,0,0,1,41.4,216.636Zm-15.62-.428a.825.825,0,0,1,.525-.872.849.849,0,0,1,.389-.029,1.694,1.694,0,0,1,.312,1.373,1.1,1.1,0,0,1-.237.11A.706.706,0,0,1,25.783,216.208ZM42.842,221.7l.526.01-.359.422Zm-5.761,6.342-.323-.449.285.157.038.291Zm6.983,5.294c.26-.348.817-.521,1.123-.913.183.395-.043.553-.347.652-.089.03-.187.053-.281.076s-.188.047-.27.073a.653.653,0,0,0-.224.111Zm0,0a.734.734,0,0,0-.074.121A.206.206,0,0,1,44.064,233.337Zm.859,22.182-.146-.62A.83.83,0,0,1,44.923,255.518ZM33.655,245.9a6.529,6.529,0,0,1-.915-2.711,9.853,9.853,0,0,1,.136-2.531,12.5,12.5,0,0,0,.305-4.943,1.745,1.745,0,0,0,1.137.037,3.5,3.5,0,0,0,1-.616,3.179,3.179,0,0,1,.935-.546,2.187,2.187,0,0,1,1.419.058l.566-1.749c.875.446-.156,1.756,1.358,1.917a.531.531,0,0,0,.167-.025c.411-.133.543-.771.589-1.287a1.492,1.492,0,0,0,.635,1,1.231,1.231,0,0,0,.9.037c.055-.014.111-.031.166-.049.21-.068.423-.158.634-.248s.416-.176.611-.241a1.737,1.737,0,0,1,.485-.1,5.742,5.742,0,0,0,1.1,1.68,8.686,8.686,0,0,0,.722.695c.258.216.528.424.8.629.553.41,1.133.808,1.7,1.243a14.244,14.244,0,0,1,1.54,1.35,3.844,3.844,0,0,0,.567,2.385c.242.456.526.91.792,1.376a8.348,8.348,0,0,1,.692,1.423c-.337-.193-.561-.244-.7-.2-.508.166.044,1.578.166,2.142a2.686,2.686,0,0,1,1.923.529,10.816,10.816,0,0,1,1.466,1.2l-.9-.343c-.452-.169-.9-.351-.9-.351-.674.651-1.917.6-1.926,1.788a1.2,1.2,0,0,1,.936,1.095,1.555,1.555,0,0,1-1.072-.492,2.072,2.072,0,0,0-.444,1.662,3.483,3.483,0,0,0,.783,1.548,5.58,5.58,0,0,0-3.329-.032q-.25.068-.5.149c-.863.281-1.7.665-2.566.966l.131.555c-.417-.606-1.542-.938-1.892-1.5a1.43,1.43,0,0,1-.428.23c-.812.265-1.64-.388-2.481-1.093a10.369,10.369,0,0,0-1.5-1.13,1.793,1.793,0,0,0-1.465-.251.468.468,0,0,0-.06.021c.023-2.57-1.95-3.275-3.189-5.426l-.113.149Zm16.093-6.307-.091-.1a2.827,2.827,0,0,1,.117-.482C49.8,239.152,49.987,239.427,49.747,239.591Zm6.78,9.9c.6.218,1.23.313,1.428,1.112-.4.047-.729-.31-1.057-.695C56.777,249.767,56.654,249.622,56.527,249.493Zm0,0a1.98,1.98,0,0,1-.7-.4A1.143,1.143,0,0,1,56.527,249.493Zm-2.269,1.68-.5-.395.4-.039Zm12.428-.535a1.111,1.111,0,0,1,.524-.483c.183-.06.373,0,.516.305.062.447-.025.65-.178.7C67.314,251.237,66.926,250.952,66.686,250.638Zm-5.93,1.349.336.248.339.243-.553-.285-.549-.292.428.088Zm-3.31,20.826c1.217.713,1.037,1.944.952,3.017a.929.929,0,0,1-.655.489l-.189.058-.188.057c-.417.136-.734.324-.449.98-.389-.321-1.247-.759-1.983-1.393a3.046,3.046,0,0,1-1.252-2.548,1.51,1.51,0,0,1,1.031-1.485,2.933,2.933,0,0,1,2.735.826Zm10.674.282a3.951,3.951,0,0,1,2.481.85,4.163,4.163,0,0,0,2.966.723c-.865.711.523,2.063,1.256,1.823a.5.5,0,0,0,.274-.219,12.948,12.948,0,0,0,.016,3.021,6.135,6.135,0,0,1-.269,2.746c-.692.163-1.744-.018-2.443.21-.5.162-.816.533-.692,1.386a6.781,6.781,0,0,0-1.919-1.146c-.006.026-.01.052-.015.08a5.956,5.956,0,0,1-1.455.216c-.008.018-.016.036-.024.055-.011-.019-.024-.038-.034-.057-.7-.043-1.349-.413-1.943-1.611,0-.623-.531-1.44-.311-2.162a15.256,15.256,0,0,1-.9-2.193c-.007-.9,2.509-1.816.9-3.32.356.232.362.683.806.75.018-.366.129-.521.28-.57a1.006,1.006,0,0,1,.561.076.786.786,0,0,0,.406.061c.134-.044.185-.225.064-.716Zm9.573,4.979-.753-.12.655-.16Zm-50,17.22c-.412-.783-1.715-1.54-1.49-2.661.365-.412.584-1.271,1.117-1.445a.654.654,0,0,1,.325-.019c.693.294,1.433.506,2.094.819A3.417,3.417,0,0,1,31.36,293.4c.267.769.133,1.254.351,1.873a4.628,4.628,0,0,1-1.378.891,1.755,1.755,0,0,1-.248.062,2,2,0,0,1-1.039-.107,3.579,3.579,0,0,1-.629-.3A6.484,6.484,0,0,1,27.693,295.294Zm20.567,3.677a1.107,1.107,0,0,0-.249.117,14.03,14.03,0,0,1-.17-4.942l.11.3a1.473,1.473,0,0,1,.247-.106c1.061-.346,2.345.555,3.475.682.36.8.734,1.329,1,1.854a3.044,3.044,0,0,1,.342,1.819c-.031.677-.247,1-.577,1.1a2.387,2.387,0,0,1-1.386-.2C50.114,299.253,49.035,298.719,48.26,298.971Zm38.708-.331c-.952-.949.365-1.617.536-2.276.633.885,2.326,1.173,1.989,2.48l-.049.015c-.11.036-.231.085-.361.137s-.27.107-.415.155a1.311,1.311,0,0,1-1.7-.51ZM65.184,131.028c.3.526.181.7-.069.786a2.25,2.25,0,0,1-.359.069,2.194,2.194,0,0,0-.377.075c-.286.093-.471.3-.256.882-.365,1.093.885,1.989,1.31,2.983a25.177,25.177,0,0,0-3.167,6.513c-.227-.695-.539-.964-.891-.989a1.047,1.047,0,0,0-.383.058,3.371,3.371,0,0,0-.757.4,6.4,6.4,0,0,1-1.271.753.725.725,0,0,1-.875-.242c-.46.3-.958.486-1.41.763a2.746,2.746,0,0,0-1.128,1.283c-.457-.566-.047-1.566-1-1.438a17.461,17.461,0,0,1-1.881.056,18.04,18.04,0,0,0-1.893.091,6.328,6.328,0,0,0-1.2.251,3.542,3.542,0,0,0-1.931,1.447c.353-.835,1.707-1.317,1.491-2.611a5.549,5.549,0,0,0-1.587-.839,5.781,5.781,0,0,0-1.923-.289,1.293,1.293,0,0,0,.161-.04c.309-.1.339-.28.244-.49-1.226-.548-2.5-1.241-3.72-1.915-.279,0-.558.017-.834.032-.646.033-1.275.1-1.864.094a3.473,3.473,0,0,1-1.612-.352,16.067,16.067,0,0,1,2.934-.029,5.979,5.979,0,0,0,.837-.045c-.613-.34-1.207-.669-1.769-.967-1.074-2.485-1.689-5.261-2.621-7.842a5.205,5.205,0,0,0-.744.135,1.053,1.053,0,0,0-.255.118,10.682,10.682,0,0,0,.456-8.27c.107-.3.22-.435.338-.473.181-.058.374.11.581.275s.424.327.655.251a.818.818,0,0,0,.412-.415c1.024-.4.858-1.812,1.287-2.719a25.458,25.458,0,0,0,4.865-1.055c.577-.188,1.185-.406,1.871-.665-1.374,2.387,3.029,1.511,2.74,3.217,1.036.363,1.867,1.106,3.154.8-.122.709-1.125.963-.42,1.656.526.547,1.009,1.188,1.5,1.82l.119.046,2.072.809c.7.282,1.393.557,2.092.807a2.723,2.723,0,0,0,.433-.99,8.228,8.228,0,0,0,1.164,1.965,14.9,14.9,0,0,0,1.716,1.845,11.72,11.72,0,0,0,3.76,2.4ZM78.757,304.5a.725.725,0,0,1,.494-.767,1.651,1.651,0,0,1,1.352.3,1.316,1.316,0,0,1,.108,1.348,1.289,1.289,0,0,1-.3.145A1.416,1.416,0,0,1,78.757,304.5Zm8.175-1.269c-.513.14-1.11-.61-.571-1.063a.429.429,0,0,1,.115-.062c.261-.084.415.258.627.467.429.339-.092.484-.171.658Zm4.123,17.8c.616.751.143,1.354-.259,1.779a1.625,1.625,0,0,1-1.485-1.735.6.6,0,0,1,.335-.263,2.652,2.652,0,0,1,1.409.22Zm25.63-4.334.1.264-.578-.393a.251.251,0,0,1,.107-.081c.131-.043.226.141.368.211Zm1.717,2.217-.067.181-.31-.785c.3.043.328.478.377.605Zm-2.083,4.677c-1.02.332-1.054.96-2.467,1.473-.365-.917-1.922-.953-2.058-2.706a2.046,2.046,0,0,1,1.227-1.807,1.089,1.089,0,0,1,.138-.035c1,.391,3.66.036,2.605,1.61l1.347,1.3a4.219,4.219,0,0,0-.792.167Zm-.171-1.9-.046-.135.364-.132-.316.267Zm147.064-29.495-1.025-.442L263,292l.208.186ZM118.488,331.078a.938.938,0,0,1,1.074.38c.06.484-.1.721-.323.795-.51.166-1.385-.492-1.024-1.037a1.006,1.006,0,0,1,.273-.139Zm2.731-.684c.461.123.873.118.946.684a.528.528,0,0,1-.31.335.669.669,0,0,1-.637-1.02Zm-2.965,3.782c.34.169.674-.4.85.421-.1.182-.184.27-.26.3-.235.077-.382-.456-.589-.717Zm-6.521,8.791a3.059,3.059,0,0,1,2.423.306,1.452,1.452,0,0,0-.8.056,4.74,4.74,0,0,0-.5.209,4.562,4.562,0,0,1-.47.2c-.411.133-.79.094-1.159-.551a3.4,3.4,0,0,1,.511-.218Zm.573,1.6.472.061c-.029.023-.061.051-.1.08a.735.735,0,0,1-.206.137c-.094.031-.168-.02-.169-.278Zm.542.016c.027-.009.043.005.038.058l-.108-.014A.267.267,0,0,1,112.849,344.581Zm1.337-.136-.577-.073.408-.008.167.081Zm-.835,1.057.766-.149.052.134Zm7.1,3.041c-.2.067-.438-.088-.408-.453a.281.281,0,0,1,.123-.086c.16-.052.34.086.562.111A.454.454,0,0,1,120.45,348.544Z" transform="translate(1462.37 895.373) rotate(107)" opacity="0.43" fill="url(#linear-gradient)"/>
    </g>
  </g>
</svg>
