<svg xmlns="http://www.w3.org/2000/svg" xmlns:xlink="http://www.w3.org/1999/xlink" width="1600" height="1016.34" viewBox="0 0 1600 1016.34">
  <defs>
    <clipPath id="clip-path">
      <rect id="Placeholder" width="1600" height="713.997" transform="translate(0 5169.343)" fill="#f2f6ff"/>
    </clipPath>
  </defs>
  <g id="bg-5" transform="translate(0 -4847)">
    <g id="Grupo_1090678" data-name="Grupo 1090678" transform="translate(0 -20)">
      <rect id="Placeholder-2" data-name="Placeholder" width="1600" height="713.997" transform="translate(0 5169.343)" fill="#f2f6ff"/>
      <g id="Enmascarar_grupo_1078807" data-name="Enmascarar grupo 1078807" clip-path="url(#clip-path)">
        <path id="Trazado_863564" data-name="Trazado 863564" d="M0,22.252a5.387,5.387,0,0,0,5.383,5.38H16.86V39.1a5.383,5.383,0,0,0,10.766,0V27.631H39.1a5.38,5.38,0,1,0,0-10.759H27.627V5.4a5.383,5.383,0,0,0-10.766,0V16.872H5.382A5.387,5.387,0,0,0,0,22.252Zm17.759-3.586a.9.9,0,0,0,.9-.9V5.4a3.589,3.589,0,0,1,7.177,0V17.768a.9.9,0,0,0,.9.9H39.1a3.586,3.586,0,1,1,0,7.173H26.729a.9.9,0,0,0-.9.9V39.1a3.589,3.589,0,0,1-7.177,0V26.735a.9.9,0,0,0-.9-.9H5.382a3.586,3.586,0,1,1,0-7.173Z" transform="translate(1539.598 5305.378) rotate(45)" fill="#bad1ff" fill-rule="evenodd"/>
        <path id="Trazado_863566" data-name="Trazado 863566" d="M0,22.252a5.387,5.387,0,0,0,5.383,5.38H16.86V39.1a5.383,5.383,0,0,0,10.766,0V27.631H39.1a5.38,5.38,0,1,0,0-10.759H27.627V5.4a5.383,5.383,0,0,0-10.766,0V16.872H5.382A5.387,5.387,0,0,0,0,22.252Zm17.759-3.586a.9.9,0,0,0,.9-.9V5.4a3.589,3.589,0,0,1,7.177,0V17.768a.9.9,0,0,0,.9.9H39.1a3.586,3.586,0,1,1,0,7.173H26.729a.9.9,0,0,0-.9.9V39.1a3.589,3.589,0,0,1-7.177,0V26.735a.9.9,0,0,0-.9-.9H5.382a3.586,3.586,0,1,1,0-7.173Z" transform="translate(113.513 5679.34) rotate(45)" fill="#bad1ff" fill-rule="evenodd"/>
        <path id="Trazado_865562" data-name="Trazado 865562" d="M460.225,194.379a58.741,58.741,0,0,1,8.631-4.432c.643-.286,1.251-.5,1.894-.751.643-.268,1.269-.5,1.841-.7,1.412-.536,2.895-1.09,4.557-1.715l4.664.375c7.541-3.27,2.895-2.68,8.077-5.5a124.875,124.875,0,0,0,13.474-3.949,102.834,102.834,0,0,1,10.221-2.966c2.252.411-2.341,1.644-3.252,2.484,2.019-.7,3.413-1.144,4.61-1.68,1.179-.447,2.109-.893,3.127-1.34a21.4,21.4,0,0,1,9.078-1.59l.143.5a21.008,21.008,0,0,1,2.144-.107l1.09-.036h.5l.25-.036,1.054-.054h.715a2.567,2.567,0,0,1,2.52,1.59,3.78,3.78,0,0,1,.143,1.68,5.168,5.168,0,0,1-.143.893c-.036.179-.143.447-.2.679a8.367,8.367,0,0,1-.268.8,99.937,99.937,0,0,1-4.682,10.025c-3.627,7.076-7.952,14.367-11.061,23.248-.393,1.09-.75,2.269-1.054,3.467-.339,1.144-.572,2.466-.822,3.717a36.222,36.222,0,0,0-.447,4.039,26.752,26.752,0,0,0,.214,4.432c.125.768.214,1.59.411,2.359.214.751.465,1.519.715,2.252a11.8,11.8,0,0,0,.947,2.216,18.621,18.621,0,0,0,1.019,1.823,23.176,23.176,0,0,0,5.915,6.594c-2.43-2.2-1.465-2.019-2.055-3.127a20.083,20.083,0,0,0,6.236,4.61,22.042,22.042,0,0,0,7.309,2,37.226,37.226,0,0,0,12.938-1.269c7.827-2.055,14.635-5.254,21.229-8.309q4.825-2.305,9.578-4.575c3.61-1.644,4.914-2.341,7.148-3.234a21.623,21.623,0,0,1,6.88-1.715,8.1,8.1,0,0,1,3.574.643,7.839,7.839,0,0,1,2.7,2.234,6.429,6.429,0,0,1,1.573,4.575,14.222,14.222,0,0,1-1.179,4.5,20.466,20.466,0,0,0,2.395-4.718,8.018,8.018,0,0,0-.357-5.843,7.782,7.782,0,0,0-3.842-4.253,11.869,11.869,0,0,0-5.986-.768,47.814,47.814,0,0,0-12.473,3.431,181.988,181.988,0,0,0-22.873,11.311c-3.413.572-7.487,2.073-11.347,2.913-3.824.876-7.505.876-8.881-.232a16.781,16.781,0,0,1-8.845-3.628,19.249,19.249,0,0,1-5-6.808,18.861,18.861,0,0,1-1.251-7.684,35.543,35.543,0,0,1,1.054-7.13c2.323-9.113,6.5-17.3,12.223-28,1.876-2.913,1.912-1.019,3.163-1.519,0,0-1.984,4.414-4.217,8.81-1.09,2.2-2.18,4.414-3,6.076-.8,1.662-1.34,2.788-1.34,2.788s1.555-2.573,3.181-5.111l3.234-5.057c-.876,2.466-3.038,6.379-4.753,9.953-1.751,3.574-2.948,6.862-2.484,7.845a87.776,87.776,0,0,1,5.736-13.134c2.377-4.646,5.093-9.471,7.255-14.51a34.927,34.927,0,0,0,2.52-7.845,11.593,11.593,0,0,0-.84-7.612,9.448,9.448,0,0,0-5.575-4.164c-.536-.143-1.054-.286-1.573-.429-.518-.125-1.054-.143-1.555-.214-.5-.054-.983-.107-1.465-.161-.482,0-.947,0-1.412.018a20.472,20.472,0,0,1,2.466.572,16.2,16.2,0,0,1,2.5.786,10.434,10.434,0,0,1,4.557,3.02,8,8,0,0,1,1.751,5.379,18.893,18.893,0,0,1-1.126,5.718c-1.537,3.038-4.539,7.9-5.164,7.13a71.422,71.422,0,0,0,2.448-7.595,13.279,13.279,0,0,0,.286-5.9,6.214,6.214,0,0,0-3.52-4.2,5.71,5.71,0,0,0-1.287-.518,6.951,6.951,0,0,0-1.322-.375l-1.34-.286-1.5-.179c-.876-.143-2.323-.2-3.538-.3-1.269-.125-2.52-.036-3.806-.072-1.269,0-2.573.143-3.86.214-1.3.107-2.609.3-3.931.465a94.929,94.929,0,0,0-16.351,4.128c-5.647,1.912-13.474,4.557-14.724,4.056,3.681-1.608.59-1.3,3.556-2.788-7.934,3.556.3,3.288-11.758,7.112l.536-3.413a9.608,9.608,0,0,1-4.021,2.734c-.858.34-1.769.643-2.752.929-.929.268-1.894.536-2.877.822-4,1.144-8.577,2.663-12.312,5.307-3.449.179,1.733-2.913,7.952-5.611-7.362,2.484-7.237,4.5-13.063,6.9l4.414-4.735c-5.075,4.95-11.222,4.217-14.975,4.539-.107.375.822.75.786,1.358,0,.3-.286.643-1.054,1.072a15.819,15.819,0,0,1-4.128,1.394c-3.645.482-1.948-.59-2.859-.768a4.589,4.589,0,0,1-2.412,1.573,13.182,13.182,0,0,1-2.752.786c-.554.089-1.144.179-1.787.25-.643.054-1.34.036-2.073.036-.518-.447.465-.751,1.59-1.054,1.108-.34,2.359-.786,2.5-1.233a35.758,35.758,0,0,1-5.129.089h.018a9.868,9.868,0,0,1,1.7-5.272c1.072-3.467.679-3.074.071-2.609-.59.536-1.34,1.215-.965-.375,2.859-4.36,4.271-5.254,5.111-5.307.84-.089,1.608.7,3.735-1.8a66.982,66.982,0,0,1-2.537,7.38c-.625,1.5-1.287,3.109-1.894,4.7-.2.751-.375,1.483-.572,2.216.036.393.054.768.054,1.144-1.519-1.626-3.02-3.27-4.36-4.7a26.563,26.563,0,0,0,7.9-1.34,35.266,35.266,0,0,1-7.863.893l4.771,5.146V189.7l.643-2.162c.679-1.555,1.376-3.109,2.109-4.628.322.554,2.806-3.252,4.217-5.575.715-1.144,1.287-2.055,1.537-2.055.143-.018.2.2.125.733a13.025,13.025,0,0,1-.679,2.788,40.021,40.021,0,0,0,3.735-12.223,30.435,30.435,0,0,0,.268-6.576l-.071-.965c-.036-.3-.2-.268-.286-.429-.232-.214-.447-.429-.679-.679-.465-.447-.929-1.054-1.412-1.608-7.237,2.126-14.617,4.271-21.837,6.683-3.556,1.161-7.094,2.305-10.275,3.252-1.215.375-2.412.733-3.61,1.09-1.036.3-2.055.59-3.056.876,2.126-.107,4.861-.554,4.575.179-7.469,2.395-6.88.822-8.542.429a11,11,0,0,0-4.682,2.448,10.513,10.513,0,0,1-3.163,2.484c-.733-.036-1.412-.071-2.073-.125-.625-.036-1.054-.107-1.537-.161-.929-.107-1.715-.25-2.43-.375a15.983,15.983,0,0,1-3.574-1.09,5.662,5.662,0,0,1-2.466-2.216,5.252,5.252,0,0,1-.107-4.324s-.5.232-1.019.465c-.5.25-1,.518-1,.518.286-1.43.679-2.395.876-3.217.232-.822.34-1.519.482-2.252a10.457,10.457,0,0,1,.786-2.412,15.718,15.718,0,0,1,2.538-3.52c.268-.071.089.572-.268,1.483-.179.447-.393.983-.625,1.537-.2.5-.268.822-.393,1.233a12.006,12.006,0,0,1,1.769-2.806,16.89,16.89,0,0,1,1.823-1.787,18.334,18.334,0,0,0,4.164-4.878l-.858,2.7-.768,2.663c2.984-4.164,7.648-10.758,7.166-7.523a67.682,67.682,0,0,1,4.467-7.237c1.8-2.68,3.9-5.522,5.951-8.953a30.927,30.927,0,0,0,2.948-6.236,14.02,14.02,0,0,0,.7-5.289,9.172,9.172,0,0,0-.3-1.841,8.148,8.148,0,0,0-.733-1.948,9.879,9.879,0,0,0-2.573-3.27,11.856,11.856,0,0,0-5.236-2.43,19.51,19.51,0,0,0-3.717-.357,29.185,29.185,0,0,0-5.682.572l.768-1.608c-3.574,1.215-9.489,2.323-15.1,3.77-.7.179-1.394.375-2.091.554l-1.019.286c-.357.089-1,.3-1.34.411-1.5.536-2.716,1.036-3.86,1.555a19.851,19.851,0,0,0-5.093,3.056l-1.072-.25-10.7,6.362c-5.254,1.787-4.289-1.036-4.485-.286-11.168,4.61-20.21,7.648-27.609,8.685-.232,1.09-2.412,2.377-5.861,3.306a22.025,22.025,0,0,1-5.736.786,8.171,8.171,0,0,1-3-.518,3.816,3.816,0,0,1-2.144-1.894,6.071,6.071,0,0,1,.125-3.431,16.161,16.161,0,0,1,1.34-3.2,28.355,28.355,0,0,1,1.769-2.931l2.019-2.716,1-1.358c.357-.482.59-.84,1.126-1.465l2.877-3.467c1.841-2.341,3.967-4.592,6.058-6.88a287.92,287.92,0,0,1,27.323-25.411c19.21-15.922,39.456-30.271,57.594-44.46a64.98,64.98,0,0,0,6.326-5.45c2.162-2.126,4.378-4.45,6.63-6.755l1.019,3.074c-1.894.357-3.842,1.858-7.148,2.234a22.7,22.7,0,0,0,2.716-.232c.7-.143,1.34-.286,1.966-.411.5-.089,1.072-.268,1.43-.286.375-.036.715-.089,1.036-.143-.608-1.8-1.2-3.61-1.715-5.164-3.663,2.823-5.432,4.861-11.383,9.042-6.63,4.039-10.2,3.9-16.44,6.612l3.77-.5c-7.863,7.094-6.469,3.324-12.33,9.471l-1.3-2.5c-1.608,2.823-8.309,6.058-11.222,7.184l-1.126,3.163c-6.058,2.948-9.828,5.146-12.509,4.932l1.573,1.054a20.766,20.766,0,0,0-4.289,2.52c-1.966,1.412-4.324,3.091-6.415,4.575-4.2,2.966-7.452,5.093-5.254,1.394-1.287,1.555-2.144,3.342-5.593,5.9l-1.626-.947c-2.234,2.2-4.664,4.45-6.719,6.29-2.037,1.876-3.788,3.234-4.789,3.467,2.252-2.609,2.591-3.949,2.913-5.289-2.52,2.216-4.414,4.021-5.826,5.486a23.9,23.9,0,0,0-2.895,3.645c-1.179,1.912-1.09,2.859-.929,3.753a4.278,4.278,0,0,1-.429,3.359c-.786,1.715-2.609,4.2-6.5,8.667l-.7-.965-2.966,5.54s-.322.25-.822.643c-.25.2-.536.429-.84.661a7.1,7.1,0,0,0-1.019.911l-3.091,3.377a26.078,26.078,0,0,1-1.948,4.878,33.433,33.433,0,0,0-2.5,5.843,27.312,27.312,0,0,0-1.5,6.7,10.694,10.694,0,0,0,1.662,7.273,12.6,12.6,0,0,0,6.362,4.253,25.78,25.78,0,0,0,8.023,1.126,42.476,42.476,0,0,0,8.631-1c1.394-.286,2.77-.661,4.056-1.019q.965-.295,1.876-.59a12.385,12.385,0,0,0,1.376-.536c5.325-1.7,12.991-1.608,22.748-5.379L340.1,138c4.253-.536,13.777-3.359,23.159-5.968,2.341-.643,4.682-1.269,6.826-1.769.518-.107,1.036-.214,1.537-.322a5.046,5.046,0,0,1,1.161-.143,1.861,1.861,0,0,0,.59-.036l.768-.071c.518-.036,1.019-.089,1.5-.125,3.931-.268,7.112-.054,8.9.661,6.111-2.323-.661-.3-.876-1.626a23.446,23.446,0,0,1,6.915-1.43,3.234,3.234,0,0,1,.733.089.5.5,0,0,1,.2.071c.036-.071-.089.447.179-.786a13.816,13.816,0,0,1,2.162-5.629c.608-.751.768-.482-.107-.322a10.987,10.987,0,0,1-4.592-.393,33.033,33.033,0,0,1-3.913-1.144c-.071-.054-.2,0-.322.054a5.026,5.026,0,0,0-1,.911c-.59,1.412-.893,2.073-.7,2.019a6.121,6.121,0,0,0,1.215-1.287c1.072-1.358,1.5-1.858,1.787-.8-.715.965-1.3,1.787-1.841,2.5-.608.858-1.179,1.68-1.662,2.448-.983,1.537-1.662,2.859-2.43,4.271-1.537,2.895-3.431,5.951-9.578,12.866-1.912.84,2.394-4.217,3.056-6.022-1.644,2.77-3.878,5.968-6.451,9.81-.643.983-1.3,2-1.966,3.038-.375.608-.751,1.2-1.126,1.823-.518.858-.983,1.715-1.483,2.573a32.517,32.517,0,0,0-3.913,11.133A21.8,21.8,0,0,0,360.6,175.83l.661,1.322c.268.411.554.822.84,1.215a17.683,17.683,0,0,0,1.912,2.252,28.764,28.764,0,0,0,2.216,1.948c.822.554,1.68,1.054,2.52,1.555a28.481,28.481,0,0,0,11.848,3.02,30.666,30.666,0,0,0,3.145.089c.983,0,2.252,0,2.859-.054,1.412-.089,2.77-.214,4.056-.375,3.217-.179,6.5-.554,9.864-1.072,1.662-.268,3.377-.554,5.075-.894.858-.161,1.715-.34,2.573-.518l1.161-.232.322-.036a21.626,21.626,0,0,1,3.038-.089.76.76,0,0,1,.3.071s.054,0,.054.036l-.054.179a2.987,2.987,0,0,1-.143.357,4.242,4.242,0,0,1-.858,1.108c-.3.3-.572.554-.786.733l-.3.25s-.143.322-.2.465a4.588,4.588,0,0,0-.089.679l-.107.965-.161,1.93-.983,12.133,13.277,1.144a57.24,57.24,0,0,0,6.648.286l.572-.679c7,.286,13.4-1.59,19.281-3.788,5.808-2.252,11.294-4.95,16.708-6.88L460.17,194.4Z" transform="translate(1147.891 5471.446)" fill="#ffb6c8"/>
        <g id="Grupo_1090677" data-name="Grupo 1090677" transform="translate(-174.053 5195.612)">
          <g id="Grupo_1088732" data-name="Grupo 1088732" transform="translate(0 0)">
            <path id="Trazado_863550" data-name="Trazado 863550" d="M478.364,49.441c.32-.038.678-.057,1-.094a6.074,6.074,0,0,0-2.412-.867,43.256,43.256,0,0,1,7.689.848,21.058,21.058,0,0,1,6.219,2.149,50.357,50.357,0,0,1,11.515,7.784c2.563.867,4.485,2.563,4.3,3.788s-2.412,1.508-4.976.641a10.706,10.706,0,0,0-1.753-.207,54.09,54.09,0,0,1-14.172-1.093c1.036.038,2.13.057,3.166.094-.754-.132-1.489-.264-2.243-.433q-.566-.113-1.131-.283c-.339-.094-.867-.283-1-.3a1.444,1.444,0,0,1,.6-.49c-1.244.415-4.353-.226-7.256-1.319a29.96,29.96,0,0,1-4.391-2.073c-.735-.415-1.282-.792-2.017-1.282a17.877,17.877,0,0,1-1.866-1.451c-.264-.245-.509-.49-.716-.716l-.773-.773a4.886,4.886,0,0,1-.961-1.395,1.318,1.318,0,0,1,.6-1.847,4.578,4.578,0,0,1,1.432-.452c.584-.094,1.338-.113,1.885-.226a17.506,17.506,0,0,1,2.092-.113c.735.019,1.527.038,2.356.057,0,0,2.884.113,2.827.075Z" transform="translate(-467.033 -3.759)" fill="#bad1ff"/>
            <path id="Trazado_863551" data-name="Trazado 863551" d="M495.927,48.991c-1.131.057-2.808-.019-4.335-.038-1.659-.038-3.3-.075-4.938-.132l-.735.207.735-1.715v.132a23.034,23.034,0,0,0,4.9,3.242c1.64.848,3.392,1.734,5.07,2.582l1.338.81a2.109,2.109,0,0,1,.942,1.432c.038.961-1.489,1.282-3.392.7l-1.093-.339a6.284,6.284,0,0,0-.81-.17,21.2,21.2,0,0,1-4.014-.622c-.829-.188-1.677-.415-2.525-.66-.886-.264-1.772-.565-2.62-.886a31.2,31.2,0,0,1-5.126-2.469,18.235,18.235,0,0,1-4.316-3.543c-.132-.151-.151-.264-.264-.415a1.2,1.2,0,0,1-.207-.415.522.522,0,0,1,.32-.547,3.24,3.24,0,0,0,1.225-.867c.075-.622,1.036-.848,2.507-.735.358.019.773.075,1.169.132a7.583,7.583,0,0,1,1.074.132,18.4,18.4,0,0,1,2.412.565c3.166.9,5.3,2.488,5.164,3.75.49.057,1.018.113,1.508.17l-.98-.754c.49,1.263,2.978,2.243,4.486,3.279.188.057,1.866.886,1.941.923-.056-.019-1.979,2.394-1.979,2.394l-.415-.339c-.245-.17-.6-.377-.584-.377.132-.094.4-.207.377-.207a60.043,60.043,0,0,0-7.878-4.5l-4.165-2.431c-1.131-.961-.716-1.677.848-1.677,0,0,.565.038,1.15.057h1.055c-.339.019-.641.057-.98.075,2.205.377,4.467.773,6.709,1.168,2.092.339,4.2.678,5.937.848a1.348,1.348,0,0,1,1.187.66c.113.32-.188.584-.7.565Z" transform="translate(-473.382 -7.267)" fill="#bad1ff"/>
            <g id="Grupo_1088731" data-name="Grupo 1088731" transform="translate(0.211)">
              <path id="Trazado_863552" data-name="Trazado 863552" d="M486.829,44.935c-.415-.019-.829-.057-1.282-.113a6.144,6.144,0,0,1-1.621-.49c-.283-.245-.433-.377-.509-.452a16.1,16.1,0,0,0,1.941.207c1.206.038,1.658.49,1.47.848Z" transform="translate(-478.311 -7.828)" fill="#bad1ff"/>
              <path id="Trazado_863553" data-name="Trazado 863553" d="M486.117,43.961c-.509-.075-.867-.113-.867-.113a6.123,6.123,0,0,0,.622-.038.615.615,0,0,0,.151.075l.094.075Z" transform="translate(-481.009 -7.89)" fill="#bad1ff"/>
              <path id="Trazado_863554" data-name="Trazado 863554" d="M378.551,81.4q9.159,2.8,18.3,5.729l18.111,5.9c.4.132.7.377.66.547-.038.151-.4.188-.773.057l-18.093-5.88q-9.131-2.912-18.281-5.711c-.415-.132-.7-.377-.7-.565.038-.17.377-.226.754-.113Z" transform="translate(-207.971 25.274)" fill="#bad1ff"/>
              <path id="Trazado_863555" data-name="Trazado 863555" d="M346.527,90.215c-.226-.245-.151-.415.189-.415a1.63,1.63,0,0,1,.961.415c.189.207.094.415-.188.4a1.456,1.456,0,0,1-.942-.415Z" transform="translate(-80.98 32.795)" fill="#bad1ff"/>
              <path id="Trazado_863556" data-name="Trazado 863556" d="M603.773,133.852a31.363,31.363,0,0,1-4.3-2.808,1.96,1.96,0,0,0-.792-.3c.207-.226-.019-.6-.584-.942-5.5-3.411-11.383-6.747-17.433-9.706-6.05-2.978-12.25-5.861-18.375-8.8a1.5,1.5,0,0,0-.3-.829,7.568,7.568,0,0,0-4.127-2.507l-1.432-.32c-5.692-1.621-11.364-3.223-17.037-4.844a18.469,18.469,0,0,0-3.656-1.96c-4.448-2.544-8.933-5.032-13.57-7.388.377-.075.641-.226.716-.471.113-.622-.848-1.451-2.186-1.9l-1.979-.754L524.58,91.9a3.323,3.323,0,0,0,.792.17q3.138,1.074,6.332,2.318c9.235,3.6,18.206,7.576,26.856,11.723,8.669,4.165,17.113,8.707,25.443,13.193a1.713,1.713,0,0,0,1.018.32c.226-.075.264-.264-.038-.471-9.989-6.954-18.319-14.512-30.173-20.844q-10.6-5.739-21.165-11.119c-7.049-3.6-14.229-7.086-21.353-10.592-7.784-2.884-15.209-5.955-22.333-9.386-7.162-3.392-14.418-6.8-21.711-10.667-5.013-2.563-9.819-4.957-14.889-7.407q-7.915-3.788-15.812-7.388c-10.592-4.768-20.882-9.612-32.209-13.833-8.2-3.694-16.773-4.222-19.092-1.225-1.376,1.828-.226,4.5,2.676,7.143l-2.035-.735-3.336-.81a17.388,17.388,0,0,0-8.066-.339l-2.733.584a24.026,24.026,0,0,1-3.223,1.037c-1.3.3-2.808.509-3.92.886a22.854,22.854,0,0,0-6.182,2.582l.226,1.263-.66.151c-2.073.264-3.656.942-4.391,1.922l-.226,1.376a8.907,8.907,0,0,0,1.546,5.126,2.363,2.363,0,0,0,.038,1.79c-1.7.98-2.752,2.224-2.167,4.09-.9.151-.942.773-.113,1.395a4.253,4.253,0,0,0,1.055.528h0a9.019,9.019,0,0,1-1.395.49c-.829-.113-1.3-.17-1.3-.17l-4.146-.773a13.783,13.783,0,0,0-3.129.17c-2.978,1.527-3.129,1.432-3.129,2.582a5.72,5.72,0,0,0,.339.471c-1.018-.226-1.583-.339-1.941-.415-.584-.226-.886-.32-1.338-.49-1-.3-1.715-.471-1.715-.471-.434.415-.434.415-1.112.245a.52.52,0,0,0-.377.283c1.508,1.64,1.583,1.621,1.527,1.828a11.044,11.044,0,0,0,.98.867c1.508.867,2.111,1.206,2.356,1.357.848-.075,1.47-.132,1.941-.17.4-.094.66-.151.829-.188.339-.075.358-.075.358-.075l.32.66.754-.471-.509.49,1.282.038-1.489.075c1.357.339,2.035.509,2.507.622a11.854,11.854,0,0,1,1.187.358,10,10,0,0,1,1.96.7,1.534,1.534,0,0,0-.188.3c2.62.528,2.582.509,5.051.961a4.418,4.418,0,0,0,.66-.245,1.687,1.687,0,0,0,1.018.528l1.206.245.17.151v.038c.283.207.49.358.7.528.132.113.151.113.151.113h0c.6.433,1.451,1.074,3.75,2.752a19.744,19.744,0,0,0,2.054.471c-.226,0-.452.038-.66.038-.434.057-.283.7-.49.66q-2.007-.311-4.014-.735l-1.018-.226-.773-.075c-.528-.057-.961-.113-1.7-.245-2.582-.415-5.6-1-8.707-1.621-1.112-.415-2.262-.433-2.563-.057-.283.4.4,1.037,1.545,1.451a87.678,87.678,0,0,0,8.575,4.24c1.168.528,2.356,1.074,3.543,1.6,1.451.641,2.921,1.263,4.41,1.828a97.9,97.9,0,0,0,18.111,4.957q4.467,1.3,8.99,2.639l-.528.094,2.412.471.245.075-2.092.283-1.3-.188c-6.9-2.205-13.569-3.11-20.392-4.674-3.675-.848-6.992-1.093-10.5-1.7-.867-.283-1.564-.17-1.6.264-.038.415.66.98,1.508,1.244,10.7,4.9,23.351,9.084,33.453,9.291a22.565,22.565,0,0,0,5.9,1.432h.094c-.528.113-1.036.188-1.564.264,1.583.452,2.657.151,4.127.471l-.942.829c7.689,2.525,15.586,6.276,23.125,7.727.283.094.565.17.829.245a46,46,0,0,0,8.82,5.616c-1.263-.4-2.469-.792-3.732-1.206a45.708,45.708,0,0,0,7.765,4.184c7.859,3.223,17.245,5.465,22.484,4.3l22.5,9.4q11.223,4.467,22.371,9.141c.754.32,1.527.339,1.79.075.188-.283-.207-.773-.961-1.093-5.2-2.525-10.5-4.975-15.812-7.35l-8.029-3.505-8.085-3.637c9.386,3.166,18.79,5.88,28.232,9.272l3.562,1.47a22.005,22.005,0,0,0,3.6,1.093c11.968,4.259,23.37,8.142,35.149,13.268,10.139,4.354,18.677,8.462,28.477,13.174,6.785,3.411,13.155,6.766,19.619,9.894,3.26,1.527,6.389,3.185,9.593,4.73,3.2,1.564,6.464,3.072,9.838,4.523,1.753.867,3.656,1,4.222.3s-.415-1.979-2.167-2.846c-26.932-14.889-54.919-28.326-86.336-39.069-3.392-1.168-6.747-2.3-10.064-3.449a1.079,1.079,0,0,0,.207-.3,1.646,1.646,0,0,0-.415-1.508c3.788,1.244,7.652,2.412,11.534,3.543A279.879,279.879,0,0,0,557.9,142.125c7.708,2.507,15.04,3.958,22.3,5.88,8.594,4,17.188,7.953,25.65,12.231a1.088,1.088,0,0,0,.9.188c.188-.094.075-.339-.264-.547-2.789-1.79-5.635-3.524-8.537-5.239-2.959-1.64-5.974-3.223-8.99-4.806,1.206-.113,2.054-.528,2.262-1.263.226-.773-.3-1.734-1.3-2.676l4.353,1.658c.9.32,1.715.32,1.847-.057.151-.415-.452-.961-1.3-1.3q-8.877-3.392-17.716-6.785-10.46-4.58-21.014-8.971a4.782,4.782,0,0,0,2.714-1.018h0c1.112.415,2.205.848,3.3,1.263q7.294,3.59,14.738,7.011c4.919,2.356,9.875,4.693,14.87,6.954,2.507,1.112,5.013,2.224,7.539,3.317,2.507,1.131,4.994,2.28,7.5,3.411q7.52,3.392,15.209,6.521c.4.17.792.188.867,0,.075-.17-.17-.433-.528-.584q-9.273-3.788-18.338-7.934H604c.283,0,.415-.17.189-.4a1.647,1.647,0,0,0-.961-.415c-.339,0-.377.188-.188.4-5.635-2.563-11.346-4.957-16.905-7.6q-8.368-3.93-16.679-7.859l7.934,3.053,7.878,3.147c5.258,2.073,10.535,4.09,15.869,5.993,1.037.7,2.092,1.395,3.147,2.092a1.279,1.279,0,0,0,.942.151c.151-.094,0-.377-.32-.547l-.886-.565c2,.773,3.807.716,4.146-.151.264-.942-1.131-2.356-3.2-3.2-5.428-2.507-10.969-4.674-16.491-6.936l-1.734-.867-1.64-1.131c8.745,3.091,17.6,5.861,26.216,9.178.716.32,1.451.339,1.6.038s-.32-.81-1.055-1.15c-7.181-3.939-14.606-7.369-22.088-10.837-7.463-3.524-15.077-6.691-22.71-9.838-4.58-3.26-9.2-6.521-13.909-9.725.66.226,1.338.452,2,.66,8.443,3.015,15.906,6.954,23.219,10.856,7.331,3.9,14.474,8.2,22.427,11.76.4.207.792.188.9.057s-.113-.415-.509-.565c-7.708-3.6-14.418-7.9-21.975-11.76-6.257-3.2-12.231-6.219-17.961-9.517,6.163,2.488,12.1,5.258,17.98,8.085,5.88,2.77,11.685,5.88,17.678,8.632a2.991,2.991,0,0,0,1.489.4.52.52,0,0,0,.207.339,43.563,43.563,0,0,0,4.523,2.94,1.142,1.142,0,0,0,.98.188c.226-.075.094-.3-.245-.547Zm-221.2-64.983c-.151.019-.264.057-.377.075.358.019.754.057,1.187.094l1.979-.716S383.966,68.6,382.571,68.869ZM365.666,56.958h0c-.641.226-1.112.4-1.112.4.452-.17.81-.3,1.093-.4ZM480.743,117a184.635,184.635,0,0,0-20.053-6.577l4.674,2.092C470.453,114.082,475.579,115.608,480.743,117Zm-112.4-48.04a22.451,22.451,0,0,0,5.051-.735,20.807,20.807,0,0,0,3.355,1.489c3.166,1.112,6.276,2.111,9.367,3.034-.565.3.17.528.528.716s.716.358,1.093.547q-4.975-1.329-10.064-2.657c-3.072-.792-6.332-1.828-9.31-2.394ZM346.349,59.6a2.422,2.422,0,0,0-.358.075l.471.9s-.038-.415-.094-.98Zm-.754-1.527c.188.038.377.057.584.094C346.066,57.844,345.858,57.881,345.595,58.07Zm5.032.622a2.912,2.912,0,0,1-.754.188Zm9.2-19.45.7,3.977-.886-3.882Z" transform="translate(-335.493 -24.751)" fill="#bad1ff"/>
            </g>
          </g>
          <g id="Grupo_1088734" data-name="Grupo 1088734" transform="translate(84.346 95.718)">
            <path id="Trazado_863557" data-name="Trazado 863557" d="M383.259,110.753a4.9,4.9,0,0,0-.49.057,1.931,1.931,0,0,0,1,.547c-4.825,0-9.687-3.524-12.326-6.879-1.263-.49-2.13-1.527-1.922-2.318s1.413-1.018,2.676-.528a5.679,5.679,0,0,0,.9.094,22.485,22.485,0,0,1,7.444.377h-1.7a9.8,9.8,0,0,1,2.318.6l-.452.283c2.808.094,5.918,1.922,6.954,4.071s-.377,3.826-3.185,3.713h-1.263Z" transform="translate(-248.869 -52.684)" fill="#bad1ff"/>
            <path id="Trazado_863558" data-name="Trazado 863558" d="M371.383,109.821c1.64.17,3.242.264,4.844.358l.377-.132-.584,1.093v-.094c-.867-1.527-2.827-2.884-4.674-4.033l-.622-.471a1.182,1.182,0,0,1-.358-.886c.075-.622.9-.848,1.866-.528l1.093.377c2.846.509,6.879,2.3,7.482,4.862.132.584-.4,1.018-.7,1.508-.226.792-1.47,1.018-2.77.49s-2.167-1.583-1.922-2.393c-.245-.038-.49-.094-.716-.132l.4.509c-.075-.81-1.187-1.489-1.9-2.224l-1.225-.773,1.508-1.413.584.547a1.405,1.405,0,0,0-.226.132,32.465,32.465,0,0,0,3.355,3.034l1.489,1.451c.339.547.075,1.018-.584,1.093h-.961a3.659,3.659,0,0,0,.452-.038c-2-.433-4.014-1.055-5.993-1.451a.921.921,0,0,1-.716-.509c-.056-.226.151-.377.49-.32Z" transform="translate(-243.325 -49.491)" fill="#bad1ff"/>
            <g id="Grupo_1088733" data-name="Grupo 1088733">
              <path id="Trazado_863559" data-name="Trazado 863559" d="M371.4,109.21a2.233,2.233,0,0,1,1.112.207,2.271,2.271,0,0,1,.113.226c-.189,0-.452.019-.7.038-.509.038-.641-.226-.509-.471Z" transform="translate(-237.028 -45.751)" fill="#bad1ff"/>
              <path id="Trazado_863560" data-name="Trazado 863560" d="M371.21,109.44h.3a1.481,1.481,0,0,0-.226.075l-.038-.038-.019-.038Z" transform="translate(-235.614 -45.548)" fill="#bad1ff"/>
              <path id="Trazado_863561" data-name="Trazado 863561" d="M430.078,92.1q-8.707-3.364-17.282-7.03c-.189-.075-.32-.226-.283-.339.038-.094.226-.132.4-.038,5.748,2.412,11.477,4.768,17.282,7.011.189.075.32.226.283.339s-.207.151-.4.075Z" transform="translate(-372.412 -67.486)" fill="#bad1ff"/>
              <path id="Trazado_863562" data-name="Trazado 863562" d="M438.309,84.036c.094.151.038.245-.132.264a.626.626,0,0,1-.471-.226.167.167,0,0,1,.132-.264.562.562,0,0,1,.452.226Z" transform="translate(-427.721 -68.222)" fill="#bad1ff"/>
              <path id="Trazado_863563" data-name="Trazado 863563" d="M378.812,100.362a13.91,13.91,0,0,1,1.922,1.64.758.758,0,0,0,.377.17c-.132.151-.057.377.207.584,4.938,4.033,10.7,7.407,16.283,10.912a1.33,1.33,0,0,0,.057.528,2.906,2.906,0,0,0,1.828,1.545l.7.188c2.714.961,5.409,1.922,8.123,2.884a6.488,6.488,0,0,0,1.64,1.206c2,1.583,4.014,3.129,6.125,4.58a.535.535,0,0,0-.415.32c-.132.4.283.923.9,1.187l.923.452-2.827-.961a1.013,1.013,0,0,0-.4-.094c-1-.433-1.979-.9-2.978-1.413a177.989,177.989,0,0,1-23.841-15.134.587.587,0,0,0-.49-.17.17.17,0,0,0-.038.3c4.335,4.278,7.689,8.839,13,12.778,6.314,4.712,12.646,9.141,19.393,13.4,7.463,3.487,14.078,7.539,21.523,11.723,10.026,5.635,19.845,10.271,30.041,14.983,3.694,2.035,7.9,2.054,9.367.057.886-1.225.565-2.883-.622-4.467l.942.4,1.6.4a7.069,7.069,0,0,0,4.033-.057l1.451-.471c2.149-1.15,5.013-1.621,6.954-2.978l.057-.81.358-.075a3.638,3.638,0,0,0,2.488-1.131l.283-.886a6.727,6.727,0,0,0-.132-3.336,1.971,1.971,0,0,0,.207-1.15,2.848,2.848,0,0,0,1.621-2.6c.471-.094.565-.49.226-.886a1.727,1.727,0,0,0-.452-.358h0a7.838,7.838,0,0,1,.754-.3c.4.075.622.132.622.132q1.018.264,1.9.509a4.584,4.584,0,0,0,1.451-.188,4.468,4.468,0,0,0,1.6-1.866,2.241,2.241,0,0,0-.075-.264c.716.057.773.057.98.075a2.247,2.247,0,0,0,.415-.113,1.013,1.013,0,0,1,.339-.415.754.754,0,0,0,.132-.245,1.642,1.642,0,0,1-.151-.66,1.263,1.263,0,0,0-.113-.283c-.358-.3-.509-.415-.565-.471-1.263.509-1.282.509-1.282.509l-.057-.4-.377.32.283-.339-.547.038.66-.113a11.325,11.325,0,0,1-1.527-.547,3.445,3.445,0,0,1-.829-.433.629.629,0,0,0,.132-.188q-1.187-.358-2.356-.7a3.7,3.7,0,0,0-.358.132.76.76,0,0,0-.471-.377l-.6-.188-.094-.113v-.038c-.17-.17-.283-.264-.415-.4l-.075-.094h0c-.283-.264-.678-.678-1.772-1.734a7.468,7.468,0,0,0-1.036-.245l.358-.038c.226-.038.207-.452.32-.433a59.954,59.954,0,0,1,8.2,2.054c.452.245.961.245,1.15,0s-.038-.66-.49-.9c-4.448-4.165-10.95-6.822-16.962-7.821l-4.467-1.451.283-.075-1.225-.245-.132-.038,1.112-.226.66.075c3.411,1.244,6.841,1.64,10.29,2.488,1.866.452,3.581.528,5.39.829.434.151.81.075.886-.207.057-.264-.264-.6-.678-.773-5.22-2.865-11.553-5.277-16.811-5.145a7.259,7.259,0,0,0-2.978-.678h-.057l.829-.245a20.58,20.58,0,0,0-2.13-.094l.565-.584c-3.845-1.206-7.689-3.185-11.515-3.713-.151-.057-.283-.075-.415-.113a17.459,17.459,0,0,0-4.184-3.129c.622.188,1.225.377,1.828.565a16.291,16.291,0,0,0-3.619-2.205c-3.656-1.583-8.2-2.337-10.95-1.395-6.917-3.374-13.89-6.8-20.712-10.516-.358-.188-.735-.207-.9-.019-.132.188,0,.49.358.7,4.712,3.034,9.649,5.824,14.606,8.462-4.448-1.564-8.9-3.26-13.325-5.2l-1.64-.867a8.967,8.967,0,0,0-1.715-.66c-5.616-2.582-10.969-4.938-16.453-8.085-4.674-2.714-8.726-5.145-13.306-8.047-6.408-4.071-12.213-7.859-18.96-10.988-.867-.471-1.866-.49-2.224,0-.339.471.075,1.263.942,1.734,13.324,8.142,26.234,16.491,41.048,23.049,1.6.7,3.166,1.395,4.749,2.073a.953.953,0,0,0-.094,1.15c-1.79-.754-3.619-1.451-5.484-2.13a92.219,92.219,0,0,0-14.795-7.934,103.989,103.989,0,0,0-10.912-3.336c-4.108-2.3-8.16-4.674-12.326-6.936a.451.451,0,0,0-.471-.075c-.113.075-.057.226.094.339,2.657,2.017,5.447,3.9,8.311,5.767a1.5,1.5,0,0,0-1.282.886,1.836,1.836,0,0,0,.415,1.677l-2.092-.923c-.434-.188-.867-.151-.961.094-.113.264.151.6.547.792,2.846,1.282,5.673,2.544,8.519,3.807q4.891,2.742,9.838,5.39a2.684,2.684,0,0,0-1.508.7h0l-1.545-.754a194.439,194.439,0,0,0-28.439-15.379c-.188-.094-.4-.075-.452.038s.057.264.226.339c3.016,1.3,5.993,2.7,8.914,4.146h0a.156.156,0,0,0-.132.264.629.629,0,0,0,.471.226c.17,0,.207-.132.132-.264,5.447,2.733,10.724,5.748,15.831,8.933-4.975-2.45-9.989-4.844-15.115-6.954l-1.47-1.169a.541.541,0,0,0-.471-.057c-.075.075-.019.245.113.339l.415.32c-.98-.4-1.922-.283-2.167.3-.226.6.4,1.451,1.395,1.885q3.9,2.007,7.821,3.864l.81.49.735.678c-4.2-1.677-8.424-3.3-12.627-4.881-.339-.17-.716-.132-.829.057-.094.207.094.509.452.678,6.785,4.146,13.8,8.047,20.92,11.8,2,1.979,4,4,6.012,5.993l-.942-.4c-7.916-3.675-13.494-9.291-20.92-13.362a.359.359,0,0,0-.452,0c-.075.094,0,.264.207.339,3.581,2.073,6.615,4.523,10.045,6.841,2.846,1.922,5.56,3.75,8.1,5.729-5.729-2.94-10.837-6.634-16.415-9.8a1.082,1.082,0,0,0-.716-.207.259.259,0,0,0-.075-.207,16.493,16.493,0,0,0-2.017-1.734.475.475,0,0,0-.49-.094c-.113.057-.075.188.075.339ZM486.18,134.945s.132-.038.207-.057c-.189,0-.377,0-.6-.019l-1.093.509s.735-.207,1.489-.433Zm7.614,7.143h0c.358-.17.622-.283.622-.283Q494.048,141.975,493.794,142.088Zm-54-33.189a58.919,58.919,0,0,0,9.5,3.43l-2.167-1.15C444.718,110.369,442.268,109.653,439.8,108.9Zm53.788,25.612a11,11,0,0,0-2.714.6,9.334,9.334,0,0,0-1.6-.867c-1.545-.622-3.072-1.187-4.58-1.677.32-.207-.038-.339-.207-.452l-.509-.32c1.64.471,3.3.942,4.994,1.432,1.527.415,3.129,1,4.636,1.282Zm10.328,6.031.189-.057-.094-.565s-.038.264-.075.622Zm.132.961-.245-.038C503.8,141.674,503.915,141.636,504.047,141.5Zm-2.28-.358a2.688,2.688,0,0,1,.4-.113Zm-7.105,12.344.17-2.563-.056,2.507Z" transform="translate(-370.9 -75.539)" fill="#bad1ff"/>
            </g>
          </g>
        </g>
      </g>
    </g>
    <rect id="Rectángulo_400221" data-name="Rectángulo 400221" width="1600" height="1016" transform="translate(0 4847)" fill="none"/>
  </g>
</svg>
