<svg id="bg-ac" xmlns="http://www.w3.org/2000/svg" xmlns:xlink="http://www.w3.org/1999/xlink" width="715" height="209.77" viewBox="0 0 715 209.77">
  <defs>
    <clipPath id="clip-path">
      <rect id="Rect치ngulo_392726" data-name="Rect치ngulo 392726" width="715" height="209.77" fill="#12263f" opacity="0.37"/>
    </clipPath>
  </defs>
  <rect id="Rect치ngulo_392725" data-name="Rect치ngulo 392725" width="715" height="209.77" fill="#e8f0ff"/>
  <g id="Enmascarar_grupo_191" data-name="Enmascarar grupo 191" clip-path="url(#clip-path)">
    <g id="Grupo_1075498" data-name="Grupo 1075498" transform="translate(544 9.276)">
      <path id="Trazado_829236" data-name="Trazado 829236" d="M481.962,158.375c-1.912.714-1.573,1.148-.2,1.454a30.1,30.1,0,0,0,6.147.255l3.538-4.105s-2.359.637-4.718,1.3c-2.359.637-4.771,1.122-4.771,1.122Z" transform="translate(-480.63 -148.277)" fill="#d5e2fd"/>
      <path id="Trazado_829237" data-name="Trazado 829237" d="M468.958,164.4a53.623,53.623,0,0,1,5.289-2.117,31.806,31.806,0,0,1,5.522-1.326,30.34,30.34,0,0,0-4.021.459,35.811,35.811,0,0,0-3.913.969c-4.378-.357-4.2-1.147-2.43-2.168a22.837,22.837,0,0,1,6.915-2.04,18.243,18.243,0,0,0-7.094,1.4c-1.179.586-1.412,1.173-1.269,1.683.286,1.046,2.055,2.065,1,3.137Z" transform="translate(-446.237 -158.18)" fill="#d5e2fd"/>
      <path id="Trazado_829238" data-name="Trazado 829238" d="M460.844,156.6c2.5,3.6,3.181,5.355,3.61,5.075.393-.2.2-2.423-.733-4.488-.232,0-.554-.306-1.09-.74-.429-.28-.893-.663-1.412-.969-.965-.561-1.43-.561-.375,1.1Z" transform="translate(-417.394 -147.723)" fill="#d5e2fd"/>
      <path id="Trazado_829239" data-name="Trazado 829239" d="M337.012,104.111l.465-.714c.161-.255.214-.306.322-.459.214-.281.411-.561.59-.816.357-.485.661-.79.8-.561.125-.943.089-1.5-.2-1.249a4.225,4.225,0,0,0-.625,1.02c-.143.28-.3.612-.518,1.02-.25.485-.518,1.071-.84,1.734Z" transform="translate(-71.8 49.832)" fill="#d5e2fd"/>
      <path id="Trazado_829240" data-name="Trazado 829240" d="M337.186,100.76c-.054.357-.107.765-.2,1.249.107-.357.214-.663.3-1.1,0-.127-.072-.1-.107-.153Z" transform="translate(-69.795 50.633)" fill="#d5e2fd"/>
      <path id="Trazado_829241" data-name="Trazado 829241" d="M431.286,100.565a55.087,55.087,0,0,1-8.631,6.324c-.643.408-1.251.714-1.894,1.071-.643.383-1.269.714-1.841.995-1.412.765-2.895,1.555-4.557,2.448l-4.664-.535c-7.541,4.667-2.895,3.825-8.077,7.854-3.628.944-8.845,3.493-13.474,5.635a80.72,80.72,0,0,1-10.221,4.233c-2.252-.586,2.341-2.346,3.252-3.544a50.567,50.567,0,0,0-4.61,2.4c-1.179.637-2.109,1.275-3.127,1.913a15.983,15.983,0,0,1-9.078,2.269l-.143-.714a14.788,14.788,0,0,1-2.144.153l-1.09.051h-.5l-.25.051-1.054.076h-.715a2.672,2.672,0,0,1-2.52-2.27,7.6,7.6,0,0,1-.143-2.4,10.315,10.315,0,0,1,.143-1.275c.036-.255.143-.637.2-.969.089-.408.107-.561.268-1.148,1.179-4.437,2.877-9.333,4.682-14.305,3.627-10.1,7.952-20.5,11.061-33.175.393-1.555.75-3.238,1.054-4.947.339-1.632.572-3.519.822-5.3.25-1.811.34-3.825.447-5.763a54.333,54.333,0,0,0-.214-6.324c-.125-1.1-.214-2.27-.411-3.366-.214-1.071-.465-2.168-.715-3.213a21.245,21.245,0,0,0-.947-3.162c-.286-.867-.643-1.734-1.019-2.6a32.034,32.034,0,0,0-5.915-9.409c2.43,3.136,1.465,2.881,2.055,4.462a22.469,22.469,0,0,0-6.236-6.579,17.225,17.225,0,0,0-7.309-2.856c-4.771-.663-9.006.408-12.938,1.81C333,31.384,326.2,35.949,319.6,40.309q-4.825,3.289-9.578,6.528c-3.61,2.346-4.914,3.34-7.148,4.615A16.648,16.648,0,0,1,296,53.9a6.022,6.022,0,0,1-3.574-.918,9.3,9.3,0,0,1-2.7-3.187,11.86,11.86,0,0,1-1.573-6.528,27.464,27.464,0,0,1,1.179-6.426,35.226,35.226,0,0,0-2.395,6.732,16,16,0,0,0,.357,8.338c.715,2.5,2,4.9,3.842,6.069a8.665,8.665,0,0,0,5.986,1.1c4.181-.587,8.292-2.576,12.473-4.9A168.694,168.694,0,0,0,332.468,38.04c3.413-.816,7.487-2.958,11.347-4.157,3.824-1.25,7.505-1.25,8.881.332a14.663,14.663,0,0,1,8.845,5.176,29.112,29.112,0,0,1,5,9.715A37.465,37.465,0,0,1,367.8,60.072a71.1,71.1,0,0,1-1.054,10.174c-2.323,13-6.5,24.684-12.223,39.958-1.876,4.156-1.912,1.454-3.163,2.167,0,0,1.984-6.3,4.217-12.571,1.09-3.136,2.18-6.3,3-8.67.8-2.371,1.34-3.978,1.34-3.978s-1.555,3.672-3.181,7.293l-3.234,7.216c.876-3.519,3.038-9.1,4.753-14.2,1.751-5.1,2.948-9.792,2.484-11.194A157.349,157.349,0,0,1,355,95.007c-2.377,6.63-5.093,13.515-7.255,20.706a66,66,0,0,0-2.52,11.194c-.465,3.774-.393,7.7.84,10.863a10.582,10.582,0,0,0,5.575,5.941c.536.2,1.054.408,1.573.612a11.7,11.7,0,0,0,1.555.306c.5.077.983.153,1.465.23.482,0,.947,0,1.412-.026a15.51,15.51,0,0,1-2.466-.816,12.984,12.984,0,0,1-2.5-1.122,11.039,11.039,0,0,1-4.557-4.31,14.864,14.864,0,0,1-1.751-7.675,37.268,37.268,0,0,1,1.126-8.16c1.537-4.335,4.539-11.271,5.164-10.174-.983,3.825-1.984,7.93-2.448,10.837a26.823,26.823,0,0,0-.286,8.415,8.742,8.742,0,0,0,3.52,5.992,4.906,4.906,0,0,0,1.287.739,5.455,5.455,0,0,0,1.322.536l1.34.408,1.5.255c.876.2,2.323.281,3.538.434a37.807,37.807,0,0,0,3.806.1c1.269,0,2.573-.2,3.86-.306,1.3-.153,2.609-.433,3.931-.663a72.882,72.882,0,0,0,16.351-5.89c5.647-2.728,13.474-6.5,14.724-5.788-3.681,2.3-.59,1.862-3.556,3.978,7.934-5.074-.3-4.692,11.758-10.149l-.536,4.871a10.357,10.357,0,0,1,4.021-3.9,25.253,25.253,0,0,1,2.752-1.326c.929-.383,1.894-.765,2.877-1.173,4-1.632,8.577-3.8,12.312-7.574,3.449-.255-1.733,4.157-7.952,8.007,7.362-3.544,7.237-6.426,13.063-9.843l-4.414,6.757c5.075-7.063,11.222-6.018,14.975-6.477.107-.536-.822-1.071-.786-1.938,0-.433.286-.918,1.054-1.53a13.041,13.041,0,0,1,4.128-1.989c3.645-.688,1.948.842,2.859,1.1a4.991,4.991,0,0,1,2.412-2.244,10.389,10.389,0,0,1,2.752-1.122c.554-.128,1.144-.255,1.787-.357a18.218,18.218,0,0,1,2.073-.051c.518.638-.465,1.071-1.59,1.5-1.108.485-2.359,1.122-2.5,1.76a25.1,25.1,0,0,1,5.129-.128H467.7a18.494,18.494,0,0,1-1.7,7.522c-1.072,4.947-.679,4.386-.071,3.723.59-.765,1.34-1.734.965.536-2.859,6.222-4.271,7.5-5.111,7.573-.84.128-1.608-.995-3.735,2.576.536-2.754,1.3-6.2,2.537-10.531.625-2.142,1.287-4.437,1.894-6.706.2-1.071.375-2.116.572-3.162-.036-.561-.054-1.1-.054-1.632,1.519,2.32,3.02,4.666,4.36,6.706a19.6,19.6,0,0,0-7.9,1.912,25.278,25.278,0,0,1,7.863-1.275l-4.771-7.344v1.53l-.643,3.085c-.679,2.219-1.376,4.437-2.109,6.6-.322-.79-2.806,4.641-4.217,7.956-.715,1.632-1.287,2.933-1.537,2.933-.143.025-.2-.281-.125-1.046a25.444,25.444,0,0,1,.679-3.978,76.2,76.2,0,0,0-3.735,17.442,61.793,61.793,0,0,0-.268,9.384l.071,1.377c.036.433.2.383.286.612.232.306.447.612.679.969.465.638.929,1.5,1.412,2.295,7.237-3.034,14.617-6.094,21.837-9.537,3.556-1.657,7.094-3.289,10.275-4.641,1.215-.535,2.412-1.046,3.61-1.555,1.036-.434,2.055-.842,3.056-1.25-2.126.153-4.861.791-4.575-.255,7.469-3.417,6.88-1.173,8.542-.612a10.655,10.655,0,0,0,4.682-3.493,12.228,12.228,0,0,1,3.163-3.544c.733.051,1.412.1,2.073.179.625.051,1.054.153,1.537.229.929.153,1.715.357,2.43.535a12.77,12.77,0,0,1,3.574,1.555,6.984,6.984,0,0,1,2.466,3.162,10.44,10.44,0,0,1,.107,6.171s.5-.331,1.019-.663c.5-.357,1-.74,1-.74-.286,2.04-.679,3.417-.876,4.59-.232,1.173-.34,2.167-.482,3.213a19.743,19.743,0,0,1-.786,3.442,24.159,24.159,0,0,1-2.538,5.023c-.268.1-.089-.816.268-2.116.179-.638.393-1.4.625-2.193.2-.714.268-1.173.393-1.759a19.3,19.3,0,0,1-1.769,4,21.874,21.874,0,0,1-1.823,2.55,25.631,25.631,0,0,0-4.164,6.961l.858-3.85.768-3.8c-2.984,5.941-7.648,15.351-7.166,10.735a109.923,109.923,0,0,1-4.467,10.327c-1.8,3.825-3.9,7.879-5.951,12.775a54.22,54.22,0,0,0-2.948,8.9,28,28,0,0,0-.7,7.548,18.282,18.282,0,0,0,.3,2.626,15.028,15.028,0,0,0,.733,2.779,14.457,14.457,0,0,0,2.573,4.667,10.645,10.645,0,0,0,5.236,3.468,13.891,13.891,0,0,0,3.717.51,20.833,20.833,0,0,0,5.682-.816l-.768,2.3c3.574-1.734,9.489-3.315,15.1-5.38.7-.255,1.394-.536,2.091-.79l1.019-.408c.357-.128,1-.433,1.34-.587a42.255,42.255,0,0,0,3.86-2.219,20.165,20.165,0,0,0,5.093-4.36l1.072.357,10.7-9.078c5.254-2.55,4.289,1.479,4.485.408,11.168-6.579,20.21-10.914,27.609-12.393.232-1.555,2.412-3.391,5.861-4.717a15.954,15.954,0,0,1,5.736-1.122,6.033,6.033,0,0,1,3,.74,4.676,4.676,0,0,1,2.144,2.7,12.221,12.221,0,0,1-.125,4.9,29.191,29.191,0,0,1-1.34,4.564c-.536,1.454-1.126,2.856-1.769,4.182l-2.019,3.876-1,1.938c-.357.688-.59,1.2-1.126,2.091l-2.877,4.947c-1.841,3.34-3.967,6.553-6.058,9.817a363.464,363.464,0,0,1-27.323,36.261c-19.21,22.72-39.456,43.2-57.594,63.444a78.708,78.708,0,0,0-6.326,7.777c-2.162,3.034-4.378,6.349-6.63,9.639L478.48,334.5c1.894-.51,3.842-2.652,7.148-3.187a16.1,16.1,0,0,0-2.716.332c-.7.2-1.34.408-1.966.586a12.448,12.448,0,0,1-1.43.408,10.511,10.511,0,0,0-1.036.2c.608,2.576,1.2,5.151,1.715,7.369,3.663-4.029,5.432-6.936,11.383-12.9,6.63-5.763,10.2-5.559,16.44-9.435l-3.77.714c7.863-10.123,6.469-4.743,12.33-13.515l1.3,3.57c1.608-4.029,8.309-8.644,11.222-10.251l1.126-4.513c6.058-4.207,9.828-7.344,12.509-7.038l-1.573-1.5c.679-.2,2.305-1.683,4.289-3.6,1.966-2.014,4.324-4.411,6.415-6.528,4.2-4.233,7.452-7.267,5.254-1.989,1.287-2.219,2.144-4.768,5.593-8.415l1.626,1.352c2.234-3.137,4.664-6.35,6.719-8.976,2.037-2.677,3.788-4.615,4.789-4.947a18.3,18.3,0,0,0-2.913,7.548c2.52-3.162,4.414-5.737,5.826-7.828a35.16,35.16,0,0,0,2.895-5.2,8.925,8.925,0,0,0,.929-5.355,8.461,8.461,0,0,1,.429-4.794c.786-2.448,2.609-5.992,6.5-12.367l.7,1.377,2.966-7.9s.322-.357.822-.918c.25-.28.536-.612.84-.944a8.745,8.745,0,0,0,1.019-1.3c1.555-2.422,3.091-4.819,3.091-4.819a47.63,47.63,0,0,1,1.948-6.961,60.1,60.1,0,0,0,2.5-8.338,53.482,53.482,0,0,0,1.5-9.562c.179-3.289-.018-7.165-1.662-10.378a13.392,13.392,0,0,0-6.362-6.069,18.729,18.729,0,0,0-8.023-1.606,30.458,30.458,0,0,0-8.631,1.428c-1.394.408-2.77.943-4.056,1.453q-.965.421-1.876.842a10.541,10.541,0,0,0-1.376.765c-5.325,2.422-12.991,2.3-22.748,7.675l1.233,2.04c-4.253.765-13.777,4.794-23.159,8.517-2.341.918-4.682,1.811-6.826,2.525-.518.153-1.036.306-1.537.459a3.621,3.621,0,0,1-1.161.2c-.036-.051-.322,0-.59.051l-.768.1c-.518.051-1.019.128-1.5.178-3.931.383-7.112.077-8.9-.943-6.111,3.315.661.434.876,2.321a17.468,17.468,0,0,1-6.915,2.04c-.268-.051-.625-.026-.733-.128a.424.424,0,0,1-.2-.1c-.036.1.089-.638-.179,1.122-.625,4.386-1.555,6.987-2.162,8.032-.608,1.071-.768.689.107.459a7.848,7.848,0,0,1,4.592.561,26.028,26.028,0,0,1,3.913,1.632c.071.076.2,0,.322-.077a6.213,6.213,0,0,0,1-1.3c.59-2.014.893-2.958.7-2.881a8.137,8.137,0,0,0-1.215,1.836c-1.072,1.938-1.5,2.652-1.787,1.147.715-1.377,1.3-2.55,1.841-3.57.608-1.224,1.179-2.4,1.662-3.493.983-2.193,1.662-4.08,2.43-6.094,1.537-4.131,3.431-8.491,9.578-18.36,1.912-1.2-2.394,6.018-3.056,8.593,1.644-3.952,3.878-8.517,6.451-14,.643-1.4,1.3-2.856,1.966-4.335.375-.867.751-1.709,1.126-2.6.518-1.224.983-2.448,1.483-3.672a60.507,60.507,0,0,0,3.913-15.886,38.942,38.942,0,0,0-.107-8.287,36.356,36.356,0,0,0-1.662-8.032l-.661-1.887c-.268-.587-.554-1.173-.84-1.734A25.111,25.111,0,0,0,527.5,120.2a35.263,35.263,0,0,0-2.216-2.78c-.822-.79-1.68-1.5-2.52-2.219a22.091,22.091,0,0,0-11.848-4.309,21.531,21.531,0,0,0-3.145-.128c-.983,0-2.252,0-2.859.077-1.412.127-2.77.306-4.056.535a72.757,72.757,0,0,0-9.864,1.53c-1.662.382-3.377.79-5.075,1.275-.858.229-1.715.484-2.573.74l-1.161.332-.322.051a15.187,15.187,0,0,1-3.038.128.583.583,0,0,1-.3-.1.052.052,0,0,1-.054-.051l.054-.255c.036-.179.089-.331.143-.51a6.261,6.261,0,0,1,.858-1.581c.3-.434.572-.79.786-1.046l.3-.357s.143-.459.2-.663a9.2,9.2,0,0,0,.089-.969l.107-1.377.161-2.754.983-17.314-13.277-1.632a40.262,40.262,0,0,0-6.648-.408l-.572.969c-7-.408-13.4,2.27-19.281,5.406-5.808,3.213-11.294,7.063-16.708,9.818l5.682-2.066Z" transform="translate(-223.328 13.36)" fill="#d5e2fd"/>
      <path id="Trazado_829242" data-name="Trazado 829242" d="M428.777,126.71l-2.019,1.683s-.161.893-.465,2.244c-.268,1.352-.715,3.136-1.162,4.972-.929,3.621-2,7.293-2,7.293,3.109-4.87,3.359-8.491,5.665-16.167Z" transform="translate(-315.224 -56.432)" fill="#d5e2fd"/>
      <path id="Trazado_829243" data-name="Trazado 829243" d="M422.513,137.585s.34-2.091.7-4.182c.125-1.045.25-2.116.357-2.907s.125-1.326.125-1.326-.107.841-.375,2.065c-.232,1.25-.59,2.882-1,4.488-.8,3.239-1.787,6.349-1.787,6.349s.536-1.1,1.019-2.218c.5-1.148.983-2.27.983-2.27Z" transform="translate(-305.476 -61.876)" fill="#d5e2fd"/>
      <path id="Trazado_829244" data-name="Trazado 829244" d="M402.578,107.54l-1.447.535s-1.215.867-3.02,2.167c-1.823,1.3-4.271,3.009-6.808,4.59l-10.043,5.814s1.34-.74,3.324-1.861c2-1.122,4.7-2.474,7.469-4.156,2.7-1.658,5.325-3.468,7.273-4.82S402.578,107.54,402.578,107.54Z" transform="translate(-214.188 14.706)" fill="#d5e2fd"/>
      <path id="Trazado_829245" data-name="Trazado 829245" d="M339.326,105.365a9.011,9.011,0,0,1,.357-2.576,5.089,5.089,0,0,0,.214-2.269,18.1,18.1,0,0,1-.375,2.6c-.143.663-.34,1.377-.465,1.861-.393,1.046-.643,1.734-.643,1.734l.911-1.351Z" transform="translate(-75.008 46.538)" fill="#d5e2fd"/>
      <path id="Trazado_829246" data-name="Trazado 829246" d="M316.239,81.278c2.537-5.508,6.969-3.646,1.465-4.488C312.343,80.36,317.508,79.212,316.239,81.278Z" transform="translate(-13.93 132.488)" fill="#d5e2fd"/>
      <path id="Trazado_829247" data-name="Trazado 829247" d="M313.111,81.32a21.058,21.058,0,0,0-6.451,4.08C311.217,85.043,310.913,83.1,313.111,81.32Z" transform="translate(8.586 116.814)" fill="#d5e2fd"/>
    </g>
    <g id="Grupo_1075499" data-name="Grupo 1075499" transform="translate(-192 56.367)">
      <path id="Trazado_829248" data-name="Trazado 829248" d="M481.962,158.375c-1.912.714-1.573,1.148-.2,1.454a30.1,30.1,0,0,0,6.147.255l3.538-4.105s-2.359.637-4.718,1.3c-2.359.637-4.771,1.122-4.771,1.122Z" transform="translate(-480.63 -148.277)" fill="#d5e2fd"/>
      <path id="Trazado_829249" data-name="Trazado 829249" d="M468.958,164.4a53.623,53.623,0,0,1,5.289-2.117,31.806,31.806,0,0,1,5.522-1.326,30.34,30.34,0,0,0-4.021.459,35.811,35.811,0,0,0-3.913.969c-4.378-.357-4.2-1.147-2.43-2.168a22.837,22.837,0,0,1,6.915-2.04,18.243,18.243,0,0,0-7.094,1.4c-1.179.586-1.412,1.173-1.269,1.683.286,1.046,2.055,2.065,1,3.137Z" transform="translate(-446.237 -158.18)" fill="#d5e2fd"/>
      <path id="Trazado_829250" data-name="Trazado 829250" d="M460.844,156.6c2.5,3.6,3.181,5.355,3.61,5.075.393-.2.2-2.423-.733-4.488-.232,0-.554-.306-1.09-.74-.429-.28-.893-.663-1.412-.969-.965-.561-1.43-.561-.375,1.1Z" transform="translate(-417.394 -147.723)" fill="#d5e2fd"/>
      <path id="Trazado_829251" data-name="Trazado 829251" d="M337.012,104.111l.465-.714c.161-.255.214-.306.322-.459.214-.281.411-.561.59-.816.357-.485.661-.79.8-.561.125-.943.089-1.5-.2-1.249a4.225,4.225,0,0,0-.625,1.02c-.143.28-.3.612-.518,1.02-.25.485-.518,1.071-.84,1.734Z" transform="translate(-71.8 49.832)" fill="#d5e2fd"/>
      <path id="Trazado_829252" data-name="Trazado 829252" d="M337.186,100.76c-.054.357-.107.765-.2,1.249.107-.357.214-.663.3-1.1,0-.127-.072-.1-.107-.153Z" transform="translate(-69.795 50.633)" fill="#d5e2fd"/>
      <path id="Trazado_829253" data-name="Trazado 829253" d="M431.286,100.565a55.087,55.087,0,0,1-8.631,6.324c-.643.408-1.251.714-1.894,1.071-.643.383-1.269.714-1.841.995-1.412.765-2.895,1.555-4.557,2.448l-4.664-.535c-7.541,4.667-2.895,3.825-8.077,7.854-3.628.944-8.845,3.493-13.474,5.635a80.72,80.72,0,0,1-10.221,4.233c-2.252-.586,2.341-2.346,3.252-3.544a50.567,50.567,0,0,0-4.61,2.4c-1.179.637-2.109,1.275-3.127,1.913a15.983,15.983,0,0,1-9.078,2.269l-.143-.714a14.788,14.788,0,0,1-2.144.153l-1.09.051h-.5l-.25.051-1.054.076h-.715a2.672,2.672,0,0,1-2.52-2.27,7.6,7.6,0,0,1-.143-2.4,10.315,10.315,0,0,1,.143-1.275c.036-.255.143-.637.2-.969.089-.408.107-.561.268-1.148,1.179-4.437,2.877-9.333,4.682-14.305,3.627-10.1,7.952-20.5,11.061-33.175.393-1.555.75-3.238,1.054-4.947.339-1.632.572-3.519.822-5.3.25-1.811.34-3.825.447-5.763a54.333,54.333,0,0,0-.214-6.324c-.125-1.1-.214-2.27-.411-3.366-.214-1.071-.465-2.168-.715-3.213a21.245,21.245,0,0,0-.947-3.162c-.286-.867-.643-1.734-1.019-2.6a32.034,32.034,0,0,0-5.915-9.409c2.43,3.136,1.465,2.881,2.055,4.462a22.469,22.469,0,0,0-6.236-6.579,17.225,17.225,0,0,0-7.309-2.856c-4.771-.663-9.006.408-12.938,1.81C333,31.384,326.2,35.949,319.6,40.309q-4.825,3.289-9.578,6.528c-3.61,2.346-4.914,3.34-7.148,4.615A16.648,16.648,0,0,1,296,53.9a6.022,6.022,0,0,1-3.574-.918,9.3,9.3,0,0,1-2.7-3.187,11.86,11.86,0,0,1-1.573-6.528,27.464,27.464,0,0,1,1.179-6.426,35.226,35.226,0,0,0-2.395,6.732,16,16,0,0,0,.357,8.338c.715,2.5,2,4.9,3.842,6.069a8.665,8.665,0,0,0,5.986,1.1c4.181-.587,8.292-2.576,12.473-4.9A168.694,168.694,0,0,0,332.468,38.04c3.413-.816,7.487-2.958,11.347-4.157,3.824-1.25,7.505-1.25,8.881.332a14.663,14.663,0,0,1,8.845,5.176,29.112,29.112,0,0,1,5,9.715A37.465,37.465,0,0,1,367.8,60.072a71.1,71.1,0,0,1-1.054,10.174c-2.323,13-6.5,24.684-12.223,39.958-1.876,4.156-1.912,1.454-3.163,2.167,0,0,1.984-6.3,4.217-12.571,1.09-3.136,2.18-6.3,3-8.67.8-2.371,1.34-3.978,1.34-3.978s-1.555,3.672-3.181,7.293l-3.234,7.216c.876-3.519,3.038-9.1,4.753-14.2,1.751-5.1,2.948-9.792,2.484-11.194A157.349,157.349,0,0,1,355,95.007c-2.377,6.63-5.093,13.515-7.255,20.706a66,66,0,0,0-2.52,11.194c-.465,3.774-.393,7.7.84,10.863a10.582,10.582,0,0,0,5.575,5.941c.536.2,1.054.408,1.573.612a11.7,11.7,0,0,0,1.555.306c.5.077.983.153,1.465.23.482,0,.947,0,1.412-.026a15.51,15.51,0,0,1-2.466-.816,12.984,12.984,0,0,1-2.5-1.122,11.039,11.039,0,0,1-4.557-4.31,14.864,14.864,0,0,1-1.751-7.675,37.268,37.268,0,0,1,1.126-8.16c1.537-4.335,4.539-11.271,5.164-10.174-.983,3.825-1.984,7.93-2.448,10.837a26.823,26.823,0,0,0-.286,8.415,8.742,8.742,0,0,0,3.52,5.992,4.906,4.906,0,0,0,1.287.739,5.455,5.455,0,0,0,1.322.536l1.34.408,1.5.255c.876.2,2.323.281,3.538.434a37.807,37.807,0,0,0,3.806.1c1.269,0,2.573-.2,3.86-.306,1.3-.153,2.609-.433,3.931-.663a72.882,72.882,0,0,0,16.351-5.89c5.647-2.728,13.474-6.5,14.724-5.788-3.681,2.3-.59,1.862-3.556,3.978,7.934-5.074-.3-4.692,11.758-10.149l-.536,4.871a10.357,10.357,0,0,1,4.021-3.9,25.253,25.253,0,0,1,2.752-1.326c.929-.383,1.894-.765,2.877-1.173,4-1.632,8.577-3.8,12.312-7.574,3.449-.255-1.733,4.157-7.952,8.007,7.362-3.544,7.237-6.426,13.063-9.843l-4.414,6.757c5.075-7.063,11.222-6.018,14.975-6.477.107-.536-.822-1.071-.786-1.938,0-.433.286-.918,1.054-1.53a13.041,13.041,0,0,1,4.128-1.989c3.645-.688,1.948.842,2.859,1.1a4.991,4.991,0,0,1,2.412-2.244,10.389,10.389,0,0,1,2.752-1.122c.554-.128,1.144-.255,1.787-.357a18.218,18.218,0,0,1,2.073-.051c.518.638-.465,1.071-1.59,1.5-1.108.485-2.359,1.122-2.5,1.76a25.1,25.1,0,0,1,5.129-.128H467.7a18.494,18.494,0,0,1-1.7,7.522c-1.072,4.947-.679,4.386-.071,3.723.59-.765,1.34-1.734.965.536-2.859,6.222-4.271,7.5-5.111,7.573-.84.128-1.608-.995-3.735,2.576.536-2.754,1.3-6.2,2.537-10.531.625-2.142,1.287-4.437,1.894-6.706.2-1.071.375-2.116.572-3.162-.036-.561-.054-1.1-.054-1.632,1.519,2.32,3.02,4.666,4.36,6.706a19.6,19.6,0,0,0-7.9,1.912,25.278,25.278,0,0,1,7.863-1.275l-4.771-7.344v1.53l-.643,3.085c-.679,2.219-1.376,4.437-2.109,6.6-.322-.79-2.806,4.641-4.217,7.956-.715,1.632-1.287,2.933-1.537,2.933-.143.025-.2-.281-.125-1.046a25.444,25.444,0,0,1,.679-3.978,76.2,76.2,0,0,0-3.735,17.442,61.793,61.793,0,0,0-.268,9.384l.071,1.377c.036.433.2.383.286.612.232.306.447.612.679.969.465.638.929,1.5,1.412,2.295,7.237-3.034,14.617-6.094,21.837-9.537,3.556-1.657,7.094-3.289,10.275-4.641,1.215-.535,2.412-1.046,3.61-1.555,1.036-.434,2.055-.842,3.056-1.25-2.126.153-4.861.791-4.575-.255,7.469-3.417,6.88-1.173,8.542-.612a10.655,10.655,0,0,0,4.682-3.493,12.228,12.228,0,0,1,3.163-3.544c.733.051,1.412.1,2.073.179.625.051,1.054.153,1.537.229.929.153,1.715.357,2.43.535a12.77,12.77,0,0,1,3.574,1.555,6.984,6.984,0,0,1,2.466,3.162,10.44,10.44,0,0,1,.107,6.171s.5-.331,1.019-.663c.5-.357,1-.74,1-.74-.286,2.04-.679,3.417-.876,4.59-.232,1.173-.34,2.167-.482,3.213a19.743,19.743,0,0,1-.786,3.442,24.159,24.159,0,0,1-2.538,5.023c-.268.1-.089-.816.268-2.116.179-.638.393-1.4.625-2.193.2-.714.268-1.173.393-1.759a19.3,19.3,0,0,1-1.769,4,21.874,21.874,0,0,1-1.823,2.55,25.631,25.631,0,0,0-4.164,6.961l.858-3.85.768-3.8c-2.984,5.941-7.648,15.351-7.166,10.735a109.923,109.923,0,0,1-4.467,10.327c-1.8,3.825-3.9,7.879-5.951,12.775a54.22,54.22,0,0,0-2.948,8.9,28,28,0,0,0-.7,7.548,18.282,18.282,0,0,0,.3,2.626,15.028,15.028,0,0,0,.733,2.779,14.457,14.457,0,0,0,2.573,4.667,10.645,10.645,0,0,0,5.236,3.468,13.891,13.891,0,0,0,3.717.51,20.833,20.833,0,0,0,5.682-.816l-.768,2.3c3.574-1.734,9.489-3.315,15.1-5.38.7-.255,1.394-.536,2.091-.79l1.019-.408c.357-.128,1-.433,1.34-.587a42.255,42.255,0,0,0,3.86-2.219,20.165,20.165,0,0,0,5.093-4.36l1.072.357,10.7-9.078c5.254-2.55,4.289,1.479,4.485.408,11.168-6.579,20.21-10.914,27.609-12.393.232-1.555,2.412-3.391,5.861-4.717a15.954,15.954,0,0,1,5.736-1.122,6.033,6.033,0,0,1,3,.74,4.676,4.676,0,0,1,2.144,2.7,12.221,12.221,0,0,1-.125,4.9,29.191,29.191,0,0,1-1.34,4.564c-.536,1.454-1.126,2.856-1.769,4.182l-2.019,3.876-1,1.938c-.357.688-.59,1.2-1.126,2.091l-2.877,4.947c-1.841,3.34-3.967,6.553-6.058,9.817a363.464,363.464,0,0,1-27.323,36.261c-19.21,22.72-39.456,43.2-57.594,63.444a78.708,78.708,0,0,0-6.326,7.777c-2.162,3.034-4.378,6.349-6.63,9.639L478.48,334.5c1.894-.51,3.842-2.652,7.148-3.187a16.1,16.1,0,0,0-2.716.332c-.7.2-1.34.408-1.966.586a12.448,12.448,0,0,1-1.43.408,10.511,10.511,0,0,0-1.036.2c.608,2.576,1.2,5.151,1.715,7.369,3.663-4.029,5.432-6.936,11.383-12.9,6.63-5.763,10.2-5.559,16.44-9.435l-3.77.714c7.863-10.123,6.469-4.743,12.33-13.515l1.3,3.57c1.608-4.029,8.309-8.644,11.222-10.251l1.126-4.513c6.058-4.207,9.828-7.344,12.509-7.038l-1.573-1.5c.679-.2,2.305-1.683,4.289-3.6,1.966-2.014,4.324-4.411,6.415-6.528,4.2-4.233,7.452-7.267,5.254-1.989,1.287-2.219,2.144-4.768,5.593-8.415l1.626,1.352c2.234-3.137,4.664-6.35,6.719-8.976,2.037-2.677,3.788-4.615,4.789-4.947a18.3,18.3,0,0,0-2.913,7.548c2.52-3.162,4.414-5.737,5.826-7.828a35.16,35.16,0,0,0,2.895-5.2,8.925,8.925,0,0,0,.929-5.355,8.461,8.461,0,0,1,.429-4.794c.786-2.448,2.609-5.992,6.5-12.367l.7,1.377,2.966-7.9s.322-.357.822-.918c.25-.28.536-.612.84-.944a8.745,8.745,0,0,0,1.019-1.3c1.555-2.422,3.091-4.819,3.091-4.819a47.63,47.63,0,0,1,1.948-6.961,60.1,60.1,0,0,0,2.5-8.338,53.482,53.482,0,0,0,1.5-9.562c.179-3.289-.018-7.165-1.662-10.378a13.392,13.392,0,0,0-6.362-6.069,18.729,18.729,0,0,0-8.023-1.606,30.458,30.458,0,0,0-8.631,1.428c-1.394.408-2.77.943-4.056,1.453q-.965.421-1.876.842a10.541,10.541,0,0,0-1.376.765c-5.325,2.422-12.991,2.3-22.748,7.675l1.233,2.04c-4.253.765-13.777,4.794-23.159,8.517-2.341.918-4.682,1.811-6.826,2.525-.518.153-1.036.306-1.537.459a3.621,3.621,0,0,1-1.161.2c-.036-.051-.322,0-.59.051l-.768.1c-.518.051-1.019.128-1.5.178-3.931.383-7.112.077-8.9-.943-6.111,3.315.661.434.876,2.321a17.468,17.468,0,0,1-6.915,2.04c-.268-.051-.625-.026-.733-.128a.424.424,0,0,1-.2-.1c-.036.1.089-.638-.179,1.122-.625,4.386-1.555,6.987-2.162,8.032-.608,1.071-.768.689.107.459a7.848,7.848,0,0,1,4.592.561,26.028,26.028,0,0,1,3.913,1.632c.071.076.2,0,.322-.077a6.213,6.213,0,0,0,1-1.3c.59-2.014.893-2.958.7-2.881a8.137,8.137,0,0,0-1.215,1.836c-1.072,1.938-1.5,2.652-1.787,1.147.715-1.377,1.3-2.55,1.841-3.57.608-1.224,1.179-2.4,1.662-3.493.983-2.193,1.662-4.08,2.43-6.094,1.537-4.131,3.431-8.491,9.578-18.36,1.912-1.2-2.394,6.018-3.056,8.593,1.644-3.952,3.878-8.517,6.451-14,.643-1.4,1.3-2.856,1.966-4.335.375-.867.751-1.709,1.126-2.6.518-1.224.983-2.448,1.483-3.672a60.507,60.507,0,0,0,3.913-15.886,38.942,38.942,0,0,0-.107-8.287,36.356,36.356,0,0,0-1.662-8.032l-.661-1.887c-.268-.587-.554-1.173-.84-1.734A25.111,25.111,0,0,0,527.5,120.2a35.263,35.263,0,0,0-2.216-2.78c-.822-.79-1.68-1.5-2.52-2.219a22.091,22.091,0,0,0-11.848-4.309,21.531,21.531,0,0,0-3.145-.128c-.983,0-2.252,0-2.859.077-1.412.127-2.77.306-4.056.535a72.757,72.757,0,0,0-9.864,1.53c-1.662.382-3.377.79-5.075,1.275-.858.229-1.715.484-2.573.74l-1.161.332-.322.051a15.187,15.187,0,0,1-3.038.128.583.583,0,0,1-.3-.1.052.052,0,0,1-.054-.051l.054-.255c.036-.179.089-.331.143-.51a6.261,6.261,0,0,1,.858-1.581c.3-.434.572-.79.786-1.046l.3-.357s.143-.459.2-.663a9.2,9.2,0,0,0,.089-.969l.107-1.377.161-2.754.983-17.314-13.277-1.632a40.262,40.262,0,0,0-6.648-.408l-.572.969c-7-.408-13.4,2.27-19.281,5.406-5.808,3.213-11.294,7.063-16.708,9.818l5.682-2.066Z" transform="translate(-247.328 16.214)" fill="#d5e2fd"/>
      <path id="Trazado_829254" data-name="Trazado 829254" d="M428.777,126.71l-2.019,1.683s-.161.893-.465,2.244c-.268,1.352-.715,3.136-1.162,4.972-.929,3.621-2,7.293-2,7.293,3.109-4.87,3.359-8.491,5.665-16.167Z" transform="translate(-315.224 -56.432)" fill="#d5e2fd"/>
      <path id="Trazado_829255" data-name="Trazado 829255" d="M422.513,137.585s.34-2.091.7-4.182c.125-1.045.25-2.116.357-2.907s.125-1.326.125-1.326-.107.841-.375,2.065c-.232,1.25-.59,2.882-1,4.488-.8,3.239-1.787,6.349-1.787,6.349s.536-1.1,1.019-2.218c.5-1.148.983-2.27.983-2.27Z" transform="translate(-305.476 -61.876)" fill="#d5e2fd"/>
      <path id="Trazado_829256" data-name="Trazado 829256" d="M402.578,107.54l-1.447.535s-1.215.867-3.02,2.167c-1.823,1.3-4.271,3.009-6.808,4.59l-10.043,5.814s1.34-.74,3.324-1.861c2-1.122,4.7-2.474,7.469-4.156,2.7-1.658,5.325-3.468,7.273-4.82S402.578,107.54,402.578,107.54Z" transform="translate(-214.188 14.706)" fill="#d5e2fd"/>
      <path id="Trazado_829257" data-name="Trazado 829257" d="M339.326,105.365a9.011,9.011,0,0,1,.357-2.576,5.089,5.089,0,0,0,.214-2.269,18.1,18.1,0,0,1-.375,2.6c-.143.663-.34,1.377-.465,1.861-.393,1.046-.643,1.734-.643,1.734l.911-1.351Z" transform="translate(-75.008 46.538)" fill="#d5e2fd"/>
      <path id="Trazado_829258" data-name="Trazado 829258" d="M316.239,81.278c2.537-5.508,6.969-3.646,1.465-4.488C312.343,80.36,317.508,79.212,316.239,81.278Z" transform="translate(-13.93 132.488)" fill="#d5e2fd"/>
      <path id="Trazado_829259" data-name="Trazado 829259" d="M313.111,81.32a21.058,21.058,0,0,0-6.451,4.08C311.217,85.043,310.913,83.1,313.111,81.32Z" transform="translate(8.586 116.814)" fill="#d5e2fd"/>
    </g>
  </g>
</svg>
