<svg xmlns="http://www.w3.org/2000/svg" xmlns:xlink="http://www.w3.org/1999/xlink" width="1600" height="641.151" viewBox="0 0 1600 641.151">
  <defs>
    <clipPath id="clip-path">
      <rect id="Rectángulo_356969" data-name="Rectángulo 356969" width="1600" height="641.151" transform="translate(0 1804.782)" fill="#12263f" opacity="0.21"/>
    </clipPath>
  </defs>
  <g id="Enmascarar_grupo_169" data-name="Enmascarar grupo 169" transform="translate(0 -1804.782)" clip-path="url(#clip-path)">
    <g id="Grupo_1074195" data-name="Grupo 1074195" transform="translate(1071.496 1897.365)">
      <path id="Trazado_777609" data-name="Trazado 777609" d="M490.119,157.2c1.912-.5,1.573-.8.2-1.019a42.836,42.836,0,0,0-6.147-.179l-3.538,2.877s2.359-.447,4.718-.911c2.359-.447,4.771-.786,4.771-.786Z" transform="translate(152.734 101.941)" fill="#bad1ff"/>
      <path id="Trazado_777610" data-name="Trazado 777610" d="M478.731,158.18s-2.591.858-5.289,1.483a43.638,43.638,0,0,1-5.522.929s2.037-.054,4.021-.322c1.984-.25,3.913-.679,3.913-.679,4.378.25,4.2.8,2.43,1.519a30.538,30.538,0,0,1-6.916,1.43,25.03,25.03,0,0,0,7.094-.983c1.179-.411,1.412-.822,1.269-1.179-.286-.733-2.055-1.447-1-2.2Z" transform="translate(142.731 103.674)" fill="#bad1ff"/>
      <path id="Trazado_777611" data-name="Trazado 777611" d="M464.044,158.715c-2.5-2.52-3.181-3.753-3.61-3.556-.393.143-.2,1.7.733,3.145a3.19,3.19,0,0,1,1.09.518c.429.2.893.465,1.412.679.965.393,1.43.393.375-.768Z" transform="translate(136.69 101.281)" fill="#bad1ff"/>
      <path id="Trazado_777612" data-name="Trazado 777612" d="M339.26,100.25l-.465.5c-.161.179-.214.214-.322.322-.214.2-.411.393-.59.572-.357.34-.661.554-.8.393-.125.661-.089,1.054.2.876a3.061,3.061,0,0,0,.625-.715c.143-.2.3-.429.518-.715.25-.34.518-.751.84-1.215Z" transform="translate(39.712 58.086)" fill="#bad1ff"/>
      <path id="Trazado_777613" data-name="Trazado 777613" d="M337.1,101.636c.054-.25.107-.536.2-.876a6.268,6.268,0,0,0-.3.768c0,.089.072.071.107.107Z" transform="translate(39.695 58.487)" fill="#bad1ff"/>
      <path id="Trazado_777614" data-name="Trazado 777614" d="M460.225,194.378a58.741,58.741,0,0,1,8.631-4.432c.643-.286,1.251-.5,1.894-.751.643-.268,1.269-.5,1.841-.7,1.412-.536,2.895-1.09,4.557-1.715l4.664.375c7.541-3.27,2.895-2.68,8.077-5.5a124.878,124.878,0,0,0,13.474-3.949,102.834,102.834,0,0,1,10.221-2.966c2.252.411-2.341,1.644-3.252,2.484,2.019-.7,3.413-1.144,4.61-1.68,1.179-.447,2.109-.893,3.127-1.34a21.4,21.4,0,0,1,9.078-1.59l.143.5a21.008,21.008,0,0,1,2.144-.107l1.09-.036h.5l.25-.036,1.054-.054h.715a2.567,2.567,0,0,1,2.52,1.59,3.78,3.78,0,0,1,.143,1.68,5.167,5.167,0,0,1-.143.893c-.036.179-.143.447-.2.679a8.367,8.367,0,0,1-.268.8,99.939,99.939,0,0,1-4.682,10.025c-3.627,7.076-7.952,14.367-11.061,23.248-.393,1.09-.75,2.269-1.054,3.467-.339,1.144-.572,2.466-.822,3.717a36.222,36.222,0,0,0-.447,4.039,26.752,26.752,0,0,0,.214,4.432c.125.768.214,1.59.411,2.359.214.751.465,1.519.715,2.252a11.8,11.8,0,0,0,.947,2.216,18.621,18.621,0,0,0,1.019,1.823,23.176,23.176,0,0,0,5.915,6.594c-2.43-2.2-1.465-2.019-2.055-3.127a20.084,20.084,0,0,0,6.236,4.61,22.043,22.043,0,0,0,7.309,2,37.226,37.226,0,0,0,12.938-1.269c7.827-2.055,14.635-5.254,21.229-8.309q4.825-2.305,9.578-4.575c3.61-1.644,4.914-2.341,7.148-3.234a21.623,21.623,0,0,1,6.88-1.715,8.1,8.1,0,0,1,3.574.643,7.84,7.84,0,0,1,2.7,2.234,6.429,6.429,0,0,1,1.573,4.575,14.222,14.222,0,0,1-1.179,4.5,20.466,20.466,0,0,0,2.395-4.718,8.018,8.018,0,0,0-.357-5.843,7.782,7.782,0,0,0-3.842-4.253,11.87,11.87,0,0,0-5.986-.768,47.814,47.814,0,0,0-12.473,3.431,181.988,181.988,0,0,0-22.873,11.311c-3.413.572-7.487,2.073-11.347,2.913-3.824.876-7.505.876-8.881-.232a16.781,16.781,0,0,1-8.845-3.628,19.249,19.249,0,0,1-5-6.808,18.861,18.861,0,0,1-1.251-7.684,35.544,35.544,0,0,1,1.054-7.13c2.323-9.113,6.5-17.3,12.223-28,1.876-2.913,1.912-1.019,3.163-1.519,0,0-1.984,4.414-4.217,8.81-1.09,2.2-2.18,4.414-3,6.076-.8,1.662-1.34,2.788-1.34,2.788s1.555-2.573,3.181-5.111l3.234-5.057c-.876,2.466-3.038,6.379-4.753,9.953-1.751,3.574-2.948,6.862-2.484,7.845a87.776,87.776,0,0,1,5.736-13.134c2.377-4.646,5.093-9.471,7.255-14.51a34.927,34.927,0,0,0,2.52-7.845,11.593,11.593,0,0,0-.84-7.612,9.448,9.448,0,0,0-5.575-4.164c-.536-.143-1.054-.286-1.573-.429-.518-.125-1.054-.143-1.555-.214-.5-.054-.983-.107-1.465-.161-.482,0-.947,0-1.412.018a20.472,20.472,0,0,1,2.466.572,16.2,16.2,0,0,1,2.5.786,10.434,10.434,0,0,1,4.557,3.02,8,8,0,0,1,1.751,5.379,18.892,18.892,0,0,1-1.126,5.718c-1.537,3.038-4.539,7.9-5.164,7.13a71.421,71.421,0,0,0,2.448-7.595,13.279,13.279,0,0,0,.286-5.9,6.214,6.214,0,0,0-3.52-4.2,5.708,5.708,0,0,0-1.287-.518,6.951,6.951,0,0,0-1.322-.375l-1.34-.286-1.5-.179c-.876-.143-2.323-.2-3.538-.3-1.269-.125-2.52-.036-3.806-.071-1.269,0-2.573.143-3.86.214-1.3.107-2.609.3-3.931.465a94.933,94.933,0,0,0-16.351,4.128c-5.647,1.912-13.474,4.557-14.725,4.056,3.681-1.608.59-1.3,3.556-2.788-7.934,3.556.3,3.288-11.758,7.112l.536-3.413a9.609,9.609,0,0,1-4.021,2.734c-.858.34-1.769.643-2.752.929-.929.268-1.894.536-2.877.822-4,1.144-8.577,2.663-12.312,5.307-3.449.179,1.733-2.913,7.952-5.611-7.362,2.484-7.237,4.5-13.063,6.9l4.414-4.735c-5.075,4.95-11.222,4.217-14.975,4.539-.107.375.822.751.786,1.358,0,.3-.286.643-1.054,1.072a15.819,15.819,0,0,1-4.128,1.394c-3.645.482-1.948-.59-2.859-.768a4.589,4.589,0,0,1-2.412,1.573,13.181,13.181,0,0,1-2.752.786c-.554.089-1.144.179-1.787.25-.643.054-1.34.036-2.073.036-.518-.447.465-.751,1.59-1.054,1.108-.34,2.359-.786,2.5-1.233a35.758,35.758,0,0,1-5.129.089h.018a9.868,9.868,0,0,1,1.7-5.272c1.072-3.467.679-3.074.071-2.609-.59.536-1.34,1.215-.965-.375,2.859-4.36,4.271-5.254,5.111-5.307.84-.089,1.608.7,3.735-1.8a66.982,66.982,0,0,1-2.537,7.38c-.625,1.5-1.287,3.109-1.894,4.7-.2.751-.375,1.483-.572,2.216.036.393.054.768.054,1.144-1.519-1.626-3.02-3.27-4.36-4.7a26.563,26.563,0,0,0,7.9-1.34,35.266,35.266,0,0,1-7.863.893l4.771,5.146V189.7l.643-2.162c.679-1.555,1.376-3.109,2.109-4.628.322.554,2.806-3.252,4.217-5.575.715-1.144,1.287-2.055,1.537-2.055.143-.018.2.2.125.733a13.024,13.024,0,0,1-.679,2.788,40.021,40.021,0,0,0,3.735-12.223,30.434,30.434,0,0,0,.268-6.576l-.071-.965c-.036-.3-.2-.268-.286-.429-.232-.214-.447-.429-.679-.679-.465-.447-.929-1.054-1.412-1.608-7.237,2.126-14.617,4.271-21.837,6.683-3.556,1.162-7.094,2.305-10.275,3.252-1.215.375-2.412.733-3.61,1.09-1.036.3-2.055.59-3.056.876,2.126-.107,4.861-.554,4.575.179-7.469,2.395-6.88.822-8.542.429a11,11,0,0,0-4.682,2.448,10.513,10.513,0,0,1-3.163,2.484c-.733-.036-1.412-.071-2.073-.125-.625-.036-1.054-.107-1.537-.161-.929-.107-1.715-.25-2.43-.375a15.983,15.983,0,0,1-3.574-1.09,5.662,5.662,0,0,1-2.466-2.216,5.252,5.252,0,0,1-.107-4.324s-.5.232-1.019.465c-.5.25-1,.518-1,.518.286-1.43.679-2.395.876-3.217.232-.822.34-1.519.482-2.252a10.457,10.457,0,0,1,.786-2.412,15.718,15.718,0,0,1,2.538-3.52c.268-.071.089.572-.268,1.483-.179.447-.393.983-.625,1.537-.2.5-.268.822-.393,1.233a12.006,12.006,0,0,1,1.769-2.806,16.89,16.89,0,0,1,1.823-1.787,18.334,18.334,0,0,0,4.164-4.878l-.858,2.7-.768,2.663c2.984-4.164,7.648-10.758,7.166-7.523a67.687,67.687,0,0,1,4.467-7.237c1.8-2.68,3.9-5.522,5.951-8.953a30.928,30.928,0,0,0,2.948-6.236,14.02,14.02,0,0,0,.7-5.289,9.172,9.172,0,0,0-.3-1.841,8.148,8.148,0,0,0-.733-1.948,9.879,9.879,0,0,0-2.573-3.27,11.856,11.856,0,0,0-5.236-2.43,19.509,19.509,0,0,0-3.717-.357,29.185,29.185,0,0,0-5.682.572l.768-1.608c-3.574,1.215-9.489,2.323-15.1,3.77-.7.179-1.394.375-2.091.554l-1.019.286c-.357.089-1,.3-1.34.411-1.5.536-2.716,1.036-3.86,1.555a19.851,19.851,0,0,0-5.093,3.056l-1.072-.25-10.7,6.362c-5.254,1.787-4.289-1.036-4.485-.286-11.169,4.61-20.211,7.648-27.609,8.685-.232,1.09-2.412,2.377-5.861,3.306a22.025,22.025,0,0,1-5.736.786,8.171,8.171,0,0,1-3-.518,3.816,3.816,0,0,1-2.144-1.894,6.07,6.07,0,0,1,.125-3.431,16.161,16.161,0,0,1,1.34-3.2,28.333,28.333,0,0,1,1.769-2.931l2.019-2.716,1-1.358c.357-.482.59-.84,1.126-1.465l2.877-3.467c1.841-2.341,3.967-4.592,6.058-6.88a287.915,287.915,0,0,1,27.323-25.411c19.21-15.922,39.456-30.271,57.594-44.46a64.979,64.979,0,0,0,6.326-5.45c2.162-2.126,4.378-4.45,6.63-6.755l1.019,3.074c-1.894.357-3.842,1.858-7.148,2.234a22.7,22.7,0,0,0,2.716-.232c.7-.143,1.34-.286,1.966-.411.5-.089,1.072-.268,1.43-.286.375-.036.715-.089,1.036-.143-.608-1.8-1.2-3.61-1.715-5.164-3.663,2.823-5.432,4.861-11.383,9.042-6.63,4.039-10.2,3.9-16.44,6.612l3.77-.5c-7.863,7.094-6.469,3.324-12.33,9.471l-1.3-2.5c-1.608,2.823-8.309,6.058-11.222,7.184l-1.126,3.163c-6.058,2.948-9.828,5.146-12.509,4.932l1.573,1.054a20.767,20.767,0,0,0-4.289,2.52c-1.966,1.412-4.324,3.091-6.415,4.575-4.2,2.966-7.452,5.093-5.254,1.394-1.287,1.555-2.144,3.342-5.593,5.9l-1.626-.947c-2.234,2.2-4.664,4.45-6.719,6.29-2.037,1.876-3.788,3.234-4.789,3.467,2.252-2.609,2.591-3.949,2.913-5.289-2.52,2.216-4.414,4.021-5.826,5.486a23.9,23.9,0,0,0-2.895,3.645c-1.179,1.912-1.09,2.859-.929,3.753a4.278,4.278,0,0,1-.429,3.359c-.786,1.715-2.609,4.2-6.5,8.667l-.7-.965-2.966,5.54s-.322.25-.822.643c-.25.2-.536.429-.84.661a7.1,7.1,0,0,0-1.019.911l-3.091,3.377a26.081,26.081,0,0,1-1.948,4.878,33.429,33.429,0,0,0-2.5,5.843,27.309,27.309,0,0,0-1.5,6.7,10.694,10.694,0,0,0,1.662,7.273,12.6,12.6,0,0,0,6.362,4.253,25.78,25.78,0,0,0,8.023,1.126,42.477,42.477,0,0,0,8.631-1c1.394-.286,2.77-.661,4.056-1.019q.965-.295,1.876-.59a12.385,12.385,0,0,0,1.376-.536c5.325-1.7,12.991-1.608,22.748-5.379L340.1,138c4.253-.536,13.777-3.359,23.159-5.968,2.341-.643,4.682-1.269,6.826-1.769.518-.107,1.036-.214,1.537-.322a5.046,5.046,0,0,1,1.161-.143,1.861,1.861,0,0,0,.59-.036l.768-.071c.518-.036,1.019-.089,1.5-.125,3.931-.268,7.112-.054,8.9.661,6.111-2.323-.661-.3-.876-1.626a23.446,23.446,0,0,1,6.916-1.43,3.234,3.234,0,0,1,.733.089.5.5,0,0,1,.2.071c.036-.071-.089.447.179-.786a13.816,13.816,0,0,1,2.162-5.629c.608-.751.768-.482-.107-.322a10.987,10.987,0,0,1-4.593-.393,33.033,33.033,0,0,1-3.913-1.144c-.071-.054-.2,0-.322.054a5.026,5.026,0,0,0-1,.911c-.59,1.412-.893,2.073-.7,2.019a6.12,6.12,0,0,0,1.215-1.287c1.072-1.358,1.5-1.858,1.787-.8-.715.965-1.3,1.787-1.841,2.5-.608.858-1.179,1.68-1.662,2.448-.983,1.537-1.662,2.859-2.43,4.271-1.537,2.895-3.431,5.951-9.578,12.866-1.912.84,2.394-4.217,3.056-6.022-1.644,2.77-3.878,5.968-6.451,9.81-.643.983-1.3,2-1.966,3.038-.375.608-.751,1.2-1.126,1.823-.518.858-.983,1.715-1.483,2.573a32.517,32.517,0,0,0-3.913,11.133A21.8,21.8,0,0,0,360.6,175.83l.661,1.322c.268.411.554.822.84,1.215a17.682,17.682,0,0,0,1.912,2.252,28.764,28.764,0,0,0,2.216,1.948c.822.554,1.68,1.054,2.52,1.555a28.481,28.481,0,0,0,11.848,3.02,30.666,30.666,0,0,0,3.145.089c.983,0,2.252,0,2.859-.054,1.412-.089,2.77-.214,4.056-.375,3.217-.179,6.5-.554,9.864-1.072,1.662-.268,3.377-.554,5.075-.893.858-.161,1.715-.34,2.573-.518l1.161-.232.322-.036a21.628,21.628,0,0,1,3.038-.089.761.761,0,0,1,.3.071s.054,0,.054.036l-.054.179a2.987,2.987,0,0,1-.143.357,4.242,4.242,0,0,1-.858,1.108c-.3.3-.572.554-.786.733l-.3.25s-.143.322-.2.465a4.588,4.588,0,0,0-.089.679l-.107.965-.161,1.93-.983,12.133,13.277,1.144a57.243,57.243,0,0,0,6.648.286l.572-.679c7,.286,13.4-1.59,19.281-3.788,5.808-2.252,11.294-4.95,16.708-6.88l-5.682,1.447Z" transform="translate(0)" fill="#bad1ff"/>
      <path id="Trazado_777615" data-name="Trazado 777615" d="M423.148,138.057l2.019-1.179s.161-.625.465-1.573c.268-.947.715-2.2,1.162-3.485.929-2.537,2-5.111,2-5.111-3.109,3.413-3.359,5.951-5.665,11.329Z" transform="translate(107.483 78.908)" fill="#bad1ff"/>
      <path id="Trazado_777616" data-name="Trazado 777616" d="M421.709,132.315s-.34,1.465-.7,2.931c-.125.733-.25,1.483-.357,2.037a7.227,7.227,0,0,0-.125.929,13.463,13.463,0,0,1,.375-1.447c.232-.876.59-2.019,1-3.145.8-2.269,1.787-4.45,1.787-4.45s-.536.768-1.019,1.555c-.5.8-.983,1.59-.983,1.59Z" transform="translate(105.437 80.844)" fill="#bad1ff"/>
      <path id="Trazado_777617" data-name="Trazado 777617" d="M381.26,116.725l1.447-.375s1.215-.608,3.02-1.519c1.823-.911,4.271-2.109,6.808-3.217l10.043-4.074s-1.34.518-3.324,1.3c-2,.786-4.7,1.733-7.469,2.913-2.7,1.162-5.325,2.43-7.273,3.377S381.26,116.725,381.26,116.725Z" transform="translate(74.533 63.822)" fill="#bad1ff"/>
      <path id="Trazado_777618" data-name="Trazado 777618" d="M339.049,101.467a4.581,4.581,0,0,1-.357,1.8,2.563,2.563,0,0,0-.214,1.59,9.145,9.145,0,0,1,.375-1.823c.143-.465.34-.965.465-1.3.393-.733.643-1.215.643-1.215l-.911.947Z" transform="translate(40.816 58.298)" fill="#bad1ff"/>
      <path id="Trazado_777619" data-name="Trazado 777619" d="M319.316,76.79c-2.537,3.86-6.969,2.555-1.465,3.145C323.211,77.433,318.047,78.237,319.316,76.79Z" transform="translate(22.559 39.623)" fill="#bad1ff"/>
      <path id="Trazado_777620" data-name="Trazado 777620" d="M306.66,84.179a23.515,23.515,0,0,0,6.451-2.859C308.554,81.57,308.858,82.928,306.66,84.179Z" transform="translate(15.826 43.188)" fill="#bad1ff"/>
    </g>
    <path id="Trazado_777621" data-name="Trazado 777621" d="M40.268,63.761S436.749,958.491,754.19,733.211s362.6-329.693,362.6-329.693L1066.271,37.754,0,0Z" transform="translate(1625.944 1019.091) rotate(60)" fill="#287dfd" fill-rule="evenodd" opacity="0.051"/>
    <path id="Trazado_777622" data-name="Trazado 777622" d="M0,0H1600V647.826H0Z" transform="translate(0 1798.107)" fill="#f3f9ff"/>
    <path id="Trazado_777623" data-name="Trazado 777623" d="M781.721,168.884C814.667,63.2,982.137,97.16,1105.271,73.743S1403.007-54.646,1437.584,36.77c36.858,97.465,16.328,168.134-201.455,281.754S883.113,391.648,820.4,317.34c-48.826-57.849-47.469-120.2-38.662-148.457Z" transform="translate(649.923 1698.448)" fill="#e5f1fd"/>
    <path id="Trazado_777624" data-name="Trazado 777624" d="M1093.846,823.529C1041.367,920.994,883.44,855.767,758.1,855.29S441.347,924.6,424.831,828.279c-17.613-102.706,16-168.163,251.436-238.226s360.48-4.533,407.891,80.357c36.9,66.093,23.706,127.046,9.673,153.105Z" transform="translate(656.431 1639.072)" fill="#e5f1fd"/>
    <path id="Trazado_777781" data-name="Trazado 777781" d="M45.952,106.26S-4.9,140.736.388,177.955s54.081,7.117,65.328,40.886-33.09,76.892,5.919,108.206,75.953,2.786,100.468,9.384,21.742,54.283,77.874,56.131,103.211-27.4,83.879-113.894,44.87-95.126,54.269-125.891-12.257-41.925-12.257-41.925l-329.9-4.591Z" transform="translate(-104.097 1676.521)" fill="#d5eafc"/>
    <path id="Trazado_777782" data-name="Trazado 777782" d="M1256.547,663.766c42.131,1.369,46.665,66.261,67.756,109.07s77.328,96.232,47.293,118.189c-32.031,23.414-60.043,23.063-123.842-45.334S1185.086,723.57,1206,693.009c16.28-23.791,39.292-29.62,50.559-29.255Z" transform="translate(-1049.547 1667.353)" fill="#e5f1fd"/>
  </g>
</svg>
