<svg xmlns="http://www.w3.org/2000/svg" xmlns:xlink="http://www.w3.org/1999/xlink" width="1600" height="769" viewBox="0 0 1600 769">
  <defs>
    <clipPath id="clip-path">
      <rect id="Rectángulo_404465" data-name="Rectángulo 404465" width="1600" height="769" transform="translate(0 5125)" fill="#12263f" opacity="0.52"/>
    </clipPath>
    <clipPath id="clip-path-2">
      <rect id="Rectángulo_404462" data-name="Rectángulo 404462" width="486.132" height="444.971" fill="#dfbd90"/>
    </clipPath>
    <clipPath id="clip-path-3">
      <rect id="Rectángulo_404463" data-name="Rectángulo 404463" width="486.132" height="444.971" fill="#bcf8c4"/>
    </clipPath>
    <clipPath id="clip-path-4">
      <rect id="Rectángulo_404464" data-name="Rectángulo 404464" width="432.289" height="405.276" fill="#382256"/>
    </clipPath>
  </defs>
  <g id="Enmascarar_grupo_1079060" data-name="Enmascarar grupo 1079060" transform="translate(0 -5125)" clip-path="url(#clip-path)">
    <g id="Grupo_1104727" data-name="Grupo 1104727" transform="translate(19008 14179)">
      <path id="Trazado_915143" data-name="Trazado 915143" d="M0,0H1600V719H0Z" transform="translate(-19008 -9078.922)" fill="#ebffee"/>
      <path id="Trazado_915144" data-name="Trazado 915144" d="M3154.38,592.08c-93.387,0-124.683,131.688-384.64,71s-475.509-60.539-542.581,30.1-2.688,162.19-212.821,193.1-348.32-243.436-459.957-243.436V988.481h1600Z" transform="translate(-20562.379 -9273.617)" fill="#d6fcdb"/>
      <g id="Grupo_1104719" data-name="Grupo 1104719" transform="translate(-19035.367 -9125.262)" opacity="0.4">
        <g id="Grupo_1104718" data-name="Grupo 1104718" clip-path="url(#clip-path-2)">
          <path id="Trazado_915145" data-name="Trazado 915145" d="M62.282,382.607c70.657,69.633,163.4,70.332,209.769,53.194,71.173-26.308,46.806-82.987,68.329-108.575,17.614-20.94,28.364-14.514,48.691-26.527,38.53-22.774,29.413-46.068,14.335-96.425-15.5-51.76,28.45-77.8,47.329-87.5,5.88-3.022,31.964-11.036,34.477-15.635,3.341-6.113-3.273-19.135-6.078-25.937-13.489-32.725-38.591-55.582-72.3-66.348C314.114-20.762,208.94,32.865,119.544,53.977c-23.21,5.482-77.626-5.221-95.785,6.247C-8.492,80.591,3.135,130.647.336,177.034c-1.777,29.44,3.89,58.852,7.667,87.948,3.444,26.531,5.618,59.676,26.682,79.048Z" transform="translate(0 -0.133)" fill="#bcf8c4"/>
        </g>
      </g>
      <g id="Grupo_1104721" data-name="Grupo 1104721" transform="translate(-17714.367 -9199.406)" opacity="0.4">
        <g id="Grupo_1104720" data-name="Grupo 1104720" clip-path="url(#clip-path-3)">
          <path id="Trazado_915146" data-name="Trazado 915146" d="M62.282,382.607c70.657,69.633,163.4,70.332,209.769,53.194,71.173-26.308,46.806-82.987,68.329-108.575,17.614-20.94,28.364-14.514,48.691-26.527,38.53-22.774,29.413-46.068,14.335-96.425-15.5-51.76,28.45-77.8,47.329-87.5,5.88-3.022,31.964-11.036,34.477-15.635,3.341-6.113-3.273-19.135-6.078-25.937-13.489-32.725-38.591-55.582-72.3-66.348C314.114-20.762,208.94,32.865,119.544,53.977,54.162,69.418,4.675,105.117.336,177.034c-1.777,29.44,3.89,58.852,7.667,87.948,3.444,26.531,5.618,59.676,26.682,79.048Z" transform="translate(0 -0.133)" fill="#bcf8c4"/>
        </g>
      </g>
      <g id="Grupo_1104722" data-name="Grupo 1104722" transform="translate(-19048.324 -8657.277)" opacity="0.4" clip-path="url(#clip-path-4)">
        <path id="Trazado_915147" data-name="Trazado 915147" d="M392.55,520.092c33.89-104.4-31.838-154.872-97.336-154.872-67.964,0-73.737,18.9-118.539,15.217-35.823-2.943-75.786-39.826-115.692-19.712C-1.629,392.285,4.094,426.433,5.558,504.187c.723,38.438-5.314,196.532,74.7,241.648,58.518,33,277.947-.248,304.672-12.361,66.032-29.93,63.051-113.339,25.774-143.1-19.968-15.941-32.75-25.313-18.152-70.282" transform="translate(-4.744 -354.752)" fill="#bcf8c4"/>
      </g>
      <g id="Grupo_1104723" data-name="Grupo 1104723" transform="translate(-17661.953 -8994.918)">
        <path id="Trazado_915148" data-name="Trazado 915148" d="M481.962,157.658c-1.912.5-1.573.8-.2,1.019a42.836,42.836,0,0,0,6.147.179l3.538-2.877s-2.359.447-4.718.911c-2.359.447-4.771.786-4.771.786Z" transform="translate(-480.63 -150.581)" fill="#9c39e7"/>
        <path id="Trazado_915149" data-name="Trazado 915149" d="M468.958,162.54s2.591-.858,5.289-1.483a43.637,43.637,0,0,1,5.522-.929s-2.037.054-4.021.322c-1.984.25-3.913.679-3.913.679-4.378-.25-4.2-.8-2.43-1.519a30.538,30.538,0,0,1,6.915-1.43,25.03,25.03,0,0,0-7.094.983c-1.179.411-1.412.822-1.269,1.179.286.733,2.055,1.447,1,2.2Z" transform="translate(-446.237 -158.179)" fill="#9c39e7"/>
        <path id="Trazado_915150" data-name="Trazado 915150" d="M460.844,156.161c2.5,2.52,3.181,3.753,3.61,3.556.393-.143.2-1.7-.733-3.145a3.19,3.19,0,0,1-1.09-.518c-.429-.2-.893-.465-1.412-.679-.965-.393-1.43-.393-.375.768Z" transform="translate(-417.394 -149.942)" fill="#9c39e7"/>
        <path id="Trazado_915151" data-name="Trazado 915151" d="M337.012,102.956l.465-.5c.161-.179.214-.214.322-.322.214-.2.411-.393.59-.572.357-.34.661-.554.8-.393.125-.661.089-1.054-.2-.876a3.061,3.061,0,0,0-.625.715c-.143.2-.3.429-.518.715-.25.34-.518.751-.84,1.215Z" transform="translate(-71.8 4.923)" fill="#fa30f3"/>
        <path id="Trazado_915152" data-name="Trazado 915152" d="M337.186,100.76c-.054.25-.107.536-.2.876a6.268,6.268,0,0,0,.3-.768c0-.089-.072-.071-.107-.107Z" transform="translate(-69.795 5.332)" fill="#fa30f3"/>
        <path id="Trazado_915153" data-name="Trazado 915153" d="M428.777,126.71l-2.019,1.179s-.161.625-.465,1.573c-.268.947-.715,2.2-1.162,3.485-.929,2.537-2,5.111-2,5.111,3.109-3.413,3.359-5.951,5.665-11.329Z" transform="translate(-315.225 -77.461)" fill="#fa30f3"/>
        <path id="Trazado_915154" data-name="Trazado 915154" d="M422.513,135.067s.34-1.465.7-2.931c.125-.733.25-1.483.357-2.037a7.227,7.227,0,0,0,.125-.929,13.463,13.463,0,0,1-.375,1.447c-.232.876-.59,2.019-1,3.145-.8,2.269-1.787,4.45-1.787,4.45s.536-.768,1.019-1.555c.5-.8.983-1.59.983-1.59Z" transform="translate(-305.477 -82.012)" fill="#fa30f3"/>
        <path id="Trazado_915155" data-name="Trazado 915155" d="M402.578,107.54l-1.447.375s-1.215.608-3.02,1.519c-1.823.911-4.271,2.109-6.808,3.217l-10.043,4.074s1.34-.518,3.324-1.3c2-.786,4.7-1.733,7.469-2.913,2.7-1.162,5.325-2.43,7.273-3.377S402.578,107.54,402.578,107.54Z" transform="translate(-214.188 -21.873)" fill="#fa30f3"/>
        <path id="Trazado_915156" data-name="Trazado 915156" d="M339.326,103.915a4.581,4.581,0,0,1,.357-1.8,2.563,2.563,0,0,0,.214-1.59,9.145,9.145,0,0,1-.375,1.823c-.143.465-.34.965-.465,1.3-.393.733-.643,1.215-.643,1.215l.911-.947Z" transform="translate(-75.009 2.534)" fill="#fa30f3"/>
        <path id="Trazado_915157" data-name="Trazado 915157" d="M316.239,79.935c2.537-3.86,6.969-2.555,1.465-3.145C312.343,79.292,317.508,78.488,316.239,79.935Z" transform="translate(-13.931 69.866)" fill="#fa30f3"/>
        <path id="Trazado_915158" data-name="Trazado 915158" d="M313.111,81.32a23.515,23.515,0,0,0-6.451,2.859C311.217,83.929,310.913,82.571,313.111,81.32Z" transform="translate(8.586 57.527)" fill="#fa30f3"/>
      </g>
      <path id="Trazado_915159" data-name="Trazado 915159" d="M115.635,512.21a2.825,2.825,0,0,1-3.012,2.875A2.855,2.855,0,0,1,109.514,512c0-1.94,1.266-2.9,3.164-3.109,1.857.33,3.054,1.362,2.944,3.315Zm17.1-17.566a2.629,2.629,0,0,0-2.724-2.751,2.724,2.724,0,1,0-.055,5.447c1.692.028,2.614-1,2.792-2.71ZM79.844,389.03c-.138-1.692-1.032-2.7-2.737-2.655a2.442,2.442,0,0,0-2.586,2.779,2.412,2.412,0,0,0,2.545,2.517,2.537,2.537,0,0,0,2.779-2.627Zm52.89,123.015a2.629,2.629,0,0,0-2.724-2.751,2.724,2.724,0,0,0-.055,5.447c1.692.028,2.614-1,2.792-2.71ZM57.078,371.52c.083,1.664.908,2.724,2.627,2.751a2.428,2.428,0,0,0,2.7-2.669,2.4,2.4,0,0,0-2.435-2.614,2.545,2.545,0,0,0-2.889,2.545ZM27.656,354.367c-.11-1.733-.949-2.765-2.669-2.792a2.393,2.393,0,0,0-2.655,2.407,2.439,2.439,0,0,0,2.462,2.889,2.531,2.531,0,0,0,2.861-2.5Zm-20.606-2.9a2.63,2.63,0,0,0-2.82,2.614A2.532,2.532,0,0,0,6.8,356.953a2.525,2.525,0,0,0,2.875-2.572C9.774,352.7,8.8,351.712,7.05,351.464Zm105.463,93.124c1.774-.179,2.792-1.114,2.779-2.806a2.731,2.731,0,0,0-5.461.055,2.628,2.628,0,0,0,2.669,2.737Zm17.566,29.959c-1.664.083-2.724.908-2.751,2.627a2.439,2.439,0,0,0,2.669,2.71,2.414,2.414,0,0,0,2.627-2.435,2.535,2.535,0,0,0-2.531-2.889Zm-32.215-67.4c-.083-1.664-.908-2.724-2.627-2.751a2.428,2.428,0,0,0-2.7,2.669,2.4,2.4,0,0,0,2.435,2.614,2.543,2.543,0,0,0,2.889-2.531ZM42.36,339.1a2.235,2.235,0,0,0,2.242-2.091,2.226,2.226,0,1,0-4.443-.055,2.237,2.237,0,0,0,2.215,2.146Zm-17.442-4.7a2.393,2.393,0,0,0-2.325,2.421,2.218,2.218,0,0,0,2.283,2.393,2.242,2.242,0,0,0,2.476-2.5,2.378,2.378,0,0,0-2.435-2.3Zm-17.9,4.952c1.6-.344,2.559-1.21,2.366-2.806a2.259,2.259,0,0,0-2.572-2.146,2.3,2.3,0,0,0-2.283,2.737,2.459,2.459,0,0,0,2.49,2.215Zm141.2,205.644c-1.541.124-2.517.867-2.614,2.256a2.383,2.383,0,1,0,4.759.22A2.441,2.441,0,0,0,148.222,544.989Zm2.242-33.109c-.289-1.486-1.155-2.448-2.737-2.283a2.441,2.441,0,1,0,.509,4.856A2.4,2.4,0,0,0,150.464,511.88ZM148,567.2c1.4-.248,2.366-1.018,2.3-2.462a2.312,2.312,0,0,0-4.622.041A2.376,2.376,0,0,0,148,567.2Zm-.124-34.677c1.541-.138,2.545-.922,2.545-2.531a2.25,2.25,0,0,0-2.311-2.407,2.279,2.279,0,0,0-2.559,2.462c0,1.444.922,2.2,2.325,2.462ZM62.2,354.27a2.386,2.386,0,0,0-2.311-2.421,2.381,2.381,0,1,0-.083,4.759c1.431-.014,2.173-.963,2.407-2.338ZM42.47,356.76c1.513-.234,2.448-1.045,2.38-2.627a2.484,2.484,0,0,0-4.966.179c.055,1.568,1.045,2.325,2.586,2.435Zm70.235,52.766c1.486-.289,2.448-1.155,2.283-2.737a2.441,2.441,0,1,0-4.856.509,2.4,2.4,0,0,0,2.572,2.228Zm17.3,47.745c-1.541.11-2.531.88-2.572,2.448a2.329,2.329,0,0,0,2.641,2.641A2.3,2.3,0,0,0,132.5,459.8a2.4,2.4,0,0,0-2.49-2.531Zm15.6,2.448a2.36,2.36,0,0,0,2.3,2.435,2.317,2.317,0,0,0,.289-4.622C146.75,457.367,145.938,458.316,145.608,459.719Zm2.448,37.346c1.376-.248,2.338-1.018,2.311-2.435a2.382,2.382,0,1,0-4.759.151A2.415,2.415,0,0,0,148.057,497.065Zm-52.9-110.539c-1.513.22-2.5,1.032-2.421,2.641a2.25,2.25,0,0,0,2.421,2.3,2.284,2.284,0,0,0,2.448-2.586,2.418,2.418,0,0,0-2.448-2.352Zm17.469,4.759a2.242,2.242,0,0,0,2.173-2.462,2.078,2.078,0,0,0-2.27-2.022,2.114,2.114,0,0,0-2.173,2.421,2.25,2.25,0,0,0,2.27,2.077Zm19.739,33.206c-.3-1.513-1.1-2.476-2.531-2.366a2.313,2.313,0,0,0,.138,4.622,2.418,2.418,0,0,0,2.393-2.256Zm-19.835,2.531c1.678-.206,2.614-1.032,2.572-2.614a2.534,2.534,0,1,0-5.062.193A2.438,2.438,0,0,0,112.527,427.023Zm-35.283-57.9c-1.527.151-2.531.949-2.517,2.545a2.242,2.242,0,0,0,2.338,2.38,2.273,2.273,0,0,0,2.531-2.49c0-1.444-.935-2.2-2.352-2.435Zm20.207,2.531c-.22-1.417-.99-2.325-2.421-2.256a2.075,2.075,0,0,0-2.077,2.215,2.112,2.112,0,0,0,2.366,2.228,2.249,2.249,0,0,0,2.132-2.187Zm35.008,70.1c-.248-1.5-1.073-2.476-2.682-2.366a2.259,2.259,0,0,0-2.256,2.462,2.291,2.291,0,0,0,2.627,2.407A2.425,2.425,0,0,0,132.458,441.755Zm17.951,35.338c-.289-1.362-1.073-2.311-2.5-2.228a2.385,2.385,0,1,0,.275,4.759,2.406,2.406,0,0,0,2.215-2.531ZM79,336.856a1.794,1.794,0,0,0-1.953-1.829,1.669,1.669,0,0,0-1.692,1.774,1.692,1.692,0,0,0,1.926,1.843,1.783,1.783,0,0,0,1.733-1.788ZM59.774,338.8a1.95,1.95,0,1,0-.165-3.893,1.754,1.754,0,0,0-1.774,2.022,1.8,1.8,0,0,0,1.94,1.871Zm88.337,100.979c-1.541.124-2.228.894-2.146,2.242a1.816,1.816,0,0,0,2.05,1.829,2.032,2.032,0,0,0,.1-4.058Zm17.332.275a1.758,1.758,0,0,0-1.788,1.692,1.728,1.728,0,1,0,3.453.151c.069-1.059-.647-1.623-1.664-1.843Zm-1.967,37.318a1.784,1.784,0,0,0,2.1,1.733,1.732,1.732,0,0,0,1.651-2.16,1.681,1.681,0,0,0-1.926-1.582,1.77,1.77,0,0,0-1.829,2.008Zm1.761,68.117a1.953,1.953,0,1,0,.44,3.879,1.755,1.755,0,0,0,1.651-2.132,1.815,1.815,0,0,0-2.077-1.747Zm.22-87.5a1.794,1.794,0,0,0-1.9,1.885,1.654,1.654,0,0,0,1.706,1.761,1.694,1.694,0,0,0,1.912-1.843A1.78,1.78,0,0,0,165.457,457.986ZM9,318.823c-.124-1.334-.8-2.022-2.008-2.022a2.017,2.017,0,1,0,.234,4.017A1.86,1.86,0,0,0,9,318.822Zm17.882.151c-.1-1.362-.729-2.063-1.967-2.036a1.723,1.723,0,0,0-1.816,2.008,1.7,1.7,0,0,0,1.774,1.747,1.791,1.791,0,0,0,2.008-1.719Zm15.5-2.008c-1.142.138-1.884.757-1.816,1.953a1.669,1.669,0,0,0,1.774,1.692,1.693,1.693,0,0,0,1.843-1.926,1.783,1.783,0,0,0-1.788-1.733ZM167.342,530.12c-.124-1.376-.784-2.036-1.981-2.008a1.787,1.787,0,0,0-1.912,2.187,1.762,1.762,0,0,0,2.1,1.692,1.794,1.794,0,0,0,1.8-1.871Zm0-18.116a1.951,1.951,0,1,0-3.893.22,1.74,1.74,0,0,0,2.05,1.733,1.8,1.8,0,0,0,1.829-1.967Zm-1.816,50.909c-1.389.124-2.077.77-2.022,2.008a1.714,1.714,0,0,0,2.036,1.774,1.691,1.691,0,0,0,1.706-1.816,1.794,1.794,0,0,0-1.733-1.981ZM130.106,390.86a1.782,1.782,0,0,0,1.651-2.1,1.813,1.813,0,0,0-3.59.509,1.782,1.782,0,0,0,1.94,1.582Zm17.813,14.4c-1.018.22-1.733.784-1.664,1.843a1.728,1.728,0,1,0,3.453-.151A1.767,1.767,0,0,0,147.919,405.262ZM132,407.064c-.124-1.348-.8-2.036-2.008-2.036a2.023,2.023,0,1,0,1.995,2.05Zm-17.538-35.572a1.784,1.784,0,0,0-2.1-1.733,1.732,1.732,0,0,0-1.651,2.16,1.681,1.681,0,0,0,1.926,1.582,1.77,1.77,0,0,0,1.829-2.008ZM77.285,352.179c-1.541.124-2.228.894-2.146,2.242a1.816,1.816,0,0,0,2.05,1.829,2.032,2.032,0,0,0,.1-4.058Zm19.794,2.146c-.041-1.21-.633-1.967-1.884-1.967a1.72,1.72,0,0,0-1.9,1.926A1.676,1.676,0,0,0,95,356.1,1.8,1.8,0,0,0,97.079,354.325Zm50.758,72c1.21-.027,1.981-.591,2.008-1.843a1.72,1.72,0,0,0-1.885-1.94A1.693,1.693,0,0,0,146.1,424.2a1.78,1.78,0,0,0,1.733,2.1Zm17.786,66.356c-1.307,0-2.091.536-2.173,1.761a1.779,1.779,0,0,0,1.967,2.132,1.737,1.737,0,0,0,1.912-1.885,1.8,1.8,0,0,0-1.692-2.008Zm15.53,37.374c.138.922.66,1.568,1.568,1.568a1.6,1.6,0,1,0-.041-3.191,1.625,1.625,0,0,0-1.527,1.609ZM61.411,318.878c-.22-1.032-.743-1.678-1.664-1.637a1.6,1.6,0,1,0,.179,3.191,1.722,1.722,0,0,0,1.486-1.541Zm70.18,52.628c-.22-.908-.757-1.554-1.678-1.472a1.6,1.6,0,1,0,.275,3.178,1.633,1.633,0,0,0,1.417-1.706Zm-17.359-17.222c-.234-1.032-.743-1.692-1.678-1.637a1.593,1.593,0,1,0,.193,3.177A1.722,1.722,0,0,0,114.232,354.284ZM184.4,511.962c-.193-.922-.715-1.568-1.637-1.527a1.511,1.511,0,0,0-1.554,1.829,1.494,1.494,0,0,0,1.733,1.348,1.629,1.629,0,0,0,1.458-1.664ZM8.6,301.518c-.151-1.018-.674-1.664-1.582-1.678a1.6,1.6,0,1,0,.041,3.191A1.689,1.689,0,0,0,8.6,301.518ZM149.35,388.879a1.245,1.245,0,0,0-1.431-1.21,1.228,1.228,0,0,0-1.293,1.348,1.267,1.267,0,0,0,1.582,1.362c.839-.083,1.169-.674,1.155-1.486ZM96.543,336.842a1.366,1.366,0,1,0-2.724.151,1.216,1.216,0,0,0,1.444,1.2,1.25,1.25,0,0,0,1.279-1.362Zm70.221,87.7c-.1-1-.536-1.472-1.376-1.472a1.267,1.267,0,0,0-1.362,1.582,1.223,1.223,0,0,0,1.486,1.142,1.24,1.24,0,0,0,1.238-1.252ZM184.041,564.88a1.164,1.164,0,0,0-1.265-1.307,1.151,1.151,0,0,0-1.266,1.321,1.123,1.123,0,0,0,1.1,1.183,1.209,1.209,0,0,0,1.431-1.211Zm-1.307-18.831c-.935.138-1.376.605-1.321,1.444a1.228,1.228,0,0,0,1.348,1.293c1.018,0,1.444-.633,1.362-1.582a1.258,1.258,0,0,0-1.389-1.169ZM78.454,318.919c-.124-1.045-.646-1.431-1.458-1.348a1.173,1.173,0,0,0-1.073,1.5,1.14,1.14,0,0,0,1.265,1.018,1.218,1.218,0,0,0,1.265-1.169Zm105.7,158.38c-.11-.977-.55-1.431-1.389-1.417a1.268,1.268,0,0,0-1.334,1.6,1.382,1.382,0,0,0,2.737-.179ZM42.278,302.715c1.045-.124,1.431-.647,1.348-1.458a1.173,1.173,0,0,0-1.5-1.073,1.14,1.14,0,0,0-1.018,1.266,1.218,1.218,0,0,0,1.169,1.266Zm-15.929-1.307a1.361,1.361,0,1,0-2.71.206,1.207,1.207,0,0,0,1.458,1.169,1.251,1.251,0,0,0,1.266-1.376Zm157.789,193.14a1.235,1.235,0,0,0-1.376-1.266,1.268,1.268,0,0,0-1.334,1.6,1.228,1.228,0,0,0,1.513,1.114,1.259,1.259,0,0,0,1.21-1.444Zm-.1-34.7c-.069-.867-.523-1.321-1.376-1.252a1.163,1.163,0,0,0-1.155,1.431,1.144,1.144,0,0,0,1.21,1.087,1.164,1.164,0,0,0,1.321-1.252Zm-71.473,84.513c-1.843.275-3.081,1.279-3,3.219a2.806,2.806,0,0,0,2.985,2.889,2.845,2.845,0,0,0,3.04-3.136c-.055-1.774-1.252-2.71-3.012-2.957Zm.124,23.508c1.719-.344,2.916-1.307,2.847-3.081a2.8,2.8,0,0,0-3.233-2.9,2.768,2.768,0,0,0-2.682,3.15,3.014,3.014,0,0,0,3.081,2.834Zm19.959-3.012c-.138-1.692-1.032-2.7-2.737-2.655a2.443,2.443,0,0,0-2.586,2.779,2.393,2.393,0,0,0,2.545,2.5A2.537,2.537,0,0,0,132.651,564.852Zm-2.627-37.58c-1.774.179-2.792,1.114-2.779,2.806a2.724,2.724,0,0,0,5.447-.055,2.628,2.628,0,0,0-2.669-2.737Zm2.7,20.193c-.138-1.678-1.032-2.737-2.724-2.751a2.724,2.724,0,1,0-.055,5.447c1.692.027,2.614-1,2.792-2.7Zm-20.042-55.943c-1.995.316-3.219,1.334-3.122,3.274a2.807,2.807,0,0,0,3.026,2.847,2.84,2.84,0,0,0,3-3.177C115.511,492.677,114.246,491.825,112.678,491.522Zm-.234-11.238c1.829-.248,3.054-1.183,3.095-2.944a2.965,2.965,0,1,0-5.929-.055c.014,1.788,1.252,2.682,2.847,3Zm3.095-20.454c-.3-1.761-1.265-2.957-3.067-2.889a2.9,2.9,0,0,0,.041,5.8c1.8.014,2.751-1.169,3.026-2.916ZM24.987,374.67c1.816-.344,3.012-1.307,2.957-3.081a2.792,2.792,0,0,0-3.219-2.916,2.8,2.8,0,0,0-2.71,3.136A3.062,3.062,0,0,0,24.987,374.67Zm17.3-.151c1.664-.165,2.806-1.045,2.9-2.669a2.831,2.831,0,1,0-5.653-.124c.028,1.651,1.142,2.545,2.751,2.806ZM98.152,424.56c-.234-1.8-1.169-3.026-2.971-3.026A2.9,2.9,0,0,0,95,427.325c1.816.1,2.779-1.1,3.15-2.779ZM59.8,391.988c1.761-.316,2.957-1.307,2.861-3.109a2.764,2.764,0,0,0-3.109-2.779,2.733,2.733,0,0,0-2.7,2.875c0,1.8,1.2,2.751,2.944,3Zm17.414,11.995c-1.829.3-3.012,1.252-3.026,3.026a2.965,2.965,0,1,0,5.929-.1c-.041-1.774-1.307-2.655-2.9-2.93Zm21.046,37.9c-.234-1.843-1.21-3.095-3.15-3.067a3.013,3.013,0,1,0,.138,6.025C97.024,444.836,97.973,443.639,98.262,441.879ZM80.284,424.285c-.358-1.857-1.389-3.067-3.343-2.916a2.866,2.866,0,0,0-2.847,3.343A2.837,2.837,0,0,0,77.2,427.49C79.142,427.435,80.105,426.184,80.284,424.285ZM42.209,385.894c-1.843.371-3.054,1.417-2.889,3.356a2.85,2.85,0,0,0,3.356,2.82,2.846,2.846,0,0,0,2.765-3.122c-.069-1.94-1.321-2.889-3.219-3.054Zm20.729,21.514c-.165-2.16-1.1-3.4-3.054-3.466a3.1,3.1,0,0,0-.234,6.19c1.981.1,2.916-1.169,3.288-2.724Zm-56-32.655c1.884-.248,3.122-1.238,3.081-3.177a2.85,2.85,0,0,0-3.178-3.012,2.824,2.824,0,0,0-2.93,2.957c-.055,1.953,1.155,2.957,3.04,3.233Zm105.545,152.2c-1.719.289-2.916,1.238-2.916,3.012a3.017,3.017,0,1,0,6.025-.165c-.124-1.747-1.334-2.682-3.095-2.847Zm-14.154-67.25c-.289-1.871-1.321-3.04-3.274-2.957a3.09,3.09,0,1,0,.234,6.176c1.953-.069,2.889-1.307,3.04-3.233Zm.069,34.76c-.193-1.884-1.21-3.026-3.191-3.012A2.893,2.893,0,0,0,92,494.768c.069,2.146,1.376,3.191,3.453,3.054,1.981-.124,2.889-1.376,2.944-3.343Zm-.028,70.345c-.165-1.926-1.155-3.109-3.136-3.122a3.144,3.144,0,1,0,.041,6.286c1.981-.041,2.944-1.238,3.095-3.164ZM10.241,389.883c-.11-2.215-1.114-3.466-3.246-3.48a2.941,2.941,0,0,0-3.26,3.288,2.907,2.907,0,0,0,3.054,3.178,3.032,3.032,0,0,0,3.453-2.985ZM25.4,385.825c-2.215.083-3.466,1-3.563,2.985a2.884,2.884,0,0,0,3.15,3.356,2.853,2.853,0,0,0,3.122-3.081,3.014,3.014,0,0,0-2.724-3.26Zm20.193,21.046c-.193-1.885-1.21-3.026-3.191-3.012a2.893,2.893,0,0,0-3.205,3.315c.069,2.146,1.376,3.191,3.453,3.054,1.981-.124,2.889-1.376,2.944-3.343ZM63.035,424.3c-.22-2.091-1.376-3.205-3.48-3.095-2.132.11-3.15,1.444-3.026,3.508a2.918,2.918,0,0,0,3.274,2.957c2.132-.041,3.136-1.293,3.219-3.37ZM95.47,474.025c-2.16.138-3.384,1.087-3.425,3.068a3.144,3.144,0,1,0,6.286.124A3.012,3.012,0,0,0,95.47,474.025Zm2.971,55.888c-.22-2.091-1.389-3.2-3.48-3.095-2.132.11-3.15,1.444-3.012,3.508a2.9,2.9,0,0,0,3.274,2.944c2.132-.041,3.136-1.293,3.219-3.37ZM77.285,438.591c-2.077.1-3.315,1.1-3.315,3.246A2.864,2.864,0,0,0,77.024,445a2.9,2.9,0,0,0,3.315-3.2C80.339,439.815,79.225,438.8,77.285,438.591ZM95.4,550.67c2.132-.33,3.164-1.554,2.944-3.645a2.888,2.888,0,0,0-3.425-2.779c-2.146.165-3.109,1.513-2.916,3.59.193,1.995,1.527,2.779,3.384,2.834ZM98.441,512c-.165-2.091-1.266-3.274-3.37-3.205-2.132.055-3.205,1.32-3.122,3.411a2.9,2.9,0,0,0,3.177,3.054c2.118.014,3.191-1.169,3.329-3.26ZM80.476,459.939c-.1-2.063-1.1-3.329-3.219-3.384a3.282,3.282,0,1,0-.206,6.561c2.091.055,3.233-1.087,3.425-3.178ZM24.946,403.556c-2.1.275-3.466,1.472-3.4,3.631a3.185,3.185,0,0,0,3.411,3.274,3.231,3.231,0,0,0,3.425-3.563c-.069-1.995-1.4-3.095-3.439-3.329Zm55.778,73.757c-.289-2.16-1.444-3.59-3.59-3.563a3.481,3.481,0,0,0-.083,6.96c2.173.069,3.329-1.348,3.673-3.411ZM59.761,438.343c-2.146.3-3.508,1.5-3.425,3.659a3.189,3.189,0,0,0,3.425,3.246,3.225,3.225,0,0,0,3.4-3.59c-.069-1.995-1.444-3.081-3.411-3.315ZM45.937,424.437c-.385-2.228-1.609-3.618-3.755-3.48a3.483,3.483,0,0,0,.234,6.96C44.589,427.876,45.661,426.4,45.937,424.437Zm31.8,136.908c-2.132.3-3.48,1.527-3.37,3.673a3.424,3.424,0,0,0,6.836-.4c-.1-1.995-1.458-3.081-3.466-3.288Zm3.59-13.962c-.358-2.146-1.568-3.535-3.728-3.425a3.482,3.482,0,0,0,.193,6.96C79.94,550.877,81.082,549.46,81.329,547.383Zm-.536-52.7a3.7,3.7,0,0,0-3.48-3.645,3.638,3.638,0,0,0-3.728,3.659,3.433,3.433,0,0,0,3.59,3.48c2.132,0,3.288-1.4,3.631-3.494ZM3.322,407.036c.289,2.091,1.417,3.411,3.549,3.59A3.638,3.638,0,0,0,10.53,406.9a3.449,3.449,0,0,0-3.659-3.411c-2.132.041-3.274,1.458-3.563,3.563Zm78.062,104.8a3.595,3.595,0,0,0-7.18.358,3.543,3.543,0,0,0,3.686,3.411,3.749,3.749,0,0,0,3.508-3.769ZM63.447,459.8c-.344-2.187-1.554-3.659-3.838-3.563a3.6,3.6,0,0,0,.316,7.194C62.044,463.365,63.172,461.92,63.447,459.8Zm10.7,70.235c.289,2.091,1.417,3.411,3.549,3.59a3.638,3.638,0,0,0,3.659-3.728,3.449,3.449,0,0,0-3.659-3.411c-2.132.041-3.274,1.458-3.563,3.563ZM59.664,480.958c2.228-.248,3.728-1.4,3.741-3.7a3.414,3.414,0,0,0-3.686-3.673,3.377,3.377,0,0,0-3.59,3.466c-.11,2.3,1.321,3.521,3.535,3.906Zm-13.549-39.12c-.413-2.352-1.651-3.8-3.948-3.645a3.641,3.641,0,0,0,.248,7.277C44.726,445.427,45.813,443.9,46.115,441.837ZM24.96,420.723c-2.311.454-3.755,1.692-3.576,3.989a3.356,3.356,0,0,0,3.728,3.315,3.4,3.4,0,0,0,3.466-3.879C28.44,422.016,26.927,420.984,24.96,420.723Zm34.87,147.83c2.228-.358,3.686-1.568,3.576-3.865a3.647,3.647,0,0,0-7.29.138c.014,2.3,1.486,3.453,3.714,3.728ZM7.091,420.64c-2.366.33-3.838,1.5-3.81,3.8A3.41,3.41,0,0,0,6.967,428.1a3.421,3.421,0,0,0,3.673-3.686c0-2.311-1.513-3.411-3.549-3.769ZM63.53,547.548c-.234-2.242-1.362-3.728-3.659-3.8a3.681,3.681,0,1,0-.206,7.359C61.962,551.193,63.158,549.749,63.53,547.548Zm.028-17.4c-.206-2.27-1.321-3.673-3.631-3.838a3.614,3.614,0,0,0-3.879,3.81,3.466,3.466,0,0,0,3.728,3.645c2.325.014,3.48-1.4,3.8-3.6ZM24.808,438.041c-2.187.33-3.535,1.513-3.563,3.838a3.62,3.62,0,0,0,4,3.673,3.474,3.474,0,0,0,3.439-3.92c-.11-2.311-1.582-3.411-3.879-3.59ZM63.5,494.2a3.53,3.53,0,0,0-3.7-3.3,3.61,3.61,0,0,0-3.769,3.906,3.531,3.531,0,0,0,3.838,3.549C61.934,498.372,63.53,496.666,63.5,494.2Zm-3.315,21.569a3.53,3.53,0,0,0,3.3-3.7,3.61,3.61,0,0,0-3.907-3.769,3.531,3.531,0,0,0-3.549,3.838c-.014,2.063,1.692,3.659,4.154,3.631ZM41.934,456.1a3.519,3.519,0,0,0-3.288,3.7,3.611,3.611,0,0,0,3.92,3.755,3.524,3.524,0,0,0,3.535-3.852c0-2.049-1.706-3.645-4.168-3.618Zm.619,112.547c2.173-.3,3.521-1.472,3.59-3.783a3.768,3.768,0,1,0-7.524.261c.22,2.3,1.637,3.4,3.934,3.535Zm.179-95.229c-2.655.028-4.333,1.774-4.154,4.017a3.529,3.529,0,0,0,3.852,3.59,3.645,3.645,0,0,0,3.741-4,3.51,3.51,0,0,0-3.425-3.6ZM6.94,445.675a3.746,3.746,0,0,0,3.865-3.907A3.691,3.691,0,0,0,6.816,438a3.564,3.564,0,0,0-3.7,3.741,3.686,3.686,0,0,0,3.81,3.934ZM46.212,547.562a3.673,3.673,0,0,0-3.8-3.948c-2.462.055-3.865,1.4-3.865,3.865a3.506,3.506,0,0,0,3.618,3.8A3.715,3.715,0,0,0,46.212,547.562Zm-21.321-91.57a3.756,3.756,0,0,0-3.755,4.017,3.714,3.714,0,0,0,4.085,3.659,3.574,3.574,0,0,0,3.59-3.851,3.7,3.7,0,0,0-3.92-3.838Zm21.39,38.474c-.275-2.407-1.609-3.783-4.072-3.7a3.528,3.528,0,0,0-3.714,4.017c.083,2.462,1.568,3.783,4.017,3.714,2.49-.083,3.645-1.6,3.769-4.03Zm-3.893,39.506c2.559-.3,3.934-1.623,3.838-4.085a3.528,3.528,0,0,0-4.017-3.714c-2.462.083-3.783,1.568-3.714,4.017.069,2.5,1.623,3.618,3.879,3.783ZM24.946,560.877c-2.421.206-3.81,1.458-3.893,3.92a3.757,3.757,0,0,0,4.113,3.975c2.448-.179,3.783-1.6,3.728-4.03-.055-2.462-1.527-3.686-3.934-3.851Zm17.593-52.766c-2.435.11-3.948,1.279-4.03,3.769-.069,2.448,1.238,3.92,3.714,4.017a3.522,3.522,0,0,0,4.017-3.714C46.335,509.72,44.96,508.4,42.539,508.111ZM25.056,551.606a4.175,4.175,0,0,0-.151-8.35,4.175,4.175,0,0,0,.151,8.35Zm-.179-78.489a4.253,4.253,0,0,0-4.017,4.292,4.159,4.159,0,0,0,4.36,3.907,4,4,0,0,0,3.838-4.1A4.163,4.163,0,0,0,24.877,473.117ZM6.844,463.956a4.251,4.251,0,0,0,4.223-4.085,4.162,4.162,0,0,0-4.154-4.127,4,4,0,0,0-4.044,3.907,4.17,4.17,0,0,0,3.975,4.305Zm22.3,30.592a4.347,4.347,0,0,0-4.25-4.1,4.175,4.175,0,0,0,.151,8.35A4.347,4.347,0,0,0,29.141,494.548Zm-22.188,74.5a4.217,4.217,0,1,0-.138-8.432,4.217,4.217,0,0,0,.138,8.432Zm22.229-39.024a4.387,4.387,0,0,0-4.154-4.2,4.217,4.217,0,1,0,.028,8.432,4.411,4.411,0,0,0,4.127-4.237Zm0-18.088a4.4,4.4,0,0,0-4.223-4.127,4.218,4.218,0,1,0,.165,8.432,4.4,4.4,0,0,0,4.044-4.306ZM6.83,472.98a4.252,4.252,0,1,0,.248,8.5,4.252,4.252,0,1,0-.248-8.5Zm4.415,74.541a4.45,4.45,0,0,0-4.278-4.374,4.368,4.368,0,0,0-4.278,4.347,4.193,4.193,0,0,0,4.1,4.2,4.388,4.388,0,0,0,4.457-4.182ZM6.94,498.95a4.32,4.32,0,1,0-.124-8.638,4.32,4.32,0,0,0,.11,8.638Zm-.124,35.434a4.349,4.349,0,1,0,.3-8.693,4.349,4.349,0,1,0-.3,8.693Zm4.5-22.3a4.429,4.429,0,0,0-4.278-4.416,4.347,4.347,0,0,0-.138,8.694A4.439,4.439,0,0,0,11.314,512.086Z" transform="translate(-19005.619 -8858.417)" fill="#ade8cc"/>
      <path id="Trazado_915160" data-name="Trazado 915160" d="M651.755,75.279a3.779,3.779,0,0,1,7.552.248c0,2.407-1.568,3.59-3.907,3.838-2.3-.413-3.783-1.678-3.645-4.085ZM807.783,266.947c-2.063.165-3.494,1.183-3.7,3.205a3.312,3.312,0,0,0,3.3,3.865,3.265,3.265,0,0,0,3.659-3.136c.234-2.256-1.169-3.48-3.26-3.948ZM630.626,96.971c.165,2.063,1.279,3.37,3.37,3.4a3.37,3.37,0,0,0,.083-6.74C631.988,93.6,630.847,94.867,630.626,96.971ZM695.992,227.5c.165,2.091,1.266,3.329,3.384,3.288a3.275,3.275,0,0,0,.041-6.548c-2.118-.055-3.232,1.155-3.425,3.246ZM630.626,75.471c.165,2.063,1.279,3.37,3.37,3.4a3.37,3.37,0,0,0,.083-6.74c-2.091-.028-3.232,1.252-3.453,3.343Zm93.482,173.676c-.1-2.05-1.128-3.356-3.246-3.4a3,3,0,0,0-3.329,3.3,2.963,2.963,0,0,0,3.012,3.233c2.091.124,3.3-1,3.563-3.136Zm36.369,21.2c.124,2.132,1.169,3.411,3.3,3.439a2.964,2.964,0,0,0,3.274-2.971A3.007,3.007,0,0,0,764,267.25c-2.1-.138-3.26,1.073-3.535,3.095Zm25.461,3.59c2.008-.1,3.37-1.128,3.494-3.219a3.368,3.368,0,0,0-6.726-.371c-.11,2.077,1.087,3.3,3.246,3.6ZM655.593,158.829c-2.187.22-3.453,1.376-3.425,3.466a3.37,3.37,0,1,0,6.74-.083c-.014-2.1-1.348-3.178-3.3-3.384ZM633.9,121.8c2.05-.1,3.37-1.114,3.4-3.246a3.272,3.272,0,0,0-6.534-.33c-.124,2.091,1,3.3,3.122,3.576Zm39.822,83.317c.1,2.05,1.128,3.37,3.246,3.4a3.017,3.017,0,0,0,3.343-3.3,2.963,2.963,0,0,0-3.012-3.233c-2.091-.124-3.3,1-3.563,3.136Zm68.6,84.1a2.762,2.762,0,0,0-2.765,2.586,2.75,2.75,0,1,0,5.488.055A2.751,2.751,0,0,0,742.321,289.217Zm21.541,5.8c1.706-.289,2.861-1.224,2.875-2.985a2.939,2.939,0,1,0-5.874.138c.069,1.733,1.279,2.655,3,2.847Zm22.133-6.107c-1.981.426-3.15,1.5-2.916,3.466a2.774,2.774,0,0,0,3.177,2.641,2.828,2.828,0,0,0,2.82-3.37,3.04,3.04,0,0,0-3.067-2.737Zm18.446,3.026c.165,1.9,1.114,3.109,3.054,3.15a3.075,3.075,0,0,0,.138-6.149c-1.953-.055-2.944,1.114-3.205,2.985Zm5.929,22.421a2.769,2.769,0,0,0-2.545-2.82,2.618,2.618,0,0,0-3.012,2.669,2.587,2.587,0,0,0,2.49,2.82C809.062,317.182,810.052,316.081,810.369,314.362ZM611.479,34.755c1.912-.151,3.122-1.073,3.232-2.792a2.941,2.941,0,1,0-5.873-.275c-.055,1.788,1.169,2.655,2.655,3.067ZM608.7,75.664c.358,1.843,1.417,3.026,3.384,2.834a2.784,2.784,0,0,0,2.7-3.122,2.822,2.822,0,0,0-3.329-2.875c-1.747.165-2.641,1.362-2.765,3.178ZM611.754,7.3c-1.733.3-2.93,1.265-2.834,3.054a2.856,2.856,0,0,0,5.708-.041c.014-1.788-1.155-2.724-2.875-3Zm.151,42.848c-1.9.179-3.15,1.142-3.15,3.122a2.78,2.78,0,0,0,2.861,2.971,2.819,2.819,0,0,0,3.164-3.054C614.78,51.4,613.638,50.464,611.905,50.148ZM717.795,270.468c.206,1.719,1.114,2.93,2.861,2.985a2.769,2.769,0,0,0,3.081-3.067,2.738,2.738,0,0,0-2.971-2.806c-1.761.027-2.7,1.183-2.971,2.889Zm24.375-3.081c-1.857.275-3.026,1.293-2.944,3.246a3.076,3.076,0,0,0,6.149-.22c-.069-1.94-1.293-2.875-3.205-3.012Zm-86.811-65.2c-1.843.358-3.026,1.417-2.834,3.384a2.784,2.784,0,0,0,3.122,2.7,2.822,2.822,0,0,0,2.875-3.329c-.165-1.747-1.362-2.641-3.178-2.765Zm-21.376-59.025c1.912-.138,3.122-1.087,3.177-3.04a2.871,2.871,0,0,0-3.26-3.26,2.832,2.832,0,0,0-2.985,3.164c.014,1.953,1.169,2.944,3.081,3.136ZM614.7,140.136c-.165-1.733-1.073-2.916-2.847-3.012a2.862,2.862,0,0,0-.358,5.709c1.774.206,2.792-.977,3.191-2.7Zm-3.013-46.149c-1.706.3-2.889,1.252-2.847,3.012a2.94,2.94,0,1,0,5.874-.193,2.974,2.974,0,0,0-3.04-2.82Zm65.366,136.619c1.871-.261,3.095-1.279,2.985-3.26a2.781,2.781,0,0,0-3-2.834,2.826,2.826,0,0,0-3.026,3.191c.069,1.761,1.252,2.682,3.026,2.9Zm-21.582-5.887c-1.719.289-2.82,1.293-2.682,3.054a2.571,2.571,0,0,0,2.806,2.5,2.611,2.611,0,0,0,2.682-3,2.768,2.768,0,0,0-2.806-2.559ZM631.08,183.685c.371,1.871,1.348,3.054,3.136,2.916a2.857,2.857,0,0,0-.165-5.709c-1.8.014-2.655,1.266-2.971,2.792Zm24.512-3.122c-2.077.261-3.233,1.279-3.191,3.219a2.89,2.89,0,0,0,3.439,3.095,2.856,2.856,0,0,0,2.82-3.329A3.007,3.007,0,0,0,655.593,180.563ZM699.2,252.1c1.9-.193,3.136-1.169,3.109-3.15a2.773,2.773,0,0,0-2.889-2.944,2.819,2.819,0,0,0-3.136,3.081c0,1.774,1.169,2.724,2.916,3.012Zm-24.98-3.122c.261,1.761,1.224,2.875,2.985,2.792a2.566,2.566,0,0,0,2.572-2.737,2.619,2.619,0,0,0-2.93-2.765c-1.568.069-2.407,1.183-2.641,2.71Zm-43.261-86.645c.3,1.857,1.334,3.067,3.3,2.93a2.769,2.769,0,0,0,2.779-3.054,2.822,2.822,0,0,0-3.246-2.971c-1.747.11-2.682,1.293-2.847,3.095Zm-22.188-43.66c.358,1.678,1.321,2.861,3.081,2.751a2.944,2.944,0,1,0-.358-5.874,2.973,2.973,0,0,0-2.737,3.122ZM697.01,292c.179,1.417.935,2.325,2.421,2.256a2.048,2.048,0,0,0,2.091-2.187,2.1,2.1,0,0,0-2.366-2.283A2.218,2.218,0,0,0,697.01,292Zm23.783-2.393a2.228,2.228,0,0,0-2.393,2.352,2.2,2.2,0,0,0,2.6,2.462,2.158,2.158,0,0,0,2.187-2.5,2.235,2.235,0,0,0-2.407-2.311ZM611.616,164.785c1.9-.151,2.751-1.1,2.641-2.765a2.236,2.236,0,0,0-2.531-2.256,2.514,2.514,0,0,0-.124,5.021Zm-21.431-.344a2.181,2.181,0,0,0,2.215-2.091,2.134,2.134,0,1,0-4.264-.193c-.083,1.307.8,2.008,2.049,2.283ZM805.375,335.7a2.181,2.181,0,0,0,2.091,2.215,2.134,2.134,0,0,0,.193-4.264c-1.307-.083-2.008.8-2.283,2.05ZM592.62,118.32a2.206,2.206,0,0,0-2.614-2.132,2.14,2.14,0,0,0-2.036,2.669,2.08,2.08,0,0,0,2.38,1.953A2.208,2.208,0,0,0,592.62,118.32ZM590.447,34.15a2.212,2.212,0,0,0,2.215-2.49,2.205,2.205,0,0,0-2.751-2.3A2.168,2.168,0,0,0,587.875,32a2.25,2.25,0,0,0,2.572,2.16Zm-.289,108.118c1.43-.11,2.352-.839,2.338-2.338a2.059,2.059,0,0,0-2.1-2.187,2.1,2.1,0,0,0-2.366,2.283,2.2,2.2,0,0,0,2.132,2.228Zm193.374,172c.165,1.651.99,2.5,2.476,2.5a2.5,2.5,0,1,0-2.476-2.5Zm-22.091-.179c.124,1.678.894,2.559,2.435,2.5a2.32,2.32,0,0,0,.041-4.636,2.195,2.195,0,0,0-2.476,2.118Zm-19.161,2.476c1.417-.179,2.325-.935,2.256-2.421a2.048,2.048,0,0,0-2.187-2.091,2.1,2.1,0,0,0-2.283,2.366A2.218,2.218,0,0,0,742.279,316.563ZM587.833,53.133c.151,1.692.963,2.517,2.448,2.49a2.211,2.211,0,0,0,2.366-2.7,2.174,2.174,0,0,0-2.6-2.091,2.216,2.216,0,0,0-2.228,2.311Zm.014,22.394a2.406,2.406,0,1,0,4.8-.275,2.161,2.161,0,0,0-2.545-2.146,2.228,2.228,0,0,0-2.27,2.421ZM590.089,12.6c1.706-.151,2.572-.949,2.49-2.476a2.32,2.32,0,0,0-4.636.041,2.2,2.2,0,0,0,2.132,2.435Zm43.77,212.645a2.2,2.2,0,0,0-2.036,2.6,2.049,2.049,0,0,0,2.352,1.912,2.1,2.1,0,0,0,2.077-2.559,2.21,2.21,0,0,0-2.393-1.953Zm-22.009-17.8c1.252-.275,2.132-.977,2.063-2.283a2,2,0,0,0-2.228-2.036,2.027,2.027,0,0,0-2.049,2.228,2.193,2.193,0,0,0,2.215,2.1Zm19.657-2.215c.165,1.664.977,2.517,2.476,2.517a2.491,2.491,0,1,0-2.462-2.517Zm21.679,43.962a2.206,2.206,0,0,0,2.614,2.132,2.14,2.14,0,0,0,2.036-2.669,2.1,2.1,0,0,0-2.38-1.967,2.208,2.208,0,0,0-2.27,2.49Zm45.957,23.866c1.9-.151,2.751-1.1,2.641-2.765a2.236,2.236,0,0,0-2.531-2.256,2.513,2.513,0,0,0-.11,5.021ZM674.685,270.4c.055,1.5.784,2.421,2.325,2.435a2.117,2.117,0,0,0,2.338-2.38,2.081,2.081,0,0,0-2.1-2.242A2.2,2.2,0,0,0,674.685,270.4Zm-62.738-88.984c-1.5.028-2.449.729-2.49,2.27a2.121,2.121,0,0,0,2.338,2.393,2.091,2.091,0,0,0,2.3-2.05,2.208,2.208,0,0,0-2.132-2.614Zm-21.981-82.01c1.623,0,2.586-.674,2.7-2.173a2.2,2.2,0,0,0-2.421-2.641,2.162,2.162,0,0,0-2.366,2.338,2.219,2.219,0,0,0,2.091,2.476ZM570.777,53.215a1.982,1.982,0,0,0-1.939-1.94,1.868,1.868,0,0,0-2.022,2.173,1.847,1.847,0,0,0,2.077,1.761,2,2,0,0,0,1.884-1.995Zm147.981,261c.275,1.279.908,2.077,2.063,2.022a1.972,1.972,0,1,0-.22-3.934,2.1,2.1,0,0,0-1.829,1.912ZM632.03,249.161c.275,1.114.922,1.912,2.077,1.816a1.975,1.975,0,1,0-.33-3.934,2.022,2.022,0,0,0-1.747,2.1Zm21.458,21.293c.275,1.279.922,2.077,2.063,2.022a1.885,1.885,0,0,0,1.926-2.27,1.862,1.862,0,0,0-2.16-1.664A2.117,2.117,0,0,0,653.488,270.455ZM566.76,75.581c.234,1.128.88,1.94,2.022,1.884a1.972,1.972,0,1,0-.22-3.934A2.005,2.005,0,0,0,566.76,75.581ZM784.041,335.669c.193,1.265.825,2.063,1.953,2.063a1.969,1.969,0,1,0-.055-3.934,2.1,2.1,0,0,0-1.912,1.871ZM610.076,227.689a1.55,1.55,0,0,0,1.774,1.5,1.507,1.507,0,0,0,1.6-1.664,1.558,1.558,0,0,0-1.953-1.678c-1.045.11-1.444.839-1.417,1.843Zm65.27,64.32a1.683,1.683,0,1,0,3.356-.193,1.5,1.5,0,0,0-1.774-1.472,1.542,1.542,0,0,0-1.582,1.678ZM588.562,183.617c.124,1.238.66,1.829,1.706,1.816a1.558,1.558,0,0,0,1.678-1.953,1.513,1.513,0,0,0-1.843-1.4,1.551,1.551,0,0,0-1.541,1.541ZM567.2,10.174a1.439,1.439,0,0,0,1.568,1.609,1.409,1.409,0,0,0,1.554-1.637,1.4,1.4,0,0,0-1.362-1.472,1.479,1.479,0,0,0-1.761,1.486Zm1.609,23.26c1.156-.165,1.692-.757,1.637-1.788a1.507,1.507,0,0,0-1.664-1.6c-1.265,0-1.788.784-1.678,1.953a1.542,1.542,0,0,0,1.706,1.444Zm128.9,280.735c.165,1.293.8,1.774,1.816,1.664a1.45,1.45,0,0,0,1.334-1.857,1.407,1.407,0,0,0-1.568-1.252,1.5,1.5,0,0,0-1.568,1.444ZM567.063,118.416c.124,1.2.688,1.774,1.719,1.747a1.559,1.559,0,0,0,1.651-1.967,1.533,1.533,0,0,0-1.871-1.389,1.549,1.549,0,0,0-1.513,1.609ZM742.417,334.184c-1.293.165-1.774.812-1.664,1.816a1.45,1.45,0,0,0,1.857,1.334,1.407,1.407,0,0,0,1.252-1.568,1.5,1.5,0,0,0-1.444-1.568Zm19.684,1.623a1.685,1.685,0,1,0,3.356-.248,1.511,1.511,0,0,0-1.8-1.458A1.537,1.537,0,0,0,762.1,335.807ZM567.076,97.095a1.692,1.692,0,1,0,3.356-.4,1.517,1.517,0,0,0-1.871-1.376,1.548,1.548,0,0,0-1.486,1.788Zm.124,42.889c.1,1.073.66,1.623,1.692,1.554a1.433,1.433,0,0,0,1.431-1.761,1.388,1.388,0,0,0-1.486-1.334A1.456,1.456,0,0,0,567.2,140ZM655.537,35.539c2.27-.344,3.81-1.568,3.714-3.975A3.455,3.455,0,0,0,655.565,28a3.511,3.511,0,0,0-3.755,3.879c.055,2.187,1.541,3.343,3.728,3.659Zm-.151-29.051c-2.118.413-3.6,1.609-3.508,3.81a3.67,3.67,0,1,0,7.332-.3c-.165-2.146-1.651-3.3-3.81-3.494Zm-24.663,3.728c.165,2.091,1.265,3.329,3.384,3.288a3,3,0,0,0,3.191-3.425,2.986,2.986,0,0,0-3.15-3.109c-2.118-.055-3.232,1.155-3.425,3.246Zm3.246,46.438c2.187-.234,3.453-1.376,3.439-3.466a3.37,3.37,0,1,0-6.74.083c.014,2.1,1.348,3.178,3.3,3.384Zm-3.343-24.966c.165,2.077,1.279,3.384,3.37,3.4a3.115,3.115,0,0,0,3.411-3.329,3.1,3.1,0,0,0-3.329-3.4C631.988,28.332,630.847,29.611,630.626,31.688ZM655.4,100.836c2.462-.4,3.975-1.651,3.851-4.044a3.464,3.464,0,0,0-3.728-3.521,3.519,3.519,0,0,0-3.714,3.92c.083,2.2,1.637,3.26,3.59,3.645Zm.289,13.893c-2.27.3-3.769,1.458-3.81,3.631a3.667,3.667,0,1,0,7.332.069c-.027-2.2-1.541-3.315-3.508-3.714Zm-3.824,25.282c.371,2.173,1.568,3.659,3.8,3.563a3.591,3.591,0,0,0-.055-7.18c-2.228-.014-3.411,1.444-3.741,3.6ZM763.793,245.255c-2.242.426-3.728,1.623-3.645,3.81a3.669,3.669,0,1,0,7.332-.275c-.151-2.173-1.678-3.26-3.673-3.535Zm-21.39.193c-2.05.206-3.466,1.307-3.59,3.3a3.5,3.5,0,1,0,6.988.151c-.028-2.036-1.417-3.15-3.4-3.466ZM673.351,183.6c.289,2.228,1.444,3.741,3.673,3.741a3.586,3.586,0,0,0,.22-7.167c-2.242-.124-3.425,1.362-3.893,3.425Zm47.4,40.248c-2.173.385-3.659,1.609-3.535,3.838a3.592,3.592,0,0,0,7.18-.138c-.014-2.228-1.486-3.4-3.645-3.7Zm-21.527-14.828c2.256-.371,3.714-1.541,3.741-3.728a3.667,3.667,0,1,0-7.332.11c.041,2.2,1.609,3.274,3.59,3.618Zm-26-46.837c.289,2.283,1.5,3.824,3.893,3.8a3.448,3.448,0,0,0,3.631-3.618,3.5,3.5,0,0,0-3.81-3.824c-2.2,0-3.37,1.486-3.728,3.659Zm22.2,21.747c.44,2.283,1.719,3.783,4.127,3.6a3.787,3.787,0,0,0-.316-7.565c-2.407.069-3.576,1.609-3.8,3.962ZM742.5,231.389c2.283-.454,3.783-1.747,3.576-4.14a3.788,3.788,0,0,0-7.565.371c.083,2.407,1.623,3.576,3.989,3.769ZM716.873,204.8c.206,2.669,1.362,4.2,3.783,4.278a3.834,3.834,0,0,0,.289-7.662c-2.449-.124-3.6,1.444-4.058,3.37Zm69.217,40.345c-2.325.3-3.865,1.527-3.81,3.934a3.784,3.784,0,0,0,7.565.055c.069-2.407-1.431-3.645-3.755-4ZM655.648,57.039c2.118-.358,3.59-1.527,3.6-3.728a3.726,3.726,0,1,0-7.442.206c.151,2.16,1.651,3.3,3.838,3.521ZM808.016,245.1c-2.669.206-4.2,1.362-4.278,3.783a3.834,3.834,0,0,0,7.662.289c.124-2.448-1.444-3.6-3.37-4.058ZM673.131,140.163c.358,2.311,1.623,3.755,4.044,3.645a3.827,3.827,0,0,0-.289-7.648c-2.421.083-3.576,1.609-3.755,3.989ZM673.048,97.2c.248,2.338,1.5,3.741,3.948,3.728,2.627,0,4.044-1.472,3.962-4.085-.083-2.655-1.692-3.934-4.278-3.783-2.448.151-3.563,1.692-3.645,4.14Zm.041-86.948c.206,2.38,1.417,3.852,3.879,3.852,2.627,0,4.044-1.486,3.948-4.1-.1-2.435-1.582-3.728-3.989-3.673-2.448.055-3.645,1.527-3.824,3.907ZM782.019,226.451c.124,2.737,1.389,4.292,4.017,4.292s4.044-1.444,4.03-4.058a3.6,3.6,0,0,0-3.769-3.934C783.669,222.627,782.321,224.071,782.019,226.451Zm-18.749,5.021c2.751-.11,4.292-1.238,4.4-3.686.124-2.6-1.265-4.127-3.893-4.14a3.535,3.535,0,0,0-3.865,3.81,3.714,3.714,0,0,0,3.356,4.017ZM738.318,205.46c.248,2.338,1.5,3.741,3.948,3.728,2.627,0,4.044-1.472,3.962-4.085-.083-2.655-1.692-3.934-4.278-3.783-2.448.151-3.563,1.692-3.645,4.14Zm-21.555-21.541c.261,2.586,1.706,3.962,4.292,3.824,2.641-.138,3.893-1.774,3.728-4.333-.151-2.421-1.651-3.686-4.044-3.645-2.641.041-3.879,1.6-3.975,4.168ZM676.68,122.446c2.669-.165,4.168-1.334,4.237-3.783.069-2.614-1.362-4.1-3.989-4.044-2.435.041-3.755,1.472-3.769,3.893,0,2.476,1.5,3.618,3.535,3.948Zm-3.686-69.052c.275,2.586,1.706,3.962,4.292,3.824,2.641-.138,3.893-1.774,3.728-4.333-.151-2.421-1.651-3.686-4.058-3.645-2.641.041-3.879,1.6-3.975,4.168Zm26.149,112.85c2.572-.124,4.1-1.362,4.1-4.017a3.543,3.543,0,0,0-3.769-3.907c-2.614-.069-4.085,1.334-4.1,3.962C695.373,164.73,696.763,165.982,699.142,166.243ZM676.762,27.726c-2.627.4-3.907,1.926-3.645,4.5.248,2.448,1.843,3.6,4.223,3.425,2.641-.206,3.838-1.871,3.6-4.429-.234-2.476-1.884-3.439-4.182-3.494Zm-3.769,47.8c.206,2.586,1.554,4.044,4.168,3.962s3.962-1.637,3.865-4.209a3.584,3.584,0,0,0-3.934-3.769c-2.627-.028-3.934,1.458-4.113,4.03Zm22.2,64.334c.11,2.545,1.362,4.113,3.975,4.182,2.572.069,4.113-1.321,4.2-3.92.069-2.572-1.321-4.113-3.92-4.2s-3.989,1.348-4.237,3.934ZM803.45,226.781c.193,2.572,1.527,4.058,4.127,4.03s4.044-1.486,4.03-4.085-1.486-4.044-4.085-4.03-3.92,1.513-4.085,4.085Zm-39.616-17.222c2.6-.344,4.292-1.816,4.2-4.484a3.936,3.936,0,0,0-4.209-4.044,3.991,3.991,0,0,0-4.237,4.4C759.666,207.895,761.331,209.257,763.834,209.559Zm-68.929-91.171c.358,2.669,1.788,4.429,4.443,4.4a4.307,4.307,0,0,0,.11-8.611c-2.682-.083-4.113,1.664-4.539,4.209Zm25.888,48.172c2.655-.371,4.333-1.843,4.223-4.512a3.937,3.937,0,0,0-4.237-4.017,4,4,0,0,0-4.209,4.429c.1,2.462,1.788,3.81,4.223,4.1Zm17.1,17.181c.481,2.765,1.995,4.471,4.649,4.305a4.3,4.3,0,0,0-.289-8.6c-2.682.055-4.017,1.871-4.36,4.292Zm-39.3-169.206c2.627-.385,4.292-1.884,4.168-4.539a4.23,4.23,0,1,0-8.446.481c.11,2.462,1.8,3.8,4.278,4.058ZM694.149,31.8c.44,2.655,1.939,4.374,4.594,4.223a4.063,4.063,0,0,0,4.085-4.594,4.048,4.048,0,0,0-4.319-4c-2.655.041-4.072,1.8-4.374,4.374Zm.66,65.118c.3,2.586,1.692,4.223,4.305,4.5a4.5,4.5,0,0,0,4.608-4.526c-.234-2.614-1.8-4.292-4.429-4.292s-4.072,1.733-4.484,4.319Zm95.738,108.338c-.358-2.586-1.761-4.209-4.388-4.429a4.5,4.5,0,0,0-4.526,4.608c.289,2.6,1.885,4.264,4.512,4.209s4.044-1.8,4.4-4.4ZM694.08,75.733a4.449,4.449,0,0,0,8.886-.44,4.386,4.386,0,0,0-4.553-4.223C696.171,71,694.067,73.284,694.08,75.733Zm22.174,64.307c.426,2.71,1.912,4.526,4.746,4.4a4.454,4.454,0,0,0-.4-8.9c-2.614.083-4.017,1.871-4.36,4.5ZM703.021,53.229c-.358-2.586-1.761-4.209-4.388-4.429a4.5,4.5,0,0,0-4.526,4.608c.289,2.6,1.884,4.264,4.512,4.209s4.044-1.8,4.4-4.4Zm99.961,152.052c.55,2.861,2.091,4.649,4.924,4.415a4.148,4.148,0,0,0,4.1-4.608,4.2,4.2,0,0,0-4.8-4.278c-2.627.179-3.907,2.05-4.237,4.471ZM720.931,113.89c-2.765.3-4.608,1.733-4.622,4.567a4.5,4.5,0,0,0,9,.261C725.443,115.871,723.668,114.372,720.931,113.89Zm16.74,48.35c.523,2.9,2.036,4.691,4.869,4.512a4.5,4.5,0,0,0-.3-9c-2.861.055-4.2,1.94-4.581,4.484Zm26.149,26.094c2.861-.55,4.649-2.091,4.415-4.924a4.148,4.148,0,0,0-4.608-4.1,4.217,4.217,0,0,0-4.292,4.8c.179,2.627,2.05,3.907,4.471,4.237ZM720.725,5.621c-2.751.44-4.553,1.94-4.416,4.787a4.507,4.507,0,0,0,9.01-.165c-.014-2.847-1.83-4.278-4.581-4.608ZM785.9,188.431c2.93-.413,4.746-1.857,4.718-4.691a4.546,4.546,0,0,0-9.092.041c-.014,2.861,1.884,4.209,4.388,4.663ZM716.158,31.592c.275,2.765,1.692,4.608,4.512,4.691a4.218,4.218,0,0,0,4.677-4.415,4.224,4.224,0,0,0-4.416-4.677c-2.847-.1-4.319,1.678-4.773,4.4Zm-.041,21.513c.248,2.806,1.637,4.539,4.484,4.732a4.473,4.473,0,0,0,4.8-4.7c-.151-2.834-1.761-4.484-4.608-4.5-2.875-.014-4.305,1.733-4.691,4.457ZM764,166.931c2.7-.413,4.36-1.857,4.4-4.732a4.473,4.473,0,0,0-4.952-4.539c-2.82.316-4.388,2.022-4.25,4.856s1.953,4.223,4.787,4.429ZM802.9,184.3a4.345,4.345,0,0,0,4.5,4.113,4.66,4.66,0,1,0-.055-9.312c-2.558.11-4.457,2.118-4.443,5.213ZM716.171,97.521a4.37,4.37,0,0,0,4.567,4.085,4.474,4.474,0,0,0,4.663-4.842,4.354,4.354,0,0,0-4.732-4.388c-2.545-.028-4.512,2.091-4.5,5.131Zm4.1-26.658a4.37,4.37,0,0,0-4.085,4.567,4.474,4.474,0,0,0,4.842,4.663,4.354,4.354,0,0,0,4.388-4.732c.028-2.545-2.091-4.512-5.131-4.5Zm22.573,73.757a4.372,4.372,0,0,0,4.072-4.581,4.481,4.481,0,0,0-4.856-4.649,4.362,4.362,0,0,0-4.374,4.746c-.014,2.545,2.1,4.512,5.145,4.471Zm-.77-139.095c-2.682.371-4.347,1.816-4.429,4.677a4.656,4.656,0,1,0,9.3-.316c-.275-2.847-2.022-4.2-4.869-4.36Zm-.22,117.678c3.274-.041,5.351-2.187,5.145-4.966-.22-2.861-1.885-4.388-4.759-4.429a4.5,4.5,0,0,0-4.622,4.952,4.35,4.35,0,0,0,4.237,4.457Zm44.237,34.306a4.623,4.623,0,0,0-4.773,4.828A4.576,4.576,0,0,0,786.242,167a4.406,4.406,0,0,0,4.567-4.622,4.567,4.567,0,0,0-4.718-4.869ZM737.547,31.578a4.543,4.543,0,0,0,4.69,4.883c3.054-.069,4.773-1.719,4.773-4.773,0-2.847-1.623-4.484-4.471-4.691a4.6,4.6,0,0,0-5.007,4.581Zm26.369,113.166a4.752,4.752,0,1,0-.426-9.491c-2.847.248-4.374,1.9-4.443,4.759a4.56,4.56,0,0,0,4.856,4.732ZM737.465,97.191c.344,2.985,1.981,4.677,5.021,4.567s4.691-1.94,4.581-4.952c-.1-3.054-1.939-4.677-4.952-4.581-3.067.1-4.512,1.967-4.649,4.979Zm4.8-48.818c-3.164.371-4.856,2.008-4.746,5.048s1.939,4.691,4.952,4.581c3.054-.1,4.663-1.94,4.594-4.952-.083-3.095-2.008-4.471-4.8-4.677Zm21.569-33.247c2.985-.248,4.7-1.8,4.814-4.842a4.626,4.626,0,0,0-5.076-4.911c-3.026.22-4.677,1.981-4.608,4.979.069,3.04,1.884,4.553,4.869,4.759Zm-21.747,65.2c3.012-.138,4.883-1.582,4.979-4.649.1-3.026-1.541-4.856-4.581-4.952s-4.842,1.527-4.952,4.581,1.582,4.677,4.567,5.021Zm65.421,86.824c2.971-.193,4.732-1.692,4.911-4.732a4.625,4.625,0,0,0-4.966-5.021c-3.026.151-4.718,1.857-4.718,4.869,0,3.04,1.774,4.608,4.773,4.869ZM763.7,26.571a5.378,5.378,0,0,0-5.062,5.255,5.159,5.159,0,0,0,10.317-.193A5.378,5.378,0,0,0,763.7,26.571Zm.22,97a5.261,5.261,0,0,0,4.966-5.3,5.161,5.161,0,0,0-5.392-4.842,4.961,4.961,0,0,0-4.746,5.076,5.144,5.144,0,0,0,5.172,5.062ZM786.2,134.909a5.26,5.26,0,0,0-5.227,5.034,5.13,5.13,0,0,0,5.131,5.09,4.98,4.98,0,0,0,5.007-4.828,5.148,5.148,0,0,0-4.911-5.31ZM758.648,97.095a5.159,5.159,0,1,0,5.062-5.255A5.378,5.378,0,0,0,758.648,97.095Zm43.7,42.724a5.215,5.215,0,1,0,5.282-5.048,5.485,5.485,0,0,0-5.282,5.048ZM786.077,5.016a5.441,5.441,0,0,0-5.227,5.1,5.214,5.214,0,1,0,10.427.028,5.452,5.452,0,0,0-5.2-5.131ZM758.593,53.243a5.209,5.209,0,1,0,5.089-5.227A5.418,5.418,0,0,0,758.593,53.243Zm0,22.366a3.656,3.656,0,1,1,.014.014Zm27.621,48.144a5.257,5.257,0,1,0-5.406-4.911A5.489,5.489,0,0,0,786.214,123.753ZM802.267,10.367a5.537,5.537,0,0,0,5.543,5.158c2.806-.151,5.378-2.889,5.021-5.626a5.185,5.185,0,0,0-5.31-4.938,5.386,5.386,0,0,0-5.255,5.406Zm-21.5,21.252a5.5,5.5,0,0,0,5.282,5.406c2.806,0,5.488-2.586,5.282-5.378a5.185,5.185,0,0,0-5.076-5.186c-2.765-.275-5.433,2.352-5.5,5.158Zm27.1,92.2a5.339,5.339,0,1,0-5.626-5.131,5.513,5.513,0,0,0,5.626,5.131ZM786.09,91.662a5.338,5.338,0,1,0,5.31,5.461A5.5,5.5,0,0,0,786.09,91.662Zm.151-43.811a5.375,5.375,0,1,0,5.186,5.557A5.5,5.5,0,0,0,786.242,47.851ZM802.17,31.908a3.79,3.79,0,1,1,.014.014ZM780.684,75.416a5.379,5.379,0,1,0,5.461-5.3A5.5,5.5,0,0,0,780.684,75.416Zm21.458,21.39a5.43,5.43,0,1,0,5.42-5.241A5.329,5.329,0,0,0,802.143,96.806Zm5.6-27.538a5.306,5.306,0,1,1-.014,0Zm-5.64-16.2a5.462,5.462,0,1,0,5.722-5.3,5.323,5.323,0,0,0-5.722,5.3Z" transform="translate(-18224.031 -9076.021)" fill="#ade8cc"/>
      <path id="Trazado_915161" data-name="Trazado 915161" d="M867.065,652.189h-30.7c0-.429-.011-.857-.011-1.3,0-88.4,71.791-160.351,160.125-160.621v30.7c-71.407.271-129.429,58.45-129.429,129.925C867.054,651.321,867.065,651.749,867.065,652.189Z" transform="translate(-18404.482 -8931.152)" fill="#e0f3ff" opacity="0.43"/>
      <path id="Trazado_915162" data-name="Trazado 915162" d="M431.286,78.385a58.741,58.741,0,0,1-8.631,4.432c-.643.286-1.251.5-1.894.751-.643.268-1.269.5-1.841.7-1.412.536-2.895,1.09-4.557,1.715L409.7,85.6c-7.541,3.27-2.895,2.68-8.077,5.5a124.875,124.875,0,0,0-13.474,3.949,102.832,102.832,0,0,1-10.221,2.966c-2.252-.411,2.341-1.644,3.252-2.484-2.019.7-3.413,1.144-4.61,1.68-1.179.447-2.109.893-3.127,1.34a21.4,21.4,0,0,1-9.078,1.59l-.143-.5a21.008,21.008,0,0,1-2.144.107l-1.09.036h-.5l-.25.036-1.054.054h-.715a2.567,2.567,0,0,1-2.52-1.59,3.78,3.78,0,0,1-.143-1.68,5.168,5.168,0,0,1,.143-.893c.036-.179.143-.447.2-.679a8.367,8.367,0,0,1,.268-.8,99.938,99.938,0,0,1,4.682-10.025c3.627-7.076,7.952-14.367,11.061-23.248.393-1.09.75-2.269,1.054-3.467.339-1.144.572-2.466.822-3.717a36.222,36.222,0,0,0,.447-4.039,26.752,26.752,0,0,0-.214-4.432c-.125-.768-.214-1.59-.411-2.359-.214-.751-.465-1.519-.715-2.252a11.8,11.8,0,0,0-.947-2.216,18.621,18.621,0,0,0-1.019-1.823,23.176,23.176,0,0,0-5.915-6.594c2.43,2.2,1.465,2.019,2.055,3.127a20.083,20.083,0,0,0-6.236-4.61,22.043,22.043,0,0,0-7.309-2,37.226,37.226,0,0,0-12.938,1.269C333,29.9,326.2,33.1,319.6,36.159q-4.825,2.305-9.578,4.575c-3.61,1.644-4.914,2.341-7.148,3.234A21.623,21.623,0,0,1,296,45.684a8.1,8.1,0,0,1-3.574-.643,7.84,7.84,0,0,1-2.7-2.234,6.429,6.429,0,0,1-1.573-4.575,14.222,14.222,0,0,1,1.179-4.5,20.466,20.466,0,0,0-2.395,4.718,8.018,8.018,0,0,0,.357,5.843,7.782,7.782,0,0,0,3.842,4.253,11.87,11.87,0,0,0,5.986.768,47.814,47.814,0,0,0,12.473-3.431,181.987,181.987,0,0,0,22.873-11.311c3.413-.572,7.487-2.073,11.347-2.913,3.824-.876,7.505-.876,8.881.232a16.782,16.782,0,0,1,8.845,3.628,19.249,19.249,0,0,1,5,6.808,18.861,18.861,0,0,1,1.251,7.684,35.543,35.543,0,0,1-1.054,7.13c-2.323,9.113-6.5,17.3-12.223,28-1.876,2.913-1.912,1.019-3.163,1.519,0,0,1.984-4.414,4.217-8.81,1.09-2.2,2.18-4.414,3-6.076.8-1.662,1.34-2.788,1.34-2.788s-1.555,2.573-3.181,5.111L353.5,79.153c.876-2.466,3.038-6.379,4.753-9.953,1.751-3.574,2.948-6.862,2.484-7.845A87.775,87.775,0,0,1,355,74.489c-2.377,4.646-5.093,9.471-7.255,14.51a34.927,34.927,0,0,0-2.52,7.845,11.593,11.593,0,0,0,.84,7.612,9.448,9.448,0,0,0,5.575,4.164c.536.143,1.054.286,1.573.429.518.125,1.054.143,1.555.214.5.054.983.107,1.465.161.482,0,.947,0,1.412-.018a20.472,20.472,0,0,1-2.466-.572,16.2,16.2,0,0,1-2.5-.786,10.434,10.434,0,0,1-4.557-3.02,8,8,0,0,1-1.751-5.379,18.892,18.892,0,0,1,1.126-5.718c1.537-3.038,4.539-7.9,5.164-7.13a71.421,71.421,0,0,0-2.448,7.595,13.279,13.279,0,0,0-.286,5.9,6.214,6.214,0,0,0,3.52,4.2,5.708,5.708,0,0,0,1.287.518,6.951,6.951,0,0,0,1.322.375l1.34.286,1.5.179c.876.143,2.323.2,3.538.3,1.269.125,2.52.036,3.806.071,1.269,0,2.573-.143,3.86-.214,1.3-.107,2.609-.3,3.931-.465a94.931,94.931,0,0,0,16.351-4.128c5.647-1.912,13.474-4.557,14.724-4.056-3.681,1.608-.59,1.3-3.556,2.788,7.934-3.556-.3-3.288,11.758-7.112l-.536,3.413a9.608,9.608,0,0,1,4.021-2.734c.858-.34,1.769-.643,2.752-.929.929-.268,1.894-.536,2.877-.822,4-1.144,8.577-2.663,12.312-5.307,3.449-.179-1.733,2.913-7.952,5.611,7.362-2.484,7.237-4.5,13.063-6.9l-4.414,4.735c5.075-4.95,11.222-4.217,14.975-4.539.107-.375-.822-.751-.786-1.358,0-.3.286-.643,1.054-1.072a15.819,15.819,0,0,1,4.128-1.394c3.645-.482,1.948.59,2.859.768a4.589,4.589,0,0,1,2.412-1.573,13.182,13.182,0,0,1,2.752-.786c.554-.089,1.144-.179,1.787-.25.643-.054,1.34-.036,2.073-.036.518.447-.465.751-1.59,1.054-1.108.34-2.359.786-2.5,1.233a35.758,35.758,0,0,1,5.129-.089H467.7a9.868,9.868,0,0,1-1.7,5.272c-1.072,3.467-.679,3.074-.071,2.609.59-.536,1.34-1.215.965.375-2.859,4.36-4.271,5.254-5.111,5.307-.84.089-1.608-.7-3.735,1.8a66.983,66.983,0,0,1,2.537-7.38c.625-1.5,1.287-3.109,1.894-4.7.2-.751.375-1.483.572-2.216-.036-.393-.054-.768-.054-1.144,1.519,1.626,3.02,3.27,4.36,4.7a26.563,26.563,0,0,0-7.9,1.34,35.266,35.266,0,0,1,7.863-.893l-4.771-5.146v1.072l-.643,2.162c-.679,1.555-1.376,3.109-2.109,4.628-.322-.554-2.806,3.252-4.217,5.575-.715,1.144-1.287,2.055-1.537,2.055-.143.018-.2-.2-.125-.733a13.024,13.024,0,0,1,.679-2.788,40.021,40.021,0,0,0-3.735,12.223,30.434,30.434,0,0,0-.268,6.576l.071.965c.036.3.2.268.286.429.232.214.447.429.679.679.465.447.929,1.054,1.412,1.608,7.237-2.126,14.617-4.271,21.837-6.683,3.556-1.161,7.094-2.305,10.275-3.252,1.215-.375,2.412-.733,3.61-1.09,1.036-.3,2.055-.59,3.056-.876-2.126.107-4.861.554-4.575-.179,7.469-2.395,6.88-.822,8.542-.429a11,11,0,0,0,4.682-2.448,10.513,10.513,0,0,1,3.163-2.484c.733.036,1.412.071,2.073.125.625.036,1.054.107,1.537.161.929.107,1.715.25,2.43.375a15.983,15.983,0,0,1,3.574,1.09,5.662,5.662,0,0,1,2.466,2.216,5.252,5.252,0,0,1,.107,4.324s.5-.232,1.019-.465c.5-.25,1-.518,1-.518-.286,1.43-.679,2.395-.876,3.217-.232.822-.34,1.519-.482,2.252a10.457,10.457,0,0,1-.786,2.412,15.718,15.718,0,0,1-2.538,3.52c-.268.071-.089-.572.268-1.483.179-.447.393-.983.625-1.537.2-.5.268-.822.393-1.233a12.006,12.006,0,0,1-1.769,2.806,16.888,16.888,0,0,1-1.823,1.787,18.334,18.334,0,0,0-4.164,4.878l.858-2.7.768-2.663c-2.984,4.164-7.648,10.757-7.166,7.523a67.682,67.682,0,0,1-4.467,7.237c-1.8,2.68-3.9,5.522-5.951,8.953a30.928,30.928,0,0,0-2.948,6.236,14.02,14.02,0,0,0-.7,5.289,9.172,9.172,0,0,0,.3,1.841,8.148,8.148,0,0,0,.733,1.948,9.879,9.879,0,0,0,2.573,3.27,11.856,11.856,0,0,0,5.236,2.43,19.51,19.51,0,0,0,3.717.357,29.185,29.185,0,0,0,5.682-.572l-.768,1.608c3.574-1.215,9.489-2.323,15.1-3.77.7-.179,1.394-.375,2.091-.554l1.019-.286c.357-.089,1-.3,1.34-.411,1.5-.536,2.716-1.036,3.86-1.555a19.85,19.85,0,0,0,5.093-3.056l1.072.25,10.7-6.362c5.254-1.787,4.289,1.036,4.485.286,11.168-4.61,20.21-7.648,27.609-8.685.232-1.09,2.412-2.377,5.861-3.306a22.025,22.025,0,0,1,5.736-.786,8.171,8.171,0,0,1,3,.518,3.816,3.816,0,0,1,2.144,1.894,6.07,6.07,0,0,1-.125,3.431,16.161,16.161,0,0,1-1.34,3.2,28.356,28.356,0,0,1-1.769,2.931l-2.019,2.716-1,1.358c-.357.482-.59.84-1.126,1.465l-2.877,3.467c-1.841,2.341-3.967,4.592-6.058,6.88a287.921,287.921,0,0,1-27.323,25.41c-19.21,15.922-39.456,30.271-57.594,44.459a64.98,64.98,0,0,0-6.326,5.45c-2.162,2.126-4.378,4.45-6.63,6.755l-1.019-3.074c1.894-.357,3.842-1.858,7.148-2.234a22.7,22.7,0,0,0-2.716.232c-.7.143-1.34.286-1.966.411-.5.089-1.072.268-1.43.286-.375.036-.715.089-1.036.143.608,1.8,1.2,3.61,1.715,5.164,3.663-2.823,5.432-4.861,11.383-9.042,6.63-4.039,10.2-3.9,16.44-6.612l-3.77.5c7.863-7.094,6.469-3.324,12.33-9.471l1.3,2.5c1.608-2.823,8.309-6.058,11.222-7.184l1.126-3.163c6.058-2.948,9.828-5.146,12.509-4.932l-1.573-1.054a20.766,20.766,0,0,0,4.289-2.52c1.966-1.412,4.324-3.091,6.415-4.575,4.2-2.966,7.452-5.093,5.254-1.394,1.287-1.555,2.144-3.342,5.593-5.9l1.626.947c2.234-2.2,4.664-4.45,6.719-6.29,2.037-1.876,3.788-3.234,4.789-3.467-2.252,2.609-2.591,3.949-2.913,5.289,2.52-2.216,4.414-4.021,5.826-5.486a23.9,23.9,0,0,0,2.895-3.645c1.179-1.912,1.09-2.859.929-3.753a4.278,4.278,0,0,1,.429-3.359c.786-1.715,2.609-4.2,6.5-8.667l.7.965,2.966-5.54s.322-.25.822-.643c.25-.2.536-.429.84-.661a7.1,7.1,0,0,0,1.019-.911l3.091-3.377a26.077,26.077,0,0,1,1.948-4.878,33.433,33.433,0,0,0,2.5-5.843,27.311,27.311,0,0,0,1.5-6.7,10.694,10.694,0,0,0-1.662-7.273,12.6,12.6,0,0,0-6.362-4.253,25.78,25.78,0,0,0-8.023-1.126,42.476,42.476,0,0,0-8.631,1c-1.394.286-2.77.661-4.056,1.019q-.965.295-1.876.59a12.388,12.388,0,0,0-1.376.536c-5.325,1.7-12.991,1.608-22.748,5.379l1.233,1.43c-4.253.536-13.777,3.359-23.159,5.968-2.341.643-4.682,1.269-6.826,1.769-.518.107-1.036.214-1.537.322a5.046,5.046,0,0,1-1.161.143,1.861,1.861,0,0,0-.59.036l-.768.071c-.518.036-1.019.089-1.5.125-3.931.268-7.112.054-8.9-.661-6.111,2.323.661.3.876,1.626a23.446,23.446,0,0,1-6.915,1.43,3.234,3.234,0,0,1-.733-.089.5.5,0,0,1-.2-.071c-.036.071.089-.447-.179.786a13.816,13.816,0,0,1-2.162,5.629c-.608.751-.768.482.107.322a10.987,10.987,0,0,1,4.592.393,33.033,33.033,0,0,1,3.913,1.144c.071.054.2,0,.322-.054a5.026,5.026,0,0,0,1-.911c.59-1.412.893-2.073.7-2.019a6.121,6.121,0,0,0-1.215,1.287c-1.072,1.358-1.5,1.858-1.787.8.715-.965,1.3-1.787,1.841-2.5.608-.858,1.179-1.68,1.662-2.448.983-1.537,1.662-2.859,2.43-4.271,1.537-2.895,3.431-5.951,9.578-12.866,1.912-.84-2.394,4.217-3.056,6.022,1.644-2.77,3.878-5.968,6.451-9.81.643-.983,1.3-2,1.966-3.038.375-.608.751-1.2,1.126-1.823.518-.858.983-1.715,1.483-2.573a32.517,32.517,0,0,0,3.913-11.133,21.8,21.8,0,0,0-1.769-11.437l-.661-1.322c-.268-.411-.554-.822-.84-1.215a17.682,17.682,0,0,0-1.912-2.252,28.764,28.764,0,0,0-2.216-1.948c-.822-.554-1.68-1.054-2.52-1.555a28.481,28.481,0,0,0-11.848-3.02,30.666,30.666,0,0,0-3.145-.089c-.983,0-2.252,0-2.859.054-1.412.089-2.77.214-4.056.375-3.217.179-6.5.554-9.864,1.072-1.662.268-3.377.554-5.075.893-.858.161-1.715.34-2.573.518l-1.161.232-.322.036a21.628,21.628,0,0,1-3.038.089.761.761,0,0,1-.3-.071s-.054,0-.054-.036l.054-.179a2.987,2.987,0,0,1,.143-.357,4.242,4.242,0,0,1,.858-1.108c.3-.3.572-.554.786-.733l.3-.25s.143-.322.2-.465a4.588,4.588,0,0,0,.089-.679L481,83.96l.161-1.93.983-12.133-13.277-1.144a57.243,57.243,0,0,0-6.648-.286l-.572.679c-7-.286-13.4,1.59-19.281,3.788-5.808,2.252-11.294,4.95-16.708,6.88l5.682-1.447Z" transform="translate(-17909.281 -9001.469)" fill="#9c39e7" opacity="0.9"/>
      <g id="Grupo_1104724" data-name="Grupo 1104724" transform="translate(-19238.68 -8621.422)" opacity="0.9">
        <path id="Trazado_915163" data-name="Trazado 915163" d="M481.962,157.658c-1.912.5-1.573.8-.2,1.019a42.836,42.836,0,0,0,6.147.179l3.538-2.877s-2.359.447-4.718.911c-2.359.447-4.771.786-4.771.786Z" transform="translate(-480.63 -150.581)" fill="#9c39e7"/>
        <path id="Trazado_915164" data-name="Trazado 915164" d="M468.958,162.54s2.591-.858,5.289-1.483a43.637,43.637,0,0,1,5.522-.929s-2.037.054-4.021.322c-1.984.25-3.913.679-3.913.679-4.378-.25-4.2-.8-2.43-1.519a30.538,30.538,0,0,1,6.915-1.43,25.03,25.03,0,0,0-7.094.983c-1.179.411-1.412.822-1.269,1.179.286.733,2.055,1.447,1,2.2Z" transform="translate(-446.237 -158.179)" fill="#9c39e7"/>
        <path id="Trazado_915165" data-name="Trazado 915165" d="M460.844,156.161c2.5,2.52,3.181,3.753,3.61,3.556.393-.143.2-1.7-.733-3.145a3.19,3.19,0,0,1-1.09-.518c-.429-.2-.893-.465-1.412-.679-.965-.393-1.43-.393-.375.768Z" transform="translate(-417.394 -149.942)" fill="#9c39e7"/>
        <path id="Trazado_915166" data-name="Trazado 915166" d="M337.012,102.956l.465-.5c.161-.179.214-.214.322-.322.214-.2.411-.393.59-.572.357-.34.661-.554.8-.393.125-.661.089-1.054-.2-.876a3.061,3.061,0,0,0-.625.715c-.143.2-.3.429-.518.715-.25.34-.518.751-.84,1.215Z" transform="translate(-71.8 4.923)" fill="#9c39e7"/>
        <path id="Trazado_915167" data-name="Trazado 915167" d="M337.186,100.76c-.054.25-.107.536-.2.876a6.268,6.268,0,0,0,.3-.768c0-.089-.072-.071-.107-.107Z" transform="translate(-69.795 5.332)" fill="#9c39e7"/>
        <path id="Trazado_915168" data-name="Trazado 915168" d="M431.286,78.385a58.741,58.741,0,0,1-8.631,4.432c-.643.286-1.251.5-1.894.751-.643.268-1.269.5-1.841.7-1.412.536-2.895,1.09-4.557,1.715L409.7,85.6c-7.541,3.27-2.895,2.68-8.077,5.5a124.875,124.875,0,0,0-13.474,3.949,102.832,102.832,0,0,1-10.221,2.966c-2.252-.411,2.341-1.644,3.252-2.484-2.019.7-3.413,1.144-4.61,1.68-1.179.447-2.109.893-3.127,1.34a21.4,21.4,0,0,1-9.078,1.59l-.143-.5a21.008,21.008,0,0,1-2.144.107l-1.09.036h-.5l-.25.036-1.054.054h-.715a2.567,2.567,0,0,1-2.52-1.59,3.78,3.78,0,0,1-.143-1.68,5.168,5.168,0,0,1,.143-.893c.036-.179.143-.447.2-.679a8.367,8.367,0,0,1,.268-.8,99.938,99.938,0,0,1,4.682-10.025c3.627-7.076,7.952-14.367,11.061-23.248.393-1.09.75-2.269,1.054-3.467.339-1.144.572-2.466.822-3.717a36.222,36.222,0,0,0,.447-4.039,26.752,26.752,0,0,0-.214-4.432c-.125-.768-.214-1.59-.411-2.359-.214-.751-.465-1.519-.715-2.252a11.8,11.8,0,0,0-.947-2.216,18.621,18.621,0,0,0-1.019-1.823,23.176,23.176,0,0,0-5.915-6.594c2.43,2.2,1.465,2.019,2.055,3.127a20.083,20.083,0,0,0-6.236-4.61,22.043,22.043,0,0,0-7.309-2,37.226,37.226,0,0,0-12.938,1.269C333,29.9,326.2,33.1,319.6,36.159q-4.825,2.305-9.578,4.575c-3.61,1.644-4.914,2.341-7.148,3.234A21.623,21.623,0,0,1,296,45.684a8.1,8.1,0,0,1-3.574-.643,7.84,7.84,0,0,1-2.7-2.234,6.429,6.429,0,0,1-1.573-4.575,14.222,14.222,0,0,1,1.179-4.5,20.466,20.466,0,0,0-2.395,4.718,8.018,8.018,0,0,0,.357,5.843,7.782,7.782,0,0,0,3.842,4.253,11.87,11.87,0,0,0,5.986.768,47.814,47.814,0,0,0,12.473-3.431,181.987,181.987,0,0,0,22.873-11.311c3.413-.572,7.487-2.073,11.347-2.913,3.824-.876,7.505-.876,8.881.232a16.782,16.782,0,0,1,8.845,3.628,19.249,19.249,0,0,1,5,6.808,18.861,18.861,0,0,1,1.251,7.684,35.543,35.543,0,0,1-1.054,7.13c-2.323,9.113-6.5,17.3-12.223,28-1.876,2.913-1.912,1.019-3.163,1.519,0,0,1.984-4.414,4.217-8.81,1.09-2.2,2.18-4.414,3-6.076.8-1.662,1.34-2.788,1.34-2.788s-1.555,2.573-3.181,5.111L353.5,79.153c.876-2.466,3.038-6.379,4.753-9.953,1.751-3.574,2.948-6.862,2.484-7.845A87.775,87.775,0,0,1,355,74.489c-2.377,4.646-5.093,9.471-7.255,14.51a34.927,34.927,0,0,0-2.52,7.845,11.593,11.593,0,0,0,.84,7.612,9.448,9.448,0,0,0,5.575,4.164c.536.143,1.054.286,1.573.429.518.125,1.054.143,1.555.214.5.054.983.107,1.465.161.482,0,.947,0,1.412-.018a20.472,20.472,0,0,1-2.466-.572,16.2,16.2,0,0,1-2.5-.786,10.434,10.434,0,0,1-4.557-3.02,8,8,0,0,1-1.751-5.379,18.892,18.892,0,0,1,1.126-5.718c1.537-3.038,4.539-7.9,5.164-7.13a71.421,71.421,0,0,0-2.448,7.595,13.279,13.279,0,0,0-.286,5.9,6.214,6.214,0,0,0,3.52,4.2,5.708,5.708,0,0,0,1.287.518,6.951,6.951,0,0,0,1.322.375l1.34.286,1.5.179c.876.143,2.323.2,3.538.3,1.269.125,2.52.036,3.806.071,1.269,0,2.573-.143,3.86-.214,1.3-.107,2.609-.3,3.931-.465a94.931,94.931,0,0,0,16.351-4.128c5.647-1.912,13.474-4.557,14.724-4.056-3.681,1.608-.59,1.3-3.556,2.788,7.934-3.556-.3-3.288,11.758-7.112l-.536,3.413a9.608,9.608,0,0,1,4.021-2.734c.858-.34,1.769-.643,2.752-.929.929-.268,1.894-.536,2.877-.822,4-1.144,8.577-2.663,12.312-5.307,3.449-.179-1.733,2.913-7.952,5.611,7.362-2.484,7.237-4.5,13.063-6.9l-4.414,4.735c5.075-4.95,11.222-4.217,14.975-4.539.107-.375-.822-.751-.786-1.358,0-.3.286-.643,1.054-1.072a15.819,15.819,0,0,1,4.128-1.394c3.645-.482,1.948.59,2.859.768a4.589,4.589,0,0,1,2.412-1.573,13.182,13.182,0,0,1,2.752-.786c.554-.089,1.144-.179,1.787-.25.643-.054,1.34-.036,2.073-.036.518.447-.465.751-1.59,1.054-1.108.34-2.359.786-2.5,1.233a35.758,35.758,0,0,1,5.129-.089H467.7a9.868,9.868,0,0,1-1.7,5.272c-1.072,3.467-.679,3.074-.071,2.609.59-.536,1.34-1.215.965.375-2.859,4.36-4.271,5.254-5.111,5.307-.84.089-1.608-.7-3.735,1.8a66.983,66.983,0,0,1,2.537-7.38c.625-1.5,1.287-3.109,1.894-4.7.2-.751.375-1.483.572-2.216-.036-.393-.054-.768-.054-1.144,1.519,1.626,3.02,3.27,4.36,4.7a26.563,26.563,0,0,0-7.9,1.34,35.266,35.266,0,0,1,7.863-.893l-4.771-5.146v1.072l-.643,2.162c-.679,1.555-1.376,3.109-2.109,4.628-.322-.554-2.806,3.252-4.217,5.575-.715,1.144-1.287,2.055-1.537,2.055-.143.018-.2-.2-.125-.733a13.024,13.024,0,0,1,.679-2.788,40.021,40.021,0,0,0-3.735,12.223,30.434,30.434,0,0,0-.268,6.576l.071.965c.036.3.2.268.286.429.232.214.447.429.679.679.465.447.929,1.054,1.412,1.608,7.237-2.126,14.617-4.271,21.837-6.683,3.556-1.161,7.094-2.305,10.275-3.252,1.215-.375,2.412-.733,3.61-1.09,1.036-.3,2.055-.59,3.056-.876-2.126.107-4.861.554-4.575-.179,7.469-2.395,6.88-.822,8.542-.429a11,11,0,0,0,4.682-2.448,10.513,10.513,0,0,1,3.163-2.484c.733.036,1.412.071,2.073.125.625.036,1.054.107,1.537.161.929.107,1.715.25,2.43.375a15.983,15.983,0,0,1,3.574,1.09,5.662,5.662,0,0,1,2.466,2.216,5.252,5.252,0,0,1,.107,4.324s.5-.232,1.019-.465c.5-.25,1-.518,1-.518-.286,1.43-.679,2.395-.876,3.217-.232.822-.34,1.519-.482,2.252a10.457,10.457,0,0,1-.786,2.412,15.718,15.718,0,0,1-2.538,3.52c-.268.071-.089-.572.268-1.483.179-.447.393-.983.625-1.537.2-.5.268-.822.393-1.233a12.006,12.006,0,0,1-1.769,2.806,16.888,16.888,0,0,1-1.823,1.787,18.334,18.334,0,0,0-4.164,4.878l.858-2.7.768-2.663c-2.984,4.164-7.648,10.757-7.166,7.523a67.682,67.682,0,0,1-4.467,7.237c-1.8,2.68-3.9,5.522-5.951,8.953a30.928,30.928,0,0,0-2.948,6.236,14.02,14.02,0,0,0-.7,5.289,9.172,9.172,0,0,0,.3,1.841,8.148,8.148,0,0,0,.733,1.948,9.879,9.879,0,0,0,2.573,3.27,11.856,11.856,0,0,0,5.236,2.43,19.51,19.51,0,0,0,3.717.357,29.185,29.185,0,0,0,5.682-.572l-.768,1.608c3.574-1.215,9.489-2.323,15.1-3.77.7-.179,1.394-.375,2.091-.554l1.019-.286c.357-.089,1-.3,1.34-.411,1.5-.536,2.716-1.036,3.86-1.555a19.85,19.85,0,0,0,5.093-3.056l1.072.25,10.7-6.362c5.254-1.787,4.289,1.036,4.485.286,11.168-4.61,20.21-7.648,27.609-8.685.232-1.09,2.412-2.377,5.861-3.306a22.025,22.025,0,0,1,5.736-.786,8.171,8.171,0,0,1,3,.518,3.816,3.816,0,0,1,2.144,1.894,6.07,6.07,0,0,1-.125,3.431,16.161,16.161,0,0,1-1.34,3.2,28.356,28.356,0,0,1-1.769,2.931l-2.019,2.716-1,1.358c-.357.482-.59.84-1.126,1.465l-2.877,3.467c-1.841,2.341-3.967,4.592-6.058,6.88a287.921,287.921,0,0,1-27.323,25.41c-19.21,15.922-39.456,30.271-57.594,44.459a64.98,64.98,0,0,0-6.326,5.45c-2.162,2.126-4.378,4.45-6.63,6.755l-1.019-3.074c1.894-.357,3.842-1.858,7.148-2.234a22.7,22.7,0,0,0-2.716.232c-.7.143-1.34.286-1.966.411-.5.089-1.072.268-1.43.286-.375.036-.715.089-1.036.143.608,1.8,1.2,3.61,1.715,5.164,3.663-2.823,5.432-4.861,11.383-9.042,6.63-4.039,10.2-3.9,16.44-6.612l-3.77.5c7.863-7.094,6.469-3.324,12.33-9.471l1.3,2.5c1.608-2.823,8.309-6.058,11.222-7.184l1.126-3.163c6.058-2.948,9.828-5.146,12.509-4.932l-1.573-1.054a20.766,20.766,0,0,0,4.289-2.52c1.966-1.412,4.324-3.091,6.415-4.575,4.2-2.966,7.452-5.093,5.254-1.394,1.287-1.555,2.144-3.342,5.593-5.9l1.626.947c2.234-2.2,4.664-4.45,6.719-6.29,2.037-1.876,3.788-3.234,4.789-3.467-2.252,2.609-2.591,3.949-2.913,5.289,2.52-2.216,4.414-4.021,5.826-5.486a23.9,23.9,0,0,0,2.895-3.645c1.179-1.912,1.09-2.859.929-3.753a4.278,4.278,0,0,1,.429-3.359c.786-1.715,2.609-4.2,6.5-8.667l.7.965,2.966-5.54s.322-.25.822-.643c.25-.2.536-.429.84-.661a7.1,7.1,0,0,0,1.019-.911l3.091-3.377a26.077,26.077,0,0,1,1.948-4.878,33.433,33.433,0,0,0,2.5-5.843,27.311,27.311,0,0,0,1.5-6.7,10.694,10.694,0,0,0-1.662-7.273,12.6,12.6,0,0,0-6.362-4.253,25.78,25.78,0,0,0-8.023-1.126,42.476,42.476,0,0,0-8.631,1c-1.394.286-2.77.661-4.056,1.019q-.965.295-1.876.59a12.388,12.388,0,0,0-1.376.536c-5.325,1.7-12.991,1.608-22.748,5.379l1.233,1.43c-4.253.536-13.777,3.359-23.159,5.968-2.341.643-4.682,1.269-6.826,1.769-.518.107-1.036.214-1.537.322a5.046,5.046,0,0,1-1.161.143,1.861,1.861,0,0,0-.59.036l-.768.071c-.518.036-1.019.089-1.5.125-3.931.268-7.112.054-8.9-.661-6.111,2.323.661.3.876,1.626a23.446,23.446,0,0,1-6.915,1.43,3.234,3.234,0,0,1-.733-.089.5.5,0,0,1-.2-.071c-.036.071.089-.447-.179.786a13.816,13.816,0,0,1-2.162,5.629c-.608.751-.768.482.107.322a10.987,10.987,0,0,1,4.592.393,33.033,33.033,0,0,1,3.913,1.144c.071.054.2,0,.322-.054a5.026,5.026,0,0,0,1-.911c.59-1.412.893-2.073.7-2.019a6.121,6.121,0,0,0-1.215,1.287c-1.072,1.358-1.5,1.858-1.787.8.715-.965,1.3-1.787,1.841-2.5.608-.858,1.179-1.68,1.662-2.448.983-1.537,1.662-2.859,2.43-4.271,1.537-2.895,3.431-5.951,9.578-12.866,1.912-.84-2.394,4.217-3.056,6.022,1.644-2.77,3.878-5.968,6.451-9.81.643-.983,1.3-2,1.966-3.038.375-.608.751-1.2,1.126-1.823.518-.858.983-1.715,1.483-2.573a32.517,32.517,0,0,0,3.913-11.133,21.8,21.8,0,0,0-1.769-11.437l-.661-1.322c-.268-.411-.554-.822-.84-1.215a17.682,17.682,0,0,0-1.912-2.252,28.764,28.764,0,0,0-2.216-1.948c-.822-.554-1.68-1.054-2.52-1.555a28.481,28.481,0,0,0-11.848-3.02,30.666,30.666,0,0,0-3.145-.089c-.983,0-2.252,0-2.859.054-1.412.089-2.77.214-4.056.375-3.217.179-6.5.554-9.864,1.072-1.662.268-3.377.554-5.075.893-.858.161-1.715.34-2.573.518l-1.161.232-.322.036a21.628,21.628,0,0,1-3.038.089.761.761,0,0,1-.3-.071s-.054,0-.054-.036l.054-.179a2.987,2.987,0,0,1,.143-.357,4.242,4.242,0,0,1,.858-1.108c.3-.3.572-.554.786-.733l.3-.25s.143-.322.2-.465a4.588,4.588,0,0,0,.089-.679L481,83.96l.161-1.93.983-12.133-13.277-1.144a57.243,57.243,0,0,0-6.648-.286l-.572.679c-7-.286-13.4,1.59-19.281,3.788-5.808,2.252-11.294,4.95-16.708,6.88l5.682-1.447Z" transform="translate(-247.328 -6.549)" fill="#9c39e7"/>
        <path id="Trazado_915169" data-name="Trazado 915169" d="M428.777,126.71l-2.019,1.179s-.161.625-.465,1.573c-.268.947-.715,2.2-1.162,3.485-.929,2.537-2,5.111-2,5.111,3.109-3.413,3.359-5.951,5.665-11.329Z" transform="translate(-315.225 -77.461)" fill="#9c39e7"/>
        <path id="Trazado_915170" data-name="Trazado 915170" d="M422.513,135.067s.34-1.465.7-2.931c.125-.733.25-1.483.357-2.037a7.227,7.227,0,0,0,.125-.929,13.463,13.463,0,0,1-.375,1.447c-.232.876-.59,2.019-1,3.145-.8,2.269-1.787,4.45-1.787,4.45s.536-.768,1.019-1.555c.5-.8.983-1.59.983-1.59Z" transform="translate(-305.477 -82.012)" fill="#9c39e7"/>
        <path id="Trazado_915171" data-name="Trazado 915171" d="M402.578,107.54l-1.447.375s-1.215.608-3.02,1.519c-1.823.911-4.271,2.109-6.808,3.217l-10.043,4.074s1.34-.518,3.324-1.3c2-.786,4.7-1.733,7.469-2.913,2.7-1.162,5.325-2.43,7.273-3.377S402.578,107.54,402.578,107.54Z" transform="translate(-214.188 -21.873)" fill="#9c39e7"/>
        <path id="Trazado_915172" data-name="Trazado 915172" d="M339.326,103.915a4.581,4.581,0,0,1,.357-1.8,2.563,2.563,0,0,0,.214-1.59,9.145,9.145,0,0,1-.375,1.823c-.143.465-.34.965-.465,1.3-.393.733-.643,1.215-.643,1.215l.911-.947Z" transform="translate(-75.009 2.534)" fill="#9c39e7"/>
        <path id="Trazado_915173" data-name="Trazado 915173" d="M316.239,79.935c2.537-3.86,6.969-2.555,1.465-3.145C312.343,79.292,317.508,78.488,316.239,79.935Z" transform="translate(-13.931 69.866)" fill="#9c39e7"/>
        <path id="Trazado_915174" data-name="Trazado 915174" d="M313.111,81.32a23.515,23.515,0,0,0-6.451,2.859C311.217,83.929,310.913,82.571,313.111,81.32Z" transform="translate(8.586 57.527)" fill="#9c39e7"/>
      </g>
      <path id="Trazado_915175" data-name="Trazado 915175" d="M34.287,0,20.09,14.2,5.893,0,0,5.892l14.2,14.2L0,34.287l5.893,5.892,14.2-14.2,14.2,14.2,5.893-5.892-14.2-14.2,14.2-14.2Z" transform="translate(-17543.014 -8723.094) rotate(13)" fill="#97e7a1"/>
      <g id="Grupo_1104725" data-name="Grupo 1104725" transform="translate(-19099.307 -8879.763)">
        <path id="Trazado_915176" data-name="Trazado 915176" d="M302.776,362.67c-11.508,9.626-23.088,19.179-34.6,28.805s-22.8,19.541-34.45,29.095c-14.33,11.725-28.226,23.956-41.4,36.911a54.983,54.983,0,0,0-6.3,7.31c-2.9,4.053-3.112,8.4-.941,12.955a15.379,15.379,0,0,0,22.147,6.586c8.106-4.777,13.968-12.014,20.048-19.035,8.034-9.191,15.561-18.817,24.028-27.575,19.4-20.048,39.227-39.661,58.913-59.492.868-.868,1.809-1.665,2.678-2.461a3.088,3.088,0,0,1,3.981-.579c5.283,3.04,10.567,3.908,15.488-1.375,1.592,2.027,3.04,3.764,4.487,5.573-2.244,4.487-.217,8.034,2.388,11.435,3.619,4.632,8.613,6.514,14.186,7.6a21.269,21.269,0,0,1,6.369,2.1,21.21,21.21,0,0,0,14.33,2.461,43.635,43.635,0,0,0,15.054-5.356c15.705-8.613,27.285-21.134,35.391-36.839,4.994-9.626,7.093-19.831.8-29.818a18.211,18.211,0,0,1-2.967-9.771,16.577,16.577,0,0,0-4.2-11.435c-1.592-1.737-3.329-3.908-5.935-3.691-2.316.217-3.04-1.086-4.053-2.533-8.54-12.521-19.469-22.8-30.687-32.786a6.538,6.538,0,0,1-2.244-3.908c-1.665-8.178-6.224-14.041-14.041-17.153a9.5,9.5,0,0,1-2.895-1.882c-3.04-3.329-5.935-6.876-8.975-10.2-5.862-6.369-13.245-8.4-21.568-7.093-11,1.737-20.482,6.658-29.022,13.824-9.119,7.672-16.429,16.863-23.667,26.2a54.471,54.471,0,0,0-8.4,15.488,17.928,17.928,0,0,0,1.665,15.488,74.944,74.944,0,0,0,6.369,9.264c3.185,3.981,6.586,7.744,9.915,11.652-.724,7.165.072,9.481,4.343,13.172a16.46,16.46,0,0,0,10.2,4.2,4.76,4.76,0,0,1,4.487,3.112c-4.415,6.007-4.415,6.369-.145,18.745A6.192,6.192,0,0,1,302.776,362.67ZM315.8,336.4c8.685-2.605,15.995-7.527,23.088-12.883,12.955-9.7,23.088-22,31.121-35.97,1.954-3.329,2.895-7.165,4.27-10.784.362-.941.651-1.954,1.158-3.4.941.868,1.665,1.3,2.243,1.954,6.369,7.382,12.811,14.764,19.107,22.292,3.691,4.415,7.238,8.9,10.784,13.462,3.257,4.125,3.981,8.83,3.619,13.968-.869,11.58-6.08,21.278-13.245,30.036-6.224,7.6-12.521,15.126-21.061,20.265-8.323,5.066-17.08,8.975-27.5,9.626-13.027-15.995-28.154-30.325-43.57-45.017C309.58,338.641,312.619,337.339,315.8,336.4ZM297.348,310.7a15.776,15.776,0,0,1-6.369.289c-5.139-.941-10.35-2.605-14.4-5.862-6.152-4.994-8.758-11.073-5.718-18.383,2.967-7.31,7.527-13.606,12.231-19.758a136.2,136.2,0,0,1,19.469-20.844c7.672-6.658,16.646-10.639,26.417-13.172,5.718-1.447,10.422,1.013,15.2,3.619,3.836,2.1,5.645,5.283,6.152,9.7a34.194,34.194,0,0,1-1.086,13.534,71.846,71.846,0,0,1-15.633,28.226c-1.23,1.375-2.678,2.678-4.56,4.56C320.363,300.934,310.086,308.027,297.348,310.7Zm15.271,62.17c-1.809,1.592-3.546,2.967-5.139,4.487-23.015,21.351-45.524,43.28-66.368,66.73-7.455,8.4-14.692,17.08-22.219,25.476a86.688,86.688,0,0,1-8.685,8.4,27.38,27.38,0,0,1-6.8,4.2c-4.849,2.243-9.264.724-12.955-2.606-4.922-4.415-5.211-9.988-.434-15.271A212.3,212.3,0,0,1,205.794,448.8c7.672-6.731,15.633-13.027,23.594-19.4,8.251-6.659,16.791-12.955,24.969-19.686,10.567-8.685,20.844-17.732,31.194-26.634,6.659-5.79,13.245-11.652,19.9-17.442C307.915,368.17,310.159,370.414,312.619,372.875Zm-26.127-60.433c4.632,1.737,9.119,1.3,13.751-.217,11.435-3.764,21.061-10.35,29.384-18.962,2.533-2.678,5.718-4.7,8.323-7.31a32.275,32.275,0,0,0,5.139-6.586,75.951,75.951,0,0,0,9.119-22.653c.8-3.691.507-7.6.8-11.942,1.086,1.737,2.026,3.185,2.967,4.777.651,1.013.941,2.316,1.809,3.112,4.27,3.691,3.908,8.613,3.691,13.389-.507,10.639-4.7,20.048-11.363,28.226a110.3,110.3,0,0,1-22.147,20.916c-8.757,6.224-18.89,9.409-29.529,10.711a6.817,6.817,0,0,1-6.08-2.316c-3.619-3.908-7.237-7.889-10.856-11.8a4.038,4.038,0,0,1,.362-.579A24.227,24.227,0,0,1,286.492,312.441Zm55.294,70.276c3.04,4.994,7.455,5.573,12.883,4.849,7.455-.941,13.751-4.415,20.048-7.889,11.942-6.586,21.351-16.14,29.312-27.141A118.884,118.884,0,0,0,411.7,339.8a21.621,21.621,0,0,0,2.823-10.784,12.575,12.575,0,0,1,.362-2.823c1.375-6.152,2.026-12.159-2.605-17.587,2.388.507,3.691,2.171,4.7,3.908a23.854,23.854,0,0,1,3.329,11.508,44.044,44.044,0,0,1-2.75,16.14c-8.178,20.41-21.64,36.26-40.82,46.971a37.84,37.84,0,0,1-22.436,5.066c-6.007-.579-10.929-3.185-13.462-9.771C341.5,382.645,341.714,382.573,341.786,382.718Zm29.167-115.149a7.868,7.868,0,0,1,0,3.185,58.076,58.076,0,0,1-12.014,27.285,135.305,135.305,0,0,1-32.5,29.095c-7.165,4.56-15.054,6.948-23.232,8.613-6.152,1.23-11.725-1.665-13.751-6.586a4.557,4.557,0,0,1-.145-2.026c3.184,3.981,7.454,3.908,11.8,3.4a54.094,54.094,0,0,0,31.049-13.751c4.053-3.691,8.106-7.455,12.014-11.29A73.79,73.79,0,0,0,361.4,278.136a38.364,38.364,0,0,0,1.3-24.752C367.7,257.292,369.506,262.358,370.953,267.569Zm54.788,82.508c-3.836,11.58-11.073,20.7-19.758,28.878-4.56,4.27-9.771,7.889-14.62,11.87a37.637,37.637,0,0,1-16.719,7.455,22.074,22.074,0,0,1-7.237,0c31.555-11.652,48.274-35.247,55.439-67.526C426.754,337.266,427.985,343.2,425.741,350.077ZM320.725,372.151a72.977,72.977,0,0,1-13.607-16.212c-1.23-2.1-1.737-4.777-2.316-7.165a2.879,2.879,0,0,1,1.158-2.244c.289-.217,1.52.217,2.026.724,5.79,6.152,11.58,12.3,17.225,18.528,1.52,1.665,2.75,3.546,4.27,5.5C326.081,374.395,323.548,374.684,320.725,372.151Z" transform="translate(-183.641 -230.138)" fill="#311d48"/>
        <path id="Trazado_915177" data-name="Trazado 915177" d="M186.128,302.767c3.691-1.375,6.731-2.605,9.915-3.619,8.685-2.606,15.995-7.527,23.088-12.883,12.955-9.7,23.088-22,31.121-35.97,1.954-3.329,2.895-7.165,4.27-10.784.362-.941.651-1.954,1.158-3.4.941.868,1.665,1.3,2.244,1.954,6.369,7.382,12.81,14.764,19.107,22.292,3.691,4.415,7.238,8.9,10.784,13.462,3.257,4.125,3.981,8.83,3.619,13.968-.869,11.58-6.08,21.278-13.245,30.036-6.224,7.6-12.521,15.126-21.061,20.265-8.323,5.066-17.08,8.975-27.5,9.626C216.671,331.79,201.544,317.387,186.128,302.767Z" transform="translate(-63.881 -192.889)" fill="#936037"/>
        <path id="Trazado_915178" data-name="Trazado 915178" d="M253.979,290.547c-8.685,8.251-18.962,15.416-31.7,18.094a15.776,15.776,0,0,1-6.369.289c-5.139-.941-10.35-2.605-14.4-5.862-6.152-4.994-8.757-11.073-5.718-18.383,2.967-7.31,7.527-13.607,12.231-19.758a136.2,136.2,0,0,1,19.469-20.844c7.672-6.659,16.646-10.639,26.417-13.172,5.718-1.447,10.422,1.013,15.2,3.619,3.836,2.1,5.645,5.283,6.152,9.7a34.194,34.194,0,0,1-1.086,13.534,71.844,71.844,0,0,1-15.633,28.226C257.308,287.363,255.861,288.666,253.979,290.547Z" transform="translate(-108.571 -228.002)" fill="#ca9e67"/>
        <path id="Trazado_915179" data-name="Trazado 915179" d="M318.705,248.87c2.461,2.461,4.7,4.7,7.093,7.165-1.809,1.592-3.546,2.967-5.139,4.487-23.015,21.351-45.524,43.28-66.368,66.73-7.455,8.4-14.692,17.08-22.219,25.476a86.679,86.679,0,0,1-8.685,8.4,27.377,27.377,0,0,1-6.8,4.2c-4.849,2.243-9.264.724-12.955-2.605-4.921-4.415-5.211-9.988-.434-15.271a212.3,212.3,0,0,1,15.778-15.488c7.672-6.731,15.633-13.027,23.594-19.4,8.251-6.659,16.791-12.955,24.969-19.686,10.567-8.685,20.844-17.732,31.194-26.634C305.533,260.595,312.119,254.732,318.705,248.87Z" transform="translate(-196.892 -113.299)" fill="#936037"/>
        <path id="Trazado_915180" data-name="Trazado 915180" d="M193.428,298.518c1.52.434,3.04.8,4.56,1.3,4.632,1.737,9.119,1.3,13.751-.217,11.435-3.764,21.061-10.35,29.384-18.962,2.533-2.678,5.718-4.7,8.323-7.31a32.281,32.281,0,0,0,5.139-6.586,75.956,75.956,0,0,0,9.119-22.653c.8-3.691.507-7.6.8-11.942,1.086,1.737,2.026,3.185,2.967,4.777.651,1.013.941,2.316,1.809,3.112,4.27,3.691,3.908,8.613,3.691,13.389-.507,10.639-4.7,20.048-11.363,28.226a110.3,110.3,0,0,1-22.147,20.916c-8.757,6.224-18.89,9.409-29.529,10.711a6.817,6.817,0,0,1-6.08-2.316c-3.619-3.908-7.237-7.889-10.856-11.8A1.708,1.708,0,0,0,193.428,298.518Z" transform="translate(-95.137 -217.59)" fill="#936037"/>
        <path id="Trazado_915181" data-name="Trazado 915181" d="M184.88,314.8a6.858,6.858,0,0,1,1.086.289c3.04,4.994,7.455,5.573,12.883,4.849,7.455-.941,13.751-4.415,20.048-7.889,11.942-6.586,21.351-16.14,29.312-27.141a118.877,118.877,0,0,0,7.672-12.738A21.621,21.621,0,0,0,258.7,261.39a12.577,12.577,0,0,1,.362-2.823c1.375-6.152,2.026-12.159-2.605-17.587,2.388.507,3.691,2.171,4.7,3.908a23.854,23.854,0,0,1,3.329,11.508,44.045,44.045,0,0,1-2.75,16.14c-8.178,20.41-21.64,36.26-40.819,46.971a37.84,37.84,0,0,1-22.436,5.066C192.335,323.922,187.413,321.389,184.88,314.8Z" transform="translate(-27.82 -162.513)" fill="#e0cf33"/>
        <path id="Trazado_915182" data-name="Trazado 915182" d="M265.108,233.35c4.994,3.908,6.8,8.974,8.251,14.185a7.868,7.868,0,0,1,0,3.185,58.077,58.077,0,0,1-12.014,27.285,135.3,135.3,0,0,1-32.5,29.095c-7.165,4.56-15.054,6.948-23.232,8.613-6.152,1.23-11.725-1.665-13.751-6.586a4.557,4.557,0,0,1-.145-2.026c3.184,3.981,7.455,3.908,11.8,3.4a54.094,54.094,0,0,0,31.049-13.751c4.053-3.691,8.106-7.455,12.014-11.29A73.789,73.789,0,0,0,263.805,258.1C266.7,250.286,267.641,242.252,265.108,233.35Z" transform="translate(-86.046 -210.105)" fill="#e0cf33"/>
        <path id="Trazado_915183" data-name="Trazado 915183" d="M239.49,244.04c3.908,6.514,5.139,12.449,2.823,19.324-3.836,11.58-11.073,20.7-19.758,28.878-4.56,4.27-9.771,7.889-14.62,11.87a37.637,37.637,0,0,1-16.719,7.455,22.074,22.074,0,0,1-7.238,0C215.607,299.913,232.325,276.319,239.49,244.04Z" transform="translate(-0.285 -143.426)" fill="#936037"/>
        <path id="Trazado_915184" data-name="Trazado 915184" d="M222.058,270.949c-3.4,3.184-5.935,3.474-8.685.941a72.974,72.974,0,0,1-13.607-16.212c-1.23-2.1-1.737-4.777-2.316-7.165a2.878,2.878,0,0,1,1.158-2.244c.289-.217,1.52.217,2.026.724,5.79,6.152,11.58,12.3,17.225,18.528C219.308,267.113,220.538,269,222.058,270.949Z" transform="translate(-76.216 -129.877)" fill="#683c11"/>
      </g>
      <g id="Grupo_1104726" data-name="Grupo 1104726" transform="translate(-17698.398 -8630.236)">
        <path id="Trazado_915185" data-name="Trazado 915185" d="M248.011,357.3V517.411a5.125,5.125,0,0,1-1.165-.388c-15.926-11.109-29.366-25.17-44.282-37.522a3.429,3.429,0,0,1-1.321-3.962,8.465,8.465,0,0,0-.078-1.321c-1.01.466-1.942.932-2.8,1.321-6.37-6.06-13.052-11.5-18.723-17.946-30.531-34.8-64.015-66.5-98.508-97.186-9.789-8.7-19.888-16.858-30.3-25.637.932-3.418,1.476-6.992,2.8-10.255,4.894-12.119,11.187-23.384,20.2-32.939,3.651-3.884,7.536-7.691,11.032-11.731,7.769-8.934,17.4-15.3,28.045-20.121,4.35-1.942,8.779-2.486,13.051.388,2.952,2.02,6.137,3.729,8.934,5.982,9.478,7.691,18.645,15.77,28.2,23.306,21.6,17.091,43.427,33.949,65.1,50.885,1.321,1.01,2.564,2.02,3.807,3.107C237.29,347.977,242.651,352.638,248.011,357.3Z" transform="translate(158.404 -64.559)" fill="#2d2e83"/>
        <path id="Trazado_915186" data-name="Trazado 915186" d="M457.255,516.15a80.477,80.477,0,0,1-8.235-5.05c-4.117-3.107-7.924-6.681-12.119-9.789-16.159-12.2-32.629-24.005-48.632-36.435-8.934-6.914-17.091-14.838-25.87-21.985-7.38-6.06-14.994-11.808-22.607-17.4a22.574,22.574,0,0,0-15.46-4.506,6.925,6.925,0,0,1-4.894-1.165c-3.807-2.641-7.536-5.283-11.5-7.691-4.661-2.874-9.167-6.448-14.994-3.651-1.709-2.175-2.952-4.351-4.739-5.827-3.574-3.03-3.108-6.293-1.476-10.021a67.183,67.183,0,0,0,3.418-10.1c1.709-6.992.777-13.906-1.165-20.742a56.527,56.527,0,0,1-2.175-19.732c2.1-1.165,3.962-2.1,5.749-3.107a163.368,163.368,0,0,1,27.734-12.2c10.488-3.34,20.82-7.147,31.23-10.8a8.446,8.446,0,0,0,2.8-1.321,10.1,10.1,0,0,0,1.476-2.408c-7.3-1.476-14.528-1.709-20.665-6.37,5.283-2.486,10.1-4.816,15.071-6.914a5.2,5.2,0,0,0,3.418-4.739c1.709-18.722-3.884-34.415-19.422-45.835-10.41-7.691-21.83-13.129-34.882-14.994-4.35-.621-7.225.389-9.556,3.729-2.952,4.273-5.9,8.623-8.468,13.129-6.215,10.954-12.974,21.442-21.83,30.453-5.283,5.36-10.954,10.41-16.547,15.615a10.543,10.543,0,0,1-2.564-1.554c-3.5-3.651-8.079-4.273-12.663-4.583-4.894-.311-9.866-.078-14.761-.544-5.671-.622-9.556,1.088-11.653,6.6a9.243,9.243,0,0,1-.7,1.165c-1.165,2.408-2.8,3.651-5.671,3.107a7.806,7.806,0,0,0-6.914,2.408c-1.4,1.321-3.03,2.486-4.273,3.884-2.331,2.564-4.428,5.2-8.313,5.127a3.631,3.631,0,0,0-1.942,1.01c-3.341,2.486-6.681,4.894-9.866,7.536-2.408,2.02-4.584,4.04-8.235,3.651a7.7,7.7,0,0,0-7.3,3.573c-3.651,4.894-7.147,9.944-10.566,14.916-1.864,2.719-3.263,5.671-5.36,8.235a7.49,7.49,0,0,0-1.088,8.313c1.01,2.331,2.02,4.583,3.03,7.069a27.073,27.073,0,0,1-2.875,1.554c-9.4,4.2-18.8,8.235-28.2,12.43a134.325,134.325,0,0,1-28.9,9.089,20.879,20.879,0,0,0-10.41,4.894,37.576,37.576,0,0,0-11.5,19.266,62.494,62.494,0,0,0,1.088,30.065c4.428,16.47,12.2,30.686,27.579,39.542,7.691,4.428,15.615,5.594,23.928,2.1a46.038,46.038,0,0,1,5.516-1.864,21.3,21.3,0,0,0,8.856-4.972c2.1-1.942,4.273-3.651,6.526-5.36,4.117-3.185,8.468-6.06,12.508-9.4,11.809-9.789,23.462-19.81,35.192-29.676,3.807-3.185,7.691-6.293,11.575-9.478,5.283,6.681,10.8,12.274,18.956,14.294a44.186,44.186,0,0,1,14.994,6.681c2.8,1.942,5.749,3.729,8.623,5.516,6.526,4.117,13.051,8.235,19.733,12.43a40.821,40.821,0,0,1-.544,6.06c-1.01,4.972.932,8.39,5.05,10.876,2.874,1.709,5.671,3.573,8.546,5.438-.777,1.787-1.321,3.34-1.942,4.816-2.641,5.9-2.952,12.119-2.331,18.412.155,1.554.466,3.651,2.1,3.418,2.8-.388,3.962,1.631,5.594,2.952,2.486,1.942,4.817,4.04,7.147,6.06,11.964,10.255,24.472,20.043,35.814,30.919,10.332,9.866,19.577,20.82,29.211,31.385C354.164,603.7,371.8,624.29,392.541,642a48.177,48.177,0,0,1,3.418,3.5c6.37,6.526,12.352,13.362,19.033,19.5,13.828,12.663,28.045,24.937,42.107,37.367V686.284a5.129,5.129,0,0,1-1.165-.388c-15.926-11.109-29.366-25.17-44.282-37.523a3.428,3.428,0,0,1-1.321-3.962,8.465,8.465,0,0,0-.078-1.321c-1.01.466-1.942.932-2.8,1.321-6.37-6.06-13.051-11.5-18.723-17.946-30.531-34.8-64.015-66.5-98.508-97.186-9.789-8.7-19.888-16.858-30.3-25.636.932-3.418,1.476-6.992,2.8-10.255,4.894-12.119,11.187-23.384,20.2-32.939,3.651-3.884,7.536-7.691,11.032-11.731,7.769-8.934,17.4-15.3,28.045-20.121,4.351-1.942,8.779-2.486,13.052.388,2.952,2.02,6.137,3.729,8.934,5.982,9.478,7.691,18.645,15.77,28.2,23.306,21.6,17.091,43.427,33.949,65.1,50.885,1.321,1.01,2.564,2.02,3.807,3.107,5.36,4.661,10.721,9.322,16.159,14.061C457.255,522.676,457.255,519.413,457.255,516.15ZM116.44,454.544a28.6,28.6,0,0,0,.622-18.878,93.246,93.246,0,0,0-17.247-32.551c-4.584-5.594-10.1-10.022-17.169-12.352a8.893,8.893,0,0,1-1.787-1.01,340.169,340.169,0,0,0,90.273-39.543c.932,1.942,1.709,3.5,2.331,5.127,3.574,8.856,10.022,15.071,18.179,19.577,4.972,2.719,10.41,2.408,15.693,1.088,3.884-.932,5.438-3.962,5.05-8.157,1.476,0,2.719.078,4.04,0a42.711,42.711,0,0,0,7.07-.622c3.418-.777,4.584-3.107,3.574-6.448a12.383,12.383,0,0,0-1.476-3.263c-3.108-5.361-4.04-11.42-5.438-17.946,2.253,1.632,3.962,2.874,5.749,4.117,5.827,4.2,12.119,3.729,18.334,1.476,4.04-1.476,5.05-5.594,2.564-9.167-.7-.932-1.631-1.709-2.408-2.641-4.273-5.516-8.623-11.031-12.9-16.547a4.477,4.477,0,0,1-.388-1.321c2.408-1.01,4.117-.155,6.06,1.321a29.631,29.631,0,0,0,21.286,6.293c5.05-.544,7.924-3.03,8.856-7.924.777-3.807,0-5.36-3.574-7.147-4.894-2.486-9.866-4.894-14.683-7.458-1.632-.855-3.185-2.1-5.127-3.34,2.408-2.02,4.273-3.884,6.448-5.438A125.78,125.78,0,0,0,286.42,250.85c2.564-4.506,5.438-8.856,8.235-13.285a65.438,65.438,0,0,1,43.816,20.2c9.245,9.478,11.808,21.752,10.565,34.8-.233,2.175-1.631,3.107-3.263,3.807-5.749,2.719-11.5,5.671-17.4,8.079a138.926,138.926,0,0,0-32.784,18.878c-1.088.777-2.175,1.554-3.884,2.8.388-1.554.544-2.486.855-3.34,1.4-3.729,3.03-7.458,4.273-11.265,1.321-3.807,0-6.137-4.04-6.759-4.739-.777-9.4,0-13.129,3.03-8.856,7.38-16.237,15.848-18.257,27.734-.855,4.894-2.641,8.934-6.37,12.352a44.417,44.417,0,0,0-13.751,23.539c-.544,2.408-1.942,3.651-3.884,5.05-6.6,4.506-13.285,9.089-19.577,14.139-10.8,8.778-22.607,16-34.26,23.384-23,14.605-45.836,29.443-67.278,46.379-.544.466-1.165.932-1.709,1.321l-.7-.466C114.808,458.895,115.663,456.72,116.44,454.544Zm148.849-22.452c-6.681,8-12.663,16.547-16.625,26.88-3.651-2.253-6.836-4.35-10.1-6.293-7.846-4.816-15.693-9.633-23.617-14.372a28.013,28.013,0,0,0-7.3-3.263c-8-1.942-14.294-6.37-19.577-12.508,2.564-3.573,43.505-35.658,50.031-39.154.155,4.428.155,8.856.622,13.207a23.6,23.6,0,0,0,5.516,12.43c-.7-4.428-1.476-8.313-1.942-12.275a49.243,49.243,0,0,1,1.476-19.033c1.088-3.729,1.709-7.536,2.719-11.187a41.444,41.444,0,0,1,10.643-15.693,20.744,20.744,0,0,0,7.458-14.217c1.01-9.478,6.914-16.236,12.818-23a18.571,18.571,0,0,1,10.876-6.448,13.907,13.907,0,0,1,3.574-.311c3.03.233,3.962,1.554,2.874,4.428-1.787,4.894-3.341,9.944-5.749,14.528-6.293,12.119-6.448,24.549-2.486,37.212a36.032,36.032,0,0,1,.777,20.276,56.587,56.587,0,0,1-3.574,9.089c-2.02,4.195-2.253,7.846,1.321,11.42a76.207,76.207,0,0,1,4.817,5.982C278.807,414.613,272.281,423.7,265.289,432.093Zm-188.7-21.364c-3.729,1.165-6.37,3.729-8.468,6.836-5.05,7.458-5.205,15.77-3.03,24.083a46.847,46.847,0,0,0,21.986,29.676c7.691,4.583,13.906,3.651,20.82-2.1a244.219,244.219,0,0,1,21.753-16.314c16.392-10.876,33.017-21.286,49.565-31.929a10.64,10.64,0,0,1,2.175-.777,15.013,15.013,0,0,1-1.709,2.02c-15.693,13.906-31.386,27.89-47.156,41.8A76.185,76.185,0,0,1,117.993,474.2c-4.661,2.486-8.856,5.9-13.984,7.846-8.235,3.107-15.771,2.02-22.918-2.719a53.069,53.069,0,0,1-20.354-24.782c-5.516-13.518-8.779-27.19-4.972-41.8a36.637,36.637,0,0,1,10.022-16.625c3.341-3.418,7.536-4.506,12.352-3.729,7.536,1.321,13.362,5.36,18.878,11.575C89.793,406.3,83.189,408.631,76.586,410.729Zm236.326,14.994a65.677,65.677,0,0,0-20.432,14.916c-9.012,9.711-18.1,19.344-25.015,30.764-2.175,3.5-3.884,7.3-6.06,11.42-2.8-2.253-5.594-4.2-8-6.525-3.807-3.574-3.341-8.08-1.787-12.43,4.04-11.808,9.633-22.685,18.645-31.541,3.263-3.263,6.448-6.6,9.556-9.944,4.35-4.661,9.789-7.691,15.537-10.177a5.58,5.58,0,0,1,5.516.078c5.827,3.263,11.575,6.526,17.4,9.866-.078.388-.233.777-.311,1.165C316.33,424.013,314.7,424.946,312.911,425.723ZM197.079,365.515c-3.651-3.884-3.807-8.546-.155-12.9-2.175-.466-3.185.855-3.729,2.408a11.825,11.825,0,0,0,1.01,10.332c1.088,1.865,2.719,2.175,4.584,1.476a32.219,32.219,0,0,1,5.05-1.709,4.262,4.262,0,0,1,5.127,2.564c1.243,2.719.388,4.739-2.564,5.36-5.05,1.01-9.944.7-14.683-2.02-9.09-5.36-14.683-13.284-17.791-23.151-.622-1.865-1.165-3.729-1.864-5.516a24.511,24.511,0,0,0-2.175-3.574c-2.8,3.729.777,6.37.155,9.478-6.837,1.476-13.673,2.952-20.9,4.428.855,3.574-.932,5.516-3.418,6.914-2.8,1.631-5.671,3.263-8.934,5.127-1.787-2.8-3.574-5.516-5.283-8.235a2.935,2.935,0,0,1,.233-3.651c5.36-7.3,10.721-14.605,15.848-22.141,2.175-3.185,4.894-4.428,8.39-3.729,8.856,1.787,17.79,3.729,26.569,5.827a12.639,12.639,0,0,1,7.846,5.516q4.778,7.225,9.323,14.683c2.1,3.5,3.962,7.225,5.827,10.643C202.828,364.195,199.954,364.894,197.079,365.515ZM86.841,428.985a4.3,4.3,0,0,0-3.574,3.418,16.842,16.842,0,0,0,2.408,15.3c3.03,4.117,6.992,4.894,11.265,1.942,5.127-3.573,10.1-7.38,15.071-11.109a28.809,28.809,0,0,1,2.486-1.554,20.585,20.585,0,0,1,.544,13.284c-1.864,7.38-4.972,13.983-11.42,18.567-4.506,3.185-9.012,3.574-13.751.854-13.6-7.846-21.286-19.577-22.84-35.192a23.315,23.315,0,0,1,4.04-16.547,8.569,8.569,0,0,1,6.293-3.729,14.325,14.325,0,0,1,14.217,7.3c.7,1.321,1.321,2.641,2.253,4.661C91.191,427.354,89.094,428.6,86.841,428.985Zm87.165-114.122a4.745,4.745,0,0,1,5.05-.544c7.536,2.874,14.916,5.982,22.607,8.235,8.235,2.408,12.275,8.312,15.149,15.615a50.274,50.274,0,0,1,1.864,6.914c1.165,4.428,2.253,8.934,3.418,13.44-2.02.389-4.2.855-6.37,1.321A3.329,3.329,0,0,1,212,358.135c-3.962-5.982-3.185-8.779,3.807-13.207-2.719-.311-4.04.155-5.749,2.408-1.554,2.02-2.952,4.35-1.787,6.992a32.737,32.737,0,0,0,3.5,5.671c1.088,1.476,2.719,1.554,4.428,1.088A23.872,23.872,0,0,1,221.4,360c1.165,0,2.719.311,2.8,2.175,0,1.631-1.165,1.864-2.408,2.02-7.924.855-14.528-1.165-18.645-9.633-2.874-5.982-6.681-11.575-10.41-17.169a17.59,17.59,0,0,0-10.255-7.458c-5.283-1.476-10.643-2.8-15.926-4.195-1.321-.311-2.564-.621-3.884-.932-.078-.311-.155-.7-.233-1.01C166.315,320.768,170.122,317.738,174.006,314.864Zm55.624,21.053c1.476,2.874,4.273,3.807,7.613,2.719a44.36,44.36,0,0,1,5.516-1.476c1.243-.233,2.641,0,2.641,1.554a5.755,5.755,0,0,1-1.243,3.03c-.388.544-1.243.7-1.942.932a19.434,19.434,0,0,1-21.83-7.924,31.16,31.16,0,0,0-2.564-3.03,22.827,22.827,0,0,1-3.185-3.574,11.722,11.722,0,0,0-6.526-5.826c-6.526-2.486-13.052-4.894-19.577-7.3-2.1-.777-4.2-1.4-6.6-2.253a41.492,41.492,0,0,1,8.779-9.555,3.951,3.951,0,0,1,2.486-.777,25.911,25.911,0,0,1,4.894.311c7.147,1.476,14.217,3.107,21.286,4.661,4.04.855,6.992,2.719,8.468,6.914.932,2.641,2.641,4.894,4.04,7.38A12.5,12.5,0,0,0,229.63,335.917Zm22.685-20.2c2.175.855,3.962.932,5.594-1.088a21.251,21.251,0,0,1,3.5-3.5c.7-.544,2.175-.932,2.719-.544a4.019,4.019,0,0,1,1.476,2.874c0,3.263-1.942,5.516-5.205,6.37a21.374,21.374,0,0,1-12.275-1.088c-4.506-1.632-8.7-3.884-11.731-7.846a7.847,7.847,0,0,0-1.709-1.4,4.626,4.626,0,0,0-1.088,1.01c-1.631,2.175-3.418,2.486-4.661.466-2.253-3.651-5.749-5.05-9.556-5.982-5.05-1.243-10.177-2.331-15.227-3.5-.7-.155-1.4-.388-2.331-.621,1.321-2.564,2.486-4.894,3.729-7.225a3.544,3.544,0,0,1,3.651-2.02c7.613.311,15.149.544,22.762.932a8.8,8.8,0,0,1,4.2,1.243c3.651,2.486,7.147,5.2,10.721,7.846C244.779,308.649,246.644,313.388,252.315,315.718Zm38.3,14.993a127.852,127.852,0,0,1,39.465-23.151,4.07,4.07,0,0,1,2.874,0c4.506,2.1,8.934,4.351,13.518,6.526-1.864.622-3.962,1.243-6.06,1.942-9.012,3.185-18.1,6.06-26.88,9.633-8,3.263-15.615,7.225-23.384,10.954-.777.388-1.554.777-2.564,1.4C287.585,334.907,288.362,332.576,290.615,330.712ZM98.571,405.6c7.458,8.468,12.275,18.179,15.382,28.977-4.972,3.341-9.789,6.6-15.071,10.1.233-13.828-.932-26.647-15.926-33.095C88.239,409.564,93.289,407.622,98.571,405.6ZM94.3,428.441c2.1,5.749,2.486,11.42.466,17.091-1.165,3.263-3.341,3.729-5.671,1.165-3.729-4.117-3.807-9.089-3.185-14.139C88.783,431.161,91.424,429.918,94.3,428.441Zm147.917-93.457c-2.02.7-3.962,1.243-5.827,1.942-1.631.621-3.341.311-3.962-1.088a25.543,25.543,0,0,1-1.864-7.147,4.789,4.789,0,0,1,2.952-5.36C236.545,327.371,239.419,331.178,242.216,334.985Zm18.023-25.714a8.861,8.861,0,0,1-1.165,1.476c-1.709,1.321-2.564,4.428-5.671,2.952s-5.361-3.651-5.594-7.3a24.671,24.671,0,0,1,.466-3.651C252.471,305.075,256.277,307.1,260.239,309.27Z" transform="translate(-50.84 -233.198)" fill="#311d48"/>
        <path id="Trazado_915187" data-name="Trazado 915187" d="M97.739,457.265l2.564-6.526a28.6,28.6,0,0,0,.621-18.878A93.247,93.247,0,0,0,83.678,399.31c-4.584-5.594-10.1-10.022-17.169-12.352a8.889,8.889,0,0,1-1.787-1.01A340.168,340.168,0,0,0,155,346.406c.932,1.942,1.709,3.5,2.331,5.127,3.574,8.856,10.022,15.071,18.179,19.577,4.972,2.719,10.41,2.408,15.693,1.088,3.884-.932,5.438-3.962,5.05-8.157,1.476,0,2.719.078,4.04,0a42.718,42.718,0,0,0,7.07-.621c3.418-.777,4.584-3.107,3.574-6.448a12.382,12.382,0,0,0-1.476-3.263c-3.108-5.361-4.04-11.42-5.438-17.946,2.253,1.632,3.962,2.874,5.749,4.117,5.827,4.2,12.119,3.729,18.334,1.476,4.04-1.476,5.05-5.594,2.564-9.167-.7-.932-1.631-1.709-2.408-2.641-4.273-5.516-8.623-11.031-12.9-16.547a4.473,4.473,0,0,1-.388-1.321c2.408-1.01,4.117-.155,6.06,1.321a29.631,29.631,0,0,0,21.286,6.293c5.05-.544,7.924-3.03,8.856-7.924.777-3.807,0-5.36-3.574-7.147-4.894-2.486-9.866-4.894-14.683-7.458-1.632-.855-3.185-2.1-5.127-3.34,2.408-2.02,4.273-3.884,6.448-5.438a125.779,125.779,0,0,0,36.047-40.941c2.564-4.506,5.438-8.856,8.235-13.285a65.438,65.438,0,0,1,43.816,20.2c9.245,9.478,11.808,21.752,10.566,34.8-.233,2.175-1.631,3.107-3.263,3.807-5.749,2.719-11.5,5.671-17.4,8.079a138.928,138.928,0,0,0-32.784,18.878c-1.088.777-2.175,1.554-3.884,2.8.388-1.554.544-2.486.855-3.34,1.4-3.729,3.03-7.458,4.273-11.265,1.321-3.807,0-6.137-4.04-6.759-4.739-.777-9.4,0-13.129,3.03-8.856,7.38-16.237,15.848-18.257,27.734-.855,4.894-2.641,8.934-6.37,12.352a44.417,44.417,0,0,0-13.751,23.539c-.544,2.408-1.942,3.651-3.884,5.05-6.6,4.506-13.285,9.089-19.577,14.139-10.8,8.779-22.607,16-34.26,23.384-23,14.605-45.836,29.443-67.278,46.379-.544.466-1.165.932-1.709,1.321A2.509,2.509,0,0,0,97.739,457.265Z" transform="translate(-34.626 -229.392)" fill="#fcfaf6"/>
        <path id="Trazado_915188" data-name="Trazado 915188" d="M173.717,345.71c-11.187,4.739-17.713,13.828-24.782,22.218-6.681,8-12.663,16.547-16.625,26.88-3.651-2.253-6.836-4.35-10.1-6.293-7.846-4.816-15.693-9.633-23.617-14.372a28.015,28.015,0,0,0-7.3-3.263c-8-1.942-14.294-6.37-19.577-12.508,2.564-3.573,43.505-35.658,50.031-39.154.155,4.428.155,8.856.622,13.207a23.6,23.6,0,0,0,5.516,12.43c-.7-4.428-1.476-8.313-1.942-12.275a49.242,49.242,0,0,1,1.476-19.033c1.088-3.729,1.709-7.536,2.719-11.187a30.088,30.088,0,0,1,7.536-12.507,30.075,30.075,0,0,1,3.108-3.185,20.744,20.744,0,0,0,7.458-14.217c1.01-9.478,6.914-16.236,12.818-23a18.571,18.571,0,0,1,10.876-6.448,13.906,13.906,0,0,1,3.574-.311c3.03.233,3.962,1.554,2.874,4.428-1.787,4.894-3.341,9.944-5.749,14.528-6.293,12.119-6.448,24.549-2.486,37.212a36.033,36.033,0,0,1,.777,20.276,56.586,56.586,0,0,1-3.574,9.089c-2.02,4.195-2.253,7.846,1.321,11.42A52.1,52.1,0,0,1,173.717,345.71Z" transform="translate(65.436 -169.034)" fill="#efb36b"/>
        <path id="Trazado_915189" data-name="Trazado 915189" d="M129.249,265.4c-7.225,2.408-13.828,4.661-20.432,6.836-3.729,1.165-6.37,3.729-8.468,6.836-5.05,7.458-5.205,15.77-3.03,24.083a46.847,46.847,0,0,0,21.986,29.676c7.691,4.583,13.906,3.651,20.82-2.1a244.2,244.2,0,0,1,21.753-16.314c16.392-10.876,33.017-21.286,49.565-31.929a10.64,10.64,0,0,1,2.175-.777,15.009,15.009,0,0,1-1.709,2.02c-15.693,13.906-31.386,27.889-47.156,41.8A76.186,76.186,0,0,1,150.225,335.7c-4.661,2.486-8.856,5.9-13.984,7.846-8.235,3.107-15.771,2.02-22.918-2.719a53.069,53.069,0,0,1-20.354-24.782c-5.516-13.517-8.779-27.19-4.972-41.8a36.637,36.637,0,0,1,10.022-16.625c3.341-3.418,7.536-4.506,12.352-3.729C117.907,255.141,123.734,259.258,129.249,265.4Z" transform="translate(-83.072 -94.701)" fill="#ededed"/>
        <path id="Trazado_915190" data-name="Trazado 915190" d="M136.3,267.795c-1.709.854-3.418,1.787-5.127,2.564a65.676,65.676,0,0,0-20.432,14.916c-9.012,9.711-18.1,19.344-25.015,30.764-2.175,3.5-3.884,7.3-6.06,11.42-2.8-2.253-5.593-4.2-8-6.525-3.807-3.574-3.341-8.08-1.787-12.43,4.04-11.808,9.633-22.685,18.645-31.541,3.263-3.263,6.448-6.6,9.556-9.944,4.35-4.661,9.789-7.691,15.537-10.177a5.581,5.581,0,0,1,5.516.078c5.827,3.263,11.575,6.526,17.4,9.866A3.04,3.04,0,0,1,136.3,267.795Z" transform="translate(130.898 -77.834)" fill="#f7f4da"/>
        <path id="Trazado_915191" data-name="Trazado 915191" d="M151.458,271.46c-3.03-4.972-6.137-9.788-9.322-14.683a12.85,12.85,0,0,0-7.846-5.516Q121,248.115,107.72,245.434q-5.127-1.049-8.39,3.729C94.2,256.621,88.842,264,83.482,271.3a2.939,2.939,0,0,0-.233,3.651c1.709,2.719,3.418,5.438,5.283,8.235,3.263-1.864,6.137-3.5,8.934-5.127,2.486-1.476,4.273-3.341,3.418-6.914,7.147-1.554,14.061-3.03,20.9-4.428.544-3.107-2.952-5.749-.155-9.478a29.466,29.466,0,0,1,2.175,3.574,46.039,46.039,0,0,1,1.864,5.516c3.108,9.866,8.779,17.79,17.791,23.151,4.739,2.8,9.556,3.03,14.683,2.02,2.952-.622,3.807-2.641,2.564-5.36a4.154,4.154,0,0,0-5.127-2.564,42.916,42.916,0,0,0-5.05,1.709c-1.942.7-3.5.389-4.584-1.476a12.089,12.089,0,0,1-1.01-10.332c.544-1.554,1.476-2.874,3.729-2.408-3.651,4.35-3.5,9.012.155,12.9,2.875-.621,5.749-1.321,8.546-1.942C155.42,278.607,153.556,274.956,151.458,271.46Zm-11.731-14.527c-2.564,2.02-5.205,4.117-7.769,6.137a6.987,6.987,0,0,1-.7-.777C133.124,259.185,135.765,257.01,139.728,256.932Z" transform="translate(-2.5 -151.65)" fill="#efb36b"/>
        <path id="Trazado_915192" data-name="Trazado 915192" d="M121.749,268.555c-2.641,1.088-4.739,2.331-6.992,2.8a4.3,4.3,0,0,0-3.574,3.418,16.843,16.843,0,0,0,2.408,15.3c3.03,4.117,6.992,4.894,11.265,1.942,5.127-3.573,10.1-7.38,15.071-11.109a28.863,28.863,0,0,1,2.486-1.554,20.585,20.585,0,0,1,.544,13.284c-1.864,7.38-4.972,13.984-11.42,18.567-4.506,3.185-9.012,3.574-13.751.854-13.6-7.846-21.286-19.577-22.84-35.192a23.315,23.315,0,0,1,4.04-16.547,8.569,8.569,0,0,1,6.293-3.729,14.325,14.325,0,0,1,14.217,7.3C120.2,265.214,120.739,266.612,121.749,268.555Z" transform="translate(-78.756 -75.564)" fill="#c6c6c6"/>
        <path id="Trazado_915193" data-name="Trazado 915193" d="M81.151,254.487c1.321.311,2.564.621,3.884.932,5.36,1.4,10.643,2.719,15.926,4.195a17.589,17.589,0,0,1,10.255,7.458c3.651,5.593,7.536,11.109,10.41,17.169,4.04,8.468,10.643,10.488,18.645,9.633,1.243-.155,2.408-.311,2.408-2.02,0-1.865-1.554-2.253-2.8-2.175a24.861,24.861,0,0,0-5.205,1.088c-1.709.466-3.341.388-4.428-1.088a32.739,32.739,0,0,1-3.5-5.671c-1.243-2.641.233-4.894,1.787-6.992,1.709-2.253,3.03-2.719,5.749-2.408-6.992,4.428-7.691,7.225-3.807,13.207a3.287,3.287,0,0,0,3.729,1.709c2.175-.389,4.351-.855,6.37-1.321-1.165-4.583-2.253-9.012-3.418-13.44a69.735,69.735,0,0,0-1.864-6.914c-2.8-7.3-6.836-13.207-15.149-15.615-7.691-2.253-15.149-5.36-22.607-8.235a5.089,5.089,0,0,0-5.05.544L80.84,253.4A7.951,7.951,0,0,1,81.151,254.487Zm39.776,3.573c-.078-.233-.078-.466-.155-.777,1.321-.233,2.641-.466,3.884-.777a5.882,5.882,0,0,0,.078,1.165C123.49,257.827,122.17,257.983,120.927,258.06Z" transform="translate(30.673 -162.955)" fill="#efb36b"/>
        <path id="Trazado_915194" data-name="Trazado 915194" d="M124.013,254.031c-1.476-4.195-4.428-6.06-8.468-6.914-7.147-1.554-14.217-3.185-21.286-4.661a20.5,20.5,0,0,0-4.894-.311,3.95,3.95,0,0,0-2.486.777,41.362,41.362,0,0,0-8.779,9.555c2.408.777,4.506,1.476,6.6,2.253,6.526,2.408,13.052,4.817,19.577,7.3a11.976,11.976,0,0,1,6.526,5.826c.7,1.4,2.1,2.408,3.185,3.574a31.131,31.131,0,0,1,2.564,3.03,19.434,19.434,0,0,0,21.83,7.924c.7-.233,1.631-.389,1.942-.932a5.756,5.756,0,0,0,1.243-3.03c0-1.554-1.4-1.787-2.641-1.554a44.364,44.364,0,0,0-5.516,1.476c-3.263,1.165-6.137.155-7.613-2.719a12.374,12.374,0,0,1,2.253-14.216C126.655,258.925,124.868,256.594,124.013,254.031ZM112.9,257.06c-.233-.233-.466-.388-.7-.621a9.853,9.853,0,0,1,5.982-5.127C116.4,253.176,114.613,255.118,112.9,257.06Z" transform="translate(53.068 -172.831)" fill="#efb36b"/>
        <path id="Trazado_915195" data-name="Trazado 915195" d="M109.858,242.9a8.8,8.8,0,0,0-4.2-1.243c-7.613-.388-15.149-.621-22.762-.932a3.545,3.545,0,0,0-3.651,2.02c-1.165,2.331-2.408,4.661-3.729,7.225.932.233,1.631.466,2.331.621,5.05,1.165,10.177,2.253,15.227,3.5,3.807.932,7.3,2.331,9.556,5.982,1.243,2.1,3.03,1.709,4.661-.466.233-.311.621-.544,1.088-1.01a10.279,10.279,0,0,1,1.709,1.4c3.03,3.962,7.225,6.215,11.731,7.846a21.374,21.374,0,0,0,12.275,1.088,6.27,6.27,0,0,0,5.205-6.37,4.17,4.17,0,0,0-1.476-2.874c-.544-.388-2.02,0-2.719.544a18.614,18.614,0,0,0-3.5,3.5c-1.632,2.02-3.418,1.942-5.594,1.088-5.671-2.331-7.536-7.07-5.516-14.061C117.083,248.183,113.587,245.387,109.858,242.9Zm-3.263,4.04c.311.233.621.388.932.621l-2.331,3.962c-.466-.311-.855-.621-1.321-.932C104.808,249.349,105.74,248.183,106.6,246.941Z" transform="translate(75.381 -182.288)" fill="#efb36b"/>
        <path id="Trazado_915196" data-name="Trazado 915196" d="M65.1,273.452c.078-3.107.855-5.438,3.107-7.3A127.849,127.849,0,0,1,107.673,243a4.07,4.07,0,0,1,2.874,0c4.506,2.1,8.934,4.351,13.518,6.526-1.864.621-3.962,1.243-6.06,1.942-9.012,3.185-18.1,6.06-26.88,9.633-8,3.263-15.615,7.225-23.384,10.954C66.887,272.442,66.188,272.908,65.1,273.452Z" transform="translate(171.568 -168.636)" fill="#dadada"/>
        <path id="Trazado_915197" data-name="Trazado 915197" d="M95.03,261.372c5.205-2.02,10.332-3.962,15.615-5.982,7.458,8.468,12.275,18.179,15.382,28.977-4.972,3.34-9.789,6.6-15.071,10.1C111.189,280.716,110.024,267.9,95.03,261.372Z" transform="translate(-62.914 -82.986)" fill="#dadada"/>
        <path id="Trazado_915198" data-name="Trazado 915198" d="M97.587,262.525c2.952-1.476,5.594-2.719,8.468-4.2,2.1,5.749,2.486,11.42.466,17.091-1.165,3.263-3.341,3.729-5.671,1.165C97.043,272.547,97.043,267.5,97.587,262.525Z" transform="translate(-62.596 -63.086)" fill="#dadada"/>
        <path id="Trazado_915199" data-name="Trazado 915199" d="M81.511,244.8c3.03,4.04,5.827,7.769,8.7,11.653-2.02.7-3.962,1.243-5.827,1.942-1.631.621-3.341.311-3.962-1.088a25.542,25.542,0,0,1-1.864-7.147A4.747,4.747,0,0,1,81.511,244.8Z" transform="translate(101.242 -154.666)" fill="#efb36b"/>
        <path id="Trazado_915200" data-name="Trazado 915200" d="M76.678,242.16c4.2,2.253,8,4.351,11.964,6.448a8.863,8.863,0,0,1-1.165,1.476c-1.709,1.321-2.564,4.428-5.671,2.952s-5.36-3.651-5.594-7.3A16.71,16.71,0,0,1,76.678,242.16Z" transform="translate(120.757 -172.536)" fill="#efb36b"/>
        <path id="Trazado_915201" data-name="Trazado 915201" d="M85.49,252.178c1.864-3.185,4.506-5.283,8.468-5.438-2.564,2.02-5.205,4.117-7.769,6.137A2.968,2.968,0,0,1,85.49,252.178Z" transform="translate(43.27 -141.535)" fill="#311d48"/>
        <path id="Trazado_915202" data-name="Trazado 915202" d="M87.112,246.415c-1.243.155-2.564.233-3.807.388-.078-.233-.078-.466-.155-.777,1.321-.233,2.641-.466,3.884-.777A5.885,5.885,0,0,1,87.112,246.415Z" transform="translate(68.294 -151.621)" fill="#311d48"/>
        <path id="Trazado_915203" data-name="Trazado 915203" d="M87.092,243.29c-1.787,1.942-3.5,3.884-5.283,5.826-.233-.233-.466-.388-.7-.621A9.733,9.733,0,0,1,87.092,243.29Z" transform="translate(84.163 -164.887)" fill="#311d48"/>
        <path id="Trazado_915204" data-name="Trazado 915204" d="M79.61,245.171c.855-1.243,1.787-2.408,2.641-3.651.311.233.622.388.932.621L80.853,246.1C80.465,245.793,80,245.482,79.61,245.171Z" transform="translate(99.724 -176.867)" fill="#311d48"/>
      </g>
    </g>
  </g>
</svg>
