<svg id="comilla1" xmlns="http://www.w3.org/2000/svg" xmlns:xlink="http://www.w3.org/1999/xlink" width="77.274" height="60.979" viewBox="0 0 77.274 60.979">
  <defs>
    <clipPath id="clip-path">
      <rect id="Rectángulo_33979" data-name="Rectángulo 33979" width="77.274" height="60.979" fill="#4dd0e1"/>
    </clipPath>
  </defs>
  <g id="Grupo_1071901" data-name="Grupo 1071901" clip-path="url(#clip-path)">
    <path id="Trazado_113755" data-name="Trazado 113755" d="M5.59,5.339A18.2,18.2,0,0,1,18.548,0,17.335,17.335,0,0,1,31.253,5.339a17.348,17.348,0,0,1,5.335,12.7,18.051,18.051,0,0,1-3.813,11.307,16.4,16.4,0,0,1-6.283,5.036l4.61,26.6H20.58L6.606,37.6Q0,26.682,0,18.042a16.983,16.983,0,0,1,5.59-12.7" transform="translate(40.686 -0.001)" fill="#4dd0e1"/>
    <path id="Trazado_113756" data-name="Trazado 113756" d="M26.014,5.339A18.2,18.2,0,0,1,38.972,0,17.335,17.335,0,0,1,51.677,5.339a17.348,17.348,0,0,1,5.335,12.7A18.061,18.061,0,0,1,53.2,29.349a16.4,16.4,0,0,1-6.285,5.036l4.61,26.6H41L27.03,37.6q-6.6-10.921-6.606-19.562a16.983,16.983,0,0,1,5.59-12.7" transform="translate(-20.424 -0.001)" fill="#4dd0e1"/>
  </g>
</svg>
