<svg id="comilla2" xmlns="http://www.w3.org/2000/svg" xmlns:xlink="http://www.w3.org/1999/xlink" width="77.273" height="60.979" viewBox="0 0 77.273 60.979">
  <defs>
    <clipPath id="clip-path">
      <rect id="Rectángulo_33979" data-name="Rectángulo 33979" width="77.273" height="60.979" fill="#4dd0e1"/>
    </clipPath>
  </defs>
  <g id="Grupo_1071901" data-name="Grupo 1071901" clip-path="url(#clip-path)">
    <path id="Trazado_113755" data-name="Trazado 113755" d="M31,5.339A18.2,18.2,0,0,0,18.04,0,17.335,17.335,0,0,0,5.335,5.339,17.348,17.348,0,0,0,0,18.042,18.051,18.051,0,0,0,3.813,29.349,16.4,16.4,0,0,0,10.1,34.385l-4.61,26.6H16.008L29.982,37.6q6.6-10.921,6.606-19.562A16.983,16.983,0,0,0,31,5.339" transform="translate(0 -0.001)" fill="#4dd0e1"/>
    <path id="Trazado_113756" data-name="Trazado 113756" d="M51.422,5.339A18.2,18.2,0,0,0,38.464,0,17.335,17.335,0,0,0,25.759,5.339a17.348,17.348,0,0,0-5.335,12.7,18.061,18.061,0,0,0,3.811,11.307,16.4,16.4,0,0,0,6.285,5.036l-4.61,26.6H36.432L50.406,37.6q6.6-10.921,6.606-19.562a16.983,16.983,0,0,0-5.59-12.7" transform="translate(20.262 -0.001)" fill="#4dd0e1"/>
  </g>
</svg>
