<svg xmlns="http://www.w3.org/2000/svg" width="221.711" height="228.688" viewBox="0 0 221.711 228.688">
  <g id="Grupo_1104389" data-name="Grupo 1104389" transform="translate(-8 -6.002)">
    <path id="blob" d="M142.423-18.5C161.2,16.661,156.9,62.64,135.9,96.527c-20.841,34.046-58.547,56.16-100.071,58.547C-5.854,157.3-51.514,139.96-63.764,111-76.015,81.89-54.855,41.48-32.1,3.934c22.91-37.387,47.41-71.752,80.661-76.684,18.753-2.871,40.24,3.62,59.03,16.275A108.845,108.845,0,0,1,142.423-18.5Z" transform="translate(75.36 79.423)" fill="#e0e9fa"/>
    <g id="Grupo_23" data-name="Grupo 23" transform="translate(228.171 15.238) rotate(90)">
      <text id="_" data-name="+" transform="translate(15.698 156.331)" fill="#5b92fe" font-size="28" font-family="Montserrat-Bold, Montserrat" font-weight="700"><tspan x="-8.386" y="0">+</tspan></text>
      <text id="_2" data-name="+" transform="translate(138.871 27)" fill="#5b92fe" font-size="28" font-family="Montserrat-Bold, Montserrat" font-weight="700"><tspan x="-8.386" y="0">+</tspan></text>
      <circle id="Elipse_1" data-name="Elipse 1" cx="6.159" cy="6.159" r="6.159" transform="translate(1.54 33.872)" fill="#5b92fe"/>
      <circle id="Elipse_2" data-name="Elipse 2" cx="6.159" cy="6.159" r="6.159" transform="translate(43.11 177.061)" fill="#5b92fe"/>
      <circle id="Elipse_5" data-name="Elipse 5" cx="6.159" cy="6.159" r="6.159" transform="translate(160.124 170.902)" fill="#5b92fe"/>
      <circle id="Elipse_6" data-name="Elipse 6" cx="15.397" cy="15.397" r="15.397" transform="translate(63.126 15.397)" fill="#5b92fe" opacity="0.39"/>
      <circle id="Elipse_7" data-name="Elipse 7" cx="15.397" cy="15.397" r="15.397" transform="translate(160.124 117.014)" fill="#5b92fe" opacity="0.39"/>
      <circle id="Elipse_11" data-name="Elipse 11" cx="10.778" cy="10.778" r="10.778" transform="translate(184.759 3.079)" fill="#5b92fe" opacity="0.39"/>
      <circle id="Elipse_12" data-name="Elipse 12" cx="10.778" cy="10.778" r="10.778" transform="translate(0 181.68)" fill="#5b92fe" opacity="0.39"/>
      <circle id="Elipse_8" data-name="Elipse 8" cx="15.397" cy="15.397" r="15.397" transform="translate(58.507 161.664)" fill="#5b92fe" opacity="0.39"/>
      <g id="Elipse_3" data-name="Elipse 3" transform="translate(191.966 77.855)" fill="none" stroke="#5b92fe" stroke-width="2">
        <circle cx="6.159" cy="6.159" r="6.159" stroke="none"/>
        <circle cx="6.159" cy="6.159" r="5.159" fill="none"/>
      </g>
      <g id="Elipse_4" data-name="Elipse 4" transform="translate(10.778 80.062)" fill="none" stroke="#5b92fe" stroke-width="2">
        <circle cx="6.159" cy="6.159" r="6.159" stroke="none"/>
        <circle cx="6.159" cy="6.159" r="5.159" fill="none"/>
      </g>
    </g>
    <g id="Grupo_20" data-name="Grupo 20" transform="translate(46.491 42.952)">
      <path id="Trazado_43" data-name="Trazado 43" d="M1263.067,193.495s-5.705-68.7,74.174-76.256" transform="translate(-1241.782 -98.036)" fill="none" stroke="#000" stroke-linecap="round" stroke-width="3" stroke-dasharray="5"/>
      <g id="Grupo_18" data-name="Grupo 18" transform="translate(0 84.681)">
        <g id="Trazado_882280" data-name="Trazado 882280" transform="translate(0 0)" fill="#fff">
          <path d="M 21.55521202087402 41.61042022705078 C 18.84711265563965 41.61042022705078 16.22082138061523 41.08037185668945 13.74928188323975 40.03500366210938 C 11.36130237579346 39.02497100830078 9.216361999511719 37.57871246337891 7.37404203414917 35.73639297485352 C 5.531722068786621 33.89407348632812 4.085452079772949 31.74913215637207 3.075422048568726 29.36114120483398 C 2.030051946640015 26.88960266113281 1.500002026557922 24.2633113861084 1.500002026557922 21.55521202087402 C 1.500002026557922 18.84711265563965 2.030051946640015 16.22082138061523 3.075422048568726 13.74928188323975 C 4.085452079772949 11.36130237579346 5.531722068786621 9.216361999511719 7.37404203414917 7.37404203414917 C 9.216361999511719 5.531722068786621 11.36130237579346 4.085452079772949 13.74928188323975 3.075422048568726 C 16.22082138061523 2.030051946640015 18.84711265563965 1.500002026557922 21.55521202087402 1.500002026557922 C 24.2633113861084 1.500002026557922 26.88960266113281 2.030051946640015 29.36114120483398 3.075422048568726 C 31.74913215637207 4.085452079772949 33.89407348632812 5.531722068786621 35.73639297485352 7.37404203414917 C 37.57871246337891 9.216361999511719 39.02497100830078 11.36130237579346 40.03500366210938 13.74928188323975 C 41.08037185668945 16.22082138061523 41.61042022705078 18.84711265563965 41.61042022705078 21.55521202087402 C 41.61042022705078 24.2633113861084 41.08037185668945 26.88960266113281 40.03500366210938 29.36115264892578 C 39.02497100830078 31.74913215637207 37.57871246337891 33.89407348632812 35.73639297485352 35.73639297485352 C 33.89407348632812 37.57871246337891 31.74913215637207 39.02497100830078 29.36115264892578 40.03500366210938 C 26.88960266113281 41.08037185668945 24.2633113861084 41.61042022705078 21.55521202087402 41.61042022705078 Z" stroke="none"/>
          <path d="M 21.55521202087402 3.000003814697266 C 16.59893226623535 3.000003814697266 11.93931198120117 4.930080413818359 8.4346923828125 8.4346923828125 C 4.930080413818359 11.93931198120117 3.000003814697266 16.59893226623535 3.000003814697266 21.55521202087402 C 3.000003814697266 26.5114917755127 4.930080413818359 31.17111206054688 8.4346923828125 34.67572021484375 C 11.93931198120117 38.18034362792969 16.59893226623535 40.11042022705078 21.55521202087402 40.11042022705078 C 26.51148223876953 40.11042022705078 31.17111206054688 38.18034362792969 34.67572021484375 34.67572021484375 C 38.18034362792969 31.17111206054688 40.11042022705078 26.51148223876953 40.11042022705078 21.55521202087402 C 40.11042022705078 16.59893226623535 38.18034362792969 11.93931198120117 34.67572021484375 8.4346923828125 C 31.17111206054688 4.930080413818359 26.5114917755127 3.000003814697266 21.55521202087402 3.000003814697266 M 21.55521202087402 3.814697265625e-06 C 33.45982360839844 3.814697265625e-06 43.11042022705078 9.650592803955078 43.11042022705078 21.55521202087402 C 43.11042022705078 33.45982360839844 33.45982360839844 43.11042022705078 21.55521202087402 43.11042022705078 C 9.650592803955078 43.11042022705078 3.814697265625e-06 33.45982360839844 3.814697265625e-06 21.55521202087402 C 3.814697265625e-06 9.650592803955078 9.650592803955078 3.814697265625e-06 21.55521202087402 3.814697265625e-06 Z" stroke="none" fill="#000"/>
        </g>
        <path id="Trazado_882380" data-name="Trazado 882380" d="M7.7,0A7.7,7.7,0,1,1,0,7.7,7.7,7.7,0,0,1,7.7,0Z" transform="translate(13.857 13.857)"/>
      </g>
      <g id="Grupo_19" data-name="Grupo 19" transform="translate(83.141 0)">
        <path id="Trazado_882281" data-name="Trazado 882281" d="M20.016,0A20.016,20.016,0,1,1,0,20.016,20.016,20.016,0,0,1,20.016,0Z" transform="translate(0)" fill="#98f9da"/>
        <g id="Icon_feather-check-circle" data-name="Icon feather-check-circle" transform="translate(1.348 1.348)">
          <path id="Trazado_18" data-name="Trazado 18" d="M39.849,19.731v1.7A18.424,18.424,0,1,1,28.923,4.587" transform="translate(-3 -2.991)" fill="none" stroke="#000" stroke-linecap="round" stroke-linejoin="round" stroke-width="3"/>
          <path id="Trazado_19" data-name="Trazado 19" d="M37.452,6,19.027,24.443,13.5,18.916" transform="translate(-0.603 -2.304)" fill="none" stroke="#000" stroke-linecap="round" stroke-linejoin="round" stroke-width="3"/>
        </g>
      </g>
    </g>
    <g id="Layer_32" data-name="Layer 32" transform="translate(89.024 79.708)">
      <path id="Trazado_882349" data-name="Trazado 882349" d="M91.564,95.135H55.425L50.5,80.351l-5.224-1.3a34.661,34.661,0,0,1-14.111-7.31,25.243,25.243,0,0,0-12.189-5.684A3.556,3.556,0,0,1,19.565,59a52.63,52.63,0,0,1,18.546,3.368l4.172,1.561-6.571-23L19.975,18.9A3.735,3.735,0,0,1,23.014,13a6.571,6.571,0,0,1,4.78,2.07L42.48,30.741a6.163,6.163,0,0,1,9.659-3.368A31.234,31.234,0,0,1,55.211,30a6.157,6.157,0,0,1,8.427-.986,35.154,35.154,0,0,1,3.45,2.99,3.7,3.7,0,0,1,5.749-1.84l2.793,2.086a14.71,14.71,0,0,1,4.353,5.224,16.311,16.311,0,0,1,1.725,7.294,15.607,15.607,0,0,1-.148,2.152L78.422,70.494Z" transform="translate(4.705 3.823)" fill="#fdaa8e"/>
      <path id="Trazado_882350" data-name="Trazado 882350" d="M77.137,70.494l3.138-23.573a15.607,15.607,0,0,0,.148-2.152A16.31,16.31,0,0,0,78.7,37.476a14.71,14.71,0,0,0-4.353-5.224l-2.793-2.086a3.7,3.7,0,0,0-5.749,1.84,35.152,35.152,0,0,0-3.45-2.99A6.157,6.157,0,0,0,53.926,30a31.233,31.233,0,0,0-3.072-2.628,6.163,6.163,0,0,0-9.659,3.368L26.509,15.07A6.571,6.571,0,0,0,21.729,13a3.735,3.735,0,0,0-3.039,5.9L34.427,40.926l6.571,23-4.172-1.561A52.63,52.63,0,0,0,18.279,59c-.087,0-.164.02-.255.025,0,.085-.025.164-.025.255a3.56,3.56,0,0,0,2.973,3.5,25.243,25.243,0,0,1,12.189,5.684,34.661,34.661,0,0,0,14.111,7.31l5.224,1.3A21.621,21.621,0,0,0,73.009,91.849H88.526Z" transform="translate(5.991 3.823)" fill="#ffc39c"/>
      <g id="Grupo_1101460" data-name="Grupo 1101460" transform="translate(45.965 32.648)">
        <path id="Trazado_882352" data-name="Trazado 882352" d="M0,0H3.284V11.714H0Z" transform="translate(0 3.047) rotate(-43.176)" fill="#d08d78"/>
        <path id="Trazado_882353" data-name="Trazado 882353" d="M41.468,22.634l-2.3,2.352a29.793,29.793,0,0,1,4.764,6.027l1.758,2.924,2.816-1.692-1.756-2.921a33.044,33.044,0,0,0-5.281-6.691Z" transform="translate(-26.369 -22.634)" fill="#d08d78"/>
        <path id="Trazado_882354" data-name="Trazado 882354" d="M53.616,30.174a32.082,32.082,0,0,0-4.9-6.3L46.393,26.2a28.844,28.844,0,0,1,4.4,5.664l1.758,2.924,2.816-1.692Z" transform="translate(-21.726 -21.838)" fill="#d08d78"/>
      </g>
      <path id="Trazado_882360" data-name="Trazado 882360" d="M83.832,47.783A17.923,17.923,0,0,0,82.1,37.391a16.535,16.535,0,0,0-4.834-5.805l-2.793-2.091a5.37,5.37,0,0,0-3.2-1.068A5.306,5.306,0,0,0,67.389,30.1c-.685-.608-1.382-1.2-2.119-1.754a7.8,7.8,0,0,0-9.442.059c-.657-.586-1.34-1.165-2.057-1.7a7.793,7.793,0,0,0-11.087,1.807L29.643,14.6A8.23,8.23,0,0,0,23.664,12a5.375,5.375,0,0,0-4.375,8.5l15.568,21.8,5.6,19.591-1.117-.419A54.324,54.324,0,0,0,20.2,58a5.2,5.2,0,0,0-.854,10.329,23.4,23.4,0,0,1,11.382,5.316,36.427,36.427,0,0,0,14.784,7.642l4.345,1.086L54.5,96.3l3.121-1.038L52.7,80.474a1.643,1.643,0,0,0-1.16-1.074l-5.22-1.314a33.1,33.1,0,0,1-13.452-6.949,26.7,26.7,0,0,0-12.977-6.062,1.914,1.914,0,0,1,.317-3.795,51.039,51.039,0,0,1,17.981,3.261l4.168,1.564a1.643,1.643,0,0,0,2.155-1.991l-6.571-23a1.642,1.642,0,0,0-.241-.5L21.964,18.589a2.09,2.09,0,0,1,1.7-3.3,4.928,4.928,0,0,1,3.583,1.552l22.7,24.212,2.4-2.247-7.32-7.809A4.512,4.512,0,0,1,51.8,29.33a29.679,29.679,0,0,1,7.675,8.509l1.759,2.932,2.816-1.692-1.758-2.932a33.017,33.017,0,0,0-4.044-5.385,4.655,4.655,0,0,1,5.051.209,29.678,29.678,0,0,1,7.675,8.509l1.759,2.932,2.816-1.692L73.791,37.79a33.1,33.1,0,0,0-4.041-5.381,2.027,2.027,0,0,1,1.516-.7,2.068,2.068,0,0,1,1.232.411l2.793,2.091a13.232,13.232,0,0,1,3.878,4.647,14.62,14.62,0,0,1,1.418,8.488L77.441,70.92a1.643,1.643,0,0,0,.179.986l13.142,24.64L93.659,95,80.767,70.83Z" transform="translate(4.059 3.18)"/>
    </g>
  </g>
</svg>
